G04 Layer_Color=16711935*
%FSLAX44Y44*%
%MOMM*%
G71*
G01*
G75*
%ADD30R,1.1938X1.1938*%
%ADD31C,1.1938*%
%ADD32C,1.4986*%
%ADD41C,0.2032*%
%ADD42R,1.7032X1.7032*%
%ADD43C,1.7032*%
%ADD44R,1.7032X1.7032*%
%ADD45C,1.4732*%
D30*
X152400Y205232D02*
D03*
D31*
Y254000D02*
D03*
D32*
X299720Y426321D02*
D03*
Y401320D02*
D03*
Y376319D02*
D03*
Y351318D02*
D03*
X370840Y425922D02*
D03*
Y400921D02*
D03*
Y375920D02*
D03*
Y350919D02*
D03*
D41*
X125000Y425000D02*
D03*
X370000Y40000D02*
D03*
D42*
X391160Y224790D02*
D03*
X20320Y245110D02*
D03*
D43*
X391160Y199390D02*
D03*
Y173990D02*
D03*
Y148590D02*
D03*
Y123190D02*
D03*
Y97790D02*
D03*
X20320Y16510D02*
D03*
Y41910D02*
D03*
Y67310D02*
D03*
Y92710D02*
D03*
Y219710D02*
D03*
Y194310D02*
D03*
Y168910D02*
D03*
Y143510D02*
D03*
Y118110D02*
D03*
X314960Y26670D02*
D03*
X289560D02*
D03*
X264160D02*
D03*
X238760D02*
D03*
X213360D02*
D03*
X187960D02*
D03*
X162560D02*
D03*
X137160D02*
D03*
X111760D02*
D03*
D44*
X86360D02*
D03*
D45*
X38100Y298450D02*
D03*
X374650Y161290D02*
D03*
X353060Y173990D02*
D03*
X367030Y186690D02*
D03*
X316230Y138430D02*
D03*
X299720Y133350D02*
D03*
X332740Y186690D02*
D03*
X288290Y82550D02*
D03*
X261620Y90170D02*
D03*
X230246Y154046D02*
D03*
X191770Y132080D02*
D03*
X331470Y303530D02*
D03*
X358140Y276860D02*
D03*
X213360Y223520D02*
D03*
X195580Y203200D02*
D03*
X199390Y247650D02*
D03*
X347980Y237490D02*
D03*
X242570Y342900D02*
D03*
X256540Y364490D02*
D03*
X212090Y289560D02*
D03*
X119380Y314960D02*
D03*
X17780Y327660D02*
D03*
X173990Y299720D02*
D03*
X191770Y368300D02*
D03*
X266700Y289560D02*
D03*
X190500Y323850D02*
D03*
X215900Y255270D02*
D03*
X360045Y204470D02*
D03*
X356870Y222250D02*
D03*
M02*
