G04 Layer_Color=8388736*
%FSLAX44Y44*%
%MOMM*%
G71*
G01*
G75*
%ADD10R,1.4975X1.1176*%
%ADD11R,0.6604X0.8636*%
%ADD12R,1.1176X1.4975*%
%ADD13R,0.8636X0.6604*%
%ADD14R,0.7874X0.7874*%
%ADD15R,0.7556X0.8000*%
%ADD16R,0.2794X1.4732*%
%ADD17R,1.4732X0.2794*%
%ADD18R,0.8000X0.7556*%
%ADD19R,0.5588X1.9812*%
%ADD20R,2.2098X2.2606*%
%ADD21R,0.9398X1.7018*%
%ADD22R,6.6548X7.7216*%
%ADD30R,1.1938X1.1938*%
%ADD31C,1.1938*%
%ADD32C,1.4986*%
%ADD40R,1.1430X1.0160*%
%ADD41C,0.2032*%
%ADD42R,1.7032X1.7032*%
%ADD43C,1.7032*%
%ADD44R,1.7032X1.7032*%
%ADD45C,1.4732*%
D10*
X208656Y133350D02*
D03*
X230764D02*
D03*
X224414Y306070D02*
D03*
X202306D02*
D03*
D11*
X227965Y113030D02*
D03*
X213995D02*
D03*
X26035Y344170D02*
D03*
X12065D02*
D03*
X314325Y168910D02*
D03*
X300355D02*
D03*
X238125Y289560D02*
D03*
X252095D02*
D03*
X205105Y323850D02*
D03*
X219075D02*
D03*
X186055Y223520D02*
D03*
X200025D02*
D03*
D12*
X62230Y345064D02*
D03*
Y322956D02*
D03*
D13*
X38100Y348615D02*
D03*
Y334645D02*
D03*
X116840Y207645D02*
D03*
Y221615D02*
D03*
Y252095D02*
D03*
Y238125D02*
D03*
X245110Y376555D02*
D03*
Y390525D02*
D03*
X337820Y252095D02*
D03*
Y266065D02*
D03*
D14*
X139827Y312420D02*
D03*
X154813D02*
D03*
D15*
X155098Y298450D02*
D03*
X139542D02*
D03*
X204312Y410210D02*
D03*
X219868D02*
D03*
D16*
X249360Y270764D02*
D03*
X254360D02*
D03*
X259360D02*
D03*
X264360D02*
D03*
X269360D02*
D03*
X274360D02*
D03*
X279360D02*
D03*
X284360D02*
D03*
X289360D02*
D03*
X294360D02*
D03*
X299360D02*
D03*
X304360D02*
D03*
Y186436D02*
D03*
X299360D02*
D03*
X294360D02*
D03*
X289360D02*
D03*
X284360D02*
D03*
X279360D02*
D03*
X274360D02*
D03*
X269360D02*
D03*
X264360D02*
D03*
X259360D02*
D03*
X254360D02*
D03*
X249360D02*
D03*
D17*
X319024Y256100D02*
D03*
Y251100D02*
D03*
Y246100D02*
D03*
Y241100D02*
D03*
Y236100D02*
D03*
Y231100D02*
D03*
Y226100D02*
D03*
Y221100D02*
D03*
Y216100D02*
D03*
Y211100D02*
D03*
Y206100D02*
D03*
Y201100D02*
D03*
X234696D02*
D03*
Y206100D02*
D03*
Y211100D02*
D03*
Y216100D02*
D03*
Y221100D02*
D03*
Y226100D02*
D03*
Y231100D02*
D03*
Y236100D02*
D03*
Y241100D02*
D03*
Y246100D02*
D03*
Y251100D02*
D03*
Y256100D02*
D03*
D18*
X187960Y261462D02*
D03*
Y277018D02*
D03*
D19*
X191770Y343408D02*
D03*
X204470D02*
D03*
X217170D02*
D03*
X229870D02*
D03*
Y390652D02*
D03*
X217170D02*
D03*
X204470D02*
D03*
X191770D02*
D03*
D20*
X199263Y443230D02*
D03*
X240157D02*
D03*
D21*
X15600Y366903D02*
D03*
X60600D02*
D03*
D22*
X38100Y427990D02*
D03*
D30*
X152400Y205232D02*
D03*
D31*
Y254000D02*
D03*
D32*
X299720Y426321D02*
D03*
Y401320D02*
D03*
Y376319D02*
D03*
Y351318D02*
D03*
X370840Y425922D02*
D03*
Y400921D02*
D03*
Y375920D02*
D03*
Y350919D02*
D03*
D40*
X119380Y344551D02*
D03*
Y331089D02*
D03*
D41*
X125000Y425000D02*
D03*
X370000Y40000D02*
D03*
D42*
X391160Y224790D02*
D03*
X20320Y245110D02*
D03*
D43*
X391160Y199390D02*
D03*
Y173990D02*
D03*
Y148590D02*
D03*
Y123190D02*
D03*
Y97790D02*
D03*
X20320Y16510D02*
D03*
Y41910D02*
D03*
Y67310D02*
D03*
Y92710D02*
D03*
Y219710D02*
D03*
Y194310D02*
D03*
Y168910D02*
D03*
Y143510D02*
D03*
Y118110D02*
D03*
X314960Y26670D02*
D03*
X289560D02*
D03*
X264160D02*
D03*
X238760D02*
D03*
X213360D02*
D03*
X187960D02*
D03*
X162560D02*
D03*
X137160D02*
D03*
X111760D02*
D03*
D44*
X86360D02*
D03*
D45*
X38100Y298450D02*
D03*
X374650Y161290D02*
D03*
X353060Y173990D02*
D03*
X367030Y186690D02*
D03*
X316230Y138430D02*
D03*
X299720Y133350D02*
D03*
X332740Y186690D02*
D03*
X288290Y82550D02*
D03*
X261620Y90170D02*
D03*
X230246Y154046D02*
D03*
X191770Y132080D02*
D03*
X331470Y303530D02*
D03*
X358140Y276860D02*
D03*
X213360Y223520D02*
D03*
X195580Y203200D02*
D03*
X199390Y247650D02*
D03*
X347980Y237490D02*
D03*
X242570Y342900D02*
D03*
X256540Y364490D02*
D03*
X212090Y289560D02*
D03*
X119380Y314960D02*
D03*
X17780Y327660D02*
D03*
X173990Y299720D02*
D03*
X191770Y368300D02*
D03*
X266700Y289560D02*
D03*
X190500Y323850D02*
D03*
X215900Y255270D02*
D03*
X360045Y204470D02*
D03*
X356870Y222250D02*
D03*
M02*
