G04 Layer_Physical_Order=2*
G04 Layer_Color=16711680*
%FSLAX44Y44*%
%MOMM*%
G71*
G01*
G75*
%ADD24C,0.5000*%
%ADD25C,1.0000*%
%ADD26C,0.2000*%
%ADD27C,0.2032*%
%ADD28R,1.5000X1.5000*%
%ADD29C,1.5000*%
%ADD30R,1.1938X1.1938*%
%ADD31C,1.1938*%
%ADD32C,1.4986*%
%ADD33R,1.5000X1.5000*%
%ADD34C,1.2700*%
G36*
X192358Y243590D02*
X193649Y241909D01*
X195330Y240618D01*
X197288Y239807D01*
X199390Y239531D01*
X201492Y239807D01*
X202798Y240348D01*
X210607Y232540D01*
Y231093D01*
X209300Y230552D01*
X207619Y229261D01*
X206328Y227580D01*
X205517Y225621D01*
X205240Y223520D01*
X205517Y221418D01*
X206328Y219460D01*
X207619Y217779D01*
X209300Y216488D01*
X210607Y215947D01*
Y186690D01*
X210817Y185637D01*
X211413Y184743D01*
X232109Y164048D01*
X231516Y162846D01*
Y155316D01*
X239046D01*
X240248Y155909D01*
X248243Y147914D01*
X248243Y147913D01*
X249137Y147317D01*
X250190Y147107D01*
X250190Y147107D01*
X303660D01*
X308929Y141838D01*
X308387Y140532D01*
X308186Y139006D01*
X306859Y138650D01*
X306060Y139690D01*
X304203Y141115D01*
X302041Y142011D01*
X300990Y142149D01*
Y133350D01*
X299720D01*
Y132080D01*
X290921D01*
X291059Y131029D01*
X291955Y128867D01*
X293380Y127010D01*
X294770Y125943D01*
X294339Y124673D01*
X197427D01*
X196996Y125943D01*
X197511Y126339D01*
X198802Y128020D01*
X199613Y129979D01*
X199890Y132080D01*
X199613Y134181D01*
X198802Y136140D01*
X197511Y137821D01*
X195830Y139112D01*
X194523Y139653D01*
Y194257D01*
X195478Y195094D01*
X195580Y195081D01*
X197682Y195357D01*
X199640Y196168D01*
X201321Y197459D01*
X202612Y199140D01*
X203423Y201098D01*
X203699Y203200D01*
X203423Y205301D01*
X202612Y207260D01*
X201321Y208941D01*
X199640Y210232D01*
X197682Y211043D01*
X195580Y211320D01*
X194090Y211123D01*
X190713Y214500D01*
Y244244D01*
X191983Y244497D01*
X192358Y243590D01*
D02*
G37*
G36*
X329369Y295687D02*
X331470Y295410D01*
X333572Y295687D01*
X334878Y296229D01*
X350839Y280268D01*
X350297Y278962D01*
X350020Y276860D01*
X350297Y274758D01*
X350917Y273262D01*
X349840Y272543D01*
X327153Y295230D01*
X327872Y296307D01*
X329369Y295687D01*
D02*
G37*
G36*
X360467Y168333D02*
Y153540D01*
X310010Y103083D01*
X78740D01*
X77687Y102873D01*
X76793Y102277D01*
X69980Y95463D01*
X29138D01*
X28356Y97350D01*
X26881Y99271D01*
X24960Y100746D01*
X22722Y101673D01*
X20320Y101989D01*
X17918Y101673D01*
X15680Y100746D01*
X13758Y99271D01*
X12284Y97350D01*
X11902Y96428D01*
X10632Y96681D01*
Y114139D01*
X11902Y114391D01*
X12284Y113470D01*
X13758Y111549D01*
X15680Y110074D01*
X17918Y109147D01*
X20320Y108831D01*
X22722Y109147D01*
X24960Y110074D01*
X26881Y111549D01*
X28356Y113470D01*
X29138Y115357D01*
X317500D01*
X318554Y115567D01*
X319447Y116163D01*
X355007Y151723D01*
X355603Y152617D01*
X355813Y153670D01*
X355813Y153670D01*
Y166417D01*
X357120Y166958D01*
X358801Y168249D01*
X359197Y168764D01*
X360467Y168333D01*
D02*
G37*
G36*
X62031Y122036D02*
X61545Y120863D01*
X29138D01*
X28356Y122750D01*
X26881Y124671D01*
X24960Y126146D01*
X22722Y127073D01*
X20320Y127389D01*
X17918Y127073D01*
X15680Y126146D01*
X13758Y124671D01*
X12284Y122750D01*
X11902Y121828D01*
X10632Y122081D01*
Y139539D01*
X11902Y139791D01*
X12284Y138870D01*
X13758Y136948D01*
X15680Y135474D01*
X17918Y134547D01*
X20320Y134231D01*
X22722Y134547D01*
X24960Y135474D01*
X26881Y136948D01*
X28356Y138870D01*
X29138Y140757D01*
X43310D01*
X62031Y122036D01*
D02*
G37*
G36*
X6350Y464820D02*
X80010D01*
Y439420D01*
X86360Y433070D01*
Y406400D01*
X105410Y387350D01*
Y386080D01*
X133564D01*
X134050Y384907D01*
X83561Y334418D01*
X22197D01*
X21840Y334692D01*
X19882Y335503D01*
X17780Y335779D01*
X15678Y335503D01*
X13720Y334692D01*
X12039Y333401D01*
X10748Y331720D01*
X9937Y329762D01*
X9661Y327660D01*
X9937Y325559D01*
X10748Y323600D01*
X12039Y321919D01*
X13720Y320628D01*
X15678Y319817D01*
X17780Y319541D01*
X19882Y319817D01*
X21840Y320628D01*
X22197Y320902D01*
X86360D01*
X88109Y321133D01*
X89739Y321808D01*
X91138Y322882D01*
X187820Y419563D01*
X252686D01*
X253161Y419199D01*
X253787Y418940D01*
Y372063D01*
X252480Y371522D01*
X250799Y370231D01*
X249508Y368550D01*
X248697Y366591D01*
X248421Y364490D01*
X248697Y362388D01*
X249508Y360430D01*
X250799Y358749D01*
X251314Y358353D01*
X250883Y357083D01*
X206880D01*
X199072Y364892D01*
X199613Y366199D01*
X199890Y368300D01*
X199613Y370401D01*
X198802Y372360D01*
X197511Y374041D01*
X195830Y375332D01*
X193871Y376143D01*
X191770Y376419D01*
X189669Y376143D01*
X187710Y375332D01*
X186029Y374041D01*
X184738Y372360D01*
X183927Y370401D01*
X183650Y368300D01*
X183927Y366199D01*
X184738Y364240D01*
X186029Y362559D01*
X187710Y361268D01*
X189669Y360457D01*
X191770Y360181D01*
X193871Y360457D01*
X195178Y360998D01*
X203793Y352383D01*
X203793Y352383D01*
X204687Y351787D01*
X205740Y351577D01*
X239164D01*
X239417Y350307D01*
X238510Y349932D01*
X236829Y348641D01*
X235538Y346960D01*
X234727Y345001D01*
X234450Y342900D01*
X234727Y340798D01*
X235538Y338840D01*
X236829Y337159D01*
X238510Y335868D01*
X240469Y335057D01*
X242570Y334781D01*
X244671Y335057D01*
X246630Y335868D01*
X248311Y337159D01*
X249602Y338840D01*
X250136Y340131D01*
X266823D01*
X277995Y328958D01*
X277370Y327788D01*
X276860Y327889D01*
X275800Y327678D01*
X274902Y327078D01*
X274902Y327078D01*
X274443Y326619D01*
X198066D01*
X197532Y327910D01*
X196241Y329591D01*
X194560Y330882D01*
X192602Y331693D01*
X190500Y331969D01*
X188398Y331693D01*
X186440Y330882D01*
X184759Y329591D01*
X183468Y327910D01*
X182657Y325951D01*
X182381Y323850D01*
X182657Y321749D01*
X183468Y319790D01*
X184759Y318109D01*
X186440Y316818D01*
X188398Y316007D01*
X190500Y315730D01*
X192602Y316007D01*
X194560Y316818D01*
X196241Y318109D01*
X197532Y319790D01*
X198066Y321081D01*
X275590D01*
X275590Y321081D01*
X276650Y321292D01*
X276723Y321341D01*
X345211Y252853D01*
Y245056D01*
X343920Y244522D01*
X342239Y243231D01*
X340948Y241550D01*
X340137Y239592D01*
X339860Y237490D01*
X340137Y235389D01*
X340948Y233430D01*
X342239Y231749D01*
X343920Y230458D01*
X345878Y229647D01*
X347980Y229370D01*
X350081Y229647D01*
X352040Y230458D01*
X352235Y230608D01*
X353484Y229966D01*
X353471Y229555D01*
X352810Y229282D01*
X351129Y227991D01*
X349838Y226310D01*
X349027Y224352D01*
X348750Y222250D01*
X349027Y220149D01*
X349838Y218190D01*
X351129Y216509D01*
X352810Y215218D01*
X354768Y214407D01*
X356870Y214130D01*
X358971Y214407D01*
X360930Y215218D01*
X362611Y216509D01*
X363902Y218190D01*
X364713Y220149D01*
X364990Y222250D01*
X364713Y224352D01*
X363902Y226310D01*
X362611Y227991D01*
X360930Y229282D01*
X359815Y229743D01*
Y250489D01*
X360098Y250772D01*
X360098Y250772D01*
X360698Y251670D01*
X360770Y252031D01*
X362148Y252449D01*
X366817Y247780D01*
Y218310D01*
X360974Y212467D01*
X360045Y212589D01*
X357943Y212313D01*
X355985Y211502D01*
X354304Y210211D01*
X353013Y208530D01*
X352202Y206572D01*
X351926Y204470D01*
X352202Y202369D01*
X353013Y200410D01*
X354304Y198729D01*
X355985Y197438D01*
X357943Y196627D01*
X360045Y196350D01*
X362146Y196627D01*
X364105Y197438D01*
X365786Y198729D01*
X367077Y200410D01*
X367888Y202369D01*
X368164Y204470D01*
X367888Y206572D01*
X367077Y208530D01*
X366098Y209805D01*
X370627Y214334D01*
X371897Y213808D01*
Y195580D01*
X372103Y194545D01*
X372065Y194490D01*
X371146Y193679D01*
X371090Y193722D01*
X369132Y194533D01*
X367030Y194809D01*
X364929Y194533D01*
X362970Y193722D01*
X361289Y192431D01*
X359998Y190750D01*
X359187Y188792D01*
X358910Y186690D01*
X359187Y184589D01*
X359998Y182630D01*
X361289Y180949D01*
X362970Y179658D01*
X364277Y179117D01*
Y177670D01*
X362244Y175637D01*
X360903Y176091D01*
X360092Y178050D01*
X358801Y179731D01*
X357120Y181022D01*
X355162Y181833D01*
X353060Y182110D01*
X350959Y181833D01*
X349000Y181022D01*
X347319Y179731D01*
X346028Y178050D01*
X345217Y176091D01*
X344940Y173990D01*
X345217Y171889D01*
X346028Y169930D01*
X347319Y168249D01*
X349000Y166958D01*
X350307Y166417D01*
Y154810D01*
X336577Y141080D01*
X335406Y141706D01*
X335493Y142141D01*
X335493Y142142D01*
Y179117D01*
X336800Y179658D01*
X338481Y180949D01*
X339772Y182630D01*
X340583Y184589D01*
X340859Y186690D01*
X340583Y188792D01*
X339772Y190750D01*
X338481Y192431D01*
X336800Y193722D01*
X334841Y194533D01*
X332740Y194809D01*
X330639Y194533D01*
X328680Y193722D01*
X326999Y192431D01*
X325708Y190750D01*
X324897Y188792D01*
X324621Y186690D01*
X324897Y184589D01*
X325708Y182630D01*
X326999Y180949D01*
X328680Y179658D01*
X329987Y179117D01*
Y143282D01*
X325573Y138868D01*
X324232Y139323D01*
X324073Y140532D01*
X323262Y142490D01*
X321971Y144171D01*
X320290Y145462D01*
X318332Y146273D01*
X316230Y146550D01*
X314128Y146273D01*
X312822Y145731D01*
X306747Y151807D01*
X305854Y152403D01*
X304800Y152613D01*
X251330D01*
X216113Y187830D01*
Y215947D01*
X217420Y216488D01*
X219101Y217779D01*
X220392Y219460D01*
X221203Y221418D01*
X221479Y223520D01*
X221203Y225621D01*
X220392Y227580D01*
X219101Y229261D01*
X217420Y230552D01*
X216113Y231093D01*
Y233680D01*
X215903Y234734D01*
X215307Y235627D01*
X215306Y235627D01*
X206691Y244242D01*
X207233Y245548D01*
X207509Y247650D01*
X207233Y249751D01*
X206422Y251710D01*
X205131Y253391D01*
X203450Y254682D01*
X201492Y255493D01*
X199390Y255770D01*
X197288Y255493D01*
X195330Y254682D01*
X193649Y253391D01*
X192358Y251710D01*
X191983Y250803D01*
X190713Y251056D01*
Y270510D01*
X190503Y271563D01*
X189907Y272457D01*
X171749Y290615D01*
X172342Y291817D01*
X173990Y291600D01*
X176091Y291877D01*
X178050Y292688D01*
X179731Y293979D01*
X181022Y295660D01*
X181089Y295822D01*
X182587Y296120D01*
X213147Y265560D01*
Y262843D01*
X211840Y262302D01*
X210159Y261011D01*
X208868Y259330D01*
X208057Y257372D01*
X207780Y255270D01*
X208057Y253169D01*
X208868Y251210D01*
X210159Y249529D01*
X211840Y248238D01*
X213799Y247427D01*
X215900Y247150D01*
X218001Y247427D01*
X219960Y248238D01*
X221641Y249529D01*
X222932Y251210D01*
X223743Y253169D01*
X224020Y255270D01*
X223743Y257372D01*
X222932Y259330D01*
X221641Y261011D01*
X219960Y262302D01*
X218653Y262843D01*
Y266700D01*
X218653Y266700D01*
X218443Y267754D01*
X217847Y268647D01*
X217847Y268647D01*
X184827Y301667D01*
X183934Y302263D01*
X182880Y302473D01*
X181563D01*
X181022Y303780D01*
X179731Y305461D01*
X178050Y306752D01*
X176091Y307563D01*
X173990Y307840D01*
X171889Y307563D01*
X169930Y306752D01*
X168249Y305461D01*
X166958Y303780D01*
X166147Y301821D01*
X165870Y299720D01*
X166147Y297619D01*
X166958Y295660D01*
X168249Y293979D01*
X168764Y293583D01*
X168333Y292313D01*
X143380D01*
X125709Y309984D01*
X126412Y310900D01*
X127223Y312859D01*
X127500Y314960D01*
X127223Y317062D01*
X126412Y319020D01*
X125121Y320701D01*
X123440Y321992D01*
X121482Y322803D01*
X119380Y323079D01*
X117278Y322803D01*
X115320Y321992D01*
X113639Y320701D01*
X112348Y319020D01*
X111537Y317062D01*
X111260Y314960D01*
X111537Y312859D01*
X112348Y310900D01*
X113639Y309219D01*
X115320Y307928D01*
X117278Y307117D01*
X119380Y306840D01*
X120870Y307037D01*
X140293Y287613D01*
X141187Y287017D01*
X142240Y286807D01*
X167770D01*
X185207Y269370D01*
Y213360D01*
X185417Y212306D01*
X186013Y211413D01*
X189251Y208176D01*
X188548Y207260D01*
X187737Y205301D01*
X187460Y203200D01*
X187737Y201098D01*
X188548Y199140D01*
X189017Y198529D01*
Y139653D01*
X187710Y139112D01*
X186029Y137821D01*
X184738Y136140D01*
X183927Y134181D01*
X183650Y132080D01*
X183927Y129979D01*
X184738Y128020D01*
X186029Y126339D01*
X186544Y125943D01*
X186113Y124673D01*
X67180D01*
X46397Y145457D01*
X45504Y146053D01*
X44450Y146263D01*
X29138D01*
X28356Y148150D01*
X26881Y150071D01*
X24960Y151546D01*
X22722Y152473D01*
X20320Y152789D01*
X17918Y152473D01*
X15680Y151546D01*
X13758Y150071D01*
X12284Y148150D01*
X11902Y147228D01*
X10632Y147481D01*
Y164939D01*
X11902Y165191D01*
X12284Y164270D01*
X13758Y162348D01*
X15680Y160874D01*
X17918Y159947D01*
X20320Y159631D01*
X22722Y159947D01*
X24960Y160874D01*
X26881Y162348D01*
X28356Y164270D01*
X29283Y166508D01*
X29599Y168910D01*
X29283Y171312D01*
X28356Y173550D01*
X26881Y175471D01*
X24960Y176946D01*
X22722Y177873D01*
X20320Y178189D01*
X17918Y177873D01*
X15680Y176946D01*
X13758Y175471D01*
X12284Y173550D01*
X11902Y172628D01*
X10632Y172881D01*
Y190339D01*
X11902Y190592D01*
X12284Y189670D01*
X13758Y187749D01*
X15680Y186274D01*
X17918Y185347D01*
X20320Y185031D01*
X22722Y185347D01*
X24960Y186274D01*
X26881Y187749D01*
X28356Y189670D01*
X29283Y191908D01*
X29599Y194310D01*
X29283Y196712D01*
X28356Y198950D01*
X26881Y200872D01*
X24960Y202346D01*
X22722Y203273D01*
X20320Y203589D01*
X17918Y203273D01*
X15680Y202346D01*
X13758Y200872D01*
X12284Y198950D01*
X11902Y198029D01*
X10632Y198281D01*
Y215739D01*
X11902Y215991D01*
X12284Y215070D01*
X13758Y213148D01*
X15680Y211674D01*
X17918Y210747D01*
X20320Y210431D01*
X22722Y210747D01*
X24960Y211674D01*
X26881Y213148D01*
X28356Y215070D01*
X29283Y217308D01*
X29599Y219710D01*
X29283Y222112D01*
X28356Y224350D01*
X26881Y226271D01*
X24960Y227746D01*
X22722Y228673D01*
X20320Y228989D01*
X17918Y228673D01*
X15680Y227746D01*
X13758Y226271D01*
X12284Y224350D01*
X11902Y223428D01*
X10632Y223681D01*
Y234842D01*
X11120Y235910D01*
X11902Y235910D01*
X29520D01*
Y254310D01*
X11902D01*
X11120Y254310D01*
X10632Y255378D01*
Y264926D01*
X36277Y290571D01*
X38100Y290331D01*
X40202Y290607D01*
X42160Y291418D01*
X43841Y292709D01*
X45132Y294390D01*
X45943Y296348D01*
X46220Y298450D01*
X45943Y300551D01*
X45132Y302510D01*
X43841Y304191D01*
X42160Y305482D01*
X40202Y306293D01*
X38100Y306569D01*
X35998Y306293D01*
X34040Y305482D01*
X32359Y304191D01*
X31068Y302510D01*
X30257Y300551D01*
X29980Y298450D01*
X30221Y296627D01*
X4983Y271389D01*
X3810Y271875D01*
Y464820D01*
X5080Y466090D01*
X6350Y464820D01*
D02*
G37*
G36*
X400050Y233990D02*
X381960D01*
Y215590D01*
X400050D01*
Y205003D01*
X398780Y204572D01*
X397721Y205951D01*
X395800Y207426D01*
X393562Y208353D01*
X391160Y208669D01*
X388758Y208353D01*
X386520Y207426D01*
X384599Y205951D01*
X383124Y204030D01*
X382197Y201792D01*
X381881Y199390D01*
X382197Y196988D01*
X383124Y194750D01*
X384599Y192829D01*
X386520Y191354D01*
X388758Y190427D01*
X391160Y190111D01*
X393562Y190427D01*
X395800Y191354D01*
X397721Y192829D01*
X398780Y194208D01*
X400050Y193777D01*
Y179603D01*
X398780Y179172D01*
X397721Y180551D01*
X395800Y182026D01*
X393562Y182953D01*
X391160Y183269D01*
X388758Y182953D01*
X386520Y182026D01*
X384599Y180551D01*
X383124Y178630D01*
X382197Y176392D01*
X381881Y173990D01*
X382197Y171588D01*
X383124Y169350D01*
X384599Y167428D01*
X386520Y165954D01*
X388758Y165027D01*
X391160Y164711D01*
X393562Y165027D01*
X395800Y165954D01*
X397721Y167428D01*
X398780Y168808D01*
X400050Y168377D01*
Y155583D01*
X398780Y155152D01*
X398321Y155751D01*
X396223Y157360D01*
X393781Y158372D01*
X392430Y158549D01*
Y148590D01*
Y138631D01*
X393781Y138808D01*
X396223Y139820D01*
X398321Y141429D01*
X398780Y142028D01*
X400050Y141597D01*
Y128803D01*
X398780Y128372D01*
X397721Y129752D01*
X395800Y131226D01*
X393562Y132153D01*
X391160Y132469D01*
X388758Y132153D01*
X386520Y131226D01*
X384599Y129752D01*
X383124Y127830D01*
X382197Y125592D01*
X381881Y123190D01*
X382197Y120788D01*
X383124Y118550D01*
X384599Y116629D01*
X386520Y115154D01*
X388758Y114227D01*
X391160Y113911D01*
X393562Y114227D01*
X395800Y115154D01*
X397721Y116629D01*
X398780Y118008D01*
X400050Y117577D01*
Y103403D01*
X398780Y102972D01*
X397721Y104352D01*
X395800Y105826D01*
X393562Y106753D01*
X391160Y107069D01*
X388758Y106753D01*
X386520Y105826D01*
X384599Y104352D01*
X383124Y102430D01*
X382197Y100192D01*
X381881Y97790D01*
X382197Y95388D01*
X383124Y93150D01*
X384599Y91229D01*
X386520Y89754D01*
X388758Y88827D01*
X391160Y88511D01*
X393562Y88827D01*
X395800Y89754D01*
X397721Y91229D01*
X398780Y92608D01*
X400050Y92177D01*
Y82550D01*
X398780Y81280D01*
X353060D01*
X330200Y58420D01*
X331470Y57150D01*
Y13970D01*
X31075D01*
X30238Y14925D01*
X30279Y15240D01*
X10361D01*
X10402Y14925D01*
X9565Y13970D01*
X7620D01*
X5080Y11430D01*
X3810Y12700D01*
Y74835D01*
X4983Y75321D01*
X11268Y69036D01*
X11041Y67310D01*
X11357Y64908D01*
X12284Y62670D01*
X13758Y60749D01*
X15680Y59274D01*
X17918Y58347D01*
X20320Y58031D01*
X22722Y58347D01*
X24960Y59274D01*
X26881Y60749D01*
X28356Y62670D01*
X29283Y64908D01*
X29599Y67310D01*
X29283Y69712D01*
X28356Y71950D01*
X26881Y73871D01*
X24960Y75346D01*
X22722Y76273D01*
X20320Y76589D01*
X17918Y76273D01*
X16663Y75753D01*
X10632Y81784D01*
Y88739D01*
X11902Y88991D01*
X12284Y88070D01*
X13758Y86149D01*
X15680Y84674D01*
X17918Y83747D01*
X20320Y83431D01*
X22722Y83747D01*
X24960Y84674D01*
X26881Y86149D01*
X28356Y88070D01*
X29138Y89957D01*
X71120D01*
X72174Y90167D01*
X73067Y90763D01*
X79880Y97577D01*
X255963D01*
X256394Y96307D01*
X255879Y95911D01*
X254588Y94230D01*
X253777Y92271D01*
X253500Y90170D01*
X253777Y88069D01*
X254319Y86762D01*
X240160Y72603D01*
X205740D01*
X204687Y72393D01*
X203793Y71797D01*
X166848Y34852D01*
X164962Y35633D01*
X162560Y35949D01*
X160158Y35633D01*
X157920Y34706D01*
X155998Y33231D01*
X154524Y31310D01*
X153597Y29072D01*
X153281Y26670D01*
X153597Y24268D01*
X154524Y22030D01*
X155998Y20108D01*
X157920Y18634D01*
X160158Y17707D01*
X162560Y17391D01*
X164962Y17707D01*
X167200Y18634D01*
X169121Y20108D01*
X170596Y22030D01*
X171523Y24268D01*
X171839Y26670D01*
X171523Y29072D01*
X170742Y30958D01*
X206880Y67097D01*
X241300D01*
X242353Y67307D01*
X243247Y67903D01*
X258212Y82868D01*
X259519Y82327D01*
X261620Y82051D01*
X263722Y82327D01*
X265680Y83138D01*
X267361Y84429D01*
X268652Y86110D01*
X269463Y88069D01*
X269739Y90170D01*
X269463Y92271D01*
X268652Y94230D01*
X267361Y95911D01*
X266846Y96307D01*
X267277Y97577D01*
X311150D01*
X312204Y97787D01*
X313097Y98383D01*
X365167Y150453D01*
X365763Y151347D01*
X365973Y152400D01*
X365973Y152400D01*
Y157884D01*
X367243Y158137D01*
X367618Y157230D01*
X368909Y155549D01*
X370590Y154258D01*
X372548Y153447D01*
X374650Y153170D01*
X376752Y153447D01*
X378710Y154258D01*
X380391Y155549D01*
X381682Y157230D01*
X382493Y159188D01*
X382770Y161290D01*
X382493Y163391D01*
X381682Y165350D01*
X380391Y167031D01*
X378710Y168322D01*
X376752Y169133D01*
X376453Y169172D01*
X376296Y170473D01*
X379137Y173313D01*
X379733Y174207D01*
X379943Y175260D01*
Y193040D01*
X379733Y194093D01*
X379137Y194987D01*
X379137Y194987D01*
X377403Y196720D01*
Y260350D01*
X377403Y260350D01*
X377193Y261404D01*
X376597Y262297D01*
X365442Y273452D01*
X365983Y274758D01*
X366259Y276860D01*
X365983Y278962D01*
X365172Y280920D01*
X363881Y282601D01*
X362200Y283892D01*
X360242Y284703D01*
X358140Y284979D01*
X356039Y284703D01*
X354732Y284161D01*
X338772Y300122D01*
X339313Y301429D01*
X339590Y303530D01*
X339313Y305632D01*
X338502Y307590D01*
X337211Y309271D01*
X335530Y310562D01*
X333572Y311373D01*
X331470Y311649D01*
X329369Y311373D01*
X327410Y310562D01*
X325729Y309271D01*
X324438Y307590D01*
X323627Y305632D01*
X323350Y303530D01*
X323627Y301429D01*
X324247Y299932D01*
X323170Y299213D01*
X266107Y356277D01*
X265214Y356873D01*
X264160Y357083D01*
X262197D01*
X261766Y358353D01*
X262281Y358749D01*
X263572Y360430D01*
X264383Y362388D01*
X264660Y364490D01*
X264383Y366591D01*
X263572Y368550D01*
X262281Y370231D01*
X260600Y371522D01*
X259293Y372063D01*
Y418940D01*
X259919Y419199D01*
X260394Y419563D01*
X293426D01*
X295084Y418291D01*
X297320Y417365D01*
X299720Y417049D01*
X302120Y417365D01*
X304356Y418291D01*
X306014Y419563D01*
X364132D01*
X364283Y419366D01*
X366204Y417892D01*
X368440Y416966D01*
X370840Y416650D01*
X373240Y416966D01*
X375476Y417892D01*
X377397Y419366D01*
X378870Y421286D01*
X379796Y423523D01*
X380112Y425922D01*
X379796Y428322D01*
X378870Y430559D01*
X377397Y432479D01*
X375476Y433952D01*
X373240Y434879D01*
X370840Y435195D01*
X368440Y434879D01*
X366204Y433952D01*
X365065Y433079D01*
X306014D01*
X304356Y434351D01*
X302120Y435278D01*
X299720Y435593D01*
X297320Y435278D01*
X295084Y434351D01*
X293426Y433079D01*
X185021D01*
X183272Y432849D01*
X181642Y432174D01*
X180243Y431100D01*
X165003Y415860D01*
X163830Y416346D01*
Y462280D01*
X166370Y464820D01*
X400050D01*
Y233990D01*
D02*
G37*
%LPC*%
G36*
X239045Y152776D02*
X231516D01*
Y145246D01*
X232567Y145385D01*
X234729Y146280D01*
X236586Y147705D01*
X238011Y149562D01*
X238907Y151725D01*
X239045Y152776D01*
D02*
G37*
G36*
X298450Y142149D02*
X297399Y142011D01*
X295237Y141115D01*
X293380Y139690D01*
X291955Y137833D01*
X291059Y135671D01*
X290921Y134620D01*
X298450D01*
Y142149D01*
D02*
G37*
G36*
X228976Y152776D02*
X221446D01*
X221585Y151725D01*
X222480Y149562D01*
X223905Y147705D01*
X225762Y146280D01*
X227925Y145385D01*
X228976Y145246D01*
Y152776D01*
D02*
G37*
G36*
Y162845D02*
X227925Y162707D01*
X225762Y161811D01*
X223905Y160386D01*
X222480Y158529D01*
X221585Y156367D01*
X221446Y155316D01*
X228976D01*
Y162845D01*
D02*
G37*
G36*
X265430Y298360D02*
X264379Y298221D01*
X262217Y297325D01*
X260360Y295900D01*
X258935Y294043D01*
X258039Y291881D01*
X257901Y290830D01*
X265430D01*
Y298360D01*
D02*
G37*
G36*
X267970D02*
Y290830D01*
X275499D01*
X275361Y291881D01*
X274465Y294043D01*
X273040Y295900D01*
X271183Y297325D01*
X269021Y298221D01*
X267970Y298360D01*
D02*
G37*
G36*
X213360D02*
Y290830D01*
X220889D01*
X220751Y291881D01*
X219855Y294043D01*
X218430Y295900D01*
X216573Y297325D01*
X214411Y298221D01*
X213360Y298360D01*
D02*
G37*
G36*
X160069Y212901D02*
X144731D01*
Y197563D01*
X160069D01*
Y212901D01*
D02*
G37*
G36*
X152400Y261735D02*
X150398Y261472D01*
X148532Y260699D01*
X146930Y259470D01*
X145701Y257868D01*
X144928Y256002D01*
X144665Y254000D01*
X144928Y251998D01*
X145701Y250132D01*
X146930Y248530D01*
X148532Y247301D01*
X150398Y246528D01*
X152400Y246265D01*
X154402Y246528D01*
X156268Y247301D01*
X157870Y248530D01*
X159099Y250132D01*
X159872Y251998D01*
X160135Y254000D01*
X159872Y256002D01*
X159099Y257868D01*
X157870Y259470D01*
X156268Y260699D01*
X154402Y261472D01*
X152400Y261735D01*
D02*
G37*
G36*
X275499Y288290D02*
X267970D01*
Y280760D01*
X269021Y280899D01*
X271183Y281795D01*
X273040Y283220D01*
X274465Y285077D01*
X275361Y287239D01*
X275499Y288290D01*
D02*
G37*
G36*
X210820Y298360D02*
X209769Y298221D01*
X207607Y297325D01*
X205750Y295900D01*
X204325Y294043D01*
X203429Y291881D01*
X203291Y290830D01*
X210820D01*
Y298360D01*
D02*
G37*
G36*
X265430Y288290D02*
X257901D01*
X258039Y287239D01*
X258935Y285077D01*
X260360Y283220D01*
X262217Y281795D01*
X264379Y280899D01*
X265430Y280760D01*
Y288290D01*
D02*
G37*
G36*
X210820D02*
X203291D01*
X203429Y287239D01*
X204325Y285077D01*
X205750Y283220D01*
X207607Y281795D01*
X209769Y280899D01*
X210820Y280760D01*
Y288290D01*
D02*
G37*
G36*
X220889D02*
X213360D01*
Y280760D01*
X214411Y280899D01*
X216573Y281795D01*
X218430Y283220D01*
X219855Y285077D01*
X220751Y287239D01*
X220889Y288290D01*
D02*
G37*
G36*
X20320Y51189D02*
X17918Y50873D01*
X15680Y49946D01*
X13758Y48471D01*
X12284Y46550D01*
X11357Y44312D01*
X11041Y41910D01*
X11357Y39508D01*
X12284Y37270D01*
X13758Y35348D01*
X15680Y33874D01*
X17918Y32947D01*
X20320Y32631D01*
X22722Y32947D01*
X24960Y33874D01*
X26881Y35348D01*
X28356Y37270D01*
X29283Y39508D01*
X29599Y41910D01*
X29283Y44312D01*
X28356Y46550D01*
X26881Y48471D01*
X24960Y49946D01*
X22722Y50873D01*
X20320Y51189D01*
D02*
G37*
G36*
X288290Y90669D02*
X286189Y90393D01*
X284230Y89582D01*
X282549Y88291D01*
X281258Y86610D01*
X280447Y84651D01*
X280170Y82550D01*
X280447Y80449D01*
X280989Y79142D01*
X262213Y60367D01*
X261617Y59474D01*
X261407Y58420D01*
Y35488D01*
X259520Y34706D01*
X257598Y33231D01*
X256124Y31310D01*
X255197Y29072D01*
X254881Y26670D01*
X255197Y24268D01*
X256124Y22030D01*
X257598Y20108D01*
X259520Y18634D01*
X261758Y17707D01*
X264160Y17391D01*
X266562Y17707D01*
X268800Y18634D01*
X270721Y20108D01*
X272196Y22030D01*
X273123Y24268D01*
X273439Y26670D01*
X273123Y29072D01*
X272196Y31310D01*
X270721Y33231D01*
X268800Y34706D01*
X266913Y35488D01*
Y57280D01*
X284882Y75248D01*
X286189Y74707D01*
X288290Y74430D01*
X290392Y74707D01*
X292350Y75518D01*
X294031Y76809D01*
X295322Y78490D01*
X296133Y80449D01*
X296409Y82550D01*
X296133Y84651D01*
X295322Y86610D01*
X294031Y88291D01*
X292350Y89582D01*
X290392Y90393D01*
X288290Y90669D01*
D02*
G37*
G36*
X110490Y36629D02*
X109139Y36452D01*
X106697Y35440D01*
X104599Y33831D01*
X102990Y31733D01*
X101978Y29291D01*
X101801Y27940D01*
X110490D01*
Y36629D01*
D02*
G37*
G36*
X113030D02*
Y27940D01*
X121719D01*
X121542Y29291D01*
X120530Y31733D01*
X118921Y33831D01*
X116823Y35440D01*
X114381Y36452D01*
X113030Y36629D01*
D02*
G37*
G36*
X389890Y147320D02*
X381201D01*
X381378Y145969D01*
X382390Y143527D01*
X383999Y141429D01*
X386097Y139820D01*
X388539Y138808D01*
X389890Y138631D01*
Y147320D01*
D02*
G37*
G36*
X299720Y410592D02*
X297320Y410276D01*
X295084Y409350D01*
X293164Y407877D01*
X291690Y405956D01*
X290764Y403720D01*
X290448Y401320D01*
X290764Y398920D01*
X291690Y396684D01*
X293164Y394763D01*
X295084Y393290D01*
X297320Y392364D01*
X299720Y392048D01*
X302120Y392364D01*
X304356Y393290D01*
X306014Y394562D01*
X364132D01*
X364283Y394365D01*
X366204Y392891D01*
X368440Y391965D01*
X370840Y391649D01*
X373240Y391965D01*
X375476Y392891D01*
X377397Y394365D01*
X378870Y396285D01*
X379796Y398521D01*
X380112Y400921D01*
X379796Y403321D01*
X378870Y405557D01*
X377397Y407478D01*
X375476Y408951D01*
X373240Y409878D01*
X370840Y410193D01*
X368440Y409878D01*
X366204Y408951D01*
X365065Y408078D01*
X306014D01*
X304356Y409350D01*
X302120Y410276D01*
X299720Y410592D01*
D02*
G37*
G36*
X187960Y35949D02*
X185558Y35633D01*
X183320Y34706D01*
X181399Y33231D01*
X179924Y31310D01*
X178997Y29072D01*
X178681Y26670D01*
X178997Y24268D01*
X179924Y22030D01*
X181399Y20108D01*
X183320Y18634D01*
X185558Y17707D01*
X187960Y17391D01*
X190362Y17707D01*
X192600Y18634D01*
X194522Y20108D01*
X195996Y22030D01*
X196923Y24268D01*
X197239Y26670D01*
X196923Y29072D01*
X195996Y31310D01*
X194522Y33231D01*
X192600Y34706D01*
X190362Y35633D01*
X187960Y35949D01*
D02*
G37*
G36*
X213360D02*
X210958Y35633D01*
X208720Y34706D01*
X206798Y33231D01*
X205324Y31310D01*
X204397Y29072D01*
X204081Y26670D01*
X204397Y24268D01*
X205324Y22030D01*
X206798Y20108D01*
X208720Y18634D01*
X210958Y17707D01*
X213360Y17391D01*
X215762Y17707D01*
X218000Y18634D01*
X219921Y20108D01*
X221396Y22030D01*
X222323Y24268D01*
X222639Y26670D01*
X222323Y29072D01*
X221396Y31310D01*
X219921Y33231D01*
X218000Y34706D01*
X215762Y35633D01*
X213360Y35949D01*
D02*
G37*
G36*
X137160D02*
X134758Y35633D01*
X132520Y34706D01*
X130598Y33231D01*
X129124Y31310D01*
X128197Y29072D01*
X127881Y26670D01*
X128197Y24268D01*
X129124Y22030D01*
X130598Y20108D01*
X132520Y18634D01*
X134758Y17707D01*
X137160Y17391D01*
X139562Y17707D01*
X141800Y18634D01*
X143722Y20108D01*
X145196Y22030D01*
X146123Y24268D01*
X146439Y26670D01*
X146123Y29072D01*
X145196Y31310D01*
X143722Y33231D01*
X141800Y34706D01*
X139562Y35633D01*
X137160Y35949D01*
D02*
G37*
G36*
X110490Y25400D02*
X101801D01*
X101978Y24049D01*
X102990Y21607D01*
X104599Y19509D01*
X106697Y17900D01*
X109139Y16888D01*
X110490Y16711D01*
Y25400D01*
D02*
G37*
G36*
X121719D02*
X113030D01*
Y16711D01*
X114381Y16888D01*
X116823Y17900D01*
X118921Y19509D01*
X120530Y21607D01*
X121542Y24049D01*
X121719Y25400D01*
D02*
G37*
G36*
X238760Y35949D02*
X236358Y35633D01*
X234120Y34706D01*
X232199Y33231D01*
X230724Y31310D01*
X229797Y29072D01*
X229481Y26670D01*
X229797Y24268D01*
X230724Y22030D01*
X232199Y20108D01*
X234120Y18634D01*
X236358Y17707D01*
X238760Y17391D01*
X241162Y17707D01*
X243400Y18634D01*
X245322Y20108D01*
X246796Y22030D01*
X247723Y24268D01*
X248039Y26670D01*
X247723Y29072D01*
X246796Y31310D01*
X245322Y33231D01*
X243400Y34706D01*
X241162Y35633D01*
X238760Y35949D01*
D02*
G37*
G36*
X19050Y26469D02*
X17699Y26292D01*
X15257Y25280D01*
X13159Y23671D01*
X11550Y21573D01*
X10538Y19131D01*
X10361Y17780D01*
X19050D01*
Y26469D01*
D02*
G37*
G36*
X21590D02*
Y17780D01*
X30279D01*
X30102Y19131D01*
X29090Y21573D01*
X27481Y23671D01*
X25383Y25280D01*
X22941Y26292D01*
X21590Y26469D01*
D02*
G37*
G36*
X95560Y35870D02*
X77160D01*
Y17470D01*
X95560D01*
Y35870D01*
D02*
G37*
G36*
X289560Y35949D02*
X287158Y35633D01*
X284920Y34706D01*
X282999Y33231D01*
X281524Y31310D01*
X280597Y29072D01*
X280281Y26670D01*
X280597Y24268D01*
X281524Y22030D01*
X282999Y20108D01*
X284920Y18634D01*
X287158Y17707D01*
X289560Y17391D01*
X291962Y17707D01*
X294200Y18634D01*
X296122Y20108D01*
X297596Y22030D01*
X298523Y24268D01*
X298839Y26670D01*
X298523Y29072D01*
X297596Y31310D01*
X296122Y33231D01*
X294200Y34706D01*
X291962Y35633D01*
X289560Y35949D01*
D02*
G37*
G36*
X314960D02*
X312558Y35633D01*
X310320Y34706D01*
X308398Y33231D01*
X306924Y31310D01*
X305997Y29072D01*
X305681Y26670D01*
X305997Y24268D01*
X306924Y22030D01*
X308398Y20108D01*
X310320Y18634D01*
X312558Y17707D01*
X314960Y17391D01*
X317362Y17707D01*
X319600Y18634D01*
X321521Y20108D01*
X322996Y22030D01*
X323923Y24268D01*
X324239Y26670D01*
X323923Y29072D01*
X322996Y31310D01*
X321521Y33231D01*
X319600Y34706D01*
X317362Y35633D01*
X314960Y35949D01*
D02*
G37*
G36*
X380792Y349649D02*
X372110D01*
Y340966D01*
X373459Y341144D01*
X375900Y342155D01*
X377996Y343763D01*
X379604Y345859D01*
X380615Y348300D01*
X380792Y349649D01*
D02*
G37*
G36*
X298450Y350048D02*
X289768D01*
X289945Y348698D01*
X290956Y346258D01*
X292564Y344162D01*
X294660Y342554D01*
X297101Y341543D01*
X298450Y341365D01*
Y350048D01*
D02*
G37*
G36*
X369570Y349649D02*
X360888D01*
X361065Y348300D01*
X362076Y345859D01*
X363684Y343763D01*
X365780Y342155D01*
X368221Y341144D01*
X369570Y340966D01*
Y349649D01*
D02*
G37*
G36*
X298450Y361270D02*
X297101Y361092D01*
X294660Y360081D01*
X292564Y358473D01*
X290956Y356377D01*
X289945Y353937D01*
X289768Y352588D01*
X298450D01*
Y361270D01*
D02*
G37*
G36*
X300990D02*
Y352588D01*
X309672D01*
X309495Y353937D01*
X308484Y356377D01*
X306876Y358473D01*
X304780Y360081D01*
X302339Y361092D01*
X300990Y361270D01*
D02*
G37*
G36*
X372110Y360871D02*
Y352189D01*
X380792D01*
X380615Y353538D01*
X379604Y355979D01*
X377996Y358074D01*
X375900Y359683D01*
X373459Y360694D01*
X372110Y360871D01*
D02*
G37*
G36*
X309672Y350048D02*
X300990D01*
Y341365D01*
X302339Y341543D01*
X304780Y342554D01*
X306876Y344162D01*
X308484Y346258D01*
X309495Y348698D01*
X309672Y350048D01*
D02*
G37*
G36*
X369570Y360871D02*
X368221Y360694D01*
X365780Y359683D01*
X363684Y358074D01*
X362076Y355979D01*
X361065Y353538D01*
X360888Y352189D01*
X369570D01*
Y360871D01*
D02*
G37*
G36*
X299720Y385591D02*
X297320Y385275D01*
X295084Y384349D01*
X293164Y382875D01*
X291690Y380955D01*
X290764Y378719D01*
X290448Y376319D01*
X290764Y373919D01*
X291690Y371683D01*
X293164Y369762D01*
X295084Y368289D01*
X297320Y367362D01*
X299720Y367047D01*
X302120Y367362D01*
X304356Y368289D01*
X306014Y369561D01*
X364132D01*
X364283Y369364D01*
X366204Y367890D01*
X368440Y366964D01*
X370840Y366648D01*
X373240Y366964D01*
X375476Y367890D01*
X377397Y369364D01*
X378870Y371284D01*
X379796Y373520D01*
X380112Y375920D01*
X379796Y378320D01*
X378870Y380556D01*
X377397Y382477D01*
X375476Y383950D01*
X373240Y384876D01*
X370840Y385192D01*
X368440Y384876D01*
X366204Y383950D01*
X365065Y383077D01*
X306014D01*
X304356Y384349D01*
X302120Y385275D01*
X299720Y385591D01*
D02*
G37*
G36*
X389890Y158549D02*
X388539Y158372D01*
X386097Y157360D01*
X383999Y155751D01*
X382390Y153653D01*
X381378Y151211D01*
X381201Y149860D01*
X389890D01*
Y158549D01*
D02*
G37*
%LPD*%
D24*
X6350Y266700D02*
X38100Y298450D01*
X6350Y80010D02*
Y266700D01*
Y80010D02*
X19050Y67310D01*
X20320D01*
D25*
X255270Y426321D02*
X299720D01*
X255270D02*
X256540Y425051D01*
X299720Y426321D02*
X370441D01*
X370840Y425922D01*
X299720Y401320D02*
X370441D01*
X370840Y400921D01*
X299720Y376319D02*
X370441D01*
X370840Y375920D01*
X299720Y351318D02*
X370441D01*
X370840Y350919D01*
X185021Y426321D02*
X255270D01*
X17780Y327660D02*
X86360D01*
X185021Y426321D01*
D26*
X111760Y26670D02*
Y38100D01*
X102870Y46990D02*
X111760Y38100D01*
X377190Y175260D02*
Y193040D01*
X373380Y171450D02*
X377190Y175260D01*
X373380Y161290D02*
X374650D01*
Y195580D02*
X377190Y193040D01*
X374650Y195580D02*
Y260350D01*
X358140Y276860D02*
X374650Y260350D01*
X367030Y176530D02*
Y186690D01*
X363220Y172720D02*
X367030Y176530D01*
X363220Y152400D02*
Y172720D01*
X311150Y100330D02*
X363220Y152400D01*
X353060Y153670D02*
Y173990D01*
X317500Y118110D02*
X353060Y153670D01*
X213360Y186690D02*
Y223520D01*
Y186690D02*
X250190Y149860D01*
X304800D01*
X316230Y138430D01*
X332740Y142141D02*
Y186690D01*
X66040Y121920D02*
X312519D01*
X332740Y142141D01*
X230246Y154046D02*
X250942Y133350D01*
X299720D01*
X20320Y143510D02*
X44450D01*
X66040Y121920D01*
X20320Y118110D02*
X317500D01*
X20320Y92710D02*
X71120D01*
X78740Y100330D01*
X311150D01*
X264160Y26670D02*
Y58420D01*
X288290Y82550D01*
X162560Y26670D02*
X205740Y69850D01*
X241300D01*
X261620Y90170D01*
X230246Y154046D02*
X233680Y157480D01*
X191770Y199390D02*
X195580Y203200D01*
X191770Y132080D02*
Y199390D01*
X331470Y303530D02*
X358140Y276860D01*
X264160Y354330D02*
X369570Y248920D01*
Y217170D02*
Y248920D01*
X205740Y354330D02*
X264160D01*
X195580Y203200D02*
Y205740D01*
X199390Y247650D02*
X213360Y233680D01*
Y223520D02*
Y233680D01*
X187960Y213360D02*
X195580Y205740D01*
X256540Y364490D02*
Y425051D01*
X187960Y213360D02*
Y270510D01*
X142240Y289560D02*
X168910D01*
X187960Y270510D01*
X119380Y312420D02*
X142240Y289560D01*
X119380Y312420D02*
Y314960D01*
X173990Y299720D02*
X182880D01*
X191770Y368300D02*
X205740Y354330D01*
X72390Y46990D02*
X102870D01*
X20320Y16510D02*
X41910D01*
X72390Y46990D01*
X212090Y289560D02*
X266700D01*
X215900Y255270D02*
Y266700D01*
X182880Y299720D02*
X215900Y266700D01*
X360045Y207645D02*
X369570Y217170D01*
X360045Y204470D02*
Y207645D01*
X373380Y161290D02*
Y171450D01*
D27*
X267970Y342900D02*
X358140Y252730D01*
X242570Y342900D02*
X267970D01*
X347980Y237490D02*
Y254000D01*
X276860Y325120D02*
X347980Y254000D01*
X275590Y323850D02*
X276860Y325120D01*
X190500Y323850D02*
X275590D01*
X357046Y251636D02*
X358140Y252730D01*
X356870Y222250D02*
X357046Y222426D01*
Y251636D01*
D28*
X391160Y224790D02*
D03*
X20320Y245110D02*
D03*
D29*
X391160Y199390D02*
D03*
Y173990D02*
D03*
Y148590D02*
D03*
Y123190D02*
D03*
Y97790D02*
D03*
X20320Y16510D02*
D03*
Y41910D02*
D03*
Y67310D02*
D03*
Y92710D02*
D03*
Y219710D02*
D03*
Y194310D02*
D03*
Y168910D02*
D03*
Y143510D02*
D03*
Y118110D02*
D03*
X314960Y26670D02*
D03*
X289560D02*
D03*
X264160D02*
D03*
X238760D02*
D03*
X213360D02*
D03*
X187960D02*
D03*
X162560D02*
D03*
X137160D02*
D03*
X111760D02*
D03*
D30*
X152400Y205232D02*
D03*
D31*
Y254000D02*
D03*
D32*
X299720Y426321D02*
D03*
Y401320D02*
D03*
Y376319D02*
D03*
Y351318D02*
D03*
X370840Y425922D02*
D03*
Y400921D02*
D03*
Y375920D02*
D03*
Y350919D02*
D03*
D33*
X86360Y26670D02*
D03*
D34*
X38100Y298450D02*
D03*
X374650Y161290D02*
D03*
X353060Y173990D02*
D03*
X367030Y186690D02*
D03*
X316230Y138430D02*
D03*
X299720Y133350D02*
D03*
X332740Y186690D02*
D03*
X288290Y82550D02*
D03*
X261620Y90170D02*
D03*
X230246Y154046D02*
D03*
X191770Y132080D02*
D03*
X331470Y303530D02*
D03*
X358140Y276860D02*
D03*
X213360Y223520D02*
D03*
X195580Y203200D02*
D03*
X199390Y247650D02*
D03*
X347980Y237490D02*
D03*
X242570Y342900D02*
D03*
X256540Y364490D02*
D03*
X212090Y289560D02*
D03*
X119380Y314960D02*
D03*
X17780Y327660D02*
D03*
X173990Y299720D02*
D03*
X191770Y368300D02*
D03*
X266700Y289560D02*
D03*
X190500Y323850D02*
D03*
X215900Y255270D02*
D03*
X360045Y204470D02*
D03*
X356870Y222250D02*
D03*
M02*
