M48
;Layer_Color=9474304
;FILE_FORMAT=4:4
METRIC,LZ
;TYPE=PLATED
T1F00S00C0.6858
T2F00S00C0.7112
T3F00S00C0.9000
T4F00S00C0.9906
;TYPE=NON_PLATED
T5F00S00C3.2000
%
T01
X001524Y00205232
Y00254
T02
X0019177Y0013208
X0029972Y0013335
X0031623Y0013843
X0028829Y0008255
X0026162Y0009017
X00230246Y00154046
X0019558Y002032
X0021336Y0022352
X002159Y0025527
X0019939Y0024765
X0021209Y0028956
X0017399Y0029972
X001905Y0032385
X0019177Y003683
X0025654Y0036449
X0024257Y003429
X002667Y0028956
X0033147Y0030353
X0035814Y0027686
X0034798Y0023749
X0035687Y0022225
X00360045Y0020447
X0036703Y0018669
X0035306Y0017399
X0033274Y0018669
X0037465Y0016129
X0011938Y0031496
X000381Y0029845
X0001778Y0032766
T03
X0002032Y0001651
Y0004191
Y0006731
Y0009271
Y0011811
Y0014351
X0008636Y0002667
X0011176
X0013716
X0016256
X0018796
X0021336
X0023876
X0026416
X0028956
X0031496
X0039116Y0009779
Y0012319
Y0014859
Y0017399
Y0019939
Y0022479
X0002032Y0021971
Y0019431
Y0016891
Y0024511
T04
X0029972Y00351318
Y00376319
Y0040132
Y00426321
X0037084Y00425922
Y00400921
Y0037592
Y00350919
T05
X0037Y0004
X00125Y00425
M30
