G04 Layer_Physical_Order=1*
G04 Layer_Color=255*
%FSLAX44Y44*%
%MOMM*%
G71*
G01*
G75*
%ADD10R,1.4975X1.1176*%
%ADD11R,0.6604X0.8636*%
%ADD12R,1.1176X1.4975*%
%ADD13R,0.8636X0.6604*%
%ADD14R,0.7874X0.7874*%
%ADD15R,0.7556X0.8000*%
%ADD16R,0.2794X1.4732*%
%ADD17R,1.4732X0.2794*%
%ADD18R,0.8000X0.7556*%
%ADD19R,0.5588X1.9812*%
%ADD20R,2.2098X2.2606*%
%ADD21R,0.9398X1.7018*%
%ADD22R,6.6548X7.7216*%
%ADD23R,0.9398X0.8128*%
%ADD24C,0.5000*%
%ADD25C,1.0000*%
%ADD26C,0.2000*%
%ADD27C,0.2032*%
%ADD28R,1.5000X1.5000*%
%ADD29C,1.5000*%
%ADD30R,1.1938X1.1938*%
%ADD31C,1.1938*%
%ADD32C,1.4986*%
%ADD33R,1.5000X1.5000*%
%ADD34C,1.2700*%
G36*
X180213Y216662D02*
X180340D01*
Y214630D01*
X175260Y209550D01*
Y186690D01*
X165100Y176530D01*
X138430D01*
X124460Y190500D01*
X125730Y191770D01*
Y214630D01*
X111760D01*
Y216613D01*
X122858D01*
Y218862D01*
X134877D01*
X144731Y209008D01*
Y197563D01*
X160069D01*
Y212901D01*
X156360D01*
X155834Y214171D01*
X170010Y228347D01*
X180213D01*
Y216662D01*
D02*
G37*
G36*
X352196Y206521D02*
X351926Y204470D01*
X352046Y203553D01*
X350843Y202960D01*
X340757Y213047D01*
X339864Y213643D01*
X338810Y213853D01*
X328090D01*
Y218003D01*
Y228347D01*
X330370D01*
X352196Y206521D01*
D02*
G37*
G36*
X98383Y156804D02*
X98383Y156803D01*
X98953Y156423D01*
X98568Y155153D01*
X86230D01*
X45127Y196257D01*
X44233Y196853D01*
X43180Y197063D01*
X29138D01*
X28356Y198950D01*
X26881Y200872D01*
X24960Y202346D01*
X22722Y203273D01*
X20320Y203589D01*
X17918Y203273D01*
X15680Y202346D01*
X13758Y200872D01*
X12284Y198950D01*
X11902Y198029D01*
X10632Y198281D01*
Y215739D01*
X11902Y215991D01*
X12284Y215070D01*
X13758Y213148D01*
X15680Y211674D01*
X17918Y210747D01*
X20320Y210431D01*
X22722Y210747D01*
X24960Y211674D01*
X26881Y213148D01*
X28356Y215070D01*
X29138Y216957D01*
X38230D01*
X98383Y156804D01*
D02*
G37*
G36*
X83143Y150454D02*
X83143Y150453D01*
X84037Y149857D01*
X85090Y149647D01*
X186690D01*
X187249Y149758D01*
X187875Y148588D01*
X185550Y146263D01*
X76070D01*
X51477Y170857D01*
X50584Y171453D01*
X49530Y171663D01*
X29138D01*
X28356Y173550D01*
X26881Y175471D01*
X24960Y176946D01*
X22722Y177873D01*
X20320Y178189D01*
X17918Y177873D01*
X15680Y176946D01*
X13758Y175471D01*
X12284Y173550D01*
X11902Y172628D01*
X10632Y172881D01*
Y190339D01*
X11902Y190592D01*
X12284Y189670D01*
X13758Y187749D01*
X15680Y186274D01*
X17918Y185347D01*
X20320Y185031D01*
X22722Y185347D01*
X24960Y186274D01*
X26881Y187749D01*
X28356Y189670D01*
X29138Y191557D01*
X42040D01*
X83143Y150454D01*
D02*
G37*
G36*
X112353Y163153D02*
X112353Y163153D01*
X112923Y162773D01*
X112538Y161503D01*
X101470D01*
X41317Y221657D01*
X40423Y222253D01*
X39370Y222463D01*
X29138D01*
X28356Y224350D01*
X26881Y226271D01*
X24960Y227746D01*
X22722Y228673D01*
X20320Y228989D01*
X17918Y228673D01*
X15680Y227746D01*
X13758Y226271D01*
X12284Y224350D01*
X11902Y223428D01*
X10632Y223681D01*
Y234842D01*
X11120Y235910D01*
X29520D01*
Y242357D01*
X33150D01*
X112353Y163153D01*
D02*
G37*
G36*
X311572Y179835D02*
Y174928D01*
X309323D01*
Y162892D01*
X319327D01*
Y166157D01*
X330330D01*
X337143Y159343D01*
X338036Y158747D01*
X339090Y158537D01*
X367077D01*
X367618Y157230D01*
X368909Y155549D01*
X370590Y154258D01*
X372548Y153447D01*
X374650Y153170D01*
X376752Y153447D01*
X378710Y154258D01*
X380391Y155549D01*
X381682Y157230D01*
X382223Y158537D01*
X385620D01*
X385970Y157674D01*
X385976Y157267D01*
X383999Y155751D01*
X382390Y153653D01*
X381378Y151211D01*
X381201Y149860D01*
X391160D01*
Y148590D01*
X392430D01*
Y138631D01*
X393781Y138808D01*
X396223Y139820D01*
X398321Y141429D01*
X398780Y142028D01*
X400050Y141597D01*
Y128803D01*
X398780Y128372D01*
X397721Y129752D01*
X395800Y131226D01*
X393562Y132153D01*
X391160Y132469D01*
X388758Y132153D01*
X386520Y131226D01*
X384599Y129752D01*
X383124Y127830D01*
X382342Y125943D01*
X332610D01*
X323531Y135022D01*
X324073Y136328D01*
X324350Y138430D01*
X324073Y140532D01*
X323262Y142490D01*
X321971Y144171D01*
X320290Y145462D01*
X318332Y146273D01*
X316230Y146550D01*
X314128Y146273D01*
X312170Y145462D01*
X310489Y144171D01*
X309198Y142490D01*
X308387Y140532D01*
X308186Y139006D01*
X306859Y138650D01*
X306060Y139690D01*
X304203Y141115D01*
X302041Y142011D01*
X300990Y142149D01*
Y133350D01*
Y124551D01*
X302041Y124689D01*
X304203Y125585D01*
X306060Y127010D01*
X307485Y128867D01*
X308381Y131029D01*
X308642Y133009D01*
X309610Y133408D01*
X309922Y133427D01*
X310489Y132689D01*
X312170Y131398D01*
X314128Y130587D01*
X316230Y130310D01*
X318332Y130587D01*
X319638Y131129D01*
X329523Y121243D01*
X330416Y120647D01*
X331470Y120437D01*
X382342D01*
X383124Y118550D01*
X384599Y116629D01*
X386520Y115154D01*
X388758Y114227D01*
X391160Y113911D01*
X393562Y114227D01*
X395800Y115154D01*
X397721Y116629D01*
X398780Y118008D01*
X400050Y117577D01*
Y110573D01*
X395448Y105972D01*
X393562Y106753D01*
X391160Y107069D01*
X388758Y106753D01*
X386520Y105826D01*
X384599Y104352D01*
X383124Y102430D01*
X382197Y100192D01*
X381881Y97790D01*
X382197Y95388D01*
X383124Y93150D01*
X384599Y91229D01*
X386520Y89754D01*
X388758Y88827D01*
X391160Y88511D01*
X393562Y88827D01*
X395800Y89754D01*
X397721Y91229D01*
X398780Y92608D01*
X400050Y92177D01*
Y81280D01*
X363220D01*
X360680Y83820D01*
X359410Y82550D01*
X354330D01*
X330200Y58420D01*
Y12700D01*
X34290D01*
X30480Y8890D01*
X28729D01*
X28103Y10160D01*
X29090Y11447D01*
X30102Y13889D01*
X30279Y15240D01*
X10361D01*
X10538Y13889D01*
X11550Y11447D01*
X11910Y10977D01*
X11363Y9605D01*
X10804Y9516D01*
X5080Y15240D01*
Y39275D01*
X6253Y39761D01*
X7132Y38882D01*
X8521Y37954D01*
X10160Y37628D01*
X12136D01*
X12284Y37270D01*
X13758Y35348D01*
X15680Y33874D01*
X17918Y32947D01*
X20320Y32631D01*
X22722Y32947D01*
X24960Y33874D01*
X26626Y35152D01*
X51811D01*
X65072Y21892D01*
X66471Y20818D01*
X68101Y20143D01*
X69850Y19912D01*
X77160D01*
Y17470D01*
X95560D01*
Y35870D01*
X77160D01*
Y33428D01*
X72649D01*
X59388Y46688D01*
X57989Y47762D01*
X56359Y48438D01*
X54610Y48668D01*
X26626D01*
X24960Y49946D01*
X22722Y50873D01*
X20320Y51189D01*
X17918Y50873D01*
X15680Y49946D01*
X13758Y48471D01*
X12872Y47316D01*
X11542Y47166D01*
X10632Y47955D01*
Y63339D01*
X11902Y63591D01*
X12284Y62670D01*
X13758Y60749D01*
X15680Y59274D01*
X17918Y58347D01*
X20320Y58031D01*
X22722Y58347D01*
X24960Y59274D01*
X26881Y60749D01*
X28356Y62670D01*
X29283Y64908D01*
X29599Y67310D01*
X29283Y69712D01*
X28356Y71950D01*
X26881Y73871D01*
X24960Y75346D01*
X22722Y76273D01*
X20320Y76589D01*
X17918Y76273D01*
X15680Y75346D01*
X13758Y73871D01*
X12284Y71950D01*
X11902Y71028D01*
X10632Y71281D01*
Y88739D01*
X11902Y88991D01*
X12284Y88070D01*
X13758Y86149D01*
X15680Y84674D01*
X17918Y83747D01*
X20320Y83431D01*
X22722Y83747D01*
X24960Y84674D01*
X26881Y86149D01*
X28356Y88070D01*
X29283Y90308D01*
X29599Y92710D01*
X29283Y95112D01*
X28356Y97350D01*
X26881Y99271D01*
X24960Y100746D01*
X22722Y101673D01*
X20320Y101989D01*
X17918Y101673D01*
X15680Y100746D01*
X13758Y99271D01*
X12284Y97350D01*
X11902Y96428D01*
X10632Y96681D01*
Y114139D01*
X11902Y114391D01*
X12284Y113470D01*
X13758Y111549D01*
X15680Y110074D01*
X17918Y109147D01*
X20320Y108831D01*
X22722Y109147D01*
X24960Y110074D01*
X26881Y111549D01*
X28356Y113470D01*
X29283Y115708D01*
X29599Y118110D01*
X29283Y120512D01*
X28356Y122750D01*
X26881Y124671D01*
X24960Y126146D01*
X22722Y127073D01*
X20320Y127389D01*
X17918Y127073D01*
X15680Y126146D01*
X13758Y124671D01*
X12284Y122750D01*
X11902Y121828D01*
X10632Y122081D01*
Y139539D01*
X11902Y139791D01*
X12284Y138870D01*
X13758Y136948D01*
X15680Y135474D01*
X17918Y134547D01*
X20320Y134231D01*
X22722Y134547D01*
X24960Y135474D01*
X26881Y136948D01*
X28356Y138870D01*
X29283Y141108D01*
X29599Y143510D01*
X29283Y145912D01*
X28356Y148150D01*
X26881Y150071D01*
X24960Y151546D01*
X22722Y152473D01*
X20320Y152789D01*
X17918Y152473D01*
X15680Y151546D01*
X13758Y150071D01*
X12284Y148150D01*
X11902Y147228D01*
X10632Y147481D01*
Y164939D01*
X11902Y165191D01*
X12284Y164270D01*
X13758Y162348D01*
X15680Y160874D01*
X17918Y159947D01*
X20320Y159631D01*
X22722Y159947D01*
X24960Y160874D01*
X26881Y162348D01*
X28356Y164270D01*
X29138Y166157D01*
X48390D01*
X72983Y141564D01*
X72983Y141563D01*
X73877Y140967D01*
X74930Y140757D01*
X74930Y140757D01*
X186690D01*
X187743Y140967D01*
X188637Y141563D01*
X214500Y167427D01*
X248920D01*
X249974Y167637D01*
X250867Y168233D01*
X255337Y172704D01*
X256607Y172178D01*
Y120800D01*
X218570Y82763D01*
X165100D01*
X165100Y82763D01*
X164046Y82553D01*
X163153Y81957D01*
X135213Y54017D01*
X134617Y53123D01*
X134407Y52070D01*
Y35488D01*
X132520Y34706D01*
X130598Y33231D01*
X129124Y31310D01*
X128197Y29072D01*
X127881Y26670D01*
X128197Y24268D01*
X129124Y22030D01*
X130598Y20108D01*
X132520Y18634D01*
X134758Y17707D01*
X137160Y17391D01*
X139562Y17707D01*
X141800Y18634D01*
X143722Y20108D01*
X145196Y22030D01*
X146123Y24268D01*
X146439Y26670D01*
X146123Y29072D01*
X145196Y31310D01*
X143722Y33231D01*
X141800Y34706D01*
X139913Y35488D01*
Y50930D01*
X166240Y77257D01*
X219710D01*
X220763Y77467D01*
X221657Y78063D01*
X260337Y116744D01*
X261607Y116218D01*
Y113100D01*
X236813Y88307D01*
X236217Y87414D01*
X236007Y86360D01*
Y35488D01*
X234120Y34706D01*
X232199Y33231D01*
X230724Y31310D01*
X229797Y29072D01*
X229481Y26670D01*
X229797Y24268D01*
X230724Y22030D01*
X232199Y20108D01*
X234120Y18634D01*
X236358Y17707D01*
X238760Y17391D01*
X241162Y17707D01*
X243400Y18634D01*
X245322Y20108D01*
X246796Y22030D01*
X247723Y24268D01*
X248039Y26670D01*
X247723Y29072D01*
X246796Y31310D01*
X245322Y33231D01*
X243400Y34706D01*
X241513Y35488D01*
Y85220D01*
X265337Y109044D01*
X266607Y108518D01*
Y99050D01*
X265028Y97472D01*
X263722Y98013D01*
X261620Y98289D01*
X259519Y98013D01*
X257560Y97202D01*
X255879Y95911D01*
X254588Y94230D01*
X253777Y92271D01*
X253500Y90170D01*
X253777Y88069D01*
X254588Y86110D01*
X255879Y84429D01*
X257560Y83138D01*
X259519Y82327D01*
X261620Y82051D01*
X263722Y82327D01*
X265680Y83138D01*
X267361Y84429D01*
X268652Y86110D01*
X269463Y88069D01*
X269739Y90170D01*
X269463Y92271D01*
X268922Y93578D01*
X270337Y94994D01*
X271607Y94468D01*
Y73620D01*
X271817Y72566D01*
X272413Y71673D01*
X286807Y57280D01*
Y35488D01*
X284920Y34706D01*
X282999Y33231D01*
X281524Y31310D01*
X280597Y29072D01*
X280281Y26670D01*
X280597Y24268D01*
X281524Y22030D01*
X282999Y20108D01*
X284920Y18634D01*
X287158Y17707D01*
X289560Y17391D01*
X291962Y17707D01*
X294200Y18634D01*
X296122Y20108D01*
X297596Y22030D01*
X298523Y24268D01*
X298839Y26670D01*
X298523Y29072D01*
X297596Y31310D01*
X296122Y33231D01*
X294200Y34706D01*
X292313Y35488D01*
Y58420D01*
X292313Y58420D01*
X292103Y59474D01*
X291507Y60367D01*
X291507Y60367D01*
X277113Y74760D01*
Y88038D01*
X278383Y88564D01*
X280989Y85958D01*
X280447Y84651D01*
X280170Y82550D01*
X280447Y80449D01*
X281258Y78490D01*
X282549Y76809D01*
X284230Y75518D01*
X286189Y74707D01*
X288290Y74430D01*
X290392Y74707D01*
X292350Y75518D01*
X294031Y76809D01*
X295322Y78490D01*
X296133Y80449D01*
X296409Y82550D01*
X296133Y84651D01*
X295322Y86610D01*
X294031Y88291D01*
X292350Y89582D01*
X290392Y90393D01*
X288290Y90669D01*
X286189Y90393D01*
X284882Y89852D01*
X282113Y92620D01*
Y103358D01*
X283383Y103884D01*
X312207Y75060D01*
Y35488D01*
X310320Y34706D01*
X308398Y33231D01*
X306924Y31310D01*
X305997Y29072D01*
X305681Y26670D01*
X305997Y24268D01*
X306924Y22030D01*
X308398Y20108D01*
X310320Y18634D01*
X312558Y17707D01*
X314960Y17391D01*
X317362Y17707D01*
X319600Y18634D01*
X321521Y20108D01*
X322996Y22030D01*
X323923Y24268D01*
X324239Y26670D01*
X323923Y29072D01*
X322996Y31310D01*
X321521Y33231D01*
X319600Y34706D01*
X317713Y35488D01*
Y76200D01*
X317503Y77253D01*
X316907Y78147D01*
X287113Y107940D01*
Y177370D01*
X294352D01*
X294861Y176100D01*
X294513Y175768D01*
X294513Y175661D01*
Y170180D01*
X300355D01*
X306197D01*
Y175768D01*
X305065D01*
X304149Y176996D01*
X304280Y177370D01*
X307457D01*
Y182154D01*
X308727Y182680D01*
X311572Y179835D01*
D02*
G37*
G36*
X246263Y177370D02*
X250421D01*
X250947Y176100D01*
X247780Y172933D01*
X213360D01*
X212801Y172822D01*
X212175Y173992D01*
X221866Y183683D01*
X246263D01*
Y177370D01*
D02*
G37*
G36*
X150398Y246528D02*
X152400Y246265D01*
X154402Y246528D01*
X155517Y246990D01*
X167610Y234897D01*
X167653Y234637D01*
X167367Y233343D01*
X166923Y233047D01*
X166923Y233046D01*
X150453Y216577D01*
X149857Y215683D01*
X149647Y214630D01*
Y213498D01*
X148377Y213148D01*
X137964Y223562D01*
X137071Y224158D01*
X136017Y224368D01*
X122858D01*
Y226617D01*
X111760D01*
X111760Y233123D01*
X122858D01*
Y235372D01*
X136525D01*
X137578Y235582D01*
X138472Y236178D01*
X149283Y246990D01*
X150398Y246528D01*
D02*
G37*
G36*
X400050Y463550D02*
Y233990D01*
X393913D01*
Y267970D01*
X393913Y267970D01*
X393703Y269023D01*
X393107Y269917D01*
X393106Y269917D01*
X367707Y295317D01*
X366814Y295913D01*
X365760Y296123D01*
X337127D01*
X336696Y297393D01*
X337211Y297789D01*
X338502Y299470D01*
X339313Y301429D01*
X339590Y303530D01*
X339313Y305632D01*
X338502Y307590D01*
X337211Y309271D01*
X335530Y310562D01*
X333572Y311373D01*
X331470Y311649D01*
X329369Y311373D01*
X327410Y310562D01*
X325729Y309271D01*
X324438Y307590D01*
X323897Y306283D01*
X251330D01*
X249638Y307975D01*
X255140Y313477D01*
X287020D01*
X288074Y313687D01*
X288967Y314283D01*
X318176Y343493D01*
X318177Y343493D01*
X318773Y344386D01*
X318983Y345440D01*
X318983Y345440D01*
Y356870D01*
X318983Y356870D01*
X318773Y357924D01*
X318177Y358817D01*
X318176Y358817D01*
X309287Y367707D01*
X308393Y368303D01*
X307340Y368513D01*
X306624D01*
X306355Y369304D01*
X306292Y369783D01*
X307750Y371683D01*
X308676Y373919D01*
X308992Y376319D01*
X308676Y378719D01*
X307750Y380955D01*
X306276Y382875D01*
X304356Y384349D01*
X302120Y385275D01*
X299720Y385591D01*
X297320Y385275D01*
X295084Y384349D01*
X293164Y382875D01*
X291690Y380955D01*
X291543Y380601D01*
X284585D01*
X277332Y387854D01*
Y425450D01*
X277006Y427089D01*
X276078Y428478D01*
X258298Y446258D01*
X256909Y447186D01*
X255270Y447512D01*
X252906D01*
Y456233D01*
X227408D01*
Y430227D01*
X235444D01*
X235931Y429054D01*
X235080Y428203D01*
X228916D01*
X227862Y427993D01*
X226969Y427397D01*
X217921Y418349D01*
X217325Y417455D01*
X217115Y416402D01*
Y415910D01*
X214390D01*
Y404510D01*
X214807D01*
X215104Y403795D01*
X215198Y403282D01*
X214443Y402258D01*
X212676D01*
Y379046D01*
X221664D01*
Y401925D01*
X222253Y402807D01*
X222463Y403860D01*
Y404510D01*
X225346D01*
Y415910D01*
X224928D01*
X224443Y417083D01*
X230056Y422697D01*
X236220D01*
X237274Y422907D01*
X238167Y423503D01*
X242104Y427440D01*
X242700Y428334D01*
X242910Y429387D01*
Y430227D01*
X252906D01*
Y437742D01*
X254176Y438268D01*
X268768Y423676D01*
Y387161D01*
X267498Y386636D01*
X261662Y392472D01*
X260769Y393068D01*
X259715Y393278D01*
X251128D01*
Y395527D01*
X239092D01*
Y393278D01*
X234364D01*
Y402258D01*
X225376D01*
Y379046D01*
X234364D01*
Y387772D01*
X239092D01*
Y385523D01*
X251128D01*
Y387772D01*
X258575D01*
X282533Y363814D01*
X282533Y363813D01*
X283426Y363217D01*
X284480Y363007D01*
X306200D01*
X313477Y355730D01*
Y346580D01*
X285880Y318983D01*
X254000D01*
X254000Y318983D01*
X252946Y318773D01*
X252053Y318177D01*
X252053Y318176D01*
X244116Y310239D01*
X244116Y310239D01*
X236178Y302302D01*
X235582Y301409D01*
X235372Y300355D01*
Y295578D01*
X233123D01*
Y292313D01*
X231140D01*
X230086Y292103D01*
X229193Y291507D01*
X229193Y291507D01*
X217458Y279771D01*
X215006D01*
X214754Y281041D01*
X216573Y281795D01*
X218430Y283220D01*
X219855Y285077D01*
X220751Y287239D01*
X220889Y288290D01*
X203291D01*
X203429Y287239D01*
X204325Y285077D01*
X205750Y283220D01*
X207607Y281795D01*
X209426Y281041D01*
X209174Y279771D01*
X193660D01*
Y282496D01*
X190862D01*
X190646Y283579D01*
X189718Y284968D01*
X183368Y291318D01*
X181979Y292246D01*
X180340Y292572D01*
X180020D01*
X179972Y292563D01*
X179434Y293751D01*
X179731Y293979D01*
X181022Y295660D01*
X181833Y297619D01*
X182110Y299720D01*
X181833Y301821D01*
X181022Y303780D01*
X179731Y305461D01*
X178050Y306752D01*
X176091Y307563D01*
X173990Y307840D01*
X171889Y307563D01*
X169930Y306752D01*
X168249Y305461D01*
X166958Y303780D01*
X166147Y301821D01*
X165899Y299933D01*
X160576D01*
Y304150D01*
X149620D01*
Y292750D01*
X148585Y292182D01*
X146055D01*
X145020Y292750D01*
X145020Y293452D01*
Y304150D01*
X142295D01*
Y306783D01*
X145464D01*
Y318057D01*
X134190D01*
Y306783D01*
X136789D01*
Y304150D01*
X134064D01*
Y293452D01*
X134064Y292750D01*
X133029Y292182D01*
X113029D01*
X79770Y325442D01*
X80156Y326021D01*
X80482Y327660D01*
Y340269D01*
X112981D01*
Y338787D01*
X125779D01*
Y350315D01*
X112981D01*
Y348833D01*
X80482D01*
Y360680D01*
X80156Y362319D01*
X79228Y363708D01*
X73005Y369931D01*
X71616Y370859D01*
X69977Y371185D01*
X66999D01*
Y377112D01*
X54201D01*
Y356694D01*
X66999D01*
Y362462D01*
X68269Y362555D01*
X71918Y358906D01*
Y344170D01*
Y329434D01*
X70820Y328336D01*
X70820Y328336D01*
X70788Y328304D01*
X69518Y328830D01*
Y332144D01*
X54942D01*
Y327238D01*
X42382D01*
Y329643D01*
X44118D01*
Y339647D01*
X32082Y339647D01*
X31877Y340832D01*
Y342773D01*
X36830D01*
Y348615D01*
Y354457D01*
X31242D01*
Y351028D01*
X27305D01*
Y344170D01*
Y337312D01*
X31877Y337312D01*
X32082Y336127D01*
Y329643D01*
X33818D01*
Y325120D01*
Y305311D01*
X32359Y304191D01*
X31068Y302510D01*
X30257Y300551D01*
X29980Y298450D01*
X30257Y296348D01*
X31068Y294390D01*
X32359Y292709D01*
X34040Y291418D01*
X35998Y290607D01*
X38100Y290331D01*
X40202Y290607D01*
X42160Y291418D01*
X43841Y292709D01*
X45132Y294390D01*
X45943Y296348D01*
X46220Y298450D01*
X45943Y300551D01*
X45132Y302510D01*
X43841Y304191D01*
X42382Y305311D01*
Y318673D01*
X54942D01*
Y313768D01*
X69518D01*
Y318673D01*
X71496D01*
X73134Y319000D01*
X73713Y319386D01*
X108228Y284872D01*
X109617Y283944D01*
X111256Y283618D01*
X178956D01*
X182260Y280314D01*
Y271540D01*
X193660D01*
Y274265D01*
X218598D01*
X219652Y274475D01*
X220545Y275071D01*
X231853Y286380D01*
X233123Y285854D01*
Y283542D01*
X235372D01*
Y276225D01*
X235582Y275172D01*
X236178Y274278D01*
X236962Y273494D01*
X232749Y269282D01*
X232153Y268389D01*
X231943Y267335D01*
Y259197D01*
X225630D01*
Y247283D01*
X224457Y246796D01*
X221677Y249576D01*
X222932Y251210D01*
X223743Y253169D01*
X224020Y255270D01*
X223743Y257372D01*
X222932Y259330D01*
X221641Y261011D01*
X219960Y262302D01*
X218001Y263113D01*
X215900Y263389D01*
X213799Y263113D01*
X211840Y262302D01*
X210159Y261011D01*
X208868Y259330D01*
X208057Y257372D01*
X207780Y255270D01*
X208057Y253169D01*
X208868Y251210D01*
X210159Y249529D01*
X211840Y248238D01*
X213799Y247427D01*
X215900Y247150D01*
X216268Y247199D01*
X220684Y242783D01*
X220158Y241513D01*
X206429D01*
X205802Y242783D01*
X206422Y243590D01*
X207233Y245548D01*
X207509Y247650D01*
X207233Y249751D01*
X206422Y251710D01*
X205131Y253391D01*
X203450Y254682D01*
X201492Y255493D01*
X200873Y255574D01*
Y259080D01*
X200873Y259080D01*
X200663Y260133D01*
X200067Y261027D01*
X197685Y263409D01*
X196791Y264005D01*
X195738Y264215D01*
X193660D01*
Y266940D01*
X182260D01*
Y255984D01*
X193660D01*
Y256879D01*
X194930Y257513D01*
X195367Y257184D01*
Y254697D01*
X195330Y254682D01*
X193649Y253391D01*
X192358Y251710D01*
X191547Y249751D01*
X191271Y247650D01*
X191547Y245548D01*
X192358Y243590D01*
X193649Y241909D01*
X195330Y240618D01*
X196526Y240123D01*
X196274Y238853D01*
X171440D01*
X159410Y250883D01*
X159872Y251998D01*
X160135Y254000D01*
X159872Y256002D01*
X159099Y257868D01*
X157870Y259470D01*
X156268Y260699D01*
X154402Y261472D01*
X152400Y261735D01*
X150398Y261472D01*
X148532Y260699D01*
X146930Y259470D01*
X145701Y257868D01*
X144928Y256002D01*
X144665Y254000D01*
X144928Y251998D01*
X145390Y250883D01*
X135385Y240878D01*
X122858D01*
Y243127D01*
X123487Y244137D01*
X124460Y245110D01*
Y260350D01*
X102870D01*
Y187960D01*
X121707Y169123D01*
X121406Y167853D01*
X115440D01*
X36237Y247057D01*
X35343Y247653D01*
X34290Y247863D01*
X29520D01*
Y254310D01*
X11120D01*
X10632Y255378D01*
Y292866D01*
X15728Y297962D01*
X16656Y299351D01*
X16982Y300990D01*
Y318841D01*
X17780Y319541D01*
X19882Y319817D01*
X21840Y320628D01*
X23521Y321919D01*
X24812Y323600D01*
X25623Y325559D01*
X25900Y327660D01*
X25623Y329762D01*
X24812Y331720D01*
X23521Y333401D01*
X21840Y334692D01*
X19882Y335503D01*
X17780Y335779D01*
X16982Y336479D01*
Y338152D01*
X17067D01*
Y350101D01*
X18628Y351662D01*
X19556Y353051D01*
X19882Y354690D01*
Y356694D01*
X21999D01*
Y377112D01*
X9201D01*
Y356694D01*
X9752D01*
X10278Y355424D01*
X9037Y354183D01*
X8109Y352794D01*
X7783Y351155D01*
Y350188D01*
X7063D01*
Y338152D01*
X8418D01*
Y302764D01*
X6253Y300599D01*
X5080Y301085D01*
Y386842D01*
X36830D01*
Y427990D01*
X38100D01*
Y429260D01*
X73914D01*
Y464820D01*
X80010D01*
Y438150D01*
X85090Y433070D01*
Y408940D01*
X107950Y386080D01*
X139700D01*
X165100Y411480D01*
Y464820D01*
X198025D01*
X198511Y463647D01*
X196235Y461371D01*
X195307Y459982D01*
X194981Y458343D01*
Y456233D01*
X186514D01*
Y430227D01*
X196637D01*
Y424180D01*
X196847Y423126D01*
X197443Y422233D01*
X201559Y418118D01*
Y415910D01*
X198834D01*
Y404510D01*
X201717D01*
Y402258D01*
X199976D01*
Y379046D01*
X208964D01*
Y402258D01*
X207223D01*
Y404510D01*
X209790D01*
Y415910D01*
X207065D01*
Y419258D01*
X206855Y420312D01*
X206259Y421205D01*
X206259Y421205D01*
X202143Y425320D01*
Y430227D01*
X212012D01*
Y456233D01*
X205914D01*
X205276Y457503D01*
X205644Y457998D01*
X285246D01*
X313218Y430026D01*
Y415794D01*
X305724Y408300D01*
X304356Y409350D01*
X302120Y410276D01*
X299720Y410592D01*
X297320Y410276D01*
X295084Y409350D01*
X293164Y407877D01*
X291690Y405956D01*
X290764Y403720D01*
X290448Y401320D01*
X290764Y398920D01*
X291690Y396684D01*
X293164Y394763D01*
X295084Y393290D01*
X297320Y392364D01*
X299720Y392048D01*
X302120Y392364D01*
X304356Y393290D01*
X306276Y394763D01*
X307750Y396684D01*
X308676Y398920D01*
X308710Y399174D01*
X320528Y410992D01*
X321456Y412381D01*
X321782Y414020D01*
Y431800D01*
X321456Y433439D01*
X320528Y434828D01*
X291709Y463647D01*
X292195Y464820D01*
X398780D01*
X400050Y463550D01*
D02*
G37*
G36*
X337713Y289347D02*
X337143Y288967D01*
X337143Y288967D01*
X321694Y273517D01*
X307457D01*
Y279830D01*
X299353D01*
X298867Y281003D01*
X308480Y290617D01*
X337328D01*
X337713Y289347D01*
D02*
G37*
G36*
X248243Y301583D02*
X248243Y301583D01*
X249137Y300987D01*
X250190Y300777D01*
X250190Y300777D01*
X323897D01*
X324438Y299470D01*
X325729Y297789D01*
X326244Y297393D01*
X325813Y296123D01*
X307340D01*
X306287Y295913D01*
X305393Y295317D01*
X292413Y282337D01*
X291817Y281444D01*
X291607Y280390D01*
Y279830D01*
X273297D01*
Y280670D01*
X271718D01*
X271456Y281221D01*
X271373Y281940D01*
X273040Y283220D01*
X274465Y285077D01*
X275361Y287239D01*
X275499Y288290D01*
X266700D01*
Y289560D01*
X265430D01*
Y298360D01*
X264379Y298221D01*
X262217Y297325D01*
X260360Y295900D01*
X259207Y294398D01*
X257937Y294830D01*
Y296418D01*
X253365D01*
Y289560D01*
Y282702D01*
X257937D01*
Y284291D01*
X259207Y284722D01*
X260360Y283220D01*
X262217Y281795D01*
X263894Y281100D01*
X263641Y279830D01*
X258297D01*
Y280670D01*
X255630D01*
Y270764D01*
Y260858D01*
X258297D01*
Y261698D01*
X265423D01*
Y260858D01*
X268090D01*
Y270764D01*
X270630D01*
Y260858D01*
X273297D01*
Y261698D01*
X307457D01*
Y268011D01*
X320882D01*
X321268Y266743D01*
Y266741D01*
X317077Y262551D01*
X316481Y261658D01*
X316271Y260604D01*
Y259197D01*
X309958D01*
Y255037D01*
X309118D01*
Y252370D01*
X319024D01*
X328930D01*
Y255037D01*
X328090D01*
Y259197D01*
X323306D01*
X322780Y260467D01*
X324355Y262042D01*
X331802D01*
Y261063D01*
X343838D01*
Y263312D01*
X347345D01*
X348399Y263522D01*
X349292Y264118D01*
X354732Y269559D01*
X356039Y269017D01*
X358140Y268741D01*
X360242Y269017D01*
X362200Y269828D01*
X363881Y271119D01*
X365172Y272800D01*
X365983Y274758D01*
X366259Y276860D01*
X366043Y278508D01*
X367245Y279101D01*
X368087Y278260D01*
Y237490D01*
X368297Y236437D01*
X368893Y235543D01*
X369961Y234475D01*
X369889Y234114D01*
X368512Y233696D01*
X353693Y248514D01*
X352795Y249114D01*
X351735Y249325D01*
X351735Y249325D01*
X344678D01*
Y250825D01*
X337820D01*
X330962D01*
Y248846D01*
X328930D01*
Y249830D01*
X319024D01*
X309118D01*
Y247163D01*
X309958D01*
Y238003D01*
Y228003D01*
Y218003D01*
Y208003D01*
Y198003D01*
X327694D01*
X329987Y195710D01*
Y194263D01*
X328680Y193722D01*
X326999Y192431D01*
X325708Y190750D01*
X324897Y188792D01*
X324621Y186690D01*
X324897Y184589D01*
X325708Y182630D01*
X326999Y180949D01*
X328680Y179658D01*
X330639Y178847D01*
X332740Y178570D01*
X334841Y178847D01*
X336800Y179658D01*
X338481Y180949D01*
X339772Y182630D01*
X340583Y184589D01*
X340859Y186690D01*
X340583Y188792D01*
X339772Y190750D01*
X338481Y192431D01*
X336800Y193722D01*
X335493Y194263D01*
Y196850D01*
X335283Y197903D01*
X334687Y198797D01*
X334687Y198797D01*
X332158Y201325D01*
X332585Y202694D01*
X333073Y202783D01*
X350307Y185550D01*
Y181563D01*
X349000Y181022D01*
X347319Y179731D01*
X346028Y178050D01*
X345217Y176091D01*
X344940Y173990D01*
X345217Y171889D01*
X346028Y169930D01*
X347319Y168249D01*
X349000Y166958D01*
X350959Y166147D01*
X353060Y165870D01*
X355162Y166147D01*
X357120Y166958D01*
X358801Y168249D01*
X360092Y169930D01*
X360903Y171889D01*
X361180Y173990D01*
X360903Y176091D01*
X360092Y178050D01*
X358801Y179731D01*
X357120Y181022D01*
X355813Y181563D01*
Y186690D01*
X355813Y186690D01*
X355603Y187743D01*
X355007Y188637D01*
X337318Y206325D01*
X337745Y207694D01*
X338233Y207784D01*
X358959Y187058D01*
X358910Y186690D01*
X359187Y184589D01*
X359998Y182630D01*
X361289Y180949D01*
X362970Y179658D01*
X364929Y178847D01*
X367030Y178570D01*
X369132Y178847D01*
X371090Y179658D01*
X372771Y180949D01*
X374062Y182630D01*
X374873Y184589D01*
X375149Y186690D01*
X374873Y188792D01*
X374062Y190750D01*
X372771Y192431D01*
X371090Y193722D01*
X369132Y194533D01*
X367030Y194809D01*
X364929Y194533D01*
X362970Y193722D01*
X361336Y192467D01*
X358535Y195268D01*
X359128Y196471D01*
X360045Y196350D01*
X362146Y196627D01*
X364105Y197438D01*
X365786Y198729D01*
X367077Y200410D01*
X367888Y202369D01*
X368164Y204470D01*
X368047Y205360D01*
X369250Y205954D01*
X377772Y197432D01*
X378670Y196832D01*
X379730Y196621D01*
X379730Y196621D01*
X382349D01*
X383124Y194750D01*
X384599Y192829D01*
X386520Y191354D01*
X388758Y190427D01*
X391160Y190111D01*
X393562Y190427D01*
X395800Y191354D01*
X397721Y192829D01*
X398780Y194208D01*
X400050Y193777D01*
Y186773D01*
X395448Y182172D01*
X393562Y182953D01*
X391160Y183269D01*
X388758Y182953D01*
X386520Y182026D01*
X384599Y180551D01*
X383124Y178630D01*
X382197Y176392D01*
X381881Y173990D01*
X382197Y171588D01*
X383124Y169350D01*
X384599Y167428D01*
X386520Y165954D01*
X388068Y165313D01*
X387815Y164043D01*
X382223D01*
X381682Y165350D01*
X380391Y167031D01*
X378710Y168322D01*
X376752Y169133D01*
X374650Y169410D01*
X372548Y169133D01*
X370590Y168322D01*
X368909Y167031D01*
X367618Y165350D01*
X367077Y164043D01*
X340230D01*
X333417Y170857D01*
X332523Y171453D01*
X331470Y171663D01*
X319327D01*
Y174928D01*
X317078D01*
Y180975D01*
X317078Y180975D01*
X316868Y182029D01*
X316272Y182922D01*
X310811Y188383D01*
X309918Y188979D01*
X308864Y189189D01*
X307457D01*
Y195502D01*
X303297D01*
Y196342D01*
X300630D01*
Y186436D01*
X298090D01*
Y196342D01*
X295423D01*
Y195502D01*
X246263D01*
Y189189D01*
X220726D01*
X220167Y189078D01*
X219541Y190248D01*
X227296Y198003D01*
X243762D01*
Y208003D01*
Y217163D01*
X244602D01*
Y219830D01*
X234696D01*
X224790D01*
Y217669D01*
X222683Y215562D01*
X222087Y214669D01*
X222057Y214520D01*
X216030Y208493D01*
X201665D01*
X201321Y208941D01*
X199640Y210232D01*
X197682Y211043D01*
X195580Y211320D01*
X193479Y211043D01*
X191520Y210232D01*
X189839Y208941D01*
X188548Y207260D01*
X187737Y205301D01*
X187460Y203200D01*
X187737Y201098D01*
X188548Y199140D01*
X189839Y197459D01*
X191520Y196168D01*
X193479Y195357D01*
X195580Y195081D01*
X197682Y195357D01*
X199640Y196168D01*
X201321Y197459D01*
X202612Y199140D01*
X203423Y201098D01*
X203671Y202987D01*
X216348D01*
X216874Y201717D01*
X183010Y167853D01*
X171964D01*
X171663Y169123D01*
X182880Y180340D01*
Y204470D01*
X191897Y213487D01*
X191897Y216662D01*
X191897D01*
Y228347D01*
X195023D01*
Y217502D01*
X205027D01*
Y219283D01*
X206297Y219536D01*
X206328Y219460D01*
X207619Y217779D01*
X209300Y216488D01*
X211259Y215677D01*
X213360Y215401D01*
X215462Y215677D01*
X217420Y216488D01*
X219101Y217779D01*
X220392Y219460D01*
X221203Y221418D01*
X221457Y223347D01*
X224790D01*
Y222370D01*
X234696D01*
X244602D01*
Y225037D01*
X243762D01*
Y238003D01*
Y248003D01*
Y259197D01*
X237449D01*
Y266195D01*
X240856Y269601D01*
X241639Y268817D01*
X242533Y268221D01*
X243586Y268011D01*
X243586Y268011D01*
X246263D01*
Y261698D01*
X250423D01*
Y260858D01*
X253090D01*
Y270764D01*
Y280670D01*
X250423D01*
Y279830D01*
X246263D01*
Y273517D01*
X244726D01*
X240878Y277365D01*
Y283542D01*
X243127D01*
Y295578D01*
X240878D01*
Y299215D01*
X245745Y304082D01*
X248243Y301583D01*
D02*
G37*
G36*
X352914Y282997D02*
X352399Y282601D01*
X351108Y280920D01*
X350297Y278962D01*
X350020Y276860D01*
X350297Y274758D01*
X350839Y273452D01*
X346205Y268818D01*
X343838D01*
Y271067D01*
X331802D01*
Y267548D01*
X325167D01*
X324781Y268816D01*
Y268818D01*
X340230Y284267D01*
X352483D01*
X352914Y282997D01*
D02*
G37*
G36*
X388407Y266830D02*
Y233990D01*
X381960D01*
Y215590D01*
X380999Y214843D01*
X377060D01*
X376133Y215770D01*
Y234950D01*
X375923Y236003D01*
X375327Y236897D01*
X375326Y236897D01*
X373593Y238630D01*
Y279400D01*
X373482Y279959D01*
X374652Y280585D01*
X388407Y266830D01*
D02*
G37*
%LPC*%
G36*
X228976Y162845D02*
X227925Y162707D01*
X225762Y161811D01*
X223905Y160386D01*
X222480Y158529D01*
X221585Y156367D01*
X221446Y155316D01*
X228976D01*
Y162845D01*
D02*
G37*
G36*
X239045Y152776D02*
X231516D01*
Y145246D01*
X232567Y145385D01*
X234729Y146280D01*
X236586Y147705D01*
X238011Y149562D01*
X238907Y151725D01*
X239045Y152776D01*
D02*
G37*
G36*
X228976D02*
X221446D01*
X221585Y151725D01*
X222480Y149562D01*
X223905Y147705D01*
X225762Y146280D01*
X227925Y145385D01*
X228976Y145246D01*
Y152776D01*
D02*
G37*
G36*
X389890Y147320D02*
X381201D01*
X381378Y145969D01*
X382390Y143527D01*
X383999Y141429D01*
X386097Y139820D01*
X388539Y138808D01*
X389890Y138631D01*
Y147320D01*
D02*
G37*
G36*
X231516Y162845D02*
Y155316D01*
X239045D01*
X238907Y156367D01*
X238011Y158529D01*
X236586Y160386D01*
X234729Y161811D01*
X232567Y162707D01*
X231516Y162845D01*
D02*
G37*
G36*
X299085Y167640D02*
X294513D01*
Y162052D01*
X299085D01*
Y167640D01*
D02*
G37*
G36*
X306197D02*
X301625D01*
Y162052D01*
X306197D01*
Y167640D01*
D02*
G37*
G36*
X19050Y26469D02*
X17699Y26292D01*
X15257Y25280D01*
X13159Y23671D01*
X11550Y21573D01*
X10538Y19131D01*
X10361Y17780D01*
X19050D01*
Y26469D01*
D02*
G37*
G36*
X264160Y35949D02*
X261758Y35633D01*
X259520Y34706D01*
X257598Y33231D01*
X256124Y31310D01*
X255197Y29072D01*
X254881Y26670D01*
X255197Y24268D01*
X256124Y22030D01*
X257598Y20108D01*
X259520Y18634D01*
X261758Y17707D01*
X264160Y17391D01*
X266562Y17707D01*
X268800Y18634D01*
X270721Y20108D01*
X272196Y22030D01*
X273123Y24268D01*
X273439Y26670D01*
X273123Y29072D01*
X272196Y31310D01*
X270721Y33231D01*
X268800Y34706D01*
X266562Y35633D01*
X264160Y35949D01*
D02*
G37*
G36*
X21590Y26469D02*
Y17780D01*
X30279D01*
X30102Y19131D01*
X29090Y21573D01*
X27481Y23671D01*
X25383Y25280D01*
X22941Y26292D01*
X21590Y26469D01*
D02*
G37*
G36*
X113030Y36629D02*
Y27940D01*
X121719D01*
X121542Y29291D01*
X120530Y31733D01*
X118921Y33831D01*
X116823Y35440D01*
X114381Y36452D01*
X113030Y36629D01*
D02*
G37*
G36*
X110490D02*
X109139Y36452D01*
X106697Y35440D01*
X104599Y33831D01*
X102990Y31733D01*
X101978Y29291D01*
X101801Y27940D01*
X110490D01*
Y36629D01*
D02*
G37*
G36*
X121719Y25400D02*
X113030D01*
Y16711D01*
X114381Y16888D01*
X116823Y17900D01*
X118921Y19509D01*
X120530Y21607D01*
X121542Y24049D01*
X121719Y25400D01*
D02*
G37*
G36*
X110490D02*
X101801D01*
X101978Y24049D01*
X102990Y21607D01*
X104599Y19509D01*
X106697Y17900D01*
X109139Y16888D01*
X110490Y16711D01*
Y25400D01*
D02*
G37*
G36*
X162560Y35949D02*
X160158Y35633D01*
X157920Y34706D01*
X155998Y33231D01*
X154524Y31310D01*
X153597Y29072D01*
X153281Y26670D01*
X153597Y24268D01*
X154524Y22030D01*
X155998Y20108D01*
X157920Y18634D01*
X160158Y17707D01*
X162560Y17391D01*
X164962Y17707D01*
X167200Y18634D01*
X169121Y20108D01*
X170596Y22030D01*
X171523Y24268D01*
X171839Y26670D01*
X171523Y29072D01*
X170596Y31310D01*
X169121Y33231D01*
X167200Y34706D01*
X164962Y35633D01*
X162560Y35949D01*
D02*
G37*
G36*
X213360D02*
X210958Y35633D01*
X208720Y34706D01*
X206798Y33231D01*
X205324Y31310D01*
X204397Y29072D01*
X204081Y26670D01*
X204397Y24268D01*
X205324Y22030D01*
X206798Y20108D01*
X208720Y18634D01*
X210958Y17707D01*
X213360Y17391D01*
X215762Y17707D01*
X218000Y18634D01*
X219921Y20108D01*
X221396Y22030D01*
X222323Y24268D01*
X222639Y26670D01*
X222323Y29072D01*
X221396Y31310D01*
X219921Y33231D01*
X218000Y34706D01*
X215762Y35633D01*
X213360Y35949D01*
D02*
G37*
G36*
X187960D02*
X185558Y35633D01*
X183320Y34706D01*
X181399Y33231D01*
X179924Y31310D01*
X178997Y29072D01*
X178681Y26670D01*
X178997Y24268D01*
X179924Y22030D01*
X181399Y20108D01*
X183320Y18634D01*
X185558Y17707D01*
X187960Y17391D01*
X190362Y17707D01*
X192600Y18634D01*
X194522Y20108D01*
X195996Y22030D01*
X196923Y24268D01*
X197239Y26670D01*
X196923Y29072D01*
X195996Y31310D01*
X194522Y33231D01*
X192600Y34706D01*
X190362Y35633D01*
X187960Y35949D01*
D02*
G37*
G36*
X226695Y111760D02*
X222123D01*
Y106172D01*
X226695D01*
Y111760D01*
D02*
G37*
G36*
X229494Y141478D02*
X220737D01*
Y134620D01*
X229494D01*
Y141478D01*
D02*
G37*
G36*
X240792Y132080D02*
X232034D01*
Y125222D01*
X240792D01*
Y132080D01*
D02*
G37*
G36*
X298450Y142149D02*
X297399Y142011D01*
X295237Y141115D01*
X293380Y139690D01*
X291955Y137833D01*
X291059Y135671D01*
X290921Y134620D01*
X298450D01*
Y142149D01*
D02*
G37*
G36*
X217843Y140638D02*
X199468D01*
Y137358D01*
X198198Y136926D01*
X197511Y137821D01*
X195830Y139112D01*
X193871Y139923D01*
X191770Y140199D01*
X189669Y139923D01*
X187710Y139112D01*
X186029Y137821D01*
X184738Y136140D01*
X183927Y134181D01*
X183650Y132080D01*
X183927Y129979D01*
X184738Y128020D01*
X186029Y126339D01*
X187710Y125048D01*
X189669Y124237D01*
X191770Y123961D01*
X193871Y124237D01*
X195830Y125048D01*
X197511Y126339D01*
X198198Y127234D01*
X199468Y126803D01*
Y126062D01*
X202987D01*
Y115570D01*
X203197Y114516D01*
X203793Y113623D01*
X206333Y111083D01*
X206333Y111083D01*
X207227Y110487D01*
X208280Y110277D01*
X208993D01*
Y107012D01*
X218997D01*
Y119048D01*
X208993D01*
X208493Y120111D01*
Y126062D01*
X217843D01*
Y140638D01*
D02*
G37*
G36*
X240792Y141478D02*
X232034D01*
Y134620D01*
X240792D01*
Y141478D01*
D02*
G37*
G36*
X226695Y119888D02*
X222123D01*
Y114300D01*
X226695D01*
Y119888D01*
D02*
G37*
G36*
X233807Y111760D02*
X229235D01*
Y106172D01*
X233807D01*
Y111760D01*
D02*
G37*
G36*
Y119888D02*
X229235D01*
Y114300D01*
X233807D01*
Y119888D01*
D02*
G37*
G36*
X229494Y132080D02*
X220737D01*
Y125222D01*
X229494D01*
Y132080D01*
D02*
G37*
G36*
X298450D02*
X290921D01*
X291059Y131029D01*
X291955Y128867D01*
X293380Y127010D01*
X295237Y125585D01*
X297399Y124689D01*
X298450Y124551D01*
Y132080D01*
D02*
G37*
G36*
X44958Y354457D02*
X39370D01*
Y349885D01*
X44958D01*
Y354457D01*
D02*
G37*
G36*
X70358Y355092D02*
X63500D01*
Y346334D01*
X70358D01*
Y355092D01*
D02*
G37*
G36*
X369570Y360871D02*
X368221Y360694D01*
X365780Y359683D01*
X363684Y358074D01*
X362076Y355979D01*
X361065Y353538D01*
X360888Y352189D01*
X369570D01*
Y360871D01*
D02*
G37*
G36*
X298450Y361270D02*
X297101Y361092D01*
X294660Y360081D01*
X292564Y358473D01*
X290956Y356377D01*
X289945Y353937D01*
X289768Y352588D01*
X298450D01*
Y361270D01*
D02*
G37*
G36*
X372110Y360871D02*
Y352189D01*
X380792D01*
X380615Y353538D01*
X379604Y355979D01*
X377996Y358074D01*
X375900Y359683D01*
X373459Y360694D01*
X372110Y360871D01*
D02*
G37*
G36*
X203200Y355854D02*
X199136D01*
Y344678D01*
X203200D01*
Y355854D01*
D02*
G37*
G36*
X44958Y347345D02*
X39370D01*
Y342773D01*
X44958D01*
Y347345D01*
D02*
G37*
G36*
X209804Y355854D02*
X205740D01*
Y344678D01*
X209804D01*
Y355854D01*
D02*
G37*
G36*
X60960Y355092D02*
X54102D01*
Y346334D01*
X60960D01*
Y355092D01*
D02*
G37*
G36*
X24765Y351028D02*
X20193D01*
Y345440D01*
X24765D01*
Y351028D01*
D02*
G37*
G36*
X300990Y361270D02*
Y352588D01*
X309672D01*
X309495Y353937D01*
X308484Y356377D01*
X306876Y358473D01*
X304780Y360081D01*
X302339Y361092D01*
X300990Y361270D01*
D02*
G37*
G36*
X73914Y426720D02*
X39370D01*
Y386842D01*
X73914D01*
Y426720D01*
D02*
G37*
G36*
X251968Y382397D02*
X246380D01*
Y377825D01*
X251968D01*
Y382397D01*
D02*
G37*
G36*
X370840Y410193D02*
X368440Y409878D01*
X366204Y408951D01*
X364283Y407478D01*
X362810Y405557D01*
X361884Y403321D01*
X361568Y400921D01*
X361884Y398521D01*
X362810Y396285D01*
X364283Y394365D01*
X366204Y392891D01*
X368440Y391965D01*
X370840Y391649D01*
X373240Y391965D01*
X375476Y392891D01*
X377397Y394365D01*
X378870Y396285D01*
X379796Y398521D01*
X380112Y400921D01*
X379796Y403321D01*
X378870Y405557D01*
X377397Y407478D01*
X375476Y408951D01*
X373240Y409878D01*
X370840Y410193D01*
D02*
G37*
G36*
X299720Y435593D02*
X297320Y435278D01*
X295084Y434351D01*
X293164Y432878D01*
X291690Y430957D01*
X290764Y428721D01*
X290448Y426321D01*
X290764Y423921D01*
X291690Y421685D01*
X293164Y419765D01*
X295084Y418291D01*
X297320Y417365D01*
X299720Y417049D01*
X302120Y417365D01*
X304356Y418291D01*
X306276Y419765D01*
X307750Y421685D01*
X308676Y423921D01*
X308992Y426321D01*
X308676Y428721D01*
X307750Y430957D01*
X306276Y432878D01*
X304356Y434351D01*
X302120Y435278D01*
X299720Y435593D01*
D02*
G37*
G36*
X370840Y435195D02*
X368440Y434879D01*
X366204Y433952D01*
X364283Y432479D01*
X362810Y430559D01*
X361884Y428322D01*
X361568Y425922D01*
X361884Y423523D01*
X362810Y421286D01*
X364283Y419366D01*
X366204Y417892D01*
X368440Y416966D01*
X370840Y416650D01*
X373240Y416966D01*
X375476Y417892D01*
X377397Y419366D01*
X378870Y421286D01*
X379796Y423523D01*
X380112Y425922D01*
X379796Y428322D01*
X378870Y430559D01*
X377397Y432479D01*
X375476Y433952D01*
X373240Y434879D01*
X370840Y435195D01*
D02*
G37*
G36*
X196264Y402258D02*
X187276D01*
Y379046D01*
X189017D01*
Y375873D01*
X187710Y375332D01*
X186029Y374041D01*
X184738Y372360D01*
X183927Y370401D01*
X183650Y368300D01*
X183927Y366199D01*
X184738Y364240D01*
X186029Y362559D01*
X187710Y361268D01*
X189669Y360457D01*
X191770Y360181D01*
X193871Y360457D01*
X195830Y361268D01*
X197511Y362559D01*
X198802Y364240D01*
X199613Y366199D01*
X199890Y368300D01*
X199613Y370401D01*
X198802Y372360D01*
X197511Y374041D01*
X195830Y375332D01*
X194523Y375873D01*
Y379046D01*
X196264D01*
Y402258D01*
D02*
G37*
G36*
X251968Y375285D02*
X246380D01*
Y370713D01*
X249567D01*
X250194Y369443D01*
X249508Y368550D01*
X248697Y366591D01*
X248421Y364490D01*
X248560Y363433D01*
X247473Y362163D01*
X220980D01*
X219926Y361953D01*
X219033Y361357D01*
X215223Y357547D01*
X214627Y356654D01*
X214417Y355600D01*
Y355014D01*
X212676D01*
Y331802D01*
X214004D01*
X214438Y331138D01*
X214073Y329868D01*
X214073D01*
Y317832D01*
X216382D01*
X216532Y317082D01*
X217128Y316188D01*
X218785Y314531D01*
X218299Y313358D01*
X215226D01*
Y299258D01*
X214893Y298835D01*
X214176Y298252D01*
X212334Y298495D01*
Y304800D01*
X203576D01*
Y297942D01*
X206324D01*
X206755Y296672D01*
X205750Y295900D01*
X204325Y294043D01*
X203429Y291881D01*
X203291Y290830D01*
X220889D01*
X220751Y291881D01*
X219855Y294043D01*
X218430Y295900D01*
X216573Y297325D01*
X216123Y297512D01*
X216376Y298782D01*
X233602D01*
Y313358D01*
X227055D01*
X226958Y313849D01*
X226361Y314742D01*
X224443Y316660D01*
X224077Y317832D01*
X224077D01*
X224077Y317832D01*
Y329868D01*
X221828D01*
Y330835D01*
X221641Y331774D01*
X221664Y331802D01*
X221664D01*
Y355014D01*
X221664D01*
X221383Y355692D01*
X222172Y356657D01*
X251460D01*
X252514Y356867D01*
X253047Y357223D01*
X254438Y356647D01*
X256540Y356371D01*
X258641Y356647D01*
X260600Y357458D01*
X262281Y358749D01*
X263572Y360430D01*
X264383Y362388D01*
X264660Y364490D01*
X264383Y366591D01*
X263572Y368550D01*
X262281Y370231D01*
X260600Y371522D01*
X258641Y372333D01*
X256540Y372609D01*
X254438Y372333D01*
X253238Y371836D01*
X251968Y372669D01*
Y375285D01*
D02*
G37*
G36*
X370840Y385192D02*
X368440Y384876D01*
X366204Y383950D01*
X364283Y382477D01*
X362810Y380556D01*
X361884Y378320D01*
X361568Y375920D01*
X361884Y373520D01*
X362810Y371284D01*
X364283Y369364D01*
X366204Y367890D01*
X368440Y366964D01*
X370840Y366648D01*
X373240Y366964D01*
X375476Y367890D01*
X377397Y369364D01*
X378870Y371284D01*
X379796Y373520D01*
X380112Y375920D01*
X379796Y378320D01*
X378870Y380556D01*
X377397Y382477D01*
X375476Y383950D01*
X373240Y384876D01*
X370840Y385192D01*
D02*
G37*
G36*
X243840Y382397D02*
X238252D01*
Y377825D01*
X243840D01*
Y382397D01*
D02*
G37*
G36*
Y375285D02*
X238252D01*
Y370713D01*
X243840D01*
Y375285D01*
D02*
G37*
G36*
X125779Y336853D02*
X112981D01*
Y325325D01*
X116627D01*
Y322533D01*
X115320Y321992D01*
X113639Y320701D01*
X112348Y319020D01*
X111537Y317062D01*
X111260Y314960D01*
X111537Y312859D01*
X112348Y310900D01*
X113639Y309219D01*
X115320Y307928D01*
X117278Y307117D01*
X119380Y306840D01*
X121482Y307117D01*
X123440Y307928D01*
X125121Y309219D01*
X126412Y310900D01*
X127223Y312859D01*
X127500Y314960D01*
X127223Y317062D01*
X126412Y319020D01*
X125121Y320701D01*
X123440Y321992D01*
X122133Y322533D01*
Y325325D01*
X125779D01*
Y336853D01*
D02*
G37*
G36*
X161290Y311150D02*
X156083D01*
Y305943D01*
X161290D01*
Y311150D01*
D02*
G37*
G36*
X201036Y314198D02*
X192278D01*
Y307340D01*
X201036D01*
Y314198D01*
D02*
G37*
G36*
X153543Y318897D02*
X148336D01*
Y313690D01*
X153543D01*
Y318897D01*
D02*
G37*
G36*
X212334Y314198D02*
X203576D01*
Y307340D01*
X212334D01*
Y314198D01*
D02*
G37*
G36*
X153543Y311150D02*
X148336D01*
Y305943D01*
X153543D01*
Y311150D01*
D02*
G37*
G36*
X201036Y304800D02*
X192278D01*
Y297942D01*
X201036D01*
Y304800D01*
D02*
G37*
G36*
X161290Y318897D02*
X156083D01*
Y313690D01*
X161290D01*
Y318897D01*
D02*
G37*
G36*
X369570Y349649D02*
X360888D01*
X361065Y348300D01*
X362076Y345859D01*
X363684Y343763D01*
X365780Y342155D01*
X368221Y341144D01*
X369570Y340966D01*
Y349649D01*
D02*
G37*
G36*
X24765Y342900D02*
X20193D01*
Y337312D01*
X24765D01*
Y342900D01*
D02*
G37*
G36*
X380792Y349649D02*
X372110D01*
Y340966D01*
X373459Y341144D01*
X375900Y342155D01*
X377996Y343763D01*
X379604Y345859D01*
X380615Y348300D01*
X380792Y349649D01*
D02*
G37*
G36*
X309672Y350048D02*
X300990D01*
Y341365D01*
X302339Y341543D01*
X304780Y342554D01*
X306876Y344162D01*
X308484Y346258D01*
X309495Y348698D01*
X309672Y350048D01*
D02*
G37*
G36*
X298450D02*
X289768D01*
X289945Y348698D01*
X290956Y346258D01*
X292564Y344162D01*
X294660Y342554D01*
X297101Y341543D01*
X298450Y341365D01*
Y350048D01*
D02*
G37*
G36*
X210947Y322580D02*
X206375D01*
Y316992D01*
X210947D01*
Y322580D01*
D02*
G37*
G36*
X196264Y355014D02*
X187276D01*
Y331802D01*
X186440Y330882D01*
X184759Y329591D01*
X183468Y327910D01*
X182657Y325951D01*
X182381Y323850D01*
X182657Y321749D01*
X183468Y319790D01*
X184759Y318109D01*
X186440Y316818D01*
X188398Y316007D01*
X190500Y315730D01*
X192602Y316007D01*
X194560Y316818D01*
X196241Y318109D01*
X197532Y319790D01*
X197993Y320904D01*
X199263Y320651D01*
Y316992D01*
X203835D01*
Y323850D01*
X205105D01*
Y325120D01*
X210947D01*
Y330655D01*
X210947Y330655D01*
Y330708D01*
X209804Y331015D01*
X209804Y331978D01*
Y342138D01*
X204470D01*
X199136D01*
Y331925D01*
X199136Y330962D01*
X199263Y329745D01*
Y327049D01*
X197993Y326796D01*
X197532Y327910D01*
X196241Y329591D01*
X195015Y330532D01*
X195446Y331802D01*
X196264D01*
Y355014D01*
D02*
G37*
G36*
X234364D02*
X225376D01*
Y331802D01*
X234364D01*
Y338357D01*
X235215Y338707D01*
X235634Y338716D01*
X236829Y337159D01*
X238510Y335868D01*
X240469Y335057D01*
X242570Y334781D01*
X244671Y335057D01*
X246630Y335868D01*
X248311Y337159D01*
X249602Y338840D01*
X250413Y340798D01*
X250690Y342900D01*
X250413Y345001D01*
X249602Y346960D01*
X248311Y348641D01*
X246630Y349932D01*
X244671Y350743D01*
X242570Y351020D01*
X240469Y350743D01*
X238510Y349932D01*
X236829Y348641D01*
X235634Y347084D01*
X235215Y347093D01*
X234364Y347443D01*
Y355014D01*
D02*
G37*
G36*
X70358Y343794D02*
X63500D01*
Y335037D01*
X70358D01*
Y343794D01*
D02*
G37*
G36*
X60960D02*
X54102D01*
Y335037D01*
X60960D01*
Y343794D01*
D02*
G37*
G36*
X344678Y257937D02*
X339090D01*
Y253365D01*
X344678D01*
Y257937D01*
D02*
G37*
G36*
X336550D02*
X330962D01*
Y253365D01*
X336550D01*
Y257937D01*
D02*
G37*
G36*
X250825Y296418D02*
X246253D01*
Y290830D01*
X250825D01*
Y296418D01*
D02*
G37*
G36*
Y288290D02*
X246253D01*
Y282702D01*
X250825D01*
Y288290D01*
D02*
G37*
G36*
X267970Y298360D02*
Y290830D01*
X275499D01*
X275361Y291881D01*
X274465Y294043D01*
X273040Y295900D01*
X271183Y297325D01*
X269021Y298221D01*
X267970Y298360D01*
D02*
G37*
%LPD*%
D10*
X208656Y133350D02*
D03*
X230764D02*
D03*
X224414Y306070D02*
D03*
X202306D02*
D03*
D11*
X227965Y113030D02*
D03*
X213995D02*
D03*
X26035Y344170D02*
D03*
X12065D02*
D03*
X314325Y168910D02*
D03*
X300355D02*
D03*
X238125Y289560D02*
D03*
X252095D02*
D03*
X205105Y323850D02*
D03*
X219075D02*
D03*
X186055Y223520D02*
D03*
X200025D02*
D03*
D12*
X62230Y345064D02*
D03*
Y322956D02*
D03*
D13*
X38100Y348615D02*
D03*
Y334645D02*
D03*
X116840Y207645D02*
D03*
Y221615D02*
D03*
Y252095D02*
D03*
Y238125D02*
D03*
X245110Y376555D02*
D03*
Y390525D02*
D03*
X337820Y252095D02*
D03*
Y266065D02*
D03*
D14*
X139827Y312420D02*
D03*
X154813D02*
D03*
D15*
X155098Y298450D02*
D03*
X139542D02*
D03*
X204312Y410210D02*
D03*
X219868D02*
D03*
D16*
X249360Y270764D02*
D03*
X254360D02*
D03*
X259360D02*
D03*
X264360D02*
D03*
X269360D02*
D03*
X274360D02*
D03*
X279360D02*
D03*
X284360D02*
D03*
X289360D02*
D03*
X294360D02*
D03*
X299360D02*
D03*
X304360D02*
D03*
Y186436D02*
D03*
X299360D02*
D03*
X294360D02*
D03*
X289360D02*
D03*
X284360D02*
D03*
X279360D02*
D03*
X274360D02*
D03*
X269360D02*
D03*
X264360D02*
D03*
X259360D02*
D03*
X254360D02*
D03*
X249360D02*
D03*
D17*
X319024Y256100D02*
D03*
Y251100D02*
D03*
Y246100D02*
D03*
Y241100D02*
D03*
Y236100D02*
D03*
Y231100D02*
D03*
Y226100D02*
D03*
Y221100D02*
D03*
Y216100D02*
D03*
Y211100D02*
D03*
Y206100D02*
D03*
Y201100D02*
D03*
X234696D02*
D03*
Y206100D02*
D03*
Y211100D02*
D03*
Y216100D02*
D03*
Y221100D02*
D03*
Y226100D02*
D03*
Y231100D02*
D03*
Y236100D02*
D03*
Y241100D02*
D03*
Y246100D02*
D03*
Y251100D02*
D03*
Y256100D02*
D03*
D18*
X187960Y261462D02*
D03*
Y277018D02*
D03*
D19*
X191770Y343408D02*
D03*
X204470D02*
D03*
X217170D02*
D03*
X229870D02*
D03*
Y390652D02*
D03*
X217170D02*
D03*
X204470D02*
D03*
X191770D02*
D03*
D20*
X199263Y443230D02*
D03*
X240157D02*
D03*
D21*
X15600Y366903D02*
D03*
X60600D02*
D03*
D22*
X38100Y427990D02*
D03*
D23*
X119380Y344551D02*
D03*
Y331089D02*
D03*
D24*
X12065Y344170D02*
X12700Y343535D01*
X6350Y294640D02*
X12700Y300990D01*
X6350Y45720D02*
Y294640D01*
Y45720D02*
X10160Y41910D01*
X20320D01*
X38100Y298450D02*
Y325120D01*
X14346Y365649D02*
X15600Y366903D01*
X60066Y342900D02*
X62230Y345064D01*
Y322956D02*
X71496D01*
X69977Y366903D02*
X76200Y360680D01*
X60600Y366903D02*
X69977D01*
X58679Y348615D02*
X62230Y345064D01*
X38100Y348615D02*
X58679D01*
X38100Y325120D02*
Y334645D01*
Y325120D02*
X40264Y322956D01*
X62230D01*
X76581Y344551D02*
X119380D01*
X76200Y344170D02*
X76581Y344551D01*
X76200Y327660D02*
Y344170D01*
Y360680D01*
X186690Y278288D02*
X187960Y277018D01*
X186690Y278288D02*
Y281940D01*
X71496Y322956D02*
X73848Y325308D01*
X76200Y327660D01*
X180340Y288290D02*
X186690Y281940D01*
X179630Y287900D02*
X180020Y288290D01*
X180340D01*
X111256Y287900D02*
X179630D01*
X73848Y325308D02*
X111256Y287900D01*
X154813Y312420D02*
Y335407D01*
X83820Y406400D02*
X154813Y335407D01*
X38100Y427990D02*
X78740D01*
X83820Y422910D01*
Y406400D02*
Y422910D01*
X12065Y344170D02*
Y351155D01*
X15600Y354690D01*
Y366903D01*
X38100Y348615D02*
Y355600D01*
Y406400D01*
X240157Y443230D02*
X255270D01*
X273050Y425450D01*
Y386080D02*
Y425450D01*
Y386080D02*
X282811Y376319D01*
X299720D01*
Y401320D02*
X304800D01*
X317500Y414020D01*
Y431800D01*
X287020Y462280D02*
X317500Y431800D01*
X203200Y462280D02*
X287020D01*
X199263Y458343D02*
X203200Y462280D01*
X199263Y443230D02*
Y458343D01*
X12700Y300990D02*
Y343535D01*
D25*
X20320Y41910D02*
X54610D01*
X69850Y26670D01*
X86360D01*
D26*
X227965Y100965D02*
Y113030D01*
X218440Y91440D02*
X227965Y100965D01*
X158750Y91440D02*
X218440D01*
X111760Y44450D02*
X158750Y91440D01*
X111760Y26670D02*
Y44450D01*
X374650Y161290D02*
X397510D01*
X339090D02*
X374650D01*
X314325Y168910D02*
X331470D01*
X339090Y161290D01*
X397510D02*
X403860Y154940D01*
Y110490D02*
Y154940D01*
X391160Y97790D02*
X403860Y110490D01*
X353060Y173990D02*
Y186690D01*
X333650Y206100D02*
X353060Y186690D01*
X338810Y211100D02*
X363220Y186690D01*
X367030D01*
X316230Y138430D02*
X331470Y123190D01*
X391160D01*
X168870Y231100D02*
X204430D01*
X152400Y214630D02*
X168870Y231100D01*
X152400Y205232D02*
Y214630D01*
X300355Y148590D02*
Y168910D01*
Y133985D02*
Y148590D01*
X391160D01*
X299720Y133350D02*
X300355Y133985D01*
X332740Y186690D02*
Y196850D01*
X328490Y201100D02*
X332740Y196850D01*
X319024Y201100D02*
X328490D01*
X319024Y206100D02*
X333650D01*
X319024Y211100D02*
X338810D01*
X314960Y26670D02*
Y76200D01*
X284360Y106800D02*
X314960Y76200D01*
X284360Y106800D02*
Y186436D01*
X279360Y91480D02*
X288290Y82550D01*
X279360Y91480D02*
Y186436D01*
X289560Y26670D02*
Y58420D01*
X274360Y73620D02*
X289560Y58420D01*
X274360Y73620D02*
Y186436D01*
X261620Y90170D02*
X269360Y97910D01*
Y186436D01*
X238760Y26670D02*
Y86360D01*
X264360Y111960D01*
Y186436D01*
X137160Y26670D02*
Y52070D01*
X165100Y80010D01*
X219710D01*
X259360Y119660D01*
Y186436D01*
X230246Y154046D02*
X230764D01*
X227965Y130551D02*
X230764Y133350D01*
X227965Y113030D02*
Y130551D01*
X205740Y130434D02*
X207386Y132080D01*
X205740Y115570D02*
Y130434D01*
Y115570D02*
X208280Y113030D01*
X213995D01*
X191770Y132080D02*
X207386D01*
X208656Y133350D01*
X20320Y168910D02*
X49530D01*
X74930Y143510D01*
X186690D01*
X213360Y170180D01*
X248920D01*
X254360Y175620D01*
Y186436D01*
X20320Y194310D02*
X43180D01*
X85090Y152400D01*
X186690D01*
X220726Y186436D01*
X249360D01*
X20320Y219710D02*
X39370D01*
X100330Y158750D01*
X184150D01*
X226500Y201100D01*
X234696D01*
X20320Y245110D02*
X34290D01*
X114300Y165100D01*
X184150D01*
X225150Y206100D01*
X234696D01*
X314325Y168910D02*
Y180975D01*
X308864Y186436D02*
X314325Y180975D01*
X304360Y186436D02*
X308864D01*
X299360Y169905D02*
X300355Y168910D01*
X299360Y169905D02*
Y186436D01*
X246063Y308293D02*
X254000Y316230D01*
X238125Y300355D02*
X246063Y308293D01*
Y307658D02*
Y308293D01*
Y307658D02*
X250190Y303530D01*
X331470D01*
X391160Y224790D02*
Y267970D01*
X365760Y293370D02*
X391160Y267970D01*
X307340Y293370D02*
X365760D01*
X294360Y280390D02*
X307340Y293370D01*
X294360Y270764D02*
Y280390D01*
X391160Y173990D02*
X403860Y186690D01*
Y207010D01*
X398780Y212090D02*
X403860Y207010D01*
X375920Y212090D02*
X398780D01*
X373380Y214630D02*
X375920Y212090D01*
X373380Y214630D02*
Y234950D01*
X370840Y237490D02*
X373380Y234950D01*
X370840Y237490D02*
Y279400D01*
X363220Y287020D02*
X370840Y279400D01*
X339090Y287020D02*
X363220D01*
X322834Y270764D02*
X339090Y287020D01*
X304360Y270764D02*
X322834D01*
X347345Y266065D02*
X358140Y276860D01*
X337820Y266065D02*
X347345D01*
X214670Y226100D02*
X234696D01*
X152400Y254000D02*
X170300Y236100D01*
X116840Y238125D02*
X136525D01*
X152400Y254000D01*
X116840Y221615D02*
X136017D01*
X152400Y205232D01*
X108585Y252095D02*
X116840D01*
X106680Y250190D02*
X108585Y252095D01*
X106680Y210820D02*
Y250190D01*
Y210820D02*
X109220Y208280D01*
X116205D01*
X116840Y207645D01*
Y189230D02*
Y207645D01*
Y189230D02*
X134620Y171450D01*
X163830D01*
X179070Y186690D01*
Y206375D01*
X188913Y216217D01*
X187325Y217805D02*
X188913Y216217D01*
X201295Y223520D02*
X213360D01*
X233793Y237003D02*
X234696Y236100D01*
X220980Y238760D02*
X222737Y237003D01*
X233793D01*
X170300Y236100D02*
X203080D01*
X205740Y238760D01*
X220980D01*
X204430Y231100D02*
X207010Y233680D01*
X219710D01*
X222290Y231100D01*
X234696D01*
X198120Y205740D02*
X217170D01*
X224630Y213200D01*
Y213615D01*
X227115Y216100D01*
X234696D01*
X224910Y221100D02*
X234696D01*
X188913Y216217D02*
X191770Y213360D01*
X217170D02*
X224910Y221100D01*
X191770Y213360D02*
X192941D01*
X193101Y213520D01*
X200599D01*
X200759Y213360D01*
X217170D01*
X195580Y203200D02*
X198120Y205740D01*
X234696Y221100D02*
X253880D01*
Y270284D02*
X254360Y270764D01*
X269360Y257690D02*
Y270764D01*
X299360Y186436D02*
Y250740D01*
X299720Y251100D01*
X275950D02*
X299720D01*
X319024D01*
X263370Y245110D02*
X272655Y254395D01*
X253880Y245110D02*
X263370D01*
X269360Y257690D02*
X272655Y254395D01*
X275950Y251100D01*
X253880Y221100D02*
Y245110D01*
Y270284D01*
X226260Y241100D02*
X234696D01*
X198120Y248920D02*
X199390Y247650D01*
X254360Y270764D02*
Y281580D01*
X252095Y283845D02*
X254360Y281580D01*
X252095Y283845D02*
Y289560D01*
X238125Y276225D02*
Y289560D01*
X243586Y270764D02*
X249360D01*
X234696Y256100D02*
Y267335D01*
X240856Y273494D01*
X238125Y276225D02*
X240856Y273494D01*
X243586Y270764D01*
X319024Y256100D02*
Y260604D01*
X323215Y264795D01*
X319024Y251100D02*
X337545D01*
X337820Y250825D01*
X224414Y306070D02*
Y312796D01*
X219075Y318135D02*
X224414Y312796D01*
X219075Y318135D02*
Y323850D01*
Y330835D01*
X217170Y332740D02*
X219075Y330835D01*
X217170Y332740D02*
Y343408D01*
X205105Y356235D02*
X215900Y367030D01*
X242570D01*
X245110Y369570D01*
X202306Y306070D02*
Y313314D01*
X205740Y316749D01*
Y323215D01*
X205105Y323850D02*
X205740Y323215D01*
X217170Y343408D02*
Y355600D01*
X220980Y359410D01*
X245110Y369570D02*
Y376555D01*
X286222Y351318D02*
X299720D01*
X260985Y376555D02*
X286222Y351318D01*
X245110Y376555D02*
X260985D01*
X220980Y359410D02*
X251460D01*
X256540Y364490D01*
X229997Y390525D02*
X245110D01*
X229870Y390652D02*
X229997Y390525D01*
X202306Y294264D02*
Y306070D01*
Y294264D02*
X207010Y289560D01*
X212090D01*
X187960Y261462D02*
X195738D01*
X198120Y259080D01*
Y248920D02*
Y259080D01*
X187960Y277018D02*
X218598D01*
X231140Y289560D01*
X238125D01*
X119380Y314960D02*
Y331089D01*
X185420Y306070D02*
X202306D01*
X181610Y309880D02*
X185420Y306070D01*
X173990Y297180D02*
Y299720D01*
X139542Y298450D02*
Y312135D01*
X139827Y312420D01*
X26035Y344170D02*
Y352425D01*
X29210Y355600D01*
X38100D01*
X219868Y410210D02*
Y416402D01*
X228916Y425450D01*
X236220D01*
X204312Y410210D02*
Y419258D01*
X199390Y424180D02*
X204312Y419258D01*
X199390Y424180D02*
Y443103D01*
X199263Y443230D02*
X199390Y443103D01*
X204470Y390652D02*
Y410052D01*
X204312Y410210D02*
X204470Y410052D01*
X217170Y390652D02*
Y401320D01*
X219710Y403860D01*
Y410052D01*
X219868Y410210D01*
X236220Y425450D02*
X240157Y429387D01*
Y443230D01*
X319024Y231100D02*
X331510D01*
X191770Y368300D02*
Y390652D01*
X245110Y390525D02*
X259715D01*
X284480Y365760D01*
X307340D01*
X316230Y356870D01*
Y345440D02*
Y356870D01*
X287020Y316230D02*
X316230Y345440D01*
X254000Y316230D02*
X287020D01*
X238125Y289560D02*
Y300355D01*
X252095Y289560D02*
X266700D01*
X215900Y251460D02*
X226260Y241100D01*
X215900Y251460D02*
Y255270D01*
X358140Y204470D02*
X360045D01*
X331510Y231100D02*
X358140Y204470D01*
X155098Y297180D02*
X173990D01*
X212725Y224155D02*
X214670Y226100D01*
X323215Y264795D02*
X337820D01*
X187325Y217805D02*
Y223520D01*
X154813Y309880D02*
X181610D01*
X205105Y323850D02*
Y356235D01*
X230764Y133350D02*
Y154046D01*
D27*
X319024Y246077D02*
X343263D01*
X351735Y246556D02*
X368476Y229815D01*
X379730Y199390D02*
X391160D01*
X319024Y246077D02*
Y246100D01*
Y241100D02*
X341830D01*
X345440Y237490D01*
X343263Y246077D02*
X343742Y246556D01*
X351735D01*
X345440Y237490D02*
X347980D01*
X319024Y236100D02*
X334130D01*
X230378Y342900D02*
X242570D01*
X229870Y343408D02*
X230378Y342900D01*
X190500Y342138D02*
X191770Y343408D01*
X190500Y323850D02*
Y342138D01*
X368476Y210644D02*
Y229815D01*
Y210644D02*
X379730Y199390D01*
X347980Y222250D02*
X356870D01*
X334130Y236100D02*
X347980Y222250D01*
D28*
X391160Y224790D02*
D03*
X20320Y245110D02*
D03*
D29*
X391160Y199390D02*
D03*
Y173990D02*
D03*
Y148590D02*
D03*
Y123190D02*
D03*
Y97790D02*
D03*
X20320Y16510D02*
D03*
Y41910D02*
D03*
Y67310D02*
D03*
Y92710D02*
D03*
Y219710D02*
D03*
Y194310D02*
D03*
Y168910D02*
D03*
Y143510D02*
D03*
Y118110D02*
D03*
X314960Y26670D02*
D03*
X289560D02*
D03*
X264160D02*
D03*
X238760D02*
D03*
X213360D02*
D03*
X187960D02*
D03*
X162560D02*
D03*
X137160D02*
D03*
X111760D02*
D03*
D30*
X152400Y205232D02*
D03*
D31*
Y254000D02*
D03*
D32*
X299720Y426321D02*
D03*
Y401320D02*
D03*
Y376319D02*
D03*
Y351318D02*
D03*
X370840Y425922D02*
D03*
Y400921D02*
D03*
Y375920D02*
D03*
Y350919D02*
D03*
D33*
X86360Y26670D02*
D03*
D34*
X38100Y298450D02*
D03*
X374650Y161290D02*
D03*
X353060Y173990D02*
D03*
X367030Y186690D02*
D03*
X316230Y138430D02*
D03*
X299720Y133350D02*
D03*
X332740Y186690D02*
D03*
X288290Y82550D02*
D03*
X261620Y90170D02*
D03*
X230246Y154046D02*
D03*
X191770Y132080D02*
D03*
X331470Y303530D02*
D03*
X358140Y276860D02*
D03*
X213360Y223520D02*
D03*
X195580Y203200D02*
D03*
X199390Y247650D02*
D03*
X347980Y237490D02*
D03*
X242570Y342900D02*
D03*
X256540Y364490D02*
D03*
X212090Y289560D02*
D03*
X119380Y314960D02*
D03*
X17780Y327660D02*
D03*
X173990Y299720D02*
D03*
X191770Y368300D02*
D03*
X266700Y289560D02*
D03*
X190500Y323850D02*
D03*
X215900Y255270D02*
D03*
X360045Y204470D02*
D03*
X356870Y222250D02*
D03*
M02*
