G04 Layer_Color=65535*
%FSLAX44Y44*%
%MOMM*%
G71*
G01*
G75*
%ADD26C,0.2000*%
%ADD35C,0.2540*%
%ADD36C,0.1524*%
%ADD37C,0.5080*%
%ADD38C,0.1000*%
%ADD39C,0.3500*%
D26*
X378460Y85090D02*
Y237490D01*
Y85090D02*
X403860D01*
Y237290D01*
X378460Y237490D02*
X403860D01*
X7620Y3810D02*
Y257810D01*
Y3810D02*
X33020D01*
Y257610D01*
X7620Y257810D02*
X33020D01*
X73660Y13970D02*
Y39370D01*
X73860D02*
X327660D01*
Y13970D02*
Y39370D01*
X73660Y13970D02*
X327660D01*
D35*
X160126Y425000D02*
G03*
X160126Y425000I-35127J0D01*
G01*
X404697Y40640D02*
G03*
X404697Y40640I-35127J0D01*
G01*
D36*
X152400Y284734D02*
G03*
X129413Y261747I0J-22987D01*
G01*
Y197485D02*
G03*
X175387Y197485I22987J0D01*
G01*
Y261747D02*
G03*
X152400Y284734I-22987J0D01*
G01*
X194056Y140970D02*
X201676D01*
X197866Y137160D02*
Y144780D01*
X201422Y123063D02*
X237998D01*
X201422Y143637D02*
X237998D01*
X220110Y119126D02*
X221850D01*
X220110Y106934D02*
X221850D01*
X231394Y298450D02*
X239014D01*
X235204Y294640D02*
Y302260D01*
X195072Y316357D02*
X231648D01*
X195072Y295783D02*
X231648D01*
X18180Y350266D02*
X19921D01*
X18180Y338074D02*
X19921D01*
X51943Y315722D02*
Y352298D01*
X72517Y315722D02*
Y352298D01*
X50800Y312166D02*
X58420D01*
X54610Y308356D02*
Y315976D01*
X32004Y340760D02*
Y342500D01*
X44196Y340760D02*
Y342500D01*
X306469Y175006D02*
X308211D01*
X306469Y162814D02*
X308211D01*
X122936Y213759D02*
Y215501D01*
X110744Y213759D02*
Y215501D01*
Y244240D02*
Y245980D01*
X122936Y244240D02*
Y245980D01*
X165100Y306070D02*
Y318770D01*
Y313690D02*
X172720Y312420D01*
X165100Y314960D02*
X172720Y312420D01*
X165100Y316230D02*
X172720Y312420D01*
X165100Y317500D02*
X172720Y312420D01*
X165100Y318770D02*
X172720Y312420D01*
X165100Y311150D02*
X172720Y312420D01*
X165100Y309880D02*
X172720Y312420D01*
X165100Y308610D02*
X172720Y312420D01*
X165100Y307340D02*
X172720Y312420D01*
X165100Y306070D02*
X172720Y312420D01*
Y306070D02*
Y318770D01*
X162560Y312420D02*
X175260D01*
X146396Y303720D02*
X148244D01*
X146396Y293180D02*
X148244D01*
X314198Y260824D02*
Y265938D01*
X309084Y191262D02*
X314198D01*
X239522D02*
Y196376D01*
Y260824D02*
Y265938D01*
X309084D02*
X314198D01*
Y191262D02*
Y196376D01*
X239522Y191262D02*
X244636D01*
X239522Y265938D02*
X244636D01*
X193230Y268316D02*
Y270165D01*
X182690Y268316D02*
Y270165D01*
X251206Y382669D02*
Y384411D01*
X239014Y382669D02*
Y384411D01*
X236601Y346202D02*
Y387858D01*
X185039Y346202D02*
Y387858D01*
X211166Y404940D02*
X213015D01*
X211166Y415480D02*
X213015D01*
X243967Y457860D02*
Y464312D01*
Y422148D02*
Y428600D01*
X195453Y422148D02*
X243967D01*
X195453Y457860D02*
Y464312D01*
X243967D01*
X215646Y436880D02*
Y449580D01*
Y444500D02*
X223266Y443230D01*
X215646Y445770D02*
X223266Y443230D01*
X215646Y447040D02*
X223266Y443230D01*
X215646Y448310D02*
X223266Y443230D01*
X215646Y449580D02*
X223266Y443230D01*
X215646Y441960D02*
X223266Y443230D01*
X215646Y440690D02*
X223266Y443230D01*
X215646Y439420D02*
X223266Y443230D01*
X215646Y438150D02*
X223266Y443230D01*
X215646Y436880D02*
X223266Y443230D01*
Y436880D02*
Y449580D01*
X213106Y443230D02*
X225806D01*
X195453Y422148D02*
Y428600D01*
X129413Y197485D02*
Y261747D01*
X175387Y197485D02*
Y261747D01*
X244240Y283464D02*
X245980D01*
X244240Y295656D02*
X245980D01*
X211220Y317754D02*
X212960D01*
X211220Y329946D02*
X212960D01*
X275046Y325573D02*
Y452065D01*
Y325573D02*
X334990D01*
Y452065D01*
X275046D02*
X334990D01*
X346166Y325175D02*
Y451667D01*
Y325175D02*
X406110D01*
Y451667D01*
X346166D02*
X406110D01*
X11155Y378968D02*
Y386055D01*
X56155Y378968D02*
Y386055D01*
X20045Y378968D02*
Y386055D01*
X65045Y378968D02*
Y386055D01*
X343916Y258209D02*
Y259951D01*
X331724Y258209D02*
Y259951D01*
X192169Y217424D02*
X193911D01*
X192169Y229616D02*
X193911D01*
D37*
X303530Y458415D02*
G03*
X303530Y458415I-3810J0D01*
G01*
X374650Y458017D02*
G03*
X374650Y458017I-3810J0D01*
G01*
D38*
X185735Y313131D02*
X184068Y314797D01*
X180736D01*
X179070Y313131D01*
Y306466D01*
X180736Y304800D01*
X184068D01*
X185735Y306466D01*
X189067Y304800D02*
X192399D01*
X190733D01*
Y314797D01*
X189067Y313131D01*
X10474Y316941D02*
X8808Y318607D01*
X5476D01*
X3810Y316941D01*
Y310276D01*
X5476Y308610D01*
X8808D01*
X10474Y310276D01*
X20471Y308610D02*
X13807D01*
X20471Y315275D01*
Y316941D01*
X18805Y318607D01*
X15473D01*
X13807Y316941D01*
X35875Y323291D02*
X34208Y324957D01*
X30876D01*
X29210Y323291D01*
Y316626D01*
X30876Y314960D01*
X34208D01*
X35875Y316626D01*
X39207Y323291D02*
X40873Y324957D01*
X44205D01*
X45871Y323291D01*
Y321624D01*
X44205Y319958D01*
X42539D01*
X44205D01*
X45871Y318292D01*
Y316626D01*
X44205Y314960D01*
X40873D01*
X39207Y316626D01*
X75244Y309321D02*
X73578Y310987D01*
X70246D01*
X68580Y309321D01*
Y302656D01*
X70246Y300990D01*
X73578D01*
X75244Y302656D01*
X83575Y300990D02*
Y310987D01*
X78577Y305988D01*
X85241D01*
X254314Y305511D02*
X252648Y307177D01*
X249316D01*
X247650Y305511D01*
Y298846D01*
X249316Y297180D01*
X252648D01*
X254314Y298846D01*
X264311Y307177D02*
X257647D01*
Y302178D01*
X260979Y303845D01*
X262645D01*
X264311Y302178D01*
Y298846D01*
X262645Y297180D01*
X259313D01*
X257647Y298846D01*
X99619Y242885D02*
X97953Y241218D01*
Y237886D01*
X99619Y236220D01*
X106284D01*
X107950Y237886D01*
Y241218D01*
X106284Y242885D01*
X97953Y252881D02*
X99619Y249549D01*
X102952Y246217D01*
X106284D01*
X107950Y247883D01*
Y251215D01*
X106284Y252881D01*
X104618D01*
X102952Y251215D01*
Y246217D01*
X97079Y213675D02*
X95413Y212008D01*
Y208676D01*
X97079Y207010D01*
X103744D01*
X105410Y208676D01*
Y212008D01*
X103744Y213675D01*
X95413Y217007D02*
Y223671D01*
X97079D01*
X103744Y217007D01*
X105410D01*
X232724Y328371D02*
X231058Y330037D01*
X227726D01*
X226060Y328371D01*
Y321706D01*
X227726Y320040D01*
X231058D01*
X232724Y321706D01*
X236057Y328371D02*
X237723Y330037D01*
X241055D01*
X242721Y328371D01*
Y326704D01*
X241055Y325038D01*
X242721Y323372D01*
Y321706D01*
X241055Y320040D01*
X237723D01*
X236057Y321706D01*
Y323372D01*
X237723Y325038D01*
X236057Y326704D01*
Y328371D01*
X237723Y325038D02*
X241055D01*
X183735Y239512D02*
X182569Y240678D01*
X180236D01*
X179070Y239512D01*
Y234846D01*
X180236Y233680D01*
X182569D01*
X183735Y234846D01*
X186068D02*
X187234Y233680D01*
X189567D01*
X190733Y234846D01*
Y239512D01*
X189567Y240678D01*
X187234D01*
X186068Y239512D01*
Y238345D01*
X187234Y237179D01*
X190733D01*
X329244Y282651D02*
X327578Y284317D01*
X324246D01*
X322580Y282651D01*
Y275986D01*
X324246Y274320D01*
X327578D01*
X329244Y275986D01*
X332577Y274320D02*
X335909D01*
X334243D01*
Y284317D01*
X332577Y282651D01*
X340907D02*
X342574Y284317D01*
X345906D01*
X347572Y282651D01*
Y275986D01*
X345906Y274320D01*
X342574D01*
X340907Y275986D01*
Y282651D01*
X258665Y396357D02*
X257499Y397523D01*
X255166D01*
X254000Y396357D01*
Y391691D01*
X255166Y390525D01*
X257499D01*
X258665Y391691D01*
X260998Y390525D02*
X263330D01*
X262164D01*
Y397523D01*
X260998Y396357D01*
X266829Y390525D02*
X269162D01*
X267995D01*
Y397523D01*
X266829Y396357D01*
X218755Y99771D02*
X217088Y101437D01*
X213756D01*
X212090Y99771D01*
Y93106D01*
X213756Y91440D01*
X217088D01*
X218755Y93106D01*
X222087Y91440D02*
X225419D01*
X223753D01*
Y101437D01*
X222087Y99771D01*
X237082Y91440D02*
X230417D01*
X237082Y98104D01*
Y99771D01*
X235416Y101437D01*
X232084D01*
X230417Y99771D01*
X198435Y158191D02*
X196768Y159857D01*
X193436D01*
X191770Y158191D01*
Y151526D01*
X193436Y149860D01*
X196768D01*
X198435Y151526D01*
X201767Y149860D02*
X205099D01*
X203433D01*
Y159857D01*
X201767Y158191D01*
X210097D02*
X211764Y159857D01*
X215096D01*
X216762Y158191D01*
Y156524D01*
X215096Y154858D01*
X213430D01*
X215096D01*
X216762Y153192D01*
Y151526D01*
X215096Y149860D01*
X211764D01*
X210097Y151526D01*
X300035Y156921D02*
X298368Y158587D01*
X295036D01*
X293370Y156921D01*
Y150256D01*
X295036Y148590D01*
X298368D01*
X300035Y150256D01*
X303367Y148590D02*
X306699D01*
X305033D01*
Y158587D01*
X303367Y156921D01*
X316696Y148590D02*
Y158587D01*
X311697Y153588D01*
X318362D01*
X130810Y341467D02*
Y331470D01*
X137474D01*
X140807D02*
X144139D01*
X142473D01*
Y341467D01*
X140807Y339801D01*
X132080Y327038D02*
Y320040D01*
X136745D01*
X143743Y327038D02*
X139078D01*
Y320040D01*
X143743D01*
X139078Y323539D02*
X141410D01*
X146075Y327038D02*
Y320040D01*
X149574D01*
X150741Y321206D01*
Y325872D01*
X149574Y327038D01*
X146075D01*
X153073Y320040D02*
X155406D01*
X154240D01*
Y327038D01*
X153073Y325872D01*
X119380Y290830D02*
Y300827D01*
X124378D01*
X126045Y299161D01*
Y295828D01*
X124378Y294162D01*
X119380D01*
X122712D02*
X126045Y290830D01*
X129377D02*
X132709D01*
X131043D01*
Y300827D01*
X129377Y299161D01*
X229870Y406400D02*
Y416397D01*
X234868D01*
X236535Y414731D01*
Y411398D01*
X234868Y409732D01*
X229870D01*
X233202D02*
X236535Y406400D01*
X246531D02*
X239867D01*
X246531Y413064D01*
Y414731D01*
X244865Y416397D01*
X241533D01*
X239867Y414731D01*
X207010Y261620D02*
X197013D01*
Y266618D01*
X198679Y268284D01*
X202012D01*
X203678Y266618D01*
Y261620D01*
Y264952D02*
X207010Y268284D01*
X198679Y271617D02*
X197013Y273283D01*
Y276615D01*
X198679Y278281D01*
X200345D01*
X202012Y276615D01*
Y274949D01*
Y276615D01*
X203678Y278281D01*
X205344D01*
X207010Y276615D01*
Y273283D01*
X205344Y271617D01*
X74930Y460847D02*
Y452516D01*
X76596Y450850D01*
X79928D01*
X81594Y452516D01*
Y460847D01*
X84927Y450850D02*
X88259D01*
X86593D01*
Y460847D01*
X84927Y459181D01*
X297180Y295747D02*
Y287416D01*
X298846Y285750D01*
X302178D01*
X303845Y287416D01*
Y295747D01*
X313841Y285750D02*
X307177D01*
X313841Y292414D01*
Y294081D01*
X312175Y295747D01*
X308843D01*
X307177Y294081D01*
X102870Y279237D02*
Y270906D01*
X104536Y269240D01*
X107868D01*
X109535Y270906D01*
Y279237D01*
X112867Y277571D02*
X114533Y279237D01*
X117865D01*
X119531Y277571D01*
Y275905D01*
X117865Y274238D01*
X116199D01*
X117865D01*
X119531Y272572D01*
Y270906D01*
X117865Y269240D01*
X114533D01*
X112867Y270906D01*
X165100Y377027D02*
Y368696D01*
X166766Y367030D01*
X170098D01*
X171765Y368696D01*
Y377027D01*
X180095Y367030D02*
Y377027D01*
X175097Y372028D01*
X181761D01*
X161290Y463387D02*
Y456722D01*
X164622Y453390D01*
X167955Y456722D01*
Y463387D01*
X171287D02*
Y453390D01*
X176285D01*
X177951Y455056D01*
Y461721D01*
X176285Y463387D01*
X171287D01*
X181284Y453390D02*
X184616D01*
X182950D01*
Y463387D01*
X181284Y461721D01*
X367345Y319481D02*
X365678Y321147D01*
X362346D01*
X360680Y319481D01*
Y312816D01*
X362346Y311150D01*
X365678D01*
X367345Y312816D01*
X370677Y311150D02*
Y317815D01*
X374009Y321147D01*
X377341Y317815D01*
Y311150D01*
Y316148D01*
X370677D01*
X380674Y311150D02*
Y321147D01*
X387338Y311150D01*
Y321147D01*
X397335Y311150D02*
X390670D01*
X397335Y317815D01*
Y319481D01*
X395669Y321147D01*
X392337D01*
X390670Y319481D01*
X296224D02*
X294558Y321147D01*
X291226D01*
X289560Y319481D01*
Y312816D01*
X291226Y311150D01*
X294558D01*
X296224Y312816D01*
X299557Y311150D02*
Y317815D01*
X302889Y321147D01*
X306221Y317815D01*
Y311150D01*
Y316148D01*
X299557D01*
X309554Y311150D02*
Y321147D01*
X316218Y311150D01*
Y321147D01*
X319550Y311150D02*
X322883D01*
X321217D01*
Y321147D01*
X319550Y319481D01*
X17780Y271617D02*
X24444Y261620D01*
Y271617D02*
X17780Y261620D01*
X34441Y271617D02*
X27777D01*
Y266618D01*
X31109Y268284D01*
X32775D01*
X34441Y266618D01*
Y263286D01*
X32775Y261620D01*
X29443D01*
X27777Y263286D01*
X378460Y254599D02*
X385125Y244602D01*
Y254599D02*
X378460Y244602D01*
X388457D02*
X391789D01*
X390123D01*
Y254599D01*
X388457Y252933D01*
X88900Y55717D02*
X95564Y45720D01*
Y55717D02*
X88900Y45720D01*
X103895D02*
Y55717D01*
X98897Y50718D01*
X105561D01*
X227330Y269951D02*
X233995Y263286D01*
X227330D02*
X233995Y269951D01*
X227330Y266618D02*
X233995D01*
X230662Y263286D02*
Y269951D01*
X180899Y334010D02*
X187564Y340675D01*
Y334010D02*
X180899Y340675D01*
X184232Y334010D02*
Y340675D01*
X187564Y337342D02*
X180899D01*
D39*
X39860Y46990D02*
X59853D01*
X69850Y56987D01*
X59853Y66983D01*
X39860D01*
Y76980D02*
X59853D01*
X69850Y86977D01*
X59853Y96974D01*
X39860D01*
Y106971D02*
X69850D01*
X59853D01*
X39860Y126964D01*
X54855Y111969D01*
X69850Y126964D01*
X49857Y186945D02*
Y171950D01*
X54855Y166951D01*
X64852D01*
X69850Y171950D01*
Y186945D01*
Y201940D02*
Y211937D01*
X64852Y216935D01*
X54855D01*
X49857Y211937D01*
Y201940D01*
X54855Y196941D01*
X64852D01*
X69850Y201940D01*
X49857Y226932D02*
X69850D01*
X59853D01*
X54855Y231930D01*
X49857Y236929D01*
Y241927D01*
X79847Y256922D02*
X49857D01*
Y271917D01*
X54855Y276915D01*
X64852D01*
X69850Y271917D01*
Y256922D01*
Y286912D02*
X64852D01*
Y291911D01*
X69850D01*
Y286912D01*
M02*
