G04 Layer_Color=8421504*
%FSLAX44Y44*%
%MOMM*%
G71*
G01*
G75*
%ADD10R,1.4975X1.1176*%
%ADD11R,0.6604X0.8636*%
%ADD12R,1.1176X1.4975*%
%ADD13R,0.8636X0.6604*%
%ADD14R,0.7874X0.7874*%
%ADD15R,0.7556X0.8000*%
%ADD16R,0.2794X1.4732*%
%ADD17R,1.4732X0.2794*%
%ADD18R,0.8000X0.7556*%
%ADD19R,0.5588X1.9812*%
%ADD20R,2.2098X2.2606*%
%ADD21R,0.9398X1.7018*%
%ADD22R,6.6548X7.7216*%
%ADD23R,0.9398X0.8128*%
D10*
X208656Y133350D02*
D03*
X230764D02*
D03*
X224414Y306070D02*
D03*
X202306D02*
D03*
D11*
X227965Y113030D02*
D03*
X213995D02*
D03*
X26035Y344170D02*
D03*
X12065D02*
D03*
X314325Y168910D02*
D03*
X300355D02*
D03*
X238125Y289560D02*
D03*
X252095D02*
D03*
X205105Y323850D02*
D03*
X219075D02*
D03*
X186055Y223520D02*
D03*
X200025D02*
D03*
D12*
X62230Y345064D02*
D03*
Y322956D02*
D03*
D13*
X38100Y348615D02*
D03*
Y334645D02*
D03*
X116840Y207645D02*
D03*
Y221615D02*
D03*
Y252095D02*
D03*
Y238125D02*
D03*
X245110Y376555D02*
D03*
Y390525D02*
D03*
X337820Y252095D02*
D03*
Y266065D02*
D03*
D14*
X139827Y312420D02*
D03*
X154813D02*
D03*
D15*
X155098Y298450D02*
D03*
X139542D02*
D03*
X204312Y410210D02*
D03*
X219868D02*
D03*
D16*
X249360Y270764D02*
D03*
X254360D02*
D03*
X259360D02*
D03*
X264360D02*
D03*
X269360D02*
D03*
X274360D02*
D03*
X279360D02*
D03*
X284360D02*
D03*
X289360D02*
D03*
X294360D02*
D03*
X299360D02*
D03*
X304360D02*
D03*
Y186436D02*
D03*
X299360D02*
D03*
X294360D02*
D03*
X289360D02*
D03*
X284360D02*
D03*
X279360D02*
D03*
X274360D02*
D03*
X269360D02*
D03*
X264360D02*
D03*
X259360D02*
D03*
X254360D02*
D03*
X249360D02*
D03*
D17*
X319024Y256100D02*
D03*
Y251100D02*
D03*
Y246100D02*
D03*
Y241100D02*
D03*
Y236100D02*
D03*
Y231100D02*
D03*
Y226100D02*
D03*
Y221100D02*
D03*
Y216100D02*
D03*
Y211100D02*
D03*
Y206100D02*
D03*
Y201100D02*
D03*
X234696D02*
D03*
Y206100D02*
D03*
Y211100D02*
D03*
Y216100D02*
D03*
Y221100D02*
D03*
Y226100D02*
D03*
Y231100D02*
D03*
Y236100D02*
D03*
Y241100D02*
D03*
Y246100D02*
D03*
Y251100D02*
D03*
Y256100D02*
D03*
D18*
X187960Y261462D02*
D03*
Y277018D02*
D03*
D19*
X191770Y343408D02*
D03*
X204470D02*
D03*
X217170D02*
D03*
X229870D02*
D03*
Y390652D02*
D03*
X217170D02*
D03*
X204470D02*
D03*
X191770D02*
D03*
D20*
X199263Y443230D02*
D03*
X240157D02*
D03*
D21*
X15600Y366903D02*
D03*
X60600D02*
D03*
D22*
X38100Y427990D02*
D03*
D23*
X119380Y344551D02*
D03*
Y331089D02*
D03*
M02*
