M48
;Layer_Color=9474304
;FILE_FORMAT=4:4
METRIC,LZ
;TYPE=PLATED
T1F00S00C0.2000
T2F00S00C0.7112
T3F00S00C0.7620
T4F00S00C0.8636
T5F00S00C0.8890
T6F00S00C0.9652
T7F00S00C0.9906
T8F00S00C1.0000
T9F00S00C1.1176
T10F00S00C3.0000
T11F00S00C4.4704
T12F00S00C4.5000
;TYPE=NON_PLATED
T13F00S00C3.2000
%
T01
X0062878Y0166116
Y0167016
X0063478Y0166566
X0064078Y0166116
Y0167016
X0081915Y0166624
Y0165724
X0082515Y0166174
X0083115Y0165724
Y0166624
X0108204Y0175895
X0109104
X0108654Y0176495
X0109104Y0177095
X0108204
T02
X0045466Y0009398
X0056515
X0054483Y0012954
X0129159Y0029972
X013081Y0034671
X0137414Y0036068
X0138049Y004572
X0140081Y0047879
X0145415Y00508
X0145669Y0053848
X0129667Y0051562
X0138303Y0021971
X0139573Y0019685
X0145288Y0027051
X0151765Y0027178
X0114681Y0035941
X0115316Y0044069
X0107696Y0042672
X0106426Y0040386
X010795Y00381
X0096266Y0045085
X0096139Y00508
X0069723Y0039624
X0059182Y0040132
X0055245Y0034544
X0053716Y0032644
X0060452Y0026162
X004318Y0023622
X0045212Y0015748
Y0045339
X004318Y0047752
X0057404Y00508
X0039116Y00381
X0032385Y0039624
X0032766Y0042037
X0030226Y0017272
X0034671Y0059309
X0039243Y0056769
X0037465Y0084582
X003302Y0087757
X0012065Y0079629
X0052324Y0077724
X0051943Y0075819
X005715Y0078486
X0055245Y0080518
X0059563Y00762
X0058293Y0073914
X0057658Y0072263
X0062484Y0078867
X0069088Y00889
X0075311Y0088011
X0077724Y0086487
X0077597Y0090424
X0075565Y0063373
X0044704Y0064389
X004318Y0066675
X0045085Y0089789
X004318Y0092202
X0080264Y0091567
X0082804Y0089916
X0084455Y00889
X0086233Y0086614
X0081661Y0086487
X0084709Y0093218
X008636Y0092075
X009271Y0085725
X0084328Y0075692
X0086106Y007239
X0083947Y0062357
X0081026Y005969
X0093091Y0056007
X0104902Y0057658
X0100584Y00635
X0097917Y0066294
X0107061Y0067945
X0109982Y0066167
X0112649Y0063119
X0109347Y0071882
X0108839Y0077089
X0112522Y0078994
X0112649Y0085344
X0110363Y0092583
X0105029Y009398
X0103886Y0076327
X0129413Y008001
X0131995Y0080941
X0127889Y0083185
X0126111Y0086106
X0139827Y0087884
X0138176Y0090678
X0138303Y0066167
X0140081Y0064389
X0145542Y0071755
X0155702Y0072517
X0129921Y007112
X0125857Y0061087
X0120269Y0101473
X0130175Y0105918
X0140081Y0108712
X0138557Y0110871
X0145542Y0116332
X0151892Y0117475
X014986Y0099441
X0145669Y0095377
X0140081Y0132334
X0127889Y0125857
X0129413Y0123952
X0110998Y0124333
X0108458Y0126746
X0108585Y0128905
X0108458Y0131064
X0103759Y0132715
X0093853Y0132588
X0091186Y0130429
X0087503Y0126746
X0082677Y0126365
X0101854Y0124079
X0100203Y0115697
X0097282Y011303
X0104648Y0106299
Y0104267
X0110363Y0102997
X0087122Y0102489
X0082804Y0102743
X0082423Y0096139
X0079629Y0095377
X0088265Y0094869
X0090297Y0095758
X0078232Y0100965
X0075438
X0073152Y010033
X0071247
X0073787Y009779
X0074041Y0109728
X0073914Y0111379
X00762Y0109347
X0078994Y0107188
X0061722Y01016
X005715Y0100838
X0054737Y0110617
X0045085Y0111887
X004318Y0114554
X0052075Y0121036
X0053086Y0123063
X0054864Y0126111
X0060198Y0124206
X0039243Y0127635
X00270002Y01301242
X0030099Y0108585
X0029083Y0104267
X0039243Y0104648
Y014859
X0028575Y0148336
X0039116Y0172339
X0012446Y0169291
X0042926Y015875
X0044958Y0155575
X0051054Y0165227
X0052705Y0166624
X00554355Y01665605
X0055118Y0168783
X0057023Y0169926
X0066688Y0167767
X0065672Y0163449
X0056515Y0143764
X0042926Y0137922
X0044958Y0135636
X0090551Y0143129
X00995299Y01460881
X0103632Y0144399
X01079881Y01460881
X0109982Y0145796
X0114046Y0146431
Y0151892
X0112395Y0155321
X0115824Y0159385
X0103251Y0157226
X0084963Y0163322
X0085217Y0167259
X0132715Y017018
X0131191Y0171831
X0138303Y0156464
X0140081Y0154178
X0145415Y0161671
X014859Y0163576
X0145923Y0141224
X0138303Y0134874
X0157607Y0144907
X0140081Y0178054
X0138303Y0180975
X0145288Y0185547
X0146558Y0188595
X0112014Y0178943
X0107569Y0180213
X0082296Y0183642
X0075692Y0173609
X0044831Y0180213
X0042418Y0182118
T03
X0141605Y00144018
Y0016891
X0134112Y00268478
Y0029337
X0141605Y00386588
Y0041148
X0134112Y0050419
Y00529082
X0041275Y0052705
Y00502158
X0049911Y00418592
Y003937
X004191Y00286512
Y0026162
X004953Y00178562
Y0015367
X0049911Y00578358
Y0060325
X0041275Y0068834
Y00713232
X0049911Y00820928
Y0084582
X0041275Y0094107
X0141605Y0085852
Y00833628
X0134112Y0074041
Y00715518
X0141605Y0062103
Y00596138
X0134112Y00955548
Y0098044
X0141605Y0104775
Y01072642
X0134112Y0116205
Y01186942
X0141605Y01280668
Y0130556
X0049403Y01297432
Y0127254
X0041402Y01192022
Y0116713
X0049911Y01067562
Y0104267
X0041275Y00965962
X0041529Y01396238
Y0142113
X0049403Y01473708
Y014986
X0041529Y0160655
Y01631442
X0049403Y0170815
Y01733042
X00716918Y0162687
X0074181
X0091059Y0161798
X00935482
X0133731Y01626108
Y01651
X0141605Y0173482
Y0152273
Y01497838
X0134112Y0142494
Y01400048
X0141605Y01759712
X0133731Y018669
Y01891792
X0112903Y01875282
Y0185039
X0096012Y01791462
Y0176657
X00850392Y0178689
X008255
X006985Y01777492
Y017526
X0041529Y01840738
Y0186563
T04
X016514Y0016971
Y0021971
X016264Y0049784
X016764
X0018288Y0051054
Y0046054
X0016209Y0019304
X0021209
X0020828Y00635
X0015828
X0018375Y0091821
X016514Y0066294
Y0061294
X016264Y0094615
X016764
X016514Y0105998
Y0110998
X0020875Y0107315
X0015875
X0018375Y0096821
Y013589
Y014089
X0020748Y0152019
X0015748
X0165013Y015121
Y015621
X016264Y0139319
X016764
X0167513Y018415
X0162513
X0062865Y0187024
Y0192024
X0018248Y0185293
Y0180293
T05
X01469898Y0032517
Y0034417
Y0036317
X0036322Y0036444
Y0034544
Y0032644
X00361442Y0076887
Y0078787
Y0080687
X01469898Y0080941
Y0079041
Y0077141
Y0122005
Y0123905
Y0125805
X00361442Y0124836
Y0122936
Y0121036
Y0165486
Y0167386
Y0169286
X01469898Y016899
Y017089
Y016709
T06
X0028829Y0006477
X0036429
T07
X0112014Y01593378
Y01618379
Y0164338
Y01668381
X0118364
Y0164338
Y01618379
Y01593378
T08
X0074305Y0006423
X0076845
X0079385
X0081925
X0084465
X0087005
X0089545
X0092085
X0094625
X0097165
X0099705
X0102245
X0104785
X0107325
X0109865
Y0031193
X0107325
X0104785
X0102245
X0099705
X0097165
X0094625
X0092085
X0089545
X0087005
X0084465
X0081925
X0115443Y0049657
Y0052197
X0117983
Y0049657
X0067183
Y0052197
X0064643
Y0049657
X0074305Y0031193
X0076845
X0079385
X0067183Y0054737
Y0057277
Y0059817
Y0062357
Y0064897
Y0067437
Y0069977
Y0072517
Y0075057
Y0077597
Y0080137
Y0082677
Y0085217
Y0087757
Y0090297
Y0092837
X0064643
Y0090297
Y0087757
Y0085217
Y0082677
Y0080137
Y0077597
Y0075057
Y0072517
Y0069977
Y0067437
Y0064897
Y0062357
Y0059817
Y0057277
Y0054737
X0115443
Y0057277
Y0059817
Y0062357
Y0064897
Y0067437
Y0069977
Y0072517
Y0075057
Y0077597
Y0080137
Y0082677
Y0085217
Y0087757
Y0090297
Y0092837
X0117983
Y0090297
Y0087757
Y0085217
Y0082677
Y0080137
Y0077597
Y0075057
Y0072517
Y0069977
Y0067437
Y0064897
Y0062357
Y0059817
Y0057277
Y0054737
Y0095377
Y0097917
Y0100457
Y0102997
Y0105537
Y0108077
Y0110617
X0115443
Y0108077
Y0105537
Y0102997
Y0100457
Y0097917
Y0095377
X0067183
Y0097917
Y0100457
Y0102997
Y0105537
Y0108077
Y0110617
X0064643
Y0108077
Y0105537
Y0102997
Y0100457
Y0097917
Y0095377
T09
X0006096Y0014605
X0177038
Y0017145
Y0019685
Y00258064
Y00283464
Y00308864
Y00370078
Y00395478
Y00420878
Y00482092
Y00507492
Y00532892
X0006096
Y00507492
Y00482092
Y00420878
Y00395478
Y00370078
Y00308864
Y00283464
Y00258064
Y0019685
Y0017145
Y00594106
Y00619506
Y00644906
Y0070612
Y0073152
Y0075692
Y00818134
Y00843534
Y00868934
Y00930148
X0177038
Y00868934
Y00843534
Y00818134
Y0075692
Y0073152
Y0070612
Y00644906
Y00619506
Y00594106
Y00955548
Y00980948
Y01042162
Y01067562
Y01092962
Y01154176
Y01179576
Y01204976
Y0126619
Y0129159
Y0131699
X0006096
Y0129159
Y0126619
Y01204976
Y01179576
Y01154176
Y01092962
Y01067562
Y01042162
Y00980948
Y00955548
Y01378204
Y01403604
Y01429004
Y01490218
Y01515618
Y01541018
Y01602232
Y01627632
Y01653032
Y01714246
X0177038
Y01653032
Y01627632
Y01602232
Y01541018
Y01515618
Y01490218
Y01429004
Y01403604
Y01378204
Y01739646
Y01765046
Y0182626
Y0185166
Y0187706
X0006096
Y0185166
Y0182626
Y01765046
Y01739646
T10
X0149225Y0044958
X0154225
X0034163Y0023876
X0029163
X0028829Y0068199
X0033829
X0149305Y0089662
X0154305
X0033829Y0112395
X0028829
Y0156718
X0033829
X0149305Y0134493
X0154305
Y0179705
X0149305
T11
X0168402Y0029417
Y0039417
X00149098Y0039544
Y0029544
X0014732Y0073787
Y0083787
X0168402Y0084041
Y0074041
Y0118905
Y0128905
X0014732Y0127936
Y0117936
Y0162386
Y0172386
X0168402Y016399
Y017399
T12
X0075565Y0186436
Y0193436
T13
X0004445Y0004445
X01778
X0099695Y00871982
X0151511Y01048512
X0064135Y01326642
X0031115Y0097155
X0178435Y0197993
X0004445
M30
