G04 Layer_Color=65535*
%FSLAX44Y44*%
%MOMM*%
G71*
G01*
G75*
%ADD33C,0.4000*%
%ADD34C,0.2000*%
%ADD53C,0.1524*%
%ADD54C,0.2540*%
%ADD55C,0.5080*%
%ADD56C,0.2032*%
%ADD57C,0.1016*%
%ADD58C,0.1270*%
%ADD59C,0.1500*%
%ADD60C,0.1520*%
D33*
X571030Y1108170D02*
G03*
X571030Y1108170I-2000J0D01*
G01*
D34*
X515980Y233680D02*
G03*
X515980Y233680I-1000J0D01*
G01*
X531220Y471170D02*
G03*
X531220Y471170I-1000J0D01*
G01*
X523600Y659130D02*
G03*
X523600Y659130I-1000J0D01*
G01*
X527410Y899160D02*
G03*
X527410Y899160I-1000J0D01*
G01*
Y1120140D02*
G03*
X527410Y1120140I-1000J0D01*
G01*
Y1351280D02*
G03*
X527410Y1351280I-1000J0D01*
G01*
Y1554480D02*
G03*
X527410Y1554480I-1000J0D01*
G01*
X528680Y1791970D02*
G03*
X528680Y1791970I-1000J0D01*
G01*
X650860Y1686690D02*
G03*
X650860Y1686690I-1000J0D01*
G01*
X841230Y1682770D02*
G03*
X841230Y1682770I-1000J0D01*
G01*
X1066510Y1780030D02*
G03*
X1066510Y1780030I-1000J0D01*
G01*
X1298310Y214630D02*
G03*
X1298310Y214630I-1000J0D01*
G01*
Y450850D02*
G03*
X1298310Y450850I-1000J0D01*
G01*
Y660400D02*
G03*
X1298310Y660400I-1000J0D01*
G01*
X1303390Y900430D02*
G03*
X1303390Y900430I-1000J0D01*
G01*
X1298310Y1108710D02*
G03*
X1298310Y1108710I-1000J0D01*
G01*
Y1346200D02*
G03*
X1298310Y1346200I-1000J0D01*
G01*
X1307200Y1572260D02*
G03*
X1307200Y1572260I-1000J0D01*
G01*
Y1813560D02*
G03*
X1307200Y1813560I-1000J0D01*
G01*
D53*
X247504Y1073150D02*
G03*
X247504Y1073150I-63754J0D01*
G01*
X692404Y1895240D02*
G03*
X692404Y1895240I-63754J0D01*
G01*
X441579Y700786D02*
G03*
X441579Y700786I-28829J0D01*
G01*
X375412Y1210360D02*
G03*
X375412Y1210360I-1270J0D01*
G01*
X951865Y1617980D02*
G03*
X951865Y1617980I-28829J0D01*
G01*
X444119Y1408684D02*
G03*
X444119Y1408684I-28829J0D01*
G01*
X1157859Y1862836D02*
G03*
X1157859Y1862836I-28829J0D01*
G01*
X1713884Y1841500D02*
G03*
X1713884Y1841500I-63754J0D01*
G01*
X1369949Y1412494D02*
G03*
X1369949Y1412494I-28829J0D01*
G01*
X1366139Y1879346D02*
G03*
X1366139Y1879346I-28829J0D01*
G01*
X1715154Y1084980D02*
G03*
X1715154Y1084980I-63754J0D01*
G01*
X1369949Y1174496D02*
G03*
X1369949Y1174496I-28829J0D01*
G01*
X1366139Y1638554D02*
G03*
X1366139Y1638554I-28829J0D01*
G01*
X1369949Y516636D02*
G03*
X1369949Y516636I-28829J0D01*
G01*
X1444752Y485648D02*
G03*
X1444752Y479552I0J-3048D01*
G01*
X1715154Y637940D02*
G03*
X1715154Y637940I-63754J0D01*
G01*
X1369949Y280924D02*
G03*
X1369949Y280924I-28829J0D01*
G01*
Y727964D02*
G03*
X1369949Y727964I-28829J0D01*
G01*
X63246Y127000D02*
G03*
X63246Y127000I-2032J0D01*
G01*
Y239014D02*
G03*
X63246Y239014I-2032J0D01*
G01*
Y351028D02*
G03*
X63246Y351028I-2032J0D01*
G01*
Y463042D02*
G03*
X63246Y463042I-2032J0D01*
G01*
Y575056D02*
G03*
X63246Y575056I-2032J0D01*
G01*
Y687070D02*
G03*
X63246Y687070I-2032J0D01*
G01*
Y799084D02*
G03*
X63246Y799084I-2032J0D01*
G01*
Y911098D02*
G03*
X63246Y911098I-2032J0D01*
G01*
Y1023112D02*
G03*
X63246Y1023112I-2032J0D01*
G01*
Y1135126D02*
G03*
X63246Y1135126I-2032J0D01*
G01*
Y1247140D02*
G03*
X63246Y1247140I-2032J0D01*
G01*
Y1359154D02*
G03*
X63246Y1359154I-2032J0D01*
G01*
Y1471168D02*
G03*
X63246Y1471168I-2032J0D01*
G01*
Y1583182D02*
G03*
X63246Y1583182I-2032J0D01*
G01*
Y1695196D02*
G03*
X63246Y1695196I-2032J0D01*
G01*
Y1807210D02*
G03*
X63246Y1807210I-2032J0D01*
G01*
X1772158Y1896110D02*
G03*
X1772158Y1896110I-2032J0D01*
G01*
Y1784096D02*
G03*
X1772158Y1784096I-2032J0D01*
G01*
Y1672082D02*
G03*
X1772158Y1672082I-2032J0D01*
G01*
Y1560068D02*
G03*
X1772158Y1560068I-2032J0D01*
G01*
Y1448054D02*
G03*
X1772158Y1448054I-2032J0D01*
G01*
Y1336040D02*
G03*
X1772158Y1336040I-2032J0D01*
G01*
Y1224026D02*
G03*
X1772158Y1224026I-2032J0D01*
G01*
Y1112012D02*
G03*
X1772158Y1112012I-2032J0D01*
G01*
Y999998D02*
G03*
X1772158Y999998I-2032J0D01*
G01*
Y887984D02*
G03*
X1772158Y887984I-2032J0D01*
G01*
Y775970D02*
G03*
X1772158Y775970I-2032J0D01*
G01*
Y663956D02*
G03*
X1772158Y663956I-2032J0D01*
G01*
Y551942D02*
G03*
X1772158Y551942I-2032J0D01*
G01*
Y439928D02*
G03*
X1772158Y439928I-2032J0D01*
G01*
Y327914D02*
G03*
X1772158Y327914I-2032J0D01*
G01*
Y215900D02*
G03*
X1772158Y215900I-2032J0D01*
G01*
X447929Y274066D02*
G03*
X447929Y274066I-28829J0D01*
G01*
X390044Y64770D02*
G03*
X390044Y64770I-63754J0D01*
G01*
X516763Y92583D02*
G03*
X516763Y92583I-1270J0D01*
G01*
X524129Y166116D02*
G03*
X524129Y166116I-28829J0D01*
G01*
X387858Y183642D02*
G03*
X387858Y189738I0J3048D01*
G01*
X250844Y193040D02*
G03*
X250844Y193040I-63754J0D01*
G01*
X377190Y326440D02*
G03*
X377190Y326440I-1270J0D01*
G01*
X246634Y485540D02*
G03*
X246634Y485540I-63754J0D01*
G01*
X247034Y635000D02*
G03*
X247034Y635000I-63754J0D01*
G01*
X527939Y406146D02*
G03*
X527939Y406146I-28829J0D01*
G01*
X386588Y423672D02*
G03*
X386588Y429768I0J3048D01*
G01*
X441579Y514604D02*
G03*
X441579Y514604I-28829J0D01*
G01*
X527939Y590804D02*
G03*
X527939Y590804I-28829J0D01*
G01*
X386588Y612902D02*
G03*
X386588Y618998I0J3048D01*
G01*
X527939Y833374D02*
G03*
X527939Y833374I-28829J0D01*
G01*
X386588Y866902D02*
G03*
X386588Y872998I0J3048D01*
G01*
X441579Y953516D02*
G03*
X441579Y953516I-28829J0D01*
G01*
X375412Y768870D02*
G03*
X375412Y768870I-1270J0D01*
G01*
X247504Y943210D02*
G03*
X247504Y943210I-63754J0D01*
G01*
X527939Y1055116D02*
G03*
X527939Y1055116I-28829J0D01*
G01*
X386588Y1090422D02*
G03*
X386588Y1096518I0J3048D01*
G01*
X442849Y1179576D02*
G03*
X442849Y1179576I-28829J0D01*
G01*
X522859Y1284986D02*
G03*
X522859Y1284986I-28829J0D01*
G01*
X386588Y1322832D02*
G03*
X386588Y1328928I0J3048D01*
G01*
X247504Y1383900D02*
G03*
X247504Y1383900I-63754J0D01*
G01*
X246234Y1520190D02*
G03*
X246234Y1520190I-63754J0D01*
G01*
X522859Y1486154D02*
G03*
X522859Y1486154I-28829J0D01*
G01*
X386588Y1529842D02*
G03*
X386588Y1535938I0J3048D01*
G01*
X444119Y1618996D02*
G03*
X444119Y1618996I-28829J0D01*
G01*
X522859Y1720596D02*
G03*
X522859Y1720596I-28829J0D01*
G01*
X375412Y1654860D02*
G03*
X375412Y1654860I-1270J0D01*
G01*
X386588Y1767332D02*
G03*
X386588Y1773428I0J3048D01*
G01*
X444119Y1853184D02*
G03*
X444119Y1853184I-28829J0D01*
G01*
X246234Y1827930D02*
G03*
X246234Y1827930I-63754J0D01*
G01*
X758193Y1626870D02*
G03*
X758193Y1626870I-28829J0D01*
G01*
X727329Y1765046D02*
G03*
X727329Y1765046I-28829J0D01*
G01*
X866775Y1786890D02*
G03*
X866775Y1786890I-28829J0D01*
G01*
X988949Y1779016D02*
G03*
X988949Y1779016I-28829J0D01*
G01*
X1715154Y194710D02*
G03*
X1715154Y194710I-63754J0D01*
G01*
X1458468Y363170D02*
G03*
X1458468Y363170I-1270J0D01*
G01*
X1444752Y248158D02*
G03*
X1444752Y242062I0J-3048D01*
G01*
X1444879Y156464D02*
G03*
X1444879Y156464I-28829J0D01*
G01*
Y399034D02*
G03*
X1444879Y399034I-28829J0D01*
G01*
X1715154Y497840D02*
G03*
X1715154Y497840I-63754J0D01*
G01*
X1444879Y608584D02*
G03*
X1444879Y608584I-28829J0D01*
G01*
X1444752Y695198D02*
G03*
X1444752Y689102I0J-3048D01*
G01*
X1444879Y846074D02*
G03*
X1444879Y846074I-28829J0D01*
G01*
X1458468Y809410D02*
G03*
X1458468Y809410I-1270J0D01*
G01*
X1444752Y933958D02*
G03*
X1444752Y927862I0J-3048D01*
G01*
X1369949Y967994D02*
G03*
X1369949Y967994I-28829J0D01*
G01*
X1715154Y946150D02*
G03*
X1715154Y946150I-63754J0D01*
G01*
X1444879Y1060196D02*
G03*
X1444879Y1060196I-28829J0D01*
G01*
X1444752Y1143508D02*
G03*
X1444752Y1137412I0J-3048D01*
G01*
X1458468Y1258050D02*
G03*
X1458468Y1258050I-1270J0D01*
G01*
X1444879Y1293114D02*
G03*
X1444879Y1293114I-28829J0D01*
G01*
X1444752Y1382268D02*
G03*
X1444752Y1376172I0J-3048D01*
G01*
X1444879Y1510284D02*
G03*
X1444879Y1510284I-28829J0D01*
G01*
X1444752Y1596898D02*
G03*
X1444752Y1590802I0J-3048D01*
G01*
X1713884Y1537100D02*
G03*
X1713884Y1537100I-63754J0D01*
G01*
X1715154Y1393190D02*
G03*
X1715154Y1393190I-63754J0D01*
G01*
X1444879Y1747266D02*
G03*
X1444879Y1747266I-28829J0D01*
G01*
X1458468Y1708900D02*
G03*
X1458468Y1708900I-1270J0D01*
G01*
X1444752Y1835658D02*
G03*
X1444752Y1829562I0J-3048D01*
G01*
X219564Y1074420D02*
X232264D01*
X225914Y1068070D02*
Y1080770D01*
X1247486Y308800D02*
X1249334D01*
X1247486Y298260D02*
X1249334D01*
X1247486Y322770D02*
X1249334D01*
X1247486Y312230D02*
X1249334D01*
X621030Y1937404D02*
X633730D01*
X627380Y1931054D02*
Y1943754D01*
X90515Y261810D02*
X92365D01*
X90515Y251270D02*
X92365D01*
X450088Y721487D02*
X456540D01*
X485800D02*
X492252D01*
Y672973D02*
Y721487D01*
X450088Y672973D02*
X456540D01*
X450088D02*
Y721487D01*
X477520Y693166D02*
X490220D01*
X482600D02*
X483870Y700786D01*
X481330Y693166D02*
X483870Y700786D01*
X480060Y693166D02*
X483870Y700786D01*
X478790Y693166D02*
X483870Y700786D01*
X477520Y693166D02*
X483870Y700786D01*
X485140Y693166D01*
X483870Y700786D02*
X486410Y693166D01*
X483870Y700786D02*
X487680Y693166D01*
X483870Y700786D02*
X488950Y693166D01*
X483870Y700786D02*
X490220Y693166D01*
X477520Y700786D02*
X490220D01*
X483870Y690626D02*
Y703326D01*
X485800Y672973D02*
X492252D01*
X452628Y299847D02*
X459080D01*
X488340D02*
X494792D01*
Y251333D02*
Y299847D01*
X452628Y251333D02*
X459080D01*
X452628D02*
Y299847D01*
X480060Y271526D02*
X492760D01*
X485140D02*
X486410Y279146D01*
X483870Y271526D02*
X486410Y279146D01*
X482600Y271526D02*
X486410Y279146D01*
X481330Y271526D02*
X486410Y279146D01*
X480060Y271526D02*
X486410Y279146D01*
X487680Y271526D01*
X486410Y279146D02*
X488950Y271526D01*
X486410Y279146D02*
X490220Y271526D01*
X486410Y279146D02*
X491490Y271526D01*
X486410Y279146D02*
X492760Y271526D01*
X480060Y279146D02*
X492760D01*
X486410Y268986D02*
Y281686D01*
X488340Y251333D02*
X494792D01*
X390900Y712090D02*
X403600D01*
X397250Y705740D02*
Y718440D01*
X91785Y823150D02*
X93635D01*
X91785Y812610D02*
X93635D01*
X93055Y1496250D02*
X94904D01*
X93055Y1485710D02*
X94904D01*
X94326Y1122870D02*
X96174D01*
X94326Y1112330D02*
X96174D01*
X321183Y1177544D02*
Y1281176D01*
X187579D02*
X321183D01*
X187579Y1177544D02*
Y1281176D01*
Y1177544D02*
X321183D01*
X934340Y1627130D02*
Y1639830D01*
X927990Y1633480D02*
X940690D01*
X95596Y1719770D02*
X97444D01*
X95596Y1709230D02*
X97444D01*
X94326Y1270190D02*
X96174D01*
X94326Y1259650D02*
X96174D01*
X95596Y1831530D02*
X97444D01*
X95596Y1820990D02*
X97444D01*
X96866Y1383220D02*
X98715D01*
X96866Y1372680D02*
X98715D01*
X393440Y1419988D02*
X406140D01*
X399790Y1413638D02*
Y1426338D01*
X1193610Y1760565D02*
Y1762415D01*
X1204150Y1760565D02*
Y1762415D01*
X1733896Y1423480D02*
X1735744D01*
X1733896Y1434020D02*
X1735744D01*
X1733896Y1871790D02*
X1735744D01*
X1733896Y1882330D02*
X1735744D01*
X1107180Y1874140D02*
X1119880D01*
X1113530Y1867790D02*
Y1880490D01*
X1601616Y1840230D02*
X1614316D01*
X1607966Y1833880D02*
Y1846580D01*
X1350270Y1401190D02*
X1362970D01*
X1356620Y1394840D02*
Y1407540D01*
X1346460Y1868042D02*
X1359160D01*
X1352810Y1861692D02*
Y1874392D01*
X1730085Y1349820D02*
X1731935D01*
X1730085Y1360360D02*
X1731935D01*
X1731198Y1800670D02*
X1733047D01*
X1731198Y1811210D02*
X1733047D01*
X1163955Y1885315D02*
X1188314D01*
X1217066D02*
X1241425D01*
Y1807845D02*
Y1885315D01*
X1163955Y1807845D02*
X1188314D01*
X1163955D02*
Y1885315D01*
X1217066Y1807845D02*
X1241425D01*
X1437986Y1215200D02*
X1439834D01*
X1437986Y1225740D02*
X1439834D01*
X1732625Y1201230D02*
X1734474D01*
X1732625Y1211770D02*
X1734474D01*
X1733896Y1648270D02*
X1735744D01*
X1733896Y1658810D02*
X1735744D01*
X1652670Y1036466D02*
Y1049166D01*
X1646320Y1042816D02*
X1659020D01*
X1350270Y1163192D02*
X1362970D01*
X1356620Y1156842D02*
Y1169542D01*
X1346460Y1627250D02*
X1359160D01*
X1352810Y1620900D02*
Y1633600D01*
X1732625Y1088200D02*
X1734474D01*
X1732625Y1098740D02*
X1734474D01*
X1733896Y1535240D02*
X1735744D01*
X1733896Y1545780D02*
X1735744D01*
X1733896Y529400D02*
X1735744D01*
X1733896Y539940D02*
X1735744D01*
X1733896Y976440D02*
X1735744D01*
X1733896Y986980D02*
X1735744D01*
X1350270Y505332D02*
X1362970D01*
X1356620Y498982D02*
Y511682D01*
X1732625Y451930D02*
X1734474D01*
X1732625Y462470D02*
X1734474D01*
X1733896Y901510D02*
X1735744D01*
X1733896Y912050D02*
X1735744D01*
X1394968Y468376D02*
Y496824D01*
X1444752Y468376D02*
Y479552D01*
Y485648D01*
Y496824D01*
X1437986Y318580D02*
X1439834D01*
X1437986Y329120D02*
X1439834D01*
X1439256Y765620D02*
X1441104D01*
X1439256Y776160D02*
X1441104D01*
X1733896Y303340D02*
X1735744D01*
X1733896Y313880D02*
X1735744D01*
X1733896Y752920D02*
X1735744D01*
X1733896Y763460D02*
X1735744D01*
X1652670Y589426D02*
Y602126D01*
X1646320Y595776D02*
X1659020D01*
X1350270Y269620D02*
X1362970D01*
X1356620Y263270D02*
Y275970D01*
X1350270Y716660D02*
X1362970D01*
X1356620Y710310D02*
Y723010D01*
X1735166Y191580D02*
X1737014D01*
X1735166Y202120D02*
X1737014D01*
X77978Y119126D02*
Y223774D01*
X31496D02*
X77978D01*
X31496Y119126D02*
Y223774D01*
Y119126D02*
X77978D01*
Y231140D02*
Y335788D01*
X31496D02*
X77978D01*
X31496Y231140D02*
Y335788D01*
Y231140D02*
X77978D01*
Y343154D02*
Y447802D01*
X31496D02*
X77978D01*
X31496Y343154D02*
Y447802D01*
Y343154D02*
X77978D01*
Y455168D02*
Y559816D01*
X31496D02*
X77978D01*
X31496Y455168D02*
Y559816D01*
Y455168D02*
X77978D01*
Y567182D02*
Y671830D01*
X31496D02*
X77978D01*
X31496Y567182D02*
Y671830D01*
Y567182D02*
X77978D01*
Y679196D02*
Y783844D01*
X31496D02*
X77978D01*
X31496Y679196D02*
Y783844D01*
Y679196D02*
X77978D01*
Y791210D02*
Y895858D01*
X31496D02*
X77978D01*
X31496Y791210D02*
Y895858D01*
Y791210D02*
X77978D01*
Y903224D02*
Y1007872D01*
X31496D02*
X77978D01*
X31496Y903224D02*
Y1007872D01*
Y903224D02*
X77978D01*
Y1015238D02*
Y1119886D01*
X31496D02*
X77978D01*
X31496Y1015238D02*
Y1119886D01*
Y1015238D02*
X77978D01*
Y1127252D02*
Y1231900D01*
X31496D02*
X77978D01*
X31496Y1127252D02*
Y1231900D01*
Y1127252D02*
X77978D01*
Y1239266D02*
Y1343914D01*
X31496D02*
X77978D01*
X31496Y1239266D02*
Y1343914D01*
Y1239266D02*
X77978D01*
Y1351280D02*
Y1455928D01*
X31496D02*
X77978D01*
X31496Y1351280D02*
Y1455928D01*
Y1351280D02*
X77978D01*
Y1463294D02*
Y1567942D01*
X31496D02*
X77978D01*
X31496Y1463294D02*
Y1567942D01*
Y1463294D02*
X77978D01*
Y1575308D02*
Y1679956D01*
X31496D02*
X77978D01*
X31496Y1575308D02*
Y1679956D01*
Y1575308D02*
X77978D01*
Y1687322D02*
Y1791970D01*
X31496D02*
X77978D01*
X31496Y1687322D02*
Y1791970D01*
Y1687322D02*
X77978D01*
Y1799336D02*
Y1903984D01*
X31496D02*
X77978D01*
X31496Y1799336D02*
Y1903984D01*
Y1799336D02*
X77978D01*
X1753362D02*
Y1903984D01*
Y1799336D02*
X1799844D01*
Y1903984D01*
X1753362D02*
X1799844D01*
X1753362Y1687322D02*
Y1791970D01*
Y1687322D02*
X1799844D01*
Y1791970D01*
X1753362D02*
X1799844D01*
X1753362Y1575308D02*
Y1679956D01*
Y1575308D02*
X1799844D01*
Y1679956D01*
X1753362D02*
X1799844D01*
X1753362Y1463294D02*
Y1567942D01*
Y1463294D02*
X1799844D01*
Y1567942D01*
X1753362D02*
X1799844D01*
X1753362Y1351280D02*
Y1455928D01*
Y1351280D02*
X1799844D01*
Y1455928D01*
X1753362D02*
X1799844D01*
X1753362Y1239266D02*
Y1343914D01*
Y1239266D02*
X1799844D01*
Y1343914D01*
X1753362D02*
X1799844D01*
X1753362Y1127252D02*
Y1231900D01*
Y1127252D02*
X1799844D01*
Y1231900D01*
X1753362D02*
X1799844D01*
X1753362Y1015238D02*
Y1119886D01*
Y1015238D02*
X1799844D01*
Y1119886D01*
X1753362D02*
X1799844D01*
X1753362Y903224D02*
Y1007872D01*
Y903224D02*
X1799844D01*
Y1007872D01*
X1753362D02*
X1799844D01*
X1753362Y791210D02*
Y895858D01*
Y791210D02*
X1799844D01*
Y895858D01*
X1753362D02*
X1799844D01*
X1753362Y679196D02*
Y783844D01*
Y679196D02*
X1799844D01*
Y783844D01*
X1753362D02*
X1799844D01*
X1753362Y567182D02*
Y671830D01*
Y567182D02*
X1799844D01*
Y671830D01*
X1753362D02*
X1799844D01*
X1753362Y455168D02*
Y559816D01*
Y455168D02*
X1799844D01*
Y559816D01*
X1753362D02*
X1799844D01*
X1753362Y343154D02*
Y447802D01*
Y343154D02*
X1799844D01*
Y447802D01*
X1753362D02*
X1799844D01*
X1753362Y231140D02*
Y335788D01*
Y231140D02*
X1799844D01*
Y335788D01*
X1753362D02*
X1799844D01*
X1753362Y119126D02*
Y223774D01*
Y119126D02*
X1799844D01*
Y223774D01*
X1753362D02*
X1799844D01*
X90515Y150050D02*
X92365D01*
X90515Y139510D02*
X92365D01*
X397250Y285370D02*
X409950D01*
X403600Y279020D02*
Y291720D01*
X395024Y64770D02*
X407724D01*
X405184Y58420D02*
Y71120D01*
X397564Y58420D02*
X405184Y64770D01*
X397564Y59690D02*
X405184Y64770D01*
X397564Y60960D02*
X405184Y64770D01*
X397564Y62230D02*
X405184Y64770D01*
X397564Y63500D02*
X405184Y64770D01*
X397564Y71120D02*
X405184Y64770D01*
X397564Y69850D02*
X405184Y64770D01*
X397564Y68580D02*
X405184Y64770D01*
X397564Y67310D02*
X405184Y64770D01*
X397564Y66040D02*
X405184Y64770D01*
X397564Y58420D02*
Y71120D01*
X552795Y81470D02*
X554645D01*
X552795Y70930D02*
X554645D01*
X413131Y7620D02*
Y13818D01*
Y42062D02*
Y48260D01*
X465709D01*
Y7620D02*
Y13818D01*
X413131Y7620D02*
X465709D01*
X406781Y21590D02*
Y34290D01*
X399161Y27940D02*
X406781Y26670D01*
X399161Y27940D02*
X406781Y25400D01*
X399161Y27940D02*
X406781Y24130D01*
X399161Y27940D02*
X406781Y22860D01*
X399161Y27940D02*
X406781Y21590D01*
X399161Y27940D02*
X406781Y29210D01*
X399161Y27940D02*
X406781Y30480D01*
X399161Y27940D02*
X406781Y31750D01*
X399161Y27940D02*
X406781Y33020D01*
X399161Y27940D02*
X406781Y34290D01*
X399161Y21590D02*
Y34290D01*
X396621Y27940D02*
X409321D01*
X465709Y42062D02*
Y48260D01*
X523050Y98135D02*
Y99985D01*
X533590Y98135D02*
Y99985D01*
X484149Y88392D02*
X491211D01*
X471297Y71628D02*
Y88392D01*
Y71628D02*
X481686D01*
X504063D02*
Y88392D01*
X493674Y71628D02*
X504063D01*
X473450Y177420D02*
X486150D01*
X479800Y171070D02*
Y183770D01*
X437642Y172466D02*
Y200914D01*
X387858Y189738D02*
Y200914D01*
Y183642D02*
Y189738D01*
Y172466D02*
Y183642D01*
X222904Y194310D02*
X235604D01*
X229254Y187960D02*
Y200660D01*
X91785Y373570D02*
X93635D01*
X91785Y363030D02*
X93635D01*
X322961Y293624D02*
Y397256D01*
X189357D02*
X322961D01*
X189357Y293624D02*
Y397256D01*
Y293624D02*
X322961D01*
X181610Y521354D02*
Y534054D01*
X175260Y527704D02*
X187960D01*
X93055Y599630D02*
X94904D01*
X93055Y589090D02*
X94904D01*
X90515Y486600D02*
X92365D01*
X90515Y476060D02*
X92365D01*
X219094Y636270D02*
X231794D01*
X225444Y629920D02*
Y642620D01*
X94326Y677100D02*
X96174D01*
X94326Y666560D02*
X96174D01*
X401665Y368490D02*
X403515D01*
X401665Y357950D02*
X403515D01*
X477260Y417450D02*
X489960D01*
X483610Y411100D02*
Y423800D01*
X436372Y412496D02*
Y440944D01*
X386588Y429768D02*
Y440944D01*
Y423672D02*
Y429768D01*
Y412496D02*
Y423672D01*
X390900Y525908D02*
X403600D01*
X397250Y519558D02*
Y532258D01*
X450088Y536067D02*
X456540D01*
X485800D02*
X492252D01*
Y487553D02*
Y536067D01*
X450088Y487553D02*
X456540D01*
X450088D02*
Y536067D01*
X477520Y507746D02*
X490220D01*
X482600D02*
X483870Y515366D01*
X481330Y507746D02*
X483870Y515366D01*
X480060Y507746D02*
X483870Y515366D01*
X478790Y507746D02*
X483870Y515366D01*
X477520Y507746D02*
X483870Y515366D01*
X485140Y507746D01*
X483870Y515366D02*
X486410Y507746D01*
X483870Y515366D02*
X487680Y507746D01*
X483870Y515366D02*
X488950Y507746D01*
X483870Y515366D02*
X490220Y507746D01*
X477520Y515366D02*
X490220D01*
X483870Y505206D02*
Y517906D01*
X485800Y487553D02*
X492252D01*
X477260Y602108D02*
X489960D01*
X483610Y595758D02*
Y608458D01*
X436372Y601726D02*
Y630174D01*
X386588Y618998D02*
Y630174D01*
Y612902D02*
Y618998D01*
Y601726D02*
Y612902D01*
X388965Y812990D02*
X390815D01*
X388965Y802450D02*
X390815D01*
X477260Y844678D02*
X489960D01*
X483610Y838328D02*
Y851028D01*
X450088Y967867D02*
X456540D01*
X485800D02*
X492252D01*
Y919353D02*
Y967867D01*
X450088Y919353D02*
X456540D01*
X450088D02*
Y967867D01*
X477520Y939546D02*
X490220D01*
X482600D02*
X483870Y947166D01*
X481330Y939546D02*
X483870Y947166D01*
X480060Y939546D02*
X483870Y947166D01*
X478790Y939546D02*
X483870Y947166D01*
X477520Y939546D02*
X483870Y947166D01*
X485140Y939546D01*
X483870Y947166D02*
X486410Y939546D01*
X483870Y947166D02*
X487680Y939546D01*
X483870Y947166D02*
X488950Y939546D01*
X483870Y947166D02*
X490220Y939546D01*
X477520Y947166D02*
X490220D01*
X483870Y937006D02*
Y949706D01*
X485800Y919353D02*
X492252D01*
X436372Y855726D02*
Y884174D01*
X386588Y872998D02*
Y884174D01*
Y866902D02*
Y872998D01*
Y855726D02*
Y866902D01*
X390900Y964820D02*
X403600D01*
X397250Y958470D02*
Y971170D01*
X93055Y936180D02*
X94904D01*
X93055Y925640D02*
X94904D01*
X321183Y736054D02*
Y839686D01*
X187579D02*
X321183D01*
X187579Y736054D02*
Y839686D01*
Y736054D02*
X321183D01*
X182480Y979024D02*
Y991724D01*
X176130Y985374D02*
X188830D01*
X91785Y1046670D02*
X93635D01*
X91785Y1036130D02*
X93635D01*
X477260Y1066420D02*
X489960D01*
X483610Y1060070D02*
Y1072770D01*
X436372Y1079246D02*
Y1107694D01*
X386588Y1096518D02*
Y1107694D01*
Y1090422D02*
Y1096518D01*
Y1079246D02*
Y1090422D01*
X450088Y1190117D02*
X456540D01*
X485800D02*
X492252D01*
Y1141603D02*
Y1190117D01*
X450088Y1141603D02*
X456540D01*
X450088D02*
Y1190117D01*
X477520Y1161796D02*
X490220D01*
X482600D02*
X483870Y1169416D01*
X481330Y1161796D02*
X483870Y1169416D01*
X480060Y1161796D02*
X483870Y1169416D01*
X478790Y1161796D02*
X483870Y1169416D01*
X477520Y1161796D02*
X483870Y1169416D01*
X485140Y1161796D01*
X483870Y1169416D02*
X486410Y1161796D01*
X483870Y1169416D02*
X487680Y1161796D01*
X483870Y1169416D02*
X488950Y1161796D01*
X483870Y1169416D02*
X490220Y1161796D01*
X477520Y1169416D02*
X490220D01*
X483870Y1159256D02*
Y1171956D01*
X485800Y1141603D02*
X492252D01*
X392170Y1190880D02*
X404870D01*
X398520Y1184530D02*
Y1197230D01*
X388965Y1253680D02*
X390815D01*
X388965Y1243140D02*
X390815D01*
X472180Y1296290D02*
X484880D01*
X478530Y1289940D02*
Y1302640D01*
X451358Y1421257D02*
X457810D01*
X487070D02*
X493522D01*
Y1372743D02*
Y1421257D01*
X451358Y1372743D02*
X457810D01*
X451358D02*
Y1421257D01*
X478790Y1392936D02*
X491490D01*
X483870D02*
X485140Y1400556D01*
X482600Y1392936D02*
X485140Y1400556D01*
X481330Y1392936D02*
X485140Y1400556D01*
X480060Y1392936D02*
X485140Y1400556D01*
X478790Y1392936D02*
X485140Y1400556D01*
X486410Y1392936D01*
X485140Y1400556D02*
X487680Y1392936D01*
X485140Y1400556D02*
X488950Y1392936D01*
X485140Y1400556D02*
X490220Y1392936D01*
X485140Y1400556D02*
X491490Y1392936D01*
X478790Y1400556D02*
X491490D01*
X485140Y1390396D02*
Y1403096D01*
X487070Y1372743D02*
X493522D01*
X436372Y1311656D02*
Y1340104D01*
X386588Y1328928D02*
Y1340104D01*
Y1322832D02*
Y1328928D01*
Y1311656D02*
Y1322832D01*
X182480Y1419714D02*
Y1432414D01*
X176130Y1426064D02*
X188830D01*
X96866Y1569910D02*
X98715D01*
X96866Y1559370D02*
X98715D01*
X218294Y1521460D02*
X230994D01*
X224644Y1515110D02*
Y1527810D01*
X472180Y1497458D02*
X484880D01*
X478530Y1491108D02*
Y1503808D01*
X436372Y1518666D02*
Y1547114D01*
X386588Y1535938D02*
Y1547114D01*
Y1529842D02*
Y1535938D01*
Y1518666D02*
Y1529842D01*
X451358Y1625727D02*
X457810D01*
X487070D02*
X493522D01*
Y1577213D02*
Y1625727D01*
X451358Y1577213D02*
X457810D01*
X451358D02*
Y1625727D01*
X478790Y1597406D02*
X491490D01*
X483870D02*
X485140Y1605026D01*
X482600Y1597406D02*
X485140Y1605026D01*
X481330Y1597406D02*
X485140Y1605026D01*
X480060Y1597406D02*
X485140Y1605026D01*
X478790Y1597406D02*
X485140Y1605026D01*
X486410Y1597406D01*
X485140Y1605026D02*
X487680Y1597406D01*
X485140Y1605026D02*
X488950Y1597406D01*
X485140Y1605026D02*
X490220Y1597406D01*
X485140Y1605026D02*
X491490Y1597406D01*
X478790Y1605026D02*
X491490D01*
X485140Y1594866D02*
Y1607566D01*
X487070Y1577213D02*
X493522D01*
X393440Y1630300D02*
X406140D01*
X399790Y1623950D02*
Y1636650D01*
X390235Y1699450D02*
X392085D01*
X390235Y1688910D02*
X392085D01*
X472180Y1731900D02*
X484880D01*
X478530Y1725550D02*
Y1738250D01*
X321183Y1622044D02*
Y1725676D01*
X187579D02*
X321183D01*
X187579Y1622044D02*
Y1725676D01*
Y1622044D02*
X321183D01*
X451358Y1864487D02*
X457810D01*
X487070D02*
X493522D01*
Y1815973D02*
Y1864487D01*
X451358Y1815973D02*
X457810D01*
X451358D02*
Y1864487D01*
X478790Y1836166D02*
X491490D01*
X483870D02*
X485140Y1843786D01*
X482600Y1836166D02*
X485140Y1843786D01*
X481330Y1836166D02*
X485140Y1843786D01*
X480060Y1836166D02*
X485140Y1843786D01*
X478790Y1836166D02*
X485140Y1843786D01*
X486410Y1836166D01*
X485140Y1843786D02*
X487680Y1836166D01*
X485140Y1843786D02*
X488950Y1836166D01*
X485140Y1843786D02*
X490220Y1836166D01*
X485140Y1843786D02*
X491490Y1836166D01*
X478790Y1843786D02*
X491490D01*
X485140Y1833626D02*
Y1846326D01*
X487070Y1815973D02*
X493522D01*
X436372Y1756156D02*
Y1784604D01*
X386588Y1773428D02*
Y1784604D01*
Y1767332D02*
Y1773428D01*
Y1756156D02*
Y1767332D01*
X393440Y1864488D02*
X406140D01*
X399790Y1858138D02*
Y1870838D01*
X181210Y1863744D02*
Y1876444D01*
X174860Y1870094D02*
X187560D01*
X625316Y1522540D02*
X627164D01*
X625316Y1533080D02*
X627164D01*
X625316Y1553400D02*
X627164D01*
X625316Y1542860D02*
X627164D01*
X636590Y1592926D02*
Y1594774D01*
X626050Y1592926D02*
Y1594774D01*
X753875Y1557426D02*
Y1581785D01*
Y1504315D02*
Y1528674D01*
X676405Y1504315D02*
X753875D01*
X676405Y1557426D02*
Y1581785D01*
X753875D01*
X676405Y1504315D02*
Y1528674D01*
X740668Y1636020D02*
Y1648720D01*
X734318Y1642370D02*
X747018D01*
X613730Y1678015D02*
Y1679865D01*
X603190Y1678015D02*
Y1679865D01*
X676650Y1776350D02*
X689350D01*
X683000Y1770000D02*
Y1782700D01*
X820766Y1525080D02*
X822615D01*
X820766Y1535620D02*
X822615D01*
X820766Y1554670D02*
X822615D01*
X820766Y1544130D02*
X822615D01*
X828230Y1589115D02*
Y1590965D01*
X817690Y1589115D02*
Y1590965D01*
X945515Y1557426D02*
Y1581785D01*
Y1504315D02*
Y1528674D01*
X868045Y1504315D02*
X945515D01*
X868045Y1557426D02*
Y1581785D01*
X945515D01*
X868045Y1504315D02*
Y1528674D01*
X807910Y1674205D02*
Y1676055D01*
X797370Y1674205D02*
Y1676055D01*
X826642Y1765040D02*
Y1777740D01*
X820292Y1771390D02*
X832992D01*
X969270Y1767712D02*
X981970D01*
X975620Y1761362D02*
Y1774062D01*
X1072225Y1746440D02*
X1074074D01*
X1072225Y1735900D02*
X1074074D01*
X1158586Y1768030D02*
X1160434D01*
X1158586Y1757490D02*
X1160434D01*
X1223200Y1760565D02*
Y1762415D01*
X1212660Y1760565D02*
Y1762415D01*
X1096391Y1510030D02*
Y1551686D01*
X1044829Y1510030D02*
Y1551686D01*
X1048258Y1649857D02*
X1054710D01*
X1083970D02*
X1090422D01*
Y1601343D02*
Y1649857D01*
X1048258Y1601343D02*
X1054710D01*
X1048258D02*
Y1649857D01*
X1075690Y1621536D02*
X1088390D01*
X1080770D02*
X1082040Y1629156D01*
X1079500Y1621536D02*
X1082040Y1629156D01*
X1078230Y1621536D02*
X1082040Y1629156D01*
X1076960Y1621536D02*
X1082040Y1629156D01*
X1075690Y1621536D02*
X1082040Y1629156D01*
X1083310Y1621536D01*
X1082040Y1629156D02*
X1084580Y1621536D01*
X1082040Y1629156D02*
X1085850Y1621536D01*
X1082040Y1629156D02*
X1087120Y1621536D01*
X1082040Y1629156D02*
X1088390Y1621536D01*
X1075690Y1629156D02*
X1088390D01*
X1082040Y1618996D02*
Y1631696D01*
X1083970Y1601343D02*
X1090422D01*
X1070956Y1580070D02*
X1072804D01*
X1070956Y1569530D02*
X1072804D01*
X1095466Y1567633D02*
Y1694125D01*
Y1567633D02*
X1155410D01*
Y1694125D01*
X1095466D02*
X1155410D01*
X1158966Y1567633D02*
Y1694125D01*
Y1567633D02*
X1218910D01*
Y1694125D01*
X1158966D02*
X1218910D01*
X1652670Y146196D02*
Y158896D01*
X1646320Y152546D02*
X1659020D01*
X1510157Y292354D02*
Y395986D01*
Y292354D02*
X1643761D01*
Y395986D01*
X1510157D02*
X1643761D01*
X1394968Y230886D02*
Y259334D01*
X1444752Y230886D02*
Y242062D01*
Y248158D01*
Y259334D01*
X1425200Y145160D02*
X1437900D01*
X1431550Y138810D02*
Y151510D01*
X1370990Y143383D02*
X1377442D01*
X1335278D02*
X1341730D01*
X1335278D02*
Y191897D01*
X1370990D02*
X1377442D01*
Y143383D02*
Y191897D01*
X1337310Y171704D02*
X1350010D01*
X1343660Y164084D02*
X1344930Y171704D01*
X1343660Y164084D02*
X1346200Y171704D01*
X1343660Y164084D02*
X1347470Y171704D01*
X1343660Y164084D02*
X1348740Y171704D01*
X1343660Y164084D02*
X1350010Y171704D01*
X1342390D02*
X1343660Y164084D01*
X1341120Y171704D02*
X1343660Y164084D01*
X1339850Y171704D02*
X1343660Y164084D01*
X1338580Y171704D02*
X1343660Y164084D01*
X1337310Y171704D02*
X1343660Y164084D01*
X1337310D02*
X1350010D01*
X1343660Y161544D02*
Y174244D01*
X1335278Y191897D02*
X1341730D01*
X1425200Y387730D02*
X1437900D01*
X1431550Y381380D02*
Y394080D01*
X1370990Y385953D02*
X1377442D01*
X1335278D02*
X1341730D01*
X1335278D02*
Y434467D01*
X1370990D02*
X1377442D01*
Y385953D02*
Y434467D01*
X1337310Y414274D02*
X1350010D01*
X1343660Y406654D02*
X1344930Y414274D01*
X1343660Y406654D02*
X1346200Y414274D01*
X1343660Y406654D02*
X1347470Y414274D01*
X1343660Y406654D02*
X1348740Y414274D01*
X1343660Y406654D02*
X1350010Y414274D01*
X1342390D02*
X1343660Y406654D01*
X1341120Y414274D02*
X1343660Y406654D01*
X1339850Y414274D02*
X1343660Y406654D01*
X1338580Y414274D02*
X1343660Y406654D01*
X1337310Y414274D02*
X1343660Y406654D01*
X1337310D02*
X1350010D01*
X1343660Y404114D02*
Y416814D01*
X1335278Y434467D02*
X1341730D01*
X1602886Y496570D02*
X1615586D01*
X1609236Y490220D02*
Y502920D01*
X1733896Y639890D02*
X1735744D01*
X1733896Y650430D02*
X1735744D01*
X1425200Y597280D02*
X1437900D01*
X1431550Y590930D02*
Y603630D01*
X1370990Y594233D02*
X1377442D01*
X1335278D02*
X1341730D01*
X1335278D02*
Y642747D01*
X1370990D02*
X1377442D01*
Y594233D02*
Y642747D01*
X1337310Y622554D02*
X1350010D01*
X1343660Y614934D02*
X1344930Y622554D01*
X1343660Y614934D02*
X1346200Y622554D01*
X1343660Y614934D02*
X1347470Y622554D01*
X1343660Y614934D02*
X1348740Y622554D01*
X1343660Y614934D02*
X1350010Y622554D01*
X1342390D02*
X1343660Y614934D01*
X1341120Y622554D02*
X1343660Y614934D01*
X1339850Y622554D02*
X1343660Y614934D01*
X1338580Y622554D02*
X1343660Y614934D01*
X1337310Y622554D02*
X1343660Y614934D01*
X1337310D02*
X1350010D01*
X1343660Y612394D02*
Y625094D01*
X1335278Y642747D02*
X1341730D01*
X1394968Y677926D02*
Y706374D01*
X1444752Y677926D02*
Y689102D01*
Y695198D01*
Y706374D01*
X1370990Y832993D02*
X1377442D01*
X1335278D02*
X1341730D01*
X1335278D02*
Y881507D01*
X1370990D02*
X1377442D01*
Y832993D02*
Y881507D01*
X1337310Y861314D02*
X1350010D01*
X1343660Y853694D02*
X1344930Y861314D01*
X1343660Y853694D02*
X1346200Y861314D01*
X1343660Y853694D02*
X1347470Y861314D01*
X1343660Y853694D02*
X1348740Y861314D01*
X1343660Y853694D02*
X1350010Y861314D01*
X1342390D02*
X1343660Y853694D01*
X1341120Y861314D02*
X1343660Y853694D01*
X1339850Y861314D02*
X1343660Y853694D01*
X1338580Y861314D02*
X1343660Y853694D01*
X1337310Y861314D02*
X1343660Y853694D01*
X1337310D02*
X1350010D01*
X1343660Y851154D02*
Y863854D01*
X1335278Y881507D02*
X1341730D01*
X1425200Y834770D02*
X1437900D01*
X1431550Y828420D02*
Y841120D01*
X1510157Y738594D02*
Y842226D01*
Y738594D02*
X1643761D01*
Y842226D01*
X1510157D02*
X1643761D01*
X1394968Y916686D02*
Y945134D01*
X1444752Y916686D02*
Y927862D01*
Y933958D01*
Y945134D01*
X1350270Y956690D02*
X1362970D01*
X1356620Y950340D02*
Y963040D01*
X1602886Y944880D02*
X1615586D01*
X1609236Y938530D02*
Y951230D01*
X1425200Y1048892D02*
X1437900D01*
X1431550Y1042542D02*
Y1055242D01*
X1370990Y1046353D02*
X1377442D01*
X1335278D02*
X1341730D01*
X1335278D02*
Y1094867D01*
X1370990D02*
X1377442D01*
Y1046353D02*
Y1094867D01*
X1337310Y1074674D02*
X1350010D01*
X1343660Y1067054D02*
X1344930Y1074674D01*
X1343660Y1067054D02*
X1346200Y1074674D01*
X1343660Y1067054D02*
X1347470Y1074674D01*
X1343660Y1067054D02*
X1348740Y1074674D01*
X1343660Y1067054D02*
X1350010Y1074674D01*
X1342390D02*
X1343660Y1067054D01*
X1341120Y1074674D02*
X1343660Y1067054D01*
X1339850Y1074674D02*
X1343660Y1067054D01*
X1338580Y1074674D02*
X1343660Y1067054D01*
X1337310Y1074674D02*
X1343660Y1067054D01*
X1337310D02*
X1350010D01*
X1343660Y1064514D02*
Y1077214D01*
X1335278Y1094867D02*
X1341730D01*
X1394968Y1126236D02*
Y1154684D01*
X1444752Y1126236D02*
Y1137412D01*
Y1143508D01*
Y1154684D01*
X1510157Y1187234D02*
Y1290866D01*
Y1187234D02*
X1643761D01*
Y1290866D01*
X1510157D02*
X1643761D01*
X1370990Y1274953D02*
X1377442D01*
X1335278D02*
X1341730D01*
X1335278D02*
Y1323467D01*
X1370990D02*
X1377442D01*
Y1274953D02*
Y1323467D01*
X1337310Y1303274D02*
X1350010D01*
X1343660Y1295654D02*
X1344930Y1303274D01*
X1343660Y1295654D02*
X1346200Y1303274D01*
X1343660Y1295654D02*
X1347470Y1303274D01*
X1343660Y1295654D02*
X1348740Y1303274D01*
X1343660Y1295654D02*
X1350010Y1303274D01*
X1342390D02*
X1343660Y1295654D01*
X1341120Y1303274D02*
X1343660Y1295654D01*
X1339850Y1303274D02*
X1343660Y1295654D01*
X1338580Y1303274D02*
X1343660Y1295654D01*
X1337310Y1303274D02*
X1343660Y1295654D01*
X1337310D02*
X1350010D01*
X1343660Y1293114D02*
Y1305814D01*
X1335278Y1323467D02*
X1341730D01*
X1425200Y1281810D02*
X1437900D01*
X1431550Y1275460D02*
Y1288160D01*
X1394968Y1364996D02*
Y1393444D01*
X1444752Y1364996D02*
Y1376172D01*
Y1382268D01*
Y1393444D01*
X1425200Y1498980D02*
X1437900D01*
X1431550Y1492630D02*
Y1505330D01*
X1372260Y1503553D02*
X1378712D01*
X1336548D02*
X1343000D01*
X1336548D02*
Y1552067D01*
X1372260D02*
X1378712D01*
Y1503553D02*
Y1552067D01*
X1338580Y1531874D02*
X1351280D01*
X1344930Y1524254D02*
X1346200Y1531874D01*
X1344930Y1524254D02*
X1347470Y1531874D01*
X1344930Y1524254D02*
X1348740Y1531874D01*
X1344930Y1524254D02*
X1350010Y1531874D01*
X1344930Y1524254D02*
X1351280Y1531874D01*
X1343660D02*
X1344930Y1524254D01*
X1342390Y1531874D02*
X1344930Y1524254D01*
X1341120Y1531874D02*
X1344930Y1524254D01*
X1339850Y1531874D02*
X1344930Y1524254D01*
X1338580Y1531874D02*
X1344930Y1524254D01*
X1338580D02*
X1351280D01*
X1344930Y1521714D02*
Y1534414D01*
X1336548Y1552067D02*
X1343000D01*
X1394968Y1579626D02*
Y1608074D01*
X1444752Y1579626D02*
Y1590802D01*
Y1596898D01*
Y1608074D01*
X1651400Y1488586D02*
Y1501286D01*
X1645050Y1494936D02*
X1657750D01*
X1602886Y1391920D02*
X1615586D01*
X1609236Y1385570D02*
Y1398270D01*
X1440526Y1664780D02*
X1442375D01*
X1440526Y1675320D02*
X1442375D01*
X1425200Y1735962D02*
X1437900D01*
X1431550Y1729612D02*
Y1742312D01*
X1510157Y1638084D02*
Y1741716D01*
Y1638084D02*
X1643761D01*
Y1741716D01*
X1510157D02*
X1643761D01*
X1372260Y1741043D02*
X1378712D01*
X1336548D02*
X1343000D01*
X1336548D02*
Y1789557D01*
X1372260D02*
X1378712D01*
Y1741043D02*
Y1789557D01*
X1338580Y1769364D02*
X1351280D01*
X1344930Y1761744D02*
X1346200Y1769364D01*
X1344930Y1761744D02*
X1347470Y1769364D01*
X1344930Y1761744D02*
X1348740Y1769364D01*
X1344930Y1761744D02*
X1350010Y1769364D01*
X1344930Y1761744D02*
X1351280Y1769364D01*
X1343660D02*
X1344930Y1761744D01*
X1342390Y1769364D02*
X1344930Y1761744D01*
X1341120Y1769364D02*
X1344930Y1761744D01*
X1339850Y1769364D02*
X1344930Y1761744D01*
X1338580Y1769364D02*
X1344930Y1761744D01*
X1338580D02*
X1351280D01*
X1344930Y1759204D02*
Y1771904D01*
X1336548Y1789557D02*
X1343000D01*
X1394968Y1818386D02*
Y1846834D01*
X1444752Y1818386D02*
Y1829562D01*
Y1835658D01*
Y1846834D01*
D54*
X676047Y1327282D02*
G03*
X676047Y1327282I-35127J0D01*
G01*
X1031646Y872622D02*
G03*
X1031646Y872622I-35127J0D01*
G01*
X1549807Y1049152D02*
G03*
X1549807Y1049152I-35127J0D01*
G01*
X345846Y972190D02*
G03*
X345846Y972190I-35127J0D01*
G01*
X1819046Y1980570D02*
G03*
X1819046Y1980570I-35127J0D01*
G01*
X79146D02*
G03*
X79146Y1980570I-35127J0D01*
G01*
X1812697Y45090D02*
G03*
X1812697Y45090I-35127J0D01*
G01*
X79577Y44450D02*
G03*
X79577Y44450I-35127J0D01*
G01*
X1199950Y49530D02*
Y328530D01*
X679950D02*
X1199950D01*
X679950Y49530D02*
Y328530D01*
Y49530D02*
X1199950D01*
X751400Y1815360D02*
X774650D01*
X711650Y1841360D02*
X737650Y1815360D01*
X711650Y1841360D02*
Y1979360D01*
X791650Y1832360D02*
X794650Y1835360D01*
X783650Y1824360D02*
X793400Y1834110D01*
X794650Y1835360D02*
X800650Y1841360D01*
Y1979360D01*
X711650Y1979360D02*
X711650Y1979360D01*
X800650D01*
X737650Y1815360D02*
X751400D01*
X774650D02*
X783650Y1824360D01*
X277630Y213760D02*
X368630D01*
X262630Y228760D02*
X277630Y213760D01*
X262630Y228760D02*
Y251760D01*
X368630Y213760D02*
Y254010D01*
X262630Y251760D02*
X277630Y266760D01*
X368630Y254010D02*
Y266760D01*
X277630D02*
X368630D01*
X274290Y656990D02*
X365290D01*
X259290Y671990D02*
X274290Y656990D01*
X259290Y671990D02*
Y694990D01*
X365290Y656990D02*
Y697240D01*
X259290Y694990D02*
X274290Y709990D01*
X365290Y697240D02*
Y709990D01*
X274290D02*
X365290D01*
X274290Y1098950D02*
X365290D01*
X259290Y1113950D02*
X274290Y1098950D01*
X259290Y1113950D02*
Y1136950D01*
X365290Y1098950D02*
Y1139200D01*
X259290Y1136950D02*
X274290Y1151950D01*
X365290Y1139200D02*
Y1151950D01*
X274290D02*
X365290D01*
X274290Y1542180D02*
X365290D01*
X259290Y1557180D02*
X274290Y1542180D01*
X259290Y1557180D02*
Y1580180D01*
X365290Y1542180D02*
Y1582430D01*
X259290Y1580180D02*
X274290Y1595180D01*
X365290Y1582430D02*
Y1595180D01*
X274290D02*
X365290D01*
X1465250Y474580D02*
X1556250D01*
X1571250Y459580D01*
Y436580D02*
Y459580D01*
X1465250Y434330D02*
Y474580D01*
X1556250Y421580D02*
X1571250Y436580D01*
X1465250Y421580D02*
Y434330D01*
Y421580D02*
X1556250D01*
X1466050Y921620D02*
X1557050D01*
X1572050Y906620D01*
Y883620D02*
Y906620D01*
X1466050Y881370D02*
Y921620D01*
X1557050Y868620D02*
X1572050Y883620D01*
X1466050Y868620D02*
Y881370D01*
Y868620D02*
X1557050D01*
X1466050Y1369930D02*
X1557050D01*
X1572050Y1354930D01*
Y1331930D02*
Y1354930D01*
X1466050Y1329680D02*
Y1369930D01*
X1557050Y1316930D02*
X1572050Y1331930D01*
X1466050Y1316930D02*
Y1329680D01*
Y1316930D02*
X1557050D01*
X1466050Y1822050D02*
X1557050D01*
X1572050Y1807050D01*
Y1784050D02*
Y1807050D01*
X1466050Y1781800D02*
Y1822050D01*
X1557050Y1769050D02*
X1572050Y1784050D01*
X1466050Y1769050D02*
Y1781800D01*
Y1769050D02*
X1557050D01*
X576323Y1980688D02*
X573783Y1983227D01*
X568705D01*
X566166Y1980688D01*
Y1970531D01*
X568705Y1967992D01*
X573783D01*
X576323Y1970531D01*
X581401Y1980688D02*
X583940Y1983227D01*
X589019D01*
X591558Y1980688D01*
Y1978149D01*
X589019Y1975609D01*
X586479D01*
X589019D01*
X591558Y1973070D01*
Y1970531D01*
X589019Y1967992D01*
X583940D01*
X581401Y1970531D01*
X606793Y1983227D02*
X596636D01*
Y1975609D01*
X601715Y1978149D01*
X604254D01*
X606793Y1975609D01*
Y1970531D01*
X604254Y1967992D01*
X599175D01*
X596636Y1970531D01*
X538480Y101600D02*
Y116835D01*
X546097D01*
X548637Y114296D01*
Y109218D01*
X546097Y106678D01*
X538480D01*
X543558D02*
X548637Y101600D01*
X563872Y116835D02*
X553715D01*
Y109218D01*
X558793Y111757D01*
X561333D01*
X563872Y109218D01*
Y104139D01*
X561333Y101600D01*
X556254D01*
X553715Y104139D01*
X579107Y116835D02*
X574029Y114296D01*
X568950Y109218D01*
Y104139D01*
X571489Y101600D01*
X576568D01*
X579107Y104139D01*
Y106678D01*
X576568Y109218D01*
X568950D01*
X541020Y48260D02*
Y63495D01*
X548638D01*
X551177Y60956D01*
Y55877D01*
X548638Y53338D01*
X541020D01*
X546098D02*
X551177Y48260D01*
X566412Y63495D02*
X556255D01*
Y55877D01*
X561333Y58417D01*
X563873D01*
X566412Y55877D01*
Y50799D01*
X563873Y48260D01*
X558794D01*
X556255Y50799D01*
X571490Y63495D02*
X581647D01*
Y60956D01*
X571490Y50799D01*
Y48260D01*
X234955Y35560D02*
X247651D01*
X250190Y38099D01*
Y43177D01*
X247651Y45717D01*
X234955D01*
X250190Y60952D02*
Y50795D01*
X240033Y60952D01*
X237494D01*
X234955Y58413D01*
Y53334D01*
X237494Y50795D01*
X247651Y66030D02*
X250190Y68569D01*
Y73648D01*
X247651Y76187D01*
X237494D01*
X234955Y73648D01*
Y68569D01*
X237494Y66030D01*
X240033D01*
X242572Y68569D01*
Y76187D01*
X419100Y67305D02*
Y57148D01*
X424178Y52070D01*
X429257Y57148D01*
Y67305D01*
X434335D02*
Y52070D01*
X441953D01*
X444492Y54609D01*
Y64766D01*
X441953Y67305D01*
X434335D01*
X449570D02*
X459727D01*
Y64766D01*
X449570Y54609D01*
Y52070D01*
X444500Y116835D02*
Y106678D01*
X449578Y101600D01*
X454657Y106678D01*
Y116835D01*
X459735D02*
X469892D01*
X464813D01*
Y101600D01*
X474970Y114296D02*
X477509Y116835D01*
X482588D01*
X485127Y114296D01*
Y111757D01*
X482588Y109218D01*
X480048D01*
X482588D01*
X485127Y106678D01*
Y104139D01*
X482588Y101600D01*
X477509D01*
X474970Y104139D01*
X490205Y114296D02*
X492744Y116835D01*
X497823D01*
X500362Y114296D01*
Y111757D01*
X497823Y109218D01*
X495284D01*
X497823D01*
X500362Y106678D01*
Y104139D01*
X497823Y101600D01*
X492744D01*
X490205Y104139D01*
X845820Y2013253D02*
X852485Y2019917D01*
X865814D01*
X872478Y2013253D01*
Y2006588D01*
X865814Y1999924D01*
X872478Y1993259D01*
Y1986595D01*
X865814Y1979930D01*
X852485D01*
X845820Y1986595D01*
Y1993259D01*
X852485Y1999924D01*
X845820Y2006588D01*
Y2013253D01*
X852485Y1999924D02*
X865814D01*
X925794Y2019917D02*
Y1979930D01*
X945788D01*
X952452Y1986595D01*
Y2013253D01*
X945788Y2019917D01*
X925794D01*
X992439Y2013253D02*
X985775Y2019917D01*
X972446D01*
X965781Y2013253D01*
Y1986595D01*
X972446Y1979930D01*
X985775D01*
X992439Y1986595D01*
X1045755Y1979930D02*
Y2006588D01*
X1052420D01*
X1059084Y1999924D01*
Y1979930D01*
Y1999924D01*
X1065749Y2006588D01*
X1072413Y1999924D01*
Y1979930D01*
X1092407D02*
X1105736D01*
X1112400Y1986595D01*
Y1999924D01*
X1105736Y2006588D01*
X1092407D01*
X1085742Y1999924D01*
Y1986595D01*
X1092407Y1979930D01*
X1132394Y2013253D02*
Y2006588D01*
X1125730D01*
X1139059D01*
X1132394D01*
Y1986595D01*
X1139059Y1979930D01*
X1165716D02*
X1179046D01*
X1185710Y1986595D01*
Y1999924D01*
X1179046Y2006588D01*
X1165716D01*
X1159052Y1999924D01*
Y1986595D01*
X1165716Y1979930D01*
X1199039Y2006588D02*
Y1979930D01*
Y1993259D01*
X1205704Y1999924D01*
X1212368Y2006588D01*
X1219033D01*
X1239026Y1979930D02*
X1259020D01*
X1265684Y1986595D01*
X1259020Y1993259D01*
X1245691D01*
X1239026Y1999924D01*
X1245691Y2006588D01*
X1265684D01*
X1345658D02*
X1325665D01*
X1319000Y1999924D01*
Y1986595D01*
X1325665Y1979930D01*
X1345658D01*
X1365652D02*
X1378981D01*
X1385645Y1986595D01*
Y1999924D01*
X1378981Y2006588D01*
X1365652D01*
X1358987Y1999924D01*
Y1986595D01*
X1365652Y1979930D01*
X1398974D02*
Y2006588D01*
X1418968D01*
X1425632Y1999924D01*
Y1979930D01*
X1445626Y2013253D02*
Y2006588D01*
X1438961D01*
X1452290D01*
X1445626D01*
Y1986595D01*
X1452290Y1979930D01*
X1472284Y2006588D02*
Y1979930D01*
Y1993259D01*
X1478949Y1999924D01*
X1485613Y2006588D01*
X1492278D01*
X1518936Y1979930D02*
X1532265D01*
X1538929Y1986595D01*
Y1999924D01*
X1532265Y2006588D01*
X1518936D01*
X1512271Y1999924D01*
Y1986595D01*
X1518936Y1979930D01*
X1552258D02*
X1565587D01*
X1558923D01*
Y2019917D01*
X1552258D01*
X1585581Y1979930D02*
X1598910D01*
X1592245D01*
Y2019917D01*
X1585581D01*
X1638897Y1979930D02*
X1625568D01*
X1618903Y1986595D01*
Y1999924D01*
X1625568Y2006588D01*
X1638897D01*
X1645561Y1999924D01*
Y1993259D01*
X1618903D01*
X1658890Y2006588D02*
Y1979930D01*
Y1993259D01*
X1665555Y1999924D01*
X1672219Y2006588D01*
X1678884D01*
X135890Y2002137D02*
Y1975479D01*
X149219Y1962150D01*
X162548Y1975479D01*
Y2002137D01*
X175877D02*
Y1975479D01*
X189206Y1962150D01*
X202535Y1975479D01*
Y2002137D01*
X215864D02*
Y1962150D01*
Y1975479D01*
X242522Y2002137D01*
X222529Y1982144D01*
X242522Y1962150D01*
X322496Y1995473D02*
X315832Y2002137D01*
X302503D01*
X295838Y1995473D01*
Y1968815D01*
X302503Y1962150D01*
X315832D01*
X322496Y1968815D01*
X342490Y1962150D02*
X355819D01*
X362483Y1968815D01*
Y1982144D01*
X355819Y1988808D01*
X342490D01*
X335825Y1982144D01*
Y1968815D01*
X342490Y1962150D01*
X375812Y1988808D02*
Y1962150D01*
Y1975479D01*
X382477Y1982144D01*
X389141Y1988808D01*
X395806D01*
X415799Y1948821D02*
Y1988808D01*
X435793D01*
X442458Y1982144D01*
Y1968815D01*
X435793Y1962150D01*
X415799D01*
X455787D02*
Y1968815D01*
X462451D01*
Y1962150D01*
X455787D01*
D55*
X1123950Y1700475D02*
G03*
X1123950Y1700475I-3810J0D01*
G01*
X1187450D02*
G03*
X1187450Y1700475I-3810J0D01*
G01*
D56*
X1124560Y1802290D02*
Y1822290D01*
X1134790Y1812290D01*
X1124560Y1802290D02*
X1134790Y1812290D01*
X669580Y1632610D02*
X689580D01*
X679580Y1622380D02*
X689580Y1632610D01*
X669580D02*
X679580Y1622380D01*
X861220Y1631340D02*
X881220D01*
X871220Y1621110D02*
X881220Y1631340D01*
X861220D02*
X871220Y1621110D01*
D57*
X1103884Y1831340D02*
X1149096D01*
X1103884Y1793240D02*
X1149096D01*
X698630Y1608074D02*
Y1653286D01*
X660530Y1608074D02*
Y1653286D01*
X890270Y1606804D02*
Y1652016D01*
X852170Y1606804D02*
Y1652016D01*
D58*
X463540Y232180D02*
Y236240D01*
X506740D01*
Y232180D02*
Y236240D01*
X463540Y200640D02*
Y204700D01*
Y200640D02*
X506740D01*
Y204700D01*
X478780Y469670D02*
Y473730D01*
X521980D01*
Y469670D02*
Y473730D01*
X478780Y438130D02*
Y442190D01*
Y438130D02*
X521980D01*
Y442190D01*
X471160Y657630D02*
Y661690D01*
X514360D01*
Y657630D02*
Y661690D01*
X471160Y626090D02*
Y630150D01*
Y626090D02*
X514360D01*
Y630150D01*
X474970Y897660D02*
Y901720D01*
X518170D01*
Y897660D02*
Y901720D01*
X474970Y866120D02*
Y870180D01*
Y866120D02*
X518170D01*
Y870180D01*
X474970Y1118640D02*
Y1122700D01*
X518170D01*
Y1118640D02*
Y1122700D01*
X474970Y1087100D02*
Y1091160D01*
Y1087100D02*
X518170D01*
Y1091160D01*
X474970Y1349780D02*
Y1353840D01*
X518170D01*
Y1349780D02*
Y1353840D01*
X474970Y1318240D02*
Y1322300D01*
Y1318240D02*
X518170D01*
Y1322300D01*
X583130Y474370D02*
Y1444370D01*
X1243130Y474370D02*
Y1444370D01*
X583130D02*
X1243130D01*
X583130Y474370D02*
X1243130D01*
X474970Y1552980D02*
Y1557040D01*
X518170D01*
Y1552980D02*
Y1557040D01*
X474970Y1521440D02*
Y1525500D01*
Y1521440D02*
X518170D01*
Y1525500D01*
X476240Y1790470D02*
Y1794530D01*
X519440D01*
Y1790470D02*
Y1794530D01*
X476240Y1758930D02*
Y1762990D01*
Y1758930D02*
X519440D01*
Y1762990D01*
X619780Y1650660D02*
Y1680660D01*
X649780Y1650660D02*
Y1680660D01*
X810150Y1646740D02*
Y1676740D01*
X840150Y1646740D02*
Y1676740D01*
X1071540Y1749950D02*
X1101540D01*
X1071540Y1779950D02*
X1101540D01*
X1348750Y212070D02*
Y216130D01*
X1305550Y212070D02*
X1348750D01*
X1305550D02*
Y216130D01*
X1348750Y243610D02*
Y247670D01*
X1305550D02*
X1348750D01*
X1305550Y243610D02*
Y247670D01*
X1348750Y448290D02*
Y452350D01*
X1305550Y448290D02*
X1348750D01*
X1305550D02*
Y452350D01*
X1348750Y479830D02*
Y483890D01*
X1305550D02*
X1348750D01*
X1305550Y479830D02*
Y483890D01*
X1348750Y657840D02*
Y661900D01*
X1305550Y657840D02*
X1348750D01*
X1305550D02*
Y661900D01*
X1348750Y689380D02*
Y693440D01*
X1305550D02*
X1348750D01*
X1305550Y689380D02*
Y693440D01*
X1353830Y897870D02*
Y901930D01*
X1310630Y897870D02*
X1353830D01*
X1310630D02*
Y901930D01*
X1353830Y929410D02*
Y933470D01*
X1310630D02*
X1353830D01*
X1310630Y929410D02*
Y933470D01*
X1348750Y1106150D02*
Y1110210D01*
X1305550Y1106150D02*
X1348750D01*
X1305550D02*
Y1110210D01*
X1348750Y1137690D02*
Y1141750D01*
X1305550D02*
X1348750D01*
X1305550Y1137690D02*
Y1141750D01*
X1348750Y1343640D02*
Y1347700D01*
X1305550Y1343640D02*
X1348750D01*
X1305550D02*
Y1347700D01*
X1348750Y1375180D02*
Y1379240D01*
X1305550D02*
X1348750D01*
X1305550Y1375180D02*
Y1379240D01*
X1357640Y1569700D02*
Y1573760D01*
X1314440Y1569700D02*
X1357640D01*
X1314440D02*
Y1573760D01*
X1357640Y1601240D02*
Y1605300D01*
X1314440D02*
X1357640D01*
X1314440Y1601240D02*
Y1605300D01*
X1357640Y1811000D02*
Y1815060D01*
X1314440Y1811000D02*
X1357640D01*
X1314440D02*
Y1815060D01*
X1357640Y1842540D02*
Y1846600D01*
X1314440D02*
X1357640D01*
X1314440Y1842540D02*
Y1846600D01*
D59*
X1235710Y287020D02*
Y297017D01*
X1240708D01*
X1242374Y295351D01*
Y292018D01*
X1240708Y290352D01*
X1235710D01*
X1239042D02*
X1242374Y287020D01*
X1252371Y297017D02*
X1245707D01*
Y292018D01*
X1249039Y293685D01*
X1250705D01*
X1252371Y292018D01*
Y288686D01*
X1250705Y287020D01*
X1247373D01*
X1245707Y288686D01*
X1262368Y297017D02*
X1255704D01*
Y292018D01*
X1259036Y293685D01*
X1260702D01*
X1262368Y292018D01*
Y288686D01*
X1260702Y287020D01*
X1257370D01*
X1255704Y288686D01*
X1235710Y325120D02*
Y335117D01*
X1240708D01*
X1242374Y333451D01*
Y330118D01*
X1240708Y328452D01*
X1235710D01*
X1239042D02*
X1242374Y325120D01*
X1252371Y335117D02*
X1245707D01*
Y330118D01*
X1249039Y331785D01*
X1250705D01*
X1252371Y330118D01*
Y326786D01*
X1250705Y325120D01*
X1247373D01*
X1245707Y326786D01*
X1260702Y325120D02*
Y335117D01*
X1255704Y330118D01*
X1262368D01*
D60*
X1404935Y196291D02*
X1403268Y197957D01*
X1399936D01*
X1398270Y196291D01*
Y189626D01*
X1399936Y187960D01*
X1403268D01*
X1404935Y189626D01*
X1408267Y187960D02*
X1411599D01*
X1409933D01*
Y197957D01*
X1408267Y196291D01*
X1457005Y610311D02*
X1455338Y611977D01*
X1452006D01*
X1450340Y610311D01*
Y603646D01*
X1452006Y601980D01*
X1455338D01*
X1457005Y603646D01*
X1467001Y601980D02*
X1460337D01*
X1467001Y608644D01*
Y610311D01*
X1465335Y611977D01*
X1462003D01*
X1460337Y610311D01*
X1455735Y201371D02*
X1454068Y203037D01*
X1450736D01*
X1449070Y201371D01*
Y194706D01*
X1450736Y193040D01*
X1454068D01*
X1455735Y194706D01*
X1459067Y201371D02*
X1460733Y203037D01*
X1464065D01*
X1465731Y201371D01*
Y199704D01*
X1464065Y198038D01*
X1462399D01*
X1464065D01*
X1465731Y196372D01*
Y194706D01*
X1464065Y193040D01*
X1460733D01*
X1459067Y194706D01*
X1460815Y648411D02*
X1459148Y650077D01*
X1455816D01*
X1454150Y648411D01*
Y641746D01*
X1455816Y640080D01*
X1459148D01*
X1460815Y641746D01*
X1469145Y640080D02*
Y650077D01*
X1464147Y645078D01*
X1470811D01*
X1318320Y326593D02*
X1316654Y328259D01*
X1313322D01*
X1311656Y326593D01*
Y319928D01*
X1313322Y318262D01*
X1316654D01*
X1318320Y319928D01*
X1328317Y328259D02*
X1321653D01*
Y323260D01*
X1324985Y324926D01*
X1326651D01*
X1328317Y323260D01*
Y319928D01*
X1326651Y318262D01*
X1323319D01*
X1321653Y319928D01*
X1318320Y773633D02*
X1316654Y775299D01*
X1313322D01*
X1311656Y773633D01*
Y766968D01*
X1313322Y765302D01*
X1316654D01*
X1318320Y766968D01*
X1328317Y775299D02*
X1324985Y773633D01*
X1321653Y770300D01*
Y766968D01*
X1323319Y765302D01*
X1326651D01*
X1328317Y766968D01*
Y768634D01*
X1326651Y770300D01*
X1321653D01*
X1374454Y226771D02*
X1372788Y228437D01*
X1369456D01*
X1367790Y226771D01*
Y220106D01*
X1369456Y218440D01*
X1372788D01*
X1374454Y220106D01*
X1377787Y228437D02*
X1384451D01*
Y226771D01*
X1377787Y220106D01*
Y218440D01*
X1375724Y671271D02*
X1374058Y672937D01*
X1370726D01*
X1369060Y671271D01*
Y664606D01*
X1370726Y662940D01*
X1374058D01*
X1375724Y664606D01*
X1379057Y671271D02*
X1380723Y672937D01*
X1384055D01*
X1385721Y671271D01*
Y669604D01*
X1384055Y667938D01*
X1385721Y666272D01*
Y664606D01*
X1384055Y662940D01*
X1380723D01*
X1379057Y664606D01*
Y666272D01*
X1380723Y667938D01*
X1379057Y669604D01*
Y671271D01*
X1380723Y667938D02*
X1384055D01*
X1563685Y158191D02*
X1562018Y159857D01*
X1558686D01*
X1557020Y158191D01*
Y151526D01*
X1558686Y149860D01*
X1562018D01*
X1563685Y151526D01*
X1567017D02*
X1568683Y149860D01*
X1572015D01*
X1573681Y151526D01*
Y158191D01*
X1572015Y159857D01*
X1568683D01*
X1567017Y158191D01*
Y156524D01*
X1568683Y154858D01*
X1573681D01*
X1594418Y718007D02*
X1592752Y719673D01*
X1589420D01*
X1587754Y718007D01*
Y711342D01*
X1589420Y709676D01*
X1592752D01*
X1594418Y711342D01*
X1597751Y709676D02*
X1601083D01*
X1599417D01*
Y719673D01*
X1597751Y718007D01*
X1606081D02*
X1607748Y719673D01*
X1611080D01*
X1612746Y718007D01*
Y711342D01*
X1611080Y709676D01*
X1607748D01*
X1606081Y711342D01*
Y718007D01*
X1035365Y1481531D02*
X1033698Y1483197D01*
X1030366D01*
X1028700Y1481531D01*
Y1474866D01*
X1030366Y1473200D01*
X1033698D01*
X1035365Y1474866D01*
X1038697Y1473200D02*
X1042029D01*
X1040363D01*
Y1483197D01*
X1038697Y1481531D01*
X1047027Y1473200D02*
X1050360D01*
X1048694D01*
Y1483197D01*
X1047027Y1481531D01*
X1392997Y364947D02*
X1391330Y366613D01*
X1387998D01*
X1386332Y364947D01*
Y358282D01*
X1387998Y356616D01*
X1391330D01*
X1392997Y358282D01*
X1396329Y356616D02*
X1399661D01*
X1397995D01*
Y366613D01*
X1396329Y364947D01*
X1411324Y356616D02*
X1404659D01*
X1411324Y363280D01*
Y364947D01*
X1409658Y366613D01*
X1406326D01*
X1404659Y364947D01*
X1364294Y804621D02*
X1362628Y806287D01*
X1359296D01*
X1357630Y804621D01*
Y797956D01*
X1359296Y796290D01*
X1362628D01*
X1364294Y797956D01*
X1367627Y796290D02*
X1370959D01*
X1369293D01*
Y806287D01*
X1367627Y804621D01*
X1375957D02*
X1377624Y806287D01*
X1380956D01*
X1382622Y804621D01*
Y802954D01*
X1380956Y801288D01*
X1379290D01*
X1380956D01*
X1382622Y799622D01*
Y797956D01*
X1380956Y796290D01*
X1377624D01*
X1375957Y797956D01*
X1128074Y1539951D02*
X1126408Y1541617D01*
X1123076D01*
X1121410Y1539951D01*
Y1533286D01*
X1123076Y1531620D01*
X1126408D01*
X1128074Y1533286D01*
X1131407Y1531620D02*
X1134739D01*
X1133073D01*
Y1541617D01*
X1131407Y1539951D01*
X1144736Y1531620D02*
Y1541617D01*
X1139737Y1536618D01*
X1146402D01*
X1392234Y437591D02*
X1390568Y439257D01*
X1387236D01*
X1385570Y437591D01*
Y430926D01*
X1387236Y429260D01*
X1390568D01*
X1392234Y430926D01*
X1395567Y429260D02*
X1398899D01*
X1397233D01*
Y439257D01*
X1395567Y437591D01*
X1410562Y439257D02*
X1403897D01*
Y434258D01*
X1407230Y435924D01*
X1408896D01*
X1410562Y434258D01*
Y430926D01*
X1408896Y429260D01*
X1405564D01*
X1403897Y430926D01*
X1392234Y887171D02*
X1390568Y888837D01*
X1387236D01*
X1385570Y887171D01*
Y880506D01*
X1387236Y878840D01*
X1390568D01*
X1392234Y880506D01*
X1395567Y878840D02*
X1398899D01*
X1397233D01*
Y888837D01*
X1395567Y887171D01*
X1410562Y888837D02*
X1407230Y887171D01*
X1403897Y883838D01*
Y880506D01*
X1405564Y878840D01*
X1408896D01*
X1410562Y880506D01*
Y882172D01*
X1408896Y883838D01*
X1403897D01*
X1443035Y427431D02*
X1441368Y429097D01*
X1438036D01*
X1436370Y427431D01*
Y420766D01*
X1438036Y419100D01*
X1441368D01*
X1443035Y420766D01*
X1446367Y419100D02*
X1449699D01*
X1448033D01*
Y429097D01*
X1446367Y427431D01*
X1454697Y429097D02*
X1461362D01*
Y427431D01*
X1454697Y420766D01*
Y419100D01*
X1444305Y873201D02*
X1442638Y874867D01*
X1439306D01*
X1437640Y873201D01*
Y866536D01*
X1439306Y864870D01*
X1442638D01*
X1444305Y866536D01*
X1447637Y864870D02*
X1450969D01*
X1449303D01*
Y874867D01*
X1447637Y873201D01*
X1455967D02*
X1457634Y874867D01*
X1460966D01*
X1462632Y873201D01*
Y871535D01*
X1460966Y869868D01*
X1462632Y868202D01*
Y866536D01*
X1460966Y864870D01*
X1457634D01*
X1455967Y866536D01*
Y868202D01*
X1457634Y869868D01*
X1455967Y871535D01*
Y873201D01*
X1457634Y869868D02*
X1460966D01*
X1318320Y562305D02*
X1316654Y563971D01*
X1313322D01*
X1311656Y562305D01*
Y555640D01*
X1313322Y553974D01*
X1316654D01*
X1318320Y555640D01*
X1321653Y553974D02*
X1324985D01*
X1323319D01*
Y563971D01*
X1321653Y562305D01*
X1329983Y555640D02*
X1331650Y553974D01*
X1334982D01*
X1336648Y555640D01*
Y562305D01*
X1334982Y563971D01*
X1331650D01*
X1329983Y562305D01*
Y560639D01*
X1331650Y558972D01*
X1336648D01*
X1375724Y990041D02*
X1374058Y991707D01*
X1370726D01*
X1369060Y990041D01*
Y983376D01*
X1370726Y981710D01*
X1374058D01*
X1375724Y983376D01*
X1385721Y981710D02*
X1379057D01*
X1385721Y988374D01*
Y990041D01*
X1384055Y991707D01*
X1380723D01*
X1379057Y990041D01*
X1389054D02*
X1390720Y991707D01*
X1394052D01*
X1395718Y990041D01*
Y983376D01*
X1394052Y981710D01*
X1390720D01*
X1389054Y983376D01*
Y990041D01*
X1374454Y464261D02*
X1372788Y465927D01*
X1369456D01*
X1367790Y464261D01*
Y457596D01*
X1369456Y455930D01*
X1372788D01*
X1374454Y457596D01*
X1384451Y455930D02*
X1377787D01*
X1384451Y462594D01*
Y464261D01*
X1382785Y465927D01*
X1379453D01*
X1377787Y464261D01*
X1387784Y455930D02*
X1391116D01*
X1389450D01*
Y465927D01*
X1387784Y464261D01*
X1368105Y954481D02*
X1366438Y956147D01*
X1363106D01*
X1361440Y954481D01*
Y947816D01*
X1363106Y946150D01*
X1366438D01*
X1368105Y947816D01*
X1378101Y946150D02*
X1371437D01*
X1378101Y952814D01*
Y954481D01*
X1376435Y956147D01*
X1373103D01*
X1371437Y954481D01*
X1388098Y946150D02*
X1381434D01*
X1388098Y952814D01*
Y954481D01*
X1386432Y956147D01*
X1383100D01*
X1381434Y954481D01*
X1562415Y508711D02*
X1560748Y510377D01*
X1557416D01*
X1555750Y508711D01*
Y502046D01*
X1557416Y500380D01*
X1560748D01*
X1562415Y502046D01*
X1572411Y500380D02*
X1565747D01*
X1572411Y507044D01*
Y508711D01*
X1570745Y510377D01*
X1567413D01*
X1565747Y508711D01*
X1575744D02*
X1577410Y510377D01*
X1580742D01*
X1582408Y508711D01*
Y507044D01*
X1580742Y505378D01*
X1579076D01*
X1580742D01*
X1582408Y503712D01*
Y502046D01*
X1580742Y500380D01*
X1577410D01*
X1575744Y502046D01*
X1556064Y958291D02*
X1554398Y959957D01*
X1551066D01*
X1549400Y958291D01*
Y951626D01*
X1551066Y949960D01*
X1554398D01*
X1556064Y951626D01*
X1566061Y949960D02*
X1559397D01*
X1566061Y956625D01*
Y958291D01*
X1564395Y959957D01*
X1561063D01*
X1559397Y958291D01*
X1574392Y949960D02*
Y959957D01*
X1569394Y954958D01*
X1576058D01*
X1427794Y1023061D02*
X1426128Y1024727D01*
X1422796D01*
X1421130Y1023061D01*
Y1016396D01*
X1422796Y1014730D01*
X1426128D01*
X1427794Y1016396D01*
X1437791Y1014730D02*
X1431127D01*
X1437791Y1021395D01*
Y1023061D01*
X1436125Y1024727D01*
X1432793D01*
X1431127Y1023061D01*
X1447788Y1024727D02*
X1441124D01*
Y1019728D01*
X1444456Y1021395D01*
X1446122D01*
X1447788Y1019728D01*
Y1016396D01*
X1446122Y1014730D01*
X1442790D01*
X1441124Y1016396D01*
X1437955Y1477721D02*
X1436288Y1479387D01*
X1432956D01*
X1431290Y1477721D01*
Y1471056D01*
X1432956Y1469390D01*
X1436288D01*
X1437955Y1471056D01*
X1447951Y1469390D02*
X1441287D01*
X1447951Y1476055D01*
Y1477721D01*
X1446285Y1479387D01*
X1442953D01*
X1441287Y1477721D01*
X1457948Y1479387D02*
X1454616Y1477721D01*
X1451284Y1474388D01*
Y1471056D01*
X1452950Y1469390D01*
X1456282D01*
X1457948Y1471056D01*
Y1472722D01*
X1456282Y1474388D01*
X1451284D01*
X1455735Y1100531D02*
X1454068Y1102197D01*
X1450736D01*
X1449070Y1100531D01*
Y1093866D01*
X1450736Y1092200D01*
X1454068D01*
X1455735Y1093866D01*
X1465731Y1092200D02*
X1459067D01*
X1465731Y1098865D01*
Y1100531D01*
X1464065Y1102197D01*
X1460733D01*
X1459067Y1100531D01*
X1469064Y1102197D02*
X1475728D01*
Y1100531D01*
X1469064Y1093866D01*
Y1092200D01*
X1462085Y1548841D02*
X1460418Y1550507D01*
X1457086D01*
X1455420Y1548841D01*
Y1542176D01*
X1457086Y1540510D01*
X1460418D01*
X1462085Y1542176D01*
X1472081Y1540510D02*
X1465417D01*
X1472081Y1547175D01*
Y1548841D01*
X1470415Y1550507D01*
X1467083D01*
X1465417Y1548841D01*
X1475414D02*
X1477080Y1550507D01*
X1480412D01*
X1482078Y1548841D01*
Y1547175D01*
X1480412Y1545508D01*
X1482078Y1543842D01*
Y1542176D01*
X1480412Y1540510D01*
X1477080D01*
X1475414Y1542176D01*
Y1543842D01*
X1477080Y1545508D01*
X1475414Y1547175D01*
Y1548841D01*
X1477080Y1545508D02*
X1480412D01*
X1318320Y1220165D02*
X1316654Y1221831D01*
X1313322D01*
X1311656Y1220165D01*
Y1213500D01*
X1313322Y1211834D01*
X1316654D01*
X1318320Y1213500D01*
X1328317Y1211834D02*
X1321653D01*
X1328317Y1218499D01*
Y1220165D01*
X1326651Y1221831D01*
X1323319D01*
X1321653Y1220165D01*
X1331650Y1213500D02*
X1333316Y1211834D01*
X1336648D01*
X1338314Y1213500D01*
Y1220165D01*
X1336648Y1221831D01*
X1333316D01*
X1331650Y1220165D01*
Y1218499D01*
X1333316Y1216832D01*
X1338314D01*
X1314510Y1684223D02*
X1312844Y1685889D01*
X1309512D01*
X1307846Y1684223D01*
Y1677558D01*
X1309512Y1675892D01*
X1312844D01*
X1314510Y1677558D01*
X1317843Y1684223D02*
X1319509Y1685889D01*
X1322841D01*
X1324507Y1684223D01*
Y1682556D01*
X1322841Y1680890D01*
X1321175D01*
X1322841D01*
X1324507Y1679224D01*
Y1677558D01*
X1322841Y1675892D01*
X1319509D01*
X1317843Y1677558D01*
X1327840Y1684223D02*
X1329506Y1685889D01*
X1332838D01*
X1334504Y1684223D01*
Y1677558D01*
X1332838Y1675892D01*
X1329506D01*
X1327840Y1677558D01*
Y1684223D01*
X1371915Y1122121D02*
X1370248Y1123787D01*
X1366916D01*
X1365250Y1122121D01*
Y1115456D01*
X1366916Y1113790D01*
X1370248D01*
X1371915Y1115456D01*
X1375247Y1122121D02*
X1376913Y1123787D01*
X1380245D01*
X1381911Y1122121D01*
Y1120454D01*
X1380245Y1118788D01*
X1378579D01*
X1380245D01*
X1381911Y1117122D01*
Y1115456D01*
X1380245Y1113790D01*
X1376913D01*
X1375247Y1115456D01*
X1385244Y1113790D02*
X1388576D01*
X1386910D01*
Y1123787D01*
X1385244Y1122121D01*
X1366835Y1613611D02*
X1365168Y1615277D01*
X1361836D01*
X1360170Y1613611D01*
Y1606946D01*
X1361836Y1605280D01*
X1365168D01*
X1366835Y1606946D01*
X1370167Y1613611D02*
X1371833Y1615277D01*
X1375165D01*
X1376831Y1613611D01*
Y1611944D01*
X1375165Y1610278D01*
X1373499D01*
X1375165D01*
X1376831Y1608612D01*
Y1606946D01*
X1375165Y1605280D01*
X1371833D01*
X1370167Y1606946D01*
X1386828Y1605280D02*
X1380164D01*
X1386828Y1611944D01*
Y1613611D01*
X1385162Y1615277D01*
X1381830D01*
X1380164Y1613611D01*
X1594418Y1165047D02*
X1592752Y1166713D01*
X1589420D01*
X1587754Y1165047D01*
Y1158382D01*
X1589420Y1156716D01*
X1592752D01*
X1594418Y1158382D01*
X1597751Y1165047D02*
X1599417Y1166713D01*
X1602749D01*
X1604415Y1165047D01*
Y1163381D01*
X1602749Y1161714D01*
X1601083D01*
X1602749D01*
X1604415Y1160048D01*
Y1158382D01*
X1602749Y1156716D01*
X1599417D01*
X1597751Y1158382D01*
X1607748Y1165047D02*
X1609414Y1166713D01*
X1612746D01*
X1614412Y1165047D01*
Y1163381D01*
X1612746Y1161714D01*
X1611080D01*
X1612746D01*
X1614412Y1160048D01*
Y1158382D01*
X1612746Y1156716D01*
X1609414D01*
X1607748Y1158382D01*
X1550984Y1543761D02*
X1549318Y1545427D01*
X1545986D01*
X1544320Y1543761D01*
Y1537096D01*
X1545986Y1535430D01*
X1549318D01*
X1550984Y1537096D01*
X1554317Y1543761D02*
X1555983Y1545427D01*
X1559315D01*
X1560981Y1543761D01*
Y1542095D01*
X1559315Y1540428D01*
X1557649D01*
X1559315D01*
X1560981Y1538762D01*
Y1537096D01*
X1559315Y1535430D01*
X1555983D01*
X1554317Y1537096D01*
X1569312Y1535430D02*
Y1545427D01*
X1564314Y1540428D01*
X1570978D01*
X1375724Y1252931D02*
X1374058Y1254597D01*
X1370726D01*
X1369060Y1252931D01*
Y1246266D01*
X1370726Y1244600D01*
X1374058D01*
X1375724Y1246266D01*
X1379057Y1252931D02*
X1380723Y1254597D01*
X1384055D01*
X1385721Y1252931D01*
Y1251264D01*
X1384055Y1249598D01*
X1382389D01*
X1384055D01*
X1385721Y1247932D01*
Y1246266D01*
X1384055Y1244600D01*
X1380723D01*
X1379057Y1246266D01*
X1395718Y1254597D02*
X1392386Y1252931D01*
X1389054Y1249598D01*
Y1246266D01*
X1390720Y1244600D01*
X1394052D01*
X1395718Y1246266D01*
Y1247932D01*
X1394052Y1249598D01*
X1389054D01*
X1390965Y1698701D02*
X1389298Y1700367D01*
X1385966D01*
X1384300Y1698701D01*
Y1692036D01*
X1385966Y1690370D01*
X1389298D01*
X1390965Y1692036D01*
X1394297Y1698701D02*
X1395963Y1700367D01*
X1399295D01*
X1400961Y1698701D01*
Y1697034D01*
X1399295Y1695368D01*
X1397629D01*
X1399295D01*
X1400961Y1693702D01*
Y1692036D01*
X1399295Y1690370D01*
X1395963D01*
X1394297Y1692036D01*
X1404294Y1700367D02*
X1410958D01*
Y1698701D01*
X1404294Y1692036D01*
Y1690370D01*
X1387155Y1334211D02*
X1385488Y1335877D01*
X1382156D01*
X1380490Y1334211D01*
Y1327546D01*
X1382156Y1325880D01*
X1385488D01*
X1387155Y1327546D01*
X1390487Y1334211D02*
X1392153Y1335877D01*
X1395485D01*
X1397151Y1334211D01*
Y1332545D01*
X1395485Y1330878D01*
X1393819D01*
X1395485D01*
X1397151Y1329212D01*
Y1327546D01*
X1395485Y1325880D01*
X1392153D01*
X1390487Y1327546D01*
X1400484Y1334211D02*
X1402150Y1335877D01*
X1405482D01*
X1407148Y1334211D01*
Y1332545D01*
X1405482Y1330878D01*
X1407148Y1329212D01*
Y1327546D01*
X1405482Y1325880D01*
X1402150D01*
X1400484Y1327546D01*
Y1329212D01*
X1402150Y1330878D01*
X1400484Y1332545D01*
Y1334211D01*
X1402150Y1330878D02*
X1405482D01*
X1396044Y1786331D02*
X1394378Y1787997D01*
X1391046D01*
X1389380Y1786331D01*
Y1779666D01*
X1391046Y1778000D01*
X1394378D01*
X1396044Y1779666D01*
X1399377Y1786331D02*
X1401043Y1787997D01*
X1404375D01*
X1406041Y1786331D01*
Y1784664D01*
X1404375Y1782998D01*
X1402709D01*
X1404375D01*
X1406041Y1781332D01*
Y1779666D01*
X1404375Y1778000D01*
X1401043D01*
X1399377Y1779666D01*
X1409374D02*
X1411040Y1778000D01*
X1414372D01*
X1416038Y1779666D01*
Y1786331D01*
X1414372Y1787997D01*
X1411040D01*
X1409374Y1786331D01*
Y1784664D01*
X1411040Y1782998D01*
X1416038D01*
X1439225Y1322781D02*
X1437558Y1324447D01*
X1434226D01*
X1432560Y1322781D01*
Y1316116D01*
X1434226Y1314450D01*
X1437558D01*
X1439225Y1316116D01*
X1447555Y1314450D02*
Y1324447D01*
X1442557Y1319448D01*
X1449221D01*
X1452554Y1322781D02*
X1454220Y1324447D01*
X1457552D01*
X1459218Y1322781D01*
Y1316116D01*
X1457552Y1314450D01*
X1454220D01*
X1452554Y1316116D01*
Y1322781D01*
X1453591Y1790385D02*
X1455257Y1792052D01*
Y1795384D01*
X1453591Y1797050D01*
X1446926D01*
X1445260Y1795384D01*
Y1792052D01*
X1446926Y1790385D01*
X1445260Y1782055D02*
X1455257D01*
X1450258Y1787053D01*
Y1780389D01*
X1445260Y1777056D02*
Y1773724D01*
Y1775390D01*
X1455257D01*
X1453591Y1777056D01*
X1058469Y1820224D02*
X1056803Y1818558D01*
Y1815226D01*
X1058469Y1813560D01*
X1065134D01*
X1066800Y1815226D01*
Y1818558D01*
X1065134Y1820224D01*
X1066800Y1828555D02*
X1056803D01*
X1061802Y1823557D01*
Y1830221D01*
X1066800Y1840218D02*
Y1833554D01*
X1060135Y1840218D01*
X1058469D01*
X1056803Y1838552D01*
Y1835220D01*
X1058469Y1833554D01*
X1318320Y1458163D02*
X1316654Y1459829D01*
X1313322D01*
X1311656Y1458163D01*
Y1451498D01*
X1313322Y1449832D01*
X1316654D01*
X1318320Y1451498D01*
X1326651Y1449832D02*
Y1459829D01*
X1321653Y1454830D01*
X1328317D01*
X1331650Y1458163D02*
X1333316Y1459829D01*
X1336648D01*
X1338314Y1458163D01*
Y1456496D01*
X1336648Y1454830D01*
X1334982D01*
X1336648D01*
X1338314Y1453164D01*
Y1451498D01*
X1336648Y1449832D01*
X1333316D01*
X1331650Y1451498D01*
X1314510Y1925015D02*
X1312844Y1926681D01*
X1309512D01*
X1307846Y1925015D01*
Y1918350D01*
X1309512Y1916684D01*
X1312844D01*
X1314510Y1918350D01*
X1322841Y1916684D02*
Y1926681D01*
X1317843Y1921682D01*
X1324507D01*
X1332838Y1916684D02*
Y1926681D01*
X1327840Y1921682D01*
X1334504D01*
X1369375Y1359611D02*
X1367708Y1361277D01*
X1364376D01*
X1362710Y1359611D01*
Y1352946D01*
X1364376Y1351280D01*
X1367708D01*
X1369375Y1352946D01*
X1377705Y1351280D02*
Y1361277D01*
X1372707Y1356278D01*
X1379371D01*
X1389368Y1361277D02*
X1382704D01*
Y1356278D01*
X1386036Y1357944D01*
X1387702D01*
X1389368Y1356278D01*
Y1352946D01*
X1387702Y1351280D01*
X1384370D01*
X1382704Y1352946D01*
X1369375Y1810461D02*
X1367708Y1812127D01*
X1364376D01*
X1362710Y1810461D01*
Y1803796D01*
X1364376Y1802130D01*
X1367708D01*
X1369375Y1803796D01*
X1377705Y1802130D02*
Y1812127D01*
X1372707Y1807128D01*
X1379371D01*
X1389368Y1812127D02*
X1386036Y1810461D01*
X1382704Y1807128D01*
Y1803796D01*
X1384370Y1802130D01*
X1387702D01*
X1389368Y1803796D01*
Y1805462D01*
X1387702Y1807128D01*
X1382704D01*
X1106230Y1908505D02*
X1104564Y1910171D01*
X1101232D01*
X1099566Y1908505D01*
Y1901840D01*
X1101232Y1900174D01*
X1104564D01*
X1106230Y1901840D01*
X1114561Y1900174D02*
Y1910171D01*
X1109563Y1905172D01*
X1116227D01*
X1119560Y1910171D02*
X1126224D01*
Y1908505D01*
X1119560Y1901840D01*
Y1900174D01*
X1566225Y1414221D02*
X1564558Y1415887D01*
X1561226D01*
X1559560Y1414221D01*
Y1407556D01*
X1561226Y1405890D01*
X1564558D01*
X1566225Y1407556D01*
X1574555Y1405890D02*
Y1415887D01*
X1569557Y1410888D01*
X1576221D01*
X1579554Y1414221D02*
X1581220Y1415887D01*
X1584552D01*
X1586218Y1414221D01*
Y1412554D01*
X1584552Y1410888D01*
X1586218Y1409222D01*
Y1407556D01*
X1584552Y1405890D01*
X1581220D01*
X1579554Y1407556D01*
Y1409222D01*
X1581220Y1410888D01*
X1579554Y1412554D01*
Y1414221D01*
X1581220Y1410888D02*
X1584552D01*
X1593148Y1921459D02*
X1591482Y1923125D01*
X1588150D01*
X1586484Y1921459D01*
Y1914794D01*
X1588150Y1913128D01*
X1591482D01*
X1593148Y1914794D01*
X1601479Y1913128D02*
Y1923125D01*
X1596481Y1918126D01*
X1603145D01*
X1606478Y1914794D02*
X1608144Y1913128D01*
X1611476D01*
X1613142Y1914794D01*
Y1921459D01*
X1611476Y1923125D01*
X1608144D01*
X1606478Y1921459D01*
Y1919792D01*
X1608144Y1918126D01*
X1613142D01*
X932495Y1819351D02*
X930828Y1821017D01*
X927496D01*
X925830Y1819351D01*
Y1812686D01*
X927496Y1811020D01*
X930828D01*
X932495Y1812686D01*
X942491Y1821017D02*
X935827D01*
Y1816018D01*
X939159Y1817684D01*
X940825D01*
X942491Y1816018D01*
Y1812686D01*
X940825Y1811020D01*
X937493D01*
X935827Y1812686D01*
X945824Y1819351D02*
X947490Y1821017D01*
X950822D01*
X952488Y1819351D01*
Y1812686D01*
X950822Y1811020D01*
X947490D01*
X945824Y1812686D01*
Y1819351D01*
X1016314Y1730451D02*
X1014648Y1732117D01*
X1011316D01*
X1009650Y1730451D01*
Y1723786D01*
X1011316Y1722120D01*
X1014648D01*
X1016314Y1723786D01*
X1026311Y1732117D02*
X1019647D01*
Y1727118D01*
X1022979Y1728784D01*
X1024645D01*
X1026311Y1727118D01*
Y1723786D01*
X1024645Y1722120D01*
X1021313D01*
X1019647Y1723786D01*
X1029644Y1722120D02*
X1032976D01*
X1031310D01*
Y1732117D01*
X1029644Y1730451D01*
X1013774Y1807921D02*
X1012108Y1809587D01*
X1008776D01*
X1007110Y1807921D01*
Y1801256D01*
X1008776Y1799590D01*
X1012108D01*
X1013774Y1801256D01*
X1023771Y1809587D02*
X1017107D01*
Y1804588D01*
X1020439Y1806254D01*
X1022105D01*
X1023771Y1804588D01*
Y1801256D01*
X1022105Y1799590D01*
X1018773D01*
X1017107Y1801256D01*
X1033768Y1799590D02*
X1027104D01*
X1033768Y1806254D01*
Y1807921D01*
X1032102Y1809587D01*
X1028770D01*
X1027104Y1807921D01*
X989644Y1757121D02*
X987978Y1758787D01*
X984646D01*
X982980Y1757121D01*
Y1750456D01*
X984646Y1748790D01*
X987978D01*
X989644Y1750456D01*
X999641Y1758787D02*
X992977D01*
Y1753788D01*
X996309Y1755455D01*
X997975D01*
X999641Y1753788D01*
Y1750456D01*
X997975Y1748790D01*
X994643D01*
X992977Y1750456D01*
X1002974Y1757121D02*
X1004640Y1758787D01*
X1007972D01*
X1009638Y1757121D01*
Y1755455D01*
X1007972Y1753788D01*
X1006306D01*
X1007972D01*
X1009638Y1752122D01*
Y1750456D01*
X1007972Y1748790D01*
X1004640D01*
X1002974Y1750456D01*
X1040689Y1802444D02*
X1039023Y1800778D01*
Y1797446D01*
X1040689Y1795780D01*
X1047354D01*
X1049020Y1797446D01*
Y1800778D01*
X1047354Y1802444D01*
X1039023Y1812441D02*
Y1805777D01*
X1044022D01*
X1042355Y1809109D01*
Y1810775D01*
X1044022Y1812441D01*
X1047354D01*
X1049020Y1810775D01*
Y1807443D01*
X1047354Y1805777D01*
X1049020Y1820772D02*
X1039023D01*
X1044022Y1815774D01*
Y1822438D01*
X1137727Y1800047D02*
X1136060Y1801713D01*
X1132728D01*
X1131062Y1800047D01*
Y1793382D01*
X1132728Y1791716D01*
X1136060D01*
X1137727Y1793382D01*
X1147723Y1801713D02*
X1141059D01*
Y1796714D01*
X1144391Y1798380D01*
X1146057D01*
X1147723Y1796714D01*
Y1793382D01*
X1146057Y1791716D01*
X1142725D01*
X1141059Y1793382D01*
X1157720Y1801713D02*
X1151056D01*
Y1796714D01*
X1154388Y1798380D01*
X1156054D01*
X1157720Y1796714D01*
Y1793382D01*
X1156054Y1791716D01*
X1152722D01*
X1151056Y1793382D01*
X1168715Y1800301D02*
X1167048Y1801967D01*
X1163716D01*
X1162050Y1800301D01*
Y1793636D01*
X1163716Y1791970D01*
X1167048D01*
X1168715Y1793636D01*
X1178711Y1801967D02*
X1172047D01*
Y1796968D01*
X1175379Y1798634D01*
X1177045D01*
X1178711Y1796968D01*
Y1793636D01*
X1177045Y1791970D01*
X1173713D01*
X1172047Y1793636D01*
X1188708Y1801967D02*
X1185376Y1800301D01*
X1182044Y1796968D01*
Y1793636D01*
X1183710Y1791970D01*
X1187042D01*
X1188708Y1793636D01*
Y1795302D01*
X1187042Y1796968D01*
X1182044D01*
X363535Y1867611D02*
X361868Y1869277D01*
X358536D01*
X356870Y1867611D01*
Y1860946D01*
X358536Y1859280D01*
X361868D01*
X363535Y1860946D01*
X373531Y1869277D02*
X366867D01*
Y1864278D01*
X370199Y1865945D01*
X371865D01*
X373531Y1864278D01*
Y1860946D01*
X371865Y1859280D01*
X368533D01*
X366867Y1860946D01*
X376864Y1869277D02*
X383528D01*
Y1867611D01*
X376864Y1860946D01*
Y1859280D01*
X392491Y1454353D02*
X390824Y1456019D01*
X387492D01*
X385826Y1454353D01*
Y1447688D01*
X387492Y1446022D01*
X390824D01*
X392491Y1447688D01*
X402487Y1456019D02*
X395823D01*
Y1451020D01*
X399155Y1452686D01*
X400821D01*
X402487Y1451020D01*
Y1447688D01*
X400821Y1446022D01*
X397489D01*
X395823Y1447688D01*
X405820Y1454353D02*
X407486Y1456019D01*
X410818D01*
X412484Y1454353D01*
Y1452686D01*
X410818Y1451020D01*
X412484Y1449354D01*
Y1447688D01*
X410818Y1446022D01*
X407486D01*
X405820Y1447688D01*
Y1449354D01*
X407486Y1451020D01*
X405820Y1452686D01*
Y1454353D01*
X407486Y1451020D02*
X410818D01*
X364804Y1819351D02*
X363138Y1821017D01*
X359806D01*
X358140Y1819351D01*
Y1812686D01*
X359806Y1811020D01*
X363138D01*
X364804Y1812686D01*
X374801Y1821017D02*
X368137D01*
Y1816018D01*
X371469Y1817684D01*
X373135D01*
X374801Y1816018D01*
Y1812686D01*
X373135Y1811020D01*
X369803D01*
X368137Y1812686D01*
X378134D02*
X379800Y1811020D01*
X383132D01*
X384798Y1812686D01*
Y1819351D01*
X383132Y1821017D01*
X379800D01*
X378134Y1819351D01*
Y1817684D01*
X379800Y1816018D01*
X384798D01*
X358455Y1372311D02*
X356788Y1373977D01*
X353456D01*
X351790Y1372311D01*
Y1365646D01*
X353456Y1363980D01*
X356788D01*
X358455Y1365646D01*
X368451Y1373977D02*
X365119Y1372311D01*
X361787Y1368978D01*
Y1365646D01*
X363453Y1363980D01*
X366785D01*
X368451Y1365646D01*
Y1367312D01*
X366785Y1368978D01*
X361787D01*
X371784Y1372311D02*
X373450Y1373977D01*
X376782D01*
X378448Y1372311D01*
Y1365646D01*
X376782Y1363980D01*
X373450D01*
X371784Y1365646D01*
Y1372311D01*
X537524Y1725371D02*
X535858Y1727037D01*
X532526D01*
X530860Y1725371D01*
Y1718706D01*
X532526Y1717040D01*
X535858D01*
X537524Y1718706D01*
X547521Y1727037D02*
X544189Y1725371D01*
X540857Y1722038D01*
Y1718706D01*
X542523Y1717040D01*
X545855D01*
X547521Y1718706D01*
Y1720372D01*
X545855Y1722038D01*
X540857D01*
X550854Y1717040D02*
X554186D01*
X552520D01*
Y1727037D01*
X550854Y1725371D01*
X538795Y1294841D02*
X537128Y1296507D01*
X533796D01*
X532130Y1294841D01*
Y1288176D01*
X533796Y1286510D01*
X537128D01*
X538795Y1288176D01*
X548791Y1296507D02*
X545459Y1294841D01*
X542127Y1291508D01*
Y1288176D01*
X543793Y1286510D01*
X547125D01*
X548791Y1288176D01*
Y1289842D01*
X547125Y1291508D01*
X542127D01*
X558788Y1286510D02*
X552124D01*
X558788Y1293174D01*
Y1294841D01*
X557122Y1296507D01*
X553790D01*
X552124Y1294841D01*
X448624Y1800301D02*
X446958Y1801967D01*
X443626D01*
X441960Y1800301D01*
Y1793636D01*
X443626Y1791970D01*
X446958D01*
X448624Y1793636D01*
X458621Y1801967D02*
X455289Y1800301D01*
X451957Y1796968D01*
Y1793636D01*
X453623Y1791970D01*
X456955D01*
X458621Y1793636D01*
Y1795302D01*
X456955Y1796968D01*
X451957D01*
X461954Y1800301D02*
X463620Y1801967D01*
X466952D01*
X468618Y1800301D01*
Y1798634D01*
X466952Y1796968D01*
X465286D01*
X466952D01*
X468618Y1795302D01*
Y1793636D01*
X466952Y1791970D01*
X463620D01*
X461954Y1793636D01*
X449894Y1315161D02*
X448228Y1316827D01*
X444896D01*
X443230Y1315161D01*
Y1308496D01*
X444896Y1306830D01*
X448228D01*
X449894Y1308496D01*
X459891Y1316827D02*
X456559Y1315161D01*
X453227Y1311828D01*
Y1308496D01*
X454893Y1306830D01*
X458225D01*
X459891Y1308496D01*
Y1310162D01*
X458225Y1311828D01*
X453227D01*
X468222Y1306830D02*
Y1316827D01*
X463224Y1311828D01*
X469888D01*
X270825Y1872691D02*
X269158Y1874357D01*
X265826D01*
X264160Y1872691D01*
Y1866026D01*
X265826Y1864360D01*
X269158D01*
X270825Y1866026D01*
X280821Y1874357D02*
X277489Y1872691D01*
X274157Y1869358D01*
Y1866026D01*
X275823Y1864360D01*
X279155D01*
X280821Y1866026D01*
Y1867692D01*
X279155Y1869358D01*
X274157D01*
X290818Y1874357D02*
X284154D01*
Y1869358D01*
X287486Y1871024D01*
X289152D01*
X290818Y1869358D01*
Y1866026D01*
X289152Y1864360D01*
X285820D01*
X284154Y1866026D01*
X272094Y1420571D02*
X270428Y1422237D01*
X267096D01*
X265430Y1420571D01*
Y1413906D01*
X267096Y1412240D01*
X270428D01*
X272094Y1413906D01*
X282091Y1422237D02*
X278759Y1420571D01*
X275427Y1417238D01*
Y1413906D01*
X277093Y1412240D01*
X280425D01*
X282091Y1413906D01*
Y1415572D01*
X280425Y1417238D01*
X275427D01*
X292088Y1422237D02*
X288756Y1420571D01*
X285424Y1417238D01*
Y1413906D01*
X287090Y1412240D01*
X290422D01*
X292088Y1413906D01*
Y1415572D01*
X290422Y1417238D01*
X285424D01*
X882964Y1692351D02*
X881298Y1694017D01*
X877966D01*
X876300Y1692351D01*
Y1685686D01*
X877966Y1684020D01*
X881298D01*
X882964Y1685686D01*
X892961Y1694017D02*
X889629Y1692351D01*
X886297Y1689018D01*
Y1685686D01*
X887963Y1684020D01*
X891295D01*
X892961Y1685686D01*
Y1687352D01*
X891295Y1689018D01*
X886297D01*
X896294Y1694017D02*
X902958D01*
Y1692351D01*
X896294Y1685686D01*
Y1684020D01*
X900237Y1663649D02*
X898570Y1665315D01*
X895238D01*
X893572Y1663649D01*
Y1656984D01*
X895238Y1655318D01*
X898570D01*
X900237Y1656984D01*
X910233Y1665315D02*
X906901Y1663649D01*
X903569Y1660316D01*
Y1656984D01*
X905235Y1655318D01*
X908567D01*
X910233Y1656984D01*
Y1658650D01*
X908567Y1660316D01*
X903569D01*
X913566Y1663649D02*
X915232Y1665315D01*
X918564D01*
X920230Y1663649D01*
Y1661983D01*
X918564Y1660316D01*
X920230Y1658650D01*
Y1656984D01*
X918564Y1655318D01*
X915232D01*
X913566Y1656984D01*
Y1658650D01*
X915232Y1660316D01*
X913566Y1661983D01*
Y1663649D01*
X915232Y1660316D02*
X918564D01*
X780095Y1801571D02*
X778428Y1803237D01*
X775096D01*
X773430Y1801571D01*
Y1794906D01*
X775096Y1793240D01*
X778428D01*
X780095Y1794906D01*
X790091Y1803237D02*
X786759Y1801571D01*
X783427Y1798238D01*
Y1794906D01*
X785093Y1793240D01*
X788425D01*
X790091Y1794906D01*
Y1796572D01*
X788425Y1798238D01*
X783427D01*
X793424Y1794906D02*
X795090Y1793240D01*
X798422D01*
X800088Y1794906D01*
Y1801571D01*
X798422Y1803237D01*
X795090D01*
X793424Y1801571D01*
Y1799904D01*
X795090Y1798238D01*
X800088D01*
X767394Y1705051D02*
X765728Y1706717D01*
X762396D01*
X760730Y1705051D01*
Y1698386D01*
X762396Y1696720D01*
X765728D01*
X767394Y1698386D01*
X770727Y1706717D02*
X777391D01*
Y1705051D01*
X770727Y1698386D01*
Y1696720D01*
X780724Y1705051D02*
X782390Y1706717D01*
X785722D01*
X787388Y1705051D01*
Y1698386D01*
X785722Y1696720D01*
X782390D01*
X780724Y1698386D01*
Y1705051D01*
X868423Y1752041D02*
X866757Y1753707D01*
X863425D01*
X861758Y1752041D01*
Y1745376D01*
X863425Y1743710D01*
X866757D01*
X868423Y1745376D01*
X871755Y1753707D02*
X878420D01*
Y1752041D01*
X871755Y1745376D01*
Y1743710D01*
X881752D02*
X885084D01*
X883418D01*
Y1753707D01*
X881752Y1752041D01*
X794064Y1730451D02*
X792398Y1732117D01*
X789066D01*
X787400Y1730451D01*
Y1723786D01*
X789066Y1722120D01*
X792398D01*
X794064Y1723786D01*
X797397Y1732117D02*
X804061D01*
Y1730451D01*
X797397Y1723786D01*
Y1722120D01*
X814058D02*
X807394D01*
X814058Y1728784D01*
Y1730451D01*
X812392Y1732117D01*
X809060D01*
X807394Y1730451D01*
X866454Y1710131D02*
X864788Y1711797D01*
X861456D01*
X859790Y1710131D01*
Y1703466D01*
X861456Y1701800D01*
X864788D01*
X866454Y1703466D01*
X869787Y1711797D02*
X876451D01*
Y1710131D01*
X869787Y1703466D01*
Y1701800D01*
X879784Y1710131D02*
X881450Y1711797D01*
X884782D01*
X886448Y1710131D01*
Y1708465D01*
X884782Y1706798D01*
X883116D01*
X884782D01*
X886448Y1705132D01*
Y1703466D01*
X884782Y1701800D01*
X881450D01*
X879784Y1703466D01*
X428304Y1684731D02*
X426638Y1686397D01*
X423306D01*
X421640Y1684731D01*
Y1678066D01*
X423306Y1676400D01*
X426638D01*
X428304Y1678066D01*
X431637Y1686397D02*
X438301D01*
Y1684731D01*
X431637Y1678066D01*
Y1676400D01*
X446632D02*
Y1686397D01*
X441634Y1681398D01*
X448298D01*
X465135Y1241501D02*
X463468Y1243167D01*
X460136D01*
X458470Y1241501D01*
Y1234836D01*
X460136Y1233170D01*
X463468D01*
X465135Y1234836D01*
X468467Y1243167D02*
X475131D01*
Y1241501D01*
X468467Y1234836D01*
Y1233170D01*
X485128Y1243167D02*
X478464D01*
Y1238168D01*
X481796Y1239835D01*
X483462D01*
X485128Y1238168D01*
Y1234836D01*
X483462Y1233170D01*
X480130D01*
X478464Y1234836D01*
X794064Y1614881D02*
X792398Y1616547D01*
X789066D01*
X787400Y1614881D01*
Y1608216D01*
X789066Y1606550D01*
X792398D01*
X794064Y1608216D01*
X797397Y1616547D02*
X804061D01*
Y1614881D01*
X797397Y1608216D01*
Y1606550D01*
X814058Y1616547D02*
X810726Y1614881D01*
X807394Y1611548D01*
Y1608216D01*
X809060Y1606550D01*
X812392D01*
X814058Y1608216D01*
Y1609882D01*
X812392Y1611548D01*
X807394D01*
X434655Y1658061D02*
X432988Y1659727D01*
X429656D01*
X427990Y1658061D01*
Y1651396D01*
X429656Y1649730D01*
X432988D01*
X434655Y1651396D01*
X437987Y1659727D02*
X444651D01*
Y1658061D01*
X437987Y1651396D01*
Y1649730D01*
X447984Y1659727D02*
X454648D01*
Y1658061D01*
X447984Y1651396D01*
Y1649730D01*
X406715Y1218691D02*
X405048Y1220357D01*
X401716D01*
X400050Y1218691D01*
Y1212026D01*
X401716Y1210360D01*
X405048D01*
X406715Y1212026D01*
X410047Y1220357D02*
X416711D01*
Y1218691D01*
X410047Y1212026D01*
Y1210360D01*
X420044Y1218691D02*
X421710Y1220357D01*
X425042D01*
X426708Y1218691D01*
Y1217025D01*
X425042Y1215358D01*
X426708Y1213692D01*
Y1212026D01*
X425042Y1210360D01*
X421710D01*
X420044Y1212026D01*
Y1213692D01*
X421710Y1215358D01*
X420044Y1217025D01*
Y1218691D01*
X421710Y1215358D02*
X425042D01*
X425765Y1581861D02*
X424098Y1583527D01*
X420766D01*
X419100Y1581861D01*
Y1575196D01*
X420766Y1573530D01*
X424098D01*
X425765Y1575196D01*
X429097Y1583527D02*
X435761D01*
Y1581861D01*
X429097Y1575196D01*
Y1573530D01*
X439094Y1575196D02*
X440760Y1573530D01*
X444092D01*
X445758Y1575196D01*
Y1581861D01*
X444092Y1583527D01*
X440760D01*
X439094Y1581861D01*
Y1580195D01*
X440760Y1578528D01*
X445758D01*
X428304Y1142441D02*
X426638Y1144107D01*
X423306D01*
X421640Y1142441D01*
Y1135776D01*
X423306Y1134110D01*
X426638D01*
X428304Y1135776D01*
X431637Y1142441D02*
X433303Y1144107D01*
X436635D01*
X438301Y1142441D01*
Y1140775D01*
X436635Y1139108D01*
X438301Y1137442D01*
Y1135776D01*
X436635Y1134110D01*
X433303D01*
X431637Y1135776D01*
Y1137442D01*
X433303Y1139108D01*
X431637Y1140775D01*
Y1142441D01*
X433303Y1139108D02*
X436635D01*
X441634Y1142441D02*
X443300Y1144107D01*
X446632D01*
X448298Y1142441D01*
Y1135776D01*
X446632Y1134110D01*
X443300D01*
X441634Y1135776D01*
Y1142441D01*
X794064Y1567891D02*
X792398Y1569557D01*
X789066D01*
X787400Y1567891D01*
Y1561226D01*
X789066Y1559560D01*
X792398D01*
X794064Y1561226D01*
X797397Y1567891D02*
X799063Y1569557D01*
X802395D01*
X804061Y1567891D01*
Y1566225D01*
X802395Y1564558D01*
X804061Y1562892D01*
Y1561226D01*
X802395Y1559560D01*
X799063D01*
X797397Y1561226D01*
Y1562892D01*
X799063Y1564558D01*
X797397Y1566225D01*
Y1567891D01*
X799063Y1564558D02*
X802395D01*
X807394Y1559560D02*
X810726D01*
X809060D01*
Y1569557D01*
X807394Y1567891D01*
X536255Y1477721D02*
X534588Y1479387D01*
X531256D01*
X529590Y1477721D01*
Y1471056D01*
X531256Y1469390D01*
X534588D01*
X536255Y1471056D01*
X539587Y1477721D02*
X541253Y1479387D01*
X544585D01*
X546251Y1477721D01*
Y1476055D01*
X544585Y1474388D01*
X546251Y1472722D01*
Y1471056D01*
X544585Y1469390D01*
X541253D01*
X539587Y1471056D01*
Y1472722D01*
X541253Y1474388D01*
X539587Y1476055D01*
Y1477721D01*
X541253Y1474388D02*
X544585D01*
X556248Y1469390D02*
X549584D01*
X556248Y1476055D01*
Y1477721D01*
X554582Y1479387D01*
X551250D01*
X549584Y1477721D01*
X541334Y1056081D02*
X539668Y1057747D01*
X536336D01*
X534670Y1056081D01*
Y1049416D01*
X536336Y1047750D01*
X539668D01*
X541334Y1049416D01*
X544667Y1056081D02*
X546333Y1057747D01*
X549665D01*
X551331Y1056081D01*
Y1054415D01*
X549665Y1052748D01*
X551331Y1051082D01*
Y1049416D01*
X549665Y1047750D01*
X546333D01*
X544667Y1049416D01*
Y1051082D01*
X546333Y1052748D01*
X544667Y1054415D01*
Y1056081D01*
X546333Y1052748D02*
X549665D01*
X554664Y1056081D02*
X556330Y1057747D01*
X559662D01*
X561328Y1056081D01*
Y1054415D01*
X559662Y1052748D01*
X557996D01*
X559662D01*
X561328Y1051082D01*
Y1049416D01*
X559662Y1047750D01*
X556330D01*
X554664Y1049416D01*
X444814Y1515821D02*
X443148Y1517487D01*
X439816D01*
X438150Y1515821D01*
Y1509156D01*
X439816Y1507490D01*
X443148D01*
X444814Y1509156D01*
X448147Y1515821D02*
X449813Y1517487D01*
X453145D01*
X454811Y1515821D01*
Y1514155D01*
X453145Y1512488D01*
X454811Y1510822D01*
Y1509156D01*
X453145Y1507490D01*
X449813D01*
X448147Y1509156D01*
Y1510822D01*
X449813Y1512488D01*
X448147Y1514155D01*
Y1515821D01*
X449813Y1512488D02*
X453145D01*
X463142Y1507490D02*
Y1517487D01*
X458144Y1512488D01*
X464808D01*
X448624Y1073861D02*
X446958Y1075527D01*
X443626D01*
X441960Y1073861D01*
Y1067196D01*
X443626Y1065530D01*
X446958D01*
X448624Y1067196D01*
X451957Y1073861D02*
X453623Y1075527D01*
X456955D01*
X458621Y1073861D01*
Y1072195D01*
X456955Y1070528D01*
X458621Y1068862D01*
Y1067196D01*
X456955Y1065530D01*
X453623D01*
X451957Y1067196D01*
Y1068862D01*
X453623Y1070528D01*
X451957Y1072195D01*
Y1073861D01*
X453623Y1070528D02*
X456955D01*
X468618Y1075527D02*
X461954D01*
Y1070528D01*
X465286Y1072195D01*
X466952D01*
X468618Y1070528D01*
Y1067196D01*
X466952Y1065530D01*
X463620D01*
X461954Y1067196D01*
X255585Y1503121D02*
X253918Y1504787D01*
X250586D01*
X248920Y1503121D01*
Y1496456D01*
X250586Y1494790D01*
X253918D01*
X255585Y1496456D01*
X258917Y1503121D02*
X260583Y1504787D01*
X263915D01*
X265581Y1503121D01*
Y1501454D01*
X263915Y1499788D01*
X265581Y1498122D01*
Y1496456D01*
X263915Y1494790D01*
X260583D01*
X258917Y1496456D01*
Y1498122D01*
X260583Y1499788D01*
X258917Y1501454D01*
Y1503121D01*
X260583Y1499788D02*
X263915D01*
X275578Y1504787D02*
X272246Y1503121D01*
X268914Y1499788D01*
Y1496456D01*
X270580Y1494790D01*
X273912D01*
X275578Y1496456D01*
Y1498122D01*
X273912Y1499788D01*
X268914D01*
X128584Y1142441D02*
X126918Y1144107D01*
X123586D01*
X121920Y1142441D01*
Y1135776D01*
X123586Y1134110D01*
X126918D01*
X128584Y1135776D01*
X131917Y1142441D02*
X133583Y1144107D01*
X136915D01*
X138581Y1142441D01*
Y1140775D01*
X136915Y1139108D01*
X138581Y1137442D01*
Y1135776D01*
X136915Y1134110D01*
X133583D01*
X131917Y1135776D01*
Y1137442D01*
X133583Y1139108D01*
X131917Y1140775D01*
Y1142441D01*
X133583Y1139108D02*
X136915D01*
X141914Y1144107D02*
X148578D01*
Y1142441D01*
X141914Y1135776D01*
Y1134110D01*
X696274Y1696161D02*
X694608Y1697827D01*
X691276D01*
X689610Y1696161D01*
Y1689496D01*
X691276Y1687830D01*
X694608D01*
X696274Y1689496D01*
X699607Y1696161D02*
X701273Y1697827D01*
X704605D01*
X706271Y1696161D01*
Y1694494D01*
X704605Y1692828D01*
X706271Y1691162D01*
Y1689496D01*
X704605Y1687830D01*
X701273D01*
X699607Y1689496D01*
Y1691162D01*
X701273Y1692828D01*
X699607Y1694494D01*
Y1696161D01*
X701273Y1692828D02*
X704605D01*
X709604Y1696161D02*
X711270Y1697827D01*
X714602D01*
X716268Y1696161D01*
Y1694494D01*
X714602Y1692828D01*
X716268Y1691162D01*
Y1689496D01*
X714602Y1687830D01*
X711270D01*
X709604Y1689496D01*
Y1691162D01*
X711270Y1692828D01*
X709604Y1694494D01*
Y1696161D01*
X711270Y1692828D02*
X714602D01*
X729295Y1669491D02*
X727628Y1671157D01*
X724296D01*
X722630Y1669491D01*
Y1662826D01*
X724296Y1661160D01*
X727628D01*
X729295Y1662826D01*
X732627Y1669491D02*
X734293Y1671157D01*
X737625D01*
X739291Y1669491D01*
Y1667825D01*
X737625Y1666158D01*
X739291Y1664492D01*
Y1662826D01*
X737625Y1661160D01*
X734293D01*
X732627Y1662826D01*
Y1664492D01*
X734293Y1666158D01*
X732627Y1667825D01*
Y1669491D01*
X734293Y1666158D02*
X737625D01*
X742624Y1662826D02*
X744290Y1661160D01*
X747622D01*
X749288Y1662826D01*
Y1669491D01*
X747622Y1671157D01*
X744290D01*
X742624Y1669491D01*
Y1667825D01*
X744290Y1666158D01*
X749288D01*
X655635Y1796491D02*
X653968Y1798157D01*
X650636D01*
X648970Y1796491D01*
Y1789826D01*
X650636Y1788160D01*
X653968D01*
X655635Y1789826D01*
X658967D02*
X660633Y1788160D01*
X663965D01*
X665631Y1789826D01*
Y1796491D01*
X663965Y1798157D01*
X660633D01*
X658967Y1796491D01*
Y1794825D01*
X660633Y1793158D01*
X665631D01*
X668964Y1796491D02*
X670630Y1798157D01*
X673962D01*
X675628Y1796491D01*
Y1789826D01*
X673962Y1788160D01*
X670630D01*
X668964Y1789826D01*
Y1796491D01*
X581974Y1719021D02*
X580308Y1720687D01*
X576976D01*
X575310Y1719021D01*
Y1712356D01*
X576976Y1710690D01*
X580308D01*
X581974Y1712356D01*
X585307D02*
X586973Y1710690D01*
X590305D01*
X591971Y1712356D01*
Y1719021D01*
X590305Y1720687D01*
X586973D01*
X585307Y1719021D01*
Y1717354D01*
X586973Y1715688D01*
X591971D01*
X595304Y1710690D02*
X598636D01*
X596970D01*
Y1720687D01*
X595304Y1719021D01*
X609915Y1764741D02*
X608248Y1766407D01*
X604916D01*
X603250Y1764741D01*
Y1758076D01*
X604916Y1756410D01*
X608248D01*
X609915Y1758076D01*
X613247D02*
X614913Y1756410D01*
X618245D01*
X619911Y1758076D01*
Y1764741D01*
X618245Y1766407D01*
X614913D01*
X613247Y1764741D01*
Y1763074D01*
X614913Y1761408D01*
X619911D01*
X629908Y1756410D02*
X623244D01*
X629908Y1763074D01*
Y1764741D01*
X628242Y1766407D01*
X624910D01*
X623244Y1764741D01*
X611185Y1735531D02*
X609518Y1737197D01*
X606186D01*
X604520Y1735531D01*
Y1728866D01*
X606186Y1727200D01*
X609518D01*
X611185Y1728866D01*
X614517D02*
X616183Y1727200D01*
X619515D01*
X621181Y1728866D01*
Y1735531D01*
X619515Y1737197D01*
X616183D01*
X614517Y1735531D01*
Y1733864D01*
X616183Y1732198D01*
X621181D01*
X624514Y1735531D02*
X626180Y1737197D01*
X629512D01*
X631178Y1735531D01*
Y1733864D01*
X629512Y1732198D01*
X627846D01*
X629512D01*
X631178Y1730532D01*
Y1728866D01*
X629512Y1727200D01*
X626180D01*
X624514Y1728866D01*
X677225Y1712671D02*
X675558Y1714337D01*
X672226D01*
X670560Y1712671D01*
Y1706006D01*
X672226Y1704340D01*
X675558D01*
X677225Y1706006D01*
X680557D02*
X682223Y1704340D01*
X685555D01*
X687221Y1706006D01*
Y1712671D01*
X685555Y1714337D01*
X682223D01*
X680557Y1712671D01*
Y1711004D01*
X682223Y1709338D01*
X687221D01*
X695552Y1704340D02*
Y1714337D01*
X690554Y1709338D01*
X697218D01*
X599754Y1623771D02*
X598088Y1625437D01*
X594756D01*
X593090Y1623771D01*
Y1617106D01*
X594756Y1615440D01*
X598088D01*
X599754Y1617106D01*
X603087D02*
X604753Y1615440D01*
X608085D01*
X609751Y1617106D01*
Y1623771D01*
X608085Y1625437D01*
X604753D01*
X603087Y1623771D01*
Y1622104D01*
X604753Y1620438D01*
X609751D01*
X619748Y1625437D02*
X613084D01*
Y1620438D01*
X616416Y1622104D01*
X618082D01*
X619748Y1620438D01*
Y1617106D01*
X618082Y1615440D01*
X614750D01*
X613084Y1617106D01*
X400364Y995121D02*
X398698Y996787D01*
X395366D01*
X393700Y995121D01*
Y988456D01*
X395366Y986790D01*
X398698D01*
X400364Y988456D01*
X403697D02*
X405363Y986790D01*
X408695D01*
X410361Y988456D01*
Y995121D01*
X408695Y996787D01*
X405363D01*
X403697Y995121D01*
Y993455D01*
X405363Y991788D01*
X410361D01*
X420358Y996787D02*
X417026Y995121D01*
X413694Y991788D01*
Y988456D01*
X415360Y986790D01*
X418692D01*
X420358Y988456D01*
Y990122D01*
X418692Y991788D01*
X413694D01*
X358455Y515061D02*
X356788Y516727D01*
X353456D01*
X351790Y515061D01*
Y508396D01*
X353456Y506730D01*
X356788D01*
X358455Y508396D01*
X361787D02*
X363453Y506730D01*
X366785D01*
X368451Y508396D01*
Y515061D01*
X366785Y516727D01*
X363453D01*
X361787Y515061D01*
Y513395D01*
X363453Y511728D01*
X368451D01*
X371784Y516727D02*
X378448D01*
Y515061D01*
X371784Y508396D01*
Y506730D01*
X354645Y917651D02*
X352978Y919317D01*
X349646D01*
X347980Y917651D01*
Y910986D01*
X349646Y909320D01*
X352978D01*
X354645Y910986D01*
X357977D02*
X359643Y909320D01*
X362975D01*
X364641Y910986D01*
Y917651D01*
X362975Y919317D01*
X359643D01*
X357977Y917651D01*
Y915984D01*
X359643Y914318D01*
X364641D01*
X367974Y917651D02*
X369640Y919317D01*
X372972D01*
X374638Y917651D01*
Y915984D01*
X372972Y914318D01*
X374638Y912652D01*
Y910986D01*
X372972Y909320D01*
X369640D01*
X367974Y910986D01*
Y912652D01*
X369640Y914318D01*
X367974Y915984D01*
Y917651D01*
X369640Y914318D02*
X372972D01*
X360994Y478231D02*
X359328Y479897D01*
X355996D01*
X354330Y478231D01*
Y471566D01*
X355996Y469900D01*
X359328D01*
X360994Y471566D01*
X364327D02*
X365993Y469900D01*
X369325D01*
X370991Y471566D01*
Y478231D01*
X369325Y479897D01*
X365993D01*
X364327Y478231D01*
Y476564D01*
X365993Y474898D01*
X370991D01*
X374324Y471566D02*
X375990Y469900D01*
X379322D01*
X380988Y471566D01*
Y478231D01*
X379322Y479897D01*
X375990D01*
X374324Y478231D01*
Y476564D01*
X375990Y474898D01*
X380988D01*
X541731Y849315D02*
X543397Y850982D01*
Y854314D01*
X541731Y855980D01*
X535066D01*
X533400Y854314D01*
Y850982D01*
X535066Y849315D01*
X533400Y845983D02*
Y842651D01*
Y844317D01*
X543397D01*
X541731Y845983D01*
Y837653D02*
X543397Y835986D01*
Y832654D01*
X541731Y830988D01*
X535066D01*
X533400Y832654D01*
Y835986D01*
X535066Y837653D01*
X541731D01*
Y827656D02*
X543397Y825990D01*
Y822657D01*
X541731Y820991D01*
X535066D01*
X533400Y822657D01*
Y825990D01*
X535066Y827656D01*
X541731D01*
X533959Y400364D02*
X532293Y398698D01*
Y395366D01*
X533959Y393700D01*
X540624D01*
X542290Y395366D01*
Y398698D01*
X540624Y400364D01*
X542290Y403697D02*
Y407029D01*
Y405363D01*
X532293D01*
X533959Y403697D01*
Y412027D02*
X532293Y413694D01*
Y417026D01*
X533959Y418692D01*
X540624D01*
X542290Y417026D01*
Y413694D01*
X540624Y412027D01*
X533959D01*
X542290Y422024D02*
Y425356D01*
Y423690D01*
X532293D01*
X533959Y422024D01*
X592135Y1572971D02*
X590468Y1574637D01*
X587136D01*
X585470Y1572971D01*
Y1566306D01*
X587136Y1564640D01*
X590468D01*
X592135Y1566306D01*
X595467Y1564640D02*
X598799D01*
X597133D01*
Y1574637D01*
X595467Y1572971D01*
X603797D02*
X605464Y1574637D01*
X608796D01*
X610462Y1572971D01*
Y1566306D01*
X608796Y1564640D01*
X605464D01*
X603797Y1566306D01*
Y1572971D01*
X620459Y1564640D02*
X613794D01*
X620459Y1571304D01*
Y1572971D01*
X618793Y1574637D01*
X615460D01*
X613794Y1572971D01*
X466801Y859475D02*
X468467Y861142D01*
Y864474D01*
X466801Y866140D01*
X460136D01*
X458470Y864474D01*
Y861142D01*
X460136Y859475D01*
X458470Y856143D02*
Y852811D01*
Y854477D01*
X468467D01*
X466801Y856143D01*
Y847813D02*
X468467Y846146D01*
Y842814D01*
X466801Y841148D01*
X460136D01*
X458470Y842814D01*
Y846146D01*
X460136Y847813D01*
X466801D01*
Y837816D02*
X468467Y836150D01*
Y832817D01*
X466801Y831151D01*
X465135D01*
X463468Y832817D01*
Y834483D01*
Y832817D01*
X461802Y831151D01*
X460136D01*
X458470Y832817D01*
Y836150D01*
X460136Y837816D01*
X441004Y447751D02*
X439338Y449417D01*
X436006D01*
X434340Y447751D01*
Y441086D01*
X436006Y439420D01*
X439338D01*
X441004Y441086D01*
X444337Y439420D02*
X447669D01*
X446003D01*
Y449417D01*
X444337Y447751D01*
X452667D02*
X454334Y449417D01*
X457666D01*
X459332Y447751D01*
Y441086D01*
X457666Y439420D01*
X454334D01*
X452667Y441086D01*
Y447751D01*
X467663Y439420D02*
Y449417D01*
X462664Y444418D01*
X469329D01*
X247964Y1026871D02*
X246298Y1028537D01*
X242966D01*
X241300Y1026871D01*
Y1020206D01*
X242966Y1018540D01*
X246298D01*
X247964Y1020206D01*
X251297Y1018540D02*
X254629D01*
X252963D01*
Y1028537D01*
X251297Y1026871D01*
X259627D02*
X261294Y1028537D01*
X264626D01*
X266292Y1026871D01*
Y1020206D01*
X264626Y1018540D01*
X261294D01*
X259627Y1020206D01*
Y1026871D01*
X276289Y1028537D02*
X269624D01*
Y1023538D01*
X272957Y1025204D01*
X274623D01*
X276289Y1023538D01*
Y1020206D01*
X274623Y1018540D01*
X271290D01*
X269624Y1020206D01*
X263204Y508711D02*
X261538Y510377D01*
X258206D01*
X256540Y508711D01*
Y502046D01*
X258206Y500380D01*
X261538D01*
X263204Y502046D01*
X266537Y500380D02*
X269869D01*
X268203D01*
Y510377D01*
X266537Y508711D01*
X274867D02*
X276534Y510377D01*
X279866D01*
X281532Y508711D01*
Y502046D01*
X279866Y500380D01*
X276534D01*
X274867Y502046D01*
Y508711D01*
X291529Y510377D02*
X288197Y508711D01*
X284864Y505378D01*
Y502046D01*
X286530Y500380D01*
X289863D01*
X291529Y502046D01*
Y503712D01*
X289863Y505378D01*
X284864D01*
X452435Y788111D02*
X450768Y789777D01*
X447436D01*
X445770Y788111D01*
Y781446D01*
X447436Y779780D01*
X450768D01*
X452435Y781446D01*
X455767Y779780D02*
X459099D01*
X457433D01*
Y789777D01*
X455767Y788111D01*
X464097D02*
X465764Y789777D01*
X469096D01*
X470762Y788111D01*
Y781446D01*
X469096Y779780D01*
X465764D01*
X464097Y781446D01*
Y788111D01*
X474094Y789777D02*
X480759D01*
Y788111D01*
X474094Y781446D01*
Y779780D01*
X486725Y351231D02*
X485058Y352897D01*
X481726D01*
X480060Y351231D01*
Y344566D01*
X481726Y342900D01*
X485058D01*
X486725Y344566D01*
X490057Y342900D02*
X493389D01*
X491723D01*
Y352897D01*
X490057Y351231D01*
X498387D02*
X500054Y352897D01*
X503386D01*
X505052Y351231D01*
Y344566D01*
X503386Y342900D01*
X500054D01*
X498387Y344566D01*
Y351231D01*
X508384D02*
X510050Y352897D01*
X513383D01*
X515049Y351231D01*
Y349565D01*
X513383Y347898D01*
X515049Y346232D01*
Y344566D01*
X513383Y342900D01*
X510050D01*
X508384Y344566D01*
Y346232D01*
X510050Y347898D01*
X508384Y349565D01*
Y351231D01*
X510050Y347898D02*
X513383D01*
X389950Y746455D02*
X388284Y748121D01*
X384952D01*
X383286Y746455D01*
Y739790D01*
X384952Y738124D01*
X388284D01*
X389950Y739790D01*
X393283Y738124D02*
X396615D01*
X394949D01*
Y748121D01*
X393283Y746455D01*
X401613D02*
X403280Y748121D01*
X406612D01*
X408278Y746455D01*
Y739790D01*
X406612Y738124D01*
X403280D01*
X401613Y739790D01*
Y746455D01*
X411610Y739790D02*
X413276Y738124D01*
X416609D01*
X418275Y739790D01*
Y746455D01*
X416609Y748121D01*
X413276D01*
X411610Y746455D01*
Y744789D01*
X413276Y743122D01*
X418275D01*
X404174Y316941D02*
X402508Y318607D01*
X399176D01*
X397510Y316941D01*
Y310276D01*
X399176Y308610D01*
X402508D01*
X404174Y310276D01*
X407507Y308610D02*
X410839D01*
X409173D01*
Y318607D01*
X407507Y316941D01*
X415837Y308610D02*
X419170D01*
X417504D01*
Y318607D01*
X415837Y316941D01*
X424168D02*
X425834Y318607D01*
X429166D01*
X430833Y316941D01*
Y310276D01*
X429166Y308610D01*
X425834D01*
X424168Y310276D01*
Y316941D01*
X428304Y662381D02*
X426638Y664047D01*
X423306D01*
X421640Y662381D01*
Y655716D01*
X423306Y654050D01*
X426638D01*
X428304Y655716D01*
X431637Y654050D02*
X434969D01*
X433303D01*
Y664047D01*
X431637Y662381D01*
X439967Y654050D02*
X443300D01*
X441634D01*
Y664047D01*
X439967Y662381D01*
X448298Y654050D02*
X451630D01*
X449964D01*
Y664047D01*
X448298Y662381D01*
X376479Y221294D02*
X374813Y219628D01*
Y216296D01*
X376479Y214630D01*
X383144D01*
X384810Y216296D01*
Y219628D01*
X383144Y221294D01*
X384810Y224627D02*
Y227959D01*
Y226293D01*
X374813D01*
X376479Y224627D01*
X384810Y232957D02*
Y236290D01*
Y234624D01*
X374813D01*
X376479Y232957D01*
X384810Y247953D02*
Y241288D01*
X378145Y247953D01*
X376479D01*
X374813Y246287D01*
Y242954D01*
X376479Y241288D01*
X545145Y593801D02*
X543478Y595467D01*
X540146D01*
X538480Y593801D01*
Y587136D01*
X540146Y585470D01*
X543478D01*
X545145Y587136D01*
X548477Y585470D02*
X551809D01*
X550143D01*
Y595467D01*
X548477Y593801D01*
X556807Y585470D02*
X560140D01*
X558474D01*
Y595467D01*
X556807Y593801D01*
X565138D02*
X566804Y595467D01*
X570136D01*
X571803Y593801D01*
Y592135D01*
X570136Y590468D01*
X568470D01*
X570136D01*
X571803Y588802D01*
Y587136D01*
X570136Y585470D01*
X566804D01*
X565138Y587136D01*
X539191Y180026D02*
X540857Y181692D01*
Y185024D01*
X539191Y186690D01*
X532526D01*
X530860Y185024D01*
Y181692D01*
X532526Y180026D01*
X530860Y176693D02*
Y173361D01*
Y175027D01*
X540857D01*
X539191Y176693D01*
X530860Y168363D02*
Y165030D01*
Y166696D01*
X540857D01*
X539191Y168363D01*
X530860Y155034D02*
X540857D01*
X535858Y160032D01*
Y153367D01*
X465531Y614366D02*
X467197Y616032D01*
Y619364D01*
X465531Y621030D01*
X458866D01*
X457200Y619364D01*
Y616032D01*
X458866Y614366D01*
X457200Y611033D02*
Y607701D01*
Y609367D01*
X467197D01*
X465531Y611033D01*
X457200Y602703D02*
Y599370D01*
Y601036D01*
X467197D01*
X465531Y602703D01*
X467197Y587707D02*
Y594372D01*
X462198D01*
X463865Y591040D01*
Y589374D01*
X462198Y587707D01*
X458866D01*
X457200Y589374D01*
Y592706D01*
X458866Y594372D01*
X439979Y169224D02*
X438313Y167558D01*
Y164226D01*
X439979Y162560D01*
X446644D01*
X448310Y164226D01*
Y167558D01*
X446644Y169224D01*
X448310Y172557D02*
Y175889D01*
Y174223D01*
X438313D01*
X439979Y172557D01*
X448310Y180887D02*
Y184220D01*
Y182554D01*
X438313D01*
X439979Y180887D01*
X438313Y195883D02*
X439979Y192550D01*
X443312Y189218D01*
X446644D01*
X448310Y190884D01*
Y194216D01*
X446644Y195883D01*
X444978D01*
X443312Y194216D01*
Y189218D01*
X180655Y710641D02*
X178988Y712307D01*
X175656D01*
X173990Y710641D01*
Y703976D01*
X175656Y702310D01*
X178988D01*
X180655Y703976D01*
X183987Y702310D02*
X187319D01*
X185653D01*
Y712307D01*
X183987Y710641D01*
X192317Y702310D02*
X195650D01*
X193984D01*
Y712307D01*
X192317Y710641D01*
X200648Y712307D02*
X207313D01*
Y710641D01*
X200648Y703976D01*
Y702310D01*
X143825Y120091D02*
X142158Y121757D01*
X138826D01*
X137160Y120091D01*
Y113426D01*
X138826Y111760D01*
X142158D01*
X143825Y113426D01*
X147157Y111760D02*
X150489D01*
X148823D01*
Y121757D01*
X147157Y120091D01*
X155487Y111760D02*
X158820D01*
X157154D01*
Y121757D01*
X155487Y120091D01*
X163818D02*
X165484Y121757D01*
X168817D01*
X170483Y120091D01*
Y118425D01*
X168817Y116758D01*
X170483Y115092D01*
Y113426D01*
X168817Y111760D01*
X165484D01*
X163818Y113426D01*
Y115092D01*
X165484Y116758D01*
X163818Y118425D01*
Y120091D01*
X165484Y116758D02*
X168817D01*
X1308414Y172161D02*
X1306748Y173827D01*
X1303416D01*
X1301750Y172161D01*
Y165496D01*
X1303416Y163830D01*
X1306748D01*
X1308414Y165496D01*
X1311747Y163830D02*
Y173827D01*
X1316745D01*
X1318411Y172161D01*
Y168828D01*
X1316745Y167162D01*
X1311747D01*
X1315079D02*
X1318411Y163830D01*
X1321744D02*
X1325076D01*
X1323410D01*
Y173827D01*
X1321744Y172161D01*
X1300795Y629361D02*
X1299128Y631027D01*
X1295796D01*
X1294130Y629361D01*
Y622696D01*
X1295796Y621030D01*
X1299128D01*
X1300795Y622696D01*
X1304127Y621030D02*
Y631027D01*
X1309125D01*
X1310791Y629361D01*
Y626028D01*
X1309125Y624362D01*
X1304127D01*
X1307459D02*
X1310791Y621030D01*
X1320788D02*
X1314124D01*
X1320788Y627695D01*
Y629361D01*
X1319122Y631027D01*
X1315790D01*
X1314124Y629361D01*
X1012505Y1635201D02*
X1010838Y1636867D01*
X1007506D01*
X1005840Y1635201D01*
Y1628536D01*
X1007506Y1626870D01*
X1010838D01*
X1012505Y1628536D01*
X1015837Y1626870D02*
Y1636867D01*
X1020835D01*
X1022501Y1635201D01*
Y1631868D01*
X1020835Y1630202D01*
X1015837D01*
X1019169D02*
X1022501Y1626870D01*
X1025834Y1635201D02*
X1027500Y1636867D01*
X1030832D01*
X1032498Y1635201D01*
Y1633535D01*
X1030832Y1631868D01*
X1029166D01*
X1030832D01*
X1032498Y1630202D01*
Y1628536D01*
X1030832Y1626870D01*
X1027500D01*
X1025834Y1628536D01*
X1307144Y421081D02*
X1305478Y422747D01*
X1302146D01*
X1300480Y421081D01*
Y414416D01*
X1302146Y412750D01*
X1305478D01*
X1307144Y414416D01*
X1310477Y412750D02*
Y422747D01*
X1315475D01*
X1317141Y421081D01*
Y417748D01*
X1315475Y416082D01*
X1310477D01*
X1313809D02*
X1317141Y412750D01*
X1325472D02*
Y422747D01*
X1320474Y417748D01*
X1327138D01*
X1296985Y866851D02*
X1295318Y868517D01*
X1291986D01*
X1290320Y866851D01*
Y860186D01*
X1291986Y858520D01*
X1295318D01*
X1296985Y860186D01*
X1300317Y858520D02*
Y868517D01*
X1305315D01*
X1306981Y866851D01*
Y863518D01*
X1305315Y861852D01*
X1300317D01*
X1303649D02*
X1306981Y858520D01*
X1316978Y868517D02*
X1310314D01*
Y863518D01*
X1313646Y865184D01*
X1315312D01*
X1316978Y863518D01*
Y860186D01*
X1315312Y858520D01*
X1311980D01*
X1310314Y860186D01*
X1304604Y1085291D02*
X1302938Y1086957D01*
X1299606D01*
X1297940Y1085291D01*
Y1078626D01*
X1299606Y1076960D01*
X1302938D01*
X1304604Y1078626D01*
X1307937Y1076960D02*
Y1086957D01*
X1312935D01*
X1314601Y1085291D01*
Y1081958D01*
X1312935Y1080292D01*
X1307937D01*
X1311269D02*
X1314601Y1076960D01*
X1324598Y1086957D02*
X1321266Y1085291D01*
X1317934Y1081958D01*
Y1078626D01*
X1319600Y1076960D01*
X1322932D01*
X1324598Y1078626D01*
Y1080292D01*
X1322932Y1081958D01*
X1317934D01*
X1304604Y1525981D02*
X1302938Y1527647D01*
X1299606D01*
X1297940Y1525981D01*
Y1519316D01*
X1299606Y1517650D01*
X1302938D01*
X1304604Y1519316D01*
X1307937Y1517650D02*
Y1527647D01*
X1312935D01*
X1314601Y1525981D01*
Y1522648D01*
X1312935Y1520982D01*
X1307937D01*
X1311269D02*
X1314601Y1517650D01*
X1317934Y1527647D02*
X1324598D01*
Y1525981D01*
X1317934Y1519316D01*
Y1517650D01*
X1299525Y1305001D02*
X1297858Y1306667D01*
X1294526D01*
X1292860Y1305001D01*
Y1298336D01*
X1294526Y1296670D01*
X1297858D01*
X1299525Y1298336D01*
X1302857Y1296670D02*
Y1306667D01*
X1307855D01*
X1309521Y1305001D01*
Y1301668D01*
X1307855Y1300002D01*
X1302857D01*
X1306189D02*
X1309521Y1296670D01*
X1312854Y1305001D02*
X1314520Y1306667D01*
X1317852D01*
X1319518Y1305001D01*
Y1303335D01*
X1317852Y1301668D01*
X1319518Y1300002D01*
Y1298336D01*
X1317852Y1296670D01*
X1314520D01*
X1312854Y1298336D01*
Y1300002D01*
X1314520Y1301668D01*
X1312854Y1303335D01*
Y1305001D01*
X1314520Y1301668D02*
X1317852D01*
X1305874Y1771091D02*
X1304208Y1772757D01*
X1300876D01*
X1299210Y1771091D01*
Y1764426D01*
X1300876Y1762760D01*
X1304208D01*
X1305874Y1764426D01*
X1309207Y1762760D02*
Y1772757D01*
X1314205D01*
X1315871Y1771091D01*
Y1767758D01*
X1314205Y1766092D01*
X1309207D01*
X1312539D02*
X1315871Y1762760D01*
X1319204Y1764426D02*
X1320870Y1762760D01*
X1324202D01*
X1325868Y1764426D01*
Y1771091D01*
X1324202Y1772757D01*
X1320870D01*
X1319204Y1771091D01*
Y1769424D01*
X1320870Y1767758D01*
X1325868D01*
X508315Y1854911D02*
X506648Y1856577D01*
X503316D01*
X501650Y1854911D01*
Y1848246D01*
X503316Y1846580D01*
X506648D01*
X508315Y1848246D01*
X511647Y1846580D02*
Y1856577D01*
X516645D01*
X518311Y1854911D01*
Y1851578D01*
X516645Y1849912D01*
X511647D01*
X514979D02*
X518311Y1846580D01*
X521644D02*
X524976D01*
X523310D01*
Y1856577D01*
X521644Y1854911D01*
X529974D02*
X531640Y1856577D01*
X534973D01*
X536639Y1854911D01*
Y1848246D01*
X534973Y1846580D01*
X531640D01*
X529974Y1848246D01*
Y1854911D01*
X465135Y1442161D02*
X463468Y1443827D01*
X460136D01*
X458470Y1442161D01*
Y1435496D01*
X460136Y1433830D01*
X463468D01*
X465135Y1435496D01*
X468467Y1433830D02*
Y1443827D01*
X473465D01*
X475131Y1442161D01*
Y1438828D01*
X473465Y1437162D01*
X468467D01*
X471799D02*
X475131Y1433830D01*
X478464D02*
X481796D01*
X480130D01*
Y1443827D01*
X478464Y1442161D01*
X486794Y1433830D02*
X490126D01*
X488460D01*
Y1443827D01*
X486794Y1442161D01*
X505774Y1593291D02*
X504108Y1594957D01*
X500776D01*
X499110Y1593291D01*
Y1586626D01*
X500776Y1584960D01*
X504108D01*
X505774Y1586626D01*
X509107Y1584960D02*
Y1594957D01*
X514105D01*
X515771Y1593291D01*
Y1589958D01*
X514105Y1588292D01*
X509107D01*
X512439D02*
X515771Y1584960D01*
X519104D02*
X522436D01*
X520770D01*
Y1594957D01*
X519104Y1593291D01*
X534099Y1584960D02*
X527434D01*
X534099Y1591624D01*
Y1593291D01*
X532433Y1594957D01*
X529100D01*
X527434Y1593291D01*
X505774Y1174191D02*
X504108Y1175857D01*
X500776D01*
X499110Y1174191D01*
Y1167526D01*
X500776Y1165860D01*
X504108D01*
X505774Y1167526D01*
X509107Y1165860D02*
Y1175857D01*
X514105D01*
X515771Y1174191D01*
Y1170858D01*
X514105Y1169192D01*
X509107D01*
X512439D02*
X515771Y1165860D01*
X519104D02*
X522436D01*
X520770D01*
Y1175857D01*
X519104Y1174191D01*
X527434D02*
X529100Y1175857D01*
X532433D01*
X534099Y1174191D01*
Y1172524D01*
X532433Y1170858D01*
X530766D01*
X532433D01*
X534099Y1169192D01*
Y1167526D01*
X532433Y1165860D01*
X529100D01*
X527434Y1167526D01*
X506171Y950916D02*
X507837Y952582D01*
Y955914D01*
X506171Y957580D01*
X499506D01*
X497840Y955914D01*
Y952582D01*
X499506Y950916D01*
X497840Y947583D02*
X507837D01*
Y942585D01*
X506171Y940919D01*
X502838D01*
X501172Y942585D01*
Y947583D01*
Y944251D02*
X497840Y940919D01*
Y937586D02*
Y934254D01*
Y935920D01*
X507837D01*
X506171Y937586D01*
X497840Y924257D02*
X507837D01*
X502838Y929256D01*
Y922591D01*
X500939Y504505D02*
X499273Y502838D01*
Y499506D01*
X500939Y497840D01*
X507604D01*
X509270Y499506D01*
Y502838D01*
X507604Y504505D01*
X509270Y507837D02*
X499273D01*
Y512835D01*
X500939Y514501D01*
X504272D01*
X505938Y512835D01*
Y507837D01*
Y511169D02*
X509270Y514501D01*
Y517834D02*
Y521166D01*
Y519500D01*
X499273D01*
X500939Y517834D01*
X499273Y532829D02*
Y526164D01*
X504272D01*
X502606Y529496D01*
Y531163D01*
X504272Y532829D01*
X507604D01*
X509270Y531163D01*
Y527830D01*
X507604Y526164D01*
X456245Y743661D02*
X454578Y745327D01*
X451246D01*
X449580Y743661D01*
Y736996D01*
X451246Y735330D01*
X454578D01*
X456245Y736996D01*
X459577Y735330D02*
Y745327D01*
X464575D01*
X466241Y743661D01*
Y740328D01*
X464575Y738662D01*
X459577D01*
X462909D02*
X466241Y735330D01*
X469574D02*
X472906D01*
X471240D01*
Y745327D01*
X469574Y743661D01*
X484569Y745327D02*
X481236Y743661D01*
X477904Y740328D01*
Y736996D01*
X479570Y735330D01*
X482903D01*
X484569Y736996D01*
Y738662D01*
X482903Y740328D01*
X477904D01*
X458784Y322021D02*
X457118Y323687D01*
X453786D01*
X452120Y322021D01*
Y315356D01*
X453786Y313690D01*
X457118D01*
X458784Y315356D01*
X462117Y313690D02*
Y323687D01*
X467115D01*
X468781Y322021D01*
Y318688D01*
X467115Y317022D01*
X462117D01*
X465449D02*
X468781Y313690D01*
X472114D02*
X475446D01*
X473780D01*
Y323687D01*
X472114Y322021D01*
X480444Y323687D02*
X487109D01*
Y322021D01*
X480444Y315356D01*
Y313690D01*
X1092962Y1848449D02*
Y1838452D01*
X1097960D01*
X1099626Y1840118D01*
Y1846783D01*
X1097960Y1848449D01*
X1092962D01*
X1102959Y1838452D02*
X1106291D01*
X1104625D01*
Y1848449D01*
X1102959Y1846783D01*
X871220Y1677507D02*
Y1667510D01*
X876218D01*
X877885Y1669176D01*
Y1675841D01*
X876218Y1677507D01*
X871220D01*
X887881Y1667510D02*
X881217D01*
X887881Y1674174D01*
Y1675841D01*
X886215Y1677507D01*
X882883D01*
X881217Y1675841D01*
X681990Y1680047D02*
Y1670050D01*
X686988D01*
X688654Y1671716D01*
Y1678381D01*
X686988Y1680047D01*
X681990D01*
X691987Y1678381D02*
X693653Y1680047D01*
X696985D01*
X698651Y1678381D01*
Y1676714D01*
X696985Y1675048D01*
X695319D01*
X696985D01*
X698651Y1673382D01*
Y1671716D01*
X696985Y1670050D01*
X693653D01*
X691987Y1671716D01*
X686976Y363533D02*
X683644D01*
X685310D01*
Y355202D01*
X683644Y353536D01*
X681978D01*
X680312Y355202D01*
X690309Y353536D02*
X693641D01*
X691975D01*
Y363533D01*
X690309Y361867D01*
X1162812Y1910171D02*
Y1900174D01*
X1169476D01*
X1172809D02*
X1176141D01*
X1174475D01*
Y1910171D01*
X1172809Y1908505D01*
X844550Y1582257D02*
Y1572260D01*
X851215D01*
X861211D02*
X854547D01*
X861211Y1578925D01*
Y1580591D01*
X859545Y1582257D01*
X856213D01*
X854547Y1580591D01*
X699770Y1594957D02*
Y1584960D01*
X706434D01*
X709767Y1593291D02*
X711433Y1594957D01*
X714765D01*
X716431Y1593291D01*
Y1591624D01*
X714765Y1589958D01*
X713099D01*
X714765D01*
X716431Y1588292D01*
Y1586626D01*
X714765Y1584960D01*
X711433D01*
X709767Y1586626D01*
X1725422Y209550D02*
Y219547D01*
X1730420D01*
X1732086Y217881D01*
Y214548D01*
X1730420Y212882D01*
X1725422D01*
X1728754D02*
X1732086Y209550D01*
X1735419D02*
X1738751D01*
X1737085D01*
Y219547D01*
X1735419Y217881D01*
X1725930Y654050D02*
Y664047D01*
X1730928D01*
X1732594Y662381D01*
Y659048D01*
X1730928Y657382D01*
X1725930D01*
X1729262D02*
X1732594Y654050D01*
X1742591D02*
X1735927D01*
X1742591Y660714D01*
Y662381D01*
X1740925Y664047D01*
X1737593D01*
X1735927Y662381D01*
X1724152Y321310D02*
Y331307D01*
X1729150D01*
X1730816Y329641D01*
Y326308D01*
X1729150Y324642D01*
X1724152D01*
X1727484D02*
X1730816Y321310D01*
X1734149Y329641D02*
X1735815Y331307D01*
X1739147D01*
X1740813Y329641D01*
Y327975D01*
X1739147Y326308D01*
X1737481D01*
X1739147D01*
X1740813Y324642D01*
Y322976D01*
X1739147Y321310D01*
X1735815D01*
X1734149Y322976D01*
X1724152Y770890D02*
Y780887D01*
X1729150D01*
X1730816Y779221D01*
Y775888D01*
X1729150Y774222D01*
X1724152D01*
X1727484D02*
X1730816Y770890D01*
X1739147D02*
Y780887D01*
X1734149Y775888D01*
X1740813D01*
X1033780Y1582420D02*
Y1592417D01*
X1038778D01*
X1040444Y1590751D01*
Y1587418D01*
X1038778Y1585752D01*
X1033780D01*
X1037112D02*
X1040444Y1582420D01*
X1050441Y1592417D02*
X1043777D01*
Y1587418D01*
X1047109Y1589084D01*
X1048775D01*
X1050441Y1587418D01*
Y1584086D01*
X1048775Y1582420D01*
X1045443D01*
X1043777Y1584086D01*
X1428242Y336550D02*
Y346547D01*
X1433240D01*
X1434906Y344881D01*
Y341548D01*
X1433240Y339882D01*
X1428242D01*
X1431574D02*
X1434906Y336550D01*
X1444903Y346547D02*
X1441571Y344881D01*
X1438239Y341548D01*
Y338216D01*
X1439905Y336550D01*
X1443237D01*
X1444903Y338216D01*
Y339882D01*
X1443237Y341548D01*
X1438239D01*
X1429512Y783590D02*
Y793587D01*
X1434510D01*
X1436176Y791921D01*
Y788588D01*
X1434510Y786922D01*
X1429512D01*
X1432844D02*
X1436176Y783590D01*
X1439509Y793587D02*
X1446173D01*
Y791921D01*
X1439509Y785256D01*
Y783590D01*
X1722882Y469900D02*
Y479897D01*
X1727880D01*
X1729547Y478231D01*
Y474898D01*
X1727880Y473232D01*
X1722882D01*
X1726214D02*
X1729547Y469900D01*
X1732879Y478231D02*
X1734545Y479897D01*
X1737877D01*
X1739543Y478231D01*
Y476564D01*
X1737877Y474898D01*
X1739543Y473232D01*
Y471566D01*
X1737877Y469900D01*
X1734545D01*
X1732879Y471566D01*
Y473232D01*
X1734545Y474898D01*
X1732879Y476564D01*
Y478231D01*
X1734545Y474898D02*
X1737877D01*
X1724152Y919480D02*
Y929477D01*
X1729150D01*
X1730816Y927811D01*
Y924478D01*
X1729150Y922812D01*
X1724152D01*
X1727484D02*
X1730816Y919480D01*
X1734149Y921146D02*
X1735815Y919480D01*
X1739147D01*
X1740813Y921146D01*
Y927811D01*
X1739147Y929477D01*
X1735815D01*
X1734149Y927811D01*
Y926144D01*
X1735815Y924478D01*
X1740813D01*
X1724152Y547370D02*
Y557367D01*
X1729150D01*
X1730816Y555701D01*
Y552368D01*
X1729150Y550702D01*
X1724152D01*
X1727484D02*
X1730816Y547370D01*
X1734149D02*
X1737481D01*
X1735815D01*
Y557367D01*
X1734149Y555701D01*
X1742479D02*
X1744146Y557367D01*
X1747478D01*
X1749144Y555701D01*
Y549036D01*
X1747478Y547370D01*
X1744146D01*
X1742479Y549036D01*
Y555701D01*
X1724152Y994410D02*
Y1004407D01*
X1729150D01*
X1730816Y1002741D01*
Y999408D01*
X1729150Y997742D01*
X1724152D01*
X1727484D02*
X1730816Y994410D01*
X1734149D02*
X1737481D01*
X1735815D01*
Y1004407D01*
X1734149Y1002741D01*
X1742479Y994410D02*
X1745812D01*
X1744146D01*
Y1004407D01*
X1742479Y1002741D01*
X1722882Y1106170D02*
Y1116167D01*
X1727880D01*
X1729547Y1114501D01*
Y1111168D01*
X1727880Y1109502D01*
X1722882D01*
X1726214D02*
X1729547Y1106170D01*
X1732879D02*
X1736211D01*
X1734545D01*
Y1116167D01*
X1732879Y1114501D01*
X1747874Y1106170D02*
X1741209D01*
X1747874Y1112834D01*
Y1114501D01*
X1746208Y1116167D01*
X1742876D01*
X1741209Y1114501D01*
X1724152Y1553210D02*
Y1563207D01*
X1729150D01*
X1730816Y1561541D01*
Y1558208D01*
X1729150Y1556542D01*
X1724152D01*
X1727484D02*
X1730816Y1553210D01*
X1734149D02*
X1737481D01*
X1735815D01*
Y1563207D01*
X1734149Y1561541D01*
X1742479D02*
X1744146Y1563207D01*
X1747478D01*
X1749144Y1561541D01*
Y1559875D01*
X1747478Y1558208D01*
X1745812D01*
X1747478D01*
X1749144Y1556542D01*
Y1554876D01*
X1747478Y1553210D01*
X1744146D01*
X1742479Y1554876D01*
X1722882Y1219200D02*
Y1229197D01*
X1727880D01*
X1729547Y1227531D01*
Y1224198D01*
X1727880Y1222532D01*
X1722882D01*
X1726214D02*
X1729547Y1219200D01*
X1732879D02*
X1736211D01*
X1734545D01*
Y1229197D01*
X1732879Y1227531D01*
X1746208Y1219200D02*
Y1229197D01*
X1741209Y1224198D01*
X1747874D01*
X1724152Y1666240D02*
Y1676237D01*
X1729150D01*
X1730816Y1674571D01*
Y1671238D01*
X1729150Y1669572D01*
X1724152D01*
X1727484D02*
X1730816Y1666240D01*
X1734149D02*
X1737481D01*
X1735815D01*
Y1676237D01*
X1734149Y1674571D01*
X1749144Y1676237D02*
X1742479D01*
Y1671238D01*
X1745812Y1672905D01*
X1747478D01*
X1749144Y1671238D01*
Y1667906D01*
X1747478Y1666240D01*
X1744146D01*
X1742479Y1667906D01*
X1428242Y1233170D02*
Y1243167D01*
X1433240D01*
X1434906Y1241501D01*
Y1238168D01*
X1433240Y1236502D01*
X1428242D01*
X1431574D02*
X1434906Y1233170D01*
X1438239D02*
X1441571D01*
X1439905D01*
Y1243167D01*
X1438239Y1241501D01*
X1453234Y1243167D02*
X1449902Y1241501D01*
X1446569Y1238168D01*
Y1234836D01*
X1448236Y1233170D01*
X1451568D01*
X1453234Y1234836D01*
Y1236502D01*
X1451568Y1238168D01*
X1446569D01*
X1435100Y1677670D02*
Y1687667D01*
X1440098D01*
X1441765Y1686001D01*
Y1682668D01*
X1440098Y1681002D01*
X1435100D01*
X1438432D02*
X1441765Y1677670D01*
X1445097D02*
X1448429D01*
X1446763D01*
Y1687667D01*
X1445097Y1686001D01*
X1453427Y1687667D02*
X1460092D01*
Y1686001D01*
X1453427Y1679336D01*
Y1677670D01*
X1720342Y1367790D02*
Y1377787D01*
X1725340D01*
X1727007Y1376121D01*
Y1372788D01*
X1725340Y1371122D01*
X1720342D01*
X1723674D02*
X1727007Y1367790D01*
X1730339D02*
X1733671D01*
X1732005D01*
Y1377787D01*
X1730339Y1376121D01*
X1738669D02*
X1740336Y1377787D01*
X1743668D01*
X1745334Y1376121D01*
Y1374454D01*
X1743668Y1372788D01*
X1745334Y1371122D01*
Y1369456D01*
X1743668Y1367790D01*
X1740336D01*
X1738669Y1369456D01*
Y1371122D01*
X1740336Y1372788D01*
X1738669Y1374454D01*
Y1376121D01*
X1740336Y1372788D02*
X1743668D01*
X1721358Y1818640D02*
Y1828637D01*
X1726356D01*
X1728022Y1826971D01*
Y1823638D01*
X1726356Y1821972D01*
X1721358D01*
X1724690D02*
X1728022Y1818640D01*
X1731355D02*
X1734687D01*
X1733021D01*
Y1828637D01*
X1731355Y1826971D01*
X1739685Y1820306D02*
X1741352Y1818640D01*
X1744684D01*
X1746350Y1820306D01*
Y1826971D01*
X1744684Y1828637D01*
X1741352D01*
X1739685Y1826971D01*
Y1825305D01*
X1741352Y1823638D01*
X1746350D01*
X1217930Y1734820D02*
Y1744817D01*
X1222928D01*
X1224594Y1743151D01*
Y1739818D01*
X1222928Y1738152D01*
X1217930D01*
X1221262D02*
X1224594Y1734820D01*
X1234591D02*
X1227927D01*
X1234591Y1741485D01*
Y1743151D01*
X1232925Y1744817D01*
X1229593D01*
X1227927Y1743151D01*
X1237924D02*
X1239590Y1744817D01*
X1242922D01*
X1244588Y1743151D01*
Y1736486D01*
X1242922Y1734820D01*
X1239590D01*
X1237924Y1736486D01*
Y1743151D01*
X1724152Y1441450D02*
Y1451447D01*
X1729150D01*
X1730816Y1449781D01*
Y1446448D01*
X1729150Y1444782D01*
X1724152D01*
X1727484D02*
X1730816Y1441450D01*
X1740813D02*
X1734149D01*
X1740813Y1448114D01*
Y1449781D01*
X1739147Y1451447D01*
X1735815D01*
X1734149Y1449781D01*
X1744146Y1441450D02*
X1747478D01*
X1745812D01*
Y1451447D01*
X1744146Y1449781D01*
X1724152Y1889760D02*
Y1899757D01*
X1729150D01*
X1730816Y1898091D01*
Y1894758D01*
X1729150Y1893092D01*
X1724152D01*
X1727484D02*
X1730816Y1889760D01*
X1740813D02*
X1734149D01*
X1740813Y1896425D01*
Y1898091D01*
X1739147Y1899757D01*
X1735815D01*
X1734149Y1898091D01*
X1750810Y1889760D02*
X1744146D01*
X1750810Y1896425D01*
Y1898091D01*
X1749144Y1899757D01*
X1745812D01*
X1744146Y1898091D01*
X1194308Y1780286D02*
Y1790283D01*
X1199306D01*
X1200973Y1788617D01*
Y1785284D01*
X1199306Y1783618D01*
X1194308D01*
X1197640D02*
X1200973Y1780286D01*
X1210969D02*
X1204305D01*
X1210969Y1786951D01*
Y1788617D01*
X1209303Y1790283D01*
X1205971D01*
X1204305Y1788617D01*
X1214302D02*
X1215968Y1790283D01*
X1219300D01*
X1220966Y1788617D01*
Y1786951D01*
X1219300Y1785284D01*
X1217634D01*
X1219300D01*
X1220966Y1783618D01*
Y1781952D01*
X1219300Y1780286D01*
X1215968D01*
X1214302Y1781952D01*
X1146810Y1742440D02*
Y1752437D01*
X1151808D01*
X1153475Y1750771D01*
Y1747438D01*
X1151808Y1745772D01*
X1146810D01*
X1150142D02*
X1153475Y1742440D01*
X1163471D02*
X1156807D01*
X1163471Y1749104D01*
Y1750771D01*
X1161805Y1752437D01*
X1158473D01*
X1156807Y1750771D01*
X1171802Y1742440D02*
Y1752437D01*
X1166804Y1747438D01*
X1173468D01*
X1062990Y1720850D02*
Y1730847D01*
X1067988D01*
X1069654Y1729181D01*
Y1725848D01*
X1067988Y1724182D01*
X1062990D01*
X1066322D02*
X1069654Y1720850D01*
X1079651D02*
X1072987D01*
X1079651Y1727514D01*
Y1729181D01*
X1077985Y1730847D01*
X1074653D01*
X1072987Y1729181D01*
X1089648Y1730847D02*
X1082984D01*
Y1725848D01*
X1086316Y1727514D01*
X1087982D01*
X1089648Y1725848D01*
Y1722516D01*
X1087982Y1720850D01*
X1084650D01*
X1082984Y1722516D01*
X85852Y1838960D02*
Y1848957D01*
X90850D01*
X92516Y1847291D01*
Y1843958D01*
X90850Y1842292D01*
X85852D01*
X89184D02*
X92516Y1838960D01*
X102513D02*
X95849D01*
X102513Y1845625D01*
Y1847291D01*
X100847Y1848957D01*
X97515D01*
X95849Y1847291D01*
X112510Y1848957D02*
X109178Y1847291D01*
X105846Y1843958D01*
Y1840626D01*
X107512Y1838960D01*
X110844D01*
X112510Y1840626D01*
Y1842292D01*
X110844Y1843958D01*
X105846D01*
X87122Y1390650D02*
Y1400647D01*
X92120D01*
X93786Y1398981D01*
Y1395648D01*
X92120Y1393982D01*
X87122D01*
X90454D02*
X93786Y1390650D01*
X103783D02*
X97119D01*
X103783Y1397314D01*
Y1398981D01*
X102117Y1400647D01*
X98785D01*
X97119Y1398981D01*
X107116Y1400647D02*
X113780D01*
Y1398981D01*
X107116Y1392316D01*
Y1390650D01*
X808990Y1510030D02*
Y1520027D01*
X813988D01*
X815655Y1518361D01*
Y1515028D01*
X813988Y1513362D01*
X808990D01*
X812322D02*
X815655Y1510030D01*
X825651D02*
X818987D01*
X825651Y1516694D01*
Y1518361D01*
X823985Y1520027D01*
X820653D01*
X818987Y1518361D01*
X828984D02*
X830650Y1520027D01*
X833982D01*
X835648Y1518361D01*
Y1516694D01*
X833982Y1515028D01*
X835648Y1513362D01*
Y1511696D01*
X833982Y1510030D01*
X830650D01*
X828984Y1511696D01*
Y1513362D01*
X830650Y1515028D01*
X828984Y1516694D01*
Y1518361D01*
X830650Y1515028D02*
X833982D01*
X85852Y1727200D02*
Y1737197D01*
X90850D01*
X92516Y1735531D01*
Y1732198D01*
X90850Y1730532D01*
X85852D01*
X89184D02*
X92516Y1727200D01*
X102513D02*
X95849D01*
X102513Y1733864D01*
Y1735531D01*
X100847Y1737197D01*
X97515D01*
X95849Y1735531D01*
X105846Y1728866D02*
X107512Y1727200D01*
X110844D01*
X112510Y1728866D01*
Y1735531D01*
X110844Y1737197D01*
X107512D01*
X105846Y1735531D01*
Y1733864D01*
X107512Y1732198D01*
X112510D01*
X84582Y1277620D02*
Y1287617D01*
X89580D01*
X91247Y1285951D01*
Y1282618D01*
X89580Y1280952D01*
X84582D01*
X87914D02*
X91247Y1277620D01*
X94579Y1285951D02*
X96245Y1287617D01*
X99577D01*
X101243Y1285951D01*
Y1284285D01*
X99577Y1282618D01*
X97911D01*
X99577D01*
X101243Y1280952D01*
Y1279286D01*
X99577Y1277620D01*
X96245D01*
X94579Y1279286D01*
X104576Y1285951D02*
X106242Y1287617D01*
X109574D01*
X111240Y1285951D01*
Y1279286D01*
X109574Y1277620D01*
X106242D01*
X104576Y1279286D01*
Y1285951D01*
X778510Y1543050D02*
Y1553047D01*
X783508D01*
X785174Y1551381D01*
Y1548048D01*
X783508Y1546382D01*
X778510D01*
X781842D02*
X785174Y1543050D01*
X788507Y1551381D02*
X790173Y1553047D01*
X793505D01*
X795171Y1551381D01*
Y1549715D01*
X793505Y1548048D01*
X791839D01*
X793505D01*
X795171Y1546382D01*
Y1544716D01*
X793505Y1543050D01*
X790173D01*
X788507Y1544716D01*
X798504Y1543050D02*
X801836D01*
X800170D01*
Y1553047D01*
X798504Y1551381D01*
X379730Y1704340D02*
Y1714337D01*
X384728D01*
X386395Y1712671D01*
Y1709338D01*
X384728Y1707672D01*
X379730D01*
X383062D02*
X386395Y1704340D01*
X389727Y1712671D02*
X391393Y1714337D01*
X394725D01*
X396391Y1712671D01*
Y1711004D01*
X394725Y1709338D01*
X393059D01*
X394725D01*
X396391Y1707672D01*
Y1706006D01*
X394725Y1704340D01*
X391393D01*
X389727Y1706006D01*
X406388Y1704340D02*
X399724D01*
X406388Y1711004D01*
Y1712671D01*
X404722Y1714337D01*
X401390D01*
X399724Y1712671D01*
X379730Y1257300D02*
Y1267297D01*
X384728D01*
X386395Y1265631D01*
Y1262298D01*
X384728Y1260632D01*
X379730D01*
X383062D02*
X386395Y1257300D01*
X389727Y1265631D02*
X391393Y1267297D01*
X394725D01*
X396391Y1265631D01*
Y1263964D01*
X394725Y1262298D01*
X393059D01*
X394725D01*
X396391Y1260632D01*
Y1258966D01*
X394725Y1257300D01*
X391393D01*
X389727Y1258966D01*
X399724Y1265631D02*
X401390Y1267297D01*
X404722D01*
X406388Y1265631D01*
Y1263964D01*
X404722Y1262298D01*
X403056D01*
X404722D01*
X406388Y1260632D01*
Y1258966D01*
X404722Y1257300D01*
X401390D01*
X399724Y1258966D01*
X782320Y1584960D02*
Y1594957D01*
X787318D01*
X788985Y1593291D01*
Y1589958D01*
X787318Y1588292D01*
X782320D01*
X785652D02*
X788985Y1584960D01*
X792317Y1593291D02*
X793983Y1594957D01*
X797315D01*
X798981Y1593291D01*
Y1591624D01*
X797315Y1589958D01*
X795649D01*
X797315D01*
X798981Y1588292D01*
Y1586626D01*
X797315Y1584960D01*
X793983D01*
X792317Y1586626D01*
X807312Y1584960D02*
Y1594957D01*
X802314Y1589958D01*
X808978D01*
X762000Y1671320D02*
Y1681317D01*
X766998D01*
X768664Y1679651D01*
Y1676318D01*
X766998Y1674652D01*
X762000D01*
X765332D02*
X768664Y1671320D01*
X771997Y1679651D02*
X773663Y1681317D01*
X776995D01*
X778661Y1679651D01*
Y1677984D01*
X776995Y1676318D01*
X775329D01*
X776995D01*
X778661Y1674652D01*
Y1672986D01*
X776995Y1671320D01*
X773663D01*
X771997Y1672986D01*
X788658Y1681317D02*
X781994D01*
Y1676318D01*
X785326Y1677984D01*
X786992D01*
X788658Y1676318D01*
Y1672986D01*
X786992Y1671320D01*
X783660D01*
X781994Y1672986D01*
X76200Y1572260D02*
Y1582257D01*
X81198D01*
X82865Y1580591D01*
Y1577258D01*
X81198Y1575592D01*
X76200D01*
X79532D02*
X82865Y1572260D01*
X86197Y1580591D02*
X87863Y1582257D01*
X91195D01*
X92861Y1580591D01*
Y1578925D01*
X91195Y1577258D01*
X89529D01*
X91195D01*
X92861Y1575592D01*
Y1573926D01*
X91195Y1572260D01*
X87863D01*
X86197Y1573926D01*
X102858Y1582257D02*
X99526Y1580591D01*
X96194Y1577258D01*
Y1573926D01*
X97860Y1572260D01*
X101192D01*
X102858Y1573926D01*
Y1575592D01*
X101192Y1577258D01*
X96194D01*
X84582Y1130300D02*
Y1140297D01*
X89580D01*
X91247Y1138631D01*
Y1135298D01*
X89580Y1133632D01*
X84582D01*
X87914D02*
X91247Y1130300D01*
X94579Y1138631D02*
X96245Y1140297D01*
X99577D01*
X101243Y1138631D01*
Y1136964D01*
X99577Y1135298D01*
X97911D01*
X99577D01*
X101243Y1133632D01*
Y1131966D01*
X99577Y1130300D01*
X96245D01*
X94579Y1131966D01*
X104576Y1140297D02*
X111240D01*
Y1138631D01*
X104576Y1131966D01*
Y1130300D01*
X83312Y1503680D02*
Y1513677D01*
X88310D01*
X89977Y1512011D01*
Y1508678D01*
X88310Y1507012D01*
X83312D01*
X86644D02*
X89977Y1503680D01*
X93309Y1512011D02*
X94975Y1513677D01*
X98307D01*
X99973Y1512011D01*
Y1510345D01*
X98307Y1508678D01*
X96641D01*
X98307D01*
X99973Y1507012D01*
Y1505346D01*
X98307Y1503680D01*
X94975D01*
X93309Y1505346D01*
X103306Y1512011D02*
X104972Y1513677D01*
X108304D01*
X109970Y1512011D01*
Y1510345D01*
X108304Y1508678D01*
X109970Y1507012D01*
Y1505346D01*
X108304Y1503680D01*
X104972D01*
X103306Y1505346D01*
Y1507012D01*
X104972Y1508678D01*
X103306Y1510345D01*
Y1512011D01*
X104972Y1508678D02*
X108304D01*
X82550Y1051560D02*
Y1061557D01*
X87548D01*
X89214Y1059891D01*
Y1056558D01*
X87548Y1054892D01*
X82550D01*
X85882D02*
X89214Y1051560D01*
X92547Y1059891D02*
X94213Y1061557D01*
X97545D01*
X99211Y1059891D01*
Y1058224D01*
X97545Y1056558D01*
X95879D01*
X97545D01*
X99211Y1054892D01*
Y1053226D01*
X97545Y1051560D01*
X94213D01*
X92547Y1053226D01*
X102544D02*
X104210Y1051560D01*
X107542D01*
X109208Y1053226D01*
Y1059891D01*
X107542Y1061557D01*
X104210D01*
X102544Y1059891D01*
Y1058224D01*
X104210Y1056558D01*
X109208D01*
X614680Y1507490D02*
Y1517487D01*
X619678D01*
X621344Y1515821D01*
Y1512488D01*
X619678Y1510822D01*
X614680D01*
X618012D02*
X621344Y1507490D01*
X629675D02*
Y1517487D01*
X624677Y1512488D01*
X631341D01*
X634674Y1515821D02*
X636340Y1517487D01*
X639672D01*
X641338Y1515821D01*
Y1509156D01*
X639672Y1507490D01*
X636340D01*
X634674Y1509156D01*
Y1515821D01*
X584200Y1546860D02*
Y1556857D01*
X589198D01*
X590864Y1555191D01*
Y1551858D01*
X589198Y1550192D01*
X584200D01*
X587532D02*
X590864Y1546860D01*
X599195D02*
Y1556857D01*
X594197Y1551858D01*
X600861D01*
X604194Y1546860D02*
X607526D01*
X605860D01*
Y1556857D01*
X604194Y1555191D01*
X591820Y1591310D02*
Y1601307D01*
X596818D01*
X598484Y1599641D01*
Y1596308D01*
X596818Y1594642D01*
X591820D01*
X595152D02*
X598484Y1591310D01*
X606815D02*
Y1601307D01*
X601817Y1596308D01*
X608481D01*
X618478Y1591310D02*
X611814D01*
X618478Y1597975D01*
Y1599641D01*
X616812Y1601307D01*
X613480D01*
X611814Y1599641D01*
X599570Y1662430D02*
X589573D01*
Y1667428D01*
X591239Y1669095D01*
X594572D01*
X596238Y1667428D01*
Y1662430D01*
Y1665762D02*
X599570Y1669095D01*
Y1677425D02*
X589573D01*
X594572Y1672427D01*
Y1679091D01*
X591239Y1682424D02*
X589573Y1684090D01*
Y1687422D01*
X591239Y1689088D01*
X592906D01*
X594572Y1687422D01*
Y1685756D01*
Y1687422D01*
X596238Y1689088D01*
X597904D01*
X599570Y1687422D01*
Y1684090D01*
X597904Y1682424D01*
X81280Y910590D02*
Y920587D01*
X86278D01*
X87944Y918921D01*
Y915588D01*
X86278Y913922D01*
X81280D01*
X84612D02*
X87944Y910590D01*
X96275D02*
Y920587D01*
X91277Y915588D01*
X97941D01*
X106272Y910590D02*
Y920587D01*
X101274Y915588D01*
X107938D01*
X86360Y487680D02*
Y497677D01*
X91358D01*
X93025Y496011D01*
Y492678D01*
X91358Y491012D01*
X86360D01*
X89692D02*
X93025Y487680D01*
X101355D02*
Y497677D01*
X96357Y492678D01*
X103021D01*
X113018Y497677D02*
X106354D01*
Y492678D01*
X109686Y494344D01*
X111352D01*
X113018Y492678D01*
Y489346D01*
X111352Y487680D01*
X108020D01*
X106354Y489346D01*
X82042Y830580D02*
Y840577D01*
X87040D01*
X88707Y838911D01*
Y835578D01*
X87040Y833912D01*
X82042D01*
X85374D02*
X88707Y830580D01*
X97037D02*
Y840577D01*
X92039Y835578D01*
X98703D01*
X108700Y840577D02*
X105368Y838911D01*
X102036Y835578D01*
Y832246D01*
X103702Y830580D01*
X107034D01*
X108700Y832246D01*
Y833912D01*
X107034Y835578D01*
X102036D01*
X95250Y374650D02*
Y384647D01*
X100248D01*
X101915Y382981D01*
Y379648D01*
X100248Y377982D01*
X95250D01*
X98582D02*
X101915Y374650D01*
X110245D02*
Y384647D01*
X105247Y379648D01*
X111911D01*
X115244Y384647D02*
X121908D01*
Y382981D01*
X115244Y376316D01*
Y374650D01*
X378460Y815340D02*
Y825337D01*
X383458D01*
X385125Y823671D01*
Y820338D01*
X383458Y818672D01*
X378460D01*
X381792D02*
X385125Y815340D01*
X393455D02*
Y825337D01*
X388457Y820338D01*
X395121D01*
X398454Y823671D02*
X400120Y825337D01*
X403452D01*
X405118Y823671D01*
Y822004D01*
X403452Y820338D01*
X405118Y818672D01*
Y817006D01*
X403452Y815340D01*
X400120D01*
X398454Y817006D01*
Y818672D01*
X400120Y820338D01*
X398454Y822004D01*
Y823671D01*
X400120Y820338D02*
X403452D01*
X384810Y341630D02*
Y351627D01*
X389808D01*
X391474Y349961D01*
Y346628D01*
X389808Y344962D01*
X384810D01*
X388142D02*
X391474Y341630D01*
X399805D02*
Y351627D01*
X394807Y346628D01*
X401471D01*
X404804Y343296D02*
X406470Y341630D01*
X409802D01*
X411468Y343296D01*
Y349961D01*
X409802Y351627D01*
X406470D01*
X404804Y349961D01*
Y348294D01*
X406470Y346628D01*
X411468D01*
X81280Y680720D02*
Y690717D01*
X86278D01*
X87944Y689051D01*
Y685718D01*
X86278Y684052D01*
X81280D01*
X84612D02*
X87944Y680720D01*
X97941Y690717D02*
X91277D01*
Y685718D01*
X94609Y687384D01*
X96275D01*
X97941Y685718D01*
Y682386D01*
X96275Y680720D01*
X92943D01*
X91277Y682386D01*
X101274Y689051D02*
X102940Y690717D01*
X106272D01*
X107938Y689051D01*
Y682386D01*
X106272Y680720D01*
X102940D01*
X101274Y682386D01*
Y689051D01*
X80772Y269240D02*
Y279237D01*
X85770D01*
X87437Y277571D01*
Y274238D01*
X85770Y272572D01*
X80772D01*
X84104D02*
X87437Y269240D01*
X97433Y279237D02*
X90769D01*
Y274238D01*
X94101Y275905D01*
X95767D01*
X97433Y274238D01*
Y270906D01*
X95767Y269240D01*
X92435D01*
X90769Y270906D01*
X100766Y269240D02*
X104098D01*
X102432D01*
Y279237D01*
X100766Y277571D01*
X82550Y574040D02*
Y584037D01*
X87548D01*
X89214Y582371D01*
Y579038D01*
X87548Y577372D01*
X82550D01*
X85882D02*
X89214Y574040D01*
X99211Y584037D02*
X92547D01*
Y579038D01*
X95879Y580704D01*
X97545D01*
X99211Y579038D01*
Y575706D01*
X97545Y574040D01*
X94213D01*
X92547Y575706D01*
X109208Y574040D02*
X102544D01*
X109208Y580704D01*
Y582371D01*
X107542Y584037D01*
X104210D01*
X102544Y582371D01*
X80010Y125730D02*
Y135727D01*
X85008D01*
X86674Y134061D01*
Y130728D01*
X85008Y129062D01*
X80010D01*
X83342D02*
X86674Y125730D01*
X96671Y135727D02*
X90007D01*
Y130728D01*
X93339Y132395D01*
X95005D01*
X96671Y130728D01*
Y127396D01*
X95005Y125730D01*
X91673D01*
X90007Y127396D01*
X100004Y134061D02*
X101670Y135727D01*
X105002D01*
X106668Y134061D01*
Y132395D01*
X105002Y130728D01*
X103336D01*
X105002D01*
X106668Y129062D01*
Y127396D01*
X105002Y125730D01*
X101670D01*
X100004Y127396D01*
X1451610Y253837D02*
Y245506D01*
X1453276Y243840D01*
X1456608D01*
X1458275Y245506D01*
Y253837D01*
X1461607Y243840D02*
X1464939D01*
X1463273D01*
Y253837D01*
X1461607Y252171D01*
X1451610Y693257D02*
Y684926D01*
X1453276Y683260D01*
X1456608D01*
X1458275Y684926D01*
Y693257D01*
X1468271Y683260D02*
X1461607D01*
X1468271Y689924D01*
Y691591D01*
X1466605Y693257D01*
X1463273D01*
X1461607Y691591D01*
X1014730Y1537807D02*
Y1529476D01*
X1016396Y1527810D01*
X1019728D01*
X1021395Y1529476D01*
Y1537807D01*
X1024727Y1536141D02*
X1026393Y1537807D01*
X1029725D01*
X1031391Y1536141D01*
Y1534474D01*
X1029725Y1532808D01*
X1028059D01*
X1029725D01*
X1031391Y1531142D01*
Y1529476D01*
X1029725Y1527810D01*
X1026393D01*
X1024727Y1529476D01*
X1543050Y271617D02*
Y263286D01*
X1544716Y261620D01*
X1548048D01*
X1549715Y263286D01*
Y271617D01*
X1558045Y261620D02*
Y271617D01*
X1553047Y266618D01*
X1559711D01*
X1582420Y877407D02*
Y869076D01*
X1584086Y867410D01*
X1587418D01*
X1589084Y869076D01*
Y877407D01*
X1599081D02*
X1592417D01*
Y872408D01*
X1595749Y874074D01*
X1597415D01*
X1599081Y872408D01*
Y869076D01*
X1597415Y867410D01*
X1594083D01*
X1592417Y869076D01*
X1395730Y534761D02*
Y526430D01*
X1397396Y524764D01*
X1400728D01*
X1402395Y526430D01*
Y534761D01*
X1412391D02*
X1409059Y533095D01*
X1405727Y529762D01*
Y526430D01*
X1407393Y524764D01*
X1410725D01*
X1412391Y526430D01*
Y528096D01*
X1410725Y529762D01*
X1405727D01*
X1451610Y954877D02*
Y946546D01*
X1453276Y944880D01*
X1456608D01*
X1458275Y946546D01*
Y954877D01*
X1461607D02*
X1468271D01*
Y953211D01*
X1461607Y946546D01*
Y944880D01*
X1452880Y1158458D02*
Y1150127D01*
X1454546Y1148461D01*
X1457878D01*
X1459545Y1150127D01*
Y1158458D01*
X1462877Y1156792D02*
X1464543Y1158458D01*
X1467875D01*
X1469541Y1156792D01*
Y1155126D01*
X1467875Y1153459D01*
X1469541Y1151793D01*
Y1150127D01*
X1467875Y1148461D01*
X1464543D01*
X1462877Y1150127D01*
Y1151793D01*
X1464543Y1153459D01*
X1462877Y1155126D01*
Y1156792D01*
X1464543Y1153459D02*
X1467875D01*
X1452880Y1606387D02*
Y1598056D01*
X1454546Y1596390D01*
X1457878D01*
X1459545Y1598056D01*
Y1606387D01*
X1462877Y1598056D02*
X1464543Y1596390D01*
X1467875D01*
X1469541Y1598056D01*
Y1604721D01*
X1467875Y1606387D01*
X1464543D01*
X1462877Y1604721D01*
Y1603055D01*
X1464543Y1601388D01*
X1469541D01*
X1583690Y1323177D02*
Y1314846D01*
X1585356Y1313180D01*
X1588688D01*
X1590354Y1314846D01*
Y1323177D01*
X1593687Y1313180D02*
X1597019D01*
X1595353D01*
Y1323177D01*
X1593687Y1321511D01*
X1602017D02*
X1603684Y1323177D01*
X1607016D01*
X1608682Y1321511D01*
Y1314846D01*
X1607016Y1313180D01*
X1603684D01*
X1602017Y1314846D01*
Y1321511D01*
X1579880Y1772757D02*
Y1764426D01*
X1581546Y1762760D01*
X1584878D01*
X1586544Y1764426D01*
Y1772757D01*
X1589877Y1762760D02*
X1593209D01*
X1591543D01*
Y1772757D01*
X1589877Y1771091D01*
X1598207Y1762760D02*
X1601540D01*
X1599874D01*
Y1772757D01*
X1598207Y1771091D01*
X1447800Y1409537D02*
Y1401206D01*
X1449466Y1399540D01*
X1452798D01*
X1454465Y1401206D01*
Y1409537D01*
X1457797Y1399540D02*
X1461129D01*
X1459463D01*
Y1409537D01*
X1457797Y1407871D01*
X1472792Y1399540D02*
X1466127D01*
X1472792Y1406205D01*
Y1407871D01*
X1471126Y1409537D01*
X1467794D01*
X1466127Y1407871D01*
X1412240Y1885787D02*
Y1877456D01*
X1413906Y1875790D01*
X1417238D01*
X1418905Y1877456D01*
Y1885787D01*
X1422237Y1875790D02*
X1425569D01*
X1423903D01*
Y1885787D01*
X1422237Y1884121D01*
X1430567D02*
X1432234Y1885787D01*
X1435566D01*
X1437232Y1884121D01*
Y1882455D01*
X1435566Y1880788D01*
X1433900D01*
X1435566D01*
X1437232Y1879122D01*
Y1877456D01*
X1435566Y1875790D01*
X1432234D01*
X1430567Y1877456D01*
X1098550Y1746087D02*
Y1737756D01*
X1100216Y1736090D01*
X1103548D01*
X1105214Y1737756D01*
Y1746087D01*
X1108547Y1736090D02*
X1111879D01*
X1110213D01*
Y1746087D01*
X1108547Y1744421D01*
X1121876Y1736090D02*
Y1746087D01*
X1116877Y1741088D01*
X1123542D01*
X355600Y1774916D02*
Y1766585D01*
X357266Y1764919D01*
X360598D01*
X362265Y1766585D01*
Y1774916D01*
X365597Y1764919D02*
X368929D01*
X367263D01*
Y1774916D01*
X365597Y1773250D01*
X380592Y1774916D02*
X373927D01*
Y1769917D01*
X377260Y1771584D01*
X378926D01*
X380592Y1769917D01*
Y1766585D01*
X378926Y1764919D01*
X375594D01*
X373927Y1766585D01*
X356870Y1331686D02*
Y1323355D01*
X358536Y1321689D01*
X361868D01*
X363535Y1323355D01*
Y1331686D01*
X366867Y1321689D02*
X370199D01*
X368533D01*
Y1331686D01*
X366867Y1330020D01*
X381862Y1331686D02*
X378530Y1330020D01*
X375197Y1326687D01*
Y1323355D01*
X376864Y1321689D01*
X380196D01*
X381862Y1323355D01*
Y1325021D01*
X380196Y1326687D01*
X375197D01*
X777240Y1655917D02*
Y1647586D01*
X778906Y1645920D01*
X782238D01*
X783904Y1647586D01*
Y1655917D01*
X787237Y1645920D02*
X790569D01*
X788903D01*
Y1655917D01*
X787237Y1654251D01*
X795567Y1655917D02*
X802232D01*
Y1654251D01*
X795567Y1647586D01*
Y1645920D01*
X273050Y1760057D02*
Y1751726D01*
X274716Y1750060D01*
X278048D01*
X279715Y1751726D01*
Y1760057D01*
X283047Y1750060D02*
X286379D01*
X284713D01*
Y1760057D01*
X283047Y1758391D01*
X291377D02*
X293044Y1760057D01*
X296376D01*
X298042Y1758391D01*
Y1756725D01*
X296376Y1755058D01*
X298042Y1753392D01*
Y1751726D01*
X296376Y1750060D01*
X293044D01*
X291377Y1751726D01*
Y1753392D01*
X293044Y1755058D01*
X291377Y1756725D01*
Y1758391D01*
X293044Y1755058D02*
X296376D01*
X120650Y1324243D02*
Y1315912D01*
X122316Y1314246D01*
X125648D01*
X127315Y1315912D01*
Y1324243D01*
X130647Y1314246D02*
X133979D01*
X132313D01*
Y1324243D01*
X130647Y1322577D01*
X138977Y1315912D02*
X140644Y1314246D01*
X143976D01*
X145642Y1315912D01*
Y1322577D01*
X143976Y1324243D01*
X140644D01*
X138977Y1322577D01*
Y1320910D01*
X140644Y1319244D01*
X145642D01*
X347980Y1513677D02*
Y1505346D01*
X349646Y1503680D01*
X352978D01*
X354645Y1505346D01*
Y1513677D01*
X364641Y1503680D02*
X357977D01*
X364641Y1510345D01*
Y1512011D01*
X362975Y1513677D01*
X359643D01*
X357977Y1512011D01*
X367974D02*
X369640Y1513677D01*
X372972D01*
X374638Y1512011D01*
Y1505346D01*
X372972Y1503680D01*
X369640D01*
X367974Y1505346D01*
Y1512011D01*
X353060Y1076797D02*
Y1068466D01*
X354726Y1066800D01*
X358058D01*
X359725Y1068466D01*
Y1076797D01*
X369721Y1066800D02*
X363057D01*
X369721Y1073465D01*
Y1075131D01*
X368055Y1076797D01*
X364723D01*
X363057Y1075131D01*
X373054Y1066800D02*
X376386D01*
X374720D01*
Y1076797D01*
X373054Y1075131D01*
X588010Y1649567D02*
Y1641236D01*
X589676Y1639570D01*
X593008D01*
X594674Y1641236D01*
Y1649567D01*
X604671Y1639570D02*
X598007D01*
X604671Y1646234D01*
Y1647901D01*
X603005Y1649567D01*
X599673D01*
X598007Y1647901D01*
X614668Y1639570D02*
X608004D01*
X614668Y1646234D01*
Y1647901D01*
X613002Y1649567D01*
X609670D01*
X608004Y1647901D01*
X350520Y895187D02*
Y886856D01*
X352186Y885190D01*
X355518D01*
X357184Y886856D01*
Y895187D01*
X367181Y885190D02*
X360517D01*
X367181Y891854D01*
Y893521D01*
X365515Y895187D01*
X362183D01*
X360517Y893521D01*
X370514D02*
X372180Y895187D01*
X375512D01*
X377178Y893521D01*
Y891854D01*
X375512Y890188D01*
X373846D01*
X375512D01*
X377178Y888522D01*
Y886856D01*
X375512Y885190D01*
X372180D01*
X370514Y886856D01*
X353060Y455767D02*
Y447436D01*
X354726Y445770D01*
X358058D01*
X359725Y447436D01*
Y455767D01*
X369721Y445770D02*
X363057D01*
X369721Y452435D01*
Y454101D01*
X368055Y455767D01*
X364723D01*
X363057Y454101D01*
X378052Y445770D02*
Y455767D01*
X373054Y450768D01*
X379718D01*
X179070Y871057D02*
Y862726D01*
X180736Y861060D01*
X184068D01*
X185735Y862726D01*
Y871057D01*
X195731Y861060D02*
X189067D01*
X195731Y867725D01*
Y869391D01*
X194065Y871057D01*
X190733D01*
X189067Y869391D01*
X205728Y871057D02*
X199064D01*
Y866058D01*
X202396Y867725D01*
X204062D01*
X205728Y866058D01*
Y862726D01*
X204062Y861060D01*
X200730D01*
X199064Y862726D01*
X349250Y636107D02*
Y627776D01*
X350916Y626110D01*
X354248D01*
X355914Y627776D01*
Y636107D01*
X365911Y626110D02*
X359247D01*
X365911Y632775D01*
Y634441D01*
X364245Y636107D01*
X360913D01*
X359247Y634441D01*
X369244Y636107D02*
X375908D01*
Y634441D01*
X369244Y627776D01*
Y626110D01*
X346710Y187797D02*
Y179466D01*
X348376Y177800D01*
X351708D01*
X353374Y179466D01*
Y187797D01*
X363371Y177800D02*
X356707D01*
X363371Y184464D01*
Y186131D01*
X361705Y187797D01*
X358373D01*
X356707Y186131D01*
X366704D02*
X368370Y187797D01*
X371702D01*
X373368Y186131D01*
Y184464D01*
X371702Y182798D01*
X373368Y181132D01*
Y179466D01*
X371702Y177800D01*
X368370D01*
X366704Y179466D01*
Y181132D01*
X368370Y182798D01*
X366704Y184464D01*
Y186131D01*
X368370Y182798D02*
X371702D01*
X1268730Y253837D02*
Y247172D01*
X1272062Y243840D01*
X1275395Y247172D01*
Y253837D01*
X1278727D02*
Y243840D01*
X1283725D01*
X1285391Y245506D01*
Y252171D01*
X1283725Y253837D01*
X1278727D01*
X1288724Y243840D02*
X1292056D01*
X1290390D01*
Y253837D01*
X1288724Y252171D01*
X1258570Y681827D02*
Y675162D01*
X1261902Y671830D01*
X1265235Y675162D01*
Y681827D01*
X1268567D02*
Y671830D01*
X1273565D01*
X1275231Y673496D01*
Y680161D01*
X1273565Y681827D01*
X1268567D01*
X1285228Y671830D02*
X1278564D01*
X1285228Y678494D01*
Y680161D01*
X1283562Y681827D01*
X1280230D01*
X1278564Y680161D01*
X1261110Y471007D02*
Y464342D01*
X1264442Y461010D01*
X1267775Y464342D01*
Y471007D01*
X1271107D02*
Y461010D01*
X1276105D01*
X1277771Y462676D01*
Y469341D01*
X1276105Y471007D01*
X1271107D01*
X1281104Y469341D02*
X1282770Y471007D01*
X1286102D01*
X1287768Y469341D01*
Y467674D01*
X1286102Y466008D01*
X1284436D01*
X1286102D01*
X1287768Y464342D01*
Y462676D01*
X1286102Y461010D01*
X1282770D01*
X1281104Y462676D01*
X1267460Y925667D02*
Y919002D01*
X1270792Y915670D01*
X1274125Y919002D01*
Y925667D01*
X1277457D02*
Y915670D01*
X1282455D01*
X1284121Y917336D01*
Y924001D01*
X1282455Y925667D01*
X1277457D01*
X1292452Y915670D02*
Y925667D01*
X1287454Y920668D01*
X1294118D01*
X1254760Y1126327D02*
Y1119662D01*
X1258092Y1116330D01*
X1261424Y1119662D01*
Y1126327D01*
X1264757D02*
Y1116330D01*
X1269755D01*
X1271421Y1117996D01*
Y1124661D01*
X1269755Y1126327D01*
X1264757D01*
X1281418D02*
X1274754D01*
Y1121328D01*
X1278086Y1122995D01*
X1279752D01*
X1281418Y1121328D01*
Y1117996D01*
X1279752Y1116330D01*
X1276420D01*
X1274754Y1117996D01*
X1264920Y1592417D02*
Y1585752D01*
X1268252Y1582420D01*
X1271584Y1585752D01*
Y1592417D01*
X1274917D02*
Y1582420D01*
X1279915D01*
X1281581Y1584086D01*
Y1590751D01*
X1279915Y1592417D01*
X1274917D01*
X1291578D02*
X1288246Y1590751D01*
X1284914Y1587418D01*
Y1584086D01*
X1286580Y1582420D01*
X1289912D01*
X1291578Y1584086D01*
Y1585752D01*
X1289912Y1587418D01*
X1284914D01*
X1257300Y1367627D02*
Y1360962D01*
X1260632Y1357630D01*
X1263964Y1360962D01*
Y1367627D01*
X1267297D02*
Y1357630D01*
X1272295D01*
X1273961Y1359296D01*
Y1365961D01*
X1272295Y1367627D01*
X1267297D01*
X1277294Y1365961D02*
X1278960Y1367627D01*
X1282292D01*
X1283958Y1365961D01*
Y1364294D01*
X1282292Y1362628D01*
X1283958Y1360962D01*
Y1359296D01*
X1282292Y1357630D01*
X1278960D01*
X1277294Y1359296D01*
Y1360962D01*
X1278960Y1362628D01*
X1277294Y1364294D01*
Y1365961D01*
X1278960Y1362628D02*
X1282292D01*
X1259840Y1832447D02*
Y1825782D01*
X1263172Y1822450D01*
X1266505Y1825782D01*
Y1832447D01*
X1269837D02*
Y1822450D01*
X1274835D01*
X1276501Y1824116D01*
Y1830781D01*
X1274835Y1832447D01*
X1269837D01*
X1279834Y1824116D02*
X1281500Y1822450D01*
X1284832D01*
X1286498Y1824116D01*
Y1830781D01*
X1284832Y1832447D01*
X1281500D01*
X1279834Y1830781D01*
Y1829115D01*
X1281500Y1827448D01*
X1286498D01*
X538480Y1780377D02*
Y1773712D01*
X541812Y1770380D01*
X545145Y1773712D01*
Y1780377D01*
X548477D02*
Y1770380D01*
X553475D01*
X555141Y1772046D01*
Y1778711D01*
X553475Y1780377D01*
X548477D01*
X558474Y1770380D02*
X561806D01*
X560140D01*
Y1780377D01*
X558474Y1778711D01*
X566804D02*
X568470Y1780377D01*
X571803D01*
X573469Y1778711D01*
Y1772046D01*
X571803Y1770380D01*
X568470D01*
X566804Y1772046D01*
Y1778711D01*
X541020Y1339687D02*
Y1333022D01*
X544352Y1329690D01*
X547685Y1333022D01*
Y1339687D01*
X551017D02*
Y1329690D01*
X556015D01*
X557681Y1331356D01*
Y1338021D01*
X556015Y1339687D01*
X551017D01*
X561014Y1329690D02*
X564346D01*
X562680D01*
Y1339687D01*
X561014Y1338021D01*
X569344Y1329690D02*
X572677D01*
X571010D01*
Y1339687D01*
X569344Y1338021D01*
X542290Y1541617D02*
Y1534952D01*
X545622Y1531620D01*
X548955Y1534952D01*
Y1541617D01*
X552287D02*
Y1531620D01*
X557285D01*
X558951Y1533286D01*
Y1539951D01*
X557285Y1541617D01*
X552287D01*
X562284Y1531620D02*
X565616D01*
X563950D01*
Y1541617D01*
X562284Y1539951D01*
X577279Y1531620D02*
X570614D01*
X577279Y1538284D01*
Y1539951D01*
X575613Y1541617D01*
X572280D01*
X570614Y1539951D01*
X510540Y1137757D02*
Y1131092D01*
X513872Y1127760D01*
X517205Y1131092D01*
Y1137757D01*
X520537D02*
Y1127760D01*
X525535D01*
X527201Y1129426D01*
Y1136091D01*
X525535Y1137757D01*
X520537D01*
X530534Y1127760D02*
X533866D01*
X532200D01*
Y1137757D01*
X530534Y1136091D01*
X538864D02*
X540530Y1137757D01*
X543863D01*
X545529Y1136091D01*
Y1134425D01*
X543863Y1132758D01*
X542197D01*
X543863D01*
X545529Y1131092D01*
Y1129426D01*
X543863Y1127760D01*
X540530D01*
X538864Y1129426D01*
X538480Y888837D02*
Y882172D01*
X541812Y878840D01*
X545145Y882172D01*
Y888837D01*
X548477D02*
Y878840D01*
X553475D01*
X555141Y880506D01*
Y887171D01*
X553475Y888837D01*
X548477D01*
X558474Y878840D02*
X561806D01*
X560140D01*
Y888837D01*
X558474Y887171D01*
X571803Y878840D02*
Y888837D01*
X566804Y883838D01*
X573469D01*
X496570Y486247D02*
Y479582D01*
X499902Y476250D01*
X503234Y479582D01*
Y486247D01*
X506567D02*
Y476250D01*
X511565D01*
X513231Y477916D01*
Y484581D01*
X511565Y486247D01*
X506567D01*
X516564Y476250D02*
X519896D01*
X518230D01*
Y486247D01*
X516564Y484581D01*
X531559Y486247D02*
X524894D01*
Y481248D01*
X528227Y482915D01*
X529893D01*
X531559Y481248D01*
Y477916D01*
X529893Y476250D01*
X526560D01*
X524894Y477916D01*
X535940Y648807D02*
Y642142D01*
X539272Y638810D01*
X542604Y642142D01*
Y648807D01*
X545937D02*
Y638810D01*
X550935D01*
X552601Y640476D01*
Y647141D01*
X550935Y648807D01*
X545937D01*
X555934Y638810D02*
X559266D01*
X557600D01*
Y648807D01*
X555934Y647141D01*
X570929Y648807D02*
X567597Y647141D01*
X564264Y643808D01*
Y640476D01*
X565930Y638810D01*
X569263D01*
X570929Y640476D01*
Y642142D01*
X569263Y643808D01*
X564264D01*
X539587Y236220D02*
X532922D01*
X529590Y232888D01*
X532922Y229555D01*
X539587D01*
Y226223D02*
X529590D01*
Y221225D01*
X531256Y219559D01*
X537921D01*
X539587Y221225D01*
Y226223D01*
X529590Y216226D02*
Y212894D01*
Y214560D01*
X539587D01*
X537921Y216226D01*
X539587Y207896D02*
Y201231D01*
X537921D01*
X531256Y207896D01*
X529590D01*
X1715770Y128107D02*
Y121442D01*
X1719102Y118110D01*
X1722435Y121442D01*
Y128107D01*
X1725767D02*
X1732431D01*
X1729099D01*
Y118110D01*
X1735764D02*
X1739096D01*
X1737430D01*
Y128107D01*
X1735764Y126441D01*
X1722120Y591657D02*
Y584992D01*
X1725452Y581660D01*
X1728784Y584992D01*
Y591657D01*
X1732117D02*
X1738781D01*
X1735449D01*
Y581660D01*
X1748778D02*
X1742114D01*
X1748778Y588325D01*
Y589991D01*
X1747112Y591657D01*
X1743780D01*
X1742114Y589991D01*
X1718310Y288127D02*
Y281462D01*
X1721642Y278130D01*
X1724975Y281462D01*
Y288127D01*
X1728307D02*
X1734971D01*
X1731639D01*
Y278130D01*
X1738304Y286461D02*
X1739970Y288127D01*
X1743302D01*
X1744968Y286461D01*
Y284795D01*
X1743302Y283128D01*
X1741636D01*
X1743302D01*
X1744968Y281462D01*
Y279796D01*
X1743302Y278130D01*
X1739970D01*
X1738304Y279796D01*
X1723390Y738977D02*
Y732312D01*
X1726722Y728980D01*
X1730054Y732312D01*
Y738977D01*
X1733387D02*
X1740051D01*
X1736719D01*
Y728980D01*
X1748382D02*
Y738977D01*
X1743384Y733978D01*
X1750048D01*
X1720850Y375757D02*
Y369092D01*
X1724182Y365760D01*
X1727514Y369092D01*
Y375757D01*
X1730847D02*
X1737511D01*
X1734179D01*
Y365760D01*
X1747508Y375757D02*
X1740844D01*
Y370758D01*
X1744176Y372425D01*
X1745842D01*
X1747508Y370758D01*
Y367426D01*
X1745842Y365760D01*
X1742510D01*
X1740844Y367426D01*
X1723390Y822797D02*
Y816132D01*
X1726722Y812800D01*
X1730054Y816132D01*
Y822797D01*
X1733387D02*
X1740051D01*
X1736719D01*
Y812800D01*
X1750048Y822797D02*
X1746716Y821131D01*
X1743384Y817798D01*
Y814466D01*
X1745050Y812800D01*
X1748382D01*
X1750048Y814466D01*
Y816132D01*
X1748382Y817798D01*
X1743384D01*
X1723390Y521807D02*
Y515142D01*
X1726722Y511810D01*
X1730054Y515142D01*
Y521807D01*
X1733387D02*
X1740051D01*
X1736719D01*
Y511810D01*
X1743384Y521807D02*
X1750048D01*
Y520141D01*
X1743384Y513476D01*
Y511810D01*
X1724660Y958687D02*
Y952022D01*
X1727992Y948690D01*
X1731324Y952022D01*
Y958687D01*
X1734657D02*
X1741321D01*
X1737989D01*
Y948690D01*
X1744654Y957021D02*
X1746320Y958687D01*
X1749652D01*
X1751318Y957021D01*
Y955355D01*
X1749652Y953688D01*
X1751318Y952022D01*
Y950356D01*
X1749652Y948690D01*
X1746320D01*
X1744654Y950356D01*
Y952022D01*
X1746320Y953688D01*
X1744654Y955355D01*
Y957021D01*
X1746320Y953688D02*
X1749652D01*
X1722120Y1036157D02*
Y1029492D01*
X1725452Y1026160D01*
X1728784Y1029492D01*
Y1036157D01*
X1732117D02*
X1738781D01*
X1735449D01*
Y1026160D01*
X1742114Y1027826D02*
X1743780Y1026160D01*
X1747112D01*
X1748778Y1027826D01*
Y1034491D01*
X1747112Y1036157D01*
X1743780D01*
X1742114Y1034491D01*
Y1032824D01*
X1743780Y1031158D01*
X1748778D01*
X1710690Y1481927D02*
Y1475262D01*
X1714022Y1471930D01*
X1717354Y1475262D01*
Y1481927D01*
X1720687D02*
X1727351D01*
X1724019D01*
Y1471930D01*
X1730684D02*
X1734016D01*
X1732350D01*
Y1481927D01*
X1730684Y1480261D01*
X1739014D02*
X1740680Y1481927D01*
X1744013D01*
X1745679Y1480261D01*
Y1473596D01*
X1744013Y1471930D01*
X1740680D01*
X1739014Y1473596D01*
Y1480261D01*
X1715770Y1192367D02*
Y1185702D01*
X1719102Y1182370D01*
X1722435Y1185702D01*
Y1192367D01*
X1725767D02*
X1732431D01*
X1729099D01*
Y1182370D01*
X1735764D02*
X1739096D01*
X1737430D01*
Y1192367D01*
X1735764Y1190701D01*
X1744094Y1182370D02*
X1747426D01*
X1745760D01*
Y1192367D01*
X1744094Y1190701D01*
X1713230Y1630517D02*
Y1623852D01*
X1716562Y1620520D01*
X1719895Y1623852D01*
Y1630517D01*
X1723227D02*
X1729891D01*
X1726559D01*
Y1620520D01*
X1733224D02*
X1736556D01*
X1734890D01*
Y1630517D01*
X1733224Y1628851D01*
X1748219Y1620520D02*
X1741554D01*
X1748219Y1627184D01*
Y1628851D01*
X1746553Y1630517D01*
X1743220D01*
X1741554Y1628851D01*
X1714500Y1257137D02*
Y1250472D01*
X1717832Y1247140D01*
X1721165Y1250472D01*
Y1257137D01*
X1724497D02*
X1731161D01*
X1727829D01*
Y1247140D01*
X1734494D02*
X1737826D01*
X1736160D01*
Y1257137D01*
X1734494Y1255471D01*
X1742824D02*
X1744490Y1257137D01*
X1747823D01*
X1749489Y1255471D01*
Y1253804D01*
X1747823Y1252138D01*
X1746156D01*
X1747823D01*
X1749489Y1250472D01*
Y1248806D01*
X1747823Y1247140D01*
X1744490D01*
X1742824Y1248806D01*
X1713230Y1705447D02*
Y1698782D01*
X1716562Y1695450D01*
X1719895Y1698782D01*
Y1705447D01*
X1723227D02*
X1729891D01*
X1726559D01*
Y1695450D01*
X1733224D02*
X1736556D01*
X1734890D01*
Y1705447D01*
X1733224Y1703781D01*
X1746553Y1695450D02*
Y1705447D01*
X1741554Y1700448D01*
X1748219D01*
X1714500Y1409537D02*
Y1402872D01*
X1717832Y1399540D01*
X1721165Y1402872D01*
Y1409537D01*
X1724497D02*
X1731161D01*
X1727829D01*
Y1399540D01*
X1734494D02*
X1737826D01*
X1736160D01*
Y1409537D01*
X1734494Y1407871D01*
X1749489Y1409537D02*
X1742824D01*
Y1404538D01*
X1746156Y1406205D01*
X1747823D01*
X1749489Y1404538D01*
Y1401206D01*
X1747823Y1399540D01*
X1744490D01*
X1742824Y1401206D01*
X1714500Y1855307D02*
Y1848642D01*
X1717832Y1845310D01*
X1721165Y1848642D01*
Y1855307D01*
X1724497D02*
X1731161D01*
X1727829D01*
Y1845310D01*
X1734494D02*
X1737826D01*
X1736160D01*
Y1855307D01*
X1734494Y1853641D01*
X1749489Y1855307D02*
X1746156Y1853641D01*
X1742824Y1850308D01*
Y1846976D01*
X1744490Y1845310D01*
X1747823D01*
X1749489Y1846976D01*
Y1848642D01*
X1747823Y1850308D01*
X1742824D01*
X83820Y1889597D02*
Y1882932D01*
X87152Y1879600D01*
X90485Y1882932D01*
Y1889597D01*
X93817D02*
X100481D01*
X97149D01*
Y1879600D01*
X103814D02*
X107146D01*
X105480D01*
Y1889597D01*
X103814Y1887931D01*
X112144Y1889597D02*
X118809D01*
Y1887931D01*
X112144Y1881266D01*
Y1879600D01*
X83820Y1366357D02*
Y1359692D01*
X87152Y1356360D01*
X90485Y1359692D01*
Y1366357D01*
X93817D02*
X100481D01*
X97149D01*
Y1356360D01*
X103814D02*
X107146D01*
X105480D01*
Y1366357D01*
X103814Y1364691D01*
X112144D02*
X113810Y1366357D01*
X117143D01*
X118809Y1364691D01*
Y1363024D01*
X117143Y1361358D01*
X118809Y1359692D01*
Y1358026D01*
X117143Y1356360D01*
X113810D01*
X112144Y1358026D01*
Y1359692D01*
X113810Y1361358D01*
X112144Y1363024D01*
Y1364691D01*
X113810Y1361358D02*
X117143D01*
X81280Y1702907D02*
Y1696242D01*
X84612Y1692910D01*
X87944Y1696242D01*
Y1702907D01*
X91277D02*
X97941D01*
X94609D01*
Y1692910D01*
X101274D02*
X104606D01*
X102940D01*
Y1702907D01*
X101274Y1701241D01*
X109604Y1694576D02*
X111270Y1692910D01*
X114603D01*
X116269Y1694576D01*
Y1701241D01*
X114603Y1702907D01*
X111270D01*
X109604Y1701241D01*
Y1699574D01*
X111270Y1697908D01*
X116269D01*
X81280Y1253327D02*
Y1246662D01*
X84612Y1243330D01*
X87944Y1246662D01*
Y1253327D01*
X91277D02*
X97941D01*
X94609D01*
Y1243330D01*
X107938D02*
X101274D01*
X107938Y1249995D01*
Y1251661D01*
X106272Y1253327D01*
X102940D01*
X101274Y1251661D01*
X111270D02*
X112936Y1253327D01*
X116269D01*
X117935Y1251661D01*
Y1244996D01*
X116269Y1243330D01*
X112936D01*
X111270Y1244996D01*
Y1251661D01*
X85090Y1659727D02*
Y1653062D01*
X88422Y1649730D01*
X91755Y1653062D01*
Y1659727D01*
X95087D02*
X101751D01*
X98419D01*
Y1649730D01*
X111748D02*
X105084D01*
X111748Y1656395D01*
Y1658061D01*
X110082Y1659727D01*
X106750D01*
X105084Y1658061D01*
X115080Y1649730D02*
X118413D01*
X116747D01*
Y1659727D01*
X115080Y1658061D01*
X82550Y1212687D02*
Y1206022D01*
X85882Y1202690D01*
X89214Y1206022D01*
Y1212687D01*
X92547D02*
X99211D01*
X95879D01*
Y1202690D01*
X109208D02*
X102544D01*
X109208Y1209354D01*
Y1211021D01*
X107542Y1212687D01*
X104210D01*
X102544Y1211021D01*
X119205Y1202690D02*
X112540D01*
X119205Y1209354D01*
Y1211021D01*
X117539Y1212687D01*
X114206D01*
X112540Y1211021D01*
X85090Y1478117D02*
Y1471452D01*
X88422Y1468120D01*
X91755Y1471452D01*
Y1478117D01*
X95087D02*
X101751D01*
X98419D01*
Y1468120D01*
X111748D02*
X105084D01*
X111748Y1474785D01*
Y1476451D01*
X110082Y1478117D01*
X106750D01*
X105084Y1476451D01*
X115080D02*
X116747Y1478117D01*
X120079D01*
X121745Y1476451D01*
Y1474785D01*
X120079Y1473118D01*
X118413D01*
X120079D01*
X121745Y1471452D01*
Y1469786D01*
X120079Y1468120D01*
X116747D01*
X115080Y1469786D01*
X82550Y1027267D02*
Y1020602D01*
X85882Y1017270D01*
X89214Y1020602D01*
Y1027267D01*
X92547D02*
X99211D01*
X95879D01*
Y1017270D01*
X109208D02*
X102544D01*
X109208Y1023934D01*
Y1025601D01*
X107542Y1027267D01*
X104210D01*
X102544Y1025601D01*
X117539Y1017270D02*
Y1027267D01*
X112540Y1022268D01*
X119205D01*
X81280Y995517D02*
Y988852D01*
X84612Y985520D01*
X87944Y988852D01*
Y995517D01*
X91277D02*
X97941D01*
X94609D01*
Y985520D01*
X107938D02*
X101274D01*
X107938Y992185D01*
Y993851D01*
X106272Y995517D01*
X102940D01*
X101274Y993851D01*
X117935Y995517D02*
X111270D01*
Y990518D01*
X114603Y992185D01*
X116269D01*
X117935Y990518D01*
Y987186D01*
X116269Y985520D01*
X112936D01*
X111270Y987186D01*
X78740Y548477D02*
Y541812D01*
X82072Y538480D01*
X85405Y541812D01*
Y548477D01*
X88737D02*
X95401D01*
X92069D01*
Y538480D01*
X105398D02*
X98734D01*
X105398Y545145D01*
Y546811D01*
X103732Y548477D01*
X100400D01*
X98734Y546811D01*
X115395Y548477D02*
X112063Y546811D01*
X108730Y543478D01*
Y540146D01*
X110396Y538480D01*
X113729D01*
X115395Y540146D01*
Y541812D01*
X113729Y543478D01*
X108730D01*
X81280Y807557D02*
Y800892D01*
X84612Y797560D01*
X87944Y800892D01*
Y807557D01*
X91277D02*
X97941D01*
X94609D01*
Y797560D01*
X107938D02*
X101274D01*
X107938Y804224D01*
Y805891D01*
X106272Y807557D01*
X102940D01*
X101274Y805891D01*
X111270Y807557D02*
X117935D01*
Y805891D01*
X111270Y799226D01*
Y797560D01*
X81280Y356707D02*
Y350042D01*
X84612Y346710D01*
X87944Y350042D01*
Y356707D01*
X91277D02*
X97941D01*
X94609D01*
Y346710D01*
X107938D02*
X101274D01*
X107938Y353374D01*
Y355041D01*
X106272Y356707D01*
X102940D01*
X101274Y355041D01*
X111270D02*
X112936Y356707D01*
X116269D01*
X117935Y355041D01*
Y353374D01*
X116269Y351708D01*
X117935Y350042D01*
Y348376D01*
X116269Y346710D01*
X112936D01*
X111270Y348376D01*
Y350042D01*
X112936Y351708D01*
X111270Y353374D01*
Y355041D01*
X112936Y351708D02*
X116269D01*
X83820Y773267D02*
Y766602D01*
X87152Y763270D01*
X90485Y766602D01*
Y773267D01*
X93817D02*
X100481D01*
X97149D01*
Y763270D01*
X110478D02*
X103814D01*
X110478Y769934D01*
Y771601D01*
X108812Y773267D01*
X105480D01*
X103814Y771601D01*
X113810Y764936D02*
X115477Y763270D01*
X118809D01*
X120475Y764936D01*
Y771601D01*
X118809Y773267D01*
X115477D01*
X113810Y771601D01*
Y769934D01*
X115477Y768268D01*
X120475D01*
X86360Y335117D02*
Y328452D01*
X89692Y325120D01*
X93025Y328452D01*
Y335117D01*
X96357D02*
X103021D01*
X99689D01*
Y325120D01*
X106354Y333451D02*
X108020Y335117D01*
X111352D01*
X113018Y333451D01*
Y331785D01*
X111352Y330118D01*
X109686D01*
X111352D01*
X113018Y328452D01*
Y326786D01*
X111352Y325120D01*
X108020D01*
X106354Y326786D01*
X116350Y333451D02*
X118017Y335117D01*
X121349D01*
X123015Y333451D01*
Y326786D01*
X121349Y325120D01*
X118017D01*
X116350Y326786D01*
Y333451D01*
X82550Y568797D02*
Y562132D01*
X85882Y558800D01*
X89214Y562132D01*
Y568797D01*
X92547D02*
X99211D01*
X95879D01*
Y558800D01*
X102544Y567131D02*
X104210Y568797D01*
X107542D01*
X109208Y567131D01*
Y565465D01*
X107542Y563798D01*
X105876D01*
X107542D01*
X109208Y562132D01*
Y560466D01*
X107542Y558800D01*
X104210D01*
X102544Y560466D01*
X112540Y558800D02*
X115873D01*
X114206D01*
Y568797D01*
X112540Y567131D01*
X35560Y105247D02*
Y98582D01*
X38892Y95250D01*
X42224Y98582D01*
Y105247D01*
X45557D02*
X52221D01*
X48889D01*
Y95250D01*
X55554Y103581D02*
X57220Y105247D01*
X60552D01*
X62218Y103581D01*
Y101915D01*
X60552Y100248D01*
X58886D01*
X60552D01*
X62218Y98582D01*
Y96916D01*
X60552Y95250D01*
X57220D01*
X55554Y96916D01*
X72215Y95250D02*
X65550D01*
X72215Y101915D01*
Y103581D01*
X70549Y105247D01*
X67217D01*
X65550Y103581D01*
X1498600Y501324D02*
X1511929Y481330D01*
Y501324D02*
X1498600Y481330D01*
X1518594D02*
X1525258D01*
X1521926D01*
Y501324D01*
X1518594Y497991D01*
X1483360Y953444D02*
X1496689Y933450D01*
Y953444D02*
X1483360Y933450D01*
X1516683D02*
X1503354D01*
X1516683Y946779D01*
Y950111D01*
X1513350Y953444D01*
X1506686D01*
X1503354Y950111D01*
X1155700Y1710527D02*
X1162365Y1700530D01*
Y1710527D02*
X1155700Y1700530D01*
X1165697Y1708861D02*
X1167363Y1710527D01*
X1170695D01*
X1172361Y1708861D01*
Y1707195D01*
X1170695Y1705528D01*
X1169029D01*
X1170695D01*
X1172361Y1703862D01*
Y1702196D01*
X1170695Y1700530D01*
X1167363D01*
X1165697Y1702196D01*
X1090930Y1710527D02*
X1097595Y1700530D01*
Y1710527D02*
X1090930Y1700530D01*
X1105925D02*
Y1710527D01*
X1100927Y1705528D01*
X1107591D01*
X711962Y2007290D02*
X725291Y1987296D01*
Y2007290D02*
X711962Y1987296D01*
X745285Y2007290D02*
X731956D01*
Y1997293D01*
X738620Y2000625D01*
X741952D01*
X745285Y1997293D01*
Y1990628D01*
X741952Y1987296D01*
X735288D01*
X731956Y1990628D01*
X1496060Y1399214D02*
X1509389Y1379220D01*
Y1399214D02*
X1496060Y1379220D01*
X1529383Y1399214D02*
X1522718Y1395881D01*
X1516054Y1389217D01*
Y1382552D01*
X1519386Y1379220D01*
X1526050D01*
X1529383Y1382552D01*
Y1385885D01*
X1526050Y1389217D01*
X1516054D01*
X1490980Y1860224D02*
X1504309Y1840230D01*
Y1860224D02*
X1490980Y1840230D01*
X1510974Y1860224D02*
X1524303D01*
Y1856891D01*
X1510974Y1843562D01*
Y1840230D01*
X284480Y1531294D02*
X297809Y1511300D01*
Y1531294D02*
X284480Y1511300D01*
X304474Y1527961D02*
X307806Y1531294D01*
X314470D01*
X317803Y1527961D01*
Y1524629D01*
X314470Y1521297D01*
X317803Y1517964D01*
Y1514632D01*
X314470Y1511300D01*
X307806D01*
X304474Y1514632D01*
Y1517964D01*
X307806Y1521297D01*
X304474Y1524629D01*
Y1527961D01*
X307806Y1521297D02*
X314470D01*
X273050Y1074094D02*
X286379Y1054100D01*
Y1074094D02*
X273050Y1054100D01*
X293044Y1057432D02*
X296376Y1054100D01*
X303040D01*
X306373Y1057432D01*
Y1070761D01*
X303040Y1074094D01*
X296376D01*
X293044Y1070761D01*
Y1067429D01*
X296376Y1064097D01*
X306373D01*
X267970Y646104D02*
X281299Y626110D01*
Y646104D02*
X267970Y626110D01*
X287964D02*
X294628D01*
X291296D01*
Y646104D01*
X287964Y642771D01*
X304625D02*
X307957Y646104D01*
X314622D01*
X317954Y642771D01*
Y629442D01*
X314622Y626110D01*
X307957D01*
X304625Y629442D01*
Y642771D01*
X278130Y204144D02*
X291459Y184150D01*
Y204144D02*
X278130Y184150D01*
X298124D02*
X304788D01*
X301456D01*
Y204144D01*
X298124Y200811D01*
X314785Y184150D02*
X321449D01*
X318117D01*
Y204144D01*
X314785Y200811D01*
X271780Y435447D02*
Y427116D01*
X273446Y425450D01*
X276778D01*
X278444Y427116D01*
Y435447D01*
X288441Y425450D02*
X281777D01*
X288441Y432114D01*
Y433781D01*
X286775Y435447D01*
X283443D01*
X281777Y433781D01*
X298438Y435447D02*
X295106Y433781D01*
X291774Y430448D01*
Y427116D01*
X293440Y425450D01*
X296772D01*
X298438Y427116D01*
Y428782D01*
X296772Y430448D01*
X291774D01*
X593090Y1480657D02*
X599754D01*
X596422D01*
Y1470660D01*
X603087Y1480657D02*
Y1470660D01*
X608085D01*
X609751Y1472326D01*
Y1473992D01*
X608085Y1475658D01*
X603087D01*
X608085D01*
X609751Y1477325D01*
Y1478991D01*
X608085Y1480657D01*
X603087D01*
X613084Y1470660D02*
X616416D01*
X614750D01*
Y1480657D01*
X613084Y1478991D01*
X1043625Y176693D02*
X1050290D01*
Y186690D01*
X1043625D01*
X1050290Y181692D02*
X1046958D01*
X1033629Y178359D02*
X1035295Y176693D01*
X1038627D01*
X1040293Y178359D01*
Y180026D01*
X1038627Y181692D01*
X1035295D01*
X1033629Y183358D01*
Y185024D01*
X1035295Y186690D01*
X1038627D01*
X1040293Y185024D01*
X1030296Y186690D02*
Y176693D01*
X1025298D01*
X1023632Y178359D01*
Y181692D01*
X1025298Y183358D01*
X1030296D01*
X1020300Y178359D02*
X1018633Y176693D01*
X1015301D01*
X1013635Y178359D01*
Y180026D01*
X1015301Y181692D01*
X1016967D01*
X1015301D01*
X1013635Y183358D01*
Y185024D01*
X1015301Y186690D01*
X1018633D01*
X1020300Y185024D01*
X1003638Y186690D02*
X1010303D01*
X1003638Y180026D01*
Y178359D01*
X1005304Y176693D01*
X1008637D01*
X1010303Y178359D01*
X1000306Y181692D02*
X993642D01*
X990309Y176693D02*
Y186690D01*
X985311D01*
X983645Y185024D01*
Y178359D01*
X985311Y176693D01*
X990309D01*
X975314Y186690D02*
X978646D01*
X980312Y185024D01*
Y181692D01*
X978646Y180026D01*
X975314D01*
X973648Y181692D01*
Y183358D01*
X980312D01*
X970316Y180026D02*
X966983Y186690D01*
X963651Y180026D01*
X960319Y186690D02*
Y176693D01*
Y183358D02*
X955321Y180026D01*
X960319Y183358D02*
X955321Y186690D01*
X950322D02*
X946990D01*
X948656D01*
Y180026D01*
X950322D01*
X940325Y178359D02*
Y180026D01*
X941992D01*
X938659D01*
X940325D01*
Y185024D01*
X938659Y186690D01*
X923664Y176693D02*
Y183358D01*
X920332Y186690D01*
X917000Y183358D01*
Y176693D01*
X913667Y186690D02*
X910335D01*
X912001D01*
Y176693D01*
X913667Y178359D01*
X743905Y30643D02*
X750570D01*
Y40640D01*
X743905D01*
X750570Y35642D02*
X747238D01*
X740573Y40640D02*
Y30643D01*
X733909Y40640D01*
Y30643D01*
X774700Y81443D02*
Y88108D01*
X771368Y91440D01*
X768036Y88108D01*
Y81443D01*
X764703Y91440D02*
Y81443D01*
X759705D01*
X758039Y83109D01*
Y86442D01*
X759705Y88108D01*
X764703D01*
X806450Y30643D02*
Y37308D01*
X803118Y40640D01*
X799786Y37308D01*
Y30643D01*
X796453Y40640D02*
Y30643D01*
X789789Y40640D01*
Y30643D01*
X836930Y81443D02*
X833598D01*
X835264D01*
Y91440D01*
X836930D01*
X833598D01*
X823601Y81443D02*
X826933D01*
X828599Y83109D01*
Y89774D01*
X826933Y91440D01*
X823601D01*
X821935Y89774D01*
Y83109D01*
X823601Y81443D01*
X818603Y83109D02*
X816936Y81443D01*
X813604D01*
X811938Y83109D01*
Y84775D01*
X813604Y86442D01*
X815270D01*
X813604D01*
X811938Y88108D01*
Y89774D01*
X813604Y91440D01*
X816936D01*
X818603Y89774D01*
X803607Y91440D02*
Y81443D01*
X808606Y86442D01*
X801941D01*
X864870Y30643D02*
X861538D01*
X863204D01*
Y40640D01*
X864870D01*
X861538D01*
X851541Y30643D02*
X854873D01*
X856539Y32309D01*
Y38974D01*
X854873Y40640D01*
X851541D01*
X849875Y38974D01*
Y32309D01*
X851541Y30643D01*
X846543Y32309D02*
X844876Y30643D01*
X841544D01*
X839878Y32309D01*
Y33976D01*
X841544Y35642D01*
X843210D01*
X841544D01*
X839878Y37308D01*
Y38974D01*
X841544Y40640D01*
X844876D01*
X846543Y38974D01*
X829881Y30643D02*
X836546D01*
Y35642D01*
X833214Y33976D01*
X831547D01*
X829881Y35642D01*
Y38974D01*
X831547Y40640D01*
X834880D01*
X836546Y38974D01*
X886460Y81443D02*
X883128D01*
X884794D01*
Y91440D01*
X886460D01*
X883128D01*
X873131Y81443D02*
X876463D01*
X878129Y83109D01*
Y89774D01*
X876463Y91440D01*
X873131D01*
X871465Y89774D01*
Y83109D01*
X873131Y81443D01*
X868133Y83109D02*
X866466Y81443D01*
X863134D01*
X861468Y83109D01*
Y84775D01*
X863134Y86442D01*
X864800D01*
X863134D01*
X861468Y88108D01*
Y89774D01*
X863134Y91440D01*
X866466D01*
X868133Y89774D01*
X851471Y91440D02*
X858136D01*
X851471Y84775D01*
Y83109D01*
X853137Y81443D01*
X856470D01*
X858136Y83109D01*
X913130Y30643D02*
X909798D01*
X911464D01*
Y40640D01*
X913130D01*
X909798D01*
X899801Y30643D02*
X903133D01*
X904799Y32309D01*
Y38974D01*
X903133Y40640D01*
X899801D01*
X898135Y38974D01*
Y32309D01*
X899801Y30643D01*
X894803Y32309D02*
X893136Y30643D01*
X889804D01*
X888138Y32309D01*
Y33976D01*
X889804Y35642D01*
X891470D01*
X889804D01*
X888138Y37308D01*
Y38974D01*
X889804Y40640D01*
X893136D01*
X894803Y38974D01*
X884806Y32309D02*
X883140Y30643D01*
X879807D01*
X878141Y32309D01*
Y33976D01*
X879807Y35642D01*
X881473D01*
X879807D01*
X878141Y37308D01*
Y38974D01*
X879807Y40640D01*
X883140D01*
X884806Y38974D01*
X934720Y82713D02*
X931388D01*
X933054D01*
Y92710D01*
X934720D01*
X931388D01*
X921391Y82713D02*
X924723D01*
X926389Y84379D01*
Y91044D01*
X924723Y92710D01*
X921391D01*
X919725Y91044D01*
Y84379D01*
X921391Y82713D01*
X909728Y92710D02*
X916393D01*
X909728Y86046D01*
Y84379D01*
X911394Y82713D01*
X914726D01*
X916393Y84379D01*
X899731Y82713D02*
X906396D01*
Y87712D01*
X903064Y86046D01*
X901397D01*
X899731Y87712D01*
Y91044D01*
X901397Y92710D01*
X904730D01*
X906396Y91044D01*
X963930Y29373D02*
X960598D01*
X962264D01*
Y39370D01*
X963930D01*
X960598D01*
X950601Y29373D02*
X953933D01*
X955599Y31039D01*
Y37704D01*
X953933Y39370D01*
X950601D01*
X948935Y37704D01*
Y31039D01*
X950601Y29373D01*
X938938Y39370D02*
X945603D01*
X938938Y32706D01*
Y31039D01*
X940604Y29373D01*
X943936D01*
X945603Y31039D01*
X928941Y29373D02*
X932273Y31039D01*
X935606Y34372D01*
Y37704D01*
X933940Y39370D01*
X930607D01*
X928941Y37704D01*
Y36038D01*
X930607Y34372D01*
X935606D01*
X986790Y83983D02*
X983458D01*
X985124D01*
Y93980D01*
X986790D01*
X983458D01*
X973461Y83983D02*
X976793D01*
X978459Y85649D01*
Y92314D01*
X976793Y93980D01*
X973461D01*
X971795Y92314D01*
Y85649D01*
X973461Y83983D01*
X961798Y93980D02*
X968463D01*
X961798Y87316D01*
Y85649D01*
X963464Y83983D01*
X966796D01*
X968463Y85649D01*
X958466Y83983D02*
X951801D01*
Y85649D01*
X958466Y92314D01*
Y93980D01*
X1012190Y29373D02*
X1008858D01*
X1010524D01*
Y39370D01*
X1012190D01*
X1008858D01*
X998861Y29373D02*
X1002193D01*
X1003859Y31039D01*
Y37704D01*
X1002193Y39370D01*
X998861D01*
X997195Y37704D01*
Y31039D01*
X998861Y29373D01*
X993863Y39370D02*
X990530D01*
X992196D01*
Y29373D01*
X993863Y31039D01*
X980534Y39370D02*
Y29373D01*
X985532Y34372D01*
X978867D01*
X1038860Y82713D02*
X1035528D01*
X1037194D01*
Y92710D01*
X1038860D01*
X1035528D01*
X1025531Y82713D02*
X1028863D01*
X1030529Y84379D01*
Y91044D01*
X1028863Y92710D01*
X1025531D01*
X1023865Y91044D01*
Y84379D01*
X1025531Y82713D01*
X1020533Y92710D02*
X1017200D01*
X1018866D01*
Y82713D01*
X1020533Y84379D01*
X1005537Y92710D02*
X1012202D01*
X1005537Y86046D01*
Y84379D01*
X1007204Y82713D01*
X1010536D01*
X1012202Y84379D01*
X1065530Y29373D02*
X1062198D01*
X1063864D01*
Y39370D01*
X1065530D01*
X1062198D01*
X1052201Y29373D02*
X1055533D01*
X1057199Y31039D01*
Y37704D01*
X1055533Y39370D01*
X1052201D01*
X1050535Y37704D01*
Y31039D01*
X1052201Y29373D01*
X1047203Y39370D02*
X1043870D01*
X1045536D01*
Y29373D01*
X1047203Y31039D01*
X1038872D02*
X1037206Y29373D01*
X1033874D01*
X1032207Y31039D01*
Y32706D01*
X1033874Y34372D01*
X1035540D01*
X1033874D01*
X1032207Y36038D01*
Y37704D01*
X1033874Y39370D01*
X1037206D01*
X1038872Y37704D01*
X1081725Y85649D02*
X1083392Y83983D01*
X1086724D01*
X1088390Y85649D01*
Y92314D01*
X1086724Y93980D01*
X1083392D01*
X1081725Y92314D01*
Y88982D01*
X1085058D01*
X1078393Y93980D02*
Y83983D01*
X1071729Y93980D01*
Y83983D01*
X1068396D02*
Y93980D01*
X1063398D01*
X1061732Y92314D01*
Y85649D01*
X1063398Y83983D01*
X1068396D01*
X1131570Y82713D02*
Y89378D01*
X1128238Y92710D01*
X1124905Y89378D01*
Y82713D01*
X1121573D02*
X1118241D01*
X1119907D01*
Y92710D01*
X1121573D01*
X1118241D01*
X1113243D02*
Y82713D01*
X1106578Y92710D01*
Y82713D01*
X754380Y279563D02*
X751048D01*
X752714D01*
Y289560D01*
X754380D01*
X751048D01*
X741051Y279563D02*
X744383D01*
X746049Y281229D01*
Y287894D01*
X744383Y289560D01*
X741051D01*
X739385Y287894D01*
Y281229D01*
X741051Y279563D01*
X729388Y289560D02*
X736053D01*
X729388Y282896D01*
Y281229D01*
X731054Y279563D01*
X734386D01*
X736053Y281229D01*
X726056D02*
X724390Y279563D01*
X721057D01*
X719391Y281229D01*
Y282896D01*
X721057Y284562D01*
X722723D01*
X721057D01*
X719391Y286228D01*
Y287894D01*
X721057Y289560D01*
X724390D01*
X726056Y287894D01*
X787400Y334173D02*
X784068D01*
X785734D01*
Y344170D01*
X787400D01*
X784068D01*
X774071Y334173D02*
X777403D01*
X779069Y335839D01*
Y342504D01*
X777403Y344170D01*
X774071D01*
X772405Y342504D01*
Y335839D01*
X774071Y334173D01*
X762408Y344170D02*
X769073D01*
X762408Y337505D01*
Y335839D01*
X764074Y334173D01*
X767406D01*
X769073Y335839D01*
X752411Y344170D02*
X759076D01*
X752411Y337505D01*
Y335839D01*
X754077Y334173D01*
X757410D01*
X759076Y335839D01*
X805180Y279563D02*
X801848D01*
X803514D01*
Y289560D01*
X805180D01*
X801848D01*
X791851Y279563D02*
X795183D01*
X796849Y281229D01*
Y287894D01*
X795183Y289560D01*
X791851D01*
X790185Y287894D01*
Y281229D01*
X791851Y279563D01*
X786853Y289560D02*
X783520D01*
X785186D01*
Y279563D01*
X786853Y281229D01*
X831850Y334173D02*
X828518D01*
X830184D01*
Y344170D01*
X831850D01*
X828518D01*
X818521Y334173D02*
X821853D01*
X823519Y335839D01*
Y342504D01*
X821853Y344170D01*
X818521D01*
X816855Y342504D01*
Y335839D01*
X818521Y334173D01*
X813523Y335839D02*
X811856Y334173D01*
X808524D01*
X806858Y335839D01*
Y337505D01*
X808524Y339172D01*
X810190D01*
X808524D01*
X806858Y340838D01*
Y342504D01*
X808524Y344170D01*
X811856D01*
X813523Y342504D01*
X861060Y280833D02*
X857728D01*
X859394D01*
Y290830D01*
X861060D01*
X857728D01*
X847731Y280833D02*
X851063D01*
X852729Y282499D01*
Y289164D01*
X851063Y290830D01*
X847731D01*
X846065Y289164D01*
Y282499D01*
X847731Y280833D01*
X836068Y290830D02*
X842733D01*
X836068Y284165D01*
Y282499D01*
X837734Y280833D01*
X841066D01*
X842733Y282499D01*
X832736Y290830D02*
X829404D01*
X831070D01*
Y280833D01*
X832736Y282499D01*
X886460Y334173D02*
X883128D01*
X884794D01*
Y344170D01*
X886460D01*
X883128D01*
X873131Y334173D02*
X876463D01*
X878129Y335839D01*
Y342504D01*
X876463Y344170D01*
X873131D01*
X871465Y342504D01*
Y335839D01*
X873131Y334173D01*
X868133Y344170D02*
X864800D01*
X866466D01*
Y334173D01*
X868133Y335839D01*
X859802Y342504D02*
X858136Y344170D01*
X854803D01*
X853137Y342504D01*
Y335839D01*
X854803Y334173D01*
X858136D01*
X859802Y335839D01*
Y337505D01*
X858136Y339172D01*
X853137D01*
X911860Y282103D02*
X908528D01*
X910194D01*
Y292100D01*
X911860D01*
X908528D01*
X898531Y282103D02*
X901863D01*
X903529Y283769D01*
Y290434D01*
X901863Y292100D01*
X898531D01*
X896865Y290434D01*
Y283769D01*
X898531Y282103D01*
X893533Y292100D02*
X890200D01*
X891866D01*
Y282103D01*
X893533Y283769D01*
X885202D02*
X883536Y282103D01*
X880203D01*
X878537Y283769D01*
Y285436D01*
X880203Y287102D01*
X878537Y288768D01*
Y290434D01*
X880203Y292100D01*
X883536D01*
X885202Y290434D01*
Y288768D01*
X883536Y287102D01*
X885202Y285436D01*
Y283769D01*
X883536Y287102D02*
X880203D01*
X932180Y335443D02*
X928848D01*
X930514D01*
Y345440D01*
X932180D01*
X928848D01*
X918851Y335443D02*
X922183D01*
X923849Y337109D01*
Y343774D01*
X922183Y345440D01*
X918851D01*
X917185Y343774D01*
Y337109D01*
X918851Y335443D01*
X907188D02*
X913853D01*
Y340442D01*
X910520Y338775D01*
X908854D01*
X907188Y340442D01*
Y343774D01*
X908854Y345440D01*
X912186D01*
X913853Y343774D01*
X966470Y282103D02*
X963138D01*
X964804D01*
Y292100D01*
X966470D01*
X963138D01*
X953141Y282103D02*
X956473D01*
X958139Y283769D01*
Y290434D01*
X956473Y292100D01*
X953141D01*
X951475Y290434D01*
Y283769D01*
X953141Y282103D01*
X948143Y292100D02*
X944810D01*
X946476D01*
Y282103D01*
X948143Y283769D01*
X939812Y282103D02*
X933147D01*
Y283769D01*
X939812Y290434D01*
Y292100D01*
X990600Y335443D02*
X987268D01*
X988934D01*
Y345440D01*
X990600D01*
X987268D01*
X977271Y335443D02*
X980603D01*
X982269Y337109D01*
Y343774D01*
X980603Y345440D01*
X977271D01*
X975605Y343774D01*
Y337109D01*
X977271Y335443D01*
X972273Y345440D02*
X968940D01*
X970606D01*
Y335443D01*
X972273Y337109D01*
X957277Y335443D02*
X960610Y337109D01*
X963942Y340442D01*
Y343774D01*
X962276Y345440D01*
X958943D01*
X957277Y343774D01*
Y342108D01*
X958943Y340442D01*
X963942D01*
X1009650Y283373D02*
X1006318D01*
X1007984D01*
Y293370D01*
X1009650D01*
X1006318D01*
X996321Y283373D02*
X999653D01*
X1001319Y285039D01*
Y291704D01*
X999653Y293370D01*
X996321D01*
X994655Y291704D01*
Y285039D01*
X996321Y283373D01*
X986324Y293370D02*
Y283373D01*
X991323Y288372D01*
X984658D01*
X1033780Y332903D02*
X1030448D01*
X1032114D01*
Y342900D01*
X1033780D01*
X1030448D01*
X1020451Y332903D02*
X1023783D01*
X1025449Y334569D01*
Y341234D01*
X1023783Y342900D01*
X1020451D01*
X1018785Y341234D01*
Y334569D01*
X1020451Y332903D01*
X1008788Y342900D02*
X1015453D01*
X1008788Y336236D01*
Y334569D01*
X1010454Y332903D01*
X1013786D01*
X1015453Y334569D01*
X1056640Y282103D02*
X1053308D01*
X1054974D01*
Y292100D01*
X1056640D01*
X1053308D01*
X1043311Y282103D02*
X1046643D01*
X1048309Y283769D01*
Y290434D01*
X1046643Y292100D01*
X1043311D01*
X1041645Y290434D01*
Y283769D01*
X1043311Y282103D01*
X1038313Y292100D02*
X1034980D01*
X1036646D01*
Y282103D01*
X1038313Y283769D01*
X1023317Y282103D02*
X1029982D01*
Y287102D01*
X1026650Y285436D01*
X1024984D01*
X1023317Y287102D01*
Y290434D01*
X1024984Y292100D01*
X1028316D01*
X1029982Y290434D01*
X1084266Y283769D02*
X1085932Y282103D01*
X1089264D01*
X1090930Y283769D01*
Y290434D01*
X1089264Y292100D01*
X1085932D01*
X1084266Y290434D01*
Y287102D01*
X1087598D01*
X1080933Y292100D02*
Y282103D01*
X1074269Y292100D01*
Y282103D01*
X1070936D02*
Y292100D01*
X1065938D01*
X1064272Y290434D01*
Y283769D01*
X1065938Y282103D01*
X1070936D01*
X1137920Y283769D02*
X1136254Y282103D01*
X1132922D01*
X1131255Y283769D01*
Y285436D01*
X1132922Y287102D01*
X1134588D01*
X1132922D01*
X1131255Y288768D01*
Y290434D01*
X1132922Y292100D01*
X1136254D01*
X1137920Y290434D01*
X1127923Y282103D02*
Y288768D01*
X1124591Y292100D01*
X1121259Y288768D01*
Y282103D01*
X1117926Y283769D02*
X1116260Y282103D01*
X1112928D01*
X1111262Y283769D01*
Y285436D01*
X1112928Y287102D01*
X1114594D01*
X1112928D01*
X1111262Y288768D01*
Y290434D01*
X1112928Y292100D01*
X1116260D01*
X1117926Y290434D01*
X715648Y1974360D02*
Y1967695D01*
X718981Y1971028D02*
X712316D01*
X368630Y264762D02*
X361965D01*
X365298Y261429D02*
Y268094D01*
X365290Y707992D02*
X358625D01*
X361958Y704659D02*
Y711324D01*
X365290Y1149952D02*
X358625D01*
X361958Y1146619D02*
Y1153284D01*
X365290Y1593182D02*
X358625D01*
X361958Y1589849D02*
Y1596514D01*
X1040689Y1497838D02*
X1047354Y1504503D01*
Y1497838D02*
X1040689Y1504503D01*
X1044022Y1497838D02*
Y1504503D01*
X1047354Y1501170D02*
X1040689D01*
X1465250Y423578D02*
X1471915D01*
X1468582Y426911D02*
Y420246D01*
X1466050Y870618D02*
X1472715D01*
X1469382Y873951D02*
Y867286D01*
X1466050Y1318928D02*
X1472715D01*
X1469382Y1322261D02*
Y1315596D01*
X1466050Y1771048D02*
X1472715D01*
X1469382Y1774381D02*
Y1767716D01*
M02*
