G04 Layer_Physical_Order=2*
G04 Layer_Color=16711680*
%FSLAX44Y44*%
%MOMM*%
G71*
G01*
G75*
%ADD30C,1.0000*%
%ADD31C,0.3000*%
%ADD32C,0.5000*%
%ADD33C,0.4000*%
%ADD34C,0.2000*%
%ADD35C,3.0000*%
%ADD36C,2.0000*%
%ADD37C,1.3716*%
%ADD38C,1.2700*%
%ADD39R,1.2700X1.2700*%
%ADD40C,1.3970*%
%ADD41C,4.9784*%
%ADD42R,1.2700X1.2700*%
%ADD43C,1.9304*%
%ADD44C,5.5000*%
%ADD45R,1.6256X1.6256*%
%ADD46C,1.6256*%
%ADD47C,1.4732*%
%ADD48C,3.0000*%
%ADD49R,1.5080X1.5080*%
%ADD50C,1.5080*%
%ADD51C,0.4000*%
%ADD52C,1.4986*%
G36*
X737870Y1793240D02*
Y1784250D01*
X706550D01*
Y1785542D01*
X690450D01*
Y1769442D01*
X706550D01*
Y1770734D01*
X737870D01*
Y1686560D01*
X755650Y1668780D01*
Y1496060D01*
X753110Y1493520D01*
X751840Y1494790D01*
X584200D01*
Y1795780D01*
X735330D01*
X737870Y1793240D01*
D02*
G37*
G36*
X891540Y1781810D02*
Y1697990D01*
X961390Y1628140D01*
Y1498600D01*
X835660D01*
X834390Y1497330D01*
X784860Y1546860D01*
Y1596390D01*
X779197Y1774210D01*
X785119Y1780132D01*
X817450D01*
Y1778840D01*
X833550D01*
Y1794940D01*
X834472Y1795780D01*
X845374D01*
X845636Y1795229D01*
X845719Y1794510D01*
X844052Y1793230D01*
X842627Y1791373D01*
X841731Y1789211D01*
X841592Y1788160D01*
X850392D01*
X859192D01*
X859053Y1789211D01*
X858157Y1791373D01*
X856732Y1793230D01*
X855065Y1794510D01*
X855148Y1795229D01*
X855410Y1795780D01*
X877570D01*
X891540Y1781810D01*
D02*
G37*
G36*
X22860Y477520D02*
X21590Y476250D01*
X7620D01*
Y516890D01*
X22860D01*
Y477520D01*
D02*
G37*
G36*
X590588Y869657D02*
Y768278D01*
X589889Y767741D01*
X588598Y766060D01*
X587787Y764101D01*
X587510Y762000D01*
X587787Y759899D01*
X588598Y757940D01*
X589889Y756259D01*
X591570Y754968D01*
X593529Y754157D01*
X595630Y753880D01*
X597732Y754157D01*
X599690Y754968D01*
X601371Y756259D01*
X602662Y757940D01*
X603037Y758847D01*
X604307Y758594D01*
Y417700D01*
X595228Y408621D01*
X593922Y409163D01*
X591820Y409440D01*
X589719Y409163D01*
X587760Y408352D01*
X586740Y407569D01*
X585470Y408195D01*
Y731479D01*
X586990Y732108D01*
X588671Y733399D01*
X589962Y735080D01*
X590773Y737038D01*
X591049Y739140D01*
X590773Y741242D01*
X589962Y743200D01*
X588671Y744881D01*
X586990Y746172D01*
X585843Y746647D01*
Y864710D01*
X585843Y864710D01*
X585633Y865763D01*
X585470Y866008D01*
Y873115D01*
X586643Y873602D01*
X590588Y869657D01*
D02*
G37*
G36*
X1251303Y1706880D02*
Y1525678D01*
X1144877D01*
X1144520Y1525952D01*
X1142561Y1526763D01*
X1142115Y1526821D01*
X1130708Y1538229D01*
Y1548793D01*
X1130982Y1549150D01*
X1131793Y1551109D01*
X1132069Y1553210D01*
X1131793Y1555311D01*
X1130982Y1557270D01*
X1129691Y1558951D01*
X1128010Y1560242D01*
X1126051Y1561053D01*
X1123950Y1561329D01*
X1121849Y1561053D01*
X1119890Y1560242D01*
X1118209Y1558951D01*
X1116918Y1557270D01*
X1116107Y1555311D01*
X1115831Y1553210D01*
X1116107Y1551109D01*
X1116918Y1549150D01*
X1117192Y1548793D01*
Y1535430D01*
X1117422Y1533681D01*
X1118098Y1532051D01*
X1119172Y1530652D01*
X1132559Y1517265D01*
X1132617Y1516819D01*
X1133428Y1514860D01*
X1134719Y1513179D01*
X1136400Y1511888D01*
X1138359Y1511077D01*
X1140460Y1510800D01*
X1142561Y1511077D01*
X1144520Y1511888D01*
X1144877Y1512162D01*
X1251303D01*
Y1459230D01*
X1243525D01*
Y847368D01*
X1187580Y791423D01*
X1183279D01*
X1183027Y792693D01*
X1184490Y793299D01*
X1186420Y794780D01*
X1187901Y796710D01*
X1188832Y798958D01*
X1189150Y801370D01*
X1188832Y803782D01*
X1188042Y805689D01*
X1223687Y841333D01*
X1223687Y841333D01*
X1224283Y842226D01*
X1224493Y843280D01*
Y1414780D01*
X1224283Y1415833D01*
X1223687Y1416727D01*
X1181183Y1459230D01*
X1170927Y1469487D01*
D01*
X1066207Y1574207D01*
X1065313Y1574803D01*
X1064260Y1575013D01*
X1040083D01*
X1039542Y1576320D01*
X1038251Y1578001D01*
X1036570Y1579292D01*
X1034612Y1580103D01*
X1032510Y1580379D01*
X1030408Y1580103D01*
X1028450Y1579292D01*
X1026769Y1578001D01*
X1025478Y1576320D01*
X1024667Y1574362D01*
X1024390Y1572260D01*
X1024667Y1570159D01*
X1025478Y1568200D01*
X1026769Y1566519D01*
X1028450Y1565228D01*
X1030408Y1564417D01*
X1032510Y1564140D01*
X1034612Y1564417D01*
X1036570Y1565228D01*
X1038251Y1566519D01*
X1039542Y1568200D01*
X1040083Y1569507D01*
X1063120D01*
X1161967Y1470660D01*
X1218987Y1413640D01*
Y844420D01*
X1184149Y809582D01*
X1182242Y810372D01*
X1179830Y810690D01*
X1177418Y810372D01*
X1175170Y809441D01*
X1173240Y807960D01*
X1171759Y806030D01*
X1170828Y803782D01*
X1170510Y801370D01*
X1170828Y798958D01*
X1171759Y796710D01*
X1173240Y794780D01*
X1175170Y793299D01*
X1176633Y792693D01*
X1176380Y791423D01*
X1167130D01*
X1167130Y791423D01*
X1166077Y791213D01*
X1165183Y790617D01*
X1165183Y790617D01*
X1158749Y784182D01*
X1156842Y784972D01*
X1154430Y785290D01*
X1152018Y784972D01*
X1149770Y784041D01*
X1147840Y782560D01*
X1146359Y780630D01*
X1145428Y778382D01*
X1145110Y775970D01*
X1145428Y773558D01*
X1146359Y771310D01*
X1147840Y769380D01*
X1149770Y767899D01*
X1152018Y766968D01*
X1154430Y766650D01*
X1156842Y766968D01*
X1159090Y767899D01*
X1161020Y769380D01*
X1162501Y771310D01*
X1163432Y773558D01*
X1163750Y775970D01*
X1163432Y778382D01*
X1162642Y780289D01*
X1168270Y785917D01*
X1176380D01*
X1176633Y784647D01*
X1175170Y784041D01*
X1173240Y782560D01*
X1171759Y780630D01*
X1170828Y778382D01*
X1170510Y775970D01*
X1170828Y773558D01*
X1171759Y771310D01*
X1173240Y769380D01*
X1175170Y767899D01*
X1177418Y766968D01*
X1179830Y766650D01*
X1182242Y766968D01*
X1184490Y767899D01*
X1186420Y769380D01*
X1187901Y771310D01*
X1188832Y773558D01*
X1189150Y775970D01*
X1188832Y778382D01*
X1187901Y780630D01*
X1186420Y782560D01*
X1184490Y784041D01*
X1183027Y784647D01*
X1183279Y785917D01*
X1188720D01*
X1189773Y786127D01*
X1190667Y786723D01*
X1242351Y838408D01*
X1243525Y837922D01*
Y658310D01*
X1242351Y657824D01*
X1223138Y677038D01*
X1221914Y677855D01*
X1220470Y678142D01*
X1220470Y678142D01*
X1188269D01*
X1187901Y679030D01*
X1186420Y680960D01*
X1184490Y682441D01*
X1182242Y683372D01*
X1179830Y683690D01*
X1177418Y683372D01*
X1175170Y682441D01*
X1173240Y680960D01*
X1171759Y679030D01*
X1170828Y676782D01*
X1170510Y674370D01*
X1170828Y671958D01*
X1171759Y669710D01*
X1173240Y667780D01*
X1175170Y666299D01*
X1177418Y665368D01*
X1179830Y665050D01*
X1182242Y665368D01*
X1184490Y666299D01*
X1186420Y667780D01*
X1187901Y669710D01*
X1188269Y670598D01*
X1218907D01*
X1243525Y645980D01*
Y631468D01*
X1242351Y630982D01*
X1235117Y638217D01*
X1234223Y638813D01*
X1233170Y639023D01*
X1183279D01*
X1183027Y640293D01*
X1184490Y640899D01*
X1186420Y642380D01*
X1187901Y644310D01*
X1188832Y646558D01*
X1189150Y648970D01*
X1188832Y651382D01*
X1187901Y653630D01*
X1186420Y655560D01*
X1184490Y657041D01*
X1182242Y657972D01*
X1179830Y658290D01*
X1177418Y657972D01*
X1175170Y657041D01*
X1173240Y655560D01*
X1171759Y653630D01*
X1170828Y651382D01*
X1170510Y648970D01*
X1170828Y646558D01*
X1171759Y644310D01*
X1173240Y642380D01*
X1175170Y640899D01*
X1176633Y640293D01*
X1176380Y639023D01*
X1157879D01*
X1157627Y640293D01*
X1159090Y640899D01*
X1161020Y642380D01*
X1162501Y644310D01*
X1163432Y646558D01*
X1163750Y648970D01*
X1163432Y651382D01*
X1162501Y653630D01*
X1161020Y655560D01*
X1159090Y657041D01*
X1156842Y657972D01*
X1154430Y658290D01*
X1152018Y657972D01*
X1149770Y657041D01*
X1147840Y655560D01*
X1146359Y653630D01*
X1145428Y651382D01*
X1145110Y648970D01*
X1145428Y646558D01*
X1146359Y644310D01*
X1147840Y642380D01*
X1149770Y640899D01*
X1151233Y640293D01*
X1150981Y639023D01*
X1146680D01*
X1134323Y651380D01*
Y654050D01*
X1134113Y655104D01*
X1133517Y655997D01*
X1132624Y656593D01*
X1131570Y656803D01*
X1131440D01*
X934401Y853842D01*
X934943Y855148D01*
X935219Y857250D01*
X934943Y859352D01*
X934132Y861310D01*
X932841Y862991D01*
X931160Y864282D01*
X929202Y865093D01*
X927100Y865369D01*
X924998Y865093D01*
X923040Y864282D01*
X921359Y862991D01*
X920068Y861310D01*
X919257Y859352D01*
X918980Y857250D01*
X919257Y855148D01*
X920068Y853190D01*
X921359Y851509D01*
X923040Y850218D01*
X924998Y849407D01*
X927100Y849130D01*
X929202Y849407D01*
X930508Y849949D01*
X1128353Y652104D01*
X1128353Y652103D01*
X1128817Y651794D01*
Y650240D01*
X1129027Y649186D01*
X1129623Y648293D01*
X1143593Y634324D01*
X1143593Y634323D01*
X1144486Y633727D01*
X1145540Y633517D01*
X1150981D01*
X1151233Y632247D01*
X1149770Y631641D01*
X1147840Y630160D01*
X1146359Y628230D01*
X1145428Y625982D01*
X1145110Y623570D01*
X1145428Y621158D01*
X1146359Y618910D01*
X1147840Y616980D01*
X1149770Y615499D01*
X1152018Y614568D01*
X1154430Y614250D01*
X1156842Y614568D01*
X1159090Y615499D01*
X1161020Y616980D01*
X1162501Y618910D01*
X1163432Y621158D01*
X1163750Y623570D01*
X1163432Y625982D01*
X1162501Y628230D01*
X1161020Y630160D01*
X1159090Y631641D01*
X1157627Y632247D01*
X1157879Y633517D01*
X1176380D01*
X1176633Y632247D01*
X1175170Y631641D01*
X1173240Y630160D01*
X1171759Y628230D01*
X1170828Y625982D01*
X1170510Y623570D01*
X1170828Y621158D01*
X1171759Y618910D01*
X1173240Y616980D01*
X1175170Y615499D01*
X1177418Y614568D01*
X1179830Y614250D01*
X1182242Y614568D01*
X1184490Y615499D01*
X1186420Y616980D01*
X1187901Y618910D01*
X1188832Y621158D01*
X1189150Y623570D01*
X1188832Y625982D01*
X1187901Y628230D01*
X1186420Y630160D01*
X1184490Y631641D01*
X1183027Y632247D01*
X1183279Y633517D01*
X1232030D01*
X1243525Y622022D01*
Y38100D01*
X1105408D01*
Y55107D01*
X1106746Y56134D01*
X1108566Y58505D01*
X1109710Y61266D01*
X1110100Y64230D01*
X1109710Y67193D01*
X1108566Y69955D01*
X1106746Y72326D01*
X1105408Y73353D01*
Y204311D01*
X1128728Y227631D01*
X1129802Y229031D01*
X1130478Y230661D01*
X1130708Y232410D01*
Y408681D01*
X1154815Y432789D01*
X1155262Y432847D01*
X1157220Y433658D01*
X1158901Y434949D01*
X1160192Y436630D01*
X1161003Y438588D01*
X1161280Y440690D01*
X1161003Y442791D01*
X1160192Y444750D01*
X1158901Y446431D01*
X1157220Y447722D01*
X1155262Y448533D01*
X1153160Y448810D01*
X1151059Y448533D01*
X1149100Y447722D01*
X1147419Y446431D01*
X1146128Y444750D01*
X1145317Y442791D01*
X1145258Y442345D01*
X1119172Y416259D01*
X1118098Y414859D01*
X1117422Y413229D01*
X1117192Y411480D01*
Y235209D01*
X1093872Y211889D01*
X1092798Y210489D01*
X1092122Y208859D01*
X1091892Y207110D01*
Y73353D01*
X1090554Y72326D01*
X1088734Y69955D01*
X1087590Y67193D01*
X1087200Y64230D01*
X1087590Y61266D01*
X1088734Y58505D01*
X1090554Y56134D01*
X1091892Y55107D01*
Y38459D01*
X1091533Y38100D01*
X585470D01*
Y164845D01*
X647828Y227202D01*
X647828Y227202D01*
X648645Y228426D01*
X648932Y229870D01*
X648932Y229870D01*
Y300697D01*
X720218Y371982D01*
X720218Y371982D01*
X721035Y373206D01*
X721322Y374650D01*
X721322Y374650D01*
Y487680D01*
X721035Y489124D01*
X720218Y490348D01*
X718994Y491165D01*
X717701Y491423D01*
X699177Y509947D01*
X698283Y510543D01*
X697230Y510753D01*
X661540D01*
X654642Y517651D01*
X655432Y519558D01*
X655750Y521970D01*
X655432Y524382D01*
X654501Y526630D01*
X653020Y528560D01*
X651090Y530041D01*
X648842Y530972D01*
X646430Y531290D01*
X644018Y530972D01*
X641770Y530041D01*
X639840Y528560D01*
X638359Y526630D01*
X637428Y524382D01*
X637110Y521970D01*
X637428Y519558D01*
X638359Y517310D01*
X639840Y515380D01*
X641770Y513899D01*
X644018Y512968D01*
X646430Y512650D01*
X648842Y512968D01*
X650749Y513758D01*
X658453Y506054D01*
X658453Y506053D01*
X659346Y505457D01*
X660400Y505247D01*
X664605D01*
X665013Y504044D01*
X664641Y503759D01*
X663025Y501654D01*
X662010Y499201D01*
X661830Y497840D01*
X681830D01*
X681650Y499201D01*
X680635Y501654D01*
X679019Y503759D01*
X678647Y504044D01*
X679055Y505247D01*
X696090D01*
X713777Y487559D01*
Y376213D01*
X642492Y304928D01*
X641675Y303704D01*
X641387Y302260D01*
X641387Y302260D01*
Y231433D01*
X586643Y176688D01*
X585470Y177174D01*
Y394445D01*
X586740Y395071D01*
X587760Y394288D01*
X589719Y393477D01*
X591820Y393200D01*
X593922Y393477D01*
X595880Y394288D01*
X597561Y395579D01*
X598852Y397260D01*
X599663Y399218D01*
X599939Y401320D01*
X599663Y403422D01*
X599122Y404728D01*
X609007Y414613D01*
X609387Y415183D01*
X610657Y414798D01*
Y371980D01*
X602573Y363897D01*
X601977Y363004D01*
X601767Y361950D01*
Y269193D01*
X600460Y268652D01*
X598779Y267361D01*
X597488Y265680D01*
X596677Y263722D01*
X596400Y261620D01*
X596677Y259519D01*
X597488Y257560D01*
X598779Y255879D01*
X600460Y254588D01*
X602419Y253777D01*
X604520Y253500D01*
X606622Y253777D01*
X608580Y254588D01*
X610261Y255879D01*
X611552Y257560D01*
X612363Y259519D01*
X612640Y261620D01*
X612363Y263722D01*
X611552Y265680D01*
X610261Y267361D01*
X608580Y268652D01*
X607273Y269193D01*
Y360810D01*
X615356Y368893D01*
X615357Y368893D01*
X615953Y369786D01*
X616163Y370840D01*
X616163Y370840D01*
Y783289D01*
X617433Y783720D01*
X618500Y782330D01*
X620357Y780905D01*
X622519Y780009D01*
X623570Y779871D01*
Y788670D01*
X624840D01*
Y789940D01*
X633639D01*
X633501Y790991D01*
X632605Y793153D01*
X631180Y795010D01*
X629323Y796435D01*
X627161Y797331D01*
X627040Y797347D01*
X627123Y798617D01*
X637569D01*
X638359Y796710D01*
X639840Y794780D01*
X641770Y793299D01*
X644018Y792368D01*
X646430Y792050D01*
X648842Y792368D01*
X651090Y793299D01*
X653020Y794780D01*
X654501Y796710D01*
X655432Y798958D01*
X655750Y801370D01*
X655432Y803782D01*
X654501Y806030D01*
X653020Y807960D01*
X651090Y809441D01*
X648842Y810372D01*
X646430Y810690D01*
X644018Y810372D01*
X641770Y809441D01*
X639840Y807960D01*
X638359Y806030D01*
X637569Y804123D01*
X618490D01*
X618490Y804123D01*
X617436Y803913D01*
X616543Y803317D01*
X616543Y803316D01*
X611463Y798237D01*
X611083Y797667D01*
X609813Y798052D01*
Y859920D01*
X624710Y874817D01*
X637569D01*
X638359Y872910D01*
X639840Y870980D01*
X641770Y869499D01*
X644018Y868568D01*
X646430Y868250D01*
X648842Y868568D01*
X651090Y869499D01*
X653020Y870980D01*
X654501Y872910D01*
X655432Y875158D01*
X655750Y877570D01*
X655432Y879982D01*
X654501Y882230D01*
X653020Y884160D01*
X651090Y885641D01*
X648842Y886572D01*
X646430Y886890D01*
X644018Y886572D01*
X641770Y885641D01*
X639840Y884160D01*
X638359Y882230D01*
X637569Y880323D01*
X623570D01*
X623570Y880323D01*
X622517Y880113D01*
X621623Y879517D01*
X605113Y863007D01*
X604517Y862113D01*
X604307Y861060D01*
Y765406D01*
X603037Y765153D01*
X602662Y766060D01*
X601371Y767741D01*
X599690Y769032D01*
X598133Y769677D01*
Y871220D01*
X597845Y872664D01*
X597028Y873888D01*
X597028Y873888D01*
X591403Y879513D01*
Y1267840D01*
X591115Y1269284D01*
X590298Y1270508D01*
X585470Y1275335D01*
Y1452407D01*
X586643Y1452894D01*
X691937Y1347600D01*
Y1015870D01*
X683390Y1007323D01*
X680691D01*
X679901Y1009230D01*
X678420Y1011160D01*
X676490Y1012641D01*
X674242Y1013572D01*
X671830Y1013890D01*
X669418Y1013572D01*
X667170Y1012641D01*
X665240Y1011160D01*
X663759Y1009230D01*
X662828Y1006982D01*
X662510Y1004570D01*
X662828Y1002158D01*
X663759Y999910D01*
X665240Y997980D01*
X667170Y996499D01*
X669418Y995568D01*
X671830Y995250D01*
X674242Y995568D01*
X676490Y996499D01*
X678420Y997980D01*
X679901Y999910D01*
X680691Y1001817D01*
X684530D01*
X685583Y1002027D01*
X686477Y1002623D01*
X696637Y1012783D01*
X696637Y1012783D01*
X697233Y1013677D01*
X697443Y1014730D01*
Y1348740D01*
X697443Y1348740D01*
X697233Y1349794D01*
X696637Y1350687D01*
X579259Y1468064D01*
X581081Y1469886D01*
X824017Y1226950D01*
Y1195070D01*
X824227Y1194016D01*
X824823Y1193123D01*
X879897Y1138050D01*
Y1028296D01*
X878627Y1028043D01*
X878252Y1028950D01*
X876961Y1030631D01*
X875280Y1031922D01*
X873322Y1032733D01*
X871220Y1033009D01*
X869118Y1032733D01*
X867160Y1031922D01*
X865479Y1030631D01*
X864188Y1028950D01*
X863647Y1027643D01*
X836131D01*
X835883Y1029531D01*
X835072Y1031490D01*
X833781Y1033171D01*
X832100Y1034462D01*
X830142Y1035273D01*
X828040Y1035549D01*
X825938Y1035273D01*
X823980Y1034462D01*
X822299Y1033171D01*
X821008Y1031490D01*
X820197Y1029531D01*
X819921Y1027430D01*
X820197Y1025329D01*
X821008Y1023370D01*
X822299Y1021689D01*
X823980Y1020398D01*
X825938Y1019587D01*
X828040Y1019311D01*
X830142Y1019587D01*
X832100Y1020398D01*
X833781Y1021689D01*
X834125Y1022137D01*
X863647D01*
X864188Y1020830D01*
X865479Y1019149D01*
X867160Y1017858D01*
X869118Y1017047D01*
X871220Y1016770D01*
X873322Y1017047D01*
X875280Y1017858D01*
X876961Y1019149D01*
X878252Y1020830D01*
X878627Y1021737D01*
X879897Y1021484D01*
Y956263D01*
X878590Y955722D01*
X876909Y954431D01*
X875618Y952750D01*
X874807Y950791D01*
X874530Y948690D01*
X874807Y946589D01*
X875618Y944630D01*
X876909Y942949D01*
X878590Y941658D01*
X880548Y940847D01*
X882650Y940571D01*
X884752Y940847D01*
X886710Y941658D01*
X888391Y942949D01*
X889682Y944630D01*
X890493Y946589D01*
X890770Y948690D01*
X890493Y950791D01*
X889682Y952750D01*
X888391Y954431D01*
X886710Y955722D01*
X885403Y956263D01*
Y1139190D01*
X885403Y1139190D01*
X885193Y1140244D01*
X884597Y1141137D01*
X829523Y1196210D01*
Y1228090D01*
X829523Y1228090D01*
X829313Y1229144D01*
X828717Y1230037D01*
X828717Y1230037D01*
X589267Y1469487D01*
X589753Y1470660D01*
X988541D01*
Y1465298D01*
X988267Y1464941D01*
X987456Y1462982D01*
X987179Y1460881D01*
X987456Y1458779D01*
X988267Y1456821D01*
X989558Y1455140D01*
X991239Y1453849D01*
X993197Y1453038D01*
X995299Y1452762D01*
X997401Y1453038D01*
X999359Y1453849D01*
X999716Y1454123D01*
X1075464D01*
X1075821Y1453849D01*
X1077779Y1453038D01*
X1079881Y1452762D01*
X1081982Y1453038D01*
X1083941Y1453849D01*
X1085622Y1455140D01*
X1086913Y1456821D01*
X1087724Y1458779D01*
X1088000Y1460881D01*
X1087724Y1462982D01*
X1086913Y1464941D01*
X1085622Y1466622D01*
X1083941Y1467913D01*
X1081982Y1468724D01*
X1079881Y1469001D01*
X1077779Y1468724D01*
X1075821Y1467913D01*
X1075464Y1467639D01*
X1002057D01*
Y1470660D01*
X1009541D01*
X1005182Y1578555D01*
X1087379Y1660752D01*
X1114981D01*
X1115504Y1660351D01*
X1117740Y1659425D01*
X1120140Y1659109D01*
X1122540Y1659425D01*
X1124776Y1660351D01*
X1126434Y1661623D01*
X1177346D01*
X1179004Y1660351D01*
X1181240Y1659425D01*
X1183640Y1659109D01*
X1186040Y1659425D01*
X1188276Y1660351D01*
X1190197Y1661825D01*
X1191670Y1663745D01*
X1192596Y1665981D01*
X1192912Y1668381D01*
X1192596Y1670781D01*
X1191670Y1673017D01*
X1190197Y1674938D01*
X1188276Y1676411D01*
X1186040Y1677338D01*
X1183640Y1677654D01*
X1181240Y1677338D01*
X1179004Y1676411D01*
X1177346Y1675139D01*
X1126434D01*
X1124776Y1676411D01*
X1122540Y1677338D01*
X1120140Y1677654D01*
X1117740Y1677338D01*
X1115504Y1676411D01*
X1113584Y1674938D01*
X1113069Y1674268D01*
X1084580D01*
X1082831Y1674037D01*
X1081201Y1673362D01*
X1079801Y1672289D01*
X1005559Y1598046D01*
X1004376Y1598508D01*
X999880Y1709774D01*
X1000760Y1710690D01*
X1244953D01*
X1246223Y1711960D01*
X1251303Y1706880D01*
D02*
G37*
G36*
X1031240Y1917936D02*
X1245870D01*
Y1871182D01*
X1137080D01*
Y1883332D01*
X1120980D01*
Y1867232D01*
X1127722D01*
X1131082Y1863872D01*
X1132471Y1862944D01*
X1134110Y1862618D01*
X1245870D01*
Y1723626D01*
X1244600Y1722356D01*
X941977D01*
X941088Y1723263D01*
X941804Y1759812D01*
X952070D01*
Y1758520D01*
X968170D01*
Y1774620D01*
X952070D01*
Y1773328D01*
X942976D01*
X942087Y1774235D01*
X943610Y1851896D01*
X960120D01*
X1028700Y1920476D01*
X1031240Y1917936D01*
D02*
G37*
%LPC*%
G36*
X715648Y1625600D02*
X708119D01*
X708257Y1624549D01*
X709153Y1622387D01*
X710578Y1620530D01*
X712435Y1619105D01*
X714597Y1618209D01*
X715648Y1618071D01*
Y1625600D01*
D02*
G37*
G36*
X725717D02*
X718188D01*
Y1618071D01*
X719239Y1618209D01*
X721401Y1619105D01*
X723259Y1620530D01*
X724683Y1622387D01*
X725579Y1624549D01*
X725717Y1625600D01*
D02*
G37*
G36*
X749860Y1634920D02*
X733760D01*
Y1618820D01*
X749860D01*
Y1634920D01*
D02*
G37*
G36*
X715648Y1635670D02*
X714597Y1635531D01*
X712435Y1634635D01*
X710578Y1633210D01*
X709153Y1631353D01*
X708257Y1629191D01*
X708119Y1628140D01*
X715648D01*
Y1635670D01*
D02*
G37*
G36*
X718188D02*
Y1628140D01*
X725717D01*
X725579Y1629191D01*
X724683Y1631353D01*
X723259Y1633210D01*
X721401Y1634635D01*
X719239Y1635531D01*
X718188Y1635670D01*
D02*
G37*
G36*
X627510Y1659890D02*
X624404D01*
X624503Y1659389D01*
X625507Y1657887D01*
X627009Y1656883D01*
X627510Y1656784D01*
Y1659890D01*
D02*
G37*
G36*
X666880Y1685789D02*
X664779Y1685513D01*
X662820Y1684702D01*
X661139Y1683411D01*
X659848Y1681730D01*
X659037Y1679772D01*
X658761Y1677670D01*
X659037Y1675569D01*
X659367Y1674772D01*
X654413Y1669817D01*
X653706Y1668759D01*
X653457Y1667510D01*
Y1641852D01*
X652660Y1641522D01*
X650979Y1640231D01*
X649688Y1638550D01*
X648877Y1636591D01*
X648601Y1634490D01*
X648877Y1632388D01*
X649688Y1630430D01*
X650979Y1628749D01*
X652660Y1627458D01*
X654619Y1626647D01*
X656720Y1626371D01*
X658821Y1626647D01*
X660780Y1627458D01*
X662461Y1628749D01*
X663752Y1630430D01*
X664563Y1632388D01*
X664839Y1634490D01*
X664563Y1636591D01*
X663752Y1638550D01*
X662461Y1640231D01*
X660780Y1641522D01*
X659983Y1641852D01*
Y1666159D01*
X663981Y1670157D01*
X664779Y1669827D01*
X666880Y1669550D01*
X668981Y1669827D01*
X670940Y1670638D01*
X672621Y1671929D01*
X673912Y1673610D01*
X674723Y1675569D01*
X674999Y1677670D01*
X674723Y1679772D01*
X673912Y1681730D01*
X672621Y1683411D01*
X670940Y1684702D01*
X668981Y1685513D01*
X666880Y1685789D01*
D02*
G37*
G36*
X627510Y1674536D02*
X627009Y1674437D01*
X625507Y1673433D01*
X624503Y1671931D01*
X624404Y1671430D01*
X627510D01*
Y1674536D01*
D02*
G37*
G36*
X639510D02*
X639009Y1674437D01*
X637507Y1673433D01*
X636503Y1671931D01*
X636151Y1670160D01*
X636050Y1670059D01*
Y1665660D01*
Y1661261D01*
X636151Y1661160D01*
X636503Y1659389D01*
X637507Y1657887D01*
X639009Y1656883D01*
X639510Y1656784D01*
Y1661160D01*
X640780D01*
Y1662430D01*
X645156D01*
X645057Y1662931D01*
X644053Y1664433D01*
X643360Y1664896D01*
Y1666424D01*
X644053Y1666887D01*
X645057Y1668389D01*
X645156Y1668890D01*
X640780D01*
Y1670160D01*
X639510D01*
Y1674536D01*
D02*
G37*
G36*
X630050Y1674536D02*
Y1670160D01*
X628780D01*
Y1668890D01*
X624404D01*
X624503Y1668389D01*
X625507Y1666887D01*
X626200Y1666424D01*
Y1664896D01*
X625507Y1664433D01*
X624503Y1662931D01*
X624404Y1662430D01*
X628780D01*
Y1661160D01*
X630050D01*
Y1656784D01*
X630551Y1656883D01*
X632053Y1657887D01*
X633057Y1659389D01*
X633409Y1661160D01*
X633510Y1661261D01*
Y1665660D01*
Y1670059D01*
X633409Y1670160D01*
X633057Y1671931D01*
X632053Y1673433D01*
X630551Y1674437D01*
X630050Y1674536D01*
D02*
G37*
G36*
X645156Y1659890D02*
X642050D01*
Y1656784D01*
X642551Y1656883D01*
X644053Y1657887D01*
X645057Y1659389D01*
X645156Y1659890D01*
D02*
G37*
G36*
X699770Y1761400D02*
Y1753870D01*
X707299D01*
X707161Y1754921D01*
X706265Y1757083D01*
X704840Y1758940D01*
X702983Y1760365D01*
X700821Y1761261D01*
X699770Y1761400D01*
D02*
G37*
G36*
X697230D02*
X696179Y1761261D01*
X694017Y1760365D01*
X692160Y1758940D01*
X690735Y1757083D01*
X689839Y1754921D01*
X689700Y1753870D01*
X697230D01*
Y1761400D01*
D02*
G37*
G36*
X642050Y1674536D02*
Y1671430D01*
X645156D01*
X645057Y1671931D01*
X644053Y1673433D01*
X642551Y1674437D01*
X642050Y1674536D01*
D02*
G37*
G36*
X697230Y1751330D02*
X689700D01*
X689839Y1750279D01*
X690735Y1748117D01*
X692160Y1746260D01*
X694017Y1744835D01*
X696179Y1743939D01*
X697230Y1743801D01*
Y1751330D01*
D02*
G37*
G36*
X707299D02*
X699770D01*
Y1743801D01*
X700821Y1743939D01*
X702983Y1744835D01*
X704840Y1746260D01*
X706265Y1748117D01*
X707161Y1750279D01*
X707299Y1751330D01*
D02*
G37*
G36*
X911860Y1626779D02*
Y1619250D01*
X919389D01*
X919251Y1620301D01*
X918355Y1622463D01*
X916930Y1624320D01*
X915073Y1625745D01*
X912911Y1626641D01*
X911860Y1626779D01*
D02*
G37*
G36*
X852170Y1680710D02*
X850069Y1680433D01*
X848110Y1679622D01*
X846429Y1678331D01*
X845138Y1676650D01*
X844327Y1674691D01*
X844051Y1672590D01*
X844327Y1670488D01*
X845138Y1668530D01*
X846367Y1666929D01*
Y1640582D01*
X845570Y1640252D01*
X843889Y1638961D01*
X842598Y1637280D01*
X841787Y1635322D01*
X841510Y1633220D01*
X841787Y1631118D01*
X842598Y1629160D01*
X843889Y1627479D01*
X845570Y1626188D01*
X847529Y1625377D01*
X849630Y1625101D01*
X851731Y1625377D01*
X853690Y1626188D01*
X855371Y1627479D01*
X856662Y1629160D01*
X857473Y1631118D01*
X857749Y1633220D01*
X857473Y1635322D01*
X856662Y1637280D01*
X855371Y1638961D01*
X853690Y1640252D01*
X852893Y1640582D01*
Y1664566D01*
X854271Y1664747D01*
X856230Y1665558D01*
X857911Y1666849D01*
X859202Y1668530D01*
X860013Y1670488D01*
X860290Y1672590D01*
X860013Y1674691D01*
X859202Y1676650D01*
X857911Y1678331D01*
X856230Y1679622D01*
X854271Y1680433D01*
X852170Y1680710D01*
D02*
G37*
G36*
X909320Y1626779D02*
X908269Y1626641D01*
X906107Y1625745D01*
X904250Y1624320D01*
X902825Y1622463D01*
X901929Y1620301D01*
X901790Y1619250D01*
X909320D01*
Y1626779D01*
D02*
G37*
G36*
X835526Y1655970D02*
X832420D01*
Y1652864D01*
X832921Y1652963D01*
X834423Y1653967D01*
X835427Y1655469D01*
X835526Y1655970D01*
D02*
G37*
G36*
X817880D02*
X814774D01*
X814873Y1655469D01*
X815877Y1653967D01*
X817379Y1652963D01*
X817880Y1652864D01*
Y1655970D01*
D02*
G37*
G36*
X829880Y1670616D02*
X829379Y1670517D01*
X827877Y1669513D01*
X826873Y1668011D01*
X826521Y1666240D01*
X826420Y1666139D01*
Y1661740D01*
Y1657341D01*
X826521Y1657240D01*
X826873Y1655469D01*
X827877Y1653967D01*
X829379Y1652963D01*
X829880Y1652864D01*
Y1657240D01*
X831150D01*
Y1658510D01*
X835526D01*
X835427Y1659011D01*
X834423Y1660513D01*
X833730Y1660976D01*
Y1662504D01*
X834423Y1662967D01*
X835427Y1664469D01*
X835526Y1664970D01*
X831150D01*
Y1666240D01*
X829880D01*
Y1670616D01*
D02*
G37*
G36*
X820420D02*
Y1666240D01*
X819150D01*
Y1664970D01*
X814774D01*
X814873Y1664469D01*
X815877Y1662967D01*
X816570Y1662504D01*
Y1660976D01*
X815877Y1660513D01*
X814873Y1659011D01*
X814774Y1658510D01*
X819150D01*
Y1657240D01*
X820420D01*
Y1652864D01*
X820921Y1652963D01*
X822423Y1653967D01*
X823427Y1655469D01*
X823779Y1657240D01*
X823880Y1657341D01*
Y1661740D01*
Y1666139D01*
X823779Y1666240D01*
X823427Y1668011D01*
X822423Y1669513D01*
X820921Y1670517D01*
X820420Y1670616D01*
D02*
G37*
G36*
X943532Y1626030D02*
X927432D01*
Y1609930D01*
X943532D01*
Y1626030D01*
D02*
G37*
G36*
X909320Y1616710D02*
X901790D01*
X901929Y1615659D01*
X902825Y1613497D01*
X904250Y1611640D01*
X906107Y1610215D01*
X908269Y1609319D01*
X909320Y1609180D01*
Y1616710D01*
D02*
G37*
G36*
X919389D02*
X911860D01*
Y1609180D01*
X912911Y1609319D01*
X915073Y1610215D01*
X916930Y1611640D01*
X918355Y1613497D01*
X919251Y1615659D01*
X919389Y1616710D01*
D02*
G37*
G36*
X859192Y1785620D02*
X851662D01*
Y1778091D01*
X852713Y1778229D01*
X854875Y1779125D01*
X856732Y1780550D01*
X858157Y1782407D01*
X859053Y1784569D01*
X859192Y1785620D01*
D02*
G37*
G36*
X849122D02*
X841592D01*
X841731Y1784569D01*
X842627Y1782407D01*
X844052Y1780550D01*
X845909Y1779125D01*
X848071Y1778229D01*
X849122Y1778091D01*
Y1785620D01*
D02*
G37*
G36*
X832420Y1670616D02*
Y1667510D01*
X835526D01*
X835427Y1668011D01*
X834423Y1669513D01*
X832921Y1670517D01*
X832420Y1670616D01*
D02*
G37*
G36*
X817880D02*
X817379Y1670517D01*
X815877Y1669513D01*
X814873Y1668011D01*
X814774Y1667510D01*
X817880D01*
Y1670616D01*
D02*
G37*
G36*
X1154430Y683690D02*
X1152018Y683372D01*
X1149770Y682441D01*
X1147840Y680960D01*
X1146359Y679030D01*
X1145428Y676782D01*
X1145110Y674370D01*
X1145428Y671958D01*
X1146359Y669710D01*
X1147840Y667780D01*
X1149770Y666299D01*
X1152018Y665368D01*
X1154430Y665050D01*
X1156842Y665368D01*
X1159090Y666299D01*
X1161020Y667780D01*
X1162501Y669710D01*
X1163432Y671958D01*
X1163750Y674370D01*
X1163432Y676782D01*
X1162501Y679030D01*
X1161020Y680960D01*
X1159090Y682441D01*
X1156842Y683372D01*
X1154430Y683690D01*
D02*
G37*
G36*
X646430Y709090D02*
X644018Y708772D01*
X641770Y707841D01*
X639840Y706360D01*
X638359Y704430D01*
X637428Y702182D01*
X637110Y699770D01*
X637428Y697358D01*
X638359Y695110D01*
X639840Y693180D01*
X641770Y691699D01*
X644018Y690768D01*
X646430Y690450D01*
X648842Y690768D01*
X651090Y691699D01*
X653020Y693180D01*
X654501Y695110D01*
X655432Y697358D01*
X655750Y699770D01*
X655432Y702182D01*
X654501Y704430D01*
X653020Y706360D01*
X651090Y707841D01*
X648842Y708772D01*
X646430Y709090D01*
D02*
G37*
G36*
X671830Y683690D02*
X669418Y683372D01*
X667170Y682441D01*
X665240Y680960D01*
X663759Y679030D01*
X662828Y676782D01*
X662510Y674370D01*
X662828Y671958D01*
X663759Y669710D01*
X665240Y667780D01*
X667170Y666299D01*
X669418Y665368D01*
X671830Y665050D01*
X674242Y665368D01*
X676490Y666299D01*
X678420Y667780D01*
X679901Y669710D01*
X680832Y671958D01*
X681150Y674370D01*
X680832Y676782D01*
X679901Y679030D01*
X678420Y680960D01*
X676490Y682441D01*
X674242Y683372D01*
X671830Y683690D01*
D02*
G37*
G36*
X646430D02*
X644018Y683372D01*
X641770Y682441D01*
X639840Y680960D01*
X638359Y679030D01*
X637428Y676782D01*
X637110Y674370D01*
X637428Y671958D01*
X638359Y669710D01*
X639840Y667780D01*
X641770Y666299D01*
X644018Y665368D01*
X646430Y665050D01*
X648842Y665368D01*
X651090Y666299D01*
X653020Y667780D01*
X654501Y669710D01*
X655432Y671958D01*
X655750Y674370D01*
X655432Y676782D01*
X654501Y679030D01*
X653020Y680960D01*
X651090Y682441D01*
X648842Y683372D01*
X646430Y683690D01*
D02*
G37*
G36*
Y759890D02*
X644018Y759572D01*
X641770Y758641D01*
X639840Y757160D01*
X638359Y755230D01*
X637428Y752982D01*
X637110Y750570D01*
X637428Y748158D01*
X638359Y745910D01*
X639840Y743980D01*
X641770Y742499D01*
X644018Y741568D01*
X646430Y741250D01*
X648842Y741568D01*
X651090Y742499D01*
X653020Y743980D01*
X654501Y745910D01*
X655432Y748158D01*
X655750Y750570D01*
X655432Y752982D01*
X654501Y755230D01*
X653020Y757160D01*
X651090Y758641D01*
X648842Y759572D01*
X646430Y759890D01*
D02*
G37*
G36*
X671830Y709090D02*
X669418Y708772D01*
X667170Y707841D01*
X665240Y706360D01*
X663759Y704430D01*
X662828Y702182D01*
X662510Y699770D01*
X662828Y697358D01*
X663759Y695110D01*
X665240Y693180D01*
X667170Y691699D01*
X669418Y690768D01*
X671830Y690450D01*
X674242Y690768D01*
X676490Y691699D01*
X678420Y693180D01*
X679901Y695110D01*
X680832Y697358D01*
X681150Y699770D01*
X680832Y702182D01*
X679901Y704430D01*
X678420Y706360D01*
X676490Y707841D01*
X674242Y708772D01*
X671830Y709090D01*
D02*
G37*
G36*
X1154430Y734490D02*
X1152018Y734172D01*
X1149770Y733241D01*
X1147840Y731760D01*
X1146359Y729830D01*
X1145428Y727582D01*
X1145110Y725170D01*
X1145428Y722758D01*
X1146359Y720510D01*
X1147840Y718580D01*
X1149770Y717099D01*
X1152018Y716168D01*
X1154430Y715850D01*
X1156842Y716168D01*
X1159090Y717099D01*
X1161020Y718580D01*
X1162501Y720510D01*
X1163432Y722758D01*
X1163750Y725170D01*
X1163432Y727582D01*
X1162501Y729830D01*
X1161020Y731760D01*
X1159090Y733241D01*
X1156842Y734172D01*
X1154430Y734490D01*
D02*
G37*
G36*
X646430D02*
X644018Y734172D01*
X641770Y733241D01*
X639840Y731760D01*
X638359Y729830D01*
X637428Y727582D01*
X637110Y725170D01*
X637428Y722758D01*
X638359Y720510D01*
X639840Y718580D01*
X641770Y717099D01*
X644018Y716168D01*
X646430Y715850D01*
X648842Y716168D01*
X651090Y717099D01*
X653020Y718580D01*
X654501Y720510D01*
X655432Y722758D01*
X655750Y725170D01*
X655432Y727582D01*
X654501Y729830D01*
X653020Y731760D01*
X651090Y733241D01*
X648842Y734172D01*
X646430Y734490D01*
D02*
G37*
G36*
X671830D02*
X669418Y734172D01*
X667170Y733241D01*
X665240Y731760D01*
X663759Y729830D01*
X662828Y727582D01*
X662510Y725170D01*
X662828Y722758D01*
X663759Y720510D01*
X665240Y718580D01*
X667170Y717099D01*
X669418Y716168D01*
X671830Y715850D01*
X674242Y716168D01*
X676490Y717099D01*
X678420Y718580D01*
X679901Y720510D01*
X680832Y722758D01*
X681150Y725170D01*
X680832Y727582D01*
X679901Y729830D01*
X678420Y731760D01*
X676490Y733241D01*
X674242Y734172D01*
X671830Y734490D01*
D02*
G37*
G36*
X1154430Y709090D02*
X1152018Y708772D01*
X1149770Y707841D01*
X1147840Y706360D01*
X1146359Y704430D01*
X1145428Y702182D01*
X1145110Y699770D01*
X1145428Y697358D01*
X1146359Y695110D01*
X1147840Y693180D01*
X1149770Y691699D01*
X1152018Y690768D01*
X1154430Y690450D01*
X1156842Y690768D01*
X1159090Y691699D01*
X1161020Y693180D01*
X1162501Y695110D01*
X1163432Y697358D01*
X1163750Y699770D01*
X1163432Y702182D01*
X1162501Y704430D01*
X1161020Y706360D01*
X1159090Y707841D01*
X1156842Y708772D01*
X1154430Y709090D01*
D02*
G37*
G36*
X1179830D02*
X1177418Y708772D01*
X1175170Y707841D01*
X1173240Y706360D01*
X1171759Y704430D01*
X1170828Y702182D01*
X1170510Y699770D01*
X1170828Y697358D01*
X1171759Y695110D01*
X1173240Y693180D01*
X1175170Y691699D01*
X1177418Y690768D01*
X1179830Y690450D01*
X1182242Y690768D01*
X1184490Y691699D01*
X1186420Y693180D01*
X1187901Y695110D01*
X1188832Y697358D01*
X1189150Y699770D01*
X1188832Y702182D01*
X1187901Y704430D01*
X1186420Y706360D01*
X1184490Y707841D01*
X1182242Y708772D01*
X1179830Y709090D01*
D02*
G37*
G36*
Y734490D02*
X1177418Y734172D01*
X1175170Y733241D01*
X1173240Y731760D01*
X1171759Y729830D01*
X1170828Y727582D01*
X1170510Y725170D01*
X1170828Y722758D01*
X1171759Y720510D01*
X1173240Y718580D01*
X1175170Y717099D01*
X1177418Y716168D01*
X1179830Y715850D01*
X1182242Y716168D01*
X1184490Y717099D01*
X1186420Y718580D01*
X1187901Y720510D01*
X1188832Y722758D01*
X1189150Y725170D01*
X1188832Y727582D01*
X1187901Y729830D01*
X1186420Y731760D01*
X1184490Y733241D01*
X1182242Y734172D01*
X1179830Y734490D01*
D02*
G37*
G36*
X1154430Y582090D02*
X1152018Y581772D01*
X1149770Y580841D01*
X1147840Y579360D01*
X1146359Y577430D01*
X1145428Y575182D01*
X1145110Y572770D01*
X1145428Y570358D01*
X1146359Y568110D01*
X1147840Y566180D01*
X1149770Y564699D01*
X1152018Y563768D01*
X1154430Y563450D01*
X1156842Y563768D01*
X1159090Y564699D01*
X1161020Y566180D01*
X1162501Y568110D01*
X1163432Y570358D01*
X1163750Y572770D01*
X1163432Y575182D01*
X1162501Y577430D01*
X1161020Y579360D01*
X1159090Y580841D01*
X1156842Y581772D01*
X1154430Y582090D01*
D02*
G37*
G36*
X1179830D02*
X1177418Y581772D01*
X1175170Y580841D01*
X1173240Y579360D01*
X1171759Y577430D01*
X1170828Y575182D01*
X1170510Y572770D01*
X1170828Y570358D01*
X1171759Y568110D01*
X1173240Y566180D01*
X1175170Y564699D01*
X1177418Y563768D01*
X1179830Y563450D01*
X1182242Y563768D01*
X1184490Y564699D01*
X1186420Y566180D01*
X1187901Y568110D01*
X1188832Y570358D01*
X1189150Y572770D01*
X1188832Y575182D01*
X1187901Y577430D01*
X1186420Y579360D01*
X1184490Y580841D01*
X1182242Y581772D01*
X1179830Y582090D01*
D02*
G37*
G36*
X1049020Y584700D02*
X1046918Y584423D01*
X1044960Y583612D01*
X1043279Y582321D01*
X1041988Y580640D01*
X1041447Y579333D01*
X1029970D01*
X1029970Y579333D01*
X1028916Y579123D01*
X1028023Y578527D01*
X1028023Y578526D01*
X964798Y515302D01*
X963492Y515843D01*
X961390Y516119D01*
X959288Y515843D01*
X957330Y515032D01*
X955649Y513741D01*
X954358Y512060D01*
X953547Y510102D01*
X953270Y508000D01*
X953547Y505899D01*
X954358Y503940D01*
X955649Y502259D01*
X957330Y500968D01*
X959288Y500157D01*
X961390Y499880D01*
X963492Y500157D01*
X965450Y500968D01*
X967131Y502259D01*
X968422Y503940D01*
X969233Y505899D01*
X969510Y508000D01*
X969233Y510102D01*
X968691Y511408D01*
X1031110Y573827D01*
X1041447D01*
X1041988Y572520D01*
X1043279Y570839D01*
X1044960Y569548D01*
X1046918Y568737D01*
X1049020Y568461D01*
X1051122Y568737D01*
X1053080Y569548D01*
X1054761Y570839D01*
X1056052Y572520D01*
X1056863Y574478D01*
X1057140Y576580D01*
X1056863Y578681D01*
X1056052Y580640D01*
X1054761Y582321D01*
X1053080Y583612D01*
X1051122Y584423D01*
X1049020Y584700D01*
D02*
G37*
G36*
X671830Y582090D02*
X669418Y581772D01*
X667170Y580841D01*
X665240Y579360D01*
X663759Y577430D01*
X662828Y575182D01*
X662510Y572770D01*
X662828Y570358D01*
X663759Y568110D01*
X665240Y566180D01*
X667170Y564699D01*
X669418Y563768D01*
X671830Y563450D01*
X674242Y563768D01*
X676490Y564699D01*
X678420Y566180D01*
X679901Y568110D01*
X680832Y570358D01*
X681150Y572770D01*
X680832Y575182D01*
X679901Y577430D01*
X678420Y579360D01*
X676490Y580841D01*
X674242Y581772D01*
X671830Y582090D01*
D02*
G37*
G36*
Y556690D02*
X669418Y556372D01*
X667170Y555441D01*
X665240Y553960D01*
X663759Y552030D01*
X662828Y549782D01*
X662510Y547370D01*
X662828Y544958D01*
X663759Y542710D01*
X665240Y540780D01*
X667170Y539299D01*
X669418Y538368D01*
X671830Y538050D01*
X674242Y538368D01*
X676490Y539299D01*
X678420Y540780D01*
X679901Y542710D01*
X680832Y544958D01*
X681150Y547370D01*
X680832Y549782D01*
X679901Y552030D01*
X678420Y553960D01*
X676490Y555441D01*
X674242Y556372D01*
X671830Y556690D01*
D02*
G37*
G36*
X1126490Y639310D02*
X1124389Y639033D01*
X1122430Y638222D01*
X1120749Y636931D01*
X1119458Y635250D01*
X1118647Y633292D01*
X1118371Y631190D01*
X1118647Y629089D01*
X1119458Y627130D01*
X1120749Y625449D01*
X1122430Y624158D01*
X1123737Y623617D01*
Y563750D01*
X1055963Y495977D01*
X1055367Y495084D01*
X1055157Y494030D01*
Y422780D01*
X969703Y337327D01*
X969107Y336433D01*
X968897Y335380D01*
Y323018D01*
X968687Y322990D01*
X965925Y321846D01*
X963554Y320026D01*
X961734Y317655D01*
X960590Y314893D01*
X960200Y311930D01*
X960590Y308967D01*
X961734Y306205D01*
X963554Y303834D01*
X965925Y302014D01*
X968687Y300870D01*
X971650Y300480D01*
X974613Y300870D01*
X977375Y302014D01*
X979746Y303834D01*
X981566Y306205D01*
X982710Y308967D01*
X983100Y311930D01*
X982710Y314893D01*
X981566Y317655D01*
X979746Y320026D01*
X977375Y321846D01*
X974613Y322990D01*
X974403Y323018D01*
Y334240D01*
X1059856Y419693D01*
X1059857Y419693D01*
X1060237Y420263D01*
X1061507Y419878D01*
Y411433D01*
X1060200Y410892D01*
X1058519Y409601D01*
X1057228Y407920D01*
X1056417Y405961D01*
X1056141Y403860D01*
X1056417Y401758D01*
X1057228Y399800D01*
X1058519Y398119D01*
X1060200Y396828D01*
X1062159Y396017D01*
X1064260Y395741D01*
X1066361Y396017D01*
X1068320Y396828D01*
X1070001Y398119D01*
X1071292Y399800D01*
X1072103Y401758D01*
X1072380Y403860D01*
X1072103Y405961D01*
X1071292Y407920D01*
X1070001Y409601D01*
X1068320Y410892D01*
X1067013Y411433D01*
Y466220D01*
X1075097Y474303D01*
X1075097Y474303D01*
X1075693Y475196D01*
X1075903Y476250D01*
X1075693Y477304D01*
X1075639Y477385D01*
X1142870Y544617D01*
X1145569D01*
X1146359Y542710D01*
X1147840Y540780D01*
X1149770Y539299D01*
X1152018Y538368D01*
X1154430Y538050D01*
X1156842Y538368D01*
X1159090Y539299D01*
X1161020Y540780D01*
X1162501Y542710D01*
X1163432Y544958D01*
X1163750Y547370D01*
X1163432Y549782D01*
X1162501Y552030D01*
X1161020Y553960D01*
X1159090Y555441D01*
X1156842Y556372D01*
X1154430Y556690D01*
X1152018Y556372D01*
X1149770Y555441D01*
X1147840Y553960D01*
X1146359Y552030D01*
X1145569Y550123D01*
X1141730D01*
X1140676Y549913D01*
X1139783Y549317D01*
X1139783Y549316D01*
X1069933Y479467D01*
X1069337Y478573D01*
X1069127Y477520D01*
X1069337Y476466D01*
X1069391Y476385D01*
X1062313Y469307D01*
X1061933Y468737D01*
X1060663Y469122D01*
Y492890D01*
X1128437Y560663D01*
X1128437Y560663D01*
X1129033Y561557D01*
X1129243Y562610D01*
X1129243Y562610D01*
Y623617D01*
X1130550Y624158D01*
X1132231Y625449D01*
X1133522Y627130D01*
X1134333Y629089D01*
X1134610Y631190D01*
X1134333Y633292D01*
X1133522Y635250D01*
X1132231Y636931D01*
X1130550Y638222D01*
X1128592Y639033D01*
X1126490Y639310D01*
D02*
G37*
G36*
X646430Y582090D02*
X644018Y581772D01*
X641770Y580841D01*
X639840Y579360D01*
X638359Y577430D01*
X637428Y575182D01*
X637110Y572770D01*
X637428Y570358D01*
X638359Y568110D01*
X639840Y566180D01*
X641770Y564699D01*
X644018Y563768D01*
X646430Y563450D01*
X648842Y563768D01*
X651090Y564699D01*
X653020Y566180D01*
X654501Y568110D01*
X655432Y570358D01*
X655750Y572770D01*
X655432Y575182D01*
X654501Y577430D01*
X653020Y579360D01*
X651090Y580841D01*
X648842Y581772D01*
X646430Y582090D01*
D02*
G37*
G36*
X1154430Y607490D02*
X1152018Y607172D01*
X1149770Y606241D01*
X1147840Y604760D01*
X1146359Y602830D01*
X1145428Y600582D01*
X1145110Y598170D01*
X1145428Y595758D01*
X1146359Y593510D01*
X1147840Y591580D01*
X1149770Y590099D01*
X1152018Y589168D01*
X1154430Y588850D01*
X1156842Y589168D01*
X1159090Y590099D01*
X1161020Y591580D01*
X1162501Y593510D01*
X1163432Y595758D01*
X1163750Y598170D01*
X1163432Y600582D01*
X1162501Y602830D01*
X1161020Y604760D01*
X1159090Y606241D01*
X1156842Y607172D01*
X1154430Y607490D01*
D02*
G37*
G36*
X646430Y658290D02*
X644018Y657972D01*
X641770Y657041D01*
X639840Y655560D01*
X638359Y653630D01*
X637428Y651382D01*
X637110Y648970D01*
X637428Y646558D01*
X638359Y644310D01*
X639840Y642380D01*
X641770Y640899D01*
X644018Y639968D01*
X646430Y639650D01*
X648842Y639968D01*
X651090Y640899D01*
X653020Y642380D01*
X654501Y644310D01*
X655432Y646558D01*
X655750Y648970D01*
X655432Y651382D01*
X654501Y653630D01*
X653020Y655560D01*
X651090Y657041D01*
X648842Y657972D01*
X646430Y658290D01*
D02*
G37*
G36*
X671830D02*
X669418Y657972D01*
X667170Y657041D01*
X665240Y655560D01*
X663759Y653630D01*
X662828Y651382D01*
X662510Y648970D01*
X662828Y646558D01*
X663759Y644310D01*
X665240Y642380D01*
X667170Y640899D01*
X669418Y639968D01*
X671830Y639650D01*
X674242Y639968D01*
X676490Y640899D01*
X678420Y642380D01*
X679901Y644310D01*
X680832Y646558D01*
X681150Y648970D01*
X680832Y651382D01*
X679901Y653630D01*
X678420Y655560D01*
X676490Y657041D01*
X674242Y657972D01*
X671830Y658290D01*
D02*
G37*
G36*
X979170Y671059D02*
X977068Y670783D01*
X975110Y669972D01*
X973429Y668681D01*
X972138Y667000D01*
X971327Y665042D01*
X971050Y662940D01*
X971291Y661117D01*
X923112Y612938D01*
X922928Y612663D01*
X658170D01*
X658170Y612663D01*
X657116Y612453D01*
X656223Y611857D01*
X656223Y611856D01*
X650749Y606382D01*
X648842Y607172D01*
X646430Y607490D01*
X644018Y607172D01*
X641770Y606241D01*
X639840Y604760D01*
X638359Y602830D01*
X637428Y600582D01*
X637110Y598170D01*
X637428Y595758D01*
X638359Y593510D01*
X639840Y591580D01*
X641770Y590099D01*
X644018Y589168D01*
X646430Y588850D01*
X648842Y589168D01*
X651090Y590099D01*
X653020Y591580D01*
X654501Y593510D01*
X655432Y595758D01*
X655750Y598170D01*
X655432Y600582D01*
X654642Y602489D01*
X659310Y607157D01*
X666278D01*
X666709Y605887D01*
X665240Y604760D01*
X663759Y602830D01*
X662828Y600582D01*
X662510Y598170D01*
X662828Y595758D01*
X663759Y593510D01*
X665240Y591580D01*
X667170Y590099D01*
X669418Y589168D01*
X671830Y588850D01*
X674242Y589168D01*
X676490Y590099D01*
X678420Y591580D01*
X679901Y593510D01*
X680691Y595417D01*
X802336D01*
X802417Y594799D01*
X803228Y592840D01*
X804519Y591159D01*
X806200Y589868D01*
X808158Y589057D01*
X810260Y588781D01*
X812362Y589057D01*
X814320Y589868D01*
X816001Y591159D01*
X817292Y592840D01*
X818103Y594799D01*
X818380Y596900D01*
X818103Y599002D01*
X817292Y600960D01*
X816001Y602641D01*
X814320Y603932D01*
X812362Y604743D01*
X810260Y605019D01*
X808158Y604743D01*
X806200Y603932D01*
X804519Y602641D01*
X803228Y600960D01*
X803213Y600923D01*
X680691D01*
X679901Y602830D01*
X678420Y604760D01*
X676951Y605887D01*
X677382Y607157D01*
X922928D01*
X923112Y606882D01*
X924501Y605954D01*
X926140Y605628D01*
X927779Y605954D01*
X929168Y606882D01*
X977347Y655061D01*
X979170Y654820D01*
X981272Y655097D01*
X983230Y655908D01*
X984911Y657199D01*
X986202Y658880D01*
X987013Y660838D01*
X987290Y662940D01*
X987013Y665042D01*
X986202Y667000D01*
X984911Y668681D01*
X983230Y669972D01*
X981272Y670783D01*
X979170Y671059D01*
D02*
G37*
G36*
X861060Y732020D02*
X858959Y731743D01*
X857000Y730932D01*
X855319Y729641D01*
X854028Y727960D01*
X853217Y726002D01*
X852941Y723900D01*
X853217Y721798D01*
X854028Y719840D01*
X855319Y718159D01*
X857000Y716868D01*
X858307Y716327D01*
Y646300D01*
X842878Y630872D01*
X841572Y631413D01*
X839470Y631689D01*
X837368Y631413D01*
X835410Y630602D01*
X833729Y629311D01*
X832438Y627630D01*
X831627Y625672D01*
X831350Y623570D01*
X831627Y621469D01*
X832438Y619510D01*
X833729Y617829D01*
X835410Y616538D01*
X837368Y615727D01*
X839470Y615451D01*
X841572Y615727D01*
X843530Y616538D01*
X845211Y617829D01*
X846502Y619510D01*
X847313Y621469D01*
X847589Y623570D01*
X847313Y625672D01*
X846771Y626978D01*
X863007Y643213D01*
X863007Y643213D01*
X863603Y644107D01*
X863813Y645160D01*
X863813Y645160D01*
Y716327D01*
X865120Y716868D01*
X866801Y718159D01*
X868092Y719840D01*
X868903Y721798D01*
X869180Y723900D01*
X868903Y726002D01*
X868092Y727960D01*
X866801Y729641D01*
X865120Y730932D01*
X863161Y731743D01*
X861060Y732020D01*
D02*
G37*
G36*
X1179830Y607490D02*
X1177418Y607172D01*
X1175170Y606241D01*
X1173240Y604760D01*
X1171759Y602830D01*
X1170828Y600582D01*
X1170510Y598170D01*
X1170828Y595758D01*
X1171759Y593510D01*
X1173240Y591580D01*
X1175170Y590099D01*
X1177418Y589168D01*
X1179830Y588850D01*
X1182242Y589168D01*
X1184490Y590099D01*
X1186420Y591580D01*
X1187901Y593510D01*
X1188832Y595758D01*
X1189150Y598170D01*
X1188832Y600582D01*
X1187901Y602830D01*
X1186420Y604760D01*
X1184490Y606241D01*
X1182242Y607172D01*
X1179830Y607490D01*
D02*
G37*
G36*
X646430Y632890D02*
X644018Y632572D01*
X641770Y631641D01*
X639840Y630160D01*
X638359Y628230D01*
X637428Y625982D01*
X637110Y623570D01*
X637428Y621158D01*
X638359Y618910D01*
X639840Y616980D01*
X641770Y615499D01*
X644018Y614568D01*
X646430Y614250D01*
X648842Y614568D01*
X651090Y615499D01*
X653020Y616980D01*
X654501Y618910D01*
X655432Y621158D01*
X655750Y623570D01*
X655432Y625982D01*
X654501Y628230D01*
X653020Y630160D01*
X651090Y631641D01*
X648842Y632572D01*
X646430Y632890D01*
D02*
G37*
G36*
X1005840Y643120D02*
X1003738Y642843D01*
X1001780Y642032D01*
X1000099Y640741D01*
X998808Y639060D01*
X997997Y637102D01*
X997720Y635000D01*
X997997Y632898D01*
X998539Y631592D01*
X934318Y567371D01*
X933011Y567913D01*
X930910Y568190D01*
X928809Y567913D01*
X926850Y567102D01*
X925169Y565811D01*
X923878Y564130D01*
X923067Y562172D01*
X922791Y560070D01*
X923067Y557968D01*
X923878Y556010D01*
X925169Y554329D01*
X926850Y553038D01*
X928809Y552227D01*
X930910Y551950D01*
X933011Y552227D01*
X934970Y553038D01*
X936651Y554329D01*
X937942Y556010D01*
X938753Y557968D01*
X939029Y560070D01*
X938753Y562172D01*
X938212Y563478D01*
X1002432Y627699D01*
X1003738Y627157D01*
X1005840Y626880D01*
X1007942Y627157D01*
X1009900Y627968D01*
X1011581Y629259D01*
X1012872Y630940D01*
X1013683Y632898D01*
X1013960Y635000D01*
X1013683Y637102D01*
X1012872Y639060D01*
X1011581Y640741D01*
X1009900Y642032D01*
X1007942Y642843D01*
X1005840Y643120D01*
D02*
G37*
G36*
X1179830Y861490D02*
X1177418Y861172D01*
X1175170Y860241D01*
X1173240Y858760D01*
X1171759Y856830D01*
X1170828Y854582D01*
X1170510Y852170D01*
X1170828Y849758D01*
X1171759Y847510D01*
X1173240Y845580D01*
X1175170Y844099D01*
X1177418Y843168D01*
X1179830Y842850D01*
X1182242Y843168D01*
X1184490Y844099D01*
X1186420Y845580D01*
X1187901Y847510D01*
X1188832Y849758D01*
X1189150Y852170D01*
X1188832Y854582D01*
X1187901Y856830D01*
X1186420Y858760D01*
X1184490Y860241D01*
X1182242Y861172D01*
X1179830Y861490D01*
D02*
G37*
G36*
X1154430Y886890D02*
X1152018Y886572D01*
X1149770Y885641D01*
X1147840Y884160D01*
X1146359Y882230D01*
X1145428Y879982D01*
X1145110Y877570D01*
X1145428Y875158D01*
X1146359Y872910D01*
X1147840Y870980D01*
X1149770Y869499D01*
X1152018Y868568D01*
X1154430Y868250D01*
X1156842Y868568D01*
X1159090Y869499D01*
X1161020Y870980D01*
X1162501Y872910D01*
X1163432Y875158D01*
X1163750Y877570D01*
X1163432Y879982D01*
X1162501Y882230D01*
X1161020Y884160D01*
X1159090Y885641D01*
X1156842Y886572D01*
X1154430Y886890D01*
D02*
G37*
G36*
X1179830D02*
X1177418Y886572D01*
X1175170Y885641D01*
X1173240Y884160D01*
X1171759Y882230D01*
X1170828Y879982D01*
X1170510Y877570D01*
X1170828Y875158D01*
X1171759Y872910D01*
X1173240Y870980D01*
X1175170Y869499D01*
X1177418Y868568D01*
X1179830Y868250D01*
X1182242Y868568D01*
X1184490Y869499D01*
X1186420Y870980D01*
X1187901Y872910D01*
X1188832Y875158D01*
X1189150Y877570D01*
X1188832Y879982D01*
X1187901Y882230D01*
X1186420Y884160D01*
X1184490Y885641D01*
X1182242Y886572D01*
X1179830Y886890D01*
D02*
G37*
G36*
X1154430Y861490D02*
X1152018Y861172D01*
X1149770Y860241D01*
X1147840Y858760D01*
X1146359Y856830D01*
X1145428Y854582D01*
X1145110Y852170D01*
X1145428Y849758D01*
X1146359Y847510D01*
X1147840Y845580D01*
X1149770Y844099D01*
X1152018Y843168D01*
X1154430Y842850D01*
X1156842Y843168D01*
X1159090Y844099D01*
X1161020Y845580D01*
X1162501Y847510D01*
X1163432Y849758D01*
X1163750Y852170D01*
X1163432Y854582D01*
X1162501Y856830D01*
X1161020Y858760D01*
X1159090Y860241D01*
X1156842Y861172D01*
X1154430Y861490D01*
D02*
G37*
G36*
X645160Y836770D02*
X643799Y836590D01*
X641347Y835575D01*
X639241Y833959D01*
X637625Y831853D01*
X636609Y829401D01*
X636430Y828040D01*
X645160D01*
Y836770D01*
D02*
G37*
G36*
X647700D02*
Y828040D01*
X656430D01*
X656251Y829401D01*
X655235Y831853D01*
X653619Y833959D01*
X651514Y835575D01*
X649061Y836590D01*
X647700Y836770D01*
D02*
G37*
G36*
X1019810Y911860D02*
X966470Y911860D01*
X956310Y901700D01*
Y845820D01*
X969010Y833120D01*
X981710D01*
X982980Y831850D01*
X1023620D01*
X1038860Y847090D01*
X1038860Y892810D01*
X1019810Y911860D01*
D02*
G37*
G36*
X1202690Y1022850D02*
X1200589Y1022573D01*
X1198630Y1021762D01*
X1196949Y1020471D01*
X1195658Y1018790D01*
X1194847Y1016832D01*
X1194570Y1014730D01*
X1194847Y1012628D01*
X1195658Y1010670D01*
X1196949Y1008989D01*
X1198630Y1007698D01*
X1200589Y1006887D01*
X1201207Y1006806D01*
Y939670D01*
X1192660Y931123D01*
X1188691D01*
X1187901Y933030D01*
X1186420Y934960D01*
X1184490Y936441D01*
X1182242Y937372D01*
X1179830Y937690D01*
X1177418Y937372D01*
X1175170Y936441D01*
X1173240Y934960D01*
X1171759Y933030D01*
X1170828Y930782D01*
X1170510Y928370D01*
X1170828Y925958D01*
X1171759Y923710D01*
X1173240Y921780D01*
X1175170Y920299D01*
X1177418Y919368D01*
X1179830Y919050D01*
X1182242Y919368D01*
X1184490Y920299D01*
X1186420Y921780D01*
X1187901Y923710D01*
X1188691Y925617D01*
X1193800D01*
X1194854Y925827D01*
X1195747Y926423D01*
X1205907Y936583D01*
X1205907Y936583D01*
X1206503Y937477D01*
X1206713Y938530D01*
Y1007683D01*
X1206750Y1007698D01*
X1208431Y1008989D01*
X1209722Y1010670D01*
X1210533Y1012628D01*
X1210809Y1014730D01*
X1210533Y1016832D01*
X1209722Y1018790D01*
X1208431Y1020471D01*
X1206750Y1021762D01*
X1204791Y1022573D01*
X1202690Y1022850D01*
D02*
G37*
G36*
X1046480Y1050789D02*
X1044379Y1050513D01*
X1042420Y1049702D01*
X1040739Y1048411D01*
X1039448Y1046730D01*
X1038637Y1044771D01*
X1038361Y1042670D01*
X1038637Y1040568D01*
X1039448Y1038610D01*
X1040739Y1036929D01*
X1042420Y1035638D01*
X1043727Y1035097D01*
Y1033780D01*
X1043937Y1032727D01*
X1044533Y1031833D01*
X1047537Y1028830D01*
Y947373D01*
X1046230Y946832D01*
X1044549Y945541D01*
X1043258Y943860D01*
X1042447Y941901D01*
X1042170Y939800D01*
X1042447Y937699D01*
X1043258Y935740D01*
X1044549Y934059D01*
X1046230Y932768D01*
X1048188Y931957D01*
X1050290Y931681D01*
X1052392Y931957D01*
X1054350Y932768D01*
X1056031Y934059D01*
X1057322Y935740D01*
X1058133Y937699D01*
X1058410Y939800D01*
X1058133Y941901D01*
X1057322Y943860D01*
X1056031Y945541D01*
X1054350Y946832D01*
X1053043Y947373D01*
Y1029970D01*
X1052833Y1031023D01*
X1052237Y1031917D01*
X1050080Y1034073D01*
X1050378Y1035571D01*
X1050540Y1035638D01*
X1052221Y1036929D01*
X1053512Y1038610D01*
X1054323Y1040568D01*
X1054600Y1042670D01*
X1054323Y1044771D01*
X1053512Y1046730D01*
X1052221Y1048411D01*
X1050540Y1049702D01*
X1048581Y1050513D01*
X1046480Y1050789D01*
D02*
G37*
G36*
X1154430Y963090D02*
X1152018Y962772D01*
X1149770Y961841D01*
X1147840Y960360D01*
X1146359Y958430D01*
X1145428Y956182D01*
X1145110Y953770D01*
X1145428Y951358D01*
X1146359Y949110D01*
X1147840Y947180D01*
X1149770Y945699D01*
X1152018Y944768D01*
X1154430Y944450D01*
X1156842Y944768D01*
X1159090Y945699D01*
X1161020Y947180D01*
X1162501Y949110D01*
X1163432Y951358D01*
X1163750Y953770D01*
X1163432Y956182D01*
X1162501Y958430D01*
X1161020Y960360D01*
X1159090Y961841D01*
X1156842Y962772D01*
X1154430Y963090D01*
D02*
G37*
G36*
Y937690D02*
X1152018Y937372D01*
X1149770Y936441D01*
X1147840Y934960D01*
X1146359Y933030D01*
X1145428Y930782D01*
X1145110Y928370D01*
X1145428Y925958D01*
X1146359Y923710D01*
X1147840Y921780D01*
X1149770Y920299D01*
X1152018Y919368D01*
X1154430Y919050D01*
X1156842Y919368D01*
X1159090Y920299D01*
X1161020Y921780D01*
X1162501Y923710D01*
X1163432Y925958D01*
X1163750Y928370D01*
X1163432Y930782D01*
X1162501Y933030D01*
X1161020Y934960D01*
X1159090Y936441D01*
X1156842Y937372D01*
X1154430Y937690D01*
D02*
G37*
G36*
X1037590Y1335269D02*
X1035489Y1334993D01*
X1033530Y1334182D01*
X1031849Y1332891D01*
X1030558Y1331210D01*
X1029747Y1329252D01*
X1029471Y1327150D01*
X1029747Y1325049D01*
X1030558Y1323090D01*
X1031849Y1321409D01*
X1033530Y1320118D01*
X1033818Y1319999D01*
Y1148080D01*
X1033818Y1148080D01*
X1033980Y1147265D01*
X914272Y1027558D01*
X913455Y1026334D01*
X913167Y1024890D01*
X913167Y1024890D01*
Y948983D01*
X856957Y892773D01*
X851701D01*
X851582Y893060D01*
X850291Y894741D01*
X848610Y896032D01*
X846652Y896843D01*
X844550Y897120D01*
X842449Y896843D01*
X840490Y896032D01*
X838809Y894741D01*
X837518Y893060D01*
X836707Y891102D01*
X836431Y889000D01*
X836707Y886898D01*
X837518Y884940D01*
X838809Y883259D01*
X840490Y881968D01*
X842449Y881157D01*
X844550Y880881D01*
X846652Y881157D01*
X848610Y881968D01*
X850291Y883259D01*
X851582Y884940D01*
X851701Y885228D01*
X858520D01*
X858520Y885228D01*
X859964Y885515D01*
X861188Y886332D01*
X919607Y944752D01*
X919608Y944752D01*
X920425Y945976D01*
X920713Y947420D01*
Y1023327D01*
X1041528Y1144142D01*
X1042345Y1145366D01*
X1042633Y1146810D01*
X1042345Y1148254D01*
X1041528Y1149478D01*
X1041527Y1149478D01*
X1041363Y1149643D01*
Y1319999D01*
X1041650Y1320118D01*
X1043331Y1321409D01*
X1044622Y1323090D01*
X1045433Y1325049D01*
X1045710Y1327150D01*
X1045433Y1329252D01*
X1044622Y1331210D01*
X1043331Y1332891D01*
X1041650Y1334182D01*
X1039691Y1334993D01*
X1037590Y1335269D01*
D02*
G37*
G36*
X1154430Y912290D02*
X1152018Y911972D01*
X1149770Y911041D01*
X1147840Y909560D01*
X1146359Y907630D01*
X1145428Y905382D01*
X1145110Y902970D01*
X1145428Y900558D01*
X1146359Y898310D01*
X1147840Y896380D01*
X1149770Y894899D01*
X1152018Y893968D01*
X1154430Y893650D01*
X1156842Y893968D01*
X1159090Y894899D01*
X1161020Y896380D01*
X1162501Y898310D01*
X1163432Y900558D01*
X1163750Y902970D01*
X1163432Y905382D01*
X1162501Y907630D01*
X1161020Y909560D01*
X1159090Y911041D01*
X1156842Y911972D01*
X1154430Y912290D01*
D02*
G37*
G36*
X1179830D02*
X1177418Y911972D01*
X1175170Y911041D01*
X1173240Y909560D01*
X1171759Y907630D01*
X1170828Y905382D01*
X1170510Y902970D01*
X1170828Y900558D01*
X1171759Y898310D01*
X1173240Y896380D01*
X1175170Y894899D01*
X1177418Y893968D01*
X1179830Y893650D01*
X1182242Y893968D01*
X1184490Y894899D01*
X1186420Y896380D01*
X1187901Y898310D01*
X1188832Y900558D01*
X1189150Y902970D01*
X1188832Y905382D01*
X1187901Y907630D01*
X1186420Y909560D01*
X1184490Y911041D01*
X1182242Y911972D01*
X1179830Y912290D01*
D02*
G37*
G36*
Y836090D02*
X1177418Y835772D01*
X1175170Y834841D01*
X1173240Y833360D01*
X1171759Y831430D01*
X1170828Y829182D01*
X1170510Y826770D01*
X1170828Y824358D01*
X1171759Y822110D01*
X1173240Y820180D01*
X1175170Y818699D01*
X1177418Y817768D01*
X1179830Y817450D01*
X1182242Y817768D01*
X1184490Y818699D01*
X1186420Y820180D01*
X1187901Y822110D01*
X1188832Y824358D01*
X1189150Y826770D01*
X1188832Y829182D01*
X1187901Y831430D01*
X1186420Y833360D01*
X1184490Y834841D01*
X1182242Y835772D01*
X1179830Y836090D01*
D02*
G37*
G36*
X646430Y785290D02*
X644018Y784972D01*
X641770Y784041D01*
X639840Y782560D01*
X638359Y780630D01*
X637428Y778382D01*
X637110Y775970D01*
X637428Y773558D01*
X638359Y771310D01*
X639840Y769380D01*
X641770Y767899D01*
X644018Y766968D01*
X646430Y766650D01*
X648842Y766968D01*
X651090Y767899D01*
X653020Y769380D01*
X654501Y771310D01*
X655432Y773558D01*
X655750Y775970D01*
X655432Y778382D01*
X654501Y780630D01*
X653020Y782560D01*
X651090Y784041D01*
X648842Y784972D01*
X646430Y785290D01*
D02*
G37*
G36*
X671830D02*
X669418Y784972D01*
X667170Y784041D01*
X665240Y782560D01*
X663759Y780630D01*
X662828Y778382D01*
X662510Y775970D01*
X662828Y773558D01*
X663759Y771310D01*
X665240Y769380D01*
X667170Y767899D01*
X669418Y766968D01*
X671830Y766650D01*
X674242Y766968D01*
X676490Y767899D01*
X678420Y769380D01*
X679901Y771310D01*
X680832Y773558D01*
X681150Y775970D01*
X680832Y778382D01*
X679901Y780630D01*
X678420Y782560D01*
X676490Y784041D01*
X674242Y784972D01*
X671830Y785290D01*
D02*
G37*
G36*
X633639Y787400D02*
X626110D01*
Y779871D01*
X627161Y780009D01*
X629323Y780905D01*
X631180Y782330D01*
X632605Y784187D01*
X633501Y786349D01*
X633639Y787400D01*
D02*
G37*
G36*
X843280Y765040D02*
X841179Y764763D01*
X839220Y763952D01*
X837539Y762661D01*
X836248Y760980D01*
X835437Y759022D01*
X835161Y756920D01*
X835437Y754818D01*
X835556Y754531D01*
X752982Y671958D01*
X752165Y670734D01*
X751878Y669290D01*
X751878Y669290D01*
Y640881D01*
X751590Y640762D01*
X749909Y639471D01*
X748618Y637790D01*
X747807Y635831D01*
X747531Y633730D01*
X747807Y631628D01*
X748618Y629670D01*
X749909Y627989D01*
X751590Y626698D01*
X753549Y625887D01*
X755650Y625611D01*
X757751Y625887D01*
X759710Y626698D01*
X761391Y627989D01*
X762682Y629670D01*
X763493Y631628D01*
X763770Y633730D01*
X763493Y635831D01*
X762682Y637790D01*
X761391Y639471D01*
X759710Y640762D01*
X759423Y640881D01*
Y667727D01*
X840891Y749196D01*
X841179Y749077D01*
X843280Y748801D01*
X845381Y749077D01*
X847340Y749888D01*
X849021Y751179D01*
X850312Y752860D01*
X851123Y754818D01*
X851400Y756920D01*
X851123Y759022D01*
X850312Y760980D01*
X849021Y762661D01*
X847340Y763952D01*
X845381Y764763D01*
X843280Y765040D01*
D02*
G37*
G36*
X671830Y759890D02*
X669418Y759572D01*
X667170Y758641D01*
X665240Y757160D01*
X663759Y755230D01*
X662828Y752982D01*
X662510Y750570D01*
X662828Y748158D01*
X663759Y745910D01*
X665240Y743980D01*
X667170Y742499D01*
X669418Y741568D01*
X671830Y741250D01*
X674242Y741568D01*
X676490Y742499D01*
X678420Y743980D01*
X679901Y745910D01*
X680832Y748158D01*
X681150Y750570D01*
X680832Y752982D01*
X679901Y755230D01*
X678420Y757160D01*
X676490Y758641D01*
X674242Y759572D01*
X671830Y759890D01*
D02*
G37*
G36*
X1154430D02*
X1152018Y759572D01*
X1149770Y758641D01*
X1147840Y757160D01*
X1146359Y755230D01*
X1145428Y752982D01*
X1145110Y750570D01*
X1145428Y748158D01*
X1146359Y745910D01*
X1147840Y743980D01*
X1149770Y742499D01*
X1152018Y741568D01*
X1154430Y741250D01*
X1156842Y741568D01*
X1159090Y742499D01*
X1161020Y743980D01*
X1162501Y745910D01*
X1163432Y748158D01*
X1163750Y750570D01*
X1163432Y752982D01*
X1162501Y755230D01*
X1161020Y757160D01*
X1159090Y758641D01*
X1156842Y759572D01*
X1154430Y759890D01*
D02*
G37*
G36*
X1179830D02*
X1177418Y759572D01*
X1175170Y758641D01*
X1173240Y757160D01*
X1171759Y755230D01*
X1170828Y752982D01*
X1170510Y750570D01*
X1170828Y748158D01*
X1171759Y745910D01*
X1173240Y743980D01*
X1175170Y742499D01*
X1177418Y741568D01*
X1179830Y741250D01*
X1182242Y741568D01*
X1184490Y742499D01*
X1186420Y743980D01*
X1187901Y745910D01*
X1188832Y748158D01*
X1189150Y750570D01*
X1188832Y752982D01*
X1187901Y755230D01*
X1186420Y757160D01*
X1184490Y758641D01*
X1182242Y759572D01*
X1179830Y759890D01*
D02*
G37*
G36*
X656430Y825500D02*
X647700D01*
Y816770D01*
X649061Y816949D01*
X651514Y817965D01*
X653619Y819581D01*
X655235Y821686D01*
X656251Y824139D01*
X656430Y825500D01*
D02*
G37*
G36*
X671830Y836090D02*
X669418Y835772D01*
X667170Y834841D01*
X665240Y833360D01*
X663759Y831430D01*
X662828Y829182D01*
X662510Y826770D01*
X662828Y824358D01*
X663759Y822110D01*
X665240Y820180D01*
X667170Y818699D01*
X669418Y817768D01*
X671830Y817450D01*
X674242Y817768D01*
X676490Y818699D01*
X678420Y820180D01*
X679901Y822110D01*
X680832Y824358D01*
X681150Y826770D01*
X680832Y829182D01*
X679901Y831430D01*
X678420Y833360D01*
X676490Y834841D01*
X674242Y835772D01*
X671830Y836090D01*
D02*
G37*
G36*
X1154430D02*
X1152018Y835772D01*
X1149770Y834841D01*
X1147840Y833360D01*
X1146359Y831430D01*
X1145428Y829182D01*
X1145110Y826770D01*
X1145428Y824358D01*
X1146359Y822110D01*
X1147840Y820180D01*
X1149770Y818699D01*
X1152018Y817768D01*
X1154430Y817450D01*
X1156842Y817768D01*
X1159090Y818699D01*
X1161020Y820180D01*
X1162501Y822110D01*
X1163432Y824358D01*
X1163750Y826770D01*
X1163432Y829182D01*
X1162501Y831430D01*
X1161020Y833360D01*
X1159090Y834841D01*
X1156842Y835772D01*
X1154430Y836090D01*
D02*
G37*
G36*
X645160Y825500D02*
X636430D01*
X636609Y824139D01*
X637625Y821686D01*
X639241Y819581D01*
X641347Y817965D01*
X643799Y816949D01*
X645160Y816770D01*
Y825500D01*
D02*
G37*
G36*
X1126490Y861560D02*
X1124389Y861283D01*
X1122430Y860472D01*
X1120749Y859181D01*
X1119458Y857500D01*
X1118647Y855542D01*
X1118371Y853440D01*
X1118647Y851339D01*
X1119458Y849380D01*
X1120749Y847699D01*
X1122430Y846408D01*
X1122467Y846393D01*
Y797513D01*
X1121160Y796972D01*
X1119479Y795681D01*
X1118188Y794000D01*
X1117377Y792041D01*
X1117101Y789940D01*
X1117377Y787839D01*
X1118188Y785880D01*
X1119479Y784199D01*
X1121160Y782908D01*
X1123119Y782097D01*
X1125220Y781821D01*
X1127321Y782097D01*
X1129280Y782908D01*
X1130961Y784199D01*
X1132252Y785880D01*
X1133063Y787839D01*
X1133339Y789940D01*
X1133063Y792041D01*
X1132252Y794000D01*
X1130961Y795681D01*
X1129280Y796972D01*
X1127973Y797513D01*
Y845516D01*
X1128592Y845597D01*
X1130550Y846408D01*
X1132231Y847699D01*
X1133522Y849380D01*
X1134333Y851339D01*
X1134610Y853440D01*
X1134333Y855542D01*
X1133522Y857500D01*
X1132231Y859181D01*
X1130550Y860472D01*
X1128592Y861283D01*
X1126490Y861560D01*
D02*
G37*
G36*
X671830Y810690D02*
X669418Y810372D01*
X667170Y809441D01*
X665240Y807960D01*
X663759Y806030D01*
X662828Y803782D01*
X662510Y801370D01*
X662828Y798958D01*
X663759Y796710D01*
X665240Y794780D01*
X667170Y793299D01*
X669418Y792368D01*
X671830Y792050D01*
X674242Y792368D01*
X676490Y793299D01*
X678420Y794780D01*
X679901Y796710D01*
X680832Y798958D01*
X681150Y801370D01*
X680832Y803782D01*
X679901Y806030D01*
X678420Y807960D01*
X676490Y809441D01*
X674242Y810372D01*
X671830Y810690D01*
D02*
G37*
G36*
X1154430D02*
X1152018Y810372D01*
X1149770Y809441D01*
X1147840Y807960D01*
X1146359Y806030D01*
X1145428Y803782D01*
X1145110Y801370D01*
X1145428Y798958D01*
X1146359Y796710D01*
X1147840Y794780D01*
X1149770Y793299D01*
X1152018Y792368D01*
X1154430Y792050D01*
X1156842Y792368D01*
X1159090Y793299D01*
X1161020Y794780D01*
X1162501Y796710D01*
X1163432Y798958D01*
X1163750Y801370D01*
X1163432Y803782D01*
X1162501Y806030D01*
X1161020Y807960D01*
X1159090Y809441D01*
X1156842Y810372D01*
X1154430Y810690D01*
D02*
G37*
G36*
X646430Y556690D02*
X644018Y556372D01*
X641770Y555441D01*
X639840Y553960D01*
X638359Y552030D01*
X637428Y549782D01*
X637110Y547370D01*
X637428Y544958D01*
X638359Y542710D01*
X639840Y540780D01*
X641770Y539299D01*
X644018Y538368D01*
X646430Y538050D01*
X648842Y538368D01*
X651090Y539299D01*
X653020Y540780D01*
X654501Y542710D01*
X655432Y544958D01*
X655750Y547370D01*
X655432Y549782D01*
X654501Y552030D01*
X653020Y553960D01*
X651090Y555441D01*
X648842Y556372D01*
X646430Y556690D01*
D02*
G37*
G36*
X768450Y323380D02*
X765487Y322990D01*
X762725Y321846D01*
X760354Y320026D01*
X758534Y317655D01*
X757390Y314893D01*
X757000Y311930D01*
X757390Y308967D01*
X758534Y306205D01*
X760354Y303834D01*
X762725Y302014D01*
X765487Y300870D01*
X768450Y300480D01*
X771413Y300870D01*
X774175Y302014D01*
X776546Y303834D01*
X778366Y306205D01*
X779510Y308967D01*
X779900Y311930D01*
X779510Y314893D01*
X778366Y317655D01*
X776546Y320026D01*
X774175Y321846D01*
X771413Y322990D01*
X768450Y323380D01*
D02*
G37*
G36*
X793850D02*
X790887Y322990D01*
X788125Y321846D01*
X785754Y320026D01*
X783934Y317655D01*
X782790Y314893D01*
X782400Y311930D01*
X782790Y308967D01*
X783934Y306205D01*
X785754Y303834D01*
X788125Y302014D01*
X790887Y300870D01*
X793850Y300480D01*
X796814Y300870D01*
X799575Y302014D01*
X801946Y303834D01*
X803766Y306205D01*
X804910Y308967D01*
X805300Y311930D01*
X804910Y314893D01*
X803766Y317655D01*
X801946Y320026D01*
X799575Y321846D01*
X796814Y322990D01*
X793850Y323380D01*
D02*
G37*
G36*
X819250D02*
X816286Y322990D01*
X813525Y321846D01*
X811154Y320026D01*
X809334Y317655D01*
X808190Y314893D01*
X807800Y311930D01*
X808190Y308967D01*
X809334Y306205D01*
X811154Y303834D01*
X813525Y302014D01*
X816286Y300870D01*
X819250Y300480D01*
X822214Y300870D01*
X824975Y302014D01*
X827346Y303834D01*
X829166Y306205D01*
X830310Y308967D01*
X830700Y311930D01*
X830310Y314893D01*
X829166Y317655D01*
X827346Y320026D01*
X824975Y321846D01*
X822214Y322990D01*
X819250Y323380D01*
D02*
G37*
G36*
X743050D02*
X740087Y322990D01*
X737325Y321846D01*
X734954Y320026D01*
X733134Y317655D01*
X731990Y314893D01*
X731600Y311930D01*
X731990Y308967D01*
X733134Y306205D01*
X734954Y303834D01*
X737325Y302014D01*
X740087Y300870D01*
X743050Y300480D01*
X746013Y300870D01*
X748775Y302014D01*
X751146Y303834D01*
X752966Y306205D01*
X754110Y308967D01*
X754500Y311930D01*
X754110Y314893D01*
X752966Y317655D01*
X751146Y320026D01*
X748775Y321846D01*
X746013Y322990D01*
X743050Y323380D01*
D02*
G37*
G36*
X1047850Y75680D02*
X1044886Y75290D01*
X1042125Y74146D01*
X1039754Y72326D01*
X1037934Y69955D01*
X1036790Y67193D01*
X1036400Y64230D01*
X1036790Y61266D01*
X1037934Y58505D01*
X1039754Y56134D01*
X1042125Y54314D01*
X1044886Y53170D01*
X1047850Y52780D01*
X1050814Y53170D01*
X1053575Y54314D01*
X1055946Y56134D01*
X1057766Y58505D01*
X1058910Y61266D01*
X1059300Y64230D01*
X1058910Y67193D01*
X1057766Y69955D01*
X1055946Y72326D01*
X1053575Y74146D01*
X1050814Y75290D01*
X1047850Y75680D01*
D02*
G37*
G36*
X1071980Y76360D02*
X1070067Y76108D01*
X1067101Y74880D01*
X1064555Y72925D01*
X1062600Y70379D01*
X1061372Y67413D01*
X1061120Y65500D01*
X1071980D01*
Y76360D01*
D02*
G37*
G36*
X1074520Y76360D02*
Y65500D01*
X1085380D01*
X1085128Y67413D01*
X1083900Y70379D01*
X1081945Y72925D01*
X1079399Y74880D01*
X1076433Y76108D01*
X1074520Y76360D01*
D02*
G37*
G36*
X1099820Y669790D02*
X1097719Y669513D01*
X1095760Y668702D01*
X1094079Y667411D01*
X1092788Y665730D01*
X1091977Y663772D01*
X1091701Y661670D01*
X1091977Y659568D01*
X1092788Y657610D01*
X1094079Y655929D01*
X1095760Y654638D01*
X1097067Y654097D01*
Y563750D01*
X1036913Y503597D01*
X1036317Y502704D01*
X1036107Y501650D01*
Y425320D01*
X944303Y333517D01*
X943707Y332623D01*
X943497Y331570D01*
Y323018D01*
X943287Y322990D01*
X940525Y321846D01*
X938154Y320026D01*
X936334Y317655D01*
X935190Y314893D01*
X934800Y311930D01*
X935190Y308967D01*
X936334Y306205D01*
X938154Y303834D01*
X940525Y302014D01*
X943287Y300870D01*
X946250Y300480D01*
X949213Y300870D01*
X951975Y302014D01*
X954346Y303834D01*
X956166Y306205D01*
X957310Y308967D01*
X957700Y311930D01*
X957310Y314893D01*
X956166Y317655D01*
X954346Y320026D01*
X951975Y321846D01*
X949213Y322990D01*
X949003Y323018D01*
Y330430D01*
X1040807Y422233D01*
X1040807Y422233D01*
X1041403Y423126D01*
X1041613Y424180D01*
X1041613Y424180D01*
Y500510D01*
X1101767Y560663D01*
X1101767Y560663D01*
X1102363Y561557D01*
X1102573Y562610D01*
X1102573Y562610D01*
Y654097D01*
X1103880Y654638D01*
X1105561Y655929D01*
X1106852Y657610D01*
X1107663Y659568D01*
X1107940Y661670D01*
X1107663Y663772D01*
X1106852Y665730D01*
X1105561Y667411D01*
X1103880Y668702D01*
X1101921Y669513D01*
X1099820Y669790D01*
D02*
G37*
G36*
X997050Y323380D02*
X994087Y322990D01*
X991325Y321846D01*
X988954Y320026D01*
X987134Y317655D01*
X985990Y314893D01*
X985600Y311930D01*
X985990Y308967D01*
X987134Y306205D01*
X988954Y303834D01*
X991325Y302014D01*
X994087Y300870D01*
X997050Y300480D01*
X1000014Y300870D01*
X1002775Y302014D01*
X1005146Y303834D01*
X1006966Y306205D01*
X1008110Y308967D01*
X1008500Y311930D01*
X1008110Y314893D01*
X1006966Y317655D01*
X1005146Y320026D01*
X1002775Y321846D01*
X1000014Y322990D01*
X997050Y323380D01*
D02*
G37*
G36*
X1022450D02*
X1019486Y322990D01*
X1016725Y321846D01*
X1014354Y320026D01*
X1012534Y317655D01*
X1011390Y314893D01*
X1011000Y311930D01*
X1011390Y308967D01*
X1012534Y306205D01*
X1014354Y303834D01*
X1016725Y302014D01*
X1019486Y300870D01*
X1022450Y300480D01*
X1025414Y300870D01*
X1028175Y302014D01*
X1030546Y303834D01*
X1032366Y306205D01*
X1033510Y308967D01*
X1033900Y311930D01*
X1033510Y314893D01*
X1032366Y317655D01*
X1030546Y320026D01*
X1028175Y321846D01*
X1025414Y322990D01*
X1022450Y323380D01*
D02*
G37*
G36*
X920850D02*
X917887Y322990D01*
X915125Y321846D01*
X912754Y320026D01*
X910934Y317655D01*
X909790Y314893D01*
X909400Y311930D01*
X909790Y308967D01*
X910934Y306205D01*
X912754Y303834D01*
X915125Y302014D01*
X917887Y300870D01*
X920850Y300480D01*
X923813Y300870D01*
X926575Y302014D01*
X928946Y303834D01*
X930766Y306205D01*
X931910Y308967D01*
X932300Y311930D01*
X931910Y314893D01*
X930766Y317655D01*
X928946Y320026D01*
X926575Y321846D01*
X923813Y322990D01*
X920850Y323380D01*
D02*
G37*
G36*
X844650D02*
X841686Y322990D01*
X838925Y321846D01*
X836554Y320026D01*
X834734Y317655D01*
X833590Y314893D01*
X833200Y311930D01*
X833590Y308967D01*
X834734Y306205D01*
X836554Y303834D01*
X838925Y302014D01*
X841686Y300870D01*
X844650Y300480D01*
X847614Y300870D01*
X850375Y302014D01*
X852746Y303834D01*
X854566Y306205D01*
X855710Y308967D01*
X856100Y311930D01*
X855710Y314893D01*
X854566Y317655D01*
X852746Y320026D01*
X850375Y321846D01*
X847614Y322990D01*
X844650Y323380D01*
D02*
G37*
G36*
X870050D02*
X867086Y322990D01*
X864325Y321846D01*
X861954Y320026D01*
X860134Y317655D01*
X858990Y314893D01*
X858600Y311930D01*
X858990Y308967D01*
X860134Y306205D01*
X861954Y303834D01*
X864325Y302014D01*
X867086Y300870D01*
X870050Y300480D01*
X873014Y300870D01*
X875775Y302014D01*
X878146Y303834D01*
X879966Y306205D01*
X881110Y308967D01*
X881500Y311930D01*
X881110Y314893D01*
X879966Y317655D01*
X878146Y320026D01*
X875775Y321846D01*
X873014Y322990D01*
X870050Y323380D01*
D02*
G37*
G36*
X895450D02*
X892486Y322990D01*
X889725Y321846D01*
X887354Y320026D01*
X885534Y317655D01*
X884390Y314893D01*
X884000Y311930D01*
X884390Y308967D01*
X885534Y306205D01*
X887354Y303834D01*
X889725Y302014D01*
X892486Y300870D01*
X895450Y300480D01*
X898413Y300870D01*
X901175Y302014D01*
X903546Y303834D01*
X905366Y306205D01*
X906510Y308967D01*
X906900Y311930D01*
X906510Y314893D01*
X905366Y317655D01*
X903546Y320026D01*
X901175Y321846D01*
X898413Y322990D01*
X895450Y323380D01*
D02*
G37*
G36*
X793850Y75680D02*
X790887Y75290D01*
X788125Y74146D01*
X785754Y72326D01*
X783934Y69955D01*
X782790Y67193D01*
X782400Y64230D01*
X782790Y61266D01*
X783934Y58505D01*
X785754Y56134D01*
X788125Y54314D01*
X790887Y53170D01*
X793850Y52780D01*
X796814Y53170D01*
X799575Y54314D01*
X801946Y56134D01*
X803766Y58505D01*
X804910Y61266D01*
X805300Y64230D01*
X804910Y67193D01*
X803766Y69955D01*
X801946Y72326D01*
X799575Y74146D01*
X796814Y75290D01*
X793850Y75680D01*
D02*
G37*
G36*
X819250D02*
X816286Y75290D01*
X813525Y74146D01*
X811154Y72326D01*
X809334Y69955D01*
X808190Y67193D01*
X807800Y64230D01*
X808190Y61266D01*
X809334Y58505D01*
X811154Y56134D01*
X813525Y54314D01*
X816286Y53170D01*
X819250Y52780D01*
X822214Y53170D01*
X824975Y54314D01*
X827346Y56134D01*
X829166Y58505D01*
X830310Y61266D01*
X830700Y64230D01*
X830310Y67193D01*
X829166Y69955D01*
X827346Y72326D01*
X824975Y74146D01*
X822214Y75290D01*
X819250Y75680D01*
D02*
G37*
G36*
X844650D02*
X841686Y75290D01*
X838925Y74146D01*
X836554Y72326D01*
X834734Y69955D01*
X833590Y67193D01*
X833200Y64230D01*
X833590Y61266D01*
X834734Y58505D01*
X836554Y56134D01*
X838925Y54314D01*
X841686Y53170D01*
X844650Y52780D01*
X847614Y53170D01*
X850375Y54314D01*
X852746Y56134D01*
X854566Y58505D01*
X855710Y61266D01*
X856100Y64230D01*
X855710Y67193D01*
X854566Y69955D01*
X852746Y72326D01*
X850375Y74146D01*
X847614Y75290D01*
X844650Y75680D01*
D02*
G37*
G36*
X768450D02*
X765487Y75290D01*
X762725Y74146D01*
X760354Y72326D01*
X758534Y69955D01*
X757390Y67193D01*
X757000Y64230D01*
X757390Y61266D01*
X758534Y58505D01*
X760354Y56134D01*
X762725Y54314D01*
X765487Y53170D01*
X768450Y52780D01*
X771413Y53170D01*
X774175Y54314D01*
X776546Y56134D01*
X778366Y58505D01*
X779510Y61266D01*
X779900Y64230D01*
X779510Y67193D01*
X778366Y69955D01*
X776546Y72326D01*
X774175Y74146D01*
X771413Y75290D01*
X768450Y75680D01*
D02*
G37*
G36*
X1085380Y62960D02*
X1074520D01*
Y52100D01*
X1076433Y52352D01*
X1079399Y53580D01*
X1081945Y55535D01*
X1083900Y58081D01*
X1085128Y61047D01*
X1085380Y62960D01*
D02*
G37*
G36*
X1071980D02*
X1061120D01*
X1061372Y61047D01*
X1062600Y58081D01*
X1064555Y55535D01*
X1067101Y53580D01*
X1070067Y52352D01*
X1071980Y52100D01*
Y62960D01*
D02*
G37*
G36*
X743050Y75680D02*
X740087Y75290D01*
X737325Y74146D01*
X734954Y72326D01*
X733134Y69955D01*
X731990Y67193D01*
X731600Y64230D01*
X731990Y61266D01*
X733134Y58505D01*
X734954Y56134D01*
X737325Y54314D01*
X740087Y53170D01*
X743050Y52780D01*
X746013Y53170D01*
X748775Y54314D01*
X751146Y56134D01*
X752966Y58505D01*
X754110Y61266D01*
X754500Y64230D01*
X754110Y67193D01*
X752966Y69955D01*
X751146Y72326D01*
X748775Y74146D01*
X746013Y75290D01*
X743050Y75680D01*
D02*
G37*
G36*
X971650D02*
X968687Y75290D01*
X965925Y74146D01*
X963554Y72326D01*
X961734Y69955D01*
X960590Y67193D01*
X960200Y64230D01*
X960590Y61266D01*
X961734Y58505D01*
X963554Y56134D01*
X965925Y54314D01*
X968687Y53170D01*
X971650Y52780D01*
X974613Y53170D01*
X977375Y54314D01*
X979746Y56134D01*
X981566Y58505D01*
X982710Y61266D01*
X983100Y64230D01*
X982710Y67193D01*
X981566Y69955D01*
X979746Y72326D01*
X977375Y74146D01*
X974613Y75290D01*
X971650Y75680D01*
D02*
G37*
G36*
X997050D02*
X994087Y75290D01*
X991325Y74146D01*
X988954Y72326D01*
X987134Y69955D01*
X985990Y67193D01*
X985600Y64230D01*
X985990Y61266D01*
X987134Y58505D01*
X988954Y56134D01*
X991325Y54314D01*
X994087Y53170D01*
X997050Y52780D01*
X1000014Y53170D01*
X1002775Y54314D01*
X1005146Y56134D01*
X1006966Y58505D01*
X1008110Y61266D01*
X1008500Y64230D01*
X1008110Y67193D01*
X1006966Y69955D01*
X1005146Y72326D01*
X1002775Y74146D01*
X1000014Y75290D01*
X997050Y75680D01*
D02*
G37*
G36*
X1022450D02*
X1019486Y75290D01*
X1016725Y74146D01*
X1014354Y72326D01*
X1012534Y69955D01*
X1011390Y67193D01*
X1011000Y64230D01*
X1011390Y61266D01*
X1012534Y58505D01*
X1014354Y56134D01*
X1016725Y54314D01*
X1019486Y53170D01*
X1022450Y52780D01*
X1025414Y53170D01*
X1028175Y54314D01*
X1030546Y56134D01*
X1032366Y58505D01*
X1033510Y61266D01*
X1033900Y64230D01*
X1033510Y67193D01*
X1032366Y69955D01*
X1030546Y72326D01*
X1028175Y74146D01*
X1025414Y75290D01*
X1022450Y75680D01*
D02*
G37*
G36*
X946250D02*
X943287Y75290D01*
X940525Y74146D01*
X938154Y72326D01*
X936334Y69955D01*
X935190Y67193D01*
X934800Y64230D01*
X935190Y61266D01*
X936334Y58505D01*
X938154Y56134D01*
X940525Y54314D01*
X943287Y53170D01*
X946250Y52780D01*
X949213Y53170D01*
X951975Y54314D01*
X954346Y56134D01*
X956166Y58505D01*
X957310Y61266D01*
X957700Y64230D01*
X957310Y67193D01*
X956166Y69955D01*
X954346Y72326D01*
X951975Y74146D01*
X949213Y75290D01*
X946250Y75680D01*
D02*
G37*
G36*
X870050D02*
X867086Y75290D01*
X864325Y74146D01*
X861954Y72326D01*
X860134Y69955D01*
X858990Y67193D01*
X858600Y64230D01*
X858990Y61266D01*
X860134Y58505D01*
X861954Y56134D01*
X864325Y54314D01*
X867086Y53170D01*
X870050Y52780D01*
X873014Y53170D01*
X875775Y54314D01*
X878146Y56134D01*
X879966Y58505D01*
X881110Y61266D01*
X881500Y64230D01*
X881110Y67193D01*
X879966Y69955D01*
X878146Y72326D01*
X875775Y74146D01*
X873014Y75290D01*
X870050Y75680D01*
D02*
G37*
G36*
X895450D02*
X892486Y75290D01*
X889725Y74146D01*
X887354Y72326D01*
X885534Y69955D01*
X884390Y67193D01*
X884000Y64230D01*
X884390Y61266D01*
X885534Y58505D01*
X887354Y56134D01*
X889725Y54314D01*
X892486Y53170D01*
X895450Y52780D01*
X898413Y53170D01*
X901175Y54314D01*
X903546Y56134D01*
X905366Y58505D01*
X906510Y61266D01*
X906900Y64230D01*
X906510Y67193D01*
X905366Y69955D01*
X903546Y72326D01*
X901175Y74146D01*
X898413Y75290D01*
X895450Y75680D01*
D02*
G37*
G36*
X920850D02*
X917887Y75290D01*
X915125Y74146D01*
X912754Y72326D01*
X910934Y69955D01*
X909790Y67193D01*
X909400Y64230D01*
X909790Y61266D01*
X910934Y58505D01*
X912754Y56134D01*
X915125Y54314D01*
X917887Y53170D01*
X920850Y52780D01*
X923813Y53170D01*
X926575Y54314D01*
X928946Y56134D01*
X930766Y58505D01*
X931910Y61266D01*
X932300Y64230D01*
X931910Y67193D01*
X930766Y69955D01*
X928946Y72326D01*
X926575Y74146D01*
X923813Y75290D01*
X920850Y75680D01*
D02*
G37*
G36*
X1164430Y495300D02*
X1155700D01*
Y486570D01*
X1157061Y486749D01*
X1159513Y487765D01*
X1161619Y489381D01*
X1163235Y491487D01*
X1164250Y493939D01*
X1164430Y495300D01*
D02*
G37*
G36*
X1178560D02*
X1169830D01*
X1170010Y493939D01*
X1171025Y491487D01*
X1172641Y489381D01*
X1174746Y487765D01*
X1177199Y486749D01*
X1178560Y486570D01*
Y495300D01*
D02*
G37*
G36*
X1189830D02*
X1181100D01*
Y486570D01*
X1182461Y486749D01*
X1184913Y487765D01*
X1187019Y489381D01*
X1188635Y491487D01*
X1189650Y493939D01*
X1189830Y495300D01*
D02*
G37*
G36*
X1153160D02*
X1144430D01*
X1144610Y493939D01*
X1145625Y491487D01*
X1147241Y489381D01*
X1149346Y487765D01*
X1151799Y486749D01*
X1153160Y486570D01*
Y495300D01*
D02*
G37*
G36*
X656430D02*
X647700D01*
Y486570D01*
X649061Y486749D01*
X651514Y487765D01*
X653619Y489381D01*
X655235Y491487D01*
X656251Y493939D01*
X656430Y495300D01*
D02*
G37*
G36*
X670560D02*
X661830D01*
X662010Y493939D01*
X663025Y491487D01*
X664641Y489381D01*
X666747Y487765D01*
X669199Y486749D01*
X670560Y486570D01*
Y495300D01*
D02*
G37*
G36*
X681830D02*
X673100D01*
Y486570D01*
X674461Y486749D01*
X676914Y487765D01*
X679019Y489381D01*
X680635Y491487D01*
X681650Y493939D01*
X681830Y495300D01*
D02*
G37*
G36*
X671830Y531290D02*
X669418Y530972D01*
X667170Y530041D01*
X665240Y528560D01*
X663759Y526630D01*
X662828Y524382D01*
X662510Y521970D01*
X662828Y519558D01*
X663759Y517310D01*
X665240Y515380D01*
X667170Y513899D01*
X669418Y512968D01*
X671830Y512650D01*
X674242Y512968D01*
X676490Y513899D01*
X678420Y515380D01*
X679901Y517310D01*
X680832Y519558D01*
X681150Y521970D01*
X680832Y524382D01*
X679901Y526630D01*
X678420Y528560D01*
X676490Y530041D01*
X674242Y530972D01*
X671830Y531290D01*
D02*
G37*
G36*
X1154430D02*
X1152018Y530972D01*
X1149770Y530041D01*
X1147840Y528560D01*
X1146359Y526630D01*
X1145428Y524382D01*
X1145110Y521970D01*
X1145428Y519558D01*
X1146359Y517310D01*
X1147840Y515380D01*
X1149770Y513899D01*
X1152018Y512968D01*
X1154430Y512650D01*
X1156842Y512968D01*
X1159090Y513899D01*
X1161020Y515380D01*
X1162501Y517310D01*
X1163432Y519558D01*
X1163750Y521970D01*
X1163432Y524382D01*
X1162501Y526630D01*
X1161020Y528560D01*
X1159090Y530041D01*
X1156842Y530972D01*
X1154430Y531290D01*
D02*
G37*
G36*
X1179830D02*
X1177418Y530972D01*
X1175170Y530041D01*
X1173240Y528560D01*
X1171759Y526630D01*
X1170828Y524382D01*
X1170510Y521970D01*
X1170828Y519558D01*
X1171618Y517651D01*
X1164720Y510753D01*
X1135380D01*
X1134326Y510543D01*
X1133433Y509947D01*
X1133433Y509947D01*
X1123273Y499787D01*
X1122677Y498894D01*
X1122467Y497840D01*
Y477390D01*
X1079470Y434394D01*
X1079062Y434563D01*
X1076960Y434840D01*
X1074858Y434563D01*
X1072900Y433752D01*
X1071219Y432461D01*
X1069928Y430780D01*
X1069117Y428821D01*
X1068840Y426720D01*
X1069117Y424618D01*
X1069928Y422660D01*
X1071219Y420979D01*
X1072900Y419688D01*
X1074858Y418877D01*
X1076960Y418601D01*
X1079062Y418877D01*
X1081020Y419688D01*
X1082701Y420979D01*
X1083992Y422660D01*
X1084803Y424618D01*
X1085079Y426720D01*
X1084803Y428821D01*
X1083992Y430780D01*
X1083840Y430977D01*
X1127167Y474303D01*
X1127167Y474303D01*
X1127763Y475196D01*
X1127973Y476250D01*
X1127973Y476250D01*
Y496700D01*
X1136520Y505247D01*
X1147205D01*
X1147613Y504044D01*
X1147241Y503759D01*
X1145625Y501654D01*
X1144610Y499201D01*
X1144430Y497840D01*
X1164430D01*
X1164250Y499201D01*
X1163235Y501654D01*
X1161619Y503759D01*
X1161247Y504044D01*
X1161655Y505247D01*
X1165860D01*
X1166914Y505457D01*
X1167807Y506053D01*
X1175511Y513758D01*
X1177418Y512968D01*
X1179830Y512650D01*
X1182242Y512968D01*
X1184490Y513899D01*
X1186420Y515380D01*
X1187901Y517310D01*
X1188832Y519558D01*
X1189150Y521970D01*
X1188832Y524382D01*
X1187901Y526630D01*
X1186420Y528560D01*
X1184490Y530041D01*
X1182242Y530972D01*
X1179830Y531290D01*
D02*
G37*
G36*
X1181100Y506570D02*
Y497840D01*
X1189830D01*
X1189650Y499201D01*
X1188635Y501654D01*
X1187019Y503759D01*
X1184913Y505375D01*
X1182461Y506390D01*
X1181100Y506570D01*
D02*
G37*
G36*
X645160D02*
X643799Y506390D01*
X641347Y505375D01*
X639241Y503759D01*
X637625Y501654D01*
X636609Y499201D01*
X636430Y497840D01*
X645160D01*
Y506570D01*
D02*
G37*
G36*
X647700D02*
Y497840D01*
X656430D01*
X656251Y499201D01*
X655235Y501654D01*
X653619Y503759D01*
X651514Y505375D01*
X649061Y506390D01*
X647700Y506570D01*
D02*
G37*
G36*
X1178560D02*
X1177199Y506390D01*
X1174746Y505375D01*
X1172641Y503759D01*
X1171025Y501654D01*
X1170010Y499201D01*
X1169830Y497840D01*
X1178560D01*
Y506570D01*
D02*
G37*
G36*
X1078230Y379730D02*
X1070701D01*
X1070839Y378679D01*
X1071735Y376517D01*
X1073160Y374660D01*
X1075017Y373235D01*
X1077179Y372339D01*
X1078230Y372201D01*
Y379730D01*
D02*
G37*
G36*
X1088299D02*
X1080770D01*
Y372201D01*
X1081821Y372339D01*
X1083983Y373235D01*
X1085840Y374660D01*
X1087265Y376517D01*
X1088161Y378679D01*
X1088299Y379730D01*
D02*
G37*
G36*
X1078230Y389799D02*
X1077179Y389661D01*
X1075017Y388765D01*
X1073160Y387340D01*
X1071735Y385483D01*
X1070839Y383321D01*
X1070701Y382270D01*
X1078230D01*
Y389799D01*
D02*
G37*
G36*
X1179830Y556690D02*
X1177418Y556372D01*
X1175170Y555441D01*
X1173240Y553960D01*
X1171759Y552030D01*
X1170828Y549782D01*
X1170510Y547370D01*
X1170828Y544958D01*
X1171759Y542710D01*
X1173240Y540780D01*
X1175170Y539299D01*
X1177418Y538368D01*
X1179830Y538050D01*
X1182242Y538368D01*
X1184490Y539299D01*
X1186420Y540780D01*
X1187901Y542710D01*
X1188691Y544617D01*
X1209170D01*
X1216447Y537340D01*
Y410080D01*
X1168530Y362163D01*
X1154383D01*
X1153842Y363470D01*
X1152551Y365151D01*
X1150870Y366442D01*
X1148912Y367253D01*
X1146810Y367529D01*
X1144708Y367253D01*
X1142750Y366442D01*
X1141069Y365151D01*
X1139778Y363470D01*
X1138967Y361511D01*
X1138690Y359410D01*
X1138967Y357309D01*
X1139778Y355350D01*
X1141069Y353669D01*
X1142750Y352378D01*
X1144708Y351567D01*
X1146810Y351291D01*
X1148912Y351567D01*
X1150870Y352378D01*
X1152551Y353669D01*
X1153842Y355350D01*
X1154383Y356657D01*
X1169670D01*
X1170723Y356867D01*
X1171617Y357463D01*
X1221146Y406993D01*
X1221147Y406993D01*
X1221743Y407887D01*
X1221953Y408940D01*
Y538480D01*
X1221953Y538480D01*
X1221743Y539534D01*
X1221147Y540427D01*
X1221146Y540427D01*
X1212257Y549317D01*
X1211364Y549913D01*
X1210310Y550123D01*
X1188691D01*
X1187901Y552030D01*
X1186420Y553960D01*
X1184490Y555441D01*
X1182242Y556372D01*
X1179830Y556690D01*
D02*
G37*
G36*
X1047850Y323380D02*
X1044886Y322990D01*
X1042125Y321846D01*
X1039754Y320026D01*
X1037934Y317655D01*
X1036790Y314893D01*
X1036400Y311930D01*
X1036790Y308967D01*
X1037934Y306205D01*
X1039754Y303834D01*
X1042125Y302014D01*
X1044886Y300870D01*
X1047850Y300480D01*
X1050814Y300870D01*
X1053575Y302014D01*
X1055946Y303834D01*
X1057766Y306205D01*
X1058910Y308967D01*
X1059300Y311930D01*
X1058910Y314893D01*
X1057766Y317655D01*
X1055946Y320026D01*
X1053575Y321846D01*
X1050814Y322990D01*
X1047850Y323380D01*
D02*
G37*
G36*
X1073250D02*
X1070286Y322990D01*
X1067525Y321846D01*
X1065154Y320026D01*
X1063334Y317655D01*
X1062190Y314893D01*
X1061800Y311930D01*
X1062190Y308967D01*
X1063334Y306205D01*
X1065154Y303834D01*
X1067525Y302014D01*
X1070286Y300870D01*
X1073250Y300480D01*
X1076214Y300870D01*
X1078975Y302014D01*
X1081346Y303834D01*
X1083166Y306205D01*
X1084310Y308967D01*
X1084700Y311930D01*
X1084310Y314893D01*
X1083166Y317655D01*
X1081346Y320026D01*
X1078975Y321846D01*
X1076214Y322990D01*
X1073250Y323380D01*
D02*
G37*
G36*
X1098650D02*
X1095686Y322990D01*
X1092925Y321846D01*
X1090554Y320026D01*
X1088734Y317655D01*
X1087590Y314893D01*
X1087200Y311930D01*
X1087590Y308967D01*
X1088734Y306205D01*
X1090554Y303834D01*
X1092925Y302014D01*
X1095686Y300870D01*
X1098650Y300480D01*
X1101613Y300870D01*
X1104375Y302014D01*
X1106746Y303834D01*
X1108566Y306205D01*
X1109710Y308967D01*
X1110100Y311930D01*
X1109710Y314893D01*
X1108566Y317655D01*
X1106746Y320026D01*
X1104375Y321846D01*
X1101613Y322990D01*
X1098650Y323380D01*
D02*
G37*
G36*
X698500Y405039D02*
Y397510D01*
X706030D01*
X705891Y398561D01*
X704995Y400723D01*
X703570Y402580D01*
X701713Y404005D01*
X699551Y404901D01*
X698500Y405039D01*
D02*
G37*
G36*
X1070610Y687570D02*
X1068509Y687293D01*
X1066550Y686482D01*
X1064869Y685191D01*
X1063578Y683510D01*
X1062767Y681552D01*
X1062490Y679450D01*
X1062767Y677348D01*
X1063578Y675390D01*
X1064869Y673709D01*
X1066550Y672418D01*
X1067857Y671877D01*
Y559940D01*
X966068Y458152D01*
X964762Y458693D01*
X962660Y458969D01*
X960558Y458693D01*
X958600Y457882D01*
X956919Y456591D01*
X955628Y454910D01*
X954817Y452952D01*
X954540Y450850D01*
X954817Y448749D01*
X955628Y446790D01*
X956919Y445109D01*
X958600Y443818D01*
X960558Y443007D01*
X962660Y442730D01*
X964762Y443007D01*
X966720Y443818D01*
X968401Y445109D01*
X969692Y446790D01*
X970503Y448749D01*
X970779Y450850D01*
X970503Y452952D01*
X969961Y454258D01*
X1072557Y556853D01*
X1072557Y556853D01*
X1073153Y557747D01*
X1073363Y558800D01*
X1073363Y558800D01*
Y671877D01*
X1074670Y672418D01*
X1076351Y673709D01*
X1077642Y675390D01*
X1078453Y677348D01*
X1078729Y679450D01*
X1078453Y681552D01*
X1077642Y683510D01*
X1076351Y685191D01*
X1074670Y686482D01*
X1072711Y687293D01*
X1070610Y687570D01*
D02*
G37*
G36*
X645160Y495300D02*
X636430D01*
X636609Y493939D01*
X637625Y491487D01*
X639241Y489381D01*
X641347Y487765D01*
X643799Y486749D01*
X645160Y486570D01*
Y495300D01*
D02*
G37*
G36*
X695960Y405039D02*
X694909Y404901D01*
X692747Y404005D01*
X690890Y402580D01*
X689465Y400723D01*
X688569Y398561D01*
X688430Y397510D01*
X695960D01*
Y405039D01*
D02*
G37*
G36*
X1080770Y389799D02*
Y382270D01*
X1088299D01*
X1088161Y383321D01*
X1087265Y385483D01*
X1085840Y387340D01*
X1083983Y388765D01*
X1081821Y389661D01*
X1080770Y389799D01*
D02*
G37*
G36*
X695960Y394970D02*
X688430D01*
X688569Y393919D01*
X689465Y391757D01*
X690890Y389900D01*
X692747Y388475D01*
X694909Y387579D01*
X695960Y387440D01*
Y394970D01*
D02*
G37*
G36*
X706030D02*
X698500D01*
Y387440D01*
X699551Y387579D01*
X701713Y388475D01*
X703570Y389900D01*
X704995Y391757D01*
X705891Y393919D01*
X706030Y394970D01*
D02*
G37*
G36*
X1183640Y1627651D02*
X1181240Y1627335D01*
X1179004Y1626409D01*
X1177084Y1624935D01*
X1175610Y1623015D01*
X1175252Y1622151D01*
X1128528D01*
X1128170Y1623015D01*
X1126696Y1624935D01*
X1124776Y1626409D01*
X1122540Y1627335D01*
X1120140Y1627651D01*
X1117740Y1627335D01*
X1115504Y1626409D01*
X1113584Y1624935D01*
X1112110Y1623015D01*
X1111184Y1620779D01*
X1110868Y1618379D01*
X1111184Y1615979D01*
X1112110Y1613743D01*
X1113584Y1611822D01*
X1115504Y1610349D01*
X1117740Y1609422D01*
X1120140Y1609106D01*
X1122540Y1609422D01*
X1124776Y1610349D01*
X1126696Y1611822D01*
X1128170Y1613743D01*
X1128528Y1614606D01*
X1175252D01*
X1175610Y1613743D01*
X1177084Y1611822D01*
X1179004Y1610349D01*
X1181240Y1609422D01*
X1183640Y1609106D01*
X1186040Y1609422D01*
X1188276Y1610349D01*
X1190197Y1611822D01*
X1191670Y1613743D01*
X1192596Y1615979D01*
X1192912Y1618379D01*
X1192596Y1620779D01*
X1191670Y1623015D01*
X1190197Y1624935D01*
X1188276Y1626409D01*
X1186040Y1627335D01*
X1183640Y1627651D01*
D02*
G37*
G36*
Y1652652D02*
X1181240Y1652336D01*
X1179004Y1651410D01*
X1177084Y1649937D01*
X1175610Y1648016D01*
X1175252Y1647153D01*
X1128528D01*
X1128170Y1648016D01*
X1126696Y1649937D01*
X1124776Y1651410D01*
X1122540Y1652336D01*
X1120140Y1652652D01*
X1117740Y1652336D01*
X1115504Y1651410D01*
X1113584Y1649937D01*
X1112110Y1648016D01*
X1111184Y1645780D01*
X1110868Y1643380D01*
X1111184Y1640980D01*
X1112110Y1638744D01*
X1113584Y1636823D01*
X1115504Y1635350D01*
X1117740Y1634424D01*
X1120140Y1634108D01*
X1122540Y1634424D01*
X1124776Y1635350D01*
X1126696Y1636823D01*
X1128170Y1638744D01*
X1128528Y1639608D01*
X1175252D01*
X1175610Y1638744D01*
X1177084Y1636823D01*
X1179004Y1635350D01*
X1181240Y1634424D01*
X1183640Y1634108D01*
X1186040Y1634424D01*
X1188276Y1635350D01*
X1190197Y1636823D01*
X1191670Y1638744D01*
X1192596Y1640980D01*
X1192912Y1643380D01*
X1192596Y1645780D01*
X1191670Y1648016D01*
X1190197Y1649937D01*
X1188276Y1651410D01*
X1186040Y1652336D01*
X1183640Y1652652D01*
D02*
G37*
G36*
X1156970Y1592580D02*
X1149441D01*
X1149579Y1591529D01*
X1150475Y1589367D01*
X1151900Y1587510D01*
X1153757Y1586085D01*
X1155919Y1585189D01*
X1156970Y1585051D01*
Y1592580D01*
D02*
G37*
G36*
X1167039D02*
X1159510D01*
Y1585051D01*
X1160561Y1585189D01*
X1162723Y1586085D01*
X1164580Y1587510D01*
X1166005Y1589367D01*
X1166901Y1591529D01*
X1167039Y1592580D01*
D02*
G37*
G36*
X1182370Y1603330D02*
X1181021Y1603152D01*
X1178580Y1602141D01*
X1176484Y1600533D01*
X1174876Y1598437D01*
X1173865Y1595997D01*
X1173688Y1594648D01*
X1182370D01*
Y1603330D01*
D02*
G37*
G36*
X1193592Y1592108D02*
X1184910D01*
Y1583425D01*
X1186259Y1583603D01*
X1188700Y1584614D01*
X1190796Y1586222D01*
X1192404Y1588318D01*
X1193415Y1590758D01*
X1193592Y1592108D01*
D02*
G37*
G36*
X1118870D02*
X1110188D01*
X1110365Y1590758D01*
X1111376Y1588318D01*
X1112984Y1586222D01*
X1115080Y1584614D01*
X1117521Y1583603D01*
X1118870Y1583425D01*
Y1592108D01*
D02*
G37*
G36*
X1182370D02*
X1173688D01*
X1173865Y1590758D01*
X1174876Y1588318D01*
X1176484Y1586222D01*
X1178580Y1584614D01*
X1181021Y1583603D01*
X1182370Y1583425D01*
Y1592108D01*
D02*
G37*
G36*
X1130092D02*
X1121410D01*
Y1583425D01*
X1122759Y1583603D01*
X1125200Y1584614D01*
X1127296Y1586222D01*
X1128904Y1588318D01*
X1129915Y1590758D01*
X1130092Y1592108D01*
D02*
G37*
G36*
X1159510Y1602650D02*
Y1595120D01*
X1167039D01*
X1166901Y1596171D01*
X1166005Y1598333D01*
X1164580Y1600190D01*
X1162723Y1601615D01*
X1160561Y1602511D01*
X1159510Y1602650D01*
D02*
G37*
G36*
X1156970D02*
X1155919Y1602511D01*
X1153757Y1601615D01*
X1151900Y1600190D01*
X1150475Y1598333D01*
X1149579Y1596171D01*
X1149441Y1595120D01*
X1156970D01*
Y1602650D01*
D02*
G37*
G36*
X1118870Y1603330D02*
X1117521Y1603152D01*
X1115080Y1602141D01*
X1112984Y1600533D01*
X1111376Y1598437D01*
X1110365Y1595997D01*
X1110188Y1594648D01*
X1118870D01*
Y1603330D01*
D02*
G37*
G36*
X1184910D02*
Y1594648D01*
X1193592D01*
X1193415Y1595997D01*
X1192404Y1598437D01*
X1190796Y1600533D01*
X1188700Y1602141D01*
X1186259Y1603152D01*
X1184910Y1603330D01*
D02*
G37*
G36*
X1121410D02*
Y1594648D01*
X1130092D01*
X1129915Y1595997D01*
X1128904Y1598437D01*
X1127296Y1600533D01*
X1125200Y1602141D01*
X1122759Y1603152D01*
X1121410Y1603330D01*
D02*
G37*
G36*
X1179830Y1064690D02*
X1177418Y1064372D01*
X1175170Y1063441D01*
X1173240Y1061960D01*
X1171759Y1060030D01*
X1170828Y1057782D01*
X1170510Y1055370D01*
X1170828Y1052958D01*
X1171759Y1050710D01*
X1173240Y1048780D01*
X1175170Y1047299D01*
X1177418Y1046368D01*
X1179830Y1046050D01*
X1182242Y1046368D01*
X1184490Y1047299D01*
X1186420Y1048780D01*
X1187901Y1050710D01*
X1188832Y1052958D01*
X1189150Y1055370D01*
X1188832Y1057782D01*
X1187901Y1060030D01*
X1186420Y1061960D01*
X1184490Y1063441D01*
X1182242Y1064372D01*
X1179830Y1064690D01*
D02*
G37*
G36*
X645160Y1065370D02*
X643799Y1065191D01*
X641347Y1064175D01*
X639241Y1062559D01*
X637625Y1060453D01*
X636609Y1058001D01*
X636430Y1056640D01*
X645160D01*
Y1065370D01*
D02*
G37*
G36*
X647700D02*
Y1056640D01*
X656430D01*
X656251Y1058001D01*
X655235Y1060453D01*
X653619Y1062559D01*
X651514Y1064175D01*
X649061Y1065191D01*
X647700Y1065370D01*
D02*
G37*
G36*
X656430Y1054100D02*
X647700D01*
Y1045370D01*
X649061Y1045549D01*
X651514Y1046565D01*
X653619Y1048181D01*
X655235Y1050286D01*
X656251Y1052739D01*
X656430Y1054100D01*
D02*
G37*
G36*
X671830Y1064690D02*
X669418Y1064372D01*
X667170Y1063441D01*
X665240Y1061960D01*
X663759Y1060030D01*
X662828Y1057782D01*
X662510Y1055370D01*
X662828Y1052958D01*
X663759Y1050710D01*
X665240Y1048780D01*
X667170Y1047299D01*
X669418Y1046368D01*
X671830Y1046050D01*
X674242Y1046368D01*
X676490Y1047299D01*
X678420Y1048780D01*
X679901Y1050710D01*
X680832Y1052958D01*
X681150Y1055370D01*
X680832Y1057782D01*
X679901Y1060030D01*
X678420Y1061960D01*
X676490Y1063441D01*
X674242Y1064372D01*
X671830Y1064690D01*
D02*
G37*
G36*
X1154430D02*
X1152018Y1064372D01*
X1149770Y1063441D01*
X1147840Y1061960D01*
X1146359Y1060030D01*
X1145428Y1057782D01*
X1145110Y1055370D01*
X1145428Y1052958D01*
X1146359Y1050710D01*
X1147840Y1048780D01*
X1149770Y1047299D01*
X1152018Y1046368D01*
X1154430Y1046050D01*
X1156842Y1046368D01*
X1159090Y1047299D01*
X1161020Y1048780D01*
X1162501Y1050710D01*
X1163432Y1052958D01*
X1163750Y1055370D01*
X1163432Y1057782D01*
X1162501Y1060030D01*
X1161020Y1061960D01*
X1159090Y1063441D01*
X1156842Y1064372D01*
X1154430Y1064690D01*
D02*
G37*
G36*
X789940Y1079999D02*
X787839Y1079723D01*
X785880Y1078912D01*
X784199Y1077621D01*
X782908Y1075940D01*
X782097Y1073981D01*
X781821Y1071880D01*
X782097Y1069779D01*
X782638Y1068472D01*
X780373Y1066207D01*
X779777Y1065313D01*
X779567Y1064260D01*
Y1017223D01*
X778260Y1016682D01*
X776579Y1015391D01*
X775288Y1013710D01*
X774477Y1011751D01*
X774201Y1009650D01*
X774477Y1007549D01*
X775288Y1005590D01*
X776579Y1003909D01*
X778260Y1002618D01*
X780219Y1001807D01*
X782320Y1001531D01*
X784421Y1001807D01*
X786380Y1002618D01*
X788061Y1003909D01*
X789352Y1005590D01*
X790163Y1007549D01*
X790440Y1009650D01*
X790163Y1011751D01*
X789352Y1013710D01*
X788061Y1015391D01*
X786380Y1016682D01*
X785073Y1017223D01*
Y1063120D01*
X786532Y1064578D01*
X787839Y1064037D01*
X789940Y1063761D01*
X792041Y1064037D01*
X794000Y1064848D01*
X795681Y1066139D01*
X796972Y1067820D01*
X797783Y1069779D01*
X798059Y1071880D01*
X797783Y1073981D01*
X796972Y1075940D01*
X795681Y1077621D01*
X794000Y1078912D01*
X792041Y1079723D01*
X789940Y1079999D01*
D02*
G37*
G36*
X762000Y1101590D02*
X759899Y1101313D01*
X757940Y1100502D01*
X756259Y1099211D01*
X754968Y1097530D01*
X754157Y1095572D01*
X753880Y1093470D01*
X754157Y1091368D01*
X754698Y1090062D01*
X752433Y1087797D01*
X751837Y1086904D01*
X751627Y1085850D01*
Y1017223D01*
X750320Y1016682D01*
X748639Y1015391D01*
X747348Y1013710D01*
X746537Y1011751D01*
X746261Y1009650D01*
X746537Y1007549D01*
X747348Y1005590D01*
X748639Y1003909D01*
X750320Y1002618D01*
X752279Y1001807D01*
X754380Y1001531D01*
X756481Y1001807D01*
X758440Y1002618D01*
X760121Y1003909D01*
X761412Y1005590D01*
X762223Y1007549D01*
X762499Y1009650D01*
X762223Y1011751D01*
X761412Y1013710D01*
X760121Y1015391D01*
X758440Y1016682D01*
X757133Y1017223D01*
Y1084710D01*
X758592Y1086169D01*
X759899Y1085627D01*
X762000Y1085350D01*
X764101Y1085627D01*
X766060Y1086438D01*
X767741Y1087729D01*
X769032Y1089410D01*
X769843Y1091368D01*
X770119Y1093470D01*
X769843Y1095572D01*
X769032Y1097530D01*
X767741Y1099211D01*
X766060Y1100502D01*
X764101Y1101313D01*
X762000Y1101590D01*
D02*
G37*
G36*
X739140Y1121909D02*
X737038Y1121633D01*
X735080Y1120822D01*
X733399Y1119531D01*
X732108Y1117850D01*
X731297Y1115891D01*
X731021Y1113790D01*
X731297Y1111689D01*
X731839Y1110382D01*
X710523Y1089067D01*
X709927Y1088174D01*
X709717Y1087120D01*
Y1010873D01*
X708410Y1010332D01*
X706729Y1009041D01*
X705438Y1007360D01*
X704627Y1005402D01*
X704351Y1003300D01*
X704627Y1001199D01*
X705438Y999240D01*
X706729Y997559D01*
X708410Y996268D01*
X710368Y995457D01*
X712470Y995181D01*
X714572Y995457D01*
X716530Y996268D01*
X718211Y997559D01*
X719502Y999240D01*
X720313Y1001199D01*
X720590Y1003300D01*
X720313Y1005402D01*
X719502Y1007360D01*
X718211Y1009041D01*
X716530Y1010332D01*
X715223Y1010873D01*
Y1085980D01*
X735732Y1106488D01*
X737009Y1105959D01*
X737047Y1105862D01*
X737166Y1104650D01*
X736350Y1104312D01*
X734669Y1103021D01*
X733378Y1101340D01*
X732567Y1099381D01*
X732290Y1097280D01*
X732567Y1095179D01*
X733109Y1093872D01*
X729573Y1090337D01*
X728977Y1089444D01*
X728767Y1088390D01*
Y1010873D01*
X727460Y1010332D01*
X725779Y1009041D01*
X724488Y1007360D01*
X723677Y1005402D01*
X723400Y1003300D01*
X723677Y1001199D01*
X724488Y999240D01*
X725779Y997559D01*
X727460Y996268D01*
X729418Y995457D01*
X731520Y995181D01*
X733622Y995457D01*
X735580Y996268D01*
X737261Y997559D01*
X738552Y999240D01*
X739363Y1001199D01*
X739640Y1003300D01*
X739363Y1005402D01*
X738552Y1007360D01*
X737261Y1009041D01*
X735580Y1010332D01*
X734273Y1010873D01*
Y1087250D01*
X737002Y1089978D01*
X738308Y1089437D01*
X740410Y1089161D01*
X742512Y1089437D01*
X744470Y1090248D01*
X746151Y1091539D01*
X747442Y1093220D01*
X748253Y1095179D01*
X748530Y1097280D01*
X748253Y1099381D01*
X747442Y1101340D01*
X746151Y1103021D01*
X744470Y1104312D01*
X742541Y1105111D01*
X742503Y1105208D01*
X742384Y1106421D01*
X743200Y1106758D01*
X744881Y1108049D01*
X746172Y1109730D01*
X746983Y1111689D01*
X747260Y1113790D01*
X746983Y1115891D01*
X746172Y1117850D01*
X744881Y1119531D01*
X743200Y1120822D01*
X741242Y1121633D01*
X739140Y1121909D01*
D02*
G37*
G36*
X645160Y1104900D02*
X636350D01*
Y1096090D01*
X645160D01*
Y1104900D01*
D02*
G37*
G36*
X646430Y1090090D02*
X644018Y1089772D01*
X641770Y1088841D01*
X639840Y1087360D01*
X638359Y1085430D01*
X637428Y1083182D01*
X637110Y1080770D01*
X637428Y1078358D01*
X638359Y1076110D01*
X639840Y1074180D01*
X641770Y1072699D01*
X644018Y1071768D01*
X646430Y1071450D01*
X648842Y1071768D01*
X651090Y1072699D01*
X653020Y1074180D01*
X654501Y1076110D01*
X655432Y1078358D01*
X655750Y1080770D01*
X655432Y1083182D01*
X654501Y1085430D01*
X653020Y1087360D01*
X651090Y1088841D01*
X648842Y1089772D01*
X646430Y1090090D01*
D02*
G37*
G36*
X671830D02*
X669418Y1089772D01*
X667170Y1088841D01*
X665240Y1087360D01*
X663759Y1085430D01*
X662828Y1083182D01*
X662510Y1080770D01*
X662828Y1078358D01*
X663759Y1076110D01*
X665240Y1074180D01*
X667170Y1072699D01*
X669418Y1071768D01*
X671830Y1071450D01*
X674242Y1071768D01*
X676490Y1072699D01*
X678420Y1074180D01*
X679901Y1076110D01*
X680832Y1078358D01*
X681150Y1080770D01*
X680832Y1083182D01*
X679901Y1085430D01*
X678420Y1087360D01*
X676490Y1088841D01*
X674242Y1089772D01*
X671830Y1090090D01*
D02*
G37*
G36*
X1109980Y1251450D02*
X1107878Y1251173D01*
X1105920Y1250362D01*
X1104239Y1249071D01*
X1102948Y1247390D01*
X1102137Y1245432D01*
X1101861Y1243330D01*
X1102137Y1241228D01*
X1102948Y1239270D01*
X1103222Y1238913D01*
Y1103630D01*
X1103453Y1101881D01*
X1104128Y1100251D01*
X1105201Y1098851D01*
X1110583Y1093470D01*
X1083612Y1066498D01*
X1082538Y1065099D01*
X1081862Y1063469D01*
X1081632Y1061720D01*
Y775307D01*
X1081358Y774950D01*
X1080547Y772991D01*
X1080270Y770890D01*
X1080547Y768789D01*
X1081358Y766830D01*
X1082649Y765149D01*
X1084330Y763858D01*
X1086289Y763047D01*
X1088390Y762770D01*
X1090491Y763047D01*
X1092450Y763858D01*
X1094131Y765149D01*
X1095422Y766830D01*
X1096233Y768789D01*
X1096509Y770890D01*
X1096233Y772991D01*
X1095422Y774950D01*
X1095148Y775307D01*
Y921954D01*
X1096418Y922206D01*
X1096598Y921770D01*
X1097889Y920089D01*
X1099570Y918798D01*
X1101528Y917987D01*
X1103630Y917710D01*
X1105732Y917987D01*
X1107690Y918798D01*
X1109371Y920089D01*
X1110662Y921770D01*
X1111473Y923728D01*
X1111749Y925830D01*
X1111473Y927932D01*
X1110662Y929890D01*
X1109371Y931571D01*
X1107690Y932862D01*
X1106383Y933403D01*
Y1022397D01*
X1107690Y1022938D01*
X1109371Y1024229D01*
X1110662Y1025910D01*
X1111473Y1027868D01*
X1111749Y1029970D01*
X1111473Y1032072D01*
X1110662Y1034030D01*
X1109371Y1035711D01*
X1107690Y1037002D01*
X1105732Y1037813D01*
X1103630Y1038090D01*
X1101528Y1037813D01*
X1099570Y1037002D01*
X1097889Y1035711D01*
X1096598Y1034030D01*
X1096418Y1033594D01*
X1095148Y1033847D01*
Y1058921D01*
X1120140Y1083913D01*
X1128062Y1075992D01*
X1129461Y1074918D01*
X1131091Y1074242D01*
X1132840Y1074012D01*
X1148059D01*
X1149770Y1072699D01*
X1152018Y1071768D01*
X1154430Y1071450D01*
X1156842Y1071768D01*
X1159090Y1072699D01*
X1160801Y1074012D01*
X1173459D01*
X1175170Y1072699D01*
X1177418Y1071768D01*
X1179830Y1071450D01*
X1182242Y1071768D01*
X1184490Y1072699D01*
X1186420Y1074180D01*
X1187901Y1076110D01*
X1188832Y1078358D01*
X1189150Y1080770D01*
X1188832Y1083182D01*
X1187901Y1085430D01*
X1186420Y1087360D01*
X1184490Y1088841D01*
X1182242Y1089772D01*
X1179830Y1090090D01*
X1177418Y1089772D01*
X1175170Y1088841D01*
X1173459Y1087528D01*
X1160801D01*
X1159090Y1088841D01*
X1156842Y1089772D01*
X1154430Y1090090D01*
X1152018Y1089772D01*
X1149770Y1088841D01*
X1148059Y1087528D01*
X1135639D01*
X1124919Y1098248D01*
X1124919Y1098249D01*
X1116738Y1106429D01*
Y1238913D01*
X1117012Y1239270D01*
X1117823Y1241228D01*
X1118100Y1243330D01*
X1117823Y1245432D01*
X1117012Y1247390D01*
X1115721Y1249071D01*
X1114040Y1250362D01*
X1112082Y1251173D01*
X1109980Y1251450D01*
D02*
G37*
G36*
X645160Y1054100D02*
X636430D01*
X636609Y1052739D01*
X637625Y1050286D01*
X639241Y1048181D01*
X641347Y1046565D01*
X643799Y1045549D01*
X645160Y1045370D01*
Y1054100D01*
D02*
G37*
G36*
X815340Y993353D02*
X659130D01*
X658076Y993143D01*
X657183Y992547D01*
X651536Y986899D01*
X651090Y987241D01*
X648842Y988172D01*
X646430Y988490D01*
X644018Y988172D01*
X641770Y987241D01*
X639840Y985760D01*
X638359Y983830D01*
X637428Y981582D01*
X637110Y979170D01*
X637428Y976758D01*
X638359Y974510D01*
X639840Y972580D01*
X641770Y971099D01*
X644018Y970168D01*
X646430Y969850D01*
X648842Y970168D01*
X651090Y971099D01*
X653020Y972580D01*
X654501Y974510D01*
X655432Y976758D01*
X655750Y979170D01*
X655432Y981582D01*
X655014Y982591D01*
X660270Y987847D01*
X665874D01*
X666305Y986577D01*
X665240Y985760D01*
X663759Y983830D01*
X662828Y981582D01*
X662510Y979170D01*
X662828Y976758D01*
X663759Y974510D01*
X665240Y972580D01*
X667170Y971099D01*
X668633Y970493D01*
X668381Y969223D01*
X659130D01*
X659130Y969223D01*
X658076Y969013D01*
X657183Y968417D01*
X657183Y968417D01*
X650749Y961982D01*
X648842Y962772D01*
X646430Y963090D01*
X644018Y962772D01*
X641770Y961841D01*
X639840Y960360D01*
X638359Y958430D01*
X637428Y956182D01*
X637110Y953770D01*
X637428Y951358D01*
X638359Y949110D01*
X639840Y947180D01*
X641770Y945699D01*
X644018Y944768D01*
X646430Y944450D01*
X648842Y944768D01*
X651090Y945699D01*
X653020Y947180D01*
X654501Y949110D01*
X655432Y951358D01*
X655750Y953770D01*
X655432Y956182D01*
X654642Y958089D01*
X660270Y963717D01*
X668381D01*
X668633Y962447D01*
X667170Y961841D01*
X665240Y960360D01*
X663759Y958430D01*
X662828Y956182D01*
X662510Y953770D01*
X662828Y951358D01*
X663759Y949110D01*
X665240Y947180D01*
X667170Y945699D01*
X668633Y945093D01*
X668381Y943823D01*
X659130D01*
X659130Y943823D01*
X658076Y943613D01*
X657183Y943017D01*
X657183Y943017D01*
X650749Y936582D01*
X648842Y937372D01*
X646430Y937690D01*
X644018Y937372D01*
X641770Y936441D01*
X639840Y934960D01*
X638359Y933030D01*
X637428Y930782D01*
X637110Y928370D01*
X637428Y925958D01*
X638359Y923710D01*
X639840Y921780D01*
X641770Y920299D01*
X644018Y919368D01*
X646430Y919050D01*
X648842Y919368D01*
X651090Y920299D01*
X653020Y921780D01*
X654501Y923710D01*
X655432Y925958D01*
X655750Y928370D01*
X655432Y930782D01*
X654642Y932689D01*
X660270Y938317D01*
X668381D01*
X668633Y937047D01*
X667170Y936441D01*
X665240Y934960D01*
X663759Y933030D01*
X662828Y930782D01*
X662510Y928370D01*
X662828Y925958D01*
X663759Y923710D01*
X665240Y921780D01*
X667170Y920299D01*
X669418Y919368D01*
X671830Y919050D01*
X674242Y919368D01*
X676490Y920299D01*
X678420Y921780D01*
X679901Y923710D01*
X680269Y924597D01*
X788377D01*
X794916Y918059D01*
X794797Y917772D01*
X794520Y915670D01*
X794797Y913568D01*
X795608Y911610D01*
X796899Y909929D01*
X798580Y908638D01*
X800538Y907827D01*
X802640Y907551D01*
X804742Y907827D01*
X806700Y908638D01*
X808381Y909929D01*
X809672Y911610D01*
X810483Y913568D01*
X810760Y915670D01*
X810483Y917772D01*
X809672Y919730D01*
X808381Y921411D01*
X806700Y922702D01*
X804742Y923513D01*
X802640Y923790D01*
X800538Y923513D01*
X800251Y923394D01*
X792608Y931038D01*
X791384Y931855D01*
X789940Y932142D01*
X789940Y932142D01*
X680269D01*
X679901Y933030D01*
X678420Y934960D01*
X676490Y936441D01*
X675027Y937047D01*
X675279Y938317D01*
X802770D01*
X810853Y930234D01*
X810853Y930233D01*
X811747Y929637D01*
X812800Y929427D01*
X812800Y929427D01*
X839517D01*
X840058Y928120D01*
X841349Y926439D01*
X843030Y925148D01*
X844988Y924337D01*
X847090Y924061D01*
X849192Y924337D01*
X851150Y925148D01*
X852831Y926439D01*
X854122Y928120D01*
X854933Y930079D01*
X855210Y932180D01*
X854933Y934281D01*
X854122Y936240D01*
X852831Y937921D01*
X851150Y939212D01*
X849192Y940023D01*
X847090Y940300D01*
X844988Y940023D01*
X843030Y939212D01*
X841349Y937921D01*
X840058Y936240D01*
X839517Y934933D01*
X813940D01*
X805857Y943017D01*
X804964Y943613D01*
X803910Y943823D01*
X675279D01*
X675027Y945093D01*
X676490Y945699D01*
X678420Y947180D01*
X679901Y949110D01*
X680691Y951017D01*
X788717D01*
X789258Y949710D01*
X790549Y948029D01*
X792230Y946738D01*
X794189Y945927D01*
X796290Y945650D01*
X798391Y945927D01*
X800350Y946738D01*
X802031Y948029D01*
X803322Y949710D01*
X804133Y951668D01*
X804409Y953770D01*
X804133Y955872D01*
X803513Y957367D01*
X804174Y958637D01*
X816657D01*
X817198Y957330D01*
X818489Y955649D01*
X820170Y954358D01*
X822129Y953547D01*
X824230Y953270D01*
X826331Y953547D01*
X828290Y954358D01*
X829971Y955649D01*
X831262Y957330D01*
X832073Y959288D01*
X832349Y961390D01*
X832073Y963492D01*
X831262Y965450D01*
X829971Y967131D01*
X828290Y968422D01*
X826331Y969233D01*
X824230Y969510D01*
X822129Y969233D01*
X820170Y968422D01*
X818489Y967131D01*
X817198Y965450D01*
X816657Y964143D01*
X802609D01*
X798335Y968417D01*
X797442Y969013D01*
X796389Y969223D01*
X741276D01*
X741023Y970493D01*
X741930Y970868D01*
X743611Y972159D01*
X744902Y973840D01*
X745713Y975798D01*
X745990Y977900D01*
X745713Y980002D01*
X744902Y981960D01*
X743611Y983641D01*
X741930Y984932D01*
X739971Y985743D01*
X737870Y986020D01*
X735769Y985743D01*
X733810Y984932D01*
X732129Y983641D01*
X730838Y981960D01*
X730719Y981673D01*
X680795D01*
X679901Y983830D01*
X678420Y985760D01*
X677355Y986577D01*
X677786Y987847D01*
X814200D01*
X862117Y939930D01*
Y928674D01*
X861498Y928593D01*
X859540Y927782D01*
X857859Y926491D01*
X856568Y924810D01*
X855757Y922851D01*
X855480Y920750D01*
X855757Y918649D01*
X856568Y916690D01*
X857859Y915009D01*
X859540Y913718D01*
X861498Y912907D01*
X863600Y912630D01*
X865248Y912848D01*
X865841Y911645D01*
X859920Y905723D01*
X832711D01*
X832100Y906192D01*
X830142Y907003D01*
X828040Y907280D01*
X825938Y907003D01*
X823980Y906192D01*
X822299Y904901D01*
X821008Y903220D01*
X820197Y901262D01*
X819921Y899160D01*
X820197Y897058D01*
X821008Y895100D01*
X822299Y893419D01*
X823980Y892128D01*
X825938Y891317D01*
X828040Y891040D01*
X830142Y891317D01*
X832100Y892128D01*
X833781Y893419D01*
X835072Y895100D01*
X835883Y897058D01*
X836160Y899160D01*
X836146Y899262D01*
X836983Y900217D01*
X861060D01*
X862113Y900427D01*
X863007Y901023D01*
X904917Y942933D01*
X904917Y942933D01*
X905513Y943827D01*
X905723Y944880D01*
Y950007D01*
X907030Y950548D01*
X908711Y951839D01*
X910002Y953520D01*
X910813Y955479D01*
X911089Y957580D01*
X910813Y959681D01*
X910002Y961640D01*
X908711Y963321D01*
X907030Y964612D01*
X905071Y965423D01*
X902970Y965699D01*
X900869Y965423D01*
X898910Y964612D01*
X897229Y963321D01*
X895938Y961640D01*
X895127Y959681D01*
X894850Y957580D01*
X895127Y955479D01*
X895938Y953520D01*
X897229Y951839D01*
X898910Y950548D01*
X900217Y950007D01*
Y946020D01*
X872705Y918509D01*
X871503Y919102D01*
X871720Y920750D01*
X871443Y922851D01*
X870632Y924810D01*
X869341Y926491D01*
X867660Y927782D01*
X867623Y927797D01*
Y941070D01*
X867413Y942123D01*
X866817Y943017D01*
X866816Y943017D01*
X817287Y992547D01*
X816394Y993143D01*
X815340Y993353D01*
D02*
G37*
G36*
X601980Y1250180D02*
X599879Y1249903D01*
X597920Y1249092D01*
X596239Y1247801D01*
X594948Y1246120D01*
X594137Y1244162D01*
X593861Y1242060D01*
X594137Y1239958D01*
X594948Y1238000D01*
X596239Y1236319D01*
X597920Y1235028D01*
X599227Y1234487D01*
Y1014730D01*
X599437Y1013677D01*
X600033Y1012783D01*
X610193Y1002624D01*
X610193Y1002623D01*
X611087Y1002027D01*
X612140Y1001817D01*
X637569D01*
X638359Y999910D01*
X639840Y997980D01*
X641770Y996499D01*
X644018Y995568D01*
X646430Y995250D01*
X648842Y995568D01*
X651090Y996499D01*
X653020Y997980D01*
X654501Y999910D01*
X655432Y1002158D01*
X655750Y1004570D01*
X655432Y1006982D01*
X654501Y1009230D01*
X653020Y1011160D01*
X651090Y1012641D01*
X648842Y1013572D01*
X646430Y1013890D01*
X644018Y1013572D01*
X641770Y1012641D01*
X639840Y1011160D01*
X638359Y1009230D01*
X637569Y1007323D01*
X622601D01*
X622170Y1008593D01*
X623560Y1009660D01*
X624985Y1011517D01*
X625881Y1013679D01*
X626020Y1014730D01*
X608420D01*
X608534Y1013865D01*
X608145Y1013516D01*
X607385Y1013218D01*
X604733Y1015870D01*
Y1234487D01*
X606040Y1235028D01*
X607721Y1236319D01*
X609012Y1238000D01*
X609823Y1239958D01*
X610099Y1242060D01*
X609823Y1244162D01*
X609012Y1246120D01*
X607721Y1247801D01*
X606040Y1249092D01*
X604081Y1249903D01*
X601980Y1250180D01*
D02*
G37*
G36*
X1154430Y1013890D02*
X1152018Y1013572D01*
X1149770Y1012641D01*
X1147840Y1011160D01*
X1146359Y1009230D01*
X1145428Y1006982D01*
X1145110Y1004570D01*
X1145428Y1002158D01*
X1146359Y999910D01*
X1147840Y997980D01*
X1149770Y996499D01*
X1152018Y995568D01*
X1154430Y995250D01*
X1156842Y995568D01*
X1159090Y996499D01*
X1161020Y997980D01*
X1162501Y999910D01*
X1163432Y1002158D01*
X1163750Y1004570D01*
X1163432Y1006982D01*
X1162501Y1009230D01*
X1161020Y1011160D01*
X1159090Y1012641D01*
X1156842Y1013572D01*
X1154430Y1013890D01*
D02*
G37*
G36*
X1179830Y963090D02*
X1177418Y962772D01*
X1175170Y961841D01*
X1173240Y960360D01*
X1171759Y958430D01*
X1170828Y956182D01*
X1170510Y953770D01*
X1170828Y951358D01*
X1171759Y949110D01*
X1173240Y947180D01*
X1175170Y945699D01*
X1177418Y944768D01*
X1179830Y944450D01*
X1182242Y944768D01*
X1184490Y945699D01*
X1186420Y947180D01*
X1187901Y949110D01*
X1188832Y951358D01*
X1189150Y953770D01*
X1188832Y956182D01*
X1187901Y958430D01*
X1186420Y960360D01*
X1184490Y961841D01*
X1182242Y962772D01*
X1179830Y963090D01*
D02*
G37*
G36*
X1154430Y988490D02*
X1152018Y988172D01*
X1149770Y987241D01*
X1147840Y985760D01*
X1146359Y983830D01*
X1145569Y981923D01*
X1127760D01*
X1126706Y981713D01*
X1125813Y981117D01*
X1114383Y969687D01*
X1113787Y968793D01*
X1113577Y967740D01*
Y877440D01*
X1108033Y871897D01*
X1107437Y871003D01*
X1107227Y869950D01*
Y747900D01*
X1091523Y732197D01*
X1090927Y731303D01*
X1090717Y730250D01*
Y726393D01*
X1089410Y725852D01*
X1087729Y724561D01*
X1086438Y722880D01*
X1085627Y720921D01*
X1085350Y718820D01*
X1085627Y716719D01*
X1086438Y714760D01*
X1087729Y713079D01*
X1089410Y711788D01*
X1091368Y710977D01*
X1093470Y710701D01*
X1095572Y710977D01*
X1097530Y711788D01*
X1099211Y713079D01*
X1100502Y714760D01*
X1101313Y716719D01*
X1101590Y718820D01*
X1101313Y720921D01*
X1100502Y722880D01*
X1099211Y724561D01*
X1097530Y725852D01*
X1096223Y726393D01*
Y729110D01*
X1111927Y744813D01*
X1112523Y745706D01*
X1112733Y746760D01*
X1112733Y746760D01*
Y868810D01*
X1118277Y874353D01*
X1118277Y874353D01*
X1118873Y875247D01*
X1119083Y876300D01*
Y966600D01*
X1128900Y976417D01*
X1145569D01*
X1146359Y974510D01*
X1147840Y972580D01*
X1149770Y971099D01*
X1152018Y970168D01*
X1154430Y969850D01*
X1156842Y970168D01*
X1159090Y971099D01*
X1161020Y972580D01*
X1162501Y974510D01*
X1163432Y976758D01*
X1163750Y979170D01*
X1163432Y981582D01*
X1162501Y983830D01*
X1161020Y985760D01*
X1159090Y987241D01*
X1156842Y988172D01*
X1154430Y988490D01*
D02*
G37*
G36*
X1179830D02*
X1177418Y988172D01*
X1175170Y987241D01*
X1173240Y985760D01*
X1171759Y983830D01*
X1170828Y981582D01*
X1170510Y979170D01*
X1170828Y976758D01*
X1171759Y974510D01*
X1173240Y972580D01*
X1175170Y971099D01*
X1177418Y970168D01*
X1179830Y969850D01*
X1182242Y970168D01*
X1184490Y971099D01*
X1186420Y972580D01*
X1187901Y974510D01*
X1188832Y976758D01*
X1189150Y979170D01*
X1188832Y981582D01*
X1187901Y983830D01*
X1186420Y985760D01*
X1184490Y987241D01*
X1182242Y988172D01*
X1179830Y988490D01*
D02*
G37*
G36*
Y1013890D02*
X1177418Y1013572D01*
X1175170Y1012641D01*
X1173240Y1011160D01*
X1171759Y1009230D01*
X1170828Y1006982D01*
X1170510Y1004570D01*
X1170828Y1002158D01*
X1171759Y999910D01*
X1173240Y997980D01*
X1175170Y996499D01*
X1177418Y995568D01*
X1179830Y995250D01*
X1182242Y995568D01*
X1184490Y996499D01*
X1186420Y997980D01*
X1187901Y999910D01*
X1188832Y1002158D01*
X1189150Y1004570D01*
X1188832Y1006982D01*
X1187901Y1009230D01*
X1186420Y1011160D01*
X1184490Y1012641D01*
X1182242Y1013572D01*
X1179830Y1013890D01*
D02*
G37*
G36*
X671830Y1039290D02*
X669418Y1038972D01*
X667170Y1038041D01*
X665240Y1036560D01*
X663759Y1034630D01*
X662828Y1032382D01*
X662510Y1029970D01*
X662828Y1027558D01*
X663759Y1025310D01*
X665240Y1023380D01*
X667170Y1021899D01*
X669418Y1020968D01*
X671830Y1020650D01*
X674242Y1020968D01*
X676490Y1021899D01*
X678420Y1023380D01*
X679901Y1025310D01*
X680832Y1027558D01*
X681150Y1029970D01*
X680832Y1032382D01*
X679901Y1034630D01*
X678420Y1036560D01*
X676490Y1038041D01*
X674242Y1038972D01*
X671830Y1039290D01*
D02*
G37*
G36*
X1154430D02*
X1152018Y1038972D01*
X1149770Y1038041D01*
X1147840Y1036560D01*
X1146359Y1034630D01*
X1145428Y1032382D01*
X1145110Y1029970D01*
X1145428Y1027558D01*
X1146359Y1025310D01*
X1147840Y1023380D01*
X1149770Y1021899D01*
X1152018Y1020968D01*
X1154430Y1020650D01*
X1156842Y1020968D01*
X1159090Y1021899D01*
X1161020Y1023380D01*
X1162501Y1025310D01*
X1163432Y1027558D01*
X1163750Y1029970D01*
X1163432Y1032382D01*
X1162501Y1034630D01*
X1161020Y1036560D01*
X1159090Y1038041D01*
X1156842Y1038972D01*
X1154430Y1039290D01*
D02*
G37*
G36*
X1179830D02*
X1177418Y1038972D01*
X1175170Y1038041D01*
X1173240Y1036560D01*
X1171759Y1034630D01*
X1170828Y1032382D01*
X1170510Y1029970D01*
X1170828Y1027558D01*
X1171759Y1025310D01*
X1173240Y1023380D01*
X1175170Y1021899D01*
X1177418Y1020968D01*
X1179830Y1020650D01*
X1182242Y1020968D01*
X1184490Y1021899D01*
X1186420Y1023380D01*
X1187901Y1025310D01*
X1188832Y1027558D01*
X1189150Y1029970D01*
X1188832Y1032382D01*
X1187901Y1034630D01*
X1186420Y1036560D01*
X1184490Y1038041D01*
X1182242Y1038972D01*
X1179830Y1039290D01*
D02*
G37*
G36*
X615950Y1024799D02*
X614899Y1024661D01*
X612737Y1023765D01*
X610880Y1022340D01*
X609455Y1020483D01*
X608559Y1018321D01*
X608420Y1017270D01*
X615950D01*
Y1024799D01*
D02*
G37*
G36*
X618490D02*
Y1017270D01*
X626020D01*
X625881Y1018321D01*
X624985Y1020483D01*
X623560Y1022340D01*
X621703Y1023765D01*
X619541Y1024661D01*
X618490Y1024799D01*
D02*
G37*
G36*
X646430Y1039290D02*
X644018Y1038972D01*
X641770Y1038041D01*
X639840Y1036560D01*
X638359Y1034630D01*
X637428Y1032382D01*
X637110Y1029970D01*
X637428Y1027558D01*
X638359Y1025310D01*
X639840Y1023380D01*
X641770Y1021899D01*
X644018Y1020968D01*
X646430Y1020650D01*
X648842Y1020968D01*
X651090Y1021899D01*
X653020Y1023380D01*
X654501Y1025310D01*
X655432Y1027558D01*
X655750Y1029970D01*
X655432Y1032382D01*
X654501Y1034630D01*
X653020Y1036560D01*
X651090Y1038041D01*
X648842Y1038972D01*
X646430Y1039290D01*
D02*
G37*
G36*
X938530Y1333999D02*
X936429Y1333723D01*
X934470Y1332912D01*
X932789Y1331621D01*
X931498Y1329940D01*
X930687Y1327982D01*
X930411Y1325880D01*
X930687Y1323779D01*
X931498Y1321820D01*
X931772Y1321463D01*
Y1320800D01*
X932002Y1319051D01*
X932678Y1317421D01*
X933752Y1316022D01*
X1010639Y1239135D01*
X1010697Y1238689D01*
X1011508Y1236730D01*
X1012799Y1235049D01*
X1014480Y1233758D01*
X1016439Y1232947D01*
X1018540Y1232671D01*
X1020641Y1232947D01*
X1022600Y1233758D01*
X1024281Y1235049D01*
X1025572Y1236730D01*
X1026383Y1238689D01*
X1026659Y1240790D01*
X1026383Y1242891D01*
X1025572Y1244850D01*
X1024281Y1246531D01*
X1022600Y1247822D01*
X1020641Y1248633D01*
X1020195Y1248691D01*
X946003Y1322885D01*
X946373Y1323779D01*
X946649Y1325880D01*
X946373Y1327982D01*
X945562Y1329940D01*
X944271Y1331621D01*
X942590Y1332912D01*
X940631Y1333723D01*
X938530Y1333999D01*
D02*
G37*
G36*
X825500Y1262380D02*
X817971D01*
X818109Y1261329D01*
X819005Y1259167D01*
X820430Y1257310D01*
X822287Y1255885D01*
X824449Y1254989D01*
X825500Y1254850D01*
Y1262380D01*
D02*
G37*
G36*
X835570D02*
X828040D01*
Y1254850D01*
X829091Y1254989D01*
X831253Y1255885D01*
X833110Y1257310D01*
X834535Y1259167D01*
X835431Y1261329D01*
X835570Y1262380D01*
D02*
G37*
G36*
X1181100Y1116170D02*
Y1107440D01*
X1189830D01*
X1189650Y1108801D01*
X1188635Y1111254D01*
X1187019Y1113359D01*
X1184913Y1114975D01*
X1182461Y1115991D01*
X1181100Y1116170D01*
D02*
G37*
G36*
X875030Y1275580D02*
X872928Y1275303D01*
X870970Y1274492D01*
X869289Y1273201D01*
X867998Y1271520D01*
X867187Y1269561D01*
X866910Y1267460D01*
X867187Y1265359D01*
X867998Y1263400D01*
X869289Y1261719D01*
X870970Y1260428D01*
X872277Y1259887D01*
Y1228090D01*
X872487Y1227037D01*
X873083Y1226143D01*
X965518Y1133708D01*
X964977Y1132402D01*
X964700Y1130300D01*
X964977Y1128198D01*
X965788Y1126240D01*
X967079Y1124559D01*
X968760Y1123268D01*
X970719Y1122457D01*
X972820Y1122180D01*
X974921Y1122457D01*
X976880Y1123268D01*
X978561Y1124559D01*
X979852Y1126240D01*
X980663Y1128198D01*
X980939Y1130300D01*
X980663Y1132402D01*
X979852Y1134360D01*
X978561Y1136041D01*
X976880Y1137332D01*
X974921Y1138143D01*
X972820Y1138419D01*
X970719Y1138143D01*
X969412Y1137601D01*
X877783Y1229230D01*
Y1259887D01*
X879090Y1260428D01*
X880771Y1261719D01*
X882062Y1263400D01*
X882873Y1265359D01*
X883149Y1267460D01*
X882873Y1269561D01*
X882062Y1271520D01*
X880771Y1273201D01*
X879090Y1274492D01*
X877132Y1275303D01*
X875030Y1275580D01*
D02*
G37*
G36*
X911860Y1312410D02*
X909759Y1312133D01*
X907800Y1311322D01*
X906119Y1310031D01*
X904828Y1308350D01*
X904017Y1306391D01*
X903740Y1304290D01*
X904017Y1302189D01*
X904828Y1300230D01*
X906119Y1298549D01*
X907800Y1297258D01*
X909759Y1296447D01*
X911860Y1296171D01*
X913961Y1296447D01*
X914249Y1296566D01*
X998258Y1212557D01*
Y1164121D01*
X997970Y1164002D01*
X996289Y1162711D01*
X994998Y1161030D01*
X994187Y1159072D01*
X993911Y1156970D01*
X994187Y1154868D01*
X994998Y1152910D01*
X996289Y1151229D01*
X997970Y1149938D01*
X999929Y1149127D01*
X1002030Y1148850D01*
X1004131Y1149127D01*
X1006090Y1149938D01*
X1007771Y1151229D01*
X1009062Y1152910D01*
X1009873Y1154868D01*
X1010150Y1156970D01*
X1009873Y1159072D01*
X1009062Y1161030D01*
X1007771Y1162711D01*
X1006090Y1164002D01*
X1005803Y1164121D01*
Y1214120D01*
X1005515Y1215564D01*
X1004698Y1216788D01*
X919584Y1301901D01*
X919703Y1302189D01*
X919979Y1304290D01*
X919703Y1306391D01*
X918892Y1308350D01*
X917601Y1310031D01*
X915920Y1311322D01*
X913961Y1312133D01*
X911860Y1312410D01*
D02*
G37*
G36*
X1084580Y1275580D02*
X1082478Y1275303D01*
X1080520Y1274492D01*
X1078839Y1273201D01*
X1077548Y1271520D01*
X1076737Y1269561D01*
X1076460Y1267460D01*
X1076701Y1265637D01*
X1070122Y1259058D01*
X1069194Y1257669D01*
X1068868Y1256030D01*
Y803144D01*
X1036849Y771125D01*
X1036758Y771113D01*
X1034800Y770302D01*
X1033119Y769011D01*
X1031828Y767330D01*
X1031017Y765371D01*
X1030741Y763270D01*
X1031017Y761169D01*
X1031828Y759210D01*
X1033119Y757529D01*
X1034800Y756238D01*
X1036758Y755427D01*
X1038860Y755151D01*
X1040962Y755427D01*
X1042920Y756238D01*
X1044601Y757529D01*
X1045892Y759210D01*
X1046703Y761169D01*
X1046980Y763270D01*
X1046703Y765371D01*
X1045892Y767330D01*
X1045576Y767740D01*
X1076178Y798342D01*
X1077106Y799731D01*
X1077432Y801370D01*
Y1254256D01*
X1082757Y1259581D01*
X1084580Y1259341D01*
X1086682Y1259617D01*
X1088640Y1260428D01*
X1090321Y1261719D01*
X1091612Y1263400D01*
X1092423Y1265359D01*
X1092700Y1267460D01*
X1092423Y1269561D01*
X1091612Y1271520D01*
X1090321Y1273201D01*
X1088640Y1274492D01*
X1086682Y1275303D01*
X1084580Y1275580D01*
D02*
G37*
G36*
Y1318759D02*
X1082478Y1318483D01*
X1080520Y1317672D01*
X1078839Y1316381D01*
X1077548Y1314700D01*
X1076737Y1312742D01*
X1076460Y1310640D01*
X1076657Y1309150D01*
X1045803Y1278297D01*
X1045207Y1277403D01*
X1044997Y1276350D01*
Y1131440D01*
X987383Y1073827D01*
X986787Y1072934D01*
X986577Y1071880D01*
Y987930D01*
X869819Y871172D01*
X868552Y871255D01*
X868071Y871881D01*
X866390Y873172D01*
X864432Y873983D01*
X862330Y874259D01*
X860229Y873983D01*
X858270Y873172D01*
X856589Y871881D01*
X855298Y870200D01*
X854487Y868242D01*
X854211Y866140D01*
X854487Y864038D01*
X855298Y862080D01*
X856589Y860399D01*
X857104Y860003D01*
X856673Y858733D01*
X841880D01*
X784267Y916347D01*
X783373Y916943D01*
X782320Y917153D01*
X660400D01*
X659346Y916943D01*
X658453Y916347D01*
X652254Y910148D01*
X651090Y911041D01*
X648842Y911972D01*
X646430Y912290D01*
X644018Y911972D01*
X641770Y911041D01*
X639840Y909560D01*
X638359Y907630D01*
X637428Y905382D01*
X637110Y902970D01*
X637428Y900558D01*
X638359Y898310D01*
X639840Y896380D01*
X641770Y894899D01*
X644018Y893968D01*
X646430Y893650D01*
X648842Y893968D01*
X651090Y894899D01*
X653020Y896380D01*
X654501Y898310D01*
X655432Y900558D01*
X655750Y902970D01*
X655432Y905382D01*
X655386Y905493D01*
X661540Y911647D01*
X665874D01*
X666305Y910377D01*
X665240Y909560D01*
X663759Y907630D01*
X662828Y905382D01*
X662510Y902970D01*
X662828Y900558D01*
X663759Y898310D01*
X665240Y896380D01*
X667170Y894899D01*
X669418Y893968D01*
X671830Y893650D01*
X674242Y893968D01*
X676490Y894899D01*
X678420Y896380D01*
X679901Y898310D01*
X680832Y900558D01*
X680955Y901487D01*
X768397D01*
X768938Y900180D01*
X770229Y898499D01*
X771910Y897208D01*
X773868Y896397D01*
X775970Y896121D01*
X778072Y896397D01*
X780030Y897208D01*
X781711Y898499D01*
X783002Y900180D01*
X783813Y902139D01*
X784090Y904240D01*
X783813Y906341D01*
X783193Y907838D01*
X784270Y908557D01*
X818851Y873975D01*
X818258Y872773D01*
X816610Y872990D01*
X814509Y872713D01*
X813202Y872171D01*
X791887Y893487D01*
X790993Y894083D01*
X789940Y894293D01*
X788886Y894083D01*
X787993Y893487D01*
X787993Y893486D01*
X786420Y891913D01*
X698387D01*
X697912Y893060D01*
X696621Y894741D01*
X694940Y896032D01*
X692981Y896843D01*
X690880Y897120D01*
X688779Y896843D01*
X686820Y896032D01*
X685139Y894741D01*
X683848Y893060D01*
X683037Y891102D01*
X682760Y889000D01*
X683037Y886898D01*
X683848Y884940D01*
X685139Y883259D01*
X686820Y881968D01*
X688779Y881157D01*
X690880Y880881D01*
X692981Y881157D01*
X694940Y881968D01*
X696621Y883259D01*
X697912Y884940D01*
X698519Y886407D01*
X746194D01*
X746821Y885137D01*
X746078Y884170D01*
X745537Y882863D01*
X742950D01*
X741897Y882653D01*
X741003Y882057D01*
X726570Y867623D01*
X675279D01*
X675027Y868893D01*
X676490Y869499D01*
X678420Y870980D01*
X679901Y872910D01*
X680832Y875158D01*
X681150Y877570D01*
X680832Y879982D01*
X679901Y882230D01*
X678420Y884160D01*
X676490Y885641D01*
X674242Y886572D01*
X671830Y886890D01*
X669418Y886572D01*
X667170Y885641D01*
X665240Y884160D01*
X663759Y882230D01*
X662828Y879982D01*
X662510Y877570D01*
X662828Y875158D01*
X663759Y872910D01*
X665240Y870980D01*
X667170Y869499D01*
X668633Y868893D01*
X668381Y867623D01*
X659130D01*
X659130Y867623D01*
X658076Y867413D01*
X657183Y866817D01*
X657183Y866816D01*
X650749Y860382D01*
X648842Y861172D01*
X646430Y861490D01*
X644018Y861172D01*
X641770Y860241D01*
X639840Y858760D01*
X638359Y856830D01*
X637428Y854582D01*
X637110Y852170D01*
X637428Y849758D01*
X638359Y847510D01*
X639840Y845580D01*
X641770Y844099D01*
X644018Y843168D01*
X646430Y842850D01*
X648842Y843168D01*
X651090Y844099D01*
X653020Y845580D01*
X654501Y847510D01*
X655432Y849758D01*
X655750Y852170D01*
X655432Y854582D01*
X654642Y856489D01*
X660270Y862117D01*
X668381D01*
X668633Y860847D01*
X667170Y860241D01*
X665240Y858760D01*
X663759Y856830D01*
X662828Y854582D01*
X662510Y852170D01*
X662828Y849758D01*
X663759Y847510D01*
X665240Y845580D01*
X667170Y844099D01*
X669418Y843168D01*
X671830Y842850D01*
X674242Y843168D01*
X676490Y844099D01*
X678420Y845580D01*
X679901Y847510D01*
X680691Y849417D01*
X740410D01*
X741463Y849627D01*
X742357Y850223D01*
X754250Y862117D01*
X769667D01*
X770208Y860810D01*
X771499Y859129D01*
X773180Y857838D01*
X775138Y857027D01*
X777240Y856750D01*
X779342Y857027D01*
X781300Y857838D01*
X782981Y859129D01*
X784272Y860810D01*
X785083Y862768D01*
X785359Y864870D01*
X785083Y866972D01*
X784272Y868930D01*
X782981Y870611D01*
X781300Y871902D01*
X779342Y872713D01*
X777240Y872990D01*
X775138Y872713D01*
X773180Y871902D01*
X771499Y870611D01*
X770208Y868930D01*
X769667Y867623D01*
X753110D01*
X753110Y867623D01*
X752057Y867413D01*
X751163Y866817D01*
X751163Y866816D01*
X739270Y854923D01*
X680691D01*
X679901Y856830D01*
X678420Y858760D01*
X676490Y860241D01*
X675027Y860847D01*
X675279Y862117D01*
X727710D01*
X728764Y862327D01*
X729657Y862923D01*
X744090Y877357D01*
X745537D01*
X746078Y876050D01*
X747369Y874369D01*
X749050Y873078D01*
X751009Y872267D01*
X753110Y871991D01*
X755211Y872267D01*
X757170Y873078D01*
X758851Y874369D01*
X760142Y876050D01*
X760953Y878008D01*
X761229Y880110D01*
X760953Y882212D01*
X760142Y884170D01*
X759399Y885137D01*
X760026Y886407D01*
X787560D01*
X788614Y886617D01*
X789507Y887213D01*
X790373D01*
X809308Y868278D01*
X808767Y866972D01*
X808491Y864870D01*
X808767Y862768D01*
X809578Y860810D01*
X810869Y859129D01*
X812550Y857838D01*
X814509Y857027D01*
X816610Y856750D01*
X818711Y857027D01*
X820670Y857838D01*
X822351Y859129D01*
X823642Y860810D01*
X824453Y862768D01*
X824730Y864870D01*
X824512Y866518D01*
X825715Y867111D01*
X838793Y854033D01*
X839687Y853437D01*
X840740Y853227D01*
X869950D01*
X870509Y853338D01*
X871135Y852168D01*
X760053Y741087D01*
X759457Y740193D01*
X759247Y739140D01*
Y711070D01*
X678373Y630196D01*
X676490Y631641D01*
X674242Y632572D01*
X671830Y632890D01*
X669418Y632572D01*
X667170Y631641D01*
X665240Y630160D01*
X663759Y628230D01*
X662828Y625982D01*
X662510Y623570D01*
X662828Y621158D01*
X663759Y618910D01*
X665240Y616980D01*
X667170Y615499D01*
X669418Y614568D01*
X671830Y614250D01*
X674242Y614568D01*
X676490Y615499D01*
X678420Y616980D01*
X679901Y618910D01*
X680832Y621158D01*
X681150Y623570D01*
X680962Y624998D01*
X763947Y707983D01*
X764543Y708876D01*
X764753Y709930D01*
Y738000D01*
X1031917Y1005163D01*
X1032513Y1006057D01*
X1032723Y1007110D01*
Y1045340D01*
X1043072Y1055688D01*
X1044379Y1055147D01*
X1046480Y1054871D01*
X1048581Y1055147D01*
X1050540Y1055958D01*
X1052221Y1057249D01*
X1053512Y1058930D01*
X1054323Y1060889D01*
X1054600Y1062990D01*
X1054323Y1065091D01*
X1053512Y1067050D01*
X1052221Y1068731D01*
X1050540Y1070022D01*
X1048581Y1070833D01*
X1046480Y1071109D01*
X1044379Y1070833D01*
X1042420Y1070022D01*
X1040739Y1068731D01*
X1039448Y1067050D01*
X1038637Y1065091D01*
X1038361Y1062990D01*
X1038637Y1060889D01*
X1039178Y1059582D01*
X1028023Y1048427D01*
X1027427Y1047533D01*
X1027217Y1046480D01*
Y1008250D01*
X999492Y980525D01*
X998322Y981151D01*
X998433Y981710D01*
Y1064390D01*
X1059856Y1125813D01*
X1059857Y1125813D01*
X1060453Y1126706D01*
X1060663Y1127760D01*
Y1262510D01*
X1080874Y1282721D01*
X1081790Y1282018D01*
X1083748Y1281207D01*
X1085850Y1280930D01*
X1087952Y1281207D01*
X1089910Y1282018D01*
X1091591Y1283309D01*
X1092882Y1284990D01*
X1093693Y1286949D01*
X1093969Y1289050D01*
X1093693Y1291151D01*
X1092882Y1293110D01*
X1091591Y1294791D01*
X1089910Y1296082D01*
X1087952Y1296893D01*
X1085850Y1297169D01*
X1083748Y1296893D01*
X1081790Y1296082D01*
X1080109Y1294791D01*
X1078818Y1293110D01*
X1078007Y1291151D01*
X1077730Y1289050D01*
X1077927Y1287560D01*
X1055963Y1265597D01*
X1055367Y1264704D01*
X1055157Y1263650D01*
Y1128900D01*
X993733Y1067477D01*
X993353Y1066907D01*
X992083Y1067292D01*
Y1070740D01*
X1049697Y1128353D01*
X1050293Y1129247D01*
X1050503Y1130300D01*
Y1275210D01*
X1079604Y1304311D01*
X1080520Y1303608D01*
X1082478Y1302797D01*
X1084580Y1302520D01*
X1086682Y1302797D01*
X1088640Y1303608D01*
X1090321Y1304899D01*
X1091612Y1306580D01*
X1092423Y1308539D01*
X1092700Y1310640D01*
X1092423Y1312742D01*
X1091612Y1314700D01*
X1090321Y1316381D01*
X1088640Y1317672D01*
X1086682Y1318483D01*
X1084580Y1318759D01*
D02*
G37*
G36*
X1099820Y1466080D02*
X1097719Y1465803D01*
X1095760Y1464992D01*
X1094079Y1463701D01*
X1092788Y1462020D01*
X1091977Y1460061D01*
X1091868Y1459230D01*
X1091701Y1457960D01*
X1091977Y1455858D01*
X1092518Y1454552D01*
X1084710Y1446743D01*
X1043893D01*
X1043352Y1448050D01*
X1042061Y1449731D01*
X1040380Y1451022D01*
X1038421Y1451833D01*
X1036320Y1452110D01*
X1034219Y1451833D01*
X1032260Y1451022D01*
X1030579Y1449731D01*
X1029288Y1448050D01*
X1028477Y1446091D01*
X1028201Y1443990D01*
X1028477Y1441888D01*
X1029288Y1439930D01*
X1030579Y1438249D01*
X1032260Y1436958D01*
X1034219Y1436147D01*
X1036320Y1435871D01*
X1038421Y1436147D01*
X1040380Y1436958D01*
X1042061Y1438249D01*
X1043352Y1439930D01*
X1043893Y1441237D01*
X1085850D01*
X1086904Y1441447D01*
X1087797Y1442043D01*
X1096412Y1450659D01*
X1097719Y1450117D01*
X1099820Y1449841D01*
X1101921Y1450117D01*
X1103880Y1450928D01*
X1105561Y1452219D01*
X1106852Y1453900D01*
X1107663Y1455858D01*
X1107940Y1457960D01*
X1107772Y1459230D01*
X1107663Y1460061D01*
X1106852Y1462020D01*
X1105561Y1463701D01*
X1103880Y1464992D01*
X1101921Y1465803D01*
X1099820Y1466080D01*
D02*
G37*
G36*
X1140460Y1472430D02*
X1138359Y1472153D01*
X1136400Y1471342D01*
X1135241Y1470453D01*
X1134541Y1470162D01*
X1133534Y1469390D01*
D01*
X1133141Y1469088D01*
D01*
X1124456Y1460403D01*
X1094481Y1430428D01*
X1026419D01*
X1020779Y1436069D01*
X1019379Y1437142D01*
X1017749Y1437818D01*
X1016000Y1438048D01*
X909927D01*
X909570Y1438322D01*
X907611Y1439133D01*
X905510Y1439409D01*
X903409Y1439133D01*
X901450Y1438322D01*
X899769Y1437031D01*
X898478Y1435350D01*
X897667Y1433392D01*
X897391Y1431290D01*
X897667Y1429189D01*
X898478Y1427230D01*
X899769Y1425549D01*
X901450Y1424258D01*
X903409Y1423447D01*
X905510Y1423170D01*
X907611Y1423447D01*
X909570Y1424258D01*
X909927Y1424532D01*
X1013201D01*
X1018841Y1418891D01*
X1020241Y1417818D01*
X1021871Y1417142D01*
X1023620Y1416912D01*
X1097280D01*
X1099029Y1417142D01*
X1100659Y1417818D01*
X1102058Y1418891D01*
X1139486Y1456319D01*
X1140460Y1456190D01*
X1142561Y1456467D01*
X1144520Y1457278D01*
X1146201Y1458569D01*
X1147492Y1460250D01*
X1148303Y1462209D01*
X1148579Y1464310D01*
X1148303Y1466411D01*
X1147492Y1468370D01*
X1146709Y1469390D01*
D01*
X1146201Y1470051D01*
X1144520Y1471342D01*
X1142561Y1472153D01*
X1140460Y1472430D01*
D02*
G37*
G36*
X825500Y1272449D02*
X824449Y1272311D01*
X822287Y1271415D01*
X820430Y1269990D01*
X819005Y1268133D01*
X818109Y1265971D01*
X817971Y1264920D01*
X825500D01*
Y1272449D01*
D02*
G37*
G36*
X828040D02*
Y1264920D01*
X835570D01*
X835431Y1265971D01*
X834535Y1268133D01*
X833110Y1269990D01*
X831253Y1271415D01*
X829091Y1272311D01*
X828040Y1272449D01*
D02*
G37*
G36*
X661670Y1369060D02*
X608330Y1369060D01*
X598170Y1358900D01*
Y1303020D01*
X610870Y1290320D01*
X623570D01*
X624840Y1289050D01*
X665480D01*
X680720Y1304290D01*
X680720Y1350010D01*
X661670Y1369060D01*
D02*
G37*
G36*
X1178560Y1116170D02*
X1177199Y1115991D01*
X1174746Y1114975D01*
X1172641Y1113359D01*
X1171025Y1111254D01*
X1170010Y1108801D01*
X1169830Y1107440D01*
X1178560D01*
Y1116170D01*
D02*
G37*
G36*
X681830Y1104900D02*
X673100D01*
Y1096170D01*
X674461Y1096349D01*
X676914Y1097365D01*
X679019Y1098981D01*
X680635Y1101087D01*
X681650Y1103539D01*
X681830Y1104900D01*
D02*
G37*
G36*
X1178560D02*
X1169830D01*
X1170010Y1103539D01*
X1171025Y1101087D01*
X1172641Y1098981D01*
X1174746Y1097365D01*
X1177199Y1096349D01*
X1178560Y1096170D01*
Y1104900D01*
D02*
G37*
G36*
X1189830D02*
X1181100D01*
Y1096170D01*
X1182461Y1096349D01*
X1184913Y1097365D01*
X1187019Y1098981D01*
X1188635Y1101087D01*
X1189650Y1103539D01*
X1189830Y1104900D01*
D02*
G37*
G36*
X670560D02*
X661830D01*
X662010Y1103539D01*
X663025Y1101087D01*
X664641Y1098981D01*
X666747Y1097365D01*
X669199Y1096349D01*
X670560Y1096170D01*
Y1104900D01*
D02*
G37*
G36*
X656510D02*
X647700D01*
Y1096090D01*
X656510D01*
Y1104900D01*
D02*
G37*
G36*
X1153160D02*
X1144350D01*
Y1096090D01*
X1153160D01*
Y1104900D01*
D02*
G37*
G36*
X1164510D02*
X1155700D01*
Y1096090D01*
X1164510D01*
Y1104900D01*
D02*
G37*
G36*
X670560Y1116170D02*
X669199Y1115991D01*
X666747Y1114975D01*
X664641Y1113359D01*
X663025Y1111254D01*
X662010Y1108801D01*
X661830Y1107440D01*
X670560D01*
Y1116170D01*
D02*
G37*
G36*
X673100D02*
Y1107440D01*
X681830D01*
X681650Y1108801D01*
X680635Y1111254D01*
X679019Y1113359D01*
X676914Y1114975D01*
X674461Y1115991D01*
X673100Y1116170D01*
D02*
G37*
G36*
X1153160Y1116250D02*
X1144350D01*
Y1107440D01*
X1153160D01*
Y1116250D01*
D02*
G37*
G36*
X1164510D02*
X1155700D01*
Y1107440D01*
X1164510D01*
Y1116250D01*
D02*
G37*
G36*
X645160D02*
X636350D01*
Y1107440D01*
X645160D01*
Y1116250D01*
D02*
G37*
G36*
X656510D02*
X647700D01*
Y1107440D01*
X656510D01*
Y1116250D01*
D02*
G37*
%LPD*%
G36*
X1096598Y1025910D02*
X1097889Y1024229D01*
X1099570Y1022938D01*
X1100877Y1022397D01*
Y933403D01*
X1099570Y932862D01*
X1097889Y931571D01*
X1096598Y929890D01*
X1096418Y929454D01*
X1095148Y929706D01*
Y1026094D01*
X1096418Y1026346D01*
X1096598Y1025910D01*
D02*
G37*
G36*
X730838Y973840D02*
X732129Y972159D01*
X733810Y970868D01*
X734717Y970493D01*
X734464Y969223D01*
X675279D01*
X675027Y970493D01*
X676490Y971099D01*
X678420Y972580D01*
X679607Y974128D01*
X730719D01*
X730838Y973840D01*
D02*
G37*
G36*
X795406Y962984D02*
X794927Y961710D01*
X794189Y961613D01*
X792230Y960802D01*
X790549Y959511D01*
X789258Y957830D01*
X788717Y956523D01*
X680691D01*
X679901Y958430D01*
X678420Y960360D01*
X676490Y961841D01*
X675027Y962447D01*
X675279Y963717D01*
X794822D01*
X795406Y962984D01*
D02*
G37*
G36*
X992927Y985028D02*
Y982850D01*
X869187Y859110D01*
X868597Y859201D01*
X868291Y859899D01*
X868187Y860549D01*
X869362Y862080D01*
X870088Y863833D01*
X870627Y864193D01*
X991276Y984843D01*
X991277Y984843D01*
X991657Y985413D01*
X992927Y985028D01*
D02*
G37*
G36*
X770744Y910377D02*
X770229Y909981D01*
X768938Y908300D01*
X768397Y906993D01*
X680165D01*
X679901Y907630D01*
X678420Y909560D01*
X677355Y910377D01*
X677786Y911647D01*
X770313D01*
X770744Y910377D01*
D02*
G37*
%LPC*%
G36*
X1075690Y1810249D02*
X1073588Y1809973D01*
X1071630Y1809162D01*
X1069949Y1807871D01*
X1068658Y1806190D01*
X1067847Y1804232D01*
X1067570Y1802130D01*
X1067847Y1800029D01*
X1068658Y1798070D01*
X1069949Y1796389D01*
X1071630Y1795098D01*
X1073588Y1794287D01*
X1075690Y1794010D01*
X1075906Y1794039D01*
X1083182Y1786763D01*
X1083182Y1786762D01*
X1084406Y1785945D01*
X1085850Y1785658D01*
X1112989D01*
X1113108Y1785370D01*
X1114399Y1783689D01*
X1116080Y1782398D01*
X1118038Y1781587D01*
X1120140Y1781310D01*
X1122242Y1781587D01*
X1124200Y1782398D01*
X1125881Y1783689D01*
X1127172Y1785370D01*
X1127983Y1787328D01*
X1128260Y1789430D01*
X1127983Y1791532D01*
X1127172Y1793490D01*
X1125881Y1795171D01*
X1124200Y1796462D01*
X1122242Y1797273D01*
X1120140Y1797549D01*
X1118038Y1797273D01*
X1116080Y1796462D01*
X1114399Y1795171D01*
X1113108Y1793490D01*
X1112989Y1793203D01*
X1087413D01*
X1082645Y1797970D01*
X1082722Y1798070D01*
X1083533Y1800029D01*
X1083810Y1802130D01*
X1083533Y1804232D01*
X1082722Y1806190D01*
X1081431Y1807871D01*
X1079750Y1809162D01*
X1077792Y1809973D01*
X1075690Y1810249D01*
D02*
G37*
G36*
X958850Y1790192D02*
X951320D01*
X951459Y1789141D01*
X952355Y1786979D01*
X953780Y1785122D01*
X955637Y1783697D01*
X957799Y1782801D01*
X958850Y1782663D01*
Y1790192D01*
D02*
G37*
G36*
X1080770Y1775326D02*
X1080269Y1775227D01*
X1078767Y1774223D01*
X1077763Y1772721D01*
X1077664Y1772220D01*
X1080770D01*
Y1775326D01*
D02*
G37*
G36*
X1092310D02*
Y1772220D01*
X1095416D01*
X1095317Y1772721D01*
X1094313Y1774223D01*
X1092811Y1775227D01*
X1092310Y1775326D01*
D02*
G37*
G36*
X1089770D02*
X1089269Y1775227D01*
X1087767Y1774223D01*
X1087304Y1773530D01*
X1085776D01*
X1085313Y1774223D01*
X1083811Y1775227D01*
X1083310Y1775326D01*
Y1770950D01*
X1082040D01*
Y1769680D01*
X1077664D01*
X1077763Y1769179D01*
X1078767Y1767677D01*
X1080269Y1766673D01*
X1082040Y1766321D01*
X1082141Y1766220D01*
X1090939D01*
X1091040Y1766321D01*
X1092811Y1766673D01*
X1094313Y1767677D01*
X1095317Y1769179D01*
X1095416Y1769680D01*
X1091040D01*
Y1770950D01*
X1089770D01*
Y1775326D01*
D02*
G37*
G36*
X1137830Y1849120D02*
X1130300D01*
Y1841591D01*
X1131351Y1841729D01*
X1133513Y1842625D01*
X1135370Y1844050D01*
X1136795Y1845907D01*
X1137691Y1848069D01*
X1137830Y1849120D01*
D02*
G37*
G36*
X1127760Y1859189D02*
X1126709Y1859051D01*
X1124547Y1858155D01*
X1122690Y1856730D01*
X1121265Y1854873D01*
X1120369Y1852711D01*
X1120230Y1851660D01*
X1127760D01*
Y1859189D01*
D02*
G37*
G36*
X1130300D02*
Y1851660D01*
X1137830D01*
X1137691Y1852711D01*
X1136795Y1854873D01*
X1135370Y1856730D01*
X1133513Y1858155D01*
X1131351Y1859051D01*
X1130300Y1859189D01*
D02*
G37*
G36*
X1127760Y1849120D02*
X1120230D01*
X1120369Y1848069D01*
X1121265Y1845907D01*
X1122690Y1844050D01*
X1124547Y1842625D01*
X1126709Y1841729D01*
X1127760Y1841591D01*
Y1849120D01*
D02*
G37*
G36*
X968920Y1790192D02*
X961390D01*
Y1782663D01*
X962441Y1782801D01*
X964603Y1783697D01*
X966460Y1785122D01*
X967885Y1786979D01*
X968781Y1789141D01*
X968920Y1790192D01*
D02*
G37*
G36*
X958850Y1800262D02*
X957799Y1800123D01*
X955637Y1799227D01*
X953780Y1797802D01*
X952355Y1795945D01*
X951459Y1793783D01*
X951320Y1792732D01*
X958850D01*
Y1800262D01*
D02*
G37*
G36*
X961390D02*
Y1792732D01*
X968920D01*
X968781Y1793783D01*
X967885Y1795945D01*
X966460Y1797802D01*
X964603Y1799227D01*
X962441Y1800123D01*
X961390Y1800262D01*
D02*
G37*
G36*
X1095416Y1757680D02*
X1092310D01*
Y1754574D01*
X1092811Y1754673D01*
X1094313Y1755677D01*
X1095317Y1757179D01*
X1095416Y1757680D01*
D02*
G37*
G36*
X1080770D02*
X1077664D01*
X1077763Y1757179D01*
X1078767Y1755677D01*
X1080269Y1754673D01*
X1080770Y1754574D01*
Y1757680D01*
D02*
G37*
G36*
X1090939Y1763680D02*
X1082141D01*
X1082040Y1763579D01*
X1080269Y1763227D01*
X1078767Y1762223D01*
X1077763Y1760721D01*
X1077664Y1760220D01*
X1082040D01*
Y1758950D01*
X1083310D01*
Y1754574D01*
X1083811Y1754673D01*
X1085313Y1755677D01*
X1085776Y1756370D01*
X1087304D01*
X1087767Y1755677D01*
X1089269Y1754673D01*
X1089770Y1754574D01*
Y1758950D01*
X1091040D01*
Y1760220D01*
X1095416D01*
X1095317Y1760721D01*
X1094313Y1762223D01*
X1092811Y1763227D01*
X1091040Y1763579D01*
X1090939Y1763680D01*
D02*
G37*
%LPD*%
D30*
X1123950Y232410D02*
Y411480D01*
X1098650Y207110D02*
X1123950Y232410D01*
Y411480D02*
X1153160Y440690D01*
X1294130Y1060450D02*
X1295400Y1059180D01*
X1301750D01*
X624205Y1061085D02*
X629920Y1055370D01*
X618490Y1066800D02*
X624205Y1061085D01*
X629920Y1055370D02*
X646430D01*
X618490Y1066800D02*
Y1096010D01*
X628650Y1106170D01*
X646430D01*
X770890Y1372870D02*
Y1673860D01*
Y1319530D02*
Y1372870D01*
X1054100D01*
X1154430Y1272540D01*
Y1106170D02*
Y1272540D01*
Y1106170D02*
X1179830D01*
X770890Y1319530D02*
X826770Y1263650D01*
X756920Y1687830D02*
X770890Y1673860D01*
X756920Y1687830D02*
Y1736090D01*
X782320Y1786890D02*
X825500D01*
X772922Y1777492D02*
X782320Y1786890D01*
X698500Y1777492D02*
X772922D01*
X855980Y1818640D02*
X873760D01*
X840740D02*
X855980D01*
Y1933090D02*
X857250Y1934360D01*
X855980Y1818640D02*
Y1933090D01*
X825500Y1786890D02*
Y1803400D01*
X840740Y1818640D01*
X873760D02*
X925830Y1766570D01*
X960120D01*
X1119269Y1667510D02*
X1120140Y1668381D01*
X1084580Y1667510D02*
X1119269D01*
X995299Y1578229D02*
X1084580Y1667510D01*
X995299Y1460881D02*
Y1578229D01*
X1276350Y1518920D02*
X1278890Y1516380D01*
X1140460Y1518920D02*
X1276350D01*
X1123950Y1535430D02*
Y1553210D01*
Y1535430D02*
X1140460Y1518920D01*
X1137920Y1464310D02*
X1140460D01*
X1097280Y1423670D02*
X1137920Y1464310D01*
X1023620Y1423670D02*
X1097280D01*
X1016000Y1431290D02*
X1023620Y1423670D01*
X905510Y1431290D02*
X1016000D01*
X1120140Y1668381D02*
X1183640D01*
X995299Y1460881D02*
X1079881D01*
X1088390Y1061720D02*
X1120140Y1093470D01*
X1088390Y770890D02*
Y1061720D01*
X1120140Y1093470D02*
X1132840Y1080770D01*
X1109980Y1103630D02*
X1120140Y1093470D01*
X1098650Y64230D02*
Y207110D01*
X938530Y1320800D02*
X1018540Y1240790D01*
X938530Y1320800D02*
Y1325880D01*
X1132840Y1080770D02*
X1154430D01*
X1109980Y1103630D02*
Y1243330D01*
X1154430Y1080770D02*
X1179830D01*
X288290Y64770D02*
X331470Y21590D01*
X1084580D01*
X1098650Y35660D01*
Y64230D01*
D31*
X849630Y1670050D02*
X852170Y1672590D01*
X849630Y1633220D02*
Y1670050D01*
X656720Y1667510D02*
X666880Y1677670D01*
X656720Y1634490D02*
Y1667510D01*
X454660Y93980D02*
X506730D01*
X565150D01*
X392430Y589280D02*
X447040Y643890D01*
X392430Y567690D02*
Y589280D01*
D32*
X1130300Y1870710D02*
X1134110Y1866900D01*
X1337310D01*
X805180Y1836420D02*
X822960D01*
X774700Y1805940D02*
X805180Y1836420D01*
X566928Y1805940D02*
X774700D01*
X494030Y1733042D02*
X566928Y1805940D01*
X1073250Y64230D02*
Y232510D01*
X1278890Y1516380D02*
Y1685290D01*
Y1258570D02*
Y1516380D01*
X1073150Y801370D02*
Y1256030D01*
X1038860Y767080D02*
X1073150Y801370D01*
X1038860Y763270D02*
Y767080D01*
X1073150Y1256030D02*
X1084580Y1267460D01*
X494030Y1733042D02*
X515620Y1711452D01*
Y1691640D02*
Y1711452D01*
X496570Y1672590D02*
X515620Y1691640D01*
X496570Y1633220D02*
Y1672590D01*
Y1633220D02*
X511810Y1617980D01*
Y1516380D02*
Y1617980D01*
X494030Y1498600D02*
X511810Y1516380D01*
X494030Y1498600D02*
X511810Y1480820D01*
Y1315212D02*
Y1480820D01*
X494030Y1297432D02*
X511810Y1315212D01*
X514350Y1266190D02*
Y1280160D01*
X508000Y1259840D02*
X514350Y1266190D01*
X508000Y1192530D02*
Y1259840D01*
X1485900Y1635760D02*
X1497330D01*
X396240Y688340D02*
X412750D01*
X360680Y652780D02*
X396240Y688340D01*
X317500Y652780D02*
X360680D01*
X288290Y681990D02*
X317500Y652780D01*
X1343660Y360680D02*
X1374140D01*
X1319530Y384810D02*
X1343660Y360680D01*
X1319530Y384810D02*
Y808990D01*
X1319950Y809410D01*
X1296670Y515620D02*
Y708660D01*
X1299210Y711200D01*
X1329182Y268478D02*
X1341120D01*
X1324610Y273050D02*
X1329182Y268478D01*
X1324610Y273050D02*
Y367030D01*
X1296670Y394970D02*
X1324610Y367030D01*
X1296670Y394970D02*
Y515620D01*
X1299210Y725170D02*
X1306830Y732790D01*
Y921258D01*
X1341120Y955548D01*
X1299210Y711200D02*
Y725170D01*
X1339342Y955548D02*
X1341120D01*
X1316990Y977900D02*
X1339342Y955548D01*
X1316990Y977900D02*
Y1137920D01*
X1341120Y1162050D01*
X1315720Y1187450D02*
X1341120Y1162050D01*
X1315720Y1187450D02*
Y1374648D01*
X1341120Y1400048D01*
X1278890Y831850D02*
Y1258570D01*
Y1685290D02*
X1311910Y1718310D01*
X1316990Y1424178D02*
X1341120Y1400048D01*
X1316990Y1424178D02*
Y1609090D01*
X1334008Y1626108D01*
X1337310D01*
X926140Y609910D02*
X979170Y662940D01*
X1337310Y1626108D02*
X1339088D01*
X1337310Y1737360D02*
Y1866900D01*
X1339088Y1626108D02*
X1357630Y1644650D01*
Y1717040D01*
X1337310Y1737360D02*
X1357630Y1717040D01*
X495300Y178562D02*
X507492D01*
X520700Y191770D01*
Y397002D01*
X499110Y418592D02*
X520700Y397002D01*
X499110Y418592D02*
X522478Y441960D01*
Y579882D01*
X499110Y603250D02*
X522478Y579882D01*
X499110Y603250D02*
X514350Y618490D01*
Y712470D01*
X502920Y723900D02*
X514350Y712470D01*
X502920Y723900D02*
Y792480D01*
X518160Y807720D01*
Y826770D01*
X499110Y845820D02*
X518160Y826770D01*
X499110Y845820D02*
Y848360D01*
X521970Y871220D01*
Y1044702D01*
X499110Y1067562D02*
X521970Y1044702D01*
X499110Y1067562D02*
Y1068070D01*
X515620Y1084580D01*
Y1184910D01*
X508000Y1192530D02*
X515620Y1184910D01*
X497078Y1297432D02*
X514350Y1280160D01*
X494030Y1297432D02*
X497078D01*
X646430Y342900D02*
Y496570D01*
X621030Y317500D02*
X646430Y342900D01*
X621030Y229870D02*
Y317500D01*
X506730Y115570D02*
X621030Y229870D01*
X506730Y93980D02*
Y115570D01*
X1383030Y219710D02*
X1402080D01*
X1452880Y270510D01*
X1403350Y457200D02*
X1454150Y508000D01*
X1380490Y457200D02*
X1403350D01*
X1400810Y478790D02*
Y480060D01*
X1456690Y535940D02*
Y538480D01*
X1400810Y480060D02*
X1456690Y535940D01*
X1383030Y661670D02*
X1438910Y717550D01*
X1455420D01*
X1381760Y906780D02*
X1409700D01*
X1456690Y953770D01*
X1513840Y1169670D02*
X1518920Y1174750D01*
X1494790Y1169670D02*
X1513840D01*
X1412240Y1087120D02*
X1494790Y1169670D01*
X1400810Y1087120D02*
X1412240D01*
X1385570Y1108710D02*
X1440180Y1163320D01*
X1455420D01*
X1400810Y1323340D02*
X1526540Y1449070D01*
X1576070D01*
X1383030Y1348740D02*
X1395730D01*
X1459230Y1412240D01*
X1400810Y1541780D02*
X1403350D01*
X1497330Y1635760D01*
X1383030Y1564640D02*
X1402080D01*
X1454150Y1616710D01*
X1383030Y1809750D02*
X1407160D01*
X1452880Y1855470D01*
X391160Y1744980D02*
X448310Y1802130D01*
X391160Y1723390D02*
Y1744980D01*
X392430Y1498600D02*
X449580Y1555750D01*
X392430Y1485900D02*
Y1498600D01*
Y1299210D02*
X449580Y1356360D01*
X392430Y1276350D02*
Y1299210D01*
X290830Y1042670D02*
X341630D01*
X431800Y1132840D01*
Y1145540D01*
X392430Y1060450D02*
X450850Y1118870D01*
X392430Y1046480D02*
Y1060450D01*
X426720Y897890D02*
X450850D01*
X374650Y845820D02*
X426720Y897890D01*
X346710Y593090D02*
X358140D01*
X431800Y666750D01*
D33*
X671830Y421640D02*
Y496570D01*
Y421640D02*
X697230Y396240D01*
X1079500Y381000D02*
X1093470Y394970D01*
Y410210D01*
X1154430Y471170D01*
Y496570D01*
X1179830D01*
X1294130Y1060450D02*
Y1239520D01*
X539750Y1106170D02*
X547370D01*
X1120140Y1618379D02*
X1183640D01*
X1120140Y1643380D02*
X1183640D01*
X1565910Y1083310D02*
X1733550D01*
X1554480Y1094740D02*
X1565910Y1083310D01*
X1480820Y1094740D02*
X1554480D01*
X1458722Y1072642D02*
X1480820Y1094740D01*
X1733550Y1083310D02*
X1734820Y1082040D01*
X1416050Y1072642D02*
X1458722D01*
X671830Y979170D02*
X673100Y977900D01*
X737870D01*
X510540Y1640840D02*
X523240Y1628140D01*
X510540Y1640840D02*
Y1652270D01*
X527050Y1649730D02*
Y1666240D01*
Y1649730D02*
X532130Y1644650D01*
X1002030Y1156970D02*
Y1214120D01*
X911860Y1304290D02*
X1002030Y1214120D01*
X594360Y763270D02*
X595630Y762000D01*
X594360Y763270D02*
Y871220D01*
X587630Y877950D02*
X594360Y871220D01*
X587630Y877950D02*
Y1267840D01*
X565150Y1290320D02*
X587630Y1267840D01*
X565150Y1290320D02*
Y1437640D01*
X532130Y1243330D02*
Y1644650D01*
X530860Y1242060D02*
X532130Y1243330D01*
X530860Y1230630D02*
Y1242060D01*
X523240Y1245870D02*
Y1628140D01*
X518160Y1240790D02*
X523240Y1245870D01*
X518160Y1223010D02*
Y1240790D01*
Y1223010D02*
X520750Y1220420D01*
Y1210360D02*
Y1220420D01*
X1085850Y1789430D02*
X1120140D01*
X1543050Y1344930D02*
Y1351280D01*
X1517650Y1376680D02*
X1543050Y1351280D01*
X1478280Y1376680D02*
X1517650D01*
X1416050Y1314450D02*
X1478280Y1376680D01*
X1416050Y1305560D02*
Y1314450D01*
X1605280Y1536700D02*
X1733550D01*
X1591310Y1522730D02*
X1605280Y1536700D01*
X1416050Y1522730D02*
X1591310D01*
X1543050Y1797050D02*
Y1814830D01*
X1525270Y1832610D02*
X1543050Y1814830D01*
X1479550Y1832610D02*
X1525270D01*
X1416050Y1769110D02*
X1479550Y1832610D01*
X1416050Y1759712D02*
Y1769110D01*
X223050Y420370D02*
X327660D01*
X182880Y460540D02*
X223050Y420370D01*
X290500Y837870D02*
X330200Y877570D01*
X147320Y837870D02*
X290500D01*
X120650Y796290D02*
X275590D01*
X373380Y1126490D02*
X414020Y1167130D01*
X373380Y1118870D02*
Y1126490D01*
X349250Y1094740D02*
X373380Y1118870D01*
X317500Y1094740D02*
X349250D01*
X288290Y1123950D02*
X317500Y1094740D01*
X171450Y1085850D02*
X300990D01*
X158750Y1073150D02*
X171450Y1085850D01*
X269748Y1396238D02*
X415290D01*
X265430Y1391920D02*
X269748Y1396238D01*
X93980Y1391920D02*
X265430D01*
X288290Y1567180D02*
X312420Y1543050D01*
X264198Y1840738D02*
X415290D01*
X147320Y1723860D02*
X264198Y1840738D01*
X123190Y1691640D02*
X124460Y1692910D01*
X1416050Y858520D02*
Y873760D01*
X1473200Y930910D01*
X1508760D01*
X1543050Y896620D01*
X1416050Y621030D02*
X1583690D01*
X1604010Y641350D01*
X1734820D01*
X1416050Y411480D02*
Y436880D01*
X1469390Y490220D01*
X1501610D01*
X1542250Y449580D01*
X1416050Y168910D02*
X1541780D01*
X1564640Y191770D01*
X1736090D01*
X1179830Y674370D02*
X1220470D01*
X789940Y928370D02*
X802640Y915670D01*
X671830Y928370D02*
X789940D01*
X1273810Y317500D02*
X1291590Y299720D01*
X1273810Y317500D02*
Y621030D01*
X1220470Y674370D02*
X1273810Y621030D01*
X1294130Y739140D02*
Y800100D01*
X1283970Y728980D02*
X1294130Y739140D01*
X1283970Y394970D02*
Y728980D01*
Y394970D02*
X1308100Y370840D01*
Y346710D02*
Y370840D01*
X1294130Y1239520D02*
Y1670050D01*
X1315720Y1691640D01*
X1468158D02*
X1469898Y1689900D01*
X1315720Y1691640D02*
X1319530D01*
X916940Y1024890D02*
X1038860Y1146810D01*
X755650Y669290D02*
X843280Y756920D01*
X755650Y633730D02*
Y669290D01*
X1319530Y1691640D02*
X1327150Y1699260D01*
Y1701800D01*
X1037590Y1148080D02*
X1038860Y1146810D01*
X1037590Y1148080D02*
Y1327150D01*
X523240Y777240D02*
X533400D01*
X552450Y758190D01*
Y345440D02*
Y758190D01*
X523240Y777240D02*
X539750Y793750D01*
X530860Y1230630D02*
X539750Y1221740D01*
X511810Y765810D02*
X519430Y758190D01*
X511810Y765810D02*
Y787400D01*
X520750Y1210360D02*
X521970Y1211580D01*
X511810Y787400D02*
X532130Y807720D01*
Y1201420D01*
X916940Y947420D02*
Y1024890D01*
X844550Y889000D02*
X858520D01*
X916940Y947420D01*
X717550Y374650D02*
Y487680D01*
X544830Y129540D02*
X645160Y229870D01*
Y302260D01*
X717550Y374650D01*
X521970Y1211580D02*
X532130Y1201420D01*
X1075690Y1799590D02*
Y1802130D01*
Y1799590D02*
X1085850Y1789430D01*
X1442720Y196850D02*
X1517650Y271780D01*
X1395730Y196850D02*
X1442720D01*
X1400810Y643890D02*
X1475740D01*
X1557020Y725170D01*
X1398270Y878840D02*
X1403350D01*
X1498600Y974090D01*
Y994410D01*
X1400810Y1780540D02*
X1404620D01*
X1465580Y1841500D01*
Y1885950D01*
X303530Y1821180D02*
X424180D01*
X173990Y1691640D02*
X303530Y1821180D01*
X123190Y1691640D02*
X173990D01*
X401940Y1593200D02*
X415290Y1606550D01*
X410210Y1587500D02*
X429260D01*
X285750Y1483360D02*
X328930Y1526540D01*
X349250D01*
X410210Y1587500D01*
X399400Y1593200D02*
X401940D01*
X312420Y1543050D02*
X349250D01*
X399400Y1593200D01*
X347980Y1379220D02*
X429260D01*
X270002Y1301242D02*
X347980Y1379220D01*
X401320Y922020D02*
X431800D01*
X275590Y796290D02*
X401320Y922020D01*
X323850Y396240D02*
X405130Y477520D01*
X431800D01*
X391160Y392430D02*
X452120Y453390D01*
X391160Y381000D02*
Y392430D01*
X197650Y157480D02*
X452120D01*
X302260Y172720D02*
X326390Y196850D01*
X392430D01*
X431800Y236220D01*
X162090Y193040D02*
X197650Y157480D01*
X539750Y793750D02*
Y1106170D01*
Y1221740D01*
X1294130Y800100D02*
Y1060450D01*
X1120140Y1593378D02*
X1183640D01*
D34*
X1079500Y381000D02*
X1085850Y374650D01*
Y292100D02*
Y374650D01*
X1073250Y279500D02*
X1085850Y292100D01*
X1073250Y232510D02*
Y279500D01*
X622300Y786130D02*
X624840Y788670D01*
X622300Y519430D02*
Y786130D01*
X618490Y801370D02*
X646430D01*
X613410Y796290D02*
X618490Y801370D01*
X613410Y370840D02*
Y796290D01*
X622300Y519430D02*
X645160Y496570D01*
X646430D01*
X617220Y1054100D02*
X624205Y1061085D01*
X617220Y1016000D02*
Y1054100D01*
X612140Y1004570D02*
X646430D01*
X601980Y1014730D02*
X612140Y1004570D01*
X601980Y1014730D02*
Y1242060D01*
X671830Y852170D02*
X740410D01*
X551180Y824230D02*
Y1033780D01*
X560070Y1041400D02*
Y1229360D01*
X552450Y1033780D02*
X560070Y1041400D01*
X551180Y1033780D02*
X552450D01*
X548640Y1240790D02*
X560070Y1229360D01*
X548640Y1240790D02*
Y1261110D01*
X565150Y1036320D02*
Y1270000D01*
X557530Y1028700D02*
X565150Y1036320D01*
X557530Y1019909D02*
Y1028700D01*
X1082040Y1310640D02*
X1084580D01*
X1047750Y1276350D02*
X1082040Y1310640D01*
X1085850Y1289050D02*
Y1291590D01*
X1036320Y1443990D02*
X1085850D01*
X1032510Y1572260D02*
X1064260D01*
X1221740Y1414780D01*
X1085850Y1443990D02*
X1099820Y1457960D01*
X1221740Y843280D02*
Y1414780D01*
X1179830Y801370D02*
X1221740Y843280D01*
X712470Y1087120D02*
X739140Y1113790D01*
X731520Y1088390D02*
X740410Y1097280D01*
X731520Y1003300D02*
Y1088390D01*
X1127760Y979170D02*
X1154430D01*
X1116330Y967740D02*
X1127760Y979170D01*
X1116330Y876300D02*
Y967740D01*
X1109980Y746760D02*
Y869950D01*
X1116330Y876300D01*
X1093470Y730250D02*
X1109980Y746760D01*
X961390Y508000D02*
X1029970Y576580D01*
X1049020D01*
X1057910Y1127760D02*
Y1263650D01*
X995680Y1065530D02*
X1057910Y1127760D01*
X1047750Y1130300D02*
Y1276350D01*
X989330Y1071880D02*
X1047750Y1130300D01*
X1046480Y1033780D02*
X1050290Y1029970D01*
X1046480Y1033780D02*
Y1042670D01*
X1029970Y1046480D02*
X1046480Y1062990D01*
X1029970Y1007110D02*
Y1046480D01*
X762000Y739140D02*
X1029970Y1007110D01*
X1050290Y939800D02*
Y1029970D01*
X712470Y1003300D02*
Y1087120D01*
X690880Y889000D02*
X691040Y889160D01*
X787560D01*
X789940Y891540D01*
X1076960Y426720D02*
Y427990D01*
X1125220Y476250D01*
X1064260Y403860D02*
Y467360D01*
X1073150Y476250D01*
X1071880Y477520D02*
X1073150Y476250D01*
X570230Y1699260D02*
X571500Y1700530D01*
X565150Y1656080D02*
X571500Y1662430D01*
X565150Y1489710D02*
Y1656080D01*
Y1489710D02*
X826770Y1228090D01*
Y1195070D02*
Y1228090D01*
Y1195070D02*
X882650Y1139190D01*
Y948690D02*
Y1139190D01*
X541020Y1676400D02*
X551180Y1686560D01*
Y1687830D01*
X541020Y1652270D02*
Y1676400D01*
Y1652270D02*
X546100Y1647190D01*
Y1289050D02*
Y1647190D01*
X554355Y1665605D02*
X556260Y1663700D01*
Y1487170D02*
Y1663700D01*
Y1487170D02*
X694690Y1348740D01*
X571500Y886460D02*
Y1008380D01*
X566420Y881380D02*
X571500Y886460D01*
X546100Y1289050D02*
X565150Y1270000D01*
X557370Y1019749D02*
X557530Y1019909D01*
X557370Y872650D02*
Y1019749D01*
Y872650D02*
X571500Y858520D01*
Y784860D02*
Y858520D01*
X558800Y789940D02*
X566420Y797560D01*
X558800Y779780D02*
Y789940D01*
Y779780D02*
X566420Y772160D01*
Y732790D02*
Y772160D01*
Y797560D02*
Y808990D01*
Y881380D02*
X583090Y864710D01*
Y739300D02*
Y864710D01*
X582930Y739140D02*
X583090Y739300D01*
X566420Y732790D02*
X576580Y722630D01*
X551180Y824230D02*
X566420Y808990D01*
X671830Y1004570D02*
X684530D01*
X694690Y1014730D01*
Y1348740D01*
X607060Y861060D02*
X623570Y877570D01*
X607060Y416560D02*
Y861060D01*
X591820Y401320D02*
X607060Y416560D01*
X1233170Y636270D02*
X1258570Y610870D01*
X647700Y979170D02*
X659130Y990600D01*
X646430Y979170D02*
X647700D01*
X671830Y953770D02*
X796290D01*
X1131570Y650240D02*
X1145540Y636270D01*
X1233170D01*
X812800Y932180D02*
X847090D01*
X803910Y941070D02*
X812800Y932180D01*
X659130Y941070D02*
X803910D01*
X646430Y928370D02*
X659130Y941070D01*
X1188720Y788670D02*
X1261110Y861060D01*
X1167130Y788670D02*
X1188720D01*
X1154430Y775970D02*
X1167130Y788670D01*
X646430Y953770D02*
X659130Y966470D01*
X671830Y623570D02*
X675640D01*
X762000Y709930D01*
Y739140D01*
X801469Y961390D02*
X824230D01*
X796389Y966470D02*
X801469Y961390D01*
X659130Y966470D02*
X796389D01*
X673100Y904240D02*
X775970D01*
X671830Y902970D02*
X673100Y904240D01*
X658170Y609910D02*
X926140D01*
X646430Y598170D02*
X658170Y609910D01*
X646430Y902970D02*
X648970D01*
X660400Y914400D01*
X782320D01*
X659130Y990600D02*
X815340D01*
X864870Y941070D01*
Y922020D02*
Y941070D01*
X863600Y920750D02*
X864870Y922020D01*
X927100Y857250D02*
X1130300Y654050D01*
X1131570D01*
Y650240D02*
Y654050D01*
X782320Y914400D02*
X840740Y855980D01*
X869950D01*
X862330Y866140D02*
X868680D01*
X861060Y645160D02*
Y723900D01*
X839470Y623570D02*
X861060Y645160D01*
X808990Y598170D02*
X810260Y596900D01*
X671830Y598170D02*
X808990D01*
X782320Y1064260D02*
X789940Y1071880D01*
X782320Y1009650D02*
Y1064260D01*
X754380Y1085850D02*
X762000Y1093470D01*
X754380Y1009650D02*
Y1085850D01*
X659130Y864870D02*
X727710D01*
X646430Y852170D02*
X659130Y864870D01*
X1146810Y359410D02*
X1169670D01*
X1219200Y408940D01*
Y538480D01*
X1210310Y547370D02*
X1219200Y538480D01*
X1179830Y547370D02*
X1210310D01*
X623570Y877570D02*
X646430D01*
X604520Y261620D02*
Y361950D01*
X613410Y370840D01*
X1071880Y477520D02*
X1141730Y547370D01*
X1154430D01*
X962660Y450850D02*
X1070610Y558800D01*
Y679450D01*
X1093470Y718820D02*
Y730250D01*
X537160Y326440D02*
Y712520D01*
X1125220Y476250D02*
Y497840D01*
X1135380Y508000D01*
X1165860D01*
X1179830Y521970D01*
X971650Y311930D02*
Y335380D01*
X1057910Y421640D01*
Y494030D01*
X1126490Y562610D01*
Y631190D01*
X946250Y311930D02*
Y331570D01*
X1038860Y424180D01*
Y501650D01*
X1099820Y562610D01*
Y661670D01*
X519430Y730250D02*
Y758190D01*
Y730250D02*
X537160Y712520D01*
X930910Y560070D02*
X1005840Y635000D01*
X1125220Y789940D02*
Y852170D01*
X1126490Y853440D01*
X552450Y778510D02*
Y805180D01*
X828040Y1027430D02*
X830580Y1024890D01*
X871220D01*
X1202690Y1014730D02*
X1203960Y1013460D01*
Y938530D02*
Y1013460D01*
X1193800Y928370D02*
X1203960Y938530D01*
X1179830Y928370D02*
X1193800D01*
X740410Y852170D02*
X753110Y864870D01*
X777240D01*
X727710D02*
X742950Y880110D01*
X753110D01*
X789940Y891540D02*
X816610Y864870D01*
X828040Y899160D02*
X831850Y902970D01*
X861060D01*
X995680Y981710D02*
Y1065530D01*
X989330Y986790D02*
Y1071880D01*
X869950Y855980D02*
X995680Y981710D01*
X868680Y866140D02*
X989330Y986790D01*
X861060Y902970D02*
X902970Y944880D01*
Y957580D01*
X561340Y520700D02*
X574040Y508000D01*
X561340Y520700D02*
Y769620D01*
X552450Y778510D02*
X561340Y769620D01*
X875030Y1228090D02*
Y1267460D01*
Y1228090D02*
X972820Y1130300D01*
X1103630Y925830D02*
Y1029970D01*
X646430Y496570D02*
X671830D01*
X697230Y508000D02*
X717550Y487680D01*
X660400Y508000D02*
X697230D01*
X646430Y521970D02*
X660400Y508000D01*
X1057910Y1263650D02*
X1085850Y1291590D01*
X571500Y1662430D02*
Y1700530D01*
D35*
X22860Y289560D02*
Y491490D01*
Y516890D02*
Y711200D01*
X857250Y1934360D02*
X971400D01*
X755650D02*
X857250D01*
X1808480Y1722120D02*
Y1893570D01*
Y1529080D02*
Y1722120D01*
X1786890Y1915160D02*
X1808480Y1893570D01*
X1728470Y1915160D02*
X1786890D01*
X1737360Y1838960D02*
X1750060Y1851660D01*
X1737360Y1790700D02*
Y1838960D01*
X1684020Y1959610D02*
X1728470Y1915160D01*
X996650Y1959610D02*
X1684020D01*
X971400Y1934360D02*
X996650Y1959610D01*
X641350Y1932940D02*
X642770Y1934360D01*
X628650Y1920240D02*
X641350Y1932940D01*
X642770Y1934360D02*
X755650D01*
X22860Y711200D02*
X27940Y716280D01*
X30480Y726440D02*
Y731520D01*
X27940Y723900D02*
X30480Y726440D01*
X27940Y716280D02*
Y723900D01*
X481010Y1916750D02*
X497200Y1932940D01*
X22860Y1611630D02*
Y1833880D01*
Y1899920D01*
X39690Y1916750D01*
X481010D01*
X1734820Y1082040D02*
Y1165860D01*
Y1056640D02*
Y1082040D01*
X1734528Y294170D02*
X1745234Y283464D01*
X1684020Y294170D02*
X1734528D01*
X1734820Y384810D02*
Y445770D01*
Y496824D01*
X1731010Y449580D02*
X1734820Y445770D01*
X1542250Y449580D02*
X1731010D01*
X1492250Y414020D02*
Y449580D01*
Y414020D02*
X1512100Y394170D01*
X1684020D01*
X1692910Y731520D02*
X1742440D01*
X1684020Y740410D02*
X1692910Y731520D01*
X1733550Y828040D02*
Y894080D01*
Y938276D01*
X1731010Y896620D02*
X1733550Y894080D01*
X1543050Y896620D02*
X1731010D01*
X1493050Y860260D02*
Y896620D01*
Y860260D02*
X1512900Y840410D01*
X1684020D01*
X1702130Y1170940D02*
X1738630D01*
X1684020Y1189050D02*
X1702130Y1170940D01*
X1493050Y1318730D02*
Y1344930D01*
Y1318730D02*
X1522730Y1289050D01*
X1684020D01*
X1736090Y1283970D02*
Y1342390D01*
Y1391920D01*
X1733550Y1344930D02*
X1736090Y1342390D01*
X1543050Y1344930D02*
X1733550D01*
X1736090Y274320D02*
X1745234Y283464D01*
X1734820Y723900D02*
X1742440Y731520D01*
X1733550Y938276D02*
X1742694Y947420D01*
X1734820Y1165860D02*
X1738630Y1169670D01*
Y1170940D01*
X1736090Y1391920D02*
X1747774Y1403604D01*
X1808480Y172720D02*
Y396240D01*
Y619760D01*
Y843280D01*
Y1070610D01*
Y1292860D01*
Y1529080D01*
X1733550Y1507490D02*
Y1536700D01*
Y1611630D01*
X1712290D02*
X1733550D01*
X1684020Y1639900D02*
X1712290Y1611630D01*
X1737360Y1731010D02*
Y1790700D01*
X1543050Y1797050D02*
X1731010D01*
X1493050Y1764500D02*
Y1797050D01*
Y1764500D02*
X1517650Y1739900D01*
X1684020D01*
X1733550Y1611630D02*
X1749552Y1627632D01*
X1790954Y1739646D02*
X1808480Y1722120D01*
X22860Y289560D02*
X28956Y283464D01*
X82550Y171450D02*
X99060Y187960D01*
X82042Y395478D02*
X99060Y412496D01*
Y510540D01*
X132042Y412496D02*
X149098Y395440D01*
X99060Y412496D02*
X132042D01*
X149098Y295440D02*
X320510D01*
X341630Y274320D01*
Y238760D02*
Y274320D01*
X105410Y238760D02*
X291630D01*
X99060Y245110D02*
X105410Y238760D01*
X99060Y187960D02*
Y245110D01*
Y293370D01*
X147320Y737870D02*
X307340D01*
X338290Y706920D01*
Y681990D02*
Y706920D01*
X73914Y619506D02*
X88646D01*
X95250Y626110D01*
X96520Y681990D02*
X288290D01*
X95250Y683260D02*
X96520Y681990D01*
X95250Y626110D02*
Y683260D01*
Y737870D01*
X87376Y843534D02*
X96520Y852678D01*
Y965200D01*
X132080Y853110D02*
X147320Y837870D01*
X96952Y853110D02*
X132080D01*
X96520Y852678D02*
X96952Y853110D01*
X22860Y1161542D02*
X40894Y1179576D01*
X22860Y1390650D02*
X35814Y1403604D01*
X22860Y711200D02*
Y1161542D01*
Y1611630D02*
X38862Y1627632D01*
X22860Y1161542D02*
Y1390650D01*
Y1833880D02*
X40640Y1851660D01*
X22860Y1390650D02*
Y1611630D01*
X89662Y1067562D02*
X92710Y1070610D01*
X85090Y1291590D02*
X93980Y1300480D01*
X83058Y1515618D02*
X96520Y1529080D01*
X87376Y1739646D02*
X91440Y1743710D01*
Y1861820D01*
X93980Y1123950D02*
X288290D01*
X92710Y1125220D02*
X93980Y1123950D01*
X92710Y1070610D02*
Y1125220D01*
Y1186180D01*
X338290Y1123950D02*
Y1138390D01*
X297320Y1179360D02*
X338290Y1138390D01*
X147320Y1179360D02*
X297320D01*
X126200Y1300480D02*
X147320Y1279360D01*
X93980Y1300480D02*
X126200D01*
X93980D02*
Y1391920D01*
Y1412240D01*
X284480Y1570990D02*
X288290Y1567180D01*
X96520Y1570990D02*
X284480D01*
X96520Y1529080D02*
Y1570990D01*
Y1631950D01*
X338290Y1567180D02*
Y1587030D01*
X301460Y1623860D02*
X338290Y1587030D01*
X147320Y1623860D02*
X301460D01*
X131534Y1739646D02*
X147320Y1723860D01*
X87376Y1739646D02*
X131534D01*
X1734820Y641350D02*
Y723900D01*
Y604520D02*
Y641350D01*
X1736090Y191770D02*
Y274320D01*
Y165100D02*
Y191770D01*
X497200Y1932940D02*
X641350D01*
D36*
X32258Y507492D02*
X38862D01*
X22860Y491490D02*
X38862Y507492D01*
X43942D02*
X60960D01*
X22860Y516890D02*
X32258Y507492D01*
X1750060Y1851660D02*
X1770380D01*
X1736090Y165100D02*
X1755140Y146050D01*
X1745234Y283464D02*
X1770380D01*
X1734820Y384810D02*
X1749552Y370078D01*
X1734820Y496824D02*
X1745488Y507492D01*
X1749552Y370078D02*
X1770380D01*
X1745488Y507492D02*
X1770380D01*
X1745234Y594106D02*
X1770380D01*
X1734820Y604520D02*
X1745234Y594106D01*
X1742440Y731520D02*
X1770380D01*
X1743456Y818134D02*
X1770380D01*
X1733550Y828040D02*
X1743456Y818134D01*
X1742694Y947420D02*
X1750822Y955548D01*
X1770380D01*
X1749298Y1042162D02*
X1770380D01*
X1734820Y1056640D02*
X1749298Y1042162D01*
X1738630Y1170940D02*
X1747266Y1179576D01*
X1770380D01*
X1753870Y1266190D02*
X1770380D01*
X1736090Y1283970D02*
X1753870Y1266190D01*
X1747774Y1403604D02*
X1770380D01*
X1771142Y396240D02*
X1808480D01*
X1770380Y171450D02*
X1807210D01*
X1808480Y172720D01*
X1770380Y395478D02*
X1771142Y396240D01*
X1770380Y619506D02*
X1808226D01*
X1808480Y619760D01*
X1770380Y843534D02*
X1770634Y843280D01*
X1808480D01*
X1770380Y1067562D02*
X1771142Y1066800D01*
X1790700D01*
X1794510Y1070610D01*
X1808480D01*
X1770380Y1291590D02*
X1807210D01*
X1808480Y1292860D01*
X1731010Y1797050D02*
X1737360Y1790700D01*
X1750822Y1490218D02*
X1770380D01*
X1733550Y1507490D02*
X1750822Y1490218D01*
X1749552Y1627632D02*
X1770380D01*
X1754124Y1714246D02*
X1770380D01*
X1737360Y1731010D02*
X1754124Y1714246D01*
X1795018Y1515618D02*
X1808480Y1529080D01*
X1770380Y1515618D02*
X1795018D01*
X1770380Y1739646D02*
X1790954D01*
X28956Y283464D02*
X60960D01*
Y171450D02*
X82550D01*
X83566Y308864D02*
X99060Y293370D01*
X60960Y308864D02*
X83566D01*
X60960Y395478D02*
X82042D01*
X76708Y532892D02*
X99060Y510540D01*
X60960Y532892D02*
X76708D01*
X30480Y731520D02*
X60960D01*
X34798Y955548D02*
X60960D01*
Y619506D02*
X73914D01*
X95250Y737870D02*
Y744220D01*
X82550Y756920D02*
X95250Y744220D01*
X60960Y756920D02*
X82550D01*
X60960Y843534D02*
X87376D01*
X80772Y980948D02*
X96520Y965200D01*
X60960Y980948D02*
X80772D01*
X40894Y1179576D02*
X60960D01*
X35814Y1403604D02*
X60960D01*
X38862Y1627632D02*
X60960D01*
X40640Y1851660D02*
X60960D01*
Y1067562D02*
X89662D01*
X73914Y1204976D02*
X92710Y1186180D01*
X60960Y1204976D02*
X73914D01*
X60960Y1291590D02*
X85090D01*
X77216Y1429004D02*
X93980Y1412240D01*
X60960Y1429004D02*
X77216D01*
X60960Y1515618D02*
X83058D01*
X75438Y1653032D02*
X96520Y1631950D01*
X60960Y1653032D02*
X75438D01*
X60960Y1739646D02*
X87376D01*
X76200Y1877060D02*
X91440Y1861820D01*
X60960Y1877060D02*
X76200D01*
X1755140Y146050D02*
X1770380D01*
D37*
X208750Y1073150D02*
D03*
X158750D02*
D03*
X628650Y1870240D02*
D03*
Y1920240D02*
D03*
X1625130Y1841500D02*
D03*
X1675130D02*
D03*
X1651400Y1059980D02*
D03*
Y1109980D02*
D03*
Y612940D02*
D03*
Y662940D02*
D03*
X212090Y193040D02*
D03*
X162090D02*
D03*
X182880Y510540D02*
D03*
Y460540D02*
D03*
X208280Y635000D02*
D03*
X158280D02*
D03*
X183750Y968210D02*
D03*
Y918210D02*
D03*
Y1408900D02*
D03*
Y1358900D02*
D03*
X207480Y1520190D02*
D03*
X157480D02*
D03*
X182480Y1852930D02*
D03*
Y1802930D02*
D03*
X1651400Y169710D02*
D03*
Y219710D02*
D03*
X1626400Y497840D02*
D03*
X1676400D02*
D03*
X1626400Y946150D02*
D03*
X1676400D02*
D03*
X1650130Y1512100D02*
D03*
Y1562100D02*
D03*
X1626400Y1393190D02*
D03*
X1676400D02*
D03*
D38*
X412750Y688340D02*
D03*
X910590Y1617980D02*
D03*
X415290Y1396238D02*
D03*
X1129030Y1850390D02*
D03*
X1341120Y1424940D02*
D03*
X1337310Y1891792D02*
D03*
X1341120Y1186942D02*
D03*
X1337310Y1651000D02*
D03*
X1341120Y529082D02*
D03*
Y293370D02*
D03*
Y740410D02*
D03*
X419100Y261620D02*
D03*
X495300Y153670D02*
D03*
X499110Y393700D02*
D03*
X412750Y502158D02*
D03*
X499110Y578358D02*
D03*
Y820928D02*
D03*
X412750Y941070D02*
D03*
X499110Y1042670D02*
D03*
X414020Y1167130D02*
D03*
X494030Y1272540D02*
D03*
Y1473708D02*
D03*
X415290Y1606550D02*
D03*
X494030Y1708150D02*
D03*
X415290Y1840738D02*
D03*
X716918Y1626870D02*
D03*
X698500Y1752600D02*
D03*
X850392Y1786890D02*
D03*
X960120Y1791462D02*
D03*
X1416050Y168910D02*
D03*
Y411480D02*
D03*
Y621030D02*
D03*
Y858520D02*
D03*
X1341120Y980440D02*
D03*
X1416050Y1072642D02*
D03*
Y1305560D02*
D03*
Y1522730D02*
D03*
Y1759712D02*
D03*
X822960Y1836420D02*
D03*
X697230Y396240D02*
D03*
X1079500Y381000D02*
D03*
X1301750Y1059180D02*
D03*
X624840Y788670D02*
D03*
X617220Y1016000D02*
D03*
X547370Y1106170D02*
D03*
X1084580Y1310640D02*
D03*
X1085850Y1289050D02*
D03*
X826770Y1263650D02*
D03*
X756920Y1736090D02*
D03*
X1140460Y1518920D02*
D03*
Y1464310D02*
D03*
X905510Y1431290D02*
D03*
X1123950Y1553210D02*
D03*
X1036320Y1443990D02*
D03*
X1158240Y1593850D02*
D03*
X1032510Y1572260D02*
D03*
X995299Y1460881D02*
D03*
X1079881D02*
D03*
X1099820Y1457960D02*
D03*
X739140Y1113790D02*
D03*
X740410Y1097280D02*
D03*
X1103630Y925830D02*
D03*
X1088390Y770890D02*
D03*
X1153160Y440690D02*
D03*
X1049020Y576580D02*
D03*
X1038860Y763270D02*
D03*
X1046480Y1042670D02*
D03*
Y1062990D02*
D03*
X1050290Y939800D02*
D03*
X938530Y1325880D02*
D03*
X1109980Y1243330D02*
D03*
X1084580Y1267460D02*
D03*
X1018540Y1240790D02*
D03*
X731520Y1003300D02*
D03*
X712470D02*
D03*
X690880Y889000D02*
D03*
X737870Y977900D02*
D03*
X1076960Y426720D02*
D03*
X1064260Y403860D02*
D03*
X570230Y1699260D02*
D03*
X882650Y948690D02*
D03*
X551180Y1687830D02*
D03*
X554355Y1665605D02*
D03*
X571500Y1008380D02*
D03*
Y784860D02*
D03*
X548640Y1261110D02*
D03*
X510540Y1652270D02*
D03*
X527050Y1666240D02*
D03*
X1002030Y1156970D02*
D03*
X911860Y1304290D02*
D03*
X595630Y762000D02*
D03*
X601980Y1242060D02*
D03*
X565150Y1437640D02*
D03*
X1120140Y1789430D02*
D03*
X1518920Y1174750D02*
D03*
X1576070Y1449070D02*
D03*
X1485900Y1635760D02*
D03*
X1465580Y1885950D02*
D03*
X346710Y593090D02*
D03*
X327660Y420370D02*
D03*
X323850Y396240D02*
D03*
X330200Y877570D02*
D03*
X120650Y796290D02*
D03*
X300990Y1085850D02*
D03*
X290830Y1042670D02*
D03*
X270002Y1301242D02*
D03*
X285750Y1483360D02*
D03*
X124460Y1692910D02*
D03*
X1498600Y994410D02*
D03*
X1557020Y725170D02*
D03*
X1517650Y271780D02*
D03*
X852170Y1672590D02*
D03*
X849630Y1633220D02*
D03*
X666880Y1677670D02*
D03*
X656720Y1634490D02*
D03*
X1291590Y299720D02*
D03*
X802640Y915670D02*
D03*
X1374140Y360680D02*
D03*
X1319950Y809410D02*
D03*
X1296670Y515620D02*
D03*
X1299210Y711200D02*
D03*
X1258570Y610870D02*
D03*
X796290Y953770D02*
D03*
X847090Y932180D02*
D03*
X1294130Y800100D02*
D03*
X1308100Y346710D02*
D03*
X1261110Y861060D02*
D03*
X824230Y961390D02*
D03*
X775970Y904240D02*
D03*
X1294130Y1239520D02*
D03*
X1278890Y831850D02*
D03*
Y1258570D02*
D03*
X1311910Y1718310D02*
D03*
X979170Y662940D02*
D03*
X844550Y889000D02*
D03*
X863600Y920750D02*
D03*
X927100Y857250D02*
D03*
X843280Y756920D02*
D03*
X755650Y633730D02*
D03*
X1327150Y1701800D02*
D03*
X862330Y866140D02*
D03*
X861060Y723900D02*
D03*
X839470Y623570D02*
D03*
X810260Y596900D02*
D03*
X789940Y1071880D02*
D03*
X782320Y1009650D02*
D03*
X1037590Y1327150D02*
D03*
X762000Y1093470D02*
D03*
X754380Y1009650D02*
D03*
X1146810Y359410D02*
D03*
X537160Y326440D02*
D03*
X591820Y401320D02*
D03*
X604520Y261620D02*
D03*
X962660Y450850D02*
D03*
X1070610Y679450D02*
D03*
X1093470Y718820D02*
D03*
X1126490Y631190D02*
D03*
X1099820Y661670D02*
D03*
X519430Y758190D02*
D03*
X930910Y560070D02*
D03*
X1005840Y635000D02*
D03*
X1125220Y789940D02*
D03*
X1126490Y853440D02*
D03*
X523240Y777240D02*
D03*
X552450Y345440D02*
D03*
X530860Y1230630D02*
D03*
X552450Y805180D02*
D03*
X574040Y508000D02*
D03*
X961390D02*
D03*
X520750Y1210360D02*
D03*
X582930Y739140D02*
D03*
X828040Y1027430D02*
D03*
X871220Y1024890D02*
D03*
X1202690Y1014730D02*
D03*
X777240Y864870D02*
D03*
X753110Y880110D02*
D03*
X816610Y864870D02*
D03*
X828040Y899160D02*
D03*
X902970Y957580D02*
D03*
X576580Y722630D02*
D03*
X875030Y1267460D02*
D03*
X972820Y1130300D02*
D03*
X1103630Y1029970D02*
D03*
X544830Y129540D02*
D03*
X454660Y93980D02*
D03*
X565150D02*
D03*
X1075690Y1802130D02*
D03*
X1395730Y196850D02*
D03*
X1383030Y219710D02*
D03*
X1452880Y270510D02*
D03*
X1454150Y508000D02*
D03*
X1380490Y457200D02*
D03*
X1400810Y478790D02*
D03*
X1456690Y538480D02*
D03*
X1400810Y643890D02*
D03*
X1383030Y661670D02*
D03*
X1455420Y717550D02*
D03*
X1398270Y878840D02*
D03*
X1381760Y906780D02*
D03*
X1456690Y953770D02*
D03*
X1400810Y1087120D02*
D03*
X1385570Y1108710D02*
D03*
X1455420Y1163320D02*
D03*
X1400810Y1323340D02*
D03*
X1383030Y1348740D02*
D03*
X1459230Y1412240D02*
D03*
X1400810Y1541780D02*
D03*
X1383030Y1564640D02*
D03*
X1454150Y1616710D02*
D03*
X1400810Y1780540D02*
D03*
X1383030Y1809750D02*
D03*
X1452880Y1855470D02*
D03*
X424180Y1821180D02*
D03*
X448310Y1802130D02*
D03*
X391160Y1723390D02*
D03*
X429260Y1587500D02*
D03*
X449580Y1555750D02*
D03*
X392430Y1485900D02*
D03*
X429260Y1379220D02*
D03*
X449580Y1356360D02*
D03*
X392430Y1276350D02*
D03*
X431800Y1145540D02*
D03*
X450850Y1118870D02*
D03*
X392430Y1046480D02*
D03*
X431800Y922020D02*
D03*
X450850Y897890D02*
D03*
X374650Y845820D02*
D03*
X431800Y666750D02*
D03*
X447040Y643890D02*
D03*
X392430Y567690D02*
D03*
X431800Y477520D02*
D03*
X452120Y453390D02*
D03*
X391160Y381000D02*
D03*
X452120Y157480D02*
D03*
X302260Y172720D02*
D03*
X431800Y236220D02*
D03*
D39*
X412750Y713232D02*
D03*
X415290Y1421130D02*
D03*
X1129030Y1875282D02*
D03*
X1341120Y1400048D02*
D03*
X1337310Y1866900D02*
D03*
X1341120Y1162050D02*
D03*
X1337310Y1626108D02*
D03*
X1341120Y504190D02*
D03*
Y268478D02*
D03*
Y715518D02*
D03*
X419100Y286512D02*
D03*
X495300Y178562D02*
D03*
X499110Y418592D02*
D03*
X412750Y527050D02*
D03*
X499110Y603250D02*
D03*
Y845820D02*
D03*
X412750Y965962D02*
D03*
X499110Y1067562D02*
D03*
X414020Y1192022D02*
D03*
X494030Y1297432D02*
D03*
Y1498600D02*
D03*
X415290Y1631442D02*
D03*
X494030Y1733042D02*
D03*
X415290Y1865630D02*
D03*
X698500Y1777492D02*
D03*
X960120Y1766570D02*
D03*
X1416050Y144018D02*
D03*
Y386588D02*
D03*
Y596138D02*
D03*
Y833628D02*
D03*
X1341120Y955548D02*
D03*
X1416050Y1047750D02*
D03*
Y1280668D02*
D03*
Y1497838D02*
D03*
Y1734820D02*
D03*
D40*
X361442Y1210360D02*
D03*
Y1229360D02*
D03*
Y1248360D02*
D03*
X363220Y326440D02*
D03*
Y345440D02*
D03*
Y364440D02*
D03*
X361442Y768870D02*
D03*
Y787870D02*
D03*
Y806870D02*
D03*
Y1654860D02*
D03*
Y1673860D02*
D03*
Y1692860D02*
D03*
X1469898Y363170D02*
D03*
Y344170D02*
D03*
Y325170D02*
D03*
Y809410D02*
D03*
Y790410D02*
D03*
Y771410D02*
D03*
Y1258050D02*
D03*
Y1239050D02*
D03*
Y1220050D02*
D03*
Y1708900D02*
D03*
Y1689900D02*
D03*
Y1670900D02*
D03*
D41*
X147320Y1179360D02*
D03*
Y1279360D02*
D03*
X149098Y295440D02*
D03*
Y395440D02*
D03*
X147320Y737870D02*
D03*
Y837870D02*
D03*
Y1623860D02*
D03*
Y1723860D02*
D03*
X1684020Y394170D02*
D03*
Y294170D02*
D03*
Y840410D02*
D03*
Y740410D02*
D03*
Y1289050D02*
D03*
Y1189050D02*
D03*
Y1739900D02*
D03*
Y1639900D02*
D03*
D42*
X935482Y1617980D02*
D03*
X741810Y1626870D02*
D03*
X825500Y1786890D02*
D03*
D43*
X743050Y64230D02*
D03*
X768450D02*
D03*
X793850D02*
D03*
X819250D02*
D03*
X844650D02*
D03*
X870050D02*
D03*
X895450D02*
D03*
X920850D02*
D03*
X946250D02*
D03*
X971650D02*
D03*
X997050D02*
D03*
X1022450D02*
D03*
X1047850D02*
D03*
X1073250D02*
D03*
X1098650D02*
D03*
X743050Y311930D02*
D03*
X768450D02*
D03*
X793850D02*
D03*
X819250D02*
D03*
X844650D02*
D03*
X870050D02*
D03*
X895450D02*
D03*
X920850D02*
D03*
X946250D02*
D03*
X971650D02*
D03*
X997050D02*
D03*
X1022450D02*
D03*
X1047850D02*
D03*
X1073250D02*
D03*
X1098650D02*
D03*
D44*
X755650Y1864360D02*
D03*
Y1934360D02*
D03*
D45*
X60960Y146050D02*
D03*
Y258064D02*
D03*
Y370078D02*
D03*
Y482092D02*
D03*
Y594106D02*
D03*
Y706120D02*
D03*
Y818134D02*
D03*
Y930148D02*
D03*
Y1042162D02*
D03*
Y1154176D02*
D03*
Y1266190D02*
D03*
Y1378204D02*
D03*
Y1490218D02*
D03*
Y1602232D02*
D03*
Y1714246D02*
D03*
Y1826260D02*
D03*
X1770380Y1877060D02*
D03*
Y1765046D02*
D03*
Y1653032D02*
D03*
Y1541018D02*
D03*
Y1429004D02*
D03*
Y1316990D02*
D03*
Y1204976D02*
D03*
Y1092962D02*
D03*
Y980948D02*
D03*
Y868934D02*
D03*
Y756920D02*
D03*
Y644906D02*
D03*
Y532892D02*
D03*
Y420878D02*
D03*
Y308864D02*
D03*
Y196850D02*
D03*
D46*
X60960Y171450D02*
D03*
Y196850D02*
D03*
Y283464D02*
D03*
Y308864D02*
D03*
Y395478D02*
D03*
Y420878D02*
D03*
Y507492D02*
D03*
Y532892D02*
D03*
Y619506D02*
D03*
Y644906D02*
D03*
Y731520D02*
D03*
Y756920D02*
D03*
Y843534D02*
D03*
Y868934D02*
D03*
Y955548D02*
D03*
Y980948D02*
D03*
Y1067562D02*
D03*
Y1092962D02*
D03*
Y1179576D02*
D03*
Y1204976D02*
D03*
Y1291590D02*
D03*
Y1316990D02*
D03*
Y1403604D02*
D03*
Y1429004D02*
D03*
Y1515618D02*
D03*
Y1541018D02*
D03*
Y1627632D02*
D03*
Y1653032D02*
D03*
Y1739646D02*
D03*
Y1765046D02*
D03*
Y1851660D02*
D03*
Y1877060D02*
D03*
X1770380Y1851660D02*
D03*
Y1826260D02*
D03*
Y1739646D02*
D03*
Y1714246D02*
D03*
Y1627632D02*
D03*
Y1602232D02*
D03*
Y1515618D02*
D03*
Y1490218D02*
D03*
Y1403604D02*
D03*
Y1378204D02*
D03*
Y1291590D02*
D03*
Y1266190D02*
D03*
Y1179576D02*
D03*
Y1154176D02*
D03*
Y1067562D02*
D03*
Y1042162D02*
D03*
Y955548D02*
D03*
Y930148D02*
D03*
Y843534D02*
D03*
Y818134D02*
D03*
Y731520D02*
D03*
Y706120D02*
D03*
Y619506D02*
D03*
Y594106D02*
D03*
Y507492D02*
D03*
Y482092D02*
D03*
Y395478D02*
D03*
Y370078D02*
D03*
Y283464D02*
D03*
Y258064D02*
D03*
Y171450D02*
D03*
Y146050D02*
D03*
D47*
X364290Y64770D02*
D03*
X288290D02*
D03*
D48*
X341630Y238760D02*
D03*
X291630D02*
D03*
X338290Y681990D02*
D03*
X288290D02*
D03*
X338290Y1123950D02*
D03*
X288290D02*
D03*
X338290Y1567180D02*
D03*
X288290D02*
D03*
X1492250Y449580D02*
D03*
X1542250D02*
D03*
X1493050Y896620D02*
D03*
X1543050D02*
D03*
X1493050Y1344930D02*
D03*
X1543050D02*
D03*
X1493050Y1797050D02*
D03*
X1543050D02*
D03*
D49*
X646430Y1106170D02*
D03*
X1154430D02*
D03*
D50*
X671830D02*
D03*
X646430Y1080770D02*
D03*
X671830D02*
D03*
X646430Y1055370D02*
D03*
X671830D02*
D03*
X646430Y1029970D02*
D03*
X671830D02*
D03*
X646430Y1004570D02*
D03*
X671830D02*
D03*
X646430Y979170D02*
D03*
X671830D02*
D03*
X646430Y953770D02*
D03*
X671830D02*
D03*
X646430Y928370D02*
D03*
X671830D02*
D03*
X646430Y902970D02*
D03*
X671830D02*
D03*
X646430Y877570D02*
D03*
X671830D02*
D03*
X646430Y852170D02*
D03*
X671830D02*
D03*
X646430Y826770D02*
D03*
X671830D02*
D03*
X646430Y801370D02*
D03*
X671830D02*
D03*
X646430Y775970D02*
D03*
X671830D02*
D03*
X646430Y750570D02*
D03*
X671830D02*
D03*
X646430Y725170D02*
D03*
X671830D02*
D03*
X646430Y699770D02*
D03*
X671830D02*
D03*
X646430Y674370D02*
D03*
X671830D02*
D03*
X646430Y648970D02*
D03*
X671830D02*
D03*
X646430Y623570D02*
D03*
X671830D02*
D03*
X646430Y598170D02*
D03*
X671830D02*
D03*
X646430Y572770D02*
D03*
X671830D02*
D03*
X646430Y547370D02*
D03*
X671830D02*
D03*
X646430Y521970D02*
D03*
X671830D02*
D03*
X646430Y496570D02*
D03*
X671830D02*
D03*
X1179830Y1106170D02*
D03*
X1154430Y1080770D02*
D03*
X1179830D02*
D03*
X1154430Y1055370D02*
D03*
X1179830D02*
D03*
X1154430Y1029970D02*
D03*
X1179830D02*
D03*
X1154430Y1004570D02*
D03*
X1179830D02*
D03*
X1154430Y979170D02*
D03*
X1179830D02*
D03*
X1154430Y953770D02*
D03*
X1179830D02*
D03*
X1154430Y928370D02*
D03*
X1179830D02*
D03*
X1154430Y902970D02*
D03*
X1179830D02*
D03*
X1154430Y877570D02*
D03*
X1179830D02*
D03*
X1154430Y852170D02*
D03*
X1179830D02*
D03*
X1154430Y826770D02*
D03*
X1179830D02*
D03*
X1154430Y801370D02*
D03*
X1179830D02*
D03*
X1154430Y775970D02*
D03*
X1179830D02*
D03*
X1154430Y750570D02*
D03*
X1179830D02*
D03*
X1154430Y725170D02*
D03*
X1179830D02*
D03*
X1154430Y699770D02*
D03*
X1179830D02*
D03*
X1154430Y674370D02*
D03*
X1179830D02*
D03*
X1154430Y648970D02*
D03*
X1179830D02*
D03*
X1154430Y623570D02*
D03*
X1179830D02*
D03*
X1154430Y598170D02*
D03*
X1179830D02*
D03*
X1154430Y572770D02*
D03*
X1179830D02*
D03*
X1154430Y547370D02*
D03*
X1179830D02*
D03*
X1154430Y521970D02*
D03*
X1179830D02*
D03*
X1154430Y496570D02*
D03*
X1179830D02*
D03*
D51*
X628780Y1661160D02*
D03*
Y1670160D02*
D03*
X634780Y1665660D02*
D03*
X640780Y1661160D02*
D03*
Y1670160D02*
D03*
X819150Y1657240D02*
D03*
Y1666240D02*
D03*
X825150Y1661740D02*
D03*
X831150Y1657240D02*
D03*
Y1666240D02*
D03*
X1091040Y1758950D02*
D03*
X1082040D02*
D03*
X1086540Y1764950D02*
D03*
X1091040Y1770950D02*
D03*
X1082040D02*
D03*
D52*
X1120140Y1668381D02*
D03*
Y1643380D02*
D03*
Y1618379D02*
D03*
Y1593378D02*
D03*
X1183640Y1668381D02*
D03*
Y1643380D02*
D03*
Y1618379D02*
D03*
Y1593378D02*
D03*
M02*
