G04 Layer_Color=16711935*
%FSLAX44Y44*%
%MOMM*%
G71*
G01*
G75*
%ADD37C,1.3716*%
%ADD38C,1.2700*%
%ADD40C,1.3970*%
%ADD41C,4.9784*%
%ADD47C,1.4732*%
%ADD52C,1.4986*%
%ADD69C,0.2032*%
%ADD70R,1.4732X1.4732*%
%ADD71R,1.4732X1.4732*%
%ADD72C,2.1336*%
%ADD73C,5.7032*%
%ADD74R,1.8288X1.8288*%
%ADD75C,1.8288*%
%ADD76C,3.2032*%
%ADD77R,1.7112X1.7112*%
%ADD78C,1.7112*%
G36*
X121956Y756666D02*
X121992Y756666D01*
X122022Y756662D01*
X122053Y756659D01*
X122088Y756652D01*
X122124Y756647D01*
X122154Y756639D01*
X122184Y756634D01*
X122218Y756622D01*
X122253Y756612D01*
X122281Y756601D01*
X122310Y756591D01*
X122342Y756575D01*
X122375Y756561D01*
X122402Y756545D01*
X122429Y756532D01*
X122459Y756512D01*
X122490Y756494D01*
X122514Y756475D01*
X122540Y756458D01*
X122567Y756434D01*
X122596Y756412D01*
X122617Y756390D01*
X122640Y756370D01*
X123612Y755398D01*
X318770D01*
X318903Y755389D01*
X319034Y755363D01*
X319160Y755321D01*
X319279Y755262D01*
X319390Y755188D01*
X319490Y755100D01*
X319578Y755000D01*
X319652Y754889D01*
X319711Y754770D01*
X319753Y754643D01*
X319779Y754513D01*
X319788Y754380D01*
Y752262D01*
X357590Y714460D01*
X357678Y714360D01*
X357752Y714249D01*
X357811Y714130D01*
X357854Y714004D01*
X357879Y713873D01*
X357888Y713740D01*
Y666750D01*
X357879Y666617D01*
X357854Y666487D01*
X357811Y666360D01*
X357752Y666241D01*
X357678Y666130D01*
X357590Y666030D01*
X357490Y665942D01*
X357379Y665868D01*
X357260Y665809D01*
X357133Y665767D01*
X357003Y665741D01*
X356870Y665732D01*
X322580D01*
X322447Y665741D01*
X322317Y665767D01*
X322190Y665809D01*
X322071Y665868D01*
X321960Y665942D01*
X321860Y666030D01*
X320590Y667300D01*
X320502Y667400D01*
X320428Y667511D01*
X320369Y667630D01*
X320326Y667757D01*
X320300Y667887D01*
X320292Y668020D01*
Y697482D01*
X320040D01*
X319907Y697490D01*
X319776Y697516D01*
X319650Y697559D01*
X319531Y697618D01*
X319420Y697692D01*
X319320Y697780D01*
X298028Y719072D01*
X160442D01*
X153120Y711750D01*
X153020Y711662D01*
X152909Y711588D01*
X152790Y711529D01*
X152663Y711487D01*
X152533Y711460D01*
X152400Y711452D01*
X130810D01*
X130677Y711460D01*
X130547Y711487D01*
X130420Y711529D01*
X130301Y711588D01*
X130190Y711662D01*
X130090Y711750D01*
X130002Y711850D01*
X129928Y711961D01*
X129869Y712080D01*
X129826Y712206D01*
X129801Y712337D01*
X129792Y712470D01*
Y713318D01*
X117390Y725720D01*
X117302Y725820D01*
X117228Y725931D01*
X117169Y726050D01*
X117127Y726177D01*
X117100Y726307D01*
X117092Y726440D01*
Y748030D01*
X117094Y748066D01*
X117094Y748102D01*
X117099Y748132D01*
X117100Y748163D01*
X117108Y748198D01*
X117113Y748234D01*
X117121Y748263D01*
X117127Y748294D01*
X117138Y748328D01*
X117148Y748363D01*
X117160Y748391D01*
X117169Y748420D01*
X117185Y748452D01*
X117199Y748485D01*
X121009Y756105D01*
X121025Y756132D01*
X121038Y756159D01*
X121058Y756189D01*
X121076Y756220D01*
X121095Y756244D01*
X121112Y756270D01*
X121136Y756297D01*
X121158Y756326D01*
X121180Y756347D01*
X121200Y756370D01*
X121227Y756394D01*
X121253Y756419D01*
X121277Y756438D01*
X121300Y756458D01*
X121330Y756478D01*
X121359Y756500D01*
X121386Y756515D01*
X121411Y756532D01*
X121443Y756548D01*
X121475Y756566D01*
X121503Y756577D01*
X121530Y756591D01*
X121565Y756602D01*
X121598Y756616D01*
X121628Y756624D01*
X121657Y756634D01*
X121692Y756640D01*
X121727Y756650D01*
X121757Y756654D01*
X121787Y756659D01*
X121823Y756662D01*
X121859Y756666D01*
X121889Y756666D01*
X121920Y756668D01*
X121956Y756666D01*
D02*
G37*
G36*
X86493Y769360D02*
X86623Y769333D01*
X86750Y769291D01*
X86869Y769232D01*
X86980Y769158D01*
X87080Y769070D01*
X109642Y746508D01*
X110490D01*
X110623Y746499D01*
X110753Y746473D01*
X110880Y746431D01*
X110999Y746372D01*
X111110Y746298D01*
X111210Y746210D01*
X111298Y746110D01*
X111372Y745999D01*
X111431Y745880D01*
X111474Y745753D01*
X111500Y745623D01*
X111508Y745490D01*
Y697652D01*
X111760Y697400D01*
X113580Y699220D01*
X113680Y699308D01*
X113791Y699382D01*
X113910Y699441D01*
X114037Y699483D01*
X114167Y699510D01*
X114300Y699518D01*
X300990D01*
X301123Y699510D01*
X301254Y699483D01*
X301380Y699441D01*
X301499Y699382D01*
X301610Y699308D01*
X301710Y699220D01*
X308060Y692870D01*
X308148Y692770D01*
X308222Y692659D01*
X308281Y692540D01*
X308323Y692413D01*
X308349Y692283D01*
X308358Y692150D01*
X308349Y692017D01*
X308323Y691887D01*
X308281Y691760D01*
X308222Y691641D01*
X308148Y691530D01*
X308060Y691430D01*
X304548Y687918D01*
Y666750D01*
X304540Y666617D01*
X304513Y666487D01*
X304471Y666360D01*
X304412Y666241D01*
X304338Y666130D01*
X304250Y666030D01*
X304150Y665942D01*
X304039Y665868D01*
X303920Y665809D01*
X303794Y665767D01*
X303663Y665741D01*
X303530Y665732D01*
X111508D01*
Y621030D01*
X111500Y620897D01*
X111474Y620766D01*
X111431Y620640D01*
X111372Y620521D01*
X111298Y620410D01*
X111210Y620310D01*
X92160Y601260D01*
X92060Y601172D01*
X91949Y601098D01*
X91830Y601039D01*
X91704Y600997D01*
X91573Y600970D01*
X91440Y600962D01*
X67310D01*
X67177Y600970D01*
X67046Y600997D01*
X66920Y601039D01*
X66801Y601098D01*
X66690Y601172D01*
X66590Y601260D01*
X59268Y608582D01*
X52070D01*
X51937Y608591D01*
X51807Y608616D01*
X51680Y608659D01*
X51561Y608718D01*
X51450Y608792D01*
X51350Y608880D01*
X51262Y608980D01*
X51188Y609091D01*
X51129Y609210D01*
X51087Y609337D01*
X51061Y609467D01*
X51052Y609600D01*
Y628650D01*
X51061Y628783D01*
X51087Y628913D01*
X51129Y629040D01*
X51188Y629159D01*
X51262Y629270D01*
X51350Y629370D01*
X58970Y636990D01*
X59070Y637078D01*
X59181Y637152D01*
X59300Y637211D01*
X59426Y637253D01*
X59557Y637280D01*
X59690Y637288D01*
X78318D01*
X78992Y637962D01*
Y743202D01*
X68580D01*
X68447Y743211D01*
X68316Y743236D01*
X68190Y743279D01*
X68071Y743338D01*
X67960Y743412D01*
X67860Y743500D01*
X65618Y745742D01*
X53340D01*
X53207Y745751D01*
X53077Y745777D01*
X52950Y745819D01*
X52831Y745878D01*
X52720Y745952D01*
X52620Y746040D01*
X48810Y749850D01*
X48722Y749950D01*
X48648Y750061D01*
X48589Y750180D01*
X48547Y750306D01*
X48520Y750437D01*
X48512Y750570D01*
Y754380D01*
X48520Y754513D01*
X48547Y754643D01*
X48589Y754770D01*
X48648Y754889D01*
X48722Y755000D01*
X48810Y755100D01*
X51052Y757342D01*
Y768350D01*
X51061Y768483D01*
X51087Y768614D01*
X51129Y768740D01*
X51188Y768859D01*
X51262Y768970D01*
X51350Y769070D01*
X51450Y769158D01*
X51561Y769232D01*
X51680Y769291D01*
X51807Y769333D01*
X51937Y769360D01*
X52070Y769368D01*
X86360D01*
X86493Y769360D01*
D02*
G37*
G36*
X1693043Y768090D02*
X1693174Y768064D01*
X1693300Y768021D01*
X1693419Y767962D01*
X1693530Y767888D01*
X1693630Y767800D01*
X1709842Y751588D01*
X1743710D01*
X1743843Y751580D01*
X1743974Y751553D01*
X1744100Y751511D01*
X1744219Y751452D01*
X1744330Y751378D01*
X1744430Y751290D01*
X1750482Y745238D01*
X1753870D01*
X1753916Y745235D01*
X1753962Y745234D01*
X1781902Y742694D01*
X1781922Y742691D01*
X1781943Y742690D01*
X1781988Y742681D01*
X1782034Y742673D01*
X1782053Y742667D01*
X1782074Y742663D01*
X1782117Y742649D01*
X1782162Y742636D01*
X1782180Y742627D01*
X1782200Y742621D01*
X1782241Y742600D01*
X1782283Y742581D01*
X1782301Y742571D01*
X1782319Y742562D01*
X1782357Y742536D01*
X1782397Y742512D01*
X1782413Y742499D01*
X1782430Y742488D01*
X1782464Y742457D01*
X1782500Y742428D01*
X1782514Y742413D01*
X1782530Y742400D01*
X1782560Y742365D01*
X1782592Y742332D01*
X1782604Y742315D01*
X1782618Y742300D01*
X1782643Y742262D01*
X1782671Y742224D01*
X1782681Y742206D01*
X1782692Y742189D01*
X1782712Y742148D01*
X1782734Y742107D01*
X1782742Y742088D01*
X1782751Y742070D01*
X1782766Y742026D01*
X1782782Y741983D01*
X1782787Y741963D01*
X1782793Y741944D01*
X1782802Y741898D01*
X1782813Y741853D01*
X1782816Y741833D01*
X1782820Y741813D01*
X1782823Y741767D01*
X1782827Y741721D01*
X1782827Y741701D01*
X1782828Y741680D01*
X1782825Y741634D01*
X1782824Y741588D01*
X1782821Y741568D01*
X1782820Y741547D01*
X1782811Y741502D01*
X1782803Y741456D01*
X1782798Y741437D01*
X1782793Y741416D01*
X1782779Y741373D01*
X1782766Y741329D01*
X1782757Y741310D01*
X1782751Y741290D01*
X1782730Y741249D01*
X1782711Y741207D01*
X1782701Y741189D01*
X1782692Y741171D01*
X1782666Y741133D01*
X1782642Y741093D01*
X1782629Y741077D01*
X1782618Y741060D01*
X1782587Y741025D01*
X1782558Y740990D01*
X1782543Y740975D01*
X1782530Y740960D01*
X1781558Y739988D01*
Y721360D01*
X1781550Y721227D01*
X1781523Y721096D01*
X1781481Y720970D01*
X1781422Y720851D01*
X1781348Y720740D01*
X1781260Y720640D01*
X1781160Y720552D01*
X1781049Y720478D01*
X1780930Y720419D01*
X1780804Y720377D01*
X1780673Y720350D01*
X1780540Y720342D01*
X1754292D01*
X1752348Y718398D01*
Y606808D01*
X1772920D01*
X1773053Y606800D01*
X1773183Y606773D01*
X1773310Y606731D01*
X1773429Y606672D01*
X1773540Y606598D01*
X1773640Y606510D01*
X1782530Y597620D01*
X1782618Y597520D01*
X1782692Y597409D01*
X1782751Y597290D01*
X1782772Y597227D01*
X1782793Y597164D01*
X1782820Y597033D01*
X1782828Y596900D01*
Y588010D01*
X1782820Y587877D01*
X1782793Y587747D01*
X1782751Y587620D01*
X1782692Y587501D01*
X1782618Y587390D01*
X1782530Y587290D01*
X1777450Y582210D01*
X1777350Y582122D01*
X1777239Y582048D01*
X1777120Y581989D01*
X1776994Y581946D01*
X1776863Y581921D01*
X1776730Y581912D01*
X1731010D01*
X1730877Y581921D01*
X1730746Y581946D01*
X1730620Y581989D01*
X1730501Y582048D01*
X1730390Y582122D01*
X1730290Y582210D01*
X1715050Y597450D01*
X1714962Y597550D01*
X1714888Y597661D01*
X1714829Y597780D01*
X1714787Y597906D01*
X1714760Y598037D01*
X1714752Y598170D01*
Y713992D01*
X1670050D01*
X1669917Y714000D01*
X1669787Y714026D01*
X1669660Y714069D01*
X1669541Y714128D01*
X1669430Y714202D01*
X1669330Y714290D01*
X1657900Y725720D01*
X1657812Y725820D01*
X1657738Y725931D01*
X1657679Y726050D01*
X1657637Y726177D01*
X1657610Y726307D01*
X1657602Y726440D01*
Y756498D01*
X1655360Y758740D01*
X1655272Y758840D01*
X1655198Y758951D01*
X1655139Y759070D01*
X1655096Y759196D01*
X1655070Y759327D01*
X1655062Y759460D01*
X1655070Y759593D01*
X1655096Y759724D01*
X1655139Y759850D01*
X1655198Y759969D01*
X1655272Y760080D01*
X1655360Y760180D01*
X1662980Y767800D01*
X1663080Y767888D01*
X1663191Y767962D01*
X1663310Y768021D01*
X1663436Y768064D01*
X1663567Y768090D01*
X1663700Y768098D01*
X1692910D01*
X1693043Y768090D01*
D02*
G37*
G36*
X1508893Y912869D02*
X1509023Y912843D01*
X1509150Y912801D01*
X1509269Y912742D01*
X1509380Y912668D01*
X1509480Y912580D01*
X1509568Y912480D01*
X1509642Y912369D01*
X1509701Y912250D01*
X1509743Y912123D01*
X1509769Y911993D01*
X1509778Y911860D01*
Y864022D01*
X1516802Y856998D01*
X1662430D01*
X1662563Y856990D01*
X1662693Y856964D01*
X1662820Y856921D01*
X1662939Y856862D01*
X1663050Y856788D01*
X1663150Y856700D01*
X1663700Y856150D01*
X1670600Y863050D01*
X1670700Y863138D01*
X1670811Y863212D01*
X1670930Y863271D01*
X1671057Y863314D01*
X1671187Y863339D01*
X1671320Y863348D01*
X1705610D01*
X1705743Y863339D01*
X1705874Y863314D01*
X1706000Y863271D01*
X1706119Y863212D01*
X1706230Y863138D01*
X1706330Y863050D01*
X1708870Y860510D01*
X1708958Y860410D01*
X1709032Y860299D01*
X1709091Y860180D01*
X1709133Y860053D01*
X1709160Y859923D01*
X1709168Y859790D01*
Y820420D01*
X1709160Y820287D01*
X1709133Y820156D01*
X1709091Y820030D01*
X1709032Y819911D01*
X1708958Y819800D01*
X1708870Y819700D01*
X1708770Y819612D01*
X1708659Y819538D01*
X1708540Y819479D01*
X1708414Y819436D01*
X1708283Y819410D01*
X1708150Y819402D01*
X1506220D01*
X1506087Y819410D01*
X1505957Y819436D01*
X1505830Y819479D01*
X1505711Y819538D01*
X1505600Y819612D01*
X1505500Y819700D01*
X1475318Y849882D01*
X1474470D01*
X1474459Y849883D01*
X1474449Y849882D01*
X1474393Y849887D01*
X1474337Y849891D01*
X1474327Y849893D01*
X1474316Y849893D01*
X1474261Y849906D01*
X1474207Y849917D01*
X1474196Y849920D01*
X1474186Y849922D01*
X1474133Y849941D01*
X1474080Y849959D01*
X1474071Y849964D01*
X1474061Y849968D01*
X1474011Y849993D01*
X1473961Y850018D01*
X1473952Y850024D01*
X1473943Y850029D01*
X1473897Y850061D01*
X1473850Y850092D01*
X1473842Y850099D01*
X1473833Y850105D01*
X1473792Y850143D01*
X1473750Y850180D01*
X1473743Y850188D01*
X1473735Y850195D01*
X1473699Y850238D01*
X1473662Y850280D01*
X1473656Y850289D01*
X1473649Y850297D01*
X1473619Y850344D01*
X1473588Y850391D01*
X1473584Y850400D01*
X1473578Y850409D01*
X1473554Y850460D01*
X1473529Y850510D01*
X1473526Y850520D01*
X1473521Y850530D01*
X1473505Y850583D01*
X1473486Y850637D01*
X1473484Y850647D01*
X1473481Y850657D01*
X1473471Y850712D01*
X1473461Y850767D01*
X1473460Y850778D01*
X1473458Y850788D01*
X1473456Y850844D01*
X1473452Y850900D01*
X1473452Y850911D01*
X1473452Y850921D01*
X1474722Y911881D01*
X1474727Y911937D01*
X1474731Y911993D01*
X1474733Y912003D01*
X1474733Y912014D01*
X1474745Y912068D01*
X1474756Y912123D01*
X1474760Y912134D01*
X1474762Y912144D01*
X1474781Y912196D01*
X1474799Y912250D01*
X1474804Y912259D01*
X1474808Y912269D01*
X1474833Y912319D01*
X1474858Y912369D01*
X1474864Y912378D01*
X1474869Y912387D01*
X1474901Y912433D01*
X1474932Y912480D01*
X1474939Y912488D01*
X1474945Y912496D01*
X1474983Y912538D01*
X1475020Y912580D01*
X1475028Y912587D01*
X1475035Y912595D01*
X1475078Y912631D01*
X1475120Y912668D01*
X1475129Y912674D01*
X1475137Y912681D01*
X1475185Y912711D01*
X1475231Y912742D01*
X1475240Y912746D01*
X1475249Y912752D01*
X1475300Y912776D01*
X1475350Y912801D01*
X1475360Y912804D01*
X1475370Y912809D01*
X1475424Y912826D01*
X1475477Y912843D01*
X1475487Y912846D01*
X1475497Y912849D01*
X1475553Y912859D01*
X1475607Y912869D01*
X1475618Y912870D01*
X1475628Y912872D01*
X1475685Y912875D01*
X1475740Y912878D01*
X1508760D01*
X1508893Y912869D01*
D02*
G37*
G36*
X49663Y994149D02*
X49794Y994124D01*
X49920Y994081D01*
X50039Y994022D01*
X50150Y993948D01*
X50250Y993860D01*
X52492Y991618D01*
X93980D01*
X94113Y991609D01*
X94243Y991583D01*
X94370Y991541D01*
X94489Y991482D01*
X94600Y991408D01*
X94700Y991320D01*
X112480Y973540D01*
X112568Y973440D01*
X112642Y973329D01*
X112701Y973210D01*
X112744Y973083D01*
X112769Y972953D01*
X112778Y972820D01*
Y872238D01*
X135890D01*
X136023Y872230D01*
X136153Y872204D01*
X136280Y872161D01*
X136399Y872102D01*
X136510Y872028D01*
X136610Y871940D01*
X143932Y864618D01*
X154940D01*
X155073Y864610D01*
X155204Y864584D01*
X155330Y864541D01*
X155449Y864482D01*
X155560Y864408D01*
X155660Y864320D01*
X173440Y846540D01*
X173528Y846440D01*
X173602Y846329D01*
X173661Y846210D01*
X173703Y846084D01*
X173729Y845953D01*
X173738Y845820D01*
Y826770D01*
X173729Y826637D01*
X173703Y826507D01*
X173661Y826380D01*
X173602Y826261D01*
X173528Y826150D01*
X173440Y826050D01*
X173340Y825962D01*
X173229Y825888D01*
X173110Y825829D01*
X172983Y825787D01*
X172853Y825760D01*
X172720Y825752D01*
X170602D01*
X155660Y810810D01*
X155560Y810722D01*
X155449Y810648D01*
X155330Y810589D01*
X155204Y810546D01*
X155073Y810520D01*
X154940Y810512D01*
X154807Y810520D01*
X154677Y810546D01*
X154550Y810589D01*
X154431Y810648D01*
X154320Y810722D01*
X154220Y810810D01*
X153248Y811782D01*
X132080D01*
X131947Y811790D01*
X131817Y811816D01*
X131690Y811859D01*
X131571Y811918D01*
X131460Y811992D01*
X131360Y812080D01*
X131272Y812180D01*
X131198Y812291D01*
X131139Y812410D01*
X131096Y812536D01*
X131070Y812667D01*
X131062Y812800D01*
Y816188D01*
X121498Y825752D01*
X77470D01*
X77337Y825760D01*
X77207Y825787D01*
X77080Y825829D01*
X76961Y825888D01*
X76850Y825962D01*
X76750Y826050D01*
X76662Y826150D01*
X76588Y826261D01*
X76529Y826380D01*
X76487Y826507D01*
X76460Y826637D01*
X76452Y826770D01*
Y827618D01*
X72390Y831680D01*
X71840Y831130D01*
X71740Y831042D01*
X71629Y830968D01*
X71510Y830909D01*
X71384Y830866D01*
X71253Y830841D01*
X71120Y830832D01*
X50800D01*
X50667Y830841D01*
X50536Y830866D01*
X50410Y830909D01*
X50291Y830968D01*
X50180Y831042D01*
X50080Y831130D01*
X49992Y831230D01*
X49918Y831341D01*
X49859Y831460D01*
X49816Y831587D01*
X49791Y831717D01*
X49782Y831850D01*
Y850478D01*
X47540Y852720D01*
X47452Y852820D01*
X47378Y852931D01*
X47319Y853050D01*
X47277Y853176D01*
X47250Y853307D01*
X47242Y853440D01*
X47250Y853573D01*
X47277Y853704D01*
X47319Y853830D01*
X47378Y853949D01*
X47452Y854060D01*
X47540Y854160D01*
X50080Y856700D01*
X50180Y856788D01*
X50291Y856862D01*
X50410Y856921D01*
X50536Y856964D01*
X50667Y856990D01*
X50800Y856998D01*
X75778D01*
X80262Y861482D01*
Y965452D01*
X78740D01*
X78607Y965461D01*
X78477Y965487D01*
X78350Y965529D01*
X78231Y965588D01*
X78120Y965662D01*
X78020Y965750D01*
X73238Y970532D01*
X49530D01*
X49397Y970540D01*
X49267Y970566D01*
X49140Y970609D01*
X49021Y970668D01*
X48910Y970742D01*
X48810Y970830D01*
X48722Y970930D01*
X48648Y971041D01*
X48589Y971160D01*
X48547Y971286D01*
X48520Y971417D01*
X48512Y971550D01*
Y993140D01*
X48520Y993273D01*
X48547Y993403D01*
X48589Y993530D01*
X48648Y993649D01*
X48722Y993760D01*
X48810Y993860D01*
X48910Y993948D01*
X49021Y994022D01*
X49140Y994081D01*
X49267Y994124D01*
X49397Y994149D01*
X49530Y994158D01*
X49663Y994149D01*
D02*
G37*
G36*
X1738763Y967479D02*
X1738893Y967454D01*
X1739020Y967411D01*
X1739139Y967352D01*
X1739250Y967278D01*
X1739350Y967190D01*
X1741592Y964948D01*
X1779270D01*
X1779403Y964939D01*
X1779534Y964913D01*
X1779660Y964871D01*
X1779779Y964812D01*
X1779890Y964738D01*
X1779990Y964650D01*
X1780078Y964550D01*
X1780152Y964439D01*
X1780211Y964320D01*
X1780253Y964193D01*
X1780280Y964063D01*
X1780288Y963930D01*
Y947420D01*
X1780280Y947287D01*
X1780253Y947157D01*
X1780211Y947030D01*
X1780152Y946911D01*
X1780078Y946800D01*
X1779990Y946700D01*
X1778720Y945430D01*
X1778620Y945342D01*
X1778509Y945268D01*
X1778390Y945209D01*
X1778264Y945166D01*
X1778133Y945141D01*
X1778000Y945132D01*
X1762508D01*
Y944880D01*
X1762500Y944747D01*
X1762473Y944616D01*
X1762431Y944490D01*
X1762372Y944371D01*
X1762298Y944260D01*
X1762210Y944160D01*
X1749808Y931758D01*
Y830328D01*
X1775460D01*
X1775593Y830320D01*
X1775724Y830294D01*
X1775850Y830251D01*
X1775969Y830192D01*
X1776080Y830118D01*
X1776180Y830030D01*
X1781260Y824950D01*
X1781348Y824850D01*
X1781422Y824739D01*
X1781481Y824620D01*
X1781523Y824493D01*
X1781550Y824363D01*
X1781558Y824230D01*
Y814070D01*
X1781550Y813937D01*
X1781523Y813807D01*
X1781481Y813680D01*
X1781422Y813561D01*
X1781348Y813450D01*
X1781260Y813350D01*
X1779018Y811108D01*
Y807720D01*
X1779010Y807587D01*
X1778983Y807457D01*
X1778941Y807330D01*
X1778882Y807211D01*
X1778808Y807100D01*
X1778720Y807000D01*
X1778620Y806912D01*
X1778509Y806838D01*
X1778390Y806779D01*
X1778264Y806737D01*
X1778133Y806711D01*
X1778000Y806702D01*
X1740322D01*
X1739350Y805730D01*
X1739250Y805642D01*
X1739139Y805568D01*
X1739059Y805529D01*
X1739020Y805509D01*
X1738893Y805467D01*
X1738763Y805441D01*
X1738630Y805432D01*
X1738497Y805441D01*
X1738367Y805467D01*
X1738240Y805509D01*
X1738121Y805568D01*
X1738010Y805642D01*
X1737910Y805730D01*
X1718860Y824780D01*
X1718772Y824880D01*
X1718698Y824991D01*
X1718639Y825110D01*
X1718596Y825237D01*
X1718571Y825367D01*
X1718562Y825500D01*
Y879688D01*
X1717888Y880362D01*
X1531620D01*
X1531487Y880370D01*
X1531357Y880396D01*
X1531230Y880439D01*
X1531111Y880498D01*
X1531000Y880572D01*
X1530900Y880660D01*
X1522010Y889550D01*
X1521992Y889570D01*
X1521973Y889589D01*
X1521948Y889620D01*
X1521922Y889650D01*
X1521907Y889672D01*
X1521891Y889694D01*
X1521870Y889728D01*
X1521848Y889761D01*
X1521836Y889785D01*
X1521823Y889808D01*
X1521807Y889844D01*
X1521789Y889880D01*
X1521781Y889906D01*
X1521770Y889930D01*
X1521759Y889969D01*
X1521747Y890006D01*
X1521741Y890033D01*
X1521734Y890059D01*
X1521728Y890098D01*
X1521720Y890137D01*
X1521719Y890164D01*
X1521715Y890190D01*
X1521714Y890230D01*
X1521712Y890270D01*
X1521714Y890297D01*
X1521713Y890323D01*
X1522983Y914454D01*
X1522988Y914493D01*
X1522991Y914533D01*
X1522996Y914559D01*
X1522999Y914586D01*
X1523009Y914624D01*
X1523017Y914663D01*
X1523025Y914689D01*
X1523032Y914715D01*
X1523047Y914752D01*
X1523059Y914790D01*
X1523071Y914814D01*
X1523081Y914838D01*
X1523101Y914874D01*
X1523118Y914909D01*
X1523133Y914931D01*
X1523146Y914955D01*
X1523170Y914987D01*
X1523192Y915020D01*
X1523210Y915040D01*
X1523226Y915061D01*
X1523254Y915090D01*
X1523280Y915120D01*
X1523300Y915138D01*
X1523319Y915157D01*
X1523350Y915182D01*
X1523380Y915208D01*
X1523402Y915223D01*
X1523423Y915239D01*
X1523458Y915260D01*
X1523491Y915282D01*
X1523515Y915294D01*
X1523538Y915307D01*
X1523575Y915323D01*
X1523610Y915341D01*
X1523636Y915349D01*
X1523660Y915360D01*
X1523699Y915371D01*
X1523737Y915384D01*
X1523763Y915389D01*
X1523788Y915396D01*
X1523828Y915402D01*
X1523867Y915409D01*
X1523894Y915411D01*
X1523920Y915415D01*
X1523960Y915416D01*
X1524000Y915418D01*
X1715348D01*
X1716022Y916092D01*
Y944880D01*
X1716030Y945013D01*
X1716057Y945144D01*
X1716099Y945270D01*
X1716158Y945389D01*
X1716232Y945500D01*
X1716320Y945600D01*
X1737910Y967190D01*
X1738010Y967278D01*
X1738121Y967352D01*
X1738201Y967391D01*
X1738240Y967411D01*
X1738367Y967454D01*
X1738497Y967479D01*
X1738630Y967488D01*
X1738763Y967479D01*
D02*
G37*
G36*
X53376Y322326D02*
X53412Y322326D01*
X53442Y322322D01*
X53473Y322319D01*
X53508Y322312D01*
X53544Y322308D01*
X53573Y322299D01*
X53604Y322294D01*
X53638Y322282D01*
X53673Y322272D01*
X53701Y322261D01*
X53730Y322251D01*
X53762Y322235D01*
X53795Y322221D01*
X53822Y322205D01*
X53849Y322192D01*
X53879Y322172D01*
X53910Y322154D01*
X53934Y322135D01*
X53960Y322118D01*
X53987Y322094D01*
X54015Y322072D01*
X54037Y322050D01*
X54060Y322030D01*
X56302Y319788D01*
X90170D01*
X90303Y319779D01*
X90434Y319753D01*
X90560Y319711D01*
X90679Y319652D01*
X90790Y319578D01*
X90890Y319490D01*
X99482Y310898D01*
X106680D01*
X106813Y310889D01*
X106944Y310863D01*
X107070Y310821D01*
X107189Y310762D01*
X107300Y310688D01*
X107400Y310600D01*
X107488Y310500D01*
X107562Y310389D01*
X107621Y310270D01*
X107663Y310144D01*
X107690Y310013D01*
X107698Y309880D01*
Y307762D01*
X116290Y299170D01*
X116378Y299070D01*
X116452Y298959D01*
X116511Y298840D01*
X116532Y298777D01*
X116553Y298713D01*
X116580Y298583D01*
X116588Y298450D01*
Y256288D01*
X300990D01*
X301123Y256280D01*
X301254Y256254D01*
X301380Y256211D01*
X301499Y256152D01*
X301610Y256078D01*
X301710Y255990D01*
X311870Y245830D01*
X311958Y245730D01*
X312032Y245619D01*
X312091Y245500D01*
X312134Y245373D01*
X312160Y245243D01*
X312168Y245110D01*
Y227330D01*
X312160Y227197D01*
X312134Y227066D01*
X312091Y226940D01*
X312032Y226821D01*
X311958Y226710D01*
X311870Y226610D01*
X305520Y220260D01*
X305420Y220172D01*
X305309Y220098D01*
X305190Y220039D01*
X305063Y219996D01*
X304933Y219970D01*
X304800Y219962D01*
X116588D01*
Y180340D01*
X116587Y180327D01*
X116588Y180314D01*
X116583Y180260D01*
X116580Y180207D01*
X116577Y180194D01*
X116576Y180181D01*
X116564Y180129D01*
X116553Y180077D01*
X116549Y180064D01*
X116546Y180051D01*
X116528Y180002D01*
X116511Y179950D01*
X116505Y179939D01*
X116500Y179926D01*
X116475Y179879D01*
X116452Y179831D01*
X116445Y179820D01*
X116438Y179809D01*
X116408Y179765D01*
X116378Y179720D01*
X116369Y179710D01*
X116362Y179700D01*
X116325Y179660D01*
X116290Y179620D01*
X116280Y179611D01*
X116271Y179602D01*
X90871Y155472D01*
X90858Y155461D01*
X90845Y155448D01*
X90807Y155418D01*
X90769Y155387D01*
X90754Y155377D01*
X90740Y155366D01*
X90698Y155342D01*
X90656Y155316D01*
X90640Y155308D01*
X90625Y155299D01*
X88085Y154029D01*
X88052Y154015D01*
X88020Y153999D01*
X87991Y153989D01*
X87963Y153978D01*
X87928Y153968D01*
X87893Y153956D01*
X87864Y153951D01*
X87834Y153942D01*
X87798Y153938D01*
X87763Y153931D01*
X87732Y153928D01*
X87702Y153924D01*
X87666Y153924D01*
X87630Y153922D01*
X78740D01*
X78607Y153931D01*
X78477Y153956D01*
X78350Y153999D01*
X78231Y154058D01*
X78120Y154132D01*
X78020Y154220D01*
X73238Y159002D01*
X52070D01*
X51937Y159010D01*
X51807Y159037D01*
X51680Y159079D01*
X51561Y159138D01*
X51450Y159212D01*
X51350Y159300D01*
X51262Y159400D01*
X51188Y159511D01*
X51129Y159630D01*
X51087Y159756D01*
X51061Y159887D01*
X51052Y160020D01*
Y181610D01*
X51061Y181743D01*
X51087Y181873D01*
X51129Y182000D01*
X51188Y182119D01*
X51262Y182230D01*
X51350Y182330D01*
X52620Y183600D01*
X52720Y183688D01*
X52831Y183762D01*
X52950Y183821D01*
X53077Y183864D01*
X53207Y183890D01*
X53340Y183898D01*
X70698D01*
X81110Y194310D01*
X79290Y196130D01*
X79202Y196230D01*
X79128Y196341D01*
X79069Y196460D01*
X79026Y196586D01*
X79001Y196717D01*
X78992Y196850D01*
Y297432D01*
X50800D01*
X50667Y297440D01*
X50536Y297467D01*
X50410Y297509D01*
X50291Y297568D01*
X50180Y297642D01*
X50080Y297730D01*
X46270Y301540D01*
X46182Y301640D01*
X46108Y301751D01*
X46049Y301870D01*
X46006Y301996D01*
X45981Y302127D01*
X45972Y302260D01*
Y308610D01*
X45974Y308646D01*
X45974Y308682D01*
X45978Y308712D01*
X45981Y308743D01*
X45988Y308778D01*
X45992Y308814D01*
X46000Y308843D01*
X46006Y308874D01*
X46018Y308908D01*
X46028Y308943D01*
X46040Y308971D01*
X46049Y309000D01*
X46065Y309032D01*
X46079Y309065D01*
X52429Y321765D01*
X52445Y321792D01*
X52458Y321819D01*
X52478Y321849D01*
X52497Y321880D01*
X52515Y321904D01*
X52532Y321930D01*
X52556Y321957D01*
X52578Y321986D01*
X52600Y322007D01*
X52620Y322030D01*
X52647Y322054D01*
X52673Y322079D01*
X52697Y322098D01*
X52720Y322118D01*
X52750Y322138D01*
X52779Y322160D01*
X52806Y322175D01*
X52831Y322192D01*
X52863Y322208D01*
X52895Y322226D01*
X52923Y322237D01*
X52950Y322251D01*
X52985Y322262D01*
X53018Y322276D01*
X53047Y322284D01*
X53077Y322294D01*
X53112Y322300D01*
X53147Y322310D01*
X53177Y322313D01*
X53207Y322319D01*
X53243Y322322D01*
X53279Y322326D01*
X53309Y322326D01*
X53340Y322328D01*
X53376Y322326D01*
D02*
G37*
G36*
X326523Y314699D02*
X326654Y314674D01*
X326780Y314631D01*
X326899Y314572D01*
X327010Y314498D01*
X327110Y314410D01*
X361400Y280120D01*
X361488Y280020D01*
X361562Y279909D01*
X361621Y279790D01*
X361664Y279664D01*
X361689Y279533D01*
X361698Y279400D01*
Y224790D01*
X361689Y224657D01*
X361664Y224527D01*
X361621Y224400D01*
X361562Y224281D01*
X361488Y224170D01*
X361400Y224070D01*
X357590Y220260D01*
X357490Y220172D01*
X357379Y220098D01*
X357260Y220039D01*
X357133Y219996D01*
X357003Y219970D01*
X356870Y219962D01*
X334010D01*
X333877Y219970D01*
X333746Y219996D01*
X333620Y220039D01*
X333501Y220098D01*
X333390Y220172D01*
X333290Y220260D01*
X333202Y220360D01*
X333128Y220471D01*
X333069Y220590D01*
X333027Y220716D01*
X333000Y220847D01*
X332992Y220980D01*
Y221828D01*
X324400Y230420D01*
X324312Y230520D01*
X324238Y230631D01*
X324179Y230750D01*
X324158Y230813D01*
X324137Y230877D01*
X324110Y231007D01*
X324102Y231140D01*
Y268222D01*
X323850D01*
X323717Y268230D01*
X323587Y268256D01*
X323460Y268299D01*
X323341Y268358D01*
X323230Y268432D01*
X323130Y268520D01*
X314960Y276690D01*
X313140Y274870D01*
X313040Y274782D01*
X312929Y274708D01*
X312810Y274649D01*
X312684Y274606D01*
X312553Y274580D01*
X312420Y274572D01*
X161712D01*
X156930Y269790D01*
X156830Y269702D01*
X156719Y269628D01*
X156639Y269589D01*
X156600Y269569D01*
X156474Y269527D01*
X156343Y269501D01*
X156210Y269492D01*
X156077Y269501D01*
X155947Y269527D01*
X155820Y269569D01*
X155701Y269628D01*
X155590Y269702D01*
X155490Y269790D01*
X148168Y277112D01*
X129540D01*
X129407Y277120D01*
X129277Y277146D01*
X129150Y277189D01*
X129031Y277248D01*
X128920Y277322D01*
X128820Y277410D01*
X128732Y277510D01*
X128658Y277621D01*
X128599Y277740D01*
X128556Y277866D01*
X128531Y277997D01*
X128522Y278130D01*
Y284058D01*
X121200Y291380D01*
X121185Y291397D01*
X121169Y291412D01*
X121142Y291447D01*
X121112Y291480D01*
X121100Y291499D01*
X121086Y291516D01*
X121063Y291554D01*
X121038Y291591D01*
X121028Y291611D01*
X121017Y291630D01*
X120999Y291670D01*
X120979Y291710D01*
X120972Y291732D01*
X120963Y291752D01*
X120951Y291794D01*
X120936Y291836D01*
X120932Y291858D01*
X120926Y291880D01*
X120919Y291924D01*
X120911Y291967D01*
X120909Y291989D01*
X120906Y292011D01*
X120905Y292056D01*
X120902Y292100D01*
X120903Y292122D01*
X120903Y292145D01*
X120908Y292188D01*
X120911Y292233D01*
X120915Y292255D01*
X120917Y292277D01*
X124727Y313867D01*
X124738Y313910D01*
X124747Y313953D01*
X124754Y313975D01*
X124759Y313996D01*
X124775Y314037D01*
X124789Y314080D01*
X124799Y314100D01*
X124807Y314120D01*
X124829Y314160D01*
X124848Y314199D01*
X124860Y314217D01*
X124871Y314237D01*
X124898Y314273D01*
X124922Y314310D01*
X124937Y314326D01*
X124950Y314345D01*
X124981Y314377D01*
X125010Y314410D01*
X125027Y314425D01*
X125042Y314441D01*
X125077Y314469D01*
X125110Y314498D01*
X125129Y314510D01*
X125146Y314524D01*
X125184Y314547D01*
X125221Y314572D01*
X125241Y314582D01*
X125260Y314593D01*
X125301Y314611D01*
X125340Y314631D01*
X125362Y314638D01*
X125382Y314647D01*
X125424Y314659D01*
X125466Y314674D01*
X125488Y314678D01*
X125510Y314684D01*
X125554Y314691D01*
X125597Y314699D01*
X125619Y314701D01*
X125641Y314704D01*
X125686Y314705D01*
X125730Y314708D01*
X326390D01*
X326523Y314699D01*
D02*
G37*
G36*
X1733683Y317239D02*
X1733813Y317213D01*
X1733940Y317171D01*
X1734059Y317112D01*
X1734170Y317038D01*
X1734270Y316950D01*
X1756832Y294388D01*
X1779270D01*
X1779403Y294380D01*
X1779534Y294354D01*
X1779660Y294311D01*
X1779779Y294252D01*
X1779890Y294178D01*
X1779990Y294090D01*
X1781260Y292820D01*
X1781348Y292720D01*
X1781422Y292609D01*
X1781461Y292529D01*
X1781481Y292490D01*
X1781523Y292363D01*
X1781550Y292233D01*
X1781558Y292100D01*
X1781550Y291967D01*
X1781523Y291836D01*
X1781481Y291710D01*
X1781422Y291591D01*
X1781348Y291480D01*
X1781260Y291380D01*
X1780288Y290408D01*
Y274320D01*
X1780280Y274187D01*
X1780253Y274056D01*
X1780211Y273930D01*
X1780152Y273811D01*
X1780078Y273700D01*
X1779990Y273600D01*
X1779890Y273512D01*
X1779779Y273438D01*
X1779660Y273379D01*
X1779534Y273337D01*
X1779403Y273311D01*
X1779270Y273302D01*
X1758102D01*
X1752348Y267548D01*
Y166792D01*
X1761912Y157228D01*
X1779270D01*
X1779403Y157219D01*
X1779534Y157193D01*
X1779660Y157151D01*
X1779779Y157092D01*
X1779890Y157018D01*
X1779990Y156930D01*
X1781260Y155660D01*
X1781348Y155560D01*
X1781422Y155449D01*
X1781481Y155330D01*
X1781523Y155204D01*
X1781550Y155073D01*
X1781558Y154940D01*
Y135890D01*
X1781550Y135757D01*
X1781523Y135626D01*
X1781481Y135500D01*
X1781422Y135381D01*
X1781348Y135270D01*
X1781260Y135170D01*
X1781160Y135082D01*
X1781049Y135008D01*
X1780930Y134949D01*
X1780804Y134907D01*
X1780673Y134881D01*
X1780540Y134872D01*
X1755562D01*
X1753320Y132630D01*
X1753220Y132542D01*
X1753109Y132468D01*
X1752990Y132409D01*
X1752863Y132367D01*
X1752733Y132340D01*
X1752600Y132332D01*
X1752467Y132340D01*
X1752336Y132367D01*
X1752210Y132409D01*
X1752091Y132468D01*
X1751980Y132542D01*
X1751880Y132630D01*
X1735668Y148842D01*
X1729740D01*
X1729607Y148850D01*
X1729476Y148876D01*
X1729350Y148919D01*
X1729231Y148978D01*
X1729120Y149052D01*
X1729020Y149140D01*
X1717590Y160570D01*
X1717502Y160670D01*
X1717428Y160781D01*
X1717369Y160900D01*
X1717327Y161026D01*
X1717301Y161157D01*
X1717292Y161290D01*
Y265682D01*
X1662430D01*
X1662297Y265690D01*
X1662166Y265716D01*
X1662040Y265759D01*
X1661921Y265818D01*
X1661810Y265892D01*
X1661710Y265980D01*
X1656630Y271060D01*
X1656542Y271160D01*
X1656468Y271271D01*
X1656409Y271390D01*
X1656366Y271516D01*
X1656340Y271647D01*
X1656332Y271780D01*
Y293370D01*
X1656334Y293398D01*
X1656333Y293426D01*
X1657603Y316287D01*
X1657608Y316325D01*
X1657610Y316363D01*
X1657616Y316390D01*
X1657619Y316419D01*
X1657629Y316456D01*
X1657637Y316493D01*
X1657646Y316520D01*
X1657653Y316548D01*
X1657667Y316583D01*
X1657679Y316620D01*
X1657692Y316645D01*
X1657702Y316671D01*
X1657721Y316705D01*
X1657738Y316739D01*
X1657754Y316763D01*
X1657768Y316787D01*
X1657791Y316818D01*
X1657812Y316850D01*
X1657831Y316871D01*
X1657848Y316894D01*
X1657875Y316921D01*
X1657900Y316950D01*
X1657921Y316969D01*
X1657941Y316989D01*
X1657971Y317013D01*
X1658000Y317038D01*
X1658024Y317053D01*
X1658046Y317071D01*
X1658079Y317090D01*
X1658111Y317112D01*
X1658136Y317124D01*
X1658161Y317139D01*
X1658196Y317154D01*
X1658230Y317171D01*
X1658257Y317180D01*
X1658283Y317191D01*
X1658320Y317201D01*
X1658356Y317213D01*
X1658384Y317219D01*
X1658411Y317227D01*
X1658450Y317232D01*
X1658487Y317239D01*
X1658515Y317241D01*
X1658543Y317245D01*
X1658582Y317246D01*
X1658620Y317248D01*
X1733550D01*
X1733683Y317239D01*
D02*
G37*
G36*
X50933Y544570D02*
X51063Y544543D01*
X51190Y544501D01*
X51309Y544442D01*
X51420Y544368D01*
X51520Y544280D01*
X52492Y543308D01*
X88900D01*
X89033Y543299D01*
X89164Y543274D01*
X89290Y543231D01*
X89409Y543172D01*
X89520Y543098D01*
X89620Y543010D01*
X116290Y516340D01*
X116378Y516240D01*
X116452Y516129D01*
X116511Y516010D01*
X116553Y515883D01*
X116580Y515753D01*
X116588Y515620D01*
Y429008D01*
X146050D01*
X146183Y428999D01*
X146313Y428974D01*
X146440Y428931D01*
X146559Y428872D01*
X146670Y428798D01*
X146770Y428710D01*
X173440Y402040D01*
X173528Y401940D01*
X173602Y401829D01*
X173661Y401710D01*
X173703Y401584D01*
X173729Y401453D01*
X173738Y401320D01*
Y379730D01*
X173729Y379597D01*
X173703Y379467D01*
X173661Y379340D01*
X173602Y379221D01*
X173528Y379110D01*
X173440Y379010D01*
X165820Y371390D01*
X165720Y371302D01*
X165609Y371228D01*
X165490Y371169D01*
X165364Y371127D01*
X165233Y371101D01*
X165100Y371092D01*
X133772D01*
X132800Y370120D01*
X132700Y370032D01*
X132589Y369958D01*
X132509Y369919D01*
X132470Y369899D01*
X132344Y369856D01*
X132213Y369831D01*
X132080Y369822D01*
X131947Y369831D01*
X131817Y369856D01*
X131690Y369899D01*
X131571Y369958D01*
X131460Y370032D01*
X131360Y370120D01*
X118660Y382820D01*
X118572Y382920D01*
X118498Y383031D01*
X118439Y383150D01*
X118397Y383276D01*
X118371Y383407D01*
X118362Y383540D01*
Y393952D01*
X105832D01*
X92160Y380280D01*
X92060Y380192D01*
X91949Y380118D01*
X91830Y380059D01*
X91704Y380017D01*
X91573Y379991D01*
X91440Y379982D01*
X73660D01*
X73527Y379991D01*
X73397Y380017D01*
X73270Y380059D01*
X73151Y380118D01*
X73040Y380192D01*
X72940Y380280D01*
X70400Y382820D01*
X70312Y382920D01*
X70238Y383031D01*
X70179Y383150D01*
X70136Y383276D01*
X70111Y383407D01*
X70102Y383540D01*
Y385062D01*
X54610D01*
X54477Y385070D01*
X54346Y385097D01*
X54220Y385139D01*
X54101Y385198D01*
X53990Y385272D01*
X53890Y385360D01*
X50378Y388872D01*
X46990D01*
X46857Y388881D01*
X46726Y388907D01*
X46600Y388949D01*
X46481Y389008D01*
X46370Y389082D01*
X46270Y389170D01*
X46182Y389270D01*
X46108Y389381D01*
X46049Y389500D01*
X46006Y389627D01*
X45981Y389757D01*
X45972Y389890D01*
Y405130D01*
X45981Y405263D01*
X46006Y405393D01*
X46049Y405520D01*
X46108Y405639D01*
X46182Y405750D01*
X46270Y405850D01*
X47540Y407120D01*
X47640Y407208D01*
X47751Y407282D01*
X47870Y407341D01*
X47997Y407383D01*
X48127Y407410D01*
X48260Y407418D01*
X68158D01*
X82380Y421640D01*
X81830Y422190D01*
X81742Y422290D01*
X81668Y422401D01*
X81609Y422520D01*
X81566Y422646D01*
X81540Y422777D01*
X81532Y422910D01*
Y510792D01*
X81280D01*
X81147Y510801D01*
X81017Y510826D01*
X80890Y510869D01*
X80771Y510928D01*
X80660Y511002D01*
X80560Y511090D01*
X68158Y523492D01*
X50800D01*
X50667Y523501D01*
X50536Y523526D01*
X50410Y523569D01*
X50291Y523628D01*
X50180Y523702D01*
X50080Y523790D01*
X49992Y523890D01*
X49918Y524001D01*
X49859Y524120D01*
X49816Y524246D01*
X49791Y524377D01*
X49782Y524510D01*
Y543560D01*
X49791Y543693D01*
X49816Y543824D01*
X49859Y543950D01*
X49918Y544069D01*
X49992Y544180D01*
X50080Y544280D01*
X50180Y544368D01*
X50291Y544442D01*
X50410Y544501D01*
X50536Y544543D01*
X50667Y544570D01*
X50800Y544578D01*
X50933Y544570D01*
D02*
G37*
G36*
X1507623Y467099D02*
X1507753Y467074D01*
X1507880Y467031D01*
X1507999Y466972D01*
X1508110Y466898D01*
X1508210Y466810D01*
X1508298Y466710D01*
X1508372Y466599D01*
X1508431Y466480D01*
X1508474Y466353D01*
X1508499Y466223D01*
X1508508Y466090D01*
Y422062D01*
X1520612Y409958D01*
X1669628D01*
X1679490Y419820D01*
X1679590Y419908D01*
X1679701Y419982D01*
X1679820Y420041D01*
X1679946Y420084D01*
X1680077Y420109D01*
X1680210Y420118D01*
X1680343Y420109D01*
X1680473Y420084D01*
X1680600Y420041D01*
X1680719Y419982D01*
X1680830Y419908D01*
X1680930Y419820D01*
X1681902Y418848D01*
X1703070D01*
X1703203Y418839D01*
X1703333Y418814D01*
X1703460Y418771D01*
X1703579Y418712D01*
X1703690Y418638D01*
X1703790Y418550D01*
X1703878Y418450D01*
X1703952Y418339D01*
X1704011Y418220D01*
X1704053Y418093D01*
X1704079Y417963D01*
X1704088Y417830D01*
Y411902D01*
X1712680Y403310D01*
X1712768Y403210D01*
X1712842Y403099D01*
X1712901Y402980D01*
X1712922Y402917D01*
X1712944Y402854D01*
X1712970Y402723D01*
X1712978Y402590D01*
Y382270D01*
X1712970Y382137D01*
X1712944Y382006D01*
X1712901Y381880D01*
X1712842Y381761D01*
X1712768Y381650D01*
X1712680Y381550D01*
X1699980Y368850D01*
X1699880Y368762D01*
X1699769Y368688D01*
X1699650Y368629D01*
X1699523Y368587D01*
X1699393Y368560D01*
X1699260Y368552D01*
X1657350D01*
X1657217Y368560D01*
X1657086Y368587D01*
X1656960Y368629D01*
X1656841Y368688D01*
X1656730Y368762D01*
X1656630Y368850D01*
X1649730Y375750D01*
X1649180Y375200D01*
X1649080Y375112D01*
X1648969Y375038D01*
X1648850Y374979D01*
X1648723Y374936D01*
X1648593Y374911D01*
X1648460Y374902D01*
X1503680D01*
X1503547Y374911D01*
X1503416Y374936D01*
X1503290Y374979D01*
X1503171Y375038D01*
X1503060Y375112D01*
X1502960Y375200D01*
X1502872Y375300D01*
X1502798Y375411D01*
X1502739Y375530D01*
X1502697Y375657D01*
X1502670Y375787D01*
X1502662Y375920D01*
Y378038D01*
X1473750Y406950D01*
X1473743Y406958D01*
X1473735Y406966D01*
X1473699Y407008D01*
X1473662Y407050D01*
X1473656Y407059D01*
X1473649Y407068D01*
X1473619Y407114D01*
X1473588Y407161D01*
X1473583Y407171D01*
X1473577Y407180D01*
X1473554Y407230D01*
X1473529Y407280D01*
X1473526Y407291D01*
X1473521Y407301D01*
X1473504Y407354D01*
X1473486Y407407D01*
X1473484Y407417D01*
X1473481Y407428D01*
X1473471Y407482D01*
X1473461Y407537D01*
X1473460Y407548D01*
X1473458Y407559D01*
X1473455Y407615D01*
X1473452Y407670D01*
X1473452Y407681D01*
X1473452Y407692D01*
X1474722Y466112D01*
X1474727Y466168D01*
X1474731Y466223D01*
X1474733Y466234D01*
X1474734Y466245D01*
X1474746Y466299D01*
X1474756Y466353D01*
X1474760Y466364D01*
X1474763Y466375D01*
X1474781Y466427D01*
X1474799Y466480D01*
X1474804Y466490D01*
X1474808Y466500D01*
X1474834Y466549D01*
X1474858Y466599D01*
X1474865Y466608D01*
X1474870Y466618D01*
X1474901Y466663D01*
X1474932Y466710D01*
X1474940Y466718D01*
X1474946Y466727D01*
X1474983Y466768D01*
X1475020Y466810D01*
X1475028Y466817D01*
X1475036Y466825D01*
X1475078Y466861D01*
X1475120Y466898D01*
X1475130Y466904D01*
X1475138Y466911D01*
X1475184Y466941D01*
X1475231Y466972D01*
X1475241Y466977D01*
X1475250Y466983D01*
X1475300Y467006D01*
X1475350Y467031D01*
X1475361Y467034D01*
X1475371Y467039D01*
X1475423Y467055D01*
X1475477Y467074D01*
X1475487Y467076D01*
X1475498Y467079D01*
X1475552Y467089D01*
X1475607Y467099D01*
X1475618Y467100D01*
X1475629Y467102D01*
X1475684Y467104D01*
X1475740Y467108D01*
X1507490D01*
X1507623Y467099D01*
D02*
G37*
G36*
X1774323Y520439D02*
X1774453Y520414D01*
X1774580Y520371D01*
X1774699Y520312D01*
X1774810Y520238D01*
X1774910Y520150D01*
X1777152Y517908D01*
X1779270D01*
X1779403Y517900D01*
X1779534Y517873D01*
X1779660Y517831D01*
X1779779Y517772D01*
X1779890Y517698D01*
X1779990Y517610D01*
X1780078Y517510D01*
X1780152Y517399D01*
X1780211Y517280D01*
X1780253Y517154D01*
X1780280Y517023D01*
X1780288Y516890D01*
Y496570D01*
X1780280Y496437D01*
X1780253Y496306D01*
X1780211Y496180D01*
X1780152Y496061D01*
X1780078Y495950D01*
X1779990Y495850D01*
X1779890Y495762D01*
X1779779Y495688D01*
X1779660Y495629D01*
X1779534Y495587D01*
X1779403Y495560D01*
X1779270Y495552D01*
X1752348D01*
Y382692D01*
X1753022Y382018D01*
X1776730D01*
X1776863Y382010D01*
X1776994Y381983D01*
X1777120Y381941D01*
X1777239Y381882D01*
X1777350Y381808D01*
X1777450Y381720D01*
X1783800Y375370D01*
X1783888Y375270D01*
X1783962Y375159D01*
X1784021Y375040D01*
X1784064Y374913D01*
X1784090Y374783D01*
X1784098Y374650D01*
Y360680D01*
X1784090Y360547D01*
X1784064Y360416D01*
X1784021Y360290D01*
X1783962Y360171D01*
X1783888Y360060D01*
X1783800Y359960D01*
X1783700Y359872D01*
X1783589Y359798D01*
X1783470Y359739D01*
X1783344Y359697D01*
X1783213Y359670D01*
X1783080Y359662D01*
X1736512D01*
X1735540Y358690D01*
X1735440Y358602D01*
X1735329Y358528D01*
X1735249Y358489D01*
X1735210Y358469D01*
X1735083Y358427D01*
X1734953Y358400D01*
X1734820Y358392D01*
X1734687Y358400D01*
X1734556Y358427D01*
X1734430Y358469D01*
X1734311Y358528D01*
X1734200Y358602D01*
X1734100Y358690D01*
X1720130Y372660D01*
X1720042Y372760D01*
X1719968Y372871D01*
X1719909Y372990D01*
X1719866Y373116D01*
X1719841Y373247D01*
X1719832Y373380D01*
Y430108D01*
X1716618Y433322D01*
X1527810D01*
X1527677Y433330D01*
X1527547Y433357D01*
X1527420Y433399D01*
X1527301Y433458D01*
X1527190Y433532D01*
X1527090Y433620D01*
X1527002Y433720D01*
X1526928Y433831D01*
X1526869Y433950D01*
X1526826Y434076D01*
X1526801Y434207D01*
X1526792Y434340D01*
Y466090D01*
X1526801Y466223D01*
X1526826Y466353D01*
X1526869Y466480D01*
X1526928Y466599D01*
X1527002Y466710D01*
X1527090Y466810D01*
X1527190Y466898D01*
X1527301Y466972D01*
X1527420Y467031D01*
X1527547Y467074D01*
X1527677Y467099D01*
X1527810Y467108D01*
X1716022D01*
Y505460D01*
X1716030Y505593D01*
X1716057Y505723D01*
X1716099Y505850D01*
X1716158Y505969D01*
X1716232Y506080D01*
X1716320Y506180D01*
X1730290Y520150D01*
X1730390Y520238D01*
X1730501Y520312D01*
X1730620Y520371D01*
X1730746Y520414D01*
X1730877Y520439D01*
X1731010Y520448D01*
X1774190D01*
X1774323Y520439D01*
D02*
G37*
G36*
X1695583Y1665979D02*
X1695714Y1665954D01*
X1695840Y1665911D01*
X1695959Y1665852D01*
X1696070Y1665778D01*
X1696170Y1665690D01*
X1722542Y1639318D01*
X1743288D01*
X1749340Y1645370D01*
X1749440Y1645458D01*
X1749551Y1645532D01*
X1749670Y1645591D01*
X1749796Y1645634D01*
X1749927Y1645659D01*
X1750060Y1645668D01*
X1750193Y1645659D01*
X1750323Y1645634D01*
X1750450Y1645591D01*
X1750569Y1645532D01*
X1750680Y1645458D01*
X1750780Y1645370D01*
X1754292Y1641858D01*
X1776730D01*
X1776863Y1641850D01*
X1776994Y1641823D01*
X1777120Y1641781D01*
X1777239Y1641722D01*
X1777350Y1641648D01*
X1777450Y1641560D01*
X1783800Y1635210D01*
X1783888Y1635110D01*
X1783962Y1634999D01*
X1784021Y1634880D01*
X1784064Y1634754D01*
X1784090Y1634623D01*
X1784098Y1634490D01*
Y1620520D01*
X1784090Y1620387D01*
X1784064Y1620257D01*
X1784021Y1620130D01*
X1783962Y1620011D01*
X1783888Y1619900D01*
X1783800Y1619800D01*
X1781260Y1617260D01*
X1781160Y1617172D01*
X1781049Y1617098D01*
X1780930Y1617039D01*
X1780804Y1616996D01*
X1780673Y1616971D01*
X1780540Y1616962D01*
X1780407Y1616971D01*
X1780276Y1616996D01*
X1780150Y1617039D01*
X1780031Y1617098D01*
X1779920Y1617172D01*
X1779820Y1617260D01*
X1778848Y1618232D01*
X1763778D01*
Y1617980D01*
X1763770Y1617847D01*
X1763743Y1617717D01*
X1763701Y1617590D01*
X1763642Y1617471D01*
X1763568Y1617360D01*
X1763480Y1617260D01*
X1749808Y1603588D01*
Y1507912D01*
X1756832Y1500888D01*
X1778000D01*
X1778133Y1500880D01*
X1778264Y1500853D01*
X1778390Y1500811D01*
X1778509Y1500752D01*
X1778620Y1500678D01*
X1778720Y1500590D01*
X1778808Y1500490D01*
X1778882Y1500379D01*
X1778941Y1500260D01*
X1778983Y1500134D01*
X1779010Y1500003D01*
X1779018Y1499870D01*
Y1495212D01*
X1781260Y1492970D01*
X1781348Y1492870D01*
X1781422Y1492759D01*
X1781481Y1492640D01*
X1781523Y1492513D01*
X1781550Y1492383D01*
X1781558Y1492250D01*
Y1480820D01*
X1781550Y1480687D01*
X1781523Y1480556D01*
X1781481Y1480430D01*
X1781422Y1480311D01*
X1781348Y1480200D01*
X1781260Y1480100D01*
X1781160Y1480012D01*
X1781049Y1479938D01*
X1780930Y1479879D01*
X1780804Y1479836D01*
X1780673Y1479810D01*
X1780540Y1479802D01*
X1778422D01*
X1776180Y1477560D01*
X1776080Y1477472D01*
X1775969Y1477398D01*
X1775850Y1477339D01*
X1775724Y1477296D01*
X1775593Y1477271D01*
X1775460Y1477262D01*
X1743710D01*
X1743577Y1477271D01*
X1743447Y1477296D01*
X1743320Y1477339D01*
X1743201Y1477398D01*
X1743090Y1477472D01*
X1742990Y1477560D01*
X1726778Y1493772D01*
X1719580D01*
X1719447Y1493781D01*
X1719317Y1493806D01*
X1719190Y1493849D01*
X1719071Y1493908D01*
X1718960Y1493982D01*
X1718860Y1494070D01*
X1718772Y1494170D01*
X1718698Y1494281D01*
X1718639Y1494400D01*
X1718596Y1494527D01*
X1718571Y1494657D01*
X1718562Y1494790D01*
Y1503258D01*
X1716320Y1505500D01*
X1716232Y1505600D01*
X1716158Y1505711D01*
X1716099Y1505830D01*
X1716057Y1505957D01*
X1716030Y1506087D01*
X1716022Y1506220D01*
Y1594102D01*
X1704340D01*
X1704207Y1594111D01*
X1704077Y1594137D01*
X1703950Y1594179D01*
X1703831Y1594238D01*
X1703720Y1594312D01*
X1703620Y1594400D01*
X1689650Y1608370D01*
X1689562Y1608470D01*
X1689488Y1608581D01*
X1689429Y1608700D01*
X1689386Y1608826D01*
X1689361Y1608957D01*
X1689352Y1609090D01*
Y1611882D01*
X1676400D01*
X1676267Y1611891D01*
X1676136Y1611917D01*
X1676010Y1611959D01*
X1675891Y1612018D01*
X1675780Y1612092D01*
X1675680Y1612180D01*
X1656630Y1631230D01*
X1656542Y1631330D01*
X1656468Y1631441D01*
X1656409Y1631560D01*
X1656366Y1631687D01*
X1656340Y1631817D01*
X1656332Y1631950D01*
Y1644650D01*
X1656332Y1644659D01*
X1656332Y1644667D01*
X1656337Y1644725D01*
X1656340Y1644783D01*
X1656342Y1644791D01*
X1656343Y1644800D01*
X1656355Y1644857D01*
X1656366Y1644913D01*
X1656369Y1644922D01*
X1656371Y1644930D01*
X1656391Y1644984D01*
X1656409Y1645040D01*
X1656413Y1645047D01*
X1656416Y1645055D01*
X1656442Y1645107D01*
X1656468Y1645159D01*
X1656473Y1645166D01*
X1656477Y1645174D01*
X1668669Y1665494D01*
X1668703Y1665542D01*
X1668734Y1665590D01*
X1668740Y1665596D01*
X1668745Y1665603D01*
X1668784Y1665647D01*
X1668822Y1665690D01*
X1668828Y1665696D01*
X1668834Y1665702D01*
X1668879Y1665740D01*
X1668922Y1665778D01*
X1668929Y1665782D01*
X1668936Y1665788D01*
X1668985Y1665820D01*
X1669033Y1665852D01*
X1669041Y1665856D01*
X1669048Y1665860D01*
X1669100Y1665885D01*
X1669152Y1665911D01*
X1669161Y1665914D01*
X1669168Y1665917D01*
X1669223Y1665935D01*
X1669279Y1665954D01*
X1669287Y1665955D01*
X1669295Y1665958D01*
X1669352Y1665968D01*
X1669409Y1665979D01*
X1669418Y1665980D01*
X1669426Y1665982D01*
X1669484Y1665984D01*
X1669542Y1665988D01*
X1695450D01*
X1695583Y1665979D01*
D02*
G37*
G36*
X87763Y1664709D02*
X87893Y1664684D01*
X88020Y1664641D01*
X88139Y1664582D01*
X88250Y1664508D01*
X88350Y1664420D01*
X112480Y1640290D01*
X112568Y1640190D01*
X112642Y1640079D01*
X112701Y1639960D01*
X112744Y1639834D01*
X112769Y1639703D01*
X112778Y1639570D01*
X112769Y1639437D01*
X112744Y1639306D01*
X112701Y1639180D01*
X112642Y1639061D01*
X112568Y1638950D01*
X112480Y1638850D01*
X111508Y1637878D01*
Y1588518D01*
X293370D01*
X293503Y1588510D01*
X293633Y1588483D01*
X293760Y1588441D01*
X293879Y1588382D01*
X293990Y1588308D01*
X294090Y1588220D01*
X309032Y1573278D01*
X309880D01*
X310013Y1573270D01*
X310144Y1573244D01*
X310270Y1573201D01*
X310389Y1573142D01*
X310500Y1573068D01*
X310600Y1572980D01*
X310688Y1572880D01*
X310762Y1572769D01*
X310821Y1572650D01*
X310863Y1572523D01*
X310889Y1572393D01*
X310898Y1572260D01*
Y1557020D01*
X310889Y1556887D01*
X310863Y1556756D01*
X310821Y1556630D01*
X310762Y1556511D01*
X310688Y1556400D01*
X310600Y1556300D01*
X302980Y1548680D01*
X302880Y1548592D01*
X302769Y1548518D01*
X302650Y1548459D01*
X302523Y1548416D01*
X302393Y1548391D01*
X302260Y1548382D01*
X114048D01*
Y1522730D01*
X114039Y1522597D01*
X114014Y1522466D01*
X113971Y1522340D01*
X113912Y1522221D01*
X113838Y1522110D01*
X113750Y1522010D01*
X90890Y1499150D01*
X90790Y1499062D01*
X90679Y1498988D01*
X90560Y1498929D01*
X90434Y1498887D01*
X90303Y1498860D01*
X90170Y1498852D01*
X74930D01*
X74797Y1498860D01*
X74667Y1498887D01*
X74540Y1498929D01*
X74421Y1498988D01*
X74310Y1499062D01*
X74210Y1499150D01*
X69428Y1503932D01*
X48260D01*
X48127Y1503940D01*
X47997Y1503967D01*
X47870Y1504009D01*
X47751Y1504068D01*
X47640Y1504142D01*
X47540Y1504230D01*
X47452Y1504330D01*
X47378Y1504441D01*
X47319Y1504560D01*
X47277Y1504686D01*
X47250Y1504817D01*
X47242Y1504950D01*
Y1525270D01*
X47250Y1525403D01*
X47277Y1525533D01*
X47319Y1525660D01*
X47378Y1525779D01*
X47452Y1525890D01*
X47540Y1525990D01*
X48810Y1527260D01*
X48910Y1527348D01*
X49021Y1527422D01*
X49140Y1527481D01*
X49267Y1527523D01*
X49397Y1527549D01*
X49530Y1527558D01*
X73238D01*
X80262Y1534582D01*
Y1631528D01*
X68158Y1643632D01*
X54610D01*
X54556Y1643635D01*
X54503Y1643638D01*
X54490Y1643640D01*
X54477Y1643640D01*
X54424Y1643651D01*
X54372Y1643660D01*
X54359Y1643664D01*
X54346Y1643667D01*
X54296Y1643684D01*
X54244Y1643700D01*
X54233Y1643705D01*
X54220Y1643709D01*
X54172Y1643733D01*
X54124Y1643755D01*
X54113Y1643763D01*
X54101Y1643768D01*
X54057Y1643798D01*
X54011Y1643827D01*
X54001Y1643835D01*
X53990Y1643842D01*
X53950Y1643877D01*
X53909Y1643912D01*
X53900Y1643922D01*
X53890Y1643930D01*
X53855Y1643970D01*
X53818Y1644010D01*
X53811Y1644020D01*
X53802Y1644030D01*
X53773Y1644075D01*
X53741Y1644119D01*
X53735Y1644130D01*
X53728Y1644141D01*
X53705Y1644189D01*
X53680Y1644236D01*
X48600Y1655667D01*
X48584Y1655707D01*
X48568Y1655747D01*
X48562Y1655770D01*
X48554Y1655791D01*
X48544Y1655834D01*
X48533Y1655876D01*
X48529Y1655899D01*
X48524Y1655921D01*
X48520Y1655965D01*
X48514Y1656008D01*
X48514Y1656031D01*
X48512Y1656054D01*
X48514Y1656097D01*
X48514Y1656141D01*
X48517Y1656164D01*
X48517Y1656187D01*
X48525Y1656230D01*
X48530Y1656273D01*
X48536Y1656295D01*
X48540Y1656318D01*
X48553Y1656360D01*
X48564Y1656402D01*
X51104Y1664022D01*
X51118Y1664055D01*
X51129Y1664090D01*
X51143Y1664117D01*
X51154Y1664145D01*
X51172Y1664177D01*
X51188Y1664209D01*
X51205Y1664234D01*
X51220Y1664261D01*
X51242Y1664290D01*
X51262Y1664320D01*
X51282Y1664343D01*
X51301Y1664367D01*
X51326Y1664393D01*
X51350Y1664420D01*
X51373Y1664440D01*
X51395Y1664462D01*
X51423Y1664484D01*
X51450Y1664508D01*
X51475Y1664525D01*
X51500Y1664543D01*
X51531Y1664562D01*
X51561Y1664582D01*
X51588Y1664595D01*
X51615Y1664611D01*
X51648Y1664625D01*
X51680Y1664641D01*
X51709Y1664651D01*
X51737Y1664662D01*
X51772Y1664672D01*
X51807Y1664684D01*
X51836Y1664689D01*
X51866Y1664698D01*
X51902Y1664702D01*
X51937Y1664709D01*
X51967Y1664711D01*
X51998Y1664716D01*
X52034Y1664716D01*
X52070Y1664718D01*
X87630D01*
X87763Y1664709D01*
D02*
G37*
G36*
X1745113Y1420869D02*
X1745244Y1420844D01*
X1745370Y1420801D01*
X1745489Y1420742D01*
X1745600Y1420668D01*
X1745700Y1420580D01*
X1746672Y1419608D01*
X1757680D01*
X1757813Y1419599D01*
X1757944Y1419574D01*
X1758070Y1419531D01*
X1758189Y1419472D01*
X1758300Y1419398D01*
X1758400Y1419310D01*
X1761912Y1415798D01*
X1776730D01*
X1776863Y1415789D01*
X1776994Y1415764D01*
X1777120Y1415721D01*
X1777239Y1415662D01*
X1777350Y1415588D01*
X1777450Y1415500D01*
X1781260Y1411690D01*
X1781348Y1411590D01*
X1781422Y1411479D01*
X1781481Y1411360D01*
X1781523Y1411234D01*
X1781550Y1411103D01*
X1781558Y1410970D01*
Y1395730D01*
X1781550Y1395597D01*
X1781523Y1395466D01*
X1781481Y1395340D01*
X1781422Y1395221D01*
X1781348Y1395110D01*
X1781260Y1395010D01*
X1781160Y1394922D01*
X1781049Y1394848D01*
X1780930Y1394789D01*
X1780804Y1394747D01*
X1780673Y1394720D01*
X1780540Y1394712D01*
X1764452D01*
X1754590Y1384850D01*
X1754490Y1384762D01*
X1754379Y1384688D01*
X1754260Y1384629D01*
X1754133Y1384586D01*
X1754003Y1384561D01*
X1753870Y1384552D01*
X1751078D01*
Y1285662D01*
X1758102Y1278638D01*
X1779270D01*
X1779403Y1278630D01*
X1779534Y1278604D01*
X1779660Y1278561D01*
X1779779Y1278502D01*
X1779890Y1278428D01*
X1779990Y1278340D01*
X1780078Y1278240D01*
X1780152Y1278129D01*
X1780211Y1278010D01*
X1780253Y1277884D01*
X1780280Y1277753D01*
X1780288Y1277620D01*
Y1256030D01*
X1780280Y1255897D01*
X1780253Y1255767D01*
X1780211Y1255640D01*
X1780152Y1255521D01*
X1780078Y1255410D01*
X1779990Y1255310D01*
X1779890Y1255222D01*
X1779779Y1255148D01*
X1779660Y1255089D01*
X1779534Y1255046D01*
X1779403Y1255021D01*
X1779270Y1255012D01*
X1746250D01*
X1746117Y1255021D01*
X1745986Y1255046D01*
X1745860Y1255089D01*
X1745741Y1255148D01*
X1745630Y1255222D01*
X1745530Y1255310D01*
X1730588Y1270252D01*
X1723390D01*
X1723257Y1270260D01*
X1723127Y1270286D01*
X1723000Y1270329D01*
X1722881Y1270388D01*
X1722770Y1270462D01*
X1722670Y1270550D01*
X1722582Y1270650D01*
X1722508Y1270761D01*
X1722449Y1270880D01*
X1722406Y1271006D01*
X1722381Y1271137D01*
X1722372Y1271270D01*
Y1274658D01*
X1717590Y1279440D01*
X1717502Y1279540D01*
X1717428Y1279651D01*
X1717369Y1279770D01*
X1717327Y1279896D01*
X1717301Y1280027D01*
X1717292Y1280160D01*
Y1327402D01*
X1530350D01*
X1530217Y1327410D01*
X1530087Y1327437D01*
X1529960Y1327479D01*
X1529841Y1327538D01*
X1529730Y1327612D01*
X1529630Y1327700D01*
X1523280Y1334050D01*
X1523192Y1334150D01*
X1523118Y1334261D01*
X1523059Y1334380D01*
X1523017Y1334507D01*
X1522991Y1334637D01*
X1522982Y1334770D01*
Y1353820D01*
X1522991Y1353953D01*
X1523017Y1354084D01*
X1523059Y1354210D01*
X1523118Y1354329D01*
X1523192Y1354440D01*
X1523280Y1354540D01*
X1523380Y1354628D01*
X1523491Y1354702D01*
X1523610Y1354761D01*
X1523737Y1354803D01*
X1523867Y1354830D01*
X1524000Y1354838D01*
X1524848D01*
X1534710Y1364700D01*
X1534810Y1364788D01*
X1534921Y1364862D01*
X1535040Y1364921D01*
X1535166Y1364964D01*
X1535297Y1364989D01*
X1535430Y1364998D01*
X1716022D01*
Y1400810D01*
X1716030Y1400943D01*
X1716057Y1401073D01*
X1716099Y1401200D01*
X1716158Y1401319D01*
X1716232Y1401430D01*
X1716320Y1401530D01*
X1716420Y1401618D01*
X1716531Y1401692D01*
X1716650Y1401751D01*
X1716776Y1401794D01*
X1716907Y1401819D01*
X1717040Y1401828D01*
X1717173Y1401819D01*
X1717303Y1401794D01*
X1717430Y1401751D01*
X1717549Y1401692D01*
X1717660Y1401618D01*
X1717760Y1401530D01*
X1718732Y1400558D01*
X1724238D01*
X1744260Y1420580D01*
X1744360Y1420668D01*
X1744471Y1420742D01*
X1744590Y1420801D01*
X1744716Y1420844D01*
X1744847Y1420869D01*
X1744980Y1420878D01*
X1745113Y1420869D01*
D02*
G37*
G36*
X1474481Y1815847D02*
X1474492Y1815848D01*
X1474547Y1815843D01*
X1474603Y1815840D01*
X1474613Y1815837D01*
X1474624Y1815836D01*
X1474679Y1815824D01*
X1474733Y1815813D01*
X1474744Y1815810D01*
X1474754Y1815808D01*
X1474807Y1815789D01*
X1474860Y1815771D01*
X1474870Y1815766D01*
X1474879Y1815762D01*
X1474929Y1815737D01*
X1474979Y1815712D01*
X1474988Y1815706D01*
X1474998Y1815701D01*
X1475044Y1815669D01*
X1475090Y1815638D01*
X1475098Y1815631D01*
X1475107Y1815624D01*
X1475148Y1815586D01*
X1475190Y1815550D01*
X1476162Y1814578D01*
X1508760D01*
X1508893Y1814570D01*
X1509023Y1814543D01*
X1509150Y1814501D01*
X1509269Y1814442D01*
X1509380Y1814368D01*
X1509480Y1814280D01*
X1509568Y1814180D01*
X1509642Y1814069D01*
X1509701Y1813950D01*
X1509743Y1813824D01*
X1509769Y1813693D01*
X1509778Y1813560D01*
Y1772072D01*
X1524422Y1757428D01*
X1663700D01*
X1663833Y1757419D01*
X1663963Y1757393D01*
X1664090Y1757351D01*
X1664209Y1757292D01*
X1664320Y1757218D01*
X1664420Y1757130D01*
X1664970Y1756580D01*
X1674410Y1766020D01*
X1674510Y1766108D01*
X1674621Y1766182D01*
X1674740Y1766241D01*
X1674866Y1766284D01*
X1674997Y1766310D01*
X1675130Y1766318D01*
X1700530D01*
X1700663Y1766310D01*
X1700793Y1766284D01*
X1700920Y1766241D01*
X1701039Y1766182D01*
X1701150Y1766108D01*
X1701250Y1766020D01*
X1711410Y1755860D01*
X1711498Y1755760D01*
X1711572Y1755649D01*
X1711631Y1755530D01*
X1711673Y1755403D01*
X1711700Y1755273D01*
X1711708Y1755140D01*
Y1725930D01*
X1711700Y1725797D01*
X1711673Y1725667D01*
X1711631Y1725540D01*
X1711572Y1725421D01*
X1711498Y1725310D01*
X1711410Y1725210D01*
X1697440Y1711240D01*
X1697340Y1711152D01*
X1697229Y1711078D01*
X1697110Y1711019D01*
X1696983Y1710977D01*
X1696853Y1710950D01*
X1696720Y1710942D01*
X1671320D01*
X1671187Y1710950D01*
X1671057Y1710977D01*
X1670930Y1711019D01*
X1670811Y1711078D01*
X1670700Y1711152D01*
X1670600Y1711240D01*
X1670512Y1711340D01*
X1670438Y1711451D01*
X1670379Y1711570D01*
X1670336Y1711696D01*
X1670311Y1711827D01*
X1670302Y1711960D01*
Y1714078D01*
X1660738Y1723642D01*
X1503680D01*
X1503547Y1723651D01*
X1503416Y1723676D01*
X1503290Y1723719D01*
X1503171Y1723778D01*
X1503060Y1723852D01*
X1502960Y1723940D01*
X1472480Y1754420D01*
X1472473Y1754428D01*
X1472465Y1754435D01*
X1472429Y1754479D01*
X1472392Y1754520D01*
X1472386Y1754529D01*
X1472379Y1754538D01*
X1472349Y1754584D01*
X1472318Y1754631D01*
X1472313Y1754641D01*
X1472308Y1754650D01*
X1472284Y1754700D01*
X1472259Y1754750D01*
X1472256Y1754761D01*
X1472251Y1754771D01*
X1472234Y1754824D01*
X1472216Y1754877D01*
X1472214Y1754887D01*
X1472211Y1754897D01*
X1472201Y1754952D01*
X1472191Y1755007D01*
X1472190Y1755018D01*
X1472188Y1755029D01*
X1472186Y1755084D01*
X1472182Y1755140D01*
X1472182Y1755151D01*
X1472182Y1755162D01*
X1473452Y1814852D01*
X1473457Y1814907D01*
X1473461Y1814963D01*
X1473463Y1814973D01*
X1473464Y1814984D01*
X1473476Y1815039D01*
X1473486Y1815094D01*
X1473490Y1815104D01*
X1473492Y1815114D01*
X1473511Y1815167D01*
X1473529Y1815220D01*
X1473534Y1815229D01*
X1473538Y1815240D01*
X1473563Y1815289D01*
X1473588Y1815339D01*
X1473594Y1815348D01*
X1473599Y1815358D01*
X1473631Y1815404D01*
X1473662Y1815450D01*
X1473669Y1815458D01*
X1473676Y1815467D01*
X1473714Y1815508D01*
X1473750Y1815550D01*
X1473758Y1815557D01*
X1473766Y1815565D01*
X1473809Y1815601D01*
X1473850Y1815638D01*
X1473859Y1815644D01*
X1473867Y1815651D01*
X1473915Y1815681D01*
X1473961Y1815712D01*
X1473971Y1815717D01*
X1473980Y1815722D01*
X1474030Y1815746D01*
X1474080Y1815771D01*
X1474091Y1815774D01*
X1474100Y1815779D01*
X1474154Y1815796D01*
X1474207Y1815813D01*
X1474217Y1815816D01*
X1474227Y1815819D01*
X1474282Y1815829D01*
X1474337Y1815840D01*
X1474348Y1815840D01*
X1474359Y1815842D01*
X1474414Y1815845D01*
X1474470Y1815848D01*
X1474481Y1815847D01*
D02*
G37*
G36*
X1745113Y1869180D02*
X1745244Y1869153D01*
X1745370Y1869111D01*
X1745489Y1869052D01*
X1745600Y1868978D01*
X1745700Y1868890D01*
X1746672Y1867918D01*
X1757680D01*
X1757813Y1867910D01*
X1757944Y1867883D01*
X1758070Y1867841D01*
X1758189Y1867782D01*
X1758300Y1867708D01*
X1758400Y1867620D01*
X1763182Y1862838D01*
X1779270D01*
X1779403Y1862829D01*
X1779534Y1862803D01*
X1779660Y1862761D01*
X1779779Y1862702D01*
X1779890Y1862628D01*
X1779990Y1862540D01*
X1780078Y1862440D01*
X1780152Y1862329D01*
X1780211Y1862210D01*
X1780253Y1862083D01*
X1780280Y1861953D01*
X1780288Y1861820D01*
Y1841500D01*
X1780280Y1841367D01*
X1780253Y1841237D01*
X1780211Y1841110D01*
X1780152Y1840991D01*
X1780078Y1840880D01*
X1779990Y1840780D01*
X1779890Y1840692D01*
X1779779Y1840618D01*
X1779660Y1840559D01*
X1779534Y1840517D01*
X1779403Y1840491D01*
X1779270Y1840482D01*
X1761912D01*
X1752770Y1831340D01*
X1754590Y1829520D01*
X1754678Y1829420D01*
X1754752Y1829309D01*
X1754811Y1829190D01*
X1754854Y1829064D01*
X1754879Y1828933D01*
X1754888Y1828800D01*
Y1730162D01*
X1759372Y1725678D01*
X1774190D01*
X1774323Y1725670D01*
X1774453Y1725643D01*
X1774580Y1725601D01*
X1774699Y1725542D01*
X1774810Y1725468D01*
X1774910Y1725380D01*
X1782530Y1717760D01*
X1782618Y1717660D01*
X1782692Y1717549D01*
X1782751Y1717430D01*
X1782793Y1717303D01*
X1782820Y1717173D01*
X1782828Y1717040D01*
Y1706880D01*
X1782820Y1706747D01*
X1782793Y1706617D01*
X1782751Y1706490D01*
X1782692Y1706371D01*
X1782618Y1706260D01*
X1782530Y1706160D01*
X1782430Y1706072D01*
X1782319Y1705998D01*
X1782200Y1705939D01*
X1782074Y1705896D01*
X1781943Y1705871D01*
X1781810Y1705862D01*
X1779692D01*
X1774910Y1701080D01*
X1774810Y1700992D01*
X1774699Y1700918D01*
X1774580Y1700859D01*
X1774453Y1700816D01*
X1774323Y1700791D01*
X1774190Y1700782D01*
X1741170D01*
X1741037Y1700791D01*
X1740907Y1700816D01*
X1740780Y1700859D01*
X1740661Y1700918D01*
X1740550Y1700992D01*
X1740450Y1701080D01*
X1720130Y1721400D01*
X1720042Y1721500D01*
X1719968Y1721611D01*
X1719909Y1721730D01*
X1719866Y1721857D01*
X1719841Y1721987D01*
X1719832Y1722120D01*
Y1779522D01*
X1533312D01*
X1532340Y1778550D01*
X1532240Y1778462D01*
X1532129Y1778388D01*
X1532049Y1778349D01*
X1532010Y1778329D01*
X1531884Y1778286D01*
X1531753Y1778260D01*
X1531620Y1778252D01*
X1531487Y1778260D01*
X1531357Y1778286D01*
X1531230Y1778329D01*
X1531111Y1778388D01*
X1531000Y1778462D01*
X1530900Y1778550D01*
X1522010Y1787440D01*
X1521922Y1787540D01*
X1521848Y1787651D01*
X1521789Y1787770D01*
X1521768Y1787833D01*
X1521747Y1787897D01*
X1521720Y1788027D01*
X1521712Y1788160D01*
Y1814830D01*
X1521720Y1814963D01*
X1521747Y1815094D01*
X1521789Y1815220D01*
X1521848Y1815339D01*
X1521922Y1815450D01*
X1522010Y1815550D01*
X1523280Y1816820D01*
X1523380Y1816908D01*
X1523491Y1816982D01*
X1523610Y1817041D01*
X1523737Y1817083D01*
X1523867Y1817110D01*
X1524000Y1817118D01*
X1714752D01*
Y1832610D01*
X1714760Y1832743D01*
X1714787Y1832874D01*
X1714829Y1833000D01*
X1714888Y1833119D01*
X1714962Y1833230D01*
X1715050Y1833330D01*
X1719832Y1838112D01*
Y1844040D01*
X1719841Y1844173D01*
X1719866Y1844303D01*
X1719909Y1844430D01*
X1719968Y1844549D01*
X1720042Y1844660D01*
X1720130Y1844760D01*
X1744260Y1868890D01*
X1744360Y1868978D01*
X1744471Y1869052D01*
X1744590Y1869111D01*
X1744716Y1869153D01*
X1744847Y1869180D01*
X1744980Y1869188D01*
X1745113Y1869180D01*
D02*
G37*
G36*
X123224Y1645666D02*
X123258Y1645666D01*
X123290Y1645662D01*
X123323Y1645659D01*
X123356Y1645653D01*
X123390Y1645648D01*
X123421Y1645640D01*
X123454Y1645634D01*
X123486Y1645623D01*
X123518Y1645614D01*
X123548Y1645601D01*
X123580Y1645591D01*
X123610Y1645576D01*
X123641Y1645563D01*
X123670Y1645546D01*
X123699Y1645532D01*
X123727Y1645513D01*
X123757Y1645496D01*
X123783Y1645476D01*
X123810Y1645458D01*
X123835Y1645435D01*
X123862Y1645415D01*
X123885Y1645392D01*
X123910Y1645370D01*
X128692Y1640588D01*
X312420D01*
X312553Y1640580D01*
X312684Y1640553D01*
X312810Y1640511D01*
X312929Y1640452D01*
X313040Y1640378D01*
X313140Y1640290D01*
X358860Y1594570D01*
X358948Y1594470D01*
X359022Y1594359D01*
X359081Y1594240D01*
X359123Y1594113D01*
X359150Y1593983D01*
X359158Y1593850D01*
X359150Y1593717D01*
X359123Y1593586D01*
X359081Y1593460D01*
X359022Y1593341D01*
X358948Y1593230D01*
X358860Y1593130D01*
X357888Y1592158D01*
Y1558290D01*
X357879Y1558157D01*
X357854Y1558026D01*
X357811Y1557900D01*
X357752Y1557781D01*
X357678Y1557670D01*
X357590Y1557570D01*
X348700Y1548680D01*
X348600Y1548592D01*
X348489Y1548518D01*
X348370Y1548459D01*
X348243Y1548416D01*
X348113Y1548391D01*
X347980Y1548382D01*
X347847Y1548391D01*
X347716Y1548416D01*
X347590Y1548459D01*
X347471Y1548518D01*
X347360Y1548592D01*
X347260Y1548680D01*
X346288Y1549652D01*
X327660D01*
X327527Y1549660D01*
X327397Y1549686D01*
X327270Y1549729D01*
X327151Y1549788D01*
X327040Y1549862D01*
X326940Y1549950D01*
X326852Y1550050D01*
X326778Y1550161D01*
X326719Y1550280D01*
X326676Y1550406D01*
X326651Y1550537D01*
X326642Y1550670D01*
Y1562948D01*
X319320Y1570270D01*
X319232Y1570370D01*
X319158Y1570481D01*
X319099Y1570600D01*
X319056Y1570726D01*
X319030Y1570857D01*
X319022Y1570990D01*
X319030Y1571123D01*
X319056Y1571254D01*
X319099Y1571380D01*
X319158Y1571499D01*
X319232Y1571610D01*
X319320Y1571710D01*
X320292Y1572682D01*
Y1581402D01*
X318770D01*
X318637Y1581411D01*
X318507Y1581436D01*
X318380Y1581479D01*
X318261Y1581538D01*
X318150Y1581612D01*
X318050Y1581700D01*
X295910Y1603840D01*
X295360Y1603290D01*
X295260Y1603202D01*
X295149Y1603128D01*
X295030Y1603069D01*
X294904Y1603026D01*
X294773Y1603000D01*
X294640Y1602992D01*
X127000D01*
X126867Y1603000D01*
X126736Y1603026D01*
X126610Y1603069D01*
X126491Y1603128D01*
X126380Y1603202D01*
X126280Y1603290D01*
X126192Y1603390D01*
X126118Y1603501D01*
X126059Y1603620D01*
X126017Y1603746D01*
X125990Y1603877D01*
X125982Y1604010D01*
Y1609938D01*
X117390Y1618530D01*
X117368Y1618555D01*
X117344Y1618580D01*
X117324Y1618606D01*
X117302Y1618630D01*
X117283Y1618658D01*
X117263Y1618685D01*
X117247Y1618713D01*
X117228Y1618741D01*
X117213Y1618772D01*
X117196Y1618801D01*
X117184Y1618831D01*
X117169Y1618860D01*
X117158Y1618893D01*
X117146Y1618924D01*
X117137Y1618956D01*
X117127Y1618987D01*
X117120Y1619020D01*
X117111Y1619052D01*
X117107Y1619085D01*
X117100Y1619117D01*
X117098Y1619151D01*
X117094Y1619185D01*
X117094Y1619217D01*
X117092Y1619250D01*
X117094Y1619284D01*
X117094Y1619318D01*
X117098Y1619350D01*
X117100Y1619383D01*
X117107Y1619416D01*
X117112Y1619450D01*
X122192Y1644850D01*
X122200Y1644881D01*
X122206Y1644913D01*
X122217Y1644946D01*
X122226Y1644978D01*
X122239Y1645008D01*
X122249Y1645040D01*
X122264Y1645070D01*
X122277Y1645101D01*
X122294Y1645130D01*
X122308Y1645159D01*
X122327Y1645187D01*
X122344Y1645217D01*
X122364Y1645242D01*
X122382Y1645270D01*
X122405Y1645295D01*
X122425Y1645322D01*
X122448Y1645345D01*
X122470Y1645370D01*
X122495Y1645392D01*
X122520Y1645416D01*
X122546Y1645436D01*
X122570Y1645458D01*
X122598Y1645476D01*
X122625Y1645497D01*
X122654Y1645514D01*
X122681Y1645532D01*
X122711Y1645547D01*
X122741Y1645564D01*
X122771Y1645576D01*
X122800Y1645591D01*
X122833Y1645602D01*
X122864Y1645614D01*
X122895Y1645623D01*
X122927Y1645634D01*
X122960Y1645640D01*
X122992Y1645649D01*
X123025Y1645653D01*
X123057Y1645659D01*
X123091Y1645662D01*
X123125Y1645666D01*
X123157Y1645666D01*
X123190Y1645668D01*
X123224Y1645666D01*
D02*
G37*
G36*
X123199Y1201168D02*
X123208Y1201168D01*
X123265Y1201163D01*
X123323Y1201160D01*
X123332Y1201158D01*
X123341Y1201157D01*
X123397Y1201145D01*
X123454Y1201133D01*
X123462Y1201131D01*
X123471Y1201129D01*
X123524Y1201109D01*
X123580Y1201091D01*
X123588Y1201087D01*
X123596Y1201084D01*
X123647Y1201058D01*
X123699Y1201032D01*
X123707Y1201027D01*
X123715Y1201022D01*
X123762Y1200990D01*
X123810Y1200958D01*
X123817Y1200952D01*
X123824Y1200947D01*
X123866Y1200909D01*
X123910Y1200870D01*
X124882Y1199898D01*
X306070D01*
X306203Y1199890D01*
X306334Y1199864D01*
X306460Y1199821D01*
X306579Y1199762D01*
X306690Y1199688D01*
X306790Y1199600D01*
X306878Y1199500D01*
X306952Y1199389D01*
X307011Y1199270D01*
X307054Y1199144D01*
X307080Y1199013D01*
X307088Y1198880D01*
Y1195492D01*
X357590Y1144990D01*
X357678Y1144890D01*
X357752Y1144779D01*
X357811Y1144660D01*
X357854Y1144533D01*
X357879Y1144403D01*
X357888Y1144270D01*
Y1112520D01*
X357879Y1112387D01*
X357854Y1112256D01*
X357811Y1112130D01*
X357752Y1112011D01*
X357678Y1111900D01*
X357590Y1111800D01*
X357490Y1111712D01*
X357379Y1111638D01*
X357260Y1111579D01*
X357133Y1111536D01*
X357003Y1111510D01*
X356870Y1111502D01*
X353482D01*
X348700Y1106720D01*
X348600Y1106632D01*
X348489Y1106558D01*
X348370Y1106499D01*
X348243Y1106457D01*
X348113Y1106431D01*
X347980Y1106422D01*
X327660D01*
X327527Y1106431D01*
X327397Y1106457D01*
X327270Y1106499D01*
X327151Y1106558D01*
X327040Y1106632D01*
X326940Y1106720D01*
X319320Y1114340D01*
X319232Y1114440D01*
X319158Y1114551D01*
X319099Y1114670D01*
X319056Y1114797D01*
X319030Y1114927D01*
X319022Y1115060D01*
Y1133092D01*
X317500D01*
X317367Y1133101D01*
X317236Y1133127D01*
X317110Y1133169D01*
X316991Y1133228D01*
X316880Y1133302D01*
X316780Y1133390D01*
X290830Y1159340D01*
X289010Y1157520D01*
X288910Y1157432D01*
X288799Y1157358D01*
X288680Y1157299D01*
X288554Y1157256D01*
X288423Y1157231D01*
X288290Y1157222D01*
X132080D01*
X131947Y1157231D01*
X131817Y1157256D01*
X131690Y1157299D01*
X131571Y1157358D01*
X131460Y1157432D01*
X131360Y1157520D01*
X131272Y1157620D01*
X131198Y1157731D01*
X131139Y1157850D01*
X131096Y1157977D01*
X131070Y1158107D01*
X131062Y1158240D01*
Y1161628D01*
X118660Y1174030D01*
X118654Y1174037D01*
X118647Y1174043D01*
X118610Y1174087D01*
X118572Y1174130D01*
X118567Y1174138D01*
X118561Y1174145D01*
X118530Y1174193D01*
X118498Y1174241D01*
X118494Y1174249D01*
X118489Y1174257D01*
X118465Y1174308D01*
X118439Y1174360D01*
X118436Y1174369D01*
X118433Y1174377D01*
X118415Y1174432D01*
X118397Y1174486D01*
X118395Y1174495D01*
X118392Y1174504D01*
X118382Y1174561D01*
X118371Y1174617D01*
X118370Y1174626D01*
X118368Y1174635D01*
X118366Y1174693D01*
X118362Y1174750D01*
X118362Y1174759D01*
X118362Y1174768D01*
X118367Y1174826D01*
X118371Y1174883D01*
X118372Y1174892D01*
X118373Y1174901D01*
X122183Y1200301D01*
X122195Y1200357D01*
X122206Y1200414D01*
X122210Y1200422D01*
X122211Y1200431D01*
X122231Y1200485D01*
X122249Y1200540D01*
X122253Y1200548D01*
X122256Y1200556D01*
X122283Y1200608D01*
X122308Y1200659D01*
X122313Y1200667D01*
X122317Y1200675D01*
X122351Y1200722D01*
X122382Y1200770D01*
X122388Y1200777D01*
X122394Y1200784D01*
X122432Y1200826D01*
X122470Y1200870D01*
X122477Y1200876D01*
X122483Y1200883D01*
X122527Y1200920D01*
X122570Y1200958D01*
X122578Y1200963D01*
X122585Y1200969D01*
X122633Y1201000D01*
X122681Y1201032D01*
X122689Y1201036D01*
X122697Y1201041D01*
X122748Y1201065D01*
X122800Y1201091D01*
X122809Y1201094D01*
X122817Y1201097D01*
X122871Y1201115D01*
X122927Y1201133D01*
X122935Y1201135D01*
X122944Y1201138D01*
X123000Y1201148D01*
X123057Y1201160D01*
X123066Y1201160D01*
X123075Y1201162D01*
X123132Y1201164D01*
X123190Y1201168D01*
X123199Y1201168D01*
D02*
G37*
G36*
X1691773Y1977130D02*
X1691904Y1977103D01*
X1692030Y1977061D01*
X1692149Y1977002D01*
X1692260Y1976928D01*
X1692360Y1976840D01*
X1736512Y1932688D01*
X1794510D01*
X1794643Y1932679D01*
X1794774Y1932654D01*
X1794900Y1932611D01*
X1795019Y1932552D01*
X1795130Y1932478D01*
X1795230Y1932390D01*
X1826980Y1900640D01*
X1827068Y1900540D01*
X1827142Y1900429D01*
X1827201Y1900310D01*
X1827243Y1900184D01*
X1827269Y1900053D01*
X1827278Y1899920D01*
X1827269Y1899787D01*
X1827243Y1899657D01*
X1827201Y1899530D01*
X1827142Y1899411D01*
X1827068Y1899300D01*
X1826980Y1899200D01*
X1826008Y1898228D01*
Y161290D01*
X1825999Y161157D01*
X1825974Y161026D01*
X1825931Y160900D01*
X1825872Y160781D01*
X1825798Y160670D01*
X1825710Y160570D01*
X1825610Y160482D01*
X1825499Y160408D01*
X1825380Y160349D01*
X1825253Y160306D01*
X1825123Y160280D01*
X1824990Y160272D01*
X1766570D01*
X1766437Y160280D01*
X1766306Y160306D01*
X1766180Y160349D01*
X1766061Y160408D01*
X1765950Y160482D01*
X1765850Y160570D01*
X1759500Y166920D01*
X1759412Y167020D01*
X1759338Y167131D01*
X1759279Y167250D01*
X1759236Y167376D01*
X1759211Y167507D01*
X1759202Y167640D01*
Y181610D01*
X1759211Y181743D01*
X1759236Y181873D01*
X1759279Y182000D01*
X1759338Y182119D01*
X1759412Y182230D01*
X1759500Y182330D01*
X1759600Y182418D01*
X1759711Y182492D01*
X1759830Y182551D01*
X1759957Y182593D01*
X1760087Y182619D01*
X1760220Y182628D01*
X1792222D01*
Y385062D01*
X1765300D01*
X1765167Y385070D01*
X1765036Y385097D01*
X1764910Y385139D01*
X1764791Y385198D01*
X1764680Y385272D01*
X1764580Y385360D01*
X1758230Y391710D01*
X1758142Y391810D01*
X1758068Y391921D01*
X1758009Y392040D01*
X1757966Y392166D01*
X1757941Y392297D01*
X1757932Y392430D01*
Y400050D01*
X1757941Y400183D01*
X1757966Y400313D01*
X1758009Y400440D01*
X1758068Y400559D01*
X1758142Y400670D01*
X1758230Y400770D01*
X1764580Y407120D01*
X1764680Y407208D01*
X1764791Y407282D01*
X1764910Y407341D01*
X1765036Y407383D01*
X1765167Y407410D01*
X1765300Y407418D01*
X1792222D01*
Y607908D01*
X1791548Y608582D01*
X1760220D01*
X1760087Y608591D01*
X1759957Y608616D01*
X1759830Y608659D01*
X1759711Y608718D01*
X1759600Y608792D01*
X1759500Y608880D01*
X1759412Y608980D01*
X1759338Y609091D01*
X1759279Y609210D01*
X1759236Y609337D01*
X1759211Y609467D01*
X1759202Y609600D01*
Y629920D01*
X1759211Y630053D01*
X1759236Y630183D01*
X1759279Y630310D01*
X1759338Y630429D01*
X1759412Y630540D01*
X1759500Y630640D01*
X1759600Y630728D01*
X1759711Y630802D01*
X1759830Y630861D01*
X1759957Y630904D01*
X1760087Y630929D01*
X1760220Y630938D01*
X1792222D01*
Y831428D01*
X1791548Y832102D01*
X1762760D01*
X1762627Y832111D01*
X1762496Y832137D01*
X1762370Y832179D01*
X1762251Y832238D01*
X1762140Y832312D01*
X1762040Y832400D01*
X1761952Y832500D01*
X1761878Y832611D01*
X1761819Y832730D01*
X1761776Y832857D01*
X1761750Y832987D01*
X1761742Y833120D01*
Y837778D01*
X1759500Y840020D01*
X1759412Y840120D01*
X1759338Y840231D01*
X1759279Y840350D01*
X1759236Y840477D01*
X1759211Y840607D01*
X1759202Y840740D01*
Y849630D01*
X1759211Y849763D01*
X1759236Y849893D01*
X1759279Y850020D01*
X1759338Y850139D01*
X1759412Y850250D01*
X1759500Y850350D01*
X1763310Y854160D01*
X1763410Y854248D01*
X1763521Y854322D01*
X1763640Y854381D01*
X1763766Y854424D01*
X1763897Y854449D01*
X1764030Y854458D01*
X1791548D01*
X1791800Y854710D01*
X1791250Y855260D01*
X1791162Y855360D01*
X1791088Y855471D01*
X1791029Y855590D01*
X1790986Y855716D01*
X1790961Y855847D01*
X1790952Y855980D01*
Y1055622D01*
X1766570D01*
X1766437Y1055630D01*
X1766306Y1055657D01*
X1766180Y1055699D01*
X1766061Y1055758D01*
X1765950Y1055832D01*
X1765850Y1055920D01*
X1758230Y1063540D01*
X1758142Y1063640D01*
X1758068Y1063751D01*
X1758009Y1063870D01*
X1757966Y1063997D01*
X1757941Y1064127D01*
X1757932Y1064260D01*
Y1071880D01*
X1757941Y1072013D01*
X1757966Y1072143D01*
X1758009Y1072270D01*
X1758068Y1072389D01*
X1758142Y1072500D01*
X1758230Y1072600D01*
X1765850Y1080220D01*
X1765950Y1080308D01*
X1766061Y1080382D01*
X1766180Y1080441D01*
X1766306Y1080483D01*
X1766437Y1080509D01*
X1766570Y1080518D01*
X1766703Y1080509D01*
X1766833Y1080483D01*
X1766960Y1080441D01*
X1767079Y1080382D01*
X1767190Y1080308D01*
X1767290Y1080220D01*
X1768262Y1079248D01*
X1789008D01*
X1791800Y1082040D01*
X1791250Y1082590D01*
X1791162Y1082690D01*
X1791088Y1082801D01*
X1791029Y1082920D01*
X1790986Y1083046D01*
X1790961Y1083177D01*
X1790952Y1083310D01*
Y1280412D01*
X1766570D01*
X1766437Y1280421D01*
X1766306Y1280446D01*
X1766180Y1280489D01*
X1766061Y1280548D01*
X1765950Y1280622D01*
X1765850Y1280710D01*
X1759500Y1287060D01*
X1759412Y1287160D01*
X1759338Y1287271D01*
X1759279Y1287390D01*
X1759236Y1287516D01*
X1759211Y1287647D01*
X1759202Y1287780D01*
Y1296670D01*
X1759211Y1296803D01*
X1759236Y1296933D01*
X1759279Y1297060D01*
X1759338Y1297179D01*
X1759412Y1297290D01*
X1759500Y1297390D01*
X1765850Y1303740D01*
X1765950Y1303828D01*
X1766061Y1303902D01*
X1766180Y1303961D01*
X1766306Y1304003D01*
X1766437Y1304030D01*
X1766570Y1304038D01*
X1789714D01*
X1789691Y1304157D01*
X1789682Y1304290D01*
Y1503932D01*
X1766570D01*
X1766437Y1503940D01*
X1766306Y1503967D01*
X1766180Y1504009D01*
X1766061Y1504068D01*
X1765950Y1504142D01*
X1765850Y1504230D01*
X1759500Y1510580D01*
X1759412Y1510680D01*
X1759338Y1510791D01*
X1759279Y1510910D01*
X1759236Y1511037D01*
X1759211Y1511167D01*
X1759202Y1511300D01*
Y1522730D01*
X1759211Y1522863D01*
X1759236Y1522993D01*
X1759279Y1523120D01*
X1759338Y1523239D01*
X1759412Y1523350D01*
X1759500Y1523450D01*
X1763310Y1527260D01*
X1763410Y1527348D01*
X1763521Y1527422D01*
X1763640Y1527481D01*
X1763766Y1527523D01*
X1763897Y1527549D01*
X1764030Y1527558D01*
X1792222D01*
Y1712808D01*
X1777280Y1727750D01*
X1777192Y1727850D01*
X1777118Y1727961D01*
X1777059Y1728080D01*
X1777016Y1728206D01*
X1776991Y1728337D01*
X1776982Y1728470D01*
Y1728722D01*
X1765300D01*
X1765167Y1728730D01*
X1765036Y1728757D01*
X1764910Y1728799D01*
X1764791Y1728858D01*
X1764680Y1728932D01*
X1764580Y1729020D01*
X1759500Y1734100D01*
X1759412Y1734200D01*
X1759338Y1734311D01*
X1759279Y1734430D01*
X1759236Y1734556D01*
X1759211Y1734687D01*
X1759202Y1734820D01*
Y1744980D01*
X1759211Y1745113D01*
X1759236Y1745244D01*
X1759279Y1745370D01*
X1759338Y1745489D01*
X1759412Y1745600D01*
X1759500Y1745700D01*
X1765850Y1752050D01*
X1765950Y1752138D01*
X1766061Y1752212D01*
X1766180Y1752271D01*
X1766306Y1752314D01*
X1766437Y1752339D01*
X1766570Y1752348D01*
X1783928D01*
X1790952Y1759372D01*
Y1888068D01*
X1780118Y1898902D01*
X1722120D01*
X1721987Y1898911D01*
X1721857Y1898936D01*
X1721730Y1898979D01*
X1721611Y1899038D01*
X1721500Y1899112D01*
X1721400Y1899200D01*
X1677248Y1943352D01*
X1003722D01*
X977350Y1916980D01*
X977250Y1916892D01*
X977139Y1916818D01*
X977020Y1916759D01*
X976893Y1916716D01*
X976763Y1916691D01*
X976630Y1916682D01*
X976497Y1916691D01*
X976367Y1916716D01*
X976240Y1916759D01*
X976121Y1916818D01*
X976010Y1916892D01*
X975910Y1916980D01*
X974938Y1917952D01*
X649392D01*
X636990Y1905550D01*
X636890Y1905462D01*
X636779Y1905388D01*
X636660Y1905329D01*
X636534Y1905287D01*
X636403Y1905260D01*
X636270Y1905252D01*
X622300D01*
X622167Y1905260D01*
X622037Y1905287D01*
X621910Y1905329D01*
X621791Y1905388D01*
X621680Y1905462D01*
X621580Y1905550D01*
X610448Y1916682D01*
X503342D01*
X487130Y1900470D01*
X487030Y1900382D01*
X486919Y1900308D01*
X486800Y1900249D01*
X486674Y1900206D01*
X486543Y1900181D01*
X486410Y1900172D01*
X46142D01*
X39118Y1893148D01*
Y1868592D01*
X39792Y1867918D01*
X48260D01*
X48393Y1867910D01*
X48524Y1867883D01*
X48650Y1867841D01*
X48769Y1867782D01*
X48880Y1867708D01*
X48980Y1867620D01*
X49788Y1866812D01*
X49782Y1866900D01*
Y1887220D01*
X49791Y1887353D01*
X49816Y1887484D01*
X49859Y1887610D01*
X49918Y1887729D01*
X49992Y1887840D01*
X50080Y1887940D01*
X50180Y1888028D01*
X50291Y1888102D01*
X50410Y1888161D01*
X50536Y1888203D01*
X50667Y1888230D01*
X50800Y1888238D01*
X91440D01*
X91573Y1888230D01*
X91704Y1888203D01*
X91830Y1888161D01*
X91949Y1888102D01*
X92060Y1888028D01*
X92160Y1887940D01*
X108670Y1871430D01*
X108758Y1871330D01*
X108832Y1871219D01*
X108891Y1871100D01*
X108933Y1870974D01*
X108960Y1870843D01*
X108968Y1870710D01*
Y1759968D01*
X143510D01*
X143643Y1759960D01*
X143773Y1759933D01*
X143900Y1759891D01*
X144019Y1759832D01*
X144130Y1759758D01*
X144230Y1759670D01*
X169630Y1734270D01*
X169718Y1734170D01*
X169792Y1734059D01*
X169851Y1733940D01*
X169893Y1733813D01*
X169919Y1733683D01*
X169928Y1733550D01*
Y1714500D01*
X169919Y1714367D01*
X169893Y1714236D01*
X169851Y1714110D01*
X169792Y1713991D01*
X169718Y1713880D01*
X169630Y1713780D01*
X156930Y1701080D01*
X156830Y1700992D01*
X156719Y1700918D01*
X156600Y1700859D01*
X156474Y1700816D01*
X156343Y1700791D01*
X156210Y1700782D01*
X134620D01*
X134487Y1700791D01*
X134356Y1700816D01*
X134230Y1700859D01*
X134111Y1700918D01*
X134000Y1700992D01*
X133900Y1701080D01*
X111338Y1723642D01*
X76200D01*
X76067Y1723651D01*
X75936Y1723676D01*
X75810Y1723719D01*
X75691Y1723778D01*
X75580Y1723852D01*
X75480Y1723940D01*
X71968Y1727452D01*
X50800D01*
X50667Y1727460D01*
X50536Y1727487D01*
X50410Y1727529D01*
X50291Y1727588D01*
X50180Y1727662D01*
X50080Y1727750D01*
X49992Y1727850D01*
X49918Y1727961D01*
X49859Y1728080D01*
X49816Y1728206D01*
X49791Y1728337D01*
X49782Y1728470D01*
Y1749638D01*
X48810Y1750610D01*
X48722Y1750710D01*
X48648Y1750821D01*
X48589Y1750940D01*
X48547Y1751066D01*
X48520Y1751197D01*
X48512Y1751330D01*
X48520Y1751463D01*
X48547Y1751593D01*
X48589Y1751720D01*
X48648Y1751839D01*
X48722Y1751950D01*
X48810Y1752050D01*
X48910Y1752138D01*
X49021Y1752212D01*
X49140Y1752271D01*
X49267Y1752314D01*
X49397Y1752339D01*
X49530Y1752348D01*
X76452D01*
Y1860128D01*
X70698Y1865882D01*
X50800D01*
X50712Y1865888D01*
X55032Y1861568D01*
X69850D01*
X69983Y1861559D01*
X70114Y1861534D01*
X70240Y1861491D01*
X70359Y1861432D01*
X70470Y1861358D01*
X70570Y1861270D01*
X70658Y1861170D01*
X70732Y1861059D01*
X70791Y1860940D01*
X70834Y1860813D01*
X70859Y1860683D01*
X70868Y1860550D01*
Y1842770D01*
X70859Y1842637D01*
X70834Y1842507D01*
X70791Y1842380D01*
X70732Y1842261D01*
X70658Y1842150D01*
X70570Y1842050D01*
X69300Y1840780D01*
X69200Y1840692D01*
X69089Y1840618D01*
X68970Y1840559D01*
X68843Y1840517D01*
X68713Y1840491D01*
X68580Y1840482D01*
X51222D01*
X39118Y1828378D01*
Y1644398D01*
X45720D01*
X45853Y1644389D01*
X45984Y1644364D01*
X46110Y1644321D01*
X46229Y1644262D01*
X46340Y1644188D01*
X46440Y1644100D01*
X51222Y1639318D01*
X64770D01*
X64903Y1639310D01*
X65033Y1639283D01*
X65160Y1639241D01*
X65279Y1639182D01*
X65390Y1639108D01*
X65490Y1639020D01*
X65578Y1638920D01*
X65652Y1638809D01*
X65711Y1638690D01*
X65753Y1638564D01*
X65780Y1638433D01*
X65788Y1638300D01*
Y1636182D01*
X71840Y1630130D01*
X71928Y1630030D01*
X72002Y1629919D01*
X72061Y1629800D01*
X72104Y1629673D01*
X72130Y1629543D01*
X72138Y1629410D01*
Y1621790D01*
X72130Y1621657D01*
X72104Y1621526D01*
X72061Y1621400D01*
X72002Y1621281D01*
X71928Y1621170D01*
X71840Y1621070D01*
X68030Y1617260D01*
X67930Y1617172D01*
X67819Y1617098D01*
X67700Y1617039D01*
X67573Y1616996D01*
X67443Y1616971D01*
X67310Y1616962D01*
X51222D01*
X39118Y1604858D01*
Y1420878D01*
X41910D01*
X42043Y1420869D01*
X42174Y1420844D01*
X42300Y1420801D01*
X42419Y1420742D01*
X42530Y1420668D01*
X42630Y1420580D01*
X48682Y1414528D01*
X66040D01*
X66173Y1414520D01*
X66304Y1414494D01*
X66430Y1414451D01*
X66549Y1414392D01*
X66660Y1414318D01*
X66760Y1414230D01*
X73110Y1407880D01*
X73198Y1407780D01*
X73272Y1407669D01*
X73331Y1407550D01*
X73373Y1407424D01*
X73400Y1407293D01*
X73408Y1407160D01*
Y1399540D01*
X73400Y1399407D01*
X73373Y1399276D01*
X73331Y1399150D01*
X73272Y1399031D01*
X73198Y1398920D01*
X73110Y1398820D01*
X66760Y1392470D01*
X66660Y1392382D01*
X66549Y1392308D01*
X66430Y1392249D01*
X66304Y1392207D01*
X66173Y1392180D01*
X66040Y1392172D01*
X46142D01*
X38270Y1384300D01*
X38820Y1383750D01*
X38908Y1383650D01*
X38982Y1383539D01*
X39041Y1383420D01*
X39083Y1383293D01*
X39109Y1383163D01*
X39118Y1383030D01*
Y1196088D01*
X45720D01*
X45853Y1196079D01*
X45984Y1196053D01*
X46110Y1196011D01*
X46229Y1195952D01*
X46340Y1195878D01*
X46440Y1195790D01*
X51222Y1191008D01*
X63500D01*
X63633Y1191000D01*
X63763Y1190974D01*
X63890Y1190931D01*
X64009Y1190872D01*
X64120Y1190798D01*
X64220Y1190710D01*
X71840Y1183090D01*
X71928Y1182990D01*
X72002Y1182879D01*
X72061Y1182760D01*
X72104Y1182634D01*
X72130Y1182503D01*
X72138Y1182370D01*
Y1173480D01*
X72130Y1173347D01*
X72104Y1173216D01*
X72061Y1173090D01*
X72002Y1172971D01*
X71928Y1172860D01*
X71840Y1172760D01*
X68030Y1168950D01*
X67930Y1168862D01*
X67819Y1168788D01*
X67700Y1168729D01*
X67573Y1168687D01*
X67443Y1168661D01*
X67310Y1168652D01*
X52492D01*
X39118Y1155278D01*
Y967488D01*
X63500D01*
X63633Y967479D01*
X63763Y967454D01*
X63890Y967411D01*
X64009Y967352D01*
X64120Y967278D01*
X64220Y967190D01*
X71840Y959570D01*
X71928Y959470D01*
X72002Y959359D01*
X72061Y959240D01*
X72104Y959113D01*
X72130Y958983D01*
X72138Y958850D01*
Y951230D01*
X72130Y951097D01*
X72104Y950966D01*
X72061Y950840D01*
X72002Y950721D01*
X71928Y950610D01*
X71840Y950510D01*
X65490Y944160D01*
X65390Y944072D01*
X65279Y943998D01*
X65160Y943939D01*
X65033Y943896D01*
X64903Y943870D01*
X64770Y943862D01*
X39118D01*
Y747182D01*
X44872Y741428D01*
X66040D01*
X66173Y741420D01*
X66304Y741394D01*
X66430Y741351D01*
X66549Y741292D01*
X66660Y741218D01*
X66760Y741130D01*
X66848Y741030D01*
X66922Y740919D01*
X66981Y740800D01*
X67024Y740674D01*
X67049Y740543D01*
X67058Y740410D01*
Y739562D01*
X71840Y734780D01*
X71928Y734680D01*
X72002Y734569D01*
X72061Y734450D01*
X72104Y734324D01*
X72130Y734193D01*
X72138Y734060D01*
Y726440D01*
X72130Y726307D01*
X72104Y726177D01*
X72061Y726050D01*
X72002Y725931D01*
X71928Y725820D01*
X71840Y725720D01*
X71740Y725632D01*
X71629Y725558D01*
X71510Y725499D01*
X71384Y725456D01*
X71253Y725431D01*
X71120Y725422D01*
X70272D01*
X64220Y719370D01*
X64120Y719282D01*
X64009Y719208D01*
X63890Y719149D01*
X63763Y719107D01*
X63633Y719081D01*
X63500Y719072D01*
X45468D01*
Y709930D01*
X45459Y709797D01*
X45434Y709667D01*
X45391Y709540D01*
X45332Y709421D01*
X45258Y709310D01*
X45170Y709210D01*
X40388Y704428D01*
Y524510D01*
X40380Y524377D01*
X40353Y524246D01*
X40311Y524120D01*
X40252Y524001D01*
X40178Y523890D01*
X40090Y523790D01*
X39540Y523240D01*
X42630Y520150D01*
X42718Y520050D01*
X42792Y519939D01*
X42851Y519820D01*
X42894Y519693D01*
X42920Y519563D01*
X42928Y519430D01*
Y519178D01*
X64770D01*
X64903Y519170D01*
X65033Y519143D01*
X65160Y519101D01*
X65279Y519042D01*
X65390Y518968D01*
X65490Y518880D01*
X71840Y512530D01*
X71928Y512430D01*
X72002Y512319D01*
X72061Y512200D01*
X72104Y512074D01*
X72130Y511943D01*
X72138Y511810D01*
Y500380D01*
X72130Y500247D01*
X72104Y500117D01*
X72061Y499990D01*
X72002Y499871D01*
X71928Y499760D01*
X71840Y499660D01*
X69300Y497120D01*
X69200Y497032D01*
X69089Y496958D01*
X68970Y496899D01*
X68843Y496856D01*
X68713Y496830D01*
X68580Y496822D01*
X49952D01*
X39118Y485988D01*
Y296928D01*
X40640D01*
X40773Y296919D01*
X40904Y296894D01*
X41030Y296851D01*
X41149Y296792D01*
X41260Y296718D01*
X41360Y296630D01*
X43602Y294388D01*
X67310D01*
X67443Y294380D01*
X67573Y294354D01*
X67700Y294311D01*
X67819Y294252D01*
X67930Y294178D01*
X68030Y294090D01*
X70570Y291550D01*
X70658Y291450D01*
X70732Y291339D01*
X70791Y291220D01*
X70834Y291094D01*
X70859Y290963D01*
X70868Y290830D01*
Y278130D01*
X70859Y277997D01*
X70834Y277866D01*
X70791Y277740D01*
X70732Y277621D01*
X70658Y277510D01*
X70570Y277410D01*
X64220Y271060D01*
X64120Y270972D01*
X64009Y270898D01*
X63890Y270839D01*
X63763Y270797D01*
X63633Y270770D01*
X63500Y270762D01*
X39792D01*
X36280Y267250D01*
X36180Y267162D01*
X36069Y267088D01*
X35950Y267029D01*
X35824Y266987D01*
X35693Y266961D01*
X35560Y266952D01*
X17780D01*
X17647Y266961D01*
X17516Y266987D01*
X17390Y267029D01*
X17271Y267088D01*
X17160Y267162D01*
X17060Y267250D01*
X6900Y277410D01*
X6812Y277510D01*
X6738Y277621D01*
X6679Y277740D01*
X6636Y277866D01*
X6611Y277997D01*
X6602Y278130D01*
Y1906270D01*
X6611Y1906403D01*
X6636Y1906534D01*
X6679Y1906660D01*
X6738Y1906779D01*
X6812Y1906890D01*
X6900Y1906990D01*
X34840Y1934930D01*
X34940Y1935018D01*
X35051Y1935092D01*
X35170Y1935151D01*
X35296Y1935193D01*
X35427Y1935220D01*
X35560Y1935228D01*
X35693Y1935220D01*
X35824Y1935193D01*
X35950Y1935151D01*
X36069Y1935092D01*
X36180Y1935018D01*
X36280Y1934930D01*
X38522Y1932688D01*
X475828D01*
X494580Y1951440D01*
X494680Y1951528D01*
X494791Y1951602D01*
X494910Y1951661D01*
X495037Y1951703D01*
X495167Y1951729D01*
X495300Y1951738D01*
X966048D01*
X991150Y1976840D01*
X991250Y1976928D01*
X991361Y1977002D01*
X991480Y1977061D01*
X991607Y1977103D01*
X991737Y1977130D01*
X991870Y1977138D01*
X1691640D01*
X1691773Y1977130D01*
D02*
G37*
G36*
X81413Y1218940D02*
X81544Y1218913D01*
X81670Y1218871D01*
X81789Y1218812D01*
X81900Y1218738D01*
X82000Y1218650D01*
X108670Y1191980D01*
X108758Y1191880D01*
X108832Y1191769D01*
X108891Y1191650D01*
X108933Y1191524D01*
X108960Y1191393D01*
X108968Y1191260D01*
Y1142152D01*
X110912Y1140208D01*
X304800D01*
X304933Y1140200D01*
X305063Y1140173D01*
X305190Y1140131D01*
X305309Y1140072D01*
X305420Y1139998D01*
X305520Y1139910D01*
X305608Y1139810D01*
X305682Y1139699D01*
X305741Y1139580D01*
X305784Y1139454D01*
X305809Y1139323D01*
X305818Y1139190D01*
Y1107440D01*
X305809Y1107307D01*
X305784Y1107177D01*
X305741Y1107050D01*
X305682Y1106931D01*
X305608Y1106820D01*
X305520Y1106720D01*
X302980Y1104180D01*
X302880Y1104092D01*
X302769Y1104018D01*
X302650Y1103959D01*
X302523Y1103916D01*
X302393Y1103891D01*
X302260Y1103882D01*
X108968D01*
Y1056640D01*
X108966Y1056604D01*
X108966Y1056568D01*
X108961Y1056538D01*
X108960Y1056507D01*
X108952Y1056472D01*
X108947Y1056436D01*
X108940Y1056406D01*
X108933Y1056376D01*
X108922Y1056342D01*
X108912Y1056307D01*
X108900Y1056279D01*
X108891Y1056250D01*
X108875Y1056218D01*
X108861Y1056185D01*
X107591Y1053645D01*
X107575Y1053618D01*
X107562Y1053591D01*
X107542Y1053561D01*
X107523Y1053530D01*
X107505Y1053505D01*
X107488Y1053480D01*
X107464Y1053453D01*
X107442Y1053425D01*
X107420Y1053403D01*
X107400Y1053380D01*
X107373Y1053356D01*
X107347Y1053331D01*
X107323Y1053312D01*
X107300Y1053292D01*
X107270Y1053272D01*
X107241Y1053250D01*
X107214Y1053235D01*
X107189Y1053218D01*
X107157Y1053202D01*
X107125Y1053184D01*
X107097Y1053173D01*
X107070Y1053159D01*
X107035Y1053148D01*
X107002Y1053134D01*
X106973Y1053126D01*
X106944Y1053117D01*
X106908Y1053110D01*
X106873Y1053100D01*
X106843Y1053096D01*
X106813Y1053091D01*
X106777Y1053088D01*
X106741Y1053084D01*
X106711Y1053084D01*
X106680Y1053082D01*
X77470D01*
X77337Y1053091D01*
X77207Y1053117D01*
X77080Y1053159D01*
X76961Y1053218D01*
X76850Y1053292D01*
X76750Y1053380D01*
X74210Y1055920D01*
X74122Y1056020D01*
X74048Y1056131D01*
X73989Y1056250D01*
X73946Y1056376D01*
X73920Y1056507D01*
X73912Y1056640D01*
Y1056892D01*
X52492D01*
X51520Y1055920D01*
X51420Y1055832D01*
X51309Y1055758D01*
X51229Y1055719D01*
X51190Y1055699D01*
X51063Y1055657D01*
X50933Y1055630D01*
X50800Y1055622D01*
X50667Y1055630D01*
X50536Y1055657D01*
X50410Y1055699D01*
X50291Y1055758D01*
X50180Y1055832D01*
X50080Y1055920D01*
X47540Y1058460D01*
X47452Y1058560D01*
X47378Y1058671D01*
X47319Y1058790D01*
X47277Y1058916D01*
X47250Y1059047D01*
X47242Y1059180D01*
Y1078230D01*
X47250Y1078363D01*
X47277Y1078493D01*
X47319Y1078620D01*
X47378Y1078739D01*
X47452Y1078850D01*
X47540Y1078950D01*
X47640Y1079038D01*
X47751Y1079112D01*
X47870Y1079171D01*
X47997Y1079213D01*
X48127Y1079240D01*
X48260Y1079248D01*
X74508D01*
X74760Y1079500D01*
X74210Y1080050D01*
X74122Y1080150D01*
X74048Y1080261D01*
X73989Y1080380D01*
X73946Y1080507D01*
X73920Y1080637D01*
X73912Y1080770D01*
Y1188298D01*
X68158Y1194052D01*
X52070D01*
X51937Y1194061D01*
X51807Y1194087D01*
X51680Y1194129D01*
X51561Y1194188D01*
X51450Y1194262D01*
X51350Y1194350D01*
X51262Y1194450D01*
X51188Y1194561D01*
X51129Y1194680D01*
X51087Y1194807D01*
X51061Y1194937D01*
X51052Y1195070D01*
Y1199728D01*
X47540Y1203240D01*
X47452Y1203340D01*
X47378Y1203451D01*
X47319Y1203570D01*
X47277Y1203697D01*
X47250Y1203827D01*
X47242Y1203960D01*
Y1216660D01*
X47250Y1216793D01*
X47277Y1216924D01*
X47319Y1217050D01*
X47378Y1217169D01*
X47452Y1217280D01*
X47540Y1217380D01*
X47640Y1217468D01*
X47751Y1217542D01*
X47870Y1217601D01*
X47997Y1217644D01*
X48127Y1217670D01*
X48260Y1217678D01*
X79588D01*
X80560Y1218650D01*
X80660Y1218738D01*
X80771Y1218812D01*
X80851Y1218851D01*
X80890Y1218871D01*
X81017Y1218913D01*
X81147Y1218940D01*
X81280Y1218948D01*
X81413Y1218940D01*
D02*
G37*
G36*
X1507623Y1362449D02*
X1507753Y1362424D01*
X1507880Y1362381D01*
X1507999Y1362322D01*
X1508110Y1362248D01*
X1508210Y1362160D01*
X1510750Y1359620D01*
X1510838Y1359520D01*
X1510912Y1359409D01*
X1510971Y1359290D01*
X1511013Y1359164D01*
X1511039Y1359033D01*
X1511048Y1358900D01*
Y1323088D01*
X1515110D01*
X1515243Y1323080D01*
X1515374Y1323053D01*
X1515500Y1323011D01*
X1515619Y1322952D01*
X1515730Y1322878D01*
X1515830Y1322790D01*
X1533312Y1305308D01*
X1669628D01*
X1680760Y1316440D01*
X1680860Y1316528D01*
X1680971Y1316602D01*
X1681090Y1316661D01*
X1681216Y1316703D01*
X1681347Y1316729D01*
X1681480Y1316738D01*
X1681613Y1316729D01*
X1681743Y1316703D01*
X1681870Y1316661D01*
X1681989Y1316602D01*
X1682100Y1316528D01*
X1682200Y1316440D01*
X1685712Y1312928D01*
X1701800D01*
X1701933Y1312919D01*
X1702063Y1312894D01*
X1702190Y1312851D01*
X1702309Y1312792D01*
X1702420Y1312718D01*
X1702520Y1312630D01*
X1702608Y1312530D01*
X1702682Y1312419D01*
X1702741Y1312300D01*
X1702784Y1312173D01*
X1702809Y1312043D01*
X1702818Y1311910D01*
Y1307252D01*
X1711410Y1298660D01*
X1711498Y1298560D01*
X1711572Y1298449D01*
X1711631Y1298330D01*
X1711652Y1298267D01*
X1711673Y1298203D01*
X1711700Y1298073D01*
X1711708Y1297940D01*
Y1271270D01*
X1711700Y1271137D01*
X1711673Y1271006D01*
X1711631Y1270880D01*
X1711572Y1270761D01*
X1711498Y1270650D01*
X1711410Y1270550D01*
X1711310Y1270462D01*
X1711199Y1270388D01*
X1711080Y1270329D01*
X1710954Y1270286D01*
X1710823Y1270260D01*
X1710690Y1270252D01*
X1516802D01*
X1515830Y1269280D01*
X1515730Y1269192D01*
X1515619Y1269118D01*
X1515539Y1269079D01*
X1515500Y1269059D01*
X1515374Y1269016D01*
X1515243Y1268990D01*
X1515110Y1268982D01*
X1514977Y1268990D01*
X1514846Y1269016D01*
X1514720Y1269059D01*
X1514601Y1269118D01*
X1514490Y1269192D01*
X1514390Y1269280D01*
X1473750Y1309920D01*
X1473662Y1310020D01*
X1473588Y1310131D01*
X1473529Y1310250D01*
X1473486Y1310376D01*
X1473461Y1310507D01*
X1473452Y1310640D01*
Y1311910D01*
X1473453Y1311923D01*
X1473452Y1311936D01*
X1474722Y1361466D01*
X1474727Y1361520D01*
X1474731Y1361573D01*
X1474733Y1361586D01*
X1474734Y1361599D01*
X1474746Y1361651D01*
X1474756Y1361703D01*
X1474761Y1361716D01*
X1474764Y1361729D01*
X1474782Y1361779D01*
X1474799Y1361830D01*
X1474805Y1361841D01*
X1474810Y1361854D01*
X1474835Y1361901D01*
X1474858Y1361949D01*
X1474866Y1361960D01*
X1474872Y1361971D01*
X1474902Y1362015D01*
X1474932Y1362060D01*
X1474941Y1362070D01*
X1474948Y1362080D01*
X1474985Y1362120D01*
X1475020Y1362160D01*
X1475030Y1362169D01*
X1475039Y1362178D01*
X1475080Y1362212D01*
X1475120Y1362248D01*
X1475131Y1362255D01*
X1475141Y1362263D01*
X1475186Y1362292D01*
X1475231Y1362322D01*
X1475243Y1362328D01*
X1475254Y1362334D01*
X1475302Y1362357D01*
X1475350Y1362381D01*
X1475363Y1362385D01*
X1475375Y1362390D01*
X1475426Y1362406D01*
X1475477Y1362424D01*
X1475489Y1362426D01*
X1475502Y1362430D01*
X1475554Y1362439D01*
X1475607Y1362449D01*
X1475620Y1362450D01*
X1475633Y1362453D01*
X1475687Y1362455D01*
X1475740Y1362458D01*
X1507490D01*
X1507623Y1362449D01*
D02*
G37*
G36*
X90303Y1441190D02*
X90434Y1441163D01*
X90560Y1441121D01*
X90679Y1441062D01*
X90790Y1440988D01*
X90890Y1440900D01*
X109940Y1421850D01*
X110028Y1421750D01*
X110102Y1421639D01*
X110161Y1421520D01*
X110204Y1421393D01*
X110230Y1421263D01*
X110238Y1421130D01*
Y1319278D01*
X135890D01*
X136023Y1319270D01*
X136153Y1319243D01*
X136280Y1319201D01*
X136399Y1319142D01*
X136510Y1319068D01*
X136610Y1318980D01*
X173440Y1282150D01*
X173528Y1282050D01*
X173602Y1281939D01*
X173661Y1281820D01*
X173703Y1281694D01*
X173729Y1281563D01*
X173738Y1281430D01*
Y1268730D01*
X173729Y1268597D01*
X173703Y1268466D01*
X173661Y1268340D01*
X173602Y1268221D01*
X173528Y1268110D01*
X173440Y1268010D01*
X159470Y1254040D01*
X159370Y1253952D01*
X159259Y1253878D01*
X159140Y1253819D01*
X159014Y1253776D01*
X158883Y1253751D01*
X158750Y1253742D01*
X135890D01*
X135757Y1253751D01*
X135626Y1253776D01*
X135500Y1253819D01*
X135381Y1253878D01*
X135270Y1253952D01*
X135170Y1254040D01*
X135082Y1254140D01*
X135008Y1254251D01*
X134949Y1254370D01*
X134907Y1254497D01*
X134881Y1254627D01*
X134872Y1254760D01*
Y1255608D01*
X115148Y1275332D01*
X77470D01*
X77337Y1275340D01*
X77207Y1275367D01*
X77080Y1275409D01*
X76961Y1275468D01*
X76850Y1275542D01*
X76750Y1275630D01*
X76662Y1275730D01*
X76588Y1275841D01*
X76529Y1275960D01*
X76487Y1276087D01*
X76460Y1276217D01*
X76452Y1276350D01*
Y1277198D01*
X73238Y1280412D01*
X50800D01*
X50667Y1280421D01*
X50536Y1280446D01*
X50410Y1280489D01*
X50291Y1280548D01*
X50180Y1280622D01*
X50080Y1280710D01*
X49992Y1280810D01*
X49918Y1280921D01*
X49859Y1281040D01*
X49816Y1281167D01*
X49791Y1281297D01*
X49782Y1281430D01*
Y1301328D01*
X48810Y1302300D01*
X48722Y1302400D01*
X48648Y1302511D01*
X48589Y1302630D01*
X48547Y1302757D01*
X48520Y1302887D01*
X48512Y1303020D01*
X48520Y1303153D01*
X48547Y1303284D01*
X48589Y1303410D01*
X48648Y1303529D01*
X48722Y1303640D01*
X48810Y1303740D01*
X48910Y1303828D01*
X49021Y1303902D01*
X49140Y1303961D01*
X49267Y1304003D01*
X49397Y1304030D01*
X49530Y1304038D01*
X73912D01*
Y1315720D01*
X73920Y1315853D01*
X73946Y1315983D01*
X73989Y1316110D01*
X74048Y1316229D01*
X74122Y1316340D01*
X74210Y1316440D01*
X76030Y1318260D01*
X75480Y1318810D01*
X75392Y1318910D01*
X75318Y1319021D01*
X75259Y1319140D01*
X75216Y1319267D01*
X75191Y1319397D01*
X75182Y1319530D01*
Y1413088D01*
X69428Y1418842D01*
X50800D01*
X50667Y1418851D01*
X50536Y1418876D01*
X50410Y1418919D01*
X50291Y1418978D01*
X50180Y1419052D01*
X50080Y1419140D01*
X49992Y1419240D01*
X49918Y1419351D01*
X49859Y1419470D01*
X49816Y1419597D01*
X49791Y1419727D01*
X49782Y1419860D01*
Y1440180D01*
X49791Y1440313D01*
X49816Y1440444D01*
X49859Y1440570D01*
X49918Y1440689D01*
X49992Y1440800D01*
X50080Y1440900D01*
X50180Y1440988D01*
X50291Y1441062D01*
X50410Y1441121D01*
X50536Y1441163D01*
X50667Y1441190D01*
X50800Y1441198D01*
X90170D01*
X90303Y1441190D01*
D02*
G37*
G36*
X1700663Y1212589D02*
X1700793Y1212563D01*
X1700920Y1212521D01*
X1701039Y1212462D01*
X1701150Y1212388D01*
X1701250Y1212300D01*
X1722542Y1191008D01*
X1780540D01*
X1780673Y1191000D01*
X1780804Y1190974D01*
X1780930Y1190931D01*
X1781049Y1190872D01*
X1781160Y1190798D01*
X1781260Y1190710D01*
X1783800Y1188170D01*
X1783888Y1188070D01*
X1783962Y1187959D01*
X1784021Y1187840D01*
X1784064Y1187713D01*
X1784090Y1187583D01*
X1784098Y1187450D01*
Y1169670D01*
X1784090Y1169537D01*
X1784064Y1169407D01*
X1784021Y1169280D01*
X1783962Y1169161D01*
X1783888Y1169050D01*
X1783800Y1168950D01*
X1783700Y1168862D01*
X1783589Y1168788D01*
X1783470Y1168729D01*
X1783344Y1168687D01*
X1783213Y1168661D01*
X1783080Y1168652D01*
X1758102D01*
X1752348Y1162898D01*
Y1057062D01*
X1755562Y1053848D01*
X1776730D01*
X1776863Y1053839D01*
X1776994Y1053813D01*
X1777120Y1053771D01*
X1777239Y1053712D01*
X1777350Y1053638D01*
X1777450Y1053550D01*
X1777538Y1053450D01*
X1777612Y1053339D01*
X1777671Y1053220D01*
X1777713Y1053093D01*
X1777740Y1052963D01*
X1777748Y1052830D01*
Y1031240D01*
X1777740Y1031107D01*
X1777713Y1030976D01*
X1777671Y1030850D01*
X1777612Y1030731D01*
X1777538Y1030620D01*
X1777450Y1030520D01*
X1774910Y1027980D01*
X1774810Y1027892D01*
X1774699Y1027818D01*
X1774580Y1027759D01*
X1774453Y1027717D01*
X1774323Y1027691D01*
X1774190Y1027682D01*
X1737360D01*
X1737227Y1027691D01*
X1737097Y1027717D01*
X1736970Y1027759D01*
X1736851Y1027818D01*
X1736740Y1027892D01*
X1736640Y1027980D01*
X1716320Y1048300D01*
X1716232Y1048400D01*
X1716158Y1048511D01*
X1716099Y1048630D01*
X1716057Y1048756D01*
X1716030Y1048887D01*
X1716022Y1049020D01*
Y1152142D01*
X1682750D01*
X1682617Y1152150D01*
X1682487Y1152177D01*
X1682360Y1152219D01*
X1682241Y1152278D01*
X1682130Y1152352D01*
X1682030Y1152440D01*
X1655360Y1179110D01*
X1655272Y1179210D01*
X1655198Y1179321D01*
X1655139Y1179440D01*
X1655096Y1179566D01*
X1655070Y1179697D01*
X1655062Y1179830D01*
Y1192530D01*
X1655066Y1192590D01*
X1655069Y1192651D01*
X1655070Y1192657D01*
X1655070Y1192663D01*
X1655082Y1192722D01*
X1655093Y1192782D01*
X1655095Y1192787D01*
X1655096Y1192794D01*
X1655116Y1192850D01*
X1655135Y1192908D01*
X1662755Y1211958D01*
X1662757Y1211964D01*
X1662759Y1211970D01*
X1662786Y1212024D01*
X1662812Y1212078D01*
X1662816Y1212084D01*
X1662818Y1212089D01*
X1662852Y1212140D01*
X1662885Y1212190D01*
X1662889Y1212195D01*
X1662892Y1212200D01*
X1662932Y1212245D01*
X1662971Y1212291D01*
X1662976Y1212295D01*
X1662980Y1212300D01*
X1663025Y1212339D01*
X1663070Y1212380D01*
X1663076Y1212384D01*
X1663080Y1212388D01*
X1663130Y1212421D01*
X1663180Y1212456D01*
X1663186Y1212458D01*
X1663191Y1212462D01*
X1663245Y1212488D01*
X1663299Y1212516D01*
X1663305Y1212518D01*
X1663310Y1212521D01*
X1663367Y1212540D01*
X1663425Y1212560D01*
X1663431Y1212561D01*
X1663436Y1212563D01*
X1663495Y1212575D01*
X1663555Y1212588D01*
X1663561Y1212588D01*
X1663567Y1212589D01*
X1663627Y1212593D01*
X1663688Y1212598D01*
X1663694Y1212598D01*
X1663700Y1212598D01*
X1700530D01*
X1700663Y1212589D01*
D02*
G37*
D37*
X208750Y1073150D02*
D03*
X158750D02*
D03*
X628650Y1870240D02*
D03*
Y1920240D02*
D03*
X1625130Y1841500D02*
D03*
X1675130D02*
D03*
X1651400Y1059980D02*
D03*
Y1109980D02*
D03*
Y612940D02*
D03*
Y662940D02*
D03*
X212090Y193040D02*
D03*
X162090D02*
D03*
X182880Y510540D02*
D03*
Y460540D02*
D03*
X208280Y635000D02*
D03*
X158280D02*
D03*
X183750Y968210D02*
D03*
Y918210D02*
D03*
Y1408900D02*
D03*
Y1358900D02*
D03*
X207480Y1520190D02*
D03*
X157480D02*
D03*
X182480Y1852930D02*
D03*
Y1802930D02*
D03*
X1651400Y169710D02*
D03*
Y219710D02*
D03*
X1626400Y497840D02*
D03*
X1676400D02*
D03*
X1626400Y946150D02*
D03*
X1676400D02*
D03*
X1650130Y1512100D02*
D03*
Y1562100D02*
D03*
X1626400Y1393190D02*
D03*
X1676400D02*
D03*
D38*
X412750Y688340D02*
D03*
X910590Y1617980D02*
D03*
X415290Y1396238D02*
D03*
X1129030Y1850390D02*
D03*
X1341120Y1424940D02*
D03*
X1337310Y1891792D02*
D03*
X1341120Y1186942D02*
D03*
X1337310Y1651000D02*
D03*
X1341120Y529082D02*
D03*
Y293370D02*
D03*
Y740410D02*
D03*
X419100Y261620D02*
D03*
X495300Y153670D02*
D03*
X499110Y393700D02*
D03*
X412750Y502158D02*
D03*
X499110Y578358D02*
D03*
Y820928D02*
D03*
X412750Y941070D02*
D03*
X499110Y1042670D02*
D03*
X414020Y1167130D02*
D03*
X494030Y1272540D02*
D03*
Y1473708D02*
D03*
X415290Y1606550D02*
D03*
X494030Y1708150D02*
D03*
X415290Y1840738D02*
D03*
X716918Y1626870D02*
D03*
X698500Y1752600D02*
D03*
X850392Y1786890D02*
D03*
X960120Y1791462D02*
D03*
X1416050Y168910D02*
D03*
Y411480D02*
D03*
Y621030D02*
D03*
Y858520D02*
D03*
X1341120Y980440D02*
D03*
X1416050Y1072642D02*
D03*
Y1305560D02*
D03*
Y1522730D02*
D03*
Y1759712D02*
D03*
D40*
X361442Y1210360D02*
D03*
Y1229360D02*
D03*
Y1248360D02*
D03*
X363220Y326440D02*
D03*
Y345440D02*
D03*
Y364440D02*
D03*
X361442Y768870D02*
D03*
Y787870D02*
D03*
Y806870D02*
D03*
Y1654860D02*
D03*
Y1673860D02*
D03*
Y1692860D02*
D03*
X1469898Y363170D02*
D03*
Y344170D02*
D03*
Y325170D02*
D03*
Y809410D02*
D03*
Y790410D02*
D03*
Y771410D02*
D03*
Y1258050D02*
D03*
Y1239050D02*
D03*
Y1220050D02*
D03*
Y1708900D02*
D03*
Y1689900D02*
D03*
Y1670900D02*
D03*
D41*
X147320Y1179360D02*
D03*
Y1279360D02*
D03*
X149098Y295440D02*
D03*
Y395440D02*
D03*
X147320Y737870D02*
D03*
Y837870D02*
D03*
Y1623860D02*
D03*
Y1723860D02*
D03*
X1684020Y394170D02*
D03*
Y294170D02*
D03*
Y840410D02*
D03*
Y740410D02*
D03*
Y1289050D02*
D03*
Y1189050D02*
D03*
Y1739900D02*
D03*
Y1639900D02*
D03*
D47*
X364290Y64770D02*
D03*
X288290D02*
D03*
X822960Y1836420D02*
D03*
X697230Y396240D02*
D03*
X1079500Y381000D02*
D03*
X1301750Y1059180D02*
D03*
X624840Y788670D02*
D03*
X617220Y1016000D02*
D03*
X547370Y1106170D02*
D03*
X1084580Y1310640D02*
D03*
X1085850Y1289050D02*
D03*
X826770Y1263650D02*
D03*
X756920Y1736090D02*
D03*
X1140460Y1518920D02*
D03*
Y1464310D02*
D03*
X905510Y1431290D02*
D03*
X1123950Y1553210D02*
D03*
X1036320Y1443990D02*
D03*
X1158240Y1593850D02*
D03*
X1032510Y1572260D02*
D03*
X995299Y1460881D02*
D03*
X1079881D02*
D03*
X1099820Y1457960D02*
D03*
X739140Y1113790D02*
D03*
X740410Y1097280D02*
D03*
X1103630Y925830D02*
D03*
X1088390Y770890D02*
D03*
X1153160Y440690D02*
D03*
X1049020Y576580D02*
D03*
X1038860Y763270D02*
D03*
X1046480Y1042670D02*
D03*
Y1062990D02*
D03*
X1050290Y939800D02*
D03*
X938530Y1325880D02*
D03*
X1109980Y1243330D02*
D03*
X1084580Y1267460D02*
D03*
X1018540Y1240790D02*
D03*
X731520Y1003300D02*
D03*
X712470D02*
D03*
X690880Y889000D02*
D03*
X737870Y977900D02*
D03*
X1076960Y426720D02*
D03*
X1064260Y403860D02*
D03*
X570230Y1699260D02*
D03*
X882650Y948690D02*
D03*
X551180Y1687830D02*
D03*
X554355Y1665605D02*
D03*
X571500Y1008380D02*
D03*
Y784860D02*
D03*
X548640Y1261110D02*
D03*
X510540Y1652270D02*
D03*
X527050Y1666240D02*
D03*
X1002030Y1156970D02*
D03*
X911860Y1304290D02*
D03*
X595630Y762000D02*
D03*
X601980Y1242060D02*
D03*
X565150Y1437640D02*
D03*
X1120140Y1789430D02*
D03*
X1518920Y1174750D02*
D03*
X1576070Y1449070D02*
D03*
X1485900Y1635760D02*
D03*
X1465580Y1885950D02*
D03*
X346710Y593090D02*
D03*
X327660Y420370D02*
D03*
X323850Y396240D02*
D03*
X330200Y877570D02*
D03*
X120650Y796290D02*
D03*
X300990Y1085850D02*
D03*
X290830Y1042670D02*
D03*
X270002Y1301242D02*
D03*
X285750Y1483360D02*
D03*
X124460Y1692910D02*
D03*
X1498600Y994410D02*
D03*
X1557020Y725170D02*
D03*
X1517650Y271780D02*
D03*
X852170Y1672590D02*
D03*
X849630Y1633220D02*
D03*
X666880Y1677670D02*
D03*
X656720Y1634490D02*
D03*
X1291590Y299720D02*
D03*
X802640Y915670D02*
D03*
X1374140Y360680D02*
D03*
X1319950Y809410D02*
D03*
X1296670Y515620D02*
D03*
X1299210Y711200D02*
D03*
X1258570Y610870D02*
D03*
X796290Y953770D02*
D03*
X847090Y932180D02*
D03*
X1294130Y800100D02*
D03*
X1308100Y346710D02*
D03*
X1261110Y861060D02*
D03*
X824230Y961390D02*
D03*
X775970Y904240D02*
D03*
X1294130Y1239520D02*
D03*
X1278890Y831850D02*
D03*
Y1258570D02*
D03*
X1311910Y1718310D02*
D03*
X979170Y662940D02*
D03*
X844550Y889000D02*
D03*
X863600Y920750D02*
D03*
X927100Y857250D02*
D03*
X843280Y756920D02*
D03*
X755650Y633730D02*
D03*
X1327150Y1701800D02*
D03*
X862330Y866140D02*
D03*
X861060Y723900D02*
D03*
X839470Y623570D02*
D03*
X810260Y596900D02*
D03*
X789940Y1071880D02*
D03*
X782320Y1009650D02*
D03*
X1037590Y1327150D02*
D03*
X762000Y1093470D02*
D03*
X754380Y1009650D02*
D03*
X1146810Y359410D02*
D03*
X537160Y326440D02*
D03*
X591820Y401320D02*
D03*
X604520Y261620D02*
D03*
X962660Y450850D02*
D03*
X1070610Y679450D02*
D03*
X1093470Y718820D02*
D03*
X1126490Y631190D02*
D03*
X1099820Y661670D02*
D03*
X519430Y758190D02*
D03*
X930910Y560070D02*
D03*
X1005840Y635000D02*
D03*
X1125220Y789940D02*
D03*
X1126490Y853440D02*
D03*
X523240Y777240D02*
D03*
X552450Y345440D02*
D03*
X530860Y1230630D02*
D03*
X552450Y805180D02*
D03*
X574040Y508000D02*
D03*
X961390D02*
D03*
X520750Y1210360D02*
D03*
X582930Y739140D02*
D03*
X828040Y1027430D02*
D03*
X871220Y1024890D02*
D03*
X1202690Y1014730D02*
D03*
X777240Y864870D02*
D03*
X753110Y880110D02*
D03*
X816610Y864870D02*
D03*
X828040Y899160D02*
D03*
X902970Y957580D02*
D03*
X576580Y722630D02*
D03*
X875030Y1267460D02*
D03*
X972820Y1130300D02*
D03*
X1103630Y1029970D02*
D03*
X544830Y129540D02*
D03*
X454660Y93980D02*
D03*
X565150D02*
D03*
X1075690Y1802130D02*
D03*
X1395730Y196850D02*
D03*
X1383030Y219710D02*
D03*
X1452880Y270510D02*
D03*
X1454150Y508000D02*
D03*
X1380490Y457200D02*
D03*
X1400810Y478790D02*
D03*
X1456690Y538480D02*
D03*
X1400810Y643890D02*
D03*
X1383030Y661670D02*
D03*
X1455420Y717550D02*
D03*
X1398270Y878840D02*
D03*
X1381760Y906780D02*
D03*
X1456690Y953770D02*
D03*
X1400810Y1087120D02*
D03*
X1385570Y1108710D02*
D03*
X1455420Y1163320D02*
D03*
X1400810Y1323340D02*
D03*
X1383030Y1348740D02*
D03*
X1459230Y1412240D02*
D03*
X1400810Y1541780D02*
D03*
X1383030Y1564640D02*
D03*
X1454150Y1616710D02*
D03*
X1400810Y1780540D02*
D03*
X1383030Y1809750D02*
D03*
X1452880Y1855470D02*
D03*
X424180Y1821180D02*
D03*
X448310Y1802130D02*
D03*
X391160Y1723390D02*
D03*
X429260Y1587500D02*
D03*
X449580Y1555750D02*
D03*
X392430Y1485900D02*
D03*
X429260Y1379220D02*
D03*
X449580Y1356360D02*
D03*
X392430Y1276350D02*
D03*
X431800Y1145540D02*
D03*
X450850Y1118870D02*
D03*
X392430Y1046480D02*
D03*
X431800Y922020D02*
D03*
X450850Y897890D02*
D03*
X374650Y845820D02*
D03*
X431800Y666750D02*
D03*
X447040Y643890D02*
D03*
X392430Y567690D02*
D03*
X431800Y477520D02*
D03*
X452120Y453390D02*
D03*
X391160Y381000D02*
D03*
X452120Y157480D02*
D03*
X302260Y172720D02*
D03*
X431800Y236220D02*
D03*
D52*
X1120140Y1668381D02*
D03*
Y1643380D02*
D03*
Y1618379D02*
D03*
Y1593378D02*
D03*
X1183640Y1668381D02*
D03*
Y1643380D02*
D03*
Y1618379D02*
D03*
Y1593378D02*
D03*
D69*
X641350Y1326642D02*
D03*
X996950Y871982D02*
D03*
X1515110Y1048512D02*
D03*
X311150Y971550D02*
D03*
X1784350Y1979930D02*
D03*
X44450D02*
D03*
X1778000Y44450D02*
D03*
X44450D02*
D03*
D70*
X412750Y713232D02*
D03*
X415290Y1421130D02*
D03*
X1129030Y1875282D02*
D03*
X1341120Y1400048D02*
D03*
X1337310Y1866900D02*
D03*
X1341120Y1162050D02*
D03*
X1337310Y1626108D02*
D03*
X1341120Y504190D02*
D03*
Y268478D02*
D03*
Y715518D02*
D03*
X419100Y286512D02*
D03*
X495300Y178562D02*
D03*
X499110Y418592D02*
D03*
X412750Y527050D02*
D03*
X499110Y603250D02*
D03*
Y845820D02*
D03*
X412750Y965962D02*
D03*
X499110Y1067562D02*
D03*
X414020Y1192022D02*
D03*
X494030Y1297432D02*
D03*
Y1498600D02*
D03*
X415290Y1631442D02*
D03*
X494030Y1733042D02*
D03*
X415290Y1865630D02*
D03*
X698500Y1777492D02*
D03*
X960120Y1766570D02*
D03*
X1416050Y144018D02*
D03*
Y386588D02*
D03*
Y596138D02*
D03*
Y833628D02*
D03*
X1341120Y955548D02*
D03*
X1416050Y1047750D02*
D03*
Y1280668D02*
D03*
Y1497838D02*
D03*
Y1734820D02*
D03*
D71*
X935482Y1617980D02*
D03*
X741810Y1626870D02*
D03*
X825500Y1786890D02*
D03*
D72*
X743050Y64230D02*
D03*
X768450D02*
D03*
X793850D02*
D03*
X819250D02*
D03*
X844650D02*
D03*
X870050D02*
D03*
X895450D02*
D03*
X920850D02*
D03*
X946250D02*
D03*
X971650D02*
D03*
X997050D02*
D03*
X1022450D02*
D03*
X1047850D02*
D03*
X1073250D02*
D03*
X1098650D02*
D03*
X743050Y311930D02*
D03*
X768450D02*
D03*
X793850D02*
D03*
X819250D02*
D03*
X844650D02*
D03*
X870050D02*
D03*
X895450D02*
D03*
X920850D02*
D03*
X946250D02*
D03*
X971650D02*
D03*
X997050D02*
D03*
X1022450D02*
D03*
X1047850D02*
D03*
X1073250D02*
D03*
X1098650D02*
D03*
D73*
X755650Y1864360D02*
D03*
Y1934360D02*
D03*
D74*
X60960Y146050D02*
D03*
Y258064D02*
D03*
Y370078D02*
D03*
Y482092D02*
D03*
Y594106D02*
D03*
Y706120D02*
D03*
Y818134D02*
D03*
Y930148D02*
D03*
Y1042162D02*
D03*
Y1154176D02*
D03*
Y1266190D02*
D03*
Y1378204D02*
D03*
Y1490218D02*
D03*
Y1602232D02*
D03*
Y1714246D02*
D03*
Y1826260D02*
D03*
X1770380Y1877060D02*
D03*
Y1765046D02*
D03*
Y1653032D02*
D03*
Y1541018D02*
D03*
Y1429004D02*
D03*
Y1316990D02*
D03*
Y1204976D02*
D03*
Y1092962D02*
D03*
Y980948D02*
D03*
Y868934D02*
D03*
Y756920D02*
D03*
Y644906D02*
D03*
Y532892D02*
D03*
Y420878D02*
D03*
Y308864D02*
D03*
Y196850D02*
D03*
D75*
X60960Y171450D02*
D03*
Y196850D02*
D03*
Y283464D02*
D03*
Y308864D02*
D03*
Y395478D02*
D03*
Y420878D02*
D03*
Y507492D02*
D03*
Y532892D02*
D03*
Y619506D02*
D03*
Y644906D02*
D03*
Y731520D02*
D03*
Y756920D02*
D03*
Y843534D02*
D03*
Y868934D02*
D03*
Y955548D02*
D03*
Y980948D02*
D03*
Y1067562D02*
D03*
Y1092962D02*
D03*
Y1179576D02*
D03*
Y1204976D02*
D03*
Y1291590D02*
D03*
Y1316990D02*
D03*
Y1403604D02*
D03*
Y1429004D02*
D03*
Y1515618D02*
D03*
Y1541018D02*
D03*
Y1627632D02*
D03*
Y1653032D02*
D03*
Y1739646D02*
D03*
Y1765046D02*
D03*
Y1851660D02*
D03*
Y1877060D02*
D03*
X1770380Y1851660D02*
D03*
Y1826260D02*
D03*
Y1739646D02*
D03*
Y1714246D02*
D03*
Y1627632D02*
D03*
Y1602232D02*
D03*
Y1515618D02*
D03*
Y1490218D02*
D03*
Y1403604D02*
D03*
Y1378204D02*
D03*
Y1291590D02*
D03*
Y1266190D02*
D03*
Y1179576D02*
D03*
Y1154176D02*
D03*
Y1067562D02*
D03*
Y1042162D02*
D03*
Y955548D02*
D03*
Y930148D02*
D03*
Y843534D02*
D03*
Y818134D02*
D03*
Y731520D02*
D03*
Y706120D02*
D03*
Y619506D02*
D03*
Y594106D02*
D03*
Y507492D02*
D03*
Y482092D02*
D03*
Y395478D02*
D03*
Y370078D02*
D03*
Y283464D02*
D03*
Y258064D02*
D03*
Y171450D02*
D03*
Y146050D02*
D03*
D76*
X341630Y238760D02*
D03*
X291630D02*
D03*
X338290Y681990D02*
D03*
X288290D02*
D03*
X338290Y1123950D02*
D03*
X288290D02*
D03*
X338290Y1567180D02*
D03*
X288290D02*
D03*
X1492250Y449580D02*
D03*
X1542250D02*
D03*
X1493050Y896620D02*
D03*
X1543050D02*
D03*
X1493050Y1344930D02*
D03*
X1543050D02*
D03*
X1493050Y1797050D02*
D03*
X1543050D02*
D03*
D77*
X646430Y1106170D02*
D03*
X1154430D02*
D03*
D78*
X671830D02*
D03*
X646430Y1080770D02*
D03*
X671830D02*
D03*
X646430Y1055370D02*
D03*
X671830D02*
D03*
X646430Y1029970D02*
D03*
X671830D02*
D03*
X646430Y1004570D02*
D03*
X671830D02*
D03*
X646430Y979170D02*
D03*
X671830D02*
D03*
X646430Y953770D02*
D03*
X671830D02*
D03*
X646430Y928370D02*
D03*
X671830D02*
D03*
X646430Y902970D02*
D03*
X671830D02*
D03*
X646430Y877570D02*
D03*
X671830D02*
D03*
X646430Y852170D02*
D03*
X671830D02*
D03*
X646430Y826770D02*
D03*
X671830D02*
D03*
X646430Y801370D02*
D03*
X671830D02*
D03*
X646430Y775970D02*
D03*
X671830D02*
D03*
X646430Y750570D02*
D03*
X671830D02*
D03*
X646430Y725170D02*
D03*
X671830D02*
D03*
X646430Y699770D02*
D03*
X671830D02*
D03*
X646430Y674370D02*
D03*
X671830D02*
D03*
X646430Y648970D02*
D03*
X671830D02*
D03*
X646430Y623570D02*
D03*
X671830D02*
D03*
X646430Y598170D02*
D03*
X671830D02*
D03*
X646430Y572770D02*
D03*
X671830D02*
D03*
X646430Y547370D02*
D03*
X671830D02*
D03*
X646430Y521970D02*
D03*
X671830D02*
D03*
X646430Y496570D02*
D03*
X671830D02*
D03*
X1179830Y1106170D02*
D03*
X1154430Y1080770D02*
D03*
X1179830D02*
D03*
X1154430Y1055370D02*
D03*
X1179830D02*
D03*
X1154430Y1029970D02*
D03*
X1179830D02*
D03*
X1154430Y1004570D02*
D03*
X1179830D02*
D03*
X1154430Y979170D02*
D03*
X1179830D02*
D03*
X1154430Y953770D02*
D03*
X1179830D02*
D03*
X1154430Y928370D02*
D03*
X1179830D02*
D03*
X1154430Y902970D02*
D03*
X1179830D02*
D03*
X1154430Y877570D02*
D03*
X1179830D02*
D03*
X1154430Y852170D02*
D03*
X1179830D02*
D03*
X1154430Y826770D02*
D03*
X1179830D02*
D03*
X1154430Y801370D02*
D03*
X1179830D02*
D03*
X1154430Y775970D02*
D03*
X1179830D02*
D03*
X1154430Y750570D02*
D03*
X1179830D02*
D03*
X1154430Y725170D02*
D03*
X1179830D02*
D03*
X1154430Y699770D02*
D03*
X1179830D02*
D03*
X1154430Y674370D02*
D03*
X1179830D02*
D03*
X1154430Y648970D02*
D03*
X1179830D02*
D03*
X1154430Y623570D02*
D03*
X1179830D02*
D03*
X1154430Y598170D02*
D03*
X1179830D02*
D03*
X1154430Y572770D02*
D03*
X1179830D02*
D03*
X1154430Y547370D02*
D03*
X1179830D02*
D03*
X1154430Y521970D02*
D03*
X1179830D02*
D03*
X1154430Y496570D02*
D03*
X1179830D02*
D03*
M02*
