G04 Layer_Color=8388736*
%FSLAX44Y44*%
%MOMM*%
G71*
G01*
G75*
%ADD10R,0.8636X0.9652*%
%ADD11R,0.7556X0.8000*%
%ADD12R,2.2606X2.3114*%
%ADD13R,0.9652X0.8636*%
%ADD14R,0.8000X0.7556*%
%ADD16R,2.2098X3.0000*%
%ADD21R,3.0000X2.2098*%
%ADD25R,1.1176X1.4478*%
%ADD26R,1.4478X1.1176*%
%ADD29R,0.5588X1.9812*%
%ADD37C,1.3716*%
%ADD38C,1.2700*%
%ADD40C,1.3970*%
%ADD41C,4.9784*%
%ADD47C,1.4732*%
%ADD52C,1.4986*%
%ADD61R,2.6032X2.6032*%
%ADD62R,0.7112X2.1844*%
G04:AMPARAMS|DCode=63|XSize=2.4532mm|YSize=2.3232mm|CornerRadius=0.3666mm|HoleSize=0mm|Usage=FLASHONLY|Rotation=180.000|XOffset=0mm|YOffset=0mm|HoleType=Round|Shape=RoundedRectangle|*
%AMROUNDEDRECTD63*
21,1,2.4532,1.5900,0,0,180.0*
21,1,1.7200,2.3232,0,0,180.0*
1,1,0.7332,-0.8600,0.7950*
1,1,0.7332,0.8600,0.7950*
1,1,0.7332,0.8600,-0.7950*
1,1,0.7332,-0.8600,-0.7950*
%
%ADD63ROUNDEDRECTD63*%
%ADD64R,2.1590X2.3622*%
%ADD65R,1.1430X1.3716*%
%ADD66R,2.6032X2.6032*%
%ADD67R,2.0832X1.7732*%
%ADD68R,1.7732X2.0832*%
%ADD69C,0.2032*%
%ADD70R,1.4732X1.4732*%
%ADD71R,1.4732X1.4732*%
%ADD72C,2.1336*%
%ADD73C,5.7032*%
%ADD74R,1.8288X1.8288*%
%ADD75C,1.8288*%
%ADD76C,3.2032*%
%ADD77R,1.7112X1.7112*%
%ADD78C,1.7112*%
G36*
X191903Y1865370D02*
X192034Y1865343D01*
X192160Y1865301D01*
X192279Y1865242D01*
X192390Y1865168D01*
X192490Y1865080D01*
X192578Y1864980D01*
X192652Y1864869D01*
X192711Y1864750D01*
X192754Y1864624D01*
X192780Y1864493D01*
X192788Y1864360D01*
Y1844040D01*
X192780Y1843907D01*
X192754Y1843777D01*
X192711Y1843650D01*
X192652Y1843531D01*
X192578Y1843420D01*
X192490Y1843320D01*
X189950Y1840780D01*
X189850Y1840692D01*
X189739Y1840618D01*
X189620Y1840559D01*
X189494Y1840517D01*
X189363Y1840491D01*
X189230Y1840482D01*
X49530D01*
X49397Y1840491D01*
X49267Y1840517D01*
X49140Y1840559D01*
X49021Y1840618D01*
X48910Y1840692D01*
X48810Y1840780D01*
X48722Y1840880D01*
X48648Y1840991D01*
X48589Y1841110D01*
X48547Y1841237D01*
X48520Y1841367D01*
X48512Y1841500D01*
Y1864360D01*
X48520Y1864493D01*
X48547Y1864624D01*
X48589Y1864750D01*
X48648Y1864869D01*
X48722Y1864980D01*
X48810Y1865080D01*
X48910Y1865168D01*
X49021Y1865242D01*
X49140Y1865301D01*
X49267Y1865343D01*
X49397Y1865370D01*
X49530Y1865378D01*
X191770D01*
X191903Y1865370D01*
D02*
G37*
G36*
X1691773Y1978400D02*
X1691904Y1978374D01*
X1692030Y1978331D01*
X1692149Y1978272D01*
X1692260Y1978198D01*
X1692360Y1978110D01*
X1735242Y1935228D01*
X1790700D01*
X1790833Y1935220D01*
X1790963Y1935193D01*
X1791090Y1935151D01*
X1791209Y1935092D01*
X1791320Y1935018D01*
X1791420Y1934930D01*
X1825710Y1900640D01*
X1825798Y1900540D01*
X1825872Y1900429D01*
X1825931Y1900310D01*
X1825974Y1900184D01*
X1825999Y1900053D01*
X1826008Y1899920D01*
Y252730D01*
X1825999Y252597D01*
X1825974Y252467D01*
X1825931Y252340D01*
X1825872Y252221D01*
X1825798Y252110D01*
X1825710Y252010D01*
X1814280Y240580D01*
X1814180Y240492D01*
X1814069Y240418D01*
X1813950Y240359D01*
X1813824Y240317D01*
X1813693Y240291D01*
X1813560Y240282D01*
X1717462D01*
X1684740Y207560D01*
X1684640Y207472D01*
X1684529Y207398D01*
X1684410Y207339D01*
X1684283Y207297D01*
X1684153Y207271D01*
X1684020Y207262D01*
X1642110D01*
X1641977Y207271D01*
X1641846Y207297D01*
X1641720Y207339D01*
X1641601Y207398D01*
X1641490Y207472D01*
X1641390Y207560D01*
X1641302Y207660D01*
X1641228Y207771D01*
X1641169Y207890D01*
X1641127Y208016D01*
X1641100Y208147D01*
X1641092Y208280D01*
Y226908D01*
X1638850Y229150D01*
X1638762Y229250D01*
X1638688Y229361D01*
X1638629Y229480D01*
X1638586Y229606D01*
X1638560Y229737D01*
X1638552Y229870D01*
X1638560Y230003D01*
X1638586Y230133D01*
X1638629Y230260D01*
X1638688Y230379D01*
X1638762Y230490D01*
X1638850Y230590D01*
X1638950Y230678D01*
X1639061Y230752D01*
X1639180Y230811D01*
X1639306Y230854D01*
X1639437Y230879D01*
X1639570Y230888D01*
X1675978D01*
X1715050Y269960D01*
X1715150Y270048D01*
X1715261Y270122D01*
X1715380Y270181D01*
X1715506Y270224D01*
X1715637Y270250D01*
X1715770Y270258D01*
X1790952D01*
Y471422D01*
X1742862D01*
X1741890Y470450D01*
X1741790Y470362D01*
X1741679Y470288D01*
X1741599Y470249D01*
X1741560Y470229D01*
X1741434Y470187D01*
X1741303Y470160D01*
X1741170Y470152D01*
X1741037Y470160D01*
X1740907Y470187D01*
X1740780Y470229D01*
X1740661Y470288D01*
X1740550Y470362D01*
X1740450Y470450D01*
X1729318Y481582D01*
X1678940D01*
X1678807Y481590D01*
X1678676Y481617D01*
X1678550Y481659D01*
X1678431Y481718D01*
X1678320Y481792D01*
X1678220Y481880D01*
X1675978Y484122D01*
X1671320D01*
X1671187Y484131D01*
X1671057Y484156D01*
X1670930Y484199D01*
X1670811Y484258D01*
X1670700Y484332D01*
X1670600Y484420D01*
X1664250Y490770D01*
X1664162Y490870D01*
X1664088Y490981D01*
X1664029Y491100D01*
X1663987Y491227D01*
X1663961Y491357D01*
X1663952Y491490D01*
X1663961Y491623D01*
X1663987Y491754D01*
X1664029Y491880D01*
X1664088Y491999D01*
X1664162Y492110D01*
X1664250Y492210D01*
X1665222Y493182D01*
Y509270D01*
X1665231Y509403D01*
X1665257Y509534D01*
X1665299Y509660D01*
X1665358Y509779D01*
X1665432Y509890D01*
X1665520Y509990D01*
X1665620Y510078D01*
X1665731Y510152D01*
X1665850Y510211D01*
X1665977Y510253D01*
X1666107Y510280D01*
X1666240Y510288D01*
X1732280D01*
X1732413Y510280D01*
X1732543Y510253D01*
X1732670Y510211D01*
X1732789Y510152D01*
X1732900Y510078D01*
X1733000Y509990D01*
X1747942Y495048D01*
X1790952D01*
Y693420D01*
X1790961Y693553D01*
X1790986Y693683D01*
X1791029Y693810D01*
X1791088Y693929D01*
X1791162Y694040D01*
X1791250Y694140D01*
X1791800Y694690D01*
X1791548Y694942D01*
X1735242D01*
X1692360Y652060D01*
X1692260Y651972D01*
X1692149Y651898D01*
X1692030Y651839D01*
X1691904Y651796D01*
X1691773Y651770D01*
X1691640Y651762D01*
X1647190D01*
X1647057Y651770D01*
X1646927Y651796D01*
X1646800Y651839D01*
X1646681Y651898D01*
X1646570Y651972D01*
X1646470Y652060D01*
X1640120Y658410D01*
X1640032Y658510D01*
X1639958Y658621D01*
X1639899Y658740D01*
X1639857Y658867D01*
X1639830Y658997D01*
X1639822Y659130D01*
Y668020D01*
X1639830Y668153D01*
X1639857Y668283D01*
X1639899Y668410D01*
X1639958Y668529D01*
X1640032Y668640D01*
X1640120Y668740D01*
X1640220Y668828D01*
X1640331Y668902D01*
X1640450Y668961D01*
X1640576Y669004D01*
X1640707Y669029D01*
X1640840Y669038D01*
X1641688D01*
X1647740Y675090D01*
X1647840Y675178D01*
X1647951Y675252D01*
X1648070Y675311D01*
X1648197Y675353D01*
X1648327Y675379D01*
X1648460Y675388D01*
X1681058D01*
X1723940Y718270D01*
X1724040Y718358D01*
X1724151Y718432D01*
X1724270Y718491D01*
X1724397Y718533D01*
X1724527Y718559D01*
X1724660Y718568D01*
X1792222D01*
Y917788D01*
X1790278Y919732D01*
X1687830D01*
X1687697Y919741D01*
X1687567Y919766D01*
X1687440Y919809D01*
X1687321Y919868D01*
X1687210Y919942D01*
X1687110Y920030D01*
X1665520Y941620D01*
X1665432Y941720D01*
X1665358Y941831D01*
X1665299Y941950D01*
X1665257Y942076D01*
X1665231Y942207D01*
X1665222Y942340D01*
Y953770D01*
X1665231Y953903D01*
X1665257Y954034D01*
X1665299Y954160D01*
X1665358Y954279D01*
X1665432Y954390D01*
X1665520Y954490D01*
X1665620Y954578D01*
X1665731Y954652D01*
X1665850Y954711D01*
X1665977Y954753D01*
X1666107Y954780D01*
X1666240Y954788D01*
X1667088D01*
X1671870Y959570D01*
X1671970Y959658D01*
X1672081Y959732D01*
X1672161Y959771D01*
X1672200Y959791D01*
X1672327Y959834D01*
X1672457Y959859D01*
X1672590Y959868D01*
X1672723Y959859D01*
X1672854Y959834D01*
X1672980Y959791D01*
X1673099Y959732D01*
X1673210Y959658D01*
X1673310Y959570D01*
X1674282Y958598D01*
X1680210D01*
X1680343Y958589D01*
X1680473Y958564D01*
X1680600Y958521D01*
X1680719Y958462D01*
X1680830Y958388D01*
X1680930Y958300D01*
X1698412Y940818D01*
X1792222D01*
Y1143252D01*
X1732702D01*
X1687280Y1097830D01*
X1687180Y1097742D01*
X1687069Y1097668D01*
X1686950Y1097609D01*
X1686823Y1097567D01*
X1686693Y1097541D01*
X1686560Y1097532D01*
X1645920D01*
X1645787Y1097541D01*
X1645656Y1097567D01*
X1645530Y1097609D01*
X1645411Y1097668D01*
X1645300Y1097742D01*
X1645200Y1097830D01*
X1645112Y1097930D01*
X1645038Y1098041D01*
X1644979Y1098160D01*
X1644937Y1098287D01*
X1644910Y1098417D01*
X1644902Y1098550D01*
Y1099398D01*
X1638850Y1105450D01*
X1638762Y1105550D01*
X1638688Y1105661D01*
X1638629Y1105780D01*
X1638586Y1105907D01*
X1638560Y1106037D01*
X1638552Y1106170D01*
Y1117600D01*
X1638560Y1117733D01*
X1638586Y1117863D01*
X1638629Y1117990D01*
X1638688Y1118109D01*
X1638762Y1118220D01*
X1638850Y1118320D01*
X1638950Y1118408D01*
X1639061Y1118482D01*
X1639180Y1118541D01*
X1639306Y1118584D01*
X1639437Y1118609D01*
X1639570Y1118618D01*
X1642958D01*
X1646470Y1122130D01*
X1646570Y1122218D01*
X1646681Y1122292D01*
X1646800Y1122351D01*
X1646927Y1122393D01*
X1647057Y1122420D01*
X1647190Y1122428D01*
X1647323Y1122420D01*
X1647453Y1122393D01*
X1647580Y1122351D01*
X1647699Y1122292D01*
X1647810Y1122218D01*
X1647910Y1122130D01*
X1648882Y1121158D01*
X1679192D01*
Y1121410D01*
X1679200Y1121543D01*
X1679227Y1121674D01*
X1679269Y1121800D01*
X1679328Y1121919D01*
X1679402Y1122030D01*
X1679490Y1122130D01*
X1725210Y1167850D01*
X1725310Y1167938D01*
X1725421Y1168012D01*
X1725540Y1168071D01*
X1725667Y1168113D01*
X1725797Y1168139D01*
X1725930Y1168148D01*
X1792222D01*
Y1364828D01*
X1791548Y1365502D01*
X1685290D01*
X1685157Y1365511D01*
X1685027Y1365536D01*
X1684900Y1365579D01*
X1684781Y1365638D01*
X1684670Y1365712D01*
X1684570Y1365800D01*
X1662980Y1387390D01*
X1662892Y1387490D01*
X1662818Y1387601D01*
X1662779Y1387681D01*
X1662759Y1387720D01*
X1662717Y1387847D01*
X1662690Y1387977D01*
X1662682Y1388110D01*
X1662690Y1388243D01*
X1662717Y1388374D01*
X1662759Y1388500D01*
X1662818Y1388619D01*
X1662892Y1388730D01*
X1662980Y1388830D01*
X1663952Y1389802D01*
Y1405890D01*
X1663961Y1406023D01*
X1663987Y1406154D01*
X1664029Y1406280D01*
X1664088Y1406399D01*
X1664162Y1406510D01*
X1664250Y1406610D01*
X1664350Y1406698D01*
X1664461Y1406772D01*
X1664580Y1406831D01*
X1664707Y1406873D01*
X1664837Y1406900D01*
X1664970Y1406908D01*
X1682750D01*
X1682883Y1406900D01*
X1683013Y1406873D01*
X1683140Y1406831D01*
X1683259Y1406772D01*
X1683370Y1406698D01*
X1683470Y1406610D01*
X1698412Y1391668D01*
X1790952D01*
Y1589022D01*
X1728892D01*
X1689820Y1549950D01*
X1689720Y1549862D01*
X1689609Y1549788D01*
X1689490Y1549729D01*
X1689364Y1549686D01*
X1689233Y1549660D01*
X1689100Y1549652D01*
X1643380D01*
X1643247Y1549660D01*
X1643116Y1549686D01*
X1642990Y1549729D01*
X1642871Y1549788D01*
X1642760Y1549862D01*
X1642660Y1549950D01*
X1636310Y1556300D01*
X1636222Y1556400D01*
X1636148Y1556511D01*
X1636089Y1556630D01*
X1636046Y1556756D01*
X1636021Y1556887D01*
X1636012Y1557020D01*
X1636021Y1557153D01*
X1636046Y1557283D01*
X1636089Y1557410D01*
X1636148Y1557529D01*
X1636222Y1557640D01*
X1636310Y1557740D01*
X1637282Y1558712D01*
Y1572260D01*
X1637290Y1572393D01*
X1637316Y1572523D01*
X1637359Y1572650D01*
X1637418Y1572769D01*
X1637492Y1572880D01*
X1637580Y1572980D01*
X1637680Y1573068D01*
X1637791Y1573142D01*
X1637910Y1573201D01*
X1638036Y1573244D01*
X1638167Y1573270D01*
X1638300Y1573278D01*
X1675978D01*
X1717590Y1614890D01*
X1717690Y1614978D01*
X1717801Y1615052D01*
X1717920Y1615111D01*
X1718047Y1615154D01*
X1718177Y1615179D01*
X1718310Y1615188D01*
X1789682D01*
Y1808480D01*
X1789691Y1808613D01*
X1789716Y1808743D01*
X1789759Y1808870D01*
X1789818Y1808989D01*
X1789892Y1809100D01*
X1789980Y1809200D01*
X1790530Y1809750D01*
X1786170Y1814110D01*
X1786082Y1814210D01*
X1786008Y1814321D01*
X1785949Y1814440D01*
X1785907Y1814566D01*
X1785880Y1814697D01*
X1785872Y1814830D01*
Y1815082D01*
X1687830D01*
X1687697Y1815090D01*
X1687567Y1815116D01*
X1687440Y1815159D01*
X1687321Y1815218D01*
X1687210Y1815292D01*
X1687110Y1815380D01*
X1664250Y1838240D01*
X1664162Y1838340D01*
X1664088Y1838451D01*
X1664029Y1838570D01*
X1663987Y1838696D01*
X1663961Y1838827D01*
X1663952Y1838960D01*
Y1851660D01*
X1663961Y1851793D01*
X1663987Y1851924D01*
X1664029Y1852050D01*
X1664088Y1852169D01*
X1664162Y1852280D01*
X1664250Y1852380D01*
X1666790Y1854920D01*
X1666890Y1855008D01*
X1667001Y1855082D01*
X1667120Y1855141D01*
X1667247Y1855184D01*
X1667377Y1855210D01*
X1667510Y1855218D01*
X1680210D01*
X1680343Y1855210D01*
X1680473Y1855184D01*
X1680600Y1855141D01*
X1680719Y1855082D01*
X1680830Y1855008D01*
X1680930Y1854920D01*
X1695872Y1839978D01*
X1789008D01*
X1790952Y1841922D01*
Y1889338D01*
X1780540Y1899750D01*
X1779990Y1899200D01*
X1779890Y1899112D01*
X1779779Y1899038D01*
X1779660Y1898979D01*
X1779534Y1898936D01*
X1779403Y1898911D01*
X1779270Y1898902D01*
X1720850D01*
X1720717Y1898911D01*
X1720587Y1898936D01*
X1720460Y1898979D01*
X1720341Y1899038D01*
X1720230Y1899112D01*
X1720130Y1899200D01*
X1674708Y1944622D01*
X1008802D01*
X912580Y1848400D01*
X912480Y1848312D01*
X912369Y1848238D01*
X912250Y1848179D01*
X912123Y1848136D01*
X911993Y1848111D01*
X911860Y1848102D01*
X562610D01*
X562477Y1848111D01*
X562346Y1848136D01*
X562220Y1848179D01*
X562101Y1848238D01*
X561990Y1848312D01*
X561890Y1848400D01*
X510118Y1900172D01*
X48682D01*
X41658Y1893148D01*
Y1782828D01*
X60538D01*
X76750Y1799040D01*
X76850Y1799128D01*
X76961Y1799202D01*
X77080Y1799261D01*
X77207Y1799303D01*
X77337Y1799330D01*
X77470Y1799338D01*
X160868D01*
X175810Y1814280D01*
X175910Y1814368D01*
X176021Y1814442D01*
X176140Y1814501D01*
X176266Y1814543D01*
X176397Y1814570D01*
X176530Y1814578D01*
X189230D01*
X189363Y1814570D01*
X189494Y1814543D01*
X189620Y1814501D01*
X189739Y1814442D01*
X189850Y1814368D01*
X189950Y1814280D01*
X196300Y1807930D01*
X196388Y1807830D01*
X196462Y1807719D01*
X196521Y1807600D01*
X196563Y1807473D01*
X196590Y1807343D01*
X196598Y1807210D01*
Y1800860D01*
X196590Y1800727D01*
X196563Y1800596D01*
X196521Y1800470D01*
X196462Y1800351D01*
X196388Y1800240D01*
X196300Y1800140D01*
X172170Y1776010D01*
X172070Y1775922D01*
X171959Y1775848D01*
X171840Y1775789D01*
X171714Y1775746D01*
X171583Y1775721D01*
X171450Y1775712D01*
X88052D01*
X66760Y1754420D01*
X66660Y1754332D01*
X66549Y1754258D01*
X66430Y1754199D01*
X66304Y1754156D01*
X66173Y1754131D01*
X66040Y1754122D01*
X55032D01*
X39540Y1738630D01*
X40090Y1738080D01*
X40178Y1737980D01*
X40252Y1737869D01*
X40311Y1737750D01*
X40353Y1737623D01*
X40380Y1737493D01*
X40388Y1737360D01*
Y1560578D01*
X43180D01*
X43313Y1560569D01*
X43443Y1560544D01*
X43570Y1560501D01*
X43689Y1560442D01*
X43800Y1560368D01*
X43900Y1560280D01*
X51222Y1552958D01*
X140970D01*
X141103Y1552950D01*
X141234Y1552923D01*
X141360Y1552881D01*
X141479Y1552822D01*
X141590Y1552748D01*
X141690Y1552660D01*
X141778Y1552560D01*
X141852Y1552449D01*
X141911Y1552330D01*
X141953Y1552204D01*
X141980Y1552073D01*
X141988Y1551940D01*
Y1551092D01*
X168360Y1524720D01*
X168448Y1524620D01*
X168522Y1524509D01*
X168581Y1524390D01*
X168624Y1524263D01*
X168650Y1524133D01*
X168658Y1524000D01*
X168650Y1523867D01*
X168624Y1523737D01*
X168581Y1523610D01*
X168522Y1523491D01*
X168448Y1523380D01*
X168360Y1523280D01*
X167388Y1522308D01*
Y1513840D01*
X167379Y1513707D01*
X167353Y1513577D01*
X167311Y1513450D01*
X167252Y1513331D01*
X167178Y1513220D01*
X167090Y1513120D01*
X160740Y1506770D01*
X160640Y1506682D01*
X160529Y1506608D01*
X160410Y1506549D01*
X160284Y1506507D01*
X160153Y1506481D01*
X160020Y1506472D01*
X153670D01*
X153537Y1506481D01*
X153406Y1506507D01*
X153280Y1506549D01*
X153161Y1506608D01*
X153050Y1506682D01*
X152950Y1506770D01*
X130388Y1529332D01*
X49952D01*
X40388Y1519768D01*
Y1335788D01*
X43180D01*
X43313Y1335780D01*
X43443Y1335753D01*
X43570Y1335711D01*
X43689Y1335652D01*
X43800Y1335578D01*
X43900Y1335490D01*
X49952Y1329438D01*
X103718D01*
X144060Y1369780D01*
X144160Y1369868D01*
X144271Y1369942D01*
X144390Y1370001D01*
X144516Y1370043D01*
X144647Y1370069D01*
X144780Y1370078D01*
X187960D01*
X188093Y1370069D01*
X188223Y1370043D01*
X188350Y1370001D01*
X188469Y1369942D01*
X188580Y1369868D01*
X188680Y1369780D01*
X195030Y1363430D01*
X195118Y1363330D01*
X195192Y1363219D01*
X195251Y1363100D01*
X195294Y1362973D01*
X195319Y1362843D01*
X195328Y1362710D01*
X195319Y1362577D01*
X195294Y1362446D01*
X195251Y1362320D01*
X195192Y1362201D01*
X195118Y1362090D01*
X195030Y1361990D01*
X191518Y1358478D01*
Y1348740D01*
X191509Y1348607D01*
X191483Y1348477D01*
X191441Y1348350D01*
X191382Y1348231D01*
X191308Y1348120D01*
X191220Y1348020D01*
X191120Y1347932D01*
X191009Y1347858D01*
X190890Y1347799D01*
X190763Y1347757D01*
X190633Y1347731D01*
X190500Y1347722D01*
X187112D01*
X184870Y1345480D01*
X184770Y1345392D01*
X184659Y1345318D01*
X184540Y1345259D01*
X184414Y1345217D01*
X184283Y1345190D01*
X184150Y1345182D01*
X151552D01*
X111210Y1304840D01*
X111110Y1304752D01*
X110999Y1304678D01*
X110919Y1304639D01*
X110880Y1304619D01*
X110753Y1304577D01*
X110623Y1304550D01*
X110490Y1304542D01*
X110357Y1304550D01*
X110226Y1304577D01*
X110100Y1304619D01*
X109981Y1304678D01*
X109870Y1304752D01*
X109770Y1304840D01*
X108798Y1305812D01*
X50548D01*
Y1305560D01*
X50539Y1305427D01*
X50514Y1305296D01*
X50471Y1305170D01*
X50412Y1305051D01*
X50338Y1304940D01*
X50250Y1304840D01*
X39118Y1293708D01*
Y1110998D01*
X41910D01*
X42043Y1110990D01*
X42174Y1110964D01*
X42300Y1110921D01*
X42419Y1110862D01*
X42530Y1110788D01*
X42630Y1110700D01*
X48682Y1104648D01*
X143510D01*
X143643Y1104640D01*
X143773Y1104613D01*
X143900Y1104571D01*
X144019Y1104512D01*
X144130Y1104438D01*
X144230Y1104350D01*
X170900Y1077680D01*
X170988Y1077580D01*
X171062Y1077469D01*
X171121Y1077350D01*
X171164Y1077224D01*
X171189Y1077093D01*
X171198Y1076960D01*
X171189Y1076827D01*
X171164Y1076696D01*
X171121Y1076570D01*
X171062Y1076451D01*
X170988Y1076340D01*
X170900Y1076240D01*
X168658Y1073998D01*
Y1066800D01*
X168650Y1066667D01*
X168624Y1066536D01*
X168581Y1066410D01*
X168522Y1066291D01*
X168448Y1066180D01*
X168360Y1066080D01*
X168260Y1065992D01*
X168149Y1065918D01*
X168030Y1065859D01*
X167903Y1065816D01*
X167773Y1065790D01*
X167640Y1065782D01*
X159172D01*
X155660Y1062270D01*
X155560Y1062182D01*
X155449Y1062108D01*
X155330Y1062049D01*
X155204Y1062007D01*
X155073Y1061981D01*
X154940Y1061972D01*
X154807Y1061981D01*
X154677Y1062007D01*
X154550Y1062049D01*
X154431Y1062108D01*
X154320Y1062182D01*
X154220Y1062270D01*
X135468Y1081022D01*
X49952D01*
X40090Y1071160D01*
X39990Y1071072D01*
X39879Y1070998D01*
X39760Y1070939D01*
X39634Y1070897D01*
X39503Y1070871D01*
X39370Y1070862D01*
X39118D01*
Y886882D01*
X45170Y880830D01*
X45258Y880730D01*
X45332Y880619D01*
X45391Y880500D01*
X45434Y880374D01*
X45459Y880243D01*
X45468Y880110D01*
Y879858D01*
X94828D01*
X144060Y929090D01*
X144160Y929178D01*
X144271Y929252D01*
X144390Y929311D01*
X144516Y929353D01*
X144647Y929380D01*
X144780Y929388D01*
X189230D01*
X189363Y929380D01*
X189494Y929353D01*
X189620Y929311D01*
X189739Y929252D01*
X189850Y929178D01*
X189950Y929090D01*
X196300Y922740D01*
X196388Y922640D01*
X196462Y922529D01*
X196521Y922410D01*
X196563Y922283D01*
X196590Y922153D01*
X196598Y922020D01*
Y911860D01*
X196590Y911727D01*
X196563Y911597D01*
X196521Y911470D01*
X196462Y911351D01*
X196388Y911240D01*
X196300Y911140D01*
X191220Y906060D01*
X191120Y905972D01*
X191009Y905898D01*
X190929Y905859D01*
X190890Y905839D01*
X190763Y905797D01*
X190633Y905770D01*
X190500Y905762D01*
X190367Y905770D01*
X190236Y905797D01*
X190110Y905839D01*
X189991Y905898D01*
X189880Y905972D01*
X189780Y906060D01*
X188808Y907032D01*
X153418D01*
Y906780D01*
X153410Y906647D01*
X153384Y906516D01*
X153341Y906390D01*
X153282Y906271D01*
X153208Y906160D01*
X153120Y906060D01*
X104860Y857800D01*
X104760Y857712D01*
X104649Y857638D01*
X104530Y857579D01*
X104403Y857536D01*
X104273Y857511D01*
X104140Y857502D01*
X46142D01*
X41658Y853018D01*
Y659552D01*
X44872Y656338D01*
X152400D01*
X152533Y656329D01*
X152663Y656303D01*
X152790Y656261D01*
X152909Y656202D01*
X153020Y656128D01*
X153120Y656040D01*
X168360Y640800D01*
X168448Y640700D01*
X168522Y640589D01*
X168581Y640470D01*
X168624Y640343D01*
X168650Y640213D01*
X168658Y640080D01*
Y628650D01*
X168650Y628517D01*
X168624Y628386D01*
X168581Y628260D01*
X168522Y628141D01*
X168448Y628030D01*
X168360Y627930D01*
X168260Y627842D01*
X168149Y627768D01*
X168030Y627709D01*
X167903Y627667D01*
X167773Y627640D01*
X167640Y627632D01*
X165522D01*
X159470Y621580D01*
X159370Y621492D01*
X159259Y621418D01*
X159140Y621359D01*
X159014Y621316D01*
X158883Y621291D01*
X158750Y621282D01*
X158617Y621291D01*
X158486Y621316D01*
X158360Y621359D01*
X158241Y621418D01*
X158130Y621492D01*
X158030Y621580D01*
X146898Y632712D01*
X43602D01*
X40810Y629920D01*
X41360Y629370D01*
X41448Y629270D01*
X41522Y629159D01*
X41581Y629040D01*
X41624Y628913D01*
X41649Y628783D01*
X41658Y628650D01*
Y434088D01*
X54188D01*
X90720Y470620D01*
X90820Y470708D01*
X90931Y470782D01*
X91050Y470841D01*
X91177Y470883D01*
X91307Y470910D01*
X91440Y470918D01*
X185420D01*
X185553Y470910D01*
X185683Y470883D01*
X185810Y470841D01*
X185929Y470782D01*
X186040Y470708D01*
X186140Y470620D01*
X195030Y461730D01*
X195118Y461630D01*
X195192Y461519D01*
X195251Y461400D01*
X195294Y461273D01*
X195319Y461143D01*
X195328Y461010D01*
X195319Y460877D01*
X195294Y460746D01*
X195251Y460620D01*
X195192Y460501D01*
X195118Y460390D01*
X195030Y460290D01*
X192788Y458048D01*
Y452120D01*
X192780Y451987D01*
X192754Y451856D01*
X192711Y451730D01*
X192652Y451611D01*
X192578Y451500D01*
X192490Y451400D01*
X192390Y451312D01*
X192279Y451238D01*
X192160Y451179D01*
X192034Y451137D01*
X191903Y451110D01*
X191770Y451102D01*
X188382D01*
X186140Y448860D01*
X186040Y448772D01*
X185929Y448698D01*
X185810Y448639D01*
X185683Y448596D01*
X185553Y448571D01*
X185420Y448562D01*
X104562D01*
X66760Y410760D01*
X66660Y410672D01*
X66549Y410598D01*
X66430Y410539D01*
X66304Y410496D01*
X66173Y410471D01*
X66040Y410462D01*
X48008D01*
Y405130D01*
X48000Y404997D01*
X47973Y404866D01*
X47931Y404740D01*
X47872Y404621D01*
X47798Y404510D01*
X47710Y404410D01*
X39118Y395818D01*
Y232832D01*
X62652Y209298D01*
X95250D01*
X95383Y209289D01*
X95513Y209263D01*
X95640Y209221D01*
X95759Y209162D01*
X95870Y209088D01*
X95970Y209000D01*
X99482Y205488D01*
X161290D01*
X161423Y205480D01*
X161553Y205453D01*
X161680Y205411D01*
X161799Y205352D01*
X161910Y205278D01*
X162010Y205190D01*
X162982Y204218D01*
X166370D01*
X166503Y204209D01*
X166633Y204184D01*
X166760Y204141D01*
X166879Y204082D01*
X166990Y204008D01*
X167090Y203920D01*
X167178Y203820D01*
X167252Y203709D01*
X167311Y203590D01*
X167353Y203463D01*
X167379Y203333D01*
X167388Y203200D01*
Y198542D01*
X172170Y193760D01*
X172258Y193660D01*
X172332Y193549D01*
X172391Y193430D01*
X172433Y193304D01*
X172460Y193173D01*
X172468Y193040D01*
Y186690D01*
X172460Y186557D01*
X172433Y186427D01*
X172391Y186300D01*
X172332Y186181D01*
X172258Y186070D01*
X172170Y185970D01*
X172070Y185882D01*
X171959Y185808D01*
X171840Y185749D01*
X171714Y185707D01*
X171583Y185681D01*
X171450Y185672D01*
X167948D01*
X164395Y183303D01*
X164374Y183291D01*
X164354Y183277D01*
X164317Y183258D01*
X164279Y183236D01*
X164257Y183227D01*
X164235Y183216D01*
X164196Y183202D01*
X164156Y183186D01*
X164133Y183179D01*
X164110Y183171D01*
X164069Y183162D01*
X164028Y183151D01*
X164004Y183148D01*
X163980Y183143D01*
X163937Y183139D01*
X163895Y183134D01*
X163871Y183134D01*
X163847Y183132D01*
X163805Y183134D01*
X163762Y183134D01*
X163738Y183137D01*
X163714Y183138D01*
X163673Y183146D01*
X163630Y183152D01*
X163607Y183158D01*
X163583Y183162D01*
X158625Y184402D01*
X87630D01*
X87497Y184410D01*
X87367Y184436D01*
X87240Y184479D01*
X87121Y184538D01*
X87010Y184612D01*
X86910Y184700D01*
X85938Y185672D01*
X62470D01*
X57605Y183239D01*
X57572Y183225D01*
X57540Y183209D01*
X57511Y183200D01*
X57483Y183188D01*
X57448Y183178D01*
X57414Y183167D01*
X57383Y183160D01*
X57354Y183153D01*
X57318Y183148D01*
X57283Y183141D01*
X57252Y183139D01*
X57222Y183134D01*
X57186Y183134D01*
X57150Y183132D01*
X45720D01*
X45587Y183141D01*
X45457Y183167D01*
X45330Y183209D01*
X45211Y183268D01*
X45100Y183342D01*
X45000Y183430D01*
X8170Y220260D01*
X8082Y220360D01*
X8008Y220471D01*
X7949Y220590D01*
X7907Y220716D01*
X7880Y220847D01*
X7872Y220980D01*
Y1907540D01*
X7880Y1907673D01*
X7907Y1907803D01*
X7949Y1907930D01*
X8008Y1908049D01*
X8082Y1908160D01*
X8170Y1908260D01*
X8270Y1908348D01*
X8381Y1908422D01*
X8500Y1908481D01*
X8626Y1908524D01*
X8757Y1908549D01*
X8890Y1908558D01*
X9738D01*
X33570Y1932390D01*
X33670Y1932478D01*
X33781Y1932552D01*
X33900Y1932611D01*
X34027Y1932654D01*
X34157Y1932679D01*
X34290Y1932688D01*
X534670D01*
X534803Y1932679D01*
X534934Y1932654D01*
X535060Y1932611D01*
X535179Y1932552D01*
X535290Y1932478D01*
X535390Y1932390D01*
X580390Y1887390D01*
X580940Y1887940D01*
X581040Y1888028D01*
X581151Y1888102D01*
X581270Y1888161D01*
X581396Y1888203D01*
X581527Y1888230D01*
X581660Y1888238D01*
X905088D01*
X993690Y1976840D01*
X993790Y1976928D01*
X993901Y1977002D01*
X994020Y1977061D01*
X994146Y1977103D01*
X994277Y1977130D01*
X994410Y1977138D01*
X1689948D01*
X1690920Y1978110D01*
X1691020Y1978198D01*
X1691131Y1978272D01*
X1691211Y1978311D01*
X1691250Y1978331D01*
X1691376Y1978374D01*
X1691507Y1978400D01*
X1691640Y1978408D01*
X1691773Y1978400D01*
D02*
G37*
G36*
X1116040Y1772950D02*
X1099040D01*
Y1776950D01*
X1116040D01*
Y1772950D01*
D02*
G37*
G36*
X1074040D02*
X1057040D01*
Y1776950D01*
X1074040D01*
Y1772950D01*
D02*
G37*
G36*
X1116040Y1767950D02*
X1099040D01*
Y1771950D01*
X1116040D01*
Y1767950D01*
D02*
G37*
G36*
X1074040D02*
X1057040D01*
Y1771950D01*
X1074040D01*
Y1767950D01*
D02*
G37*
G36*
X1116040Y1762950D02*
X1099040D01*
Y1766950D01*
X1116040D01*
Y1762950D01*
D02*
G37*
G36*
X1074040D02*
X1057040D01*
Y1766950D01*
X1074040D01*
Y1762950D01*
D02*
G37*
G36*
X1116040Y1757950D02*
X1099040D01*
Y1761950D01*
X1116040D01*
Y1757950D01*
D02*
G37*
G36*
X1074040D02*
X1057040D01*
Y1761950D01*
X1074040D01*
Y1757950D01*
D02*
G37*
G36*
X1116040Y1752950D02*
X1099040D01*
Y1756950D01*
X1116040D01*
Y1752950D01*
D02*
G37*
G36*
X1074040D02*
X1057040D01*
Y1756950D01*
X1074040D01*
Y1752950D01*
D02*
G37*
G36*
X1634623Y1853940D02*
X1634754Y1853914D01*
X1634880Y1853871D01*
X1634999Y1853812D01*
X1635110Y1853738D01*
X1635210Y1853650D01*
X1635298Y1853550D01*
X1635372Y1853439D01*
X1635431Y1853320D01*
X1635473Y1853194D01*
X1635500Y1853063D01*
X1635508Y1852930D01*
Y1813982D01*
X1650450Y1799040D01*
X1650538Y1798940D01*
X1650612Y1798829D01*
X1650671Y1798710D01*
X1650714Y1798584D01*
X1650739Y1798453D01*
X1650748Y1798320D01*
Y1796798D01*
X1708150D01*
X1708283Y1796790D01*
X1708414Y1796763D01*
X1708540Y1796721D01*
X1708659Y1796662D01*
X1708770Y1796588D01*
X1708870Y1796500D01*
X1754292Y1751078D01*
X1778000D01*
X1778133Y1751069D01*
X1778264Y1751044D01*
X1778390Y1751001D01*
X1778509Y1750942D01*
X1778620Y1750868D01*
X1778720Y1750780D01*
X1779990Y1749510D01*
X1780078Y1749410D01*
X1780152Y1749299D01*
X1780211Y1749180D01*
X1780253Y1749053D01*
X1780280Y1748923D01*
X1780288Y1748790D01*
Y1729740D01*
X1780280Y1729607D01*
X1780253Y1729476D01*
X1780211Y1729350D01*
X1780152Y1729231D01*
X1780078Y1729120D01*
X1779990Y1729020D01*
X1779890Y1728932D01*
X1779779Y1728858D01*
X1779660Y1728799D01*
X1779534Y1728757D01*
X1779403Y1728730D01*
X1779270Y1728722D01*
X1746672D01*
X1745700Y1727750D01*
X1745600Y1727662D01*
X1745489Y1727588D01*
X1745409Y1727549D01*
X1745370Y1727529D01*
X1745244Y1727487D01*
X1745113Y1727460D01*
X1744980Y1727452D01*
X1744847Y1727460D01*
X1744716Y1727487D01*
X1744590Y1727529D01*
X1744471Y1727588D01*
X1744360Y1727662D01*
X1744260Y1727750D01*
X1698838Y1773172D01*
X1641262D01*
X1640290Y1772200D01*
X1640190Y1772112D01*
X1640079Y1772038D01*
X1639999Y1771999D01*
X1639960Y1771979D01*
X1639834Y1771936D01*
X1639703Y1771911D01*
X1639570Y1771902D01*
X1639437Y1771911D01*
X1639306Y1771936D01*
X1639180Y1771979D01*
X1639061Y1772038D01*
X1638950Y1772112D01*
X1638850Y1772200D01*
X1612478Y1798572D01*
X1611630D01*
X1611593Y1798574D01*
X1611556Y1798575D01*
X1611526Y1798579D01*
X1611497Y1798580D01*
X1611461Y1798588D01*
X1611424Y1798593D01*
X1611395Y1798601D01*
X1611366Y1798607D01*
X1611331Y1798618D01*
X1611295Y1798628D01*
X1611268Y1798640D01*
X1611240Y1798649D01*
X1611207Y1798666D01*
X1611173Y1798680D01*
X1611147Y1798695D01*
X1611121Y1798708D01*
X1611090Y1798729D01*
X1611058Y1798748D01*
X1611035Y1798766D01*
X1611010Y1798782D01*
X1610982Y1798807D01*
X1610953Y1798830D01*
X1610932Y1798851D01*
X1610910Y1798870D01*
X1610885Y1798898D01*
X1610859Y1798925D01*
X1610842Y1798948D01*
X1610822Y1798970D01*
X1610802Y1799001D01*
X1610779Y1799031D01*
X1610765Y1799056D01*
X1610748Y1799081D01*
X1610732Y1799114D01*
X1610713Y1799147D01*
X1610702Y1799174D01*
X1610689Y1799200D01*
X1610677Y1799236D01*
X1610663Y1799270D01*
X1610656Y1799299D01*
X1610647Y1799326D01*
X1610639Y1799363D01*
X1610630Y1799399D01*
X1610626Y1799428D01*
X1610621Y1799457D01*
X1610618Y1799494D01*
X1610614Y1799531D01*
X1610614Y1799561D01*
X1610612Y1799590D01*
X1610614Y1799627D01*
X1610614Y1799664D01*
X1614424Y1851734D01*
X1614429Y1851763D01*
X1614431Y1851793D01*
X1614438Y1851829D01*
X1614443Y1851866D01*
X1614451Y1851895D01*
X1614456Y1851924D01*
X1614469Y1851959D01*
X1614478Y1851995D01*
X1614490Y1852022D01*
X1614499Y1852050D01*
X1614516Y1852083D01*
X1614530Y1852117D01*
X1614545Y1852143D01*
X1614558Y1852169D01*
X1614579Y1852200D01*
X1614598Y1852232D01*
X1614616Y1852255D01*
X1614632Y1852280D01*
X1614657Y1852308D01*
X1614680Y1852337D01*
X1614700Y1852358D01*
X1614720Y1852380D01*
X1615990Y1853650D01*
X1616090Y1853738D01*
X1616201Y1853812D01*
X1616320Y1853871D01*
X1616447Y1853914D01*
X1616577Y1853940D01*
X1616710Y1853948D01*
X1634490D01*
X1634623Y1853940D01*
D02*
G37*
G36*
X646780Y1678160D02*
X642780D01*
Y1695160D01*
X646780D01*
Y1678160D01*
D02*
G37*
G36*
X641780D02*
X637780D01*
Y1695160D01*
X641780D01*
Y1678160D01*
D02*
G37*
G36*
X636780D02*
X632780D01*
Y1695160D01*
X636780D01*
Y1678160D01*
D02*
G37*
G36*
X631780D02*
X627780D01*
Y1695160D01*
X631780D01*
Y1678160D01*
D02*
G37*
G36*
X626780D02*
X622780D01*
Y1695160D01*
X626780D01*
Y1678160D01*
D02*
G37*
G36*
X837150Y1674240D02*
X833150D01*
Y1691240D01*
X837150D01*
Y1674240D01*
D02*
G37*
G36*
X832150D02*
X828150D01*
Y1691240D01*
X832150D01*
Y1674240D01*
D02*
G37*
G36*
X827150D02*
X823150D01*
Y1691240D01*
X827150D01*
Y1674240D01*
D02*
G37*
G36*
X822150D02*
X818150D01*
Y1691240D01*
X822150D01*
Y1674240D01*
D02*
G37*
G36*
X817150D02*
X813150D01*
Y1691240D01*
X817150D01*
Y1674240D01*
D02*
G37*
G36*
X85223Y1639310D02*
X85353Y1639283D01*
X85480Y1639241D01*
X85599Y1639182D01*
X85710Y1639108D01*
X85810Y1639020D01*
X133772Y1591058D01*
X185420D01*
X185553Y1591049D01*
X185683Y1591024D01*
X185810Y1590981D01*
X185929Y1590922D01*
X186040Y1590848D01*
X186140Y1590760D01*
X219160Y1557740D01*
X219248Y1557640D01*
X219322Y1557529D01*
X219361Y1557449D01*
X219381Y1557410D01*
X219424Y1557283D01*
X219450Y1557153D01*
X219458Y1557020D01*
X219450Y1556887D01*
X219424Y1556756D01*
X219381Y1556630D01*
X219322Y1556511D01*
X219248Y1556400D01*
X219160Y1556300D01*
X218188Y1555328D01*
Y1513840D01*
X218179Y1513707D01*
X218153Y1513577D01*
X218111Y1513450D01*
X218052Y1513331D01*
X217978Y1513220D01*
X217890Y1513120D01*
X211540Y1506770D01*
X211440Y1506682D01*
X211329Y1506608D01*
X211210Y1506549D01*
X211084Y1506507D01*
X210953Y1506481D01*
X210820Y1506472D01*
X210687Y1506481D01*
X210557Y1506507D01*
X210430Y1506549D01*
X210311Y1506608D01*
X210200Y1506682D01*
X210100Y1506770D01*
X209128Y1507742D01*
X200660D01*
X200527Y1507751D01*
X200396Y1507776D01*
X200270Y1507819D01*
X200151Y1507878D01*
X200040Y1507952D01*
X199940Y1508040D01*
X199852Y1508140D01*
X199778Y1508251D01*
X199719Y1508370D01*
X199676Y1508497D01*
X199650Y1508627D01*
X199642Y1508760D01*
Y1510878D01*
X193590Y1516930D01*
X193502Y1517030D01*
X193428Y1517141D01*
X193369Y1517260D01*
X193326Y1517386D01*
X193300Y1517517D01*
X193292Y1517650D01*
Y1547708D01*
X174838Y1566162D01*
X123190D01*
X123057Y1566171D01*
X122927Y1566196D01*
X122800Y1566239D01*
X122681Y1566298D01*
X122570Y1566372D01*
X122470Y1566460D01*
X122382Y1566560D01*
X122308Y1566671D01*
X122249Y1566790D01*
X122206Y1566917D01*
X122181Y1567047D01*
X122172Y1567180D01*
Y1568028D01*
X73660Y1616540D01*
X71840Y1614720D01*
X71740Y1614632D01*
X71629Y1614558D01*
X71510Y1614499D01*
X71384Y1614456D01*
X71253Y1614431D01*
X71120Y1614422D01*
X53340D01*
X53207Y1614431D01*
X53077Y1614456D01*
X52950Y1614499D01*
X52831Y1614558D01*
X52720Y1614632D01*
X52620Y1614720D01*
X52532Y1614820D01*
X52458Y1614931D01*
X52399Y1615050D01*
X52357Y1615177D01*
X52330Y1615307D01*
X52322Y1615440D01*
Y1616288D01*
X43730Y1624880D01*
X43690Y1624926D01*
X43650Y1624970D01*
X43646Y1624975D01*
X43642Y1624980D01*
X43608Y1625031D01*
X43575Y1625080D01*
X43572Y1625086D01*
X43568Y1625091D01*
X43541Y1625146D01*
X43514Y1625199D01*
X43512Y1625205D01*
X43509Y1625210D01*
X43490Y1625268D01*
X43470Y1625325D01*
X43468Y1625331D01*
X43467Y1625336D01*
X43455Y1625396D01*
X43442Y1625455D01*
X43442Y1625461D01*
X43440Y1625467D01*
X43437Y1625528D01*
X43432Y1625588D01*
X43432Y1625594D01*
X43432Y1625600D01*
X43436Y1625660D01*
X43439Y1625721D01*
X43440Y1625727D01*
X43440Y1625733D01*
X43452Y1625792D01*
X43463Y1625851D01*
X43465Y1625858D01*
X43467Y1625863D01*
X43486Y1625921D01*
X43505Y1625978D01*
X48585Y1638678D01*
X48587Y1638684D01*
X48589Y1638690D01*
X48616Y1638743D01*
X48642Y1638798D01*
X48646Y1638804D01*
X48648Y1638809D01*
X48681Y1638858D01*
X48715Y1638910D01*
X48719Y1638915D01*
X48722Y1638920D01*
X48762Y1638965D01*
X48801Y1639011D01*
X48806Y1639015D01*
X48810Y1639020D01*
X48856Y1639060D01*
X48900Y1639100D01*
X48905Y1639104D01*
X48910Y1639108D01*
X48961Y1639142D01*
X49010Y1639176D01*
X49016Y1639178D01*
X49021Y1639182D01*
X49076Y1639209D01*
X49129Y1639236D01*
X49135Y1639238D01*
X49140Y1639241D01*
X49199Y1639261D01*
X49254Y1639280D01*
X49261Y1639281D01*
X49267Y1639283D01*
X49327Y1639296D01*
X49385Y1639308D01*
X49391Y1639308D01*
X49397Y1639310D01*
X49458Y1639314D01*
X49518Y1639318D01*
X49524Y1639318D01*
X49530Y1639318D01*
X85090D01*
X85223Y1639310D01*
D02*
G37*
G36*
X646780Y1636160D02*
X642780D01*
Y1653160D01*
X646780D01*
Y1636160D01*
D02*
G37*
G36*
X641780D02*
X637780D01*
Y1653160D01*
X641780D01*
Y1636160D01*
D02*
G37*
G36*
X636780D02*
X632780D01*
Y1653160D01*
X636780D01*
Y1636160D01*
D02*
G37*
G36*
X631780D02*
X627780D01*
Y1653160D01*
X631780D01*
Y1636160D01*
D02*
G37*
G36*
X626780D02*
X622780D01*
Y1653160D01*
X626780D01*
Y1636160D01*
D02*
G37*
G36*
X837150Y1632240D02*
X833150D01*
Y1649240D01*
X837150D01*
Y1632240D01*
D02*
G37*
G36*
X832150D02*
X828150D01*
Y1649240D01*
X832150D01*
Y1632240D01*
D02*
G37*
G36*
X827150D02*
X823150D01*
Y1649240D01*
X827150D01*
Y1632240D01*
D02*
G37*
G36*
X822150D02*
X818150D01*
Y1649240D01*
X822150D01*
Y1632240D01*
D02*
G37*
G36*
X817150D02*
X813150D01*
Y1649240D01*
X817150D01*
Y1632240D01*
D02*
G37*
G36*
X1780673Y1528819D02*
X1780804Y1528793D01*
X1780930Y1528751D01*
X1781049Y1528692D01*
X1781160Y1528618D01*
X1781260Y1528530D01*
X1782530Y1527260D01*
X1782618Y1527160D01*
X1782692Y1527049D01*
X1782731Y1526969D01*
X1782751Y1526930D01*
X1782793Y1526803D01*
X1782820Y1526673D01*
X1782828Y1526540D01*
X1782820Y1526407D01*
X1782793Y1526277D01*
X1782751Y1526150D01*
X1782692Y1526031D01*
X1782618Y1525920D01*
X1782530Y1525820D01*
X1781558Y1524848D01*
Y1506220D01*
X1781550Y1506087D01*
X1781523Y1505957D01*
X1781481Y1505830D01*
X1781422Y1505711D01*
X1781348Y1505600D01*
X1781260Y1505500D01*
X1781160Y1505412D01*
X1781049Y1505338D01*
X1780930Y1505279D01*
X1780804Y1505237D01*
X1780673Y1505211D01*
X1780540Y1505202D01*
X1750482D01*
X1745998Y1500718D01*
Y1499870D01*
X1745990Y1499737D01*
X1745963Y1499606D01*
X1745921Y1499480D01*
X1745862Y1499361D01*
X1745788Y1499250D01*
X1745700Y1499150D01*
X1745600Y1499062D01*
X1745489Y1498988D01*
X1745370Y1498929D01*
X1745244Y1498887D01*
X1745113Y1498860D01*
X1744980Y1498852D01*
X1639570D01*
X1639437Y1498860D01*
X1639306Y1498887D01*
X1639180Y1498929D01*
X1639061Y1498988D01*
X1638950Y1499062D01*
X1638850Y1499150D01*
X1638762Y1499250D01*
X1638688Y1499361D01*
X1638629Y1499480D01*
X1638586Y1499606D01*
X1638560Y1499737D01*
X1638552Y1499870D01*
Y1522730D01*
X1638560Y1522863D01*
X1638586Y1522993D01*
X1638629Y1523120D01*
X1638688Y1523239D01*
X1638762Y1523350D01*
X1638850Y1523450D01*
X1638950Y1523538D01*
X1639061Y1523612D01*
X1639180Y1523671D01*
X1639306Y1523714D01*
X1639437Y1523739D01*
X1639570Y1523748D01*
X1732280D01*
X1732413Y1523739D01*
X1732543Y1523714D01*
X1732670Y1523671D01*
X1732789Y1523612D01*
X1732900Y1523538D01*
X1733000Y1523450D01*
X1733550Y1522900D01*
X1739180Y1528530D01*
X1739280Y1528618D01*
X1739391Y1528692D01*
X1739510Y1528751D01*
X1739637Y1528793D01*
X1739767Y1528819D01*
X1739900Y1528828D01*
X1780540D01*
X1780673Y1528819D01*
D02*
G37*
G36*
X105543Y1420869D02*
X105674Y1420844D01*
X105800Y1420801D01*
X105919Y1420742D01*
X106030Y1420668D01*
X106130Y1420580D01*
X107102Y1419608D01*
X191770D01*
X191903Y1419599D01*
X192034Y1419574D01*
X192160Y1419531D01*
X192279Y1419472D01*
X192390Y1419398D01*
X192490Y1419310D01*
X192578Y1419210D01*
X192652Y1419099D01*
X192711Y1418980D01*
X192754Y1418853D01*
X192780Y1418723D01*
X192788Y1418590D01*
Y1402080D01*
X192780Y1401947D01*
X192754Y1401817D01*
X192711Y1401690D01*
X192652Y1401571D01*
X192578Y1401460D01*
X192490Y1401360D01*
X189950Y1398820D01*
X189850Y1398732D01*
X189739Y1398658D01*
X189620Y1398599D01*
X189494Y1398557D01*
X189363Y1398530D01*
X189230Y1398522D01*
X114722D01*
X107400Y1391200D01*
X107300Y1391112D01*
X107189Y1391038D01*
X107070Y1390979D01*
X106944Y1390936D01*
X106813Y1390910D01*
X106680Y1390902D01*
X50800D01*
X50667Y1390910D01*
X50536Y1390936D01*
X50410Y1390979D01*
X50291Y1391038D01*
X50180Y1391112D01*
X50080Y1391200D01*
X49992Y1391300D01*
X49918Y1391411D01*
X49859Y1391530D01*
X49816Y1391656D01*
X49791Y1391787D01*
X49782Y1391920D01*
Y1399118D01*
X46270Y1402630D01*
X46260Y1402641D01*
X46249Y1402652D01*
X46216Y1402691D01*
X46182Y1402730D01*
X46174Y1402743D01*
X46164Y1402754D01*
X46137Y1402798D01*
X46108Y1402841D01*
X46102Y1402854D01*
X46094Y1402867D01*
X46072Y1402914D01*
X46049Y1402960D01*
X46044Y1402975D01*
X46038Y1402988D01*
X46023Y1403037D01*
X46006Y1403087D01*
X46003Y1403101D01*
X45999Y1403116D01*
X45991Y1403166D01*
X45981Y1403217D01*
X45979Y1403232D01*
X45977Y1403247D01*
X45975Y1403299D01*
X45972Y1403350D01*
X45973Y1403365D01*
X45972Y1403380D01*
X45977Y1403431D01*
X45981Y1403483D01*
X45984Y1403498D01*
X45985Y1403513D01*
X45996Y1403563D01*
X46006Y1403613D01*
X46011Y1403628D01*
X46015Y1403643D01*
X49825Y1416343D01*
X49843Y1416391D01*
X49859Y1416440D01*
X49866Y1416453D01*
X49871Y1416467D01*
X49896Y1416513D01*
X49918Y1416559D01*
X49927Y1416572D01*
X49934Y1416585D01*
X49964Y1416627D01*
X49992Y1416670D01*
X50002Y1416681D01*
X50011Y1416694D01*
X50046Y1416731D01*
X50080Y1416770D01*
X50091Y1416780D01*
X50102Y1416791D01*
X50142Y1416824D01*
X50180Y1416858D01*
X50193Y1416866D01*
X50204Y1416876D01*
X50248Y1416903D01*
X50291Y1416932D01*
X50304Y1416938D01*
X50317Y1416947D01*
X50364Y1416968D01*
X50410Y1416991D01*
X50425Y1416996D01*
X50438Y1417002D01*
X50487Y1417017D01*
X50536Y1417034D01*
X50551Y1417036D01*
X50566Y1417041D01*
X50616Y1417049D01*
X50667Y1417059D01*
X50682Y1417061D01*
X50697Y1417063D01*
X50749Y1417065D01*
X50800Y1417068D01*
X50815Y1417067D01*
X50830Y1417068D01*
X50881Y1417063D01*
X50933Y1417059D01*
X50948Y1417056D01*
X50963Y1417055D01*
X51013Y1417044D01*
X51063Y1417034D01*
X51078Y1417029D01*
X51093Y1417025D01*
X51140Y1417007D01*
X51190Y1416991D01*
X51203Y1416984D01*
X51217Y1416979D01*
X51262Y1416955D01*
X51309Y1416932D01*
X51322Y1416923D01*
X51335Y1416916D01*
X51377Y1416886D01*
X51420Y1416858D01*
X51431Y1416848D01*
X51444Y1416839D01*
X51481Y1416804D01*
X51520Y1416770D01*
X53762Y1414528D01*
X98638D01*
X104690Y1420580D01*
X104790Y1420668D01*
X104901Y1420742D01*
X105020Y1420801D01*
X105147Y1420844D01*
X105277Y1420869D01*
X105410Y1420878D01*
X105543Y1420869D01*
D02*
G37*
G36*
X1635893Y1403089D02*
X1636024Y1403064D01*
X1636150Y1403021D01*
X1636269Y1402962D01*
X1636380Y1402888D01*
X1636480Y1402800D01*
X1636568Y1402700D01*
X1636642Y1402589D01*
X1636701Y1402470D01*
X1636743Y1402343D01*
X1636770Y1402213D01*
X1636778Y1402080D01*
Y1374562D01*
X1662852Y1348488D01*
X1705610D01*
X1705743Y1348479D01*
X1705874Y1348454D01*
X1706000Y1348411D01*
X1706119Y1348352D01*
X1706230Y1348278D01*
X1706330Y1348190D01*
X1750482Y1304038D01*
X1777578D01*
X1778550Y1305010D01*
X1778650Y1305098D01*
X1778761Y1305172D01*
X1778841Y1305211D01*
X1778880Y1305231D01*
X1779007Y1305273D01*
X1779137Y1305300D01*
X1779270Y1305308D01*
X1779403Y1305300D01*
X1779534Y1305273D01*
X1779660Y1305231D01*
X1779779Y1305172D01*
X1779890Y1305098D01*
X1779990Y1305010D01*
X1781260Y1303740D01*
X1781348Y1303640D01*
X1781422Y1303529D01*
X1781481Y1303410D01*
X1781523Y1303284D01*
X1781550Y1303153D01*
X1781558Y1303020D01*
Y1280160D01*
X1781550Y1280027D01*
X1781523Y1279896D01*
X1781481Y1279770D01*
X1781422Y1279651D01*
X1781348Y1279540D01*
X1781260Y1279440D01*
X1781160Y1279352D01*
X1781049Y1279278D01*
X1780930Y1279219D01*
X1780804Y1279176D01*
X1780673Y1279150D01*
X1780540Y1279142D01*
X1740322D01*
X1739350Y1278170D01*
X1739250Y1278082D01*
X1739139Y1278008D01*
X1739059Y1277969D01*
X1739020Y1277949D01*
X1738893Y1277906D01*
X1738763Y1277880D01*
X1738630Y1277872D01*
X1738497Y1277880D01*
X1738367Y1277906D01*
X1738240Y1277949D01*
X1738121Y1278008D01*
X1738010Y1278082D01*
X1737910Y1278170D01*
X1697270Y1318810D01*
X1697182Y1318910D01*
X1697108Y1319021D01*
X1697049Y1319140D01*
X1697007Y1319267D01*
X1696980Y1319397D01*
X1696972Y1319530D01*
Y1322322D01*
X1654810D01*
X1654677Y1322330D01*
X1654547Y1322357D01*
X1654420Y1322399D01*
X1654301Y1322458D01*
X1654190Y1322532D01*
X1654090Y1322620D01*
X1615018Y1361692D01*
X1611630D01*
X1611597Y1361694D01*
X1611564Y1361694D01*
X1611531Y1361698D01*
X1611497Y1361700D01*
X1611465Y1361707D01*
X1611432Y1361711D01*
X1611400Y1361720D01*
X1611366Y1361727D01*
X1611335Y1361737D01*
X1611304Y1361745D01*
X1611272Y1361758D01*
X1611240Y1361769D01*
X1611211Y1361784D01*
X1611181Y1361796D01*
X1611151Y1361813D01*
X1611121Y1361828D01*
X1611094Y1361846D01*
X1611065Y1361863D01*
X1611038Y1361883D01*
X1611010Y1361902D01*
X1610986Y1361924D01*
X1610959Y1361944D01*
X1610936Y1361968D01*
X1610910Y1361990D01*
X1610888Y1362015D01*
X1610865Y1362038D01*
X1610845Y1362065D01*
X1610822Y1362090D01*
X1610804Y1362117D01*
X1610784Y1362144D01*
X1610767Y1362173D01*
X1610748Y1362201D01*
X1610734Y1362231D01*
X1610717Y1362259D01*
X1610704Y1362290D01*
X1610689Y1362320D01*
X1610679Y1362351D01*
X1610666Y1362382D01*
X1610657Y1362415D01*
X1610647Y1362446D01*
X1610640Y1362478D01*
X1610632Y1362510D01*
X1610627Y1362544D01*
X1610621Y1362577D01*
X1610618Y1362610D01*
X1610614Y1362642D01*
X1610614Y1362676D01*
X1610612Y1362710D01*
X1610614Y1362743D01*
X1610614Y1362776D01*
X1613154Y1402146D01*
X1613158Y1402179D01*
X1613161Y1402213D01*
X1613167Y1402245D01*
X1613171Y1402278D01*
X1613180Y1402310D01*
X1613186Y1402343D01*
X1613197Y1402375D01*
X1613206Y1402406D01*
X1613218Y1402438D01*
X1613229Y1402470D01*
X1613244Y1402499D01*
X1613256Y1402529D01*
X1613273Y1402559D01*
X1613288Y1402589D01*
X1613306Y1402616D01*
X1613323Y1402645D01*
X1613343Y1402672D01*
X1613362Y1402700D01*
X1613384Y1402725D01*
X1613404Y1402751D01*
X1613428Y1402774D01*
X1613450Y1402800D01*
X1613475Y1402822D01*
X1613498Y1402845D01*
X1613525Y1402865D01*
X1613550Y1402888D01*
X1613577Y1402906D01*
X1613604Y1402926D01*
X1613633Y1402943D01*
X1613661Y1402962D01*
X1613690Y1402976D01*
X1613719Y1402993D01*
X1613750Y1403006D01*
X1613780Y1403021D01*
X1613812Y1403031D01*
X1613842Y1403044D01*
X1613874Y1403053D01*
X1613907Y1403064D01*
X1613939Y1403070D01*
X1613970Y1403078D01*
X1614004Y1403083D01*
X1614037Y1403089D01*
X1614070Y1403092D01*
X1614102Y1403096D01*
X1614136Y1403096D01*
X1614170Y1403098D01*
X1635760D01*
X1635893Y1403089D01*
D02*
G37*
G36*
X48294Y1192276D02*
X48328Y1192276D01*
X48360Y1192272D01*
X48393Y1192270D01*
X48426Y1192263D01*
X48460Y1192258D01*
X48492Y1192250D01*
X48524Y1192243D01*
X48556Y1192233D01*
X48588Y1192224D01*
X48618Y1192211D01*
X48650Y1192201D01*
X48680Y1192186D01*
X48711Y1192173D01*
X48740Y1192156D01*
X48769Y1192142D01*
X48797Y1192123D01*
X48826Y1192106D01*
X48853Y1192086D01*
X48880Y1192068D01*
X48905Y1192045D01*
X48932Y1192025D01*
X48955Y1192002D01*
X48980Y1191980D01*
X49952Y1191008D01*
X88900D01*
X89033Y1191000D01*
X89164Y1190974D01*
X89290Y1190931D01*
X89409Y1190872D01*
X89520Y1190798D01*
X89620Y1190710D01*
X132502Y1147828D01*
X180340D01*
X180473Y1147820D01*
X180604Y1147794D01*
X180730Y1147751D01*
X180849Y1147692D01*
X180960Y1147618D01*
X181060Y1147530D01*
X221700Y1106890D01*
X221788Y1106790D01*
X221862Y1106679D01*
X221921Y1106560D01*
X221964Y1106433D01*
X221989Y1106303D01*
X221998Y1106170D01*
Y1066800D01*
X221989Y1066667D01*
X221964Y1066536D01*
X221921Y1066410D01*
X221862Y1066291D01*
X221788Y1066180D01*
X221700Y1066080D01*
X221600Y1065992D01*
X221489Y1065918D01*
X221370Y1065859D01*
X221243Y1065816D01*
X221113Y1065790D01*
X220980Y1065782D01*
X218862D01*
X212810Y1059730D01*
X212710Y1059642D01*
X212599Y1059568D01*
X212480Y1059509D01*
X212353Y1059466D01*
X212223Y1059441D01*
X212090Y1059432D01*
X211957Y1059441D01*
X211826Y1059466D01*
X211700Y1059509D01*
X211581Y1059568D01*
X211470Y1059642D01*
X211370Y1059730D01*
X209128Y1061972D01*
X200660D01*
X200527Y1061981D01*
X200396Y1062007D01*
X200270Y1062049D01*
X200151Y1062108D01*
X200040Y1062182D01*
X199940Y1062270D01*
X199852Y1062370D01*
X199778Y1062481D01*
X199719Y1062600D01*
X199676Y1062727D01*
X199650Y1062857D01*
X199642Y1062990D01*
Y1066378D01*
X196130Y1069890D01*
X196042Y1069990D01*
X195968Y1070101D01*
X195909Y1070220D01*
X195867Y1070347D01*
X195840Y1070477D01*
X195832Y1070610D01*
Y1098128D01*
X170180Y1123780D01*
X168360Y1121960D01*
X168260Y1121872D01*
X168149Y1121798D01*
X168030Y1121739D01*
X167903Y1121696D01*
X167773Y1121671D01*
X167640Y1121662D01*
X120650D01*
X120517Y1121671D01*
X120386Y1121696D01*
X120260Y1121739D01*
X120141Y1121798D01*
X120030Y1121872D01*
X119930Y1121960D01*
X73238Y1168652D01*
X49530D01*
X49397Y1168661D01*
X49267Y1168687D01*
X49140Y1168729D01*
X49021Y1168788D01*
X48910Y1168862D01*
X48810Y1168950D01*
X48722Y1169050D01*
X48648Y1169161D01*
X48589Y1169280D01*
X48547Y1169407D01*
X48520Y1169537D01*
X48512Y1169670D01*
Y1174328D01*
X45000Y1177840D01*
X44978Y1177866D01*
X44954Y1177889D01*
X44934Y1177916D01*
X44912Y1177940D01*
X44893Y1177968D01*
X44873Y1177995D01*
X44857Y1178024D01*
X44838Y1178051D01*
X44823Y1178081D01*
X44806Y1178111D01*
X44794Y1178141D01*
X44779Y1178170D01*
X44768Y1178203D01*
X44756Y1178234D01*
X44747Y1178265D01*
X44736Y1178297D01*
X44730Y1178330D01*
X44721Y1178362D01*
X44717Y1178395D01*
X44710Y1178427D01*
X44708Y1178461D01*
X44704Y1178494D01*
X44704Y1178527D01*
X44702Y1178560D01*
X44704Y1178594D01*
X44704Y1178628D01*
X44708Y1178660D01*
X44710Y1178693D01*
X44717Y1178726D01*
X44722Y1178760D01*
X47262Y1191460D01*
X47270Y1191491D01*
X47277Y1191524D01*
X47287Y1191556D01*
X47296Y1191588D01*
X47309Y1191618D01*
X47319Y1191650D01*
X47334Y1191680D01*
X47347Y1191711D01*
X47364Y1191740D01*
X47378Y1191769D01*
X47397Y1191797D01*
X47414Y1191826D01*
X47434Y1191852D01*
X47452Y1191880D01*
X47475Y1191905D01*
X47495Y1191932D01*
X47518Y1191955D01*
X47540Y1191980D01*
X47565Y1192002D01*
X47590Y1192026D01*
X47616Y1192046D01*
X47640Y1192068D01*
X47668Y1192086D01*
X47695Y1192107D01*
X47724Y1192124D01*
X47751Y1192142D01*
X47781Y1192157D01*
X47811Y1192174D01*
X47841Y1192186D01*
X47870Y1192201D01*
X47903Y1192212D01*
X47934Y1192225D01*
X47965Y1192233D01*
X47997Y1192243D01*
X48030Y1192250D01*
X48062Y1192259D01*
X48095Y1192263D01*
X48127Y1192270D01*
X48161Y1192272D01*
X48194Y1192276D01*
X48227Y1192276D01*
X48260Y1192278D01*
X48294Y1192276D01*
D02*
G37*
G36*
X1779403Y1080509D02*
X1779534Y1080483D01*
X1779660Y1080441D01*
X1779779Y1080382D01*
X1779890Y1080308D01*
X1779990Y1080220D01*
X1780078Y1080120D01*
X1780152Y1080009D01*
X1780211Y1079890D01*
X1780253Y1079763D01*
X1780280Y1079633D01*
X1780288Y1079500D01*
Y1056640D01*
X1780280Y1056507D01*
X1780253Y1056376D01*
X1780211Y1056250D01*
X1780152Y1056131D01*
X1780078Y1056020D01*
X1779990Y1055920D01*
X1779890Y1055832D01*
X1779779Y1055758D01*
X1779660Y1055699D01*
X1779534Y1055657D01*
X1779403Y1055630D01*
X1779270Y1055622D01*
X1779137Y1055630D01*
X1779007Y1055657D01*
X1778880Y1055699D01*
X1778761Y1055758D01*
X1778650Y1055832D01*
X1778550Y1055920D01*
X1777578Y1056892D01*
X1735838D01*
Y1056640D01*
X1735829Y1056507D01*
X1735804Y1056376D01*
X1735761Y1056250D01*
X1735702Y1056131D01*
X1735628Y1056020D01*
X1735540Y1055920D01*
X1726650Y1047030D01*
X1726550Y1046942D01*
X1726439Y1046868D01*
X1726320Y1046809D01*
X1726257Y1046788D01*
X1726194Y1046767D01*
X1726063Y1046740D01*
X1725930Y1046732D01*
X1643380D01*
X1643247Y1046740D01*
X1643116Y1046767D01*
X1642990Y1046809D01*
X1642871Y1046868D01*
X1642760Y1046942D01*
X1642660Y1047030D01*
X1642572Y1047130D01*
X1642498Y1047241D01*
X1642439Y1047360D01*
X1642397Y1047486D01*
X1642370Y1047617D01*
X1642362Y1047750D01*
Y1051138D01*
X1637580Y1055920D01*
X1637578Y1055922D01*
X1637577Y1055923D01*
X1637534Y1055972D01*
X1637492Y1056020D01*
X1637491Y1056022D01*
X1637489Y1056024D01*
X1637455Y1056077D01*
X1637418Y1056131D01*
X1637417Y1056133D01*
X1637416Y1056135D01*
X1637390Y1056188D01*
X1637359Y1056250D01*
X1637359Y1056253D01*
X1637358Y1056255D01*
X1637338Y1056312D01*
X1637316Y1056376D01*
X1637316Y1056379D01*
X1637315Y1056381D01*
X1637303Y1056443D01*
X1637290Y1056507D01*
X1637290Y1056509D01*
X1637290Y1056512D01*
X1637286Y1056574D01*
X1637282Y1056640D01*
X1637282Y1056642D01*
X1637282Y1056645D01*
X1637286Y1056706D01*
X1637290Y1056773D01*
X1637291Y1056775D01*
X1637291Y1056777D01*
X1637304Y1056841D01*
X1637316Y1056904D01*
X1637317Y1056906D01*
X1637318Y1056908D01*
X1641128Y1070878D01*
X1641148Y1070938D01*
X1641169Y1071000D01*
X1641170Y1071002D01*
X1641171Y1071004D01*
X1641201Y1071063D01*
X1641228Y1071119D01*
X1641229Y1071121D01*
X1641230Y1071123D01*
X1641269Y1071180D01*
X1641302Y1071230D01*
X1641304Y1071232D01*
X1641305Y1071233D01*
X1641348Y1071282D01*
X1641390Y1071330D01*
X1641392Y1071331D01*
X1641393Y1071333D01*
X1641441Y1071374D01*
X1641490Y1071418D01*
X1641492Y1071419D01*
X1641494Y1071421D01*
X1641549Y1071457D01*
X1641601Y1071492D01*
X1641603Y1071493D01*
X1641605Y1071494D01*
X1641665Y1071523D01*
X1641720Y1071551D01*
X1641723Y1071551D01*
X1641725Y1071552D01*
X1641787Y1071573D01*
X1641846Y1071593D01*
X1641849Y1071594D01*
X1641851Y1071595D01*
X1641918Y1071608D01*
X1641977Y1071619D01*
X1641979Y1071620D01*
X1641982Y1071620D01*
X1642050Y1071624D01*
X1642110Y1071628D01*
X1717888D01*
X1726480Y1080220D01*
X1726580Y1080308D01*
X1726691Y1080382D01*
X1726810Y1080441D01*
X1726873Y1080462D01*
X1726936Y1080483D01*
X1727067Y1080509D01*
X1727200Y1080518D01*
X1779270D01*
X1779403Y1080509D01*
D02*
G37*
G36*
X189363Y981450D02*
X189494Y981423D01*
X189620Y981381D01*
X189739Y981322D01*
X189850Y981248D01*
X189950Y981160D01*
X190038Y981060D01*
X190112Y980949D01*
X190171Y980830D01*
X190214Y980704D01*
X190240Y980573D01*
X190248Y980440D01*
Y977052D01*
X195030Y972270D01*
X195118Y972170D01*
X195192Y972059D01*
X195251Y971940D01*
X195294Y971814D01*
X195319Y971683D01*
X195328Y971550D01*
Y961390D01*
X195319Y961257D01*
X195294Y961126D01*
X195251Y961000D01*
X195192Y960881D01*
X195118Y960770D01*
X195030Y960670D01*
X194930Y960582D01*
X194819Y960508D01*
X194700Y960449D01*
X194573Y960406D01*
X194443Y960380D01*
X194310Y960372D01*
X192192D01*
X187410Y955590D01*
X187310Y955502D01*
X187199Y955428D01*
X187080Y955369D01*
X186954Y955327D01*
X186823Y955301D01*
X186690Y955292D01*
X126152D01*
X113750Y942890D01*
X113650Y942802D01*
X113539Y942728D01*
X113420Y942669D01*
X113294Y942626D01*
X113163Y942600D01*
X113030Y942592D01*
X50800D01*
X50667Y942600D01*
X50536Y942626D01*
X50410Y942669D01*
X50291Y942728D01*
X50180Y942802D01*
X50080Y942890D01*
X43730Y949240D01*
X43692Y949284D01*
X43653Y949327D01*
X43648Y949334D01*
X43642Y949340D01*
X43610Y949388D01*
X43577Y949436D01*
X43573Y949444D01*
X43568Y949451D01*
X43542Y949503D01*
X43516Y949555D01*
X43513Y949563D01*
X43509Y949570D01*
X43491Y949625D01*
X43471Y949680D01*
X43469Y949689D01*
X43467Y949697D01*
X43456Y949752D01*
X43443Y949810D01*
X43442Y949819D01*
X43440Y949827D01*
X43437Y949885D01*
X43432Y949943D01*
X43432Y949951D01*
X43432Y949960D01*
X43436Y950018D01*
X43438Y950076D01*
X43440Y950084D01*
X43440Y950093D01*
X43452Y950149D01*
X43462Y950207D01*
X47272Y965447D01*
X47275Y965455D01*
X47277Y965463D01*
X47295Y965519D01*
X47313Y965574D01*
X47316Y965581D01*
X47319Y965590D01*
X47345Y965642D01*
X47370Y965694D01*
X47375Y965702D01*
X47378Y965709D01*
X47410Y965757D01*
X47442Y965806D01*
X47448Y965813D01*
X47452Y965820D01*
X47491Y965864D01*
X47528Y965908D01*
X47534Y965913D01*
X47540Y965920D01*
X48810Y967190D01*
X48910Y967278D01*
X49021Y967352D01*
X49140Y967411D01*
X49267Y967454D01*
X49397Y967479D01*
X49530Y967488D01*
X104988D01*
X118660Y981160D01*
X118760Y981248D01*
X118871Y981322D01*
X118990Y981381D01*
X119116Y981423D01*
X119247Y981450D01*
X119380Y981458D01*
X189230D01*
X189363Y981450D01*
D02*
G37*
G36*
X1635893Y956049D02*
X1636024Y956023D01*
X1636150Y955981D01*
X1636269Y955922D01*
X1636380Y955848D01*
X1636480Y955760D01*
X1636568Y955660D01*
X1636642Y955549D01*
X1636701Y955430D01*
X1636743Y955303D01*
X1636770Y955173D01*
X1636778Y955040D01*
Y917362D01*
X1650450Y903690D01*
X1650538Y903590D01*
X1650612Y903479D01*
X1650671Y903360D01*
X1650714Y903233D01*
X1650739Y903103D01*
X1650748Y902970D01*
Y900178D01*
X1709420D01*
X1709553Y900170D01*
X1709684Y900144D01*
X1709810Y900101D01*
X1709929Y900042D01*
X1710040Y899968D01*
X1710140Y899880D01*
X1755562Y854458D01*
X1778000D01*
X1778133Y854449D01*
X1778264Y854424D01*
X1778390Y854381D01*
X1778509Y854322D01*
X1778620Y854248D01*
X1778720Y854160D01*
X1783800Y849080D01*
X1783888Y848980D01*
X1783962Y848869D01*
X1784021Y848750D01*
X1784064Y848624D01*
X1784090Y848493D01*
X1784098Y848360D01*
Y834390D01*
X1784090Y834257D01*
X1784064Y834127D01*
X1784021Y834000D01*
X1783962Y833881D01*
X1783888Y833770D01*
X1783800Y833670D01*
X1783700Y833582D01*
X1783589Y833508D01*
X1783470Y833449D01*
X1783344Y833407D01*
X1783213Y833381D01*
X1783080Y833372D01*
X1747942D01*
X1745700Y831130D01*
X1745600Y831042D01*
X1745489Y830968D01*
X1745370Y830909D01*
X1745244Y830866D01*
X1745113Y830841D01*
X1744980Y830832D01*
X1744847Y830841D01*
X1744716Y830866D01*
X1744590Y830909D01*
X1744471Y830968D01*
X1744360Y831042D01*
X1744260Y831130D01*
X1700108Y875282D01*
X1643380D01*
X1643247Y875291D01*
X1643116Y875316D01*
X1642990Y875359D01*
X1642871Y875418D01*
X1642760Y875492D01*
X1642660Y875580D01*
X1614720Y903520D01*
X1614632Y903620D01*
X1614558Y903731D01*
X1614499Y903850D01*
X1614456Y903977D01*
X1614431Y904107D01*
X1614422Y904240D01*
Y955040D01*
X1614431Y955173D01*
X1614456Y955303D01*
X1614499Y955430D01*
X1614558Y955549D01*
X1614632Y955660D01*
X1614720Y955760D01*
X1614820Y955848D01*
X1614931Y955922D01*
X1615050Y955981D01*
X1615177Y956023D01*
X1615307Y956049D01*
X1615440Y956058D01*
X1635760D01*
X1635893Y956049D01*
D02*
G37*
G36*
X1780673Y632200D02*
X1780804Y632174D01*
X1780930Y632131D01*
X1781049Y632072D01*
X1781160Y631998D01*
X1781260Y631910D01*
X1781348Y631810D01*
X1781422Y631699D01*
X1781481Y631580D01*
X1781523Y631454D01*
X1781550Y631323D01*
X1781558Y631190D01*
Y607060D01*
X1781550Y606927D01*
X1781523Y606796D01*
X1781481Y606670D01*
X1781422Y606551D01*
X1781348Y606440D01*
X1781260Y606340D01*
X1781160Y606252D01*
X1781049Y606178D01*
X1780930Y606119D01*
X1780804Y606077D01*
X1780673Y606050D01*
X1780540Y606042D01*
X1780407Y606050D01*
X1780276Y606077D01*
X1780150Y606119D01*
X1780031Y606178D01*
X1779920Y606252D01*
X1779820Y606340D01*
X1777578Y608582D01*
X1739648D01*
Y607060D01*
X1739639Y606927D01*
X1739613Y606796D01*
X1739571Y606670D01*
X1739512Y606551D01*
X1739438Y606440D01*
X1739350Y606340D01*
X1730460Y597450D01*
X1730360Y597362D01*
X1730249Y597288D01*
X1730130Y597229D01*
X1730067Y597208D01*
X1730004Y597187D01*
X1729873Y597160D01*
X1729740Y597152D01*
X1643380D01*
X1643247Y597160D01*
X1643116Y597187D01*
X1642990Y597229D01*
X1642871Y597288D01*
X1642760Y597362D01*
X1642660Y597450D01*
X1642572Y597550D01*
X1642498Y597661D01*
X1642439Y597780D01*
X1642397Y597906D01*
X1642370Y598037D01*
X1642362Y598170D01*
Y605368D01*
X1637580Y610150D01*
X1637540Y610196D01*
X1637500Y610240D01*
X1637496Y610245D01*
X1637492Y610250D01*
X1637458Y610301D01*
X1637424Y610350D01*
X1637422Y610356D01*
X1637418Y610361D01*
X1637391Y610415D01*
X1637364Y610469D01*
X1637362Y610475D01*
X1637359Y610480D01*
X1637340Y610538D01*
X1637320Y610594D01*
X1637319Y610601D01*
X1637316Y610606D01*
X1637305Y610666D01*
X1637292Y610725D01*
X1637292Y610731D01*
X1637290Y610737D01*
X1637287Y610798D01*
X1637282Y610858D01*
X1637282Y610864D01*
X1637282Y610870D01*
X1637286Y610930D01*
X1637289Y610991D01*
X1637290Y610997D01*
X1637290Y611003D01*
X1637302Y611062D01*
X1637313Y611121D01*
X1637315Y611128D01*
X1637316Y611133D01*
X1637336Y611191D01*
X1637355Y611248D01*
X1642435Y623948D01*
X1642437Y623954D01*
X1642439Y623960D01*
X1642466Y624013D01*
X1642492Y624068D01*
X1642496Y624074D01*
X1642498Y624079D01*
X1642531Y624128D01*
X1642565Y624180D01*
X1642569Y624185D01*
X1642572Y624190D01*
X1642612Y624235D01*
X1642651Y624281D01*
X1642656Y624285D01*
X1642660Y624290D01*
X1642706Y624330D01*
X1642750Y624370D01*
X1642755Y624374D01*
X1642760Y624378D01*
X1642811Y624412D01*
X1642860Y624445D01*
X1642866Y624448D01*
X1642871Y624452D01*
X1642926Y624479D01*
X1642979Y624506D01*
X1642985Y624508D01*
X1642990Y624511D01*
X1643049Y624530D01*
X1643105Y624550D01*
X1643111Y624552D01*
X1643116Y624553D01*
X1643177Y624566D01*
X1643235Y624578D01*
X1643241Y624578D01*
X1643247Y624580D01*
X1643308Y624584D01*
X1643368Y624588D01*
X1643374Y624588D01*
X1643380Y624588D01*
X1721698D01*
X1729020Y631910D01*
X1729120Y631998D01*
X1729231Y632072D01*
X1729350Y632131D01*
X1729476Y632174D01*
X1729607Y632200D01*
X1729740Y632208D01*
X1780540D01*
X1780673Y632200D01*
D02*
G37*
G36*
X87763Y743960D02*
X87893Y743933D01*
X88020Y743891D01*
X88139Y743832D01*
X88250Y743758D01*
X88350Y743670D01*
X129962Y702058D01*
X186690D01*
X186823Y702049D01*
X186954Y702023D01*
X187080Y701981D01*
X187199Y701922D01*
X187310Y701848D01*
X187410Y701760D01*
X220430Y668740D01*
X220518Y668640D01*
X220592Y668529D01*
X220651Y668410D01*
X220693Y668283D01*
X220720Y668153D01*
X220728Y668020D01*
Y629920D01*
X220720Y629787D01*
X220693Y629656D01*
X220651Y629530D01*
X220592Y629411D01*
X220518Y629300D01*
X220430Y629200D01*
X215350Y624120D01*
X215250Y624032D01*
X215139Y623958D01*
X215020Y623899D01*
X214893Y623857D01*
X214763Y623830D01*
X214630Y623822D01*
X201930D01*
X201797Y623830D01*
X201667Y623857D01*
X201540Y623899D01*
X201421Y623958D01*
X201310Y624032D01*
X201210Y624120D01*
X194860Y630470D01*
X194772Y630570D01*
X194698Y630681D01*
X194639Y630800D01*
X194597Y630927D01*
X194571Y631057D01*
X194562Y631190D01*
Y658708D01*
X177378Y675892D01*
X119380D01*
X119247Y675900D01*
X119116Y675927D01*
X118990Y675969D01*
X118871Y676028D01*
X118760Y676102D01*
X118660Y676190D01*
X74508Y720342D01*
X49530D01*
X49397Y720350D01*
X49267Y720377D01*
X49140Y720419D01*
X49021Y720478D01*
X48910Y720552D01*
X48810Y720640D01*
X48722Y720740D01*
X48648Y720851D01*
X48589Y720970D01*
X48547Y721096D01*
X48520Y721227D01*
X48512Y721360D01*
Y727288D01*
X46270Y729530D01*
X46260Y729541D01*
X46249Y729552D01*
X46216Y729592D01*
X46182Y729630D01*
X46174Y729643D01*
X46164Y729654D01*
X46137Y729698D01*
X46108Y729741D01*
X46102Y729754D01*
X46094Y729767D01*
X46072Y729814D01*
X46049Y729860D01*
X46045Y729875D01*
X46038Y729888D01*
X46023Y729938D01*
X46006Y729986D01*
X46003Y730001D01*
X45999Y730016D01*
X45991Y730066D01*
X45981Y730117D01*
X45979Y730132D01*
X45977Y730147D01*
X45975Y730199D01*
X45972Y730250D01*
X45973Y730265D01*
X45972Y730280D01*
X45977Y730331D01*
X45981Y730383D01*
X45984Y730398D01*
X45985Y730413D01*
X45996Y730463D01*
X46006Y730514D01*
X46011Y730528D01*
X46015Y730543D01*
X49825Y743243D01*
X49843Y743291D01*
X49859Y743340D01*
X49866Y743353D01*
X49871Y743367D01*
X49896Y743413D01*
X49918Y743459D01*
X49927Y743472D01*
X49934Y743485D01*
X49964Y743527D01*
X49992Y743570D01*
X50002Y743581D01*
X50011Y743594D01*
X50046Y743631D01*
X50080Y743670D01*
X50091Y743680D01*
X50102Y743691D01*
X50142Y743724D01*
X50180Y743758D01*
X50193Y743766D01*
X50204Y743776D01*
X50248Y743803D01*
X50291Y743832D01*
X50304Y743838D01*
X50317Y743847D01*
X50364Y743868D01*
X50410Y743891D01*
X50425Y743896D01*
X50438Y743902D01*
X50487Y743917D01*
X50536Y743933D01*
X50551Y743936D01*
X50566Y743941D01*
X50616Y743949D01*
X50667Y743960D01*
X50682Y743960D01*
X50697Y743963D01*
X50749Y743965D01*
X50800Y743968D01*
X87630D01*
X87763Y743960D01*
D02*
G37*
G36*
X185553Y524249D02*
X185683Y524224D01*
X185810Y524181D01*
X185929Y524122D01*
X186040Y524048D01*
X186140Y523960D01*
X196300Y513800D01*
X196388Y513700D01*
X196462Y513589D01*
X196521Y513470D01*
X196563Y513344D01*
X196590Y513213D01*
X196598Y513080D01*
Y501650D01*
X196590Y501517D01*
X196563Y501386D01*
X196521Y501260D01*
X196462Y501141D01*
X196388Y501030D01*
X196300Y500930D01*
X196200Y500842D01*
X196089Y500768D01*
X195970Y500709D01*
X195844Y500667D01*
X195713Y500640D01*
X195580Y500632D01*
X194732D01*
X191220Y497120D01*
X191120Y497032D01*
X191009Y496958D01*
X190890Y496899D01*
X190763Y496856D01*
X190633Y496830D01*
X190500Y496822D01*
X53762D01*
X52790Y495850D01*
X52690Y495762D01*
X52579Y495688D01*
X52499Y495649D01*
X52460Y495629D01*
X52333Y495587D01*
X52203Y495560D01*
X52070Y495552D01*
X51937Y495560D01*
X51807Y495587D01*
X51680Y495629D01*
X51561Y495688D01*
X51450Y495762D01*
X51350Y495850D01*
X48810Y498390D01*
X48722Y498490D01*
X48648Y498601D01*
X48589Y498720D01*
X48547Y498847D01*
X48520Y498977D01*
X48512Y499110D01*
Y511810D01*
X48514Y511844D01*
X48514Y511878D01*
X48518Y511910D01*
X48520Y511943D01*
X48527Y511976D01*
X48532Y512010D01*
X49802Y518360D01*
X49810Y518391D01*
X49816Y518424D01*
X49827Y518456D01*
X49836Y518488D01*
X49849Y518518D01*
X49859Y518550D01*
X49874Y518580D01*
X49887Y518611D01*
X49904Y518640D01*
X49918Y518669D01*
X49937Y518697D01*
X49954Y518727D01*
X49974Y518753D01*
X49992Y518780D01*
X50015Y518805D01*
X50035Y518832D01*
X50058Y518855D01*
X50080Y518880D01*
X50106Y518902D01*
X50129Y518926D01*
X50156Y518946D01*
X50180Y518968D01*
X50208Y518987D01*
X50235Y519007D01*
X50264Y519024D01*
X50291Y519042D01*
X50321Y519057D01*
X50351Y519074D01*
X50381Y519086D01*
X50410Y519101D01*
X50443Y519112D01*
X50474Y519124D01*
X50505Y519133D01*
X50536Y519143D01*
X50570Y519150D01*
X50602Y519159D01*
X50635Y519163D01*
X50667Y519170D01*
X50701Y519172D01*
X50735Y519176D01*
X50767Y519176D01*
X50800Y519178D01*
X74930D01*
X75063Y519170D01*
X75194Y519143D01*
X75320Y519101D01*
X75439Y519042D01*
X75550Y518968D01*
X75650Y518880D01*
X76200Y518330D01*
X80262Y522392D01*
Y523240D01*
X80271Y523373D01*
X80296Y523503D01*
X80339Y523630D01*
X80398Y523749D01*
X80472Y523860D01*
X80560Y523960D01*
X80660Y524048D01*
X80771Y524122D01*
X80890Y524181D01*
X81017Y524224D01*
X81147Y524249D01*
X81280Y524258D01*
X185420D01*
X185553Y524249D01*
D02*
G37*
G36*
X1615463Y510287D02*
X1615486Y510287D01*
X1615530Y510282D01*
X1615573Y510280D01*
X1615595Y510275D01*
X1615619Y510272D01*
X1615661Y510262D01*
X1615703Y510253D01*
X1615725Y510246D01*
X1615748Y510241D01*
X1615789Y510225D01*
X1615830Y510211D01*
X1615850Y510201D01*
X1615872Y510192D01*
X1615910Y510171D01*
X1615949Y510152D01*
X1615968Y510139D01*
X1615989Y510128D01*
X1616024Y510102D01*
X1616060Y510078D01*
X1616077Y510063D01*
X1616096Y510049D01*
X1616127Y510018D01*
X1616160Y509990D01*
X1617132Y509018D01*
X1637030D01*
X1637163Y509010D01*
X1637294Y508983D01*
X1637420Y508941D01*
X1637539Y508882D01*
X1637650Y508808D01*
X1637750Y508720D01*
X1637838Y508620D01*
X1637912Y508509D01*
X1637971Y508390D01*
X1638013Y508264D01*
X1638040Y508133D01*
X1638048Y508000D01*
Y463972D01*
X1650152Y451868D01*
X1708150D01*
X1708283Y451860D01*
X1708414Y451833D01*
X1708540Y451791D01*
X1708659Y451732D01*
X1708770Y451658D01*
X1708870Y451570D01*
X1753022Y407418D01*
X1778000D01*
X1778133Y407410D01*
X1778264Y407383D01*
X1778390Y407341D01*
X1778509Y407282D01*
X1778620Y407208D01*
X1778720Y407120D01*
X1783800Y402040D01*
X1783888Y401940D01*
X1783962Y401829D01*
X1784021Y401710D01*
X1784064Y401584D01*
X1784090Y401453D01*
X1784098Y401320D01*
Y386080D01*
X1784090Y385947D01*
X1784064Y385816D01*
X1784021Y385690D01*
X1783962Y385571D01*
X1783888Y385460D01*
X1783800Y385360D01*
X1781260Y382820D01*
X1781160Y382732D01*
X1781049Y382658D01*
X1780930Y382599D01*
X1780804Y382556D01*
X1780673Y382531D01*
X1780540Y382522D01*
X1742440D01*
X1742307Y382531D01*
X1742177Y382556D01*
X1742050Y382599D01*
X1741931Y382658D01*
X1741820Y382732D01*
X1741720Y382820D01*
X1697568Y426972D01*
X1638300D01*
X1638167Y426981D01*
X1638036Y427006D01*
X1637910Y427049D01*
X1637791Y427108D01*
X1637680Y427182D01*
X1637580Y427270D01*
X1612180Y452670D01*
X1612165Y452687D01*
X1612148Y452704D01*
X1612121Y452738D01*
X1612092Y452770D01*
X1612079Y452789D01*
X1612065Y452808D01*
X1612043Y452844D01*
X1612018Y452881D01*
X1612008Y452902D01*
X1611996Y452921D01*
X1611979Y452961D01*
X1611959Y453000D01*
X1611952Y453022D01*
X1611943Y453044D01*
X1611931Y453085D01*
X1611917Y453126D01*
X1611912Y453149D01*
X1611906Y453171D01*
X1611899Y453214D01*
X1611891Y453257D01*
X1611889Y453280D01*
X1611886Y453303D01*
X1611885Y453347D01*
X1611882Y453390D01*
X1611883Y453413D01*
X1611883Y453436D01*
X1614423Y509316D01*
X1614428Y509360D01*
X1614431Y509403D01*
X1614435Y509426D01*
X1614438Y509449D01*
X1614448Y509491D01*
X1614456Y509534D01*
X1614464Y509555D01*
X1614469Y509578D01*
X1614485Y509618D01*
X1614499Y509660D01*
X1614510Y509680D01*
X1614518Y509702D01*
X1614539Y509740D01*
X1614558Y509779D01*
X1614571Y509798D01*
X1614582Y509819D01*
X1614608Y509854D01*
X1614632Y509890D01*
X1614648Y509907D01*
X1614661Y509926D01*
X1614691Y509957D01*
X1614720Y509990D01*
X1614737Y510005D01*
X1614754Y510022D01*
X1614788Y510049D01*
X1614820Y510078D01*
X1614839Y510090D01*
X1614857Y510105D01*
X1614895Y510128D01*
X1614931Y510152D01*
X1614951Y510162D01*
X1614971Y510174D01*
X1615011Y510191D01*
X1615050Y510211D01*
X1615072Y510218D01*
X1615094Y510227D01*
X1615136Y510240D01*
X1615177Y510253D01*
X1615199Y510258D01*
X1615221Y510265D01*
X1615265Y510271D01*
X1615307Y510280D01*
X1615330Y510281D01*
X1615353Y510285D01*
X1615397Y510285D01*
X1615440Y510288D01*
X1615463Y510287D01*
D02*
G37*
G36*
X106813Y295650D02*
X106944Y295623D01*
X107070Y295581D01*
X107189Y295522D01*
X107300Y295448D01*
X107400Y295360D01*
X143932Y258828D01*
X203200D01*
X203333Y258820D01*
X203463Y258794D01*
X203590Y258751D01*
X203709Y258692D01*
X203820Y258618D01*
X203920Y258530D01*
X222970Y239480D01*
X223058Y239380D01*
X223132Y239269D01*
X223191Y239150D01*
X223234Y239023D01*
X223260Y238893D01*
X223268Y238760D01*
X223260Y238627D01*
X223234Y238496D01*
X223191Y238370D01*
X223132Y238251D01*
X223058Y238140D01*
X222970Y238040D01*
X220728Y235798D01*
Y184150D01*
X220720Y184017D01*
X220693Y183887D01*
X220651Y183760D01*
X220592Y183641D01*
X220518Y183530D01*
X220430Y183430D01*
X220330Y183342D01*
X220219Y183268D01*
X220100Y183209D01*
X219974Y183167D01*
X219843Y183141D01*
X219710Y183132D01*
X204892D01*
X203920Y182160D01*
X203820Y182072D01*
X203709Y181998D01*
X203629Y181959D01*
X203590Y181939D01*
X203463Y181896D01*
X203333Y181870D01*
X203200Y181862D01*
X203067Y181870D01*
X202936Y181896D01*
X202810Y181939D01*
X202691Y181998D01*
X202580Y182072D01*
X202480Y182160D01*
X199940Y184700D01*
X199852Y184800D01*
X199778Y184911D01*
X199719Y185030D01*
X199676Y185156D01*
X199650Y185287D01*
X199642Y185420D01*
Y229448D01*
X191348Y237742D01*
X132080D01*
X131947Y237750D01*
X131817Y237777D01*
X131690Y237819D01*
X131571Y237878D01*
X131460Y237952D01*
X131360Y238040D01*
X98638Y270762D01*
X50800D01*
X50667Y270770D01*
X50536Y270797D01*
X50410Y270839D01*
X50291Y270898D01*
X50180Y270972D01*
X50080Y271060D01*
X47540Y273600D01*
X47452Y273700D01*
X47378Y273811D01*
X47319Y273930D01*
X47277Y274056D01*
X47250Y274187D01*
X47242Y274320D01*
X47250Y274453D01*
X47277Y274583D01*
X47319Y274710D01*
X47378Y274829D01*
X47452Y274940D01*
X47540Y275040D01*
X48512Y276012D01*
Y289560D01*
X48516Y289622D01*
X48519Y289682D01*
X48520Y289687D01*
X48520Y289693D01*
X48532Y289752D01*
X48544Y289813D01*
X48545Y289818D01*
X48547Y289823D01*
X48566Y289881D01*
X48585Y289939D01*
X48587Y289944D01*
X48589Y289950D01*
X48616Y290004D01*
X48643Y290059D01*
X48646Y290064D01*
X48648Y290069D01*
X48681Y290119D01*
X48715Y290171D01*
X52525Y295251D01*
X52529Y295255D01*
X52532Y295260D01*
X52572Y295306D01*
X52612Y295352D01*
X52616Y295356D01*
X52620Y295360D01*
X52666Y295401D01*
X52711Y295441D01*
X52716Y295444D01*
X52720Y295448D01*
X52770Y295481D01*
X52821Y295516D01*
X52826Y295519D01*
X52831Y295522D01*
X52886Y295549D01*
X52940Y295576D01*
X52945Y295578D01*
X52950Y295581D01*
X53009Y295601D01*
X53066Y295620D01*
X53071Y295622D01*
X53077Y295623D01*
X53136Y295635D01*
X53196Y295648D01*
X53202Y295648D01*
X53207Y295650D01*
X53269Y295653D01*
X53329Y295658D01*
X53334Y295658D01*
X53340Y295658D01*
X106680D01*
X106813Y295650D01*
D02*
G37*
G36*
X1778133Y183890D02*
X1778264Y183864D01*
X1778390Y183821D01*
X1778509Y183762D01*
X1778620Y183688D01*
X1778720Y183600D01*
X1778808Y183500D01*
X1778882Y183389D01*
X1778941Y183270D01*
X1778983Y183144D01*
X1779010Y183013D01*
X1779018Y182880D01*
Y162560D01*
X1779010Y162427D01*
X1778983Y162297D01*
X1778941Y162170D01*
X1778882Y162051D01*
X1778808Y161940D01*
X1778720Y161840D01*
X1777450Y160570D01*
X1777350Y160482D01*
X1777239Y160408D01*
X1777120Y160349D01*
X1776994Y160306D01*
X1776863Y160280D01*
X1776730Y160272D01*
X1642110D01*
X1641977Y160280D01*
X1641846Y160306D01*
X1641720Y160349D01*
X1641601Y160408D01*
X1641490Y160482D01*
X1641390Y160570D01*
X1641302Y160670D01*
X1641228Y160781D01*
X1641169Y160900D01*
X1641127Y161026D01*
X1641100Y161157D01*
X1641092Y161290D01*
Y179070D01*
X1641100Y179203D01*
X1641127Y179333D01*
X1641169Y179460D01*
X1641228Y179579D01*
X1641302Y179690D01*
X1641390Y179790D01*
X1642141Y180541D01*
X1641199Y182425D01*
X1641185Y182458D01*
X1641169Y182490D01*
X1641160Y182519D01*
X1641148Y182547D01*
X1641138Y182582D01*
X1641127Y182617D01*
X1641121Y182646D01*
X1641113Y182676D01*
X1641108Y182712D01*
X1641100Y182747D01*
X1641098Y182778D01*
X1641094Y182808D01*
X1641094Y182844D01*
X1641092Y182880D01*
X1641094Y182911D01*
X1641094Y182941D01*
X1641098Y182977D01*
X1641100Y183013D01*
X1641107Y183043D01*
X1641110Y183073D01*
X1641120Y183108D01*
X1641127Y183144D01*
X1641136Y183172D01*
X1641144Y183202D01*
X1641158Y183235D01*
X1641169Y183270D01*
X1641183Y183297D01*
X1641194Y183325D01*
X1641212Y183357D01*
X1641228Y183389D01*
X1641245Y183414D01*
X1641260Y183441D01*
X1641282Y183470D01*
X1641302Y183500D01*
X1641322Y183523D01*
X1641341Y183547D01*
X1641366Y183573D01*
X1641390Y183600D01*
X1641413Y183620D01*
X1641434Y183642D01*
X1641463Y183664D01*
X1641490Y183688D01*
X1641516Y183705D01*
X1641540Y183724D01*
X1641571Y183742D01*
X1641601Y183762D01*
X1641628Y183775D01*
X1641655Y183791D01*
X1641688Y183805D01*
X1641720Y183821D01*
X1641749Y183831D01*
X1641777Y183842D01*
X1641812Y183852D01*
X1641846Y183864D01*
X1641877Y183869D01*
X1641906Y183878D01*
X1641942Y183882D01*
X1641977Y183890D01*
X1642008Y183892D01*
X1642038Y183896D01*
X1642074Y183896D01*
X1642110Y183898D01*
X1778000D01*
X1778133Y183890D01*
D02*
G37*
D10*
X1422019Y1785620D02*
D03*
X1438021D02*
D03*
X1063879Y1480820D02*
D03*
X1079881D02*
D03*
X410591Y233680D02*
D03*
X394589D02*
D03*
X408051Y476250D02*
D03*
X392049D02*
D03*
X408051Y661670D02*
D03*
X392049D02*
D03*
X409321Y915670D02*
D03*
X393319D02*
D03*
X409321Y1140460D02*
D03*
X393319D02*
D03*
X409321Y1369060D02*
D03*
X393319D02*
D03*
X410591Y1578610D02*
D03*
X394589D02*
D03*
X409321Y1816100D02*
D03*
X393319D02*
D03*
X646941Y1567180D02*
D03*
X630939D02*
D03*
X646941Y1620520D02*
D03*
X630939D02*
D03*
X676151Y1692910D02*
D03*
X660149D02*
D03*
X626621Y1708150D02*
D03*
X610619D02*
D03*
X655831D02*
D03*
X639829D02*
D03*
X841121Y1563370D02*
D03*
X825119D02*
D03*
X839851Y1612900D02*
D03*
X823849D02*
D03*
X862711Y1689100D02*
D03*
X846709D02*
D03*
X816991Y1704340D02*
D03*
X800989D02*
D03*
X846201D02*
D03*
X830199D02*
D03*
X1422908Y196850D02*
D03*
X1438910D02*
D03*
X1420749Y435610D02*
D03*
X1436751D02*
D03*
X1423289Y647700D02*
D03*
X1439291D02*
D03*
X1424559Y883920D02*
D03*
X1440561D02*
D03*
X1423289Y1096010D02*
D03*
X1439291D02*
D03*
X1423289Y1332230D02*
D03*
X1439291D02*
D03*
X1423289Y1549400D02*
D03*
X1439291D02*
D03*
D11*
X1256188Y303530D02*
D03*
X1240632D02*
D03*
X1256188Y317500D02*
D03*
X1240632D02*
D03*
X99218Y256540D02*
D03*
X83662D02*
D03*
X100488Y817880D02*
D03*
X84932D02*
D03*
X101758Y1490980D02*
D03*
X86202D02*
D03*
X103028Y1117600D02*
D03*
X87472D02*
D03*
X104298Y1714500D02*
D03*
X88742D02*
D03*
X103028Y1264920D02*
D03*
X87472D02*
D03*
X104298Y1826260D02*
D03*
X88742D02*
D03*
X105568Y1377950D02*
D03*
X90012D02*
D03*
X1727042Y1428750D02*
D03*
X1742598D02*
D03*
X1727042Y1877060D02*
D03*
X1742598D02*
D03*
X1723232Y1355090D02*
D03*
X1738788D02*
D03*
X1724344Y1805940D02*
D03*
X1739900D02*
D03*
X1431132Y1220470D02*
D03*
X1446688D02*
D03*
X1725772Y1206500D02*
D03*
X1741328D02*
D03*
X1727042Y1653540D02*
D03*
X1742598D02*
D03*
X1725772Y1093470D02*
D03*
X1741328D02*
D03*
X1727042Y1540510D02*
D03*
X1742598D02*
D03*
X1727042Y534670D02*
D03*
X1742598D02*
D03*
X1727042Y981710D02*
D03*
X1742598D02*
D03*
X1725772Y457200D02*
D03*
X1741328D02*
D03*
X1727042Y906780D02*
D03*
X1742598D02*
D03*
X1431132Y323850D02*
D03*
X1446688D02*
D03*
X1432402Y770890D02*
D03*
X1447958D02*
D03*
X1727042Y308610D02*
D03*
X1742598D02*
D03*
X1727042Y758190D02*
D03*
X1742598D02*
D03*
X1728312Y196850D02*
D03*
X1743868D02*
D03*
X99218Y144780D02*
D03*
X83662D02*
D03*
X561498Y76200D02*
D03*
X545942D02*
D03*
X100488Y368300D02*
D03*
X84932D02*
D03*
X101758Y594360D02*
D03*
X86202D02*
D03*
X99218Y481330D02*
D03*
X83662D02*
D03*
X103028Y671830D02*
D03*
X87472D02*
D03*
X410368Y363220D02*
D03*
X394812D02*
D03*
X397668Y807720D02*
D03*
X382112D02*
D03*
X101758Y930910D02*
D03*
X86202D02*
D03*
X100488Y1041400D02*
D03*
X84932D02*
D03*
X397668Y1248410D02*
D03*
X382112D02*
D03*
X105568Y1564640D02*
D03*
X90012D02*
D03*
X398938Y1694180D02*
D03*
X383382D02*
D03*
X618462Y1527810D02*
D03*
X634018D02*
D03*
Y1548130D02*
D03*
X618462D02*
D03*
X813912Y1530350D02*
D03*
X829468D02*
D03*
Y1549400D02*
D03*
X813912D02*
D03*
X1080928Y1741170D02*
D03*
X1065372D02*
D03*
X1167288Y1762760D02*
D03*
X1151732D02*
D03*
X1079658Y1574800D02*
D03*
X1064102D02*
D03*
X1727042Y645160D02*
D03*
X1742598D02*
D03*
X1433672Y1670050D02*
D03*
X1449228D02*
D03*
D12*
X471170Y677291D02*
D03*
Y717169D02*
D03*
X473710Y255651D02*
D03*
Y295529D02*
D03*
X471170Y491871D02*
D03*
Y531749D02*
D03*
Y923671D02*
D03*
Y963549D02*
D03*
Y1145921D02*
D03*
Y1185799D02*
D03*
X472440Y1377061D02*
D03*
Y1416939D02*
D03*
Y1581531D02*
D03*
Y1621409D02*
D03*
Y1820291D02*
D03*
Y1860169D02*
D03*
X1069340Y1605661D02*
D03*
Y1645539D02*
D03*
X1356360Y187579D02*
D03*
Y147701D02*
D03*
Y430149D02*
D03*
Y390271D02*
D03*
Y638429D02*
D03*
Y598551D02*
D03*
Y877189D02*
D03*
Y837311D02*
D03*
Y1090549D02*
D03*
Y1050671D02*
D03*
Y1319149D02*
D03*
Y1279271D02*
D03*
X1357630Y1547749D02*
D03*
Y1507871D02*
D03*
Y1785239D02*
D03*
Y1745361D02*
D03*
D13*
X1135380Y1779651D02*
D03*
Y1763649D02*
D03*
X1390650Y328549D02*
D03*
Y344551D02*
D03*
X455930Y172339D02*
D03*
Y188341D02*
D03*
X466090Y362331D02*
D03*
Y346329D02*
D03*
X452120Y419989D02*
D03*
Y435991D02*
D03*
X448310Y610489D02*
D03*
Y626491D02*
D03*
X433070Y794131D02*
D03*
Y778129D02*
D03*
X450850Y861949D02*
D03*
Y877951D02*
D03*
Y1086739D02*
D03*
Y1102741D02*
D03*
X445770Y1247140D02*
D03*
Y1231138D02*
D03*
X449580Y1321689D02*
D03*
Y1337691D02*
D03*
Y1524889D02*
D03*
Y1540891D02*
D03*
X412750Y1683131D02*
D03*
Y1667129D02*
D03*
X449580Y1764919D02*
D03*
Y1780921D02*
D03*
X1045210Y1756791D02*
D03*
Y1740789D02*
D03*
Y1786001D02*
D03*
Y1769999D02*
D03*
X1059180Y1802511D02*
D03*
Y1786509D02*
D03*
X1183640Y1780921D02*
D03*
Y1764919D02*
D03*
X1107440Y1537589D02*
D03*
Y1553591D02*
D03*
X1383030Y252730D02*
D03*
Y236728D02*
D03*
X1380490Y490601D02*
D03*
Y474599D02*
D03*
X1383030Y698881D02*
D03*
Y682879D02*
D03*
X1399540Y778129D02*
D03*
Y794131D02*
D03*
X1380490Y940181D02*
D03*
Y924179D02*
D03*
X1384300Y1148461D02*
D03*
Y1132459D02*
D03*
X1409700Y1225169D02*
D03*
Y1241171D02*
D03*
X1383030Y1385951D02*
D03*
Y1369949D02*
D03*
X1380490Y1599311D02*
D03*
Y1583309D02*
D03*
X1424940Y1687449D02*
D03*
Y1703451D02*
D03*
X1384300Y1840611D02*
D03*
Y1824609D02*
D03*
D14*
X1198880Y1769268D02*
D03*
Y1753712D02*
D03*
X528320Y106838D02*
D03*
Y91282D02*
D03*
X631320Y1586072D02*
D03*
Y1601628D02*
D03*
X608460Y1671162D02*
D03*
Y1686718D02*
D03*
X822960Y1582262D02*
D03*
Y1597818D02*
D03*
X802640Y1667352D02*
D03*
Y1682908D02*
D03*
X1217930Y1753712D02*
D03*
Y1769268D02*
D03*
D16*
X1202690Y1814576D02*
D03*
Y1878584D02*
D03*
D21*
X683136Y1543050D02*
D03*
X747144D02*
D03*
X874776D02*
D03*
X938784D02*
D03*
D25*
X641353Y1728470D02*
D03*
X659387D02*
D03*
X641353Y1753870D02*
D03*
X659387D02*
D03*
X829183Y1722120D02*
D03*
X847217D02*
D03*
X829183Y1744980D02*
D03*
X847217D02*
D03*
D26*
X1004570Y1768983D02*
D03*
Y1787017D02*
D03*
X1026160Y1768983D02*
D03*
Y1787017D02*
D03*
D29*
X1051560Y1507236D02*
D03*
X1064260D02*
D03*
X1076960D02*
D03*
X1089660D02*
D03*
Y1554480D02*
D03*
X1076960D02*
D03*
X1064260D02*
D03*
X1051560D02*
D03*
D37*
X208750Y1073150D02*
D03*
X158750D02*
D03*
X628650Y1870240D02*
D03*
Y1920240D02*
D03*
X1625130Y1841500D02*
D03*
X1675130D02*
D03*
X1651400Y1059980D02*
D03*
Y1109980D02*
D03*
Y612940D02*
D03*
Y662940D02*
D03*
X212090Y193040D02*
D03*
X162090D02*
D03*
X182880Y510540D02*
D03*
Y460540D02*
D03*
X208280Y635000D02*
D03*
X158280D02*
D03*
X183750Y968210D02*
D03*
Y918210D02*
D03*
Y1408900D02*
D03*
Y1358900D02*
D03*
X207480Y1520190D02*
D03*
X157480D02*
D03*
X182480Y1852930D02*
D03*
Y1802930D02*
D03*
X1651400Y169710D02*
D03*
Y219710D02*
D03*
X1626400Y497840D02*
D03*
X1676400D02*
D03*
X1626400Y946150D02*
D03*
X1676400D02*
D03*
X1650130Y1512100D02*
D03*
Y1562100D02*
D03*
X1626400Y1393190D02*
D03*
X1676400D02*
D03*
D38*
X412750Y688340D02*
D03*
X910590Y1617980D02*
D03*
X415290Y1396238D02*
D03*
X1129030Y1850390D02*
D03*
X1341120Y1424940D02*
D03*
X1337310Y1891792D02*
D03*
X1341120Y1186942D02*
D03*
X1337310Y1651000D02*
D03*
X1341120Y529082D02*
D03*
Y293370D02*
D03*
Y740410D02*
D03*
X419100Y261620D02*
D03*
X495300Y153670D02*
D03*
X499110Y393700D02*
D03*
X412750Y502158D02*
D03*
X499110Y578358D02*
D03*
Y820928D02*
D03*
X412750Y941070D02*
D03*
X499110Y1042670D02*
D03*
X414020Y1167130D02*
D03*
X494030Y1272540D02*
D03*
Y1473708D02*
D03*
X415290Y1606550D02*
D03*
X494030Y1708150D02*
D03*
X415290Y1840738D02*
D03*
X716918Y1626870D02*
D03*
X698500Y1752600D02*
D03*
X850392Y1786890D02*
D03*
X960120Y1791462D02*
D03*
X1416050Y168910D02*
D03*
Y411480D02*
D03*
Y621030D02*
D03*
Y858520D02*
D03*
X1341120Y980440D02*
D03*
X1416050Y1072642D02*
D03*
Y1305560D02*
D03*
Y1522730D02*
D03*
Y1759712D02*
D03*
D40*
X361442Y1210360D02*
D03*
Y1229360D02*
D03*
Y1248360D02*
D03*
X363220Y326440D02*
D03*
Y345440D02*
D03*
Y364440D02*
D03*
X361442Y768870D02*
D03*
Y787870D02*
D03*
Y806870D02*
D03*
Y1654860D02*
D03*
Y1673860D02*
D03*
Y1692860D02*
D03*
X1469898Y363170D02*
D03*
Y344170D02*
D03*
Y325170D02*
D03*
Y809410D02*
D03*
Y790410D02*
D03*
Y771410D02*
D03*
Y1258050D02*
D03*
Y1239050D02*
D03*
Y1220050D02*
D03*
Y1708900D02*
D03*
Y1689900D02*
D03*
Y1670900D02*
D03*
D41*
X147320Y1179360D02*
D03*
Y1279360D02*
D03*
X149098Y295440D02*
D03*
Y395440D02*
D03*
X147320Y737870D02*
D03*
Y837870D02*
D03*
Y1623860D02*
D03*
Y1723860D02*
D03*
X1684020Y394170D02*
D03*
Y294170D02*
D03*
Y840410D02*
D03*
Y740410D02*
D03*
Y1289050D02*
D03*
Y1189050D02*
D03*
Y1739900D02*
D03*
Y1639900D02*
D03*
D47*
X364290Y64770D02*
D03*
X288290D02*
D03*
X822960Y1836420D02*
D03*
X697230Y396240D02*
D03*
X1079500Y381000D02*
D03*
X1301750Y1059180D02*
D03*
X624840Y788670D02*
D03*
X617220Y1016000D02*
D03*
X547370Y1106170D02*
D03*
X1084580Y1310640D02*
D03*
X1085850Y1289050D02*
D03*
X826770Y1263650D02*
D03*
X756920Y1736090D02*
D03*
X1140460Y1518920D02*
D03*
Y1464310D02*
D03*
X905510Y1431290D02*
D03*
X1123950Y1553210D02*
D03*
X1036320Y1443990D02*
D03*
X1158240Y1593850D02*
D03*
X1032510Y1572260D02*
D03*
X995299Y1460881D02*
D03*
X1079881D02*
D03*
X1099820Y1457960D02*
D03*
X739140Y1113790D02*
D03*
X740410Y1097280D02*
D03*
X1103630Y925830D02*
D03*
X1088390Y770890D02*
D03*
X1153160Y440690D02*
D03*
X1049020Y576580D02*
D03*
X1038860Y763270D02*
D03*
X1046480Y1042670D02*
D03*
Y1062990D02*
D03*
X1050290Y939800D02*
D03*
X938530Y1325880D02*
D03*
X1109980Y1243330D02*
D03*
X1084580Y1267460D02*
D03*
X1018540Y1240790D02*
D03*
X731520Y1003300D02*
D03*
X712470D02*
D03*
X690880Y889000D02*
D03*
X737870Y977900D02*
D03*
X1076960Y426720D02*
D03*
X1064260Y403860D02*
D03*
X570230Y1699260D02*
D03*
X882650Y948690D02*
D03*
X551180Y1687830D02*
D03*
X554355Y1665605D02*
D03*
X571500Y1008380D02*
D03*
Y784860D02*
D03*
X548640Y1261110D02*
D03*
X510540Y1652270D02*
D03*
X527050Y1666240D02*
D03*
X1002030Y1156970D02*
D03*
X911860Y1304290D02*
D03*
X595630Y762000D02*
D03*
X601980Y1242060D02*
D03*
X565150Y1437640D02*
D03*
X1120140Y1789430D02*
D03*
X1518920Y1174750D02*
D03*
X1576070Y1449070D02*
D03*
X1485900Y1635760D02*
D03*
X1465580Y1885950D02*
D03*
X346710Y593090D02*
D03*
X327660Y420370D02*
D03*
X323850Y396240D02*
D03*
X330200Y877570D02*
D03*
X120650Y796290D02*
D03*
X300990Y1085850D02*
D03*
X290830Y1042670D02*
D03*
X270002Y1301242D02*
D03*
X285750Y1483360D02*
D03*
X124460Y1692910D02*
D03*
X1498600Y994410D02*
D03*
X1557020Y725170D02*
D03*
X1517650Y271780D02*
D03*
X852170Y1672590D02*
D03*
X849630Y1633220D02*
D03*
X666880Y1677670D02*
D03*
X656720Y1634490D02*
D03*
X1291590Y299720D02*
D03*
X802640Y915670D02*
D03*
X1374140Y360680D02*
D03*
X1319950Y809410D02*
D03*
X1296670Y515620D02*
D03*
X1299210Y711200D02*
D03*
X1258570Y610870D02*
D03*
X796290Y953770D02*
D03*
X847090Y932180D02*
D03*
X1294130Y800100D02*
D03*
X1308100Y346710D02*
D03*
X1261110Y861060D02*
D03*
X824230Y961390D02*
D03*
X775970Y904240D02*
D03*
X1294130Y1239520D02*
D03*
X1278890Y831850D02*
D03*
Y1258570D02*
D03*
X1311910Y1718310D02*
D03*
X979170Y662940D02*
D03*
X844550Y889000D02*
D03*
X863600Y920750D02*
D03*
X927100Y857250D02*
D03*
X843280Y756920D02*
D03*
X755650Y633730D02*
D03*
X1327150Y1701800D02*
D03*
X862330Y866140D02*
D03*
X861060Y723900D02*
D03*
X839470Y623570D02*
D03*
X810260Y596900D02*
D03*
X789940Y1071880D02*
D03*
X782320Y1009650D02*
D03*
X1037590Y1327150D02*
D03*
X762000Y1093470D02*
D03*
X754380Y1009650D02*
D03*
X1146810Y359410D02*
D03*
X537160Y326440D02*
D03*
X591820Y401320D02*
D03*
X604520Y261620D02*
D03*
X962660Y450850D02*
D03*
X1070610Y679450D02*
D03*
X1093470Y718820D02*
D03*
X1126490Y631190D02*
D03*
X1099820Y661670D02*
D03*
X519430Y758190D02*
D03*
X930910Y560070D02*
D03*
X1005840Y635000D02*
D03*
X1125220Y789940D02*
D03*
X1126490Y853440D02*
D03*
X523240Y777240D02*
D03*
X552450Y345440D02*
D03*
X530860Y1230630D02*
D03*
X552450Y805180D02*
D03*
X574040Y508000D02*
D03*
X961390D02*
D03*
X520750Y1210360D02*
D03*
X582930Y739140D02*
D03*
X828040Y1027430D02*
D03*
X871220Y1024890D02*
D03*
X1202690Y1014730D02*
D03*
X777240Y864870D02*
D03*
X753110Y880110D02*
D03*
X816610Y864870D02*
D03*
X828040Y899160D02*
D03*
X902970Y957580D02*
D03*
X576580Y722630D02*
D03*
X875030Y1267460D02*
D03*
X972820Y1130300D02*
D03*
X1103630Y1029970D02*
D03*
X544830Y129540D02*
D03*
X454660Y93980D02*
D03*
X565150D02*
D03*
X1075690Y1802130D02*
D03*
X1395730Y196850D02*
D03*
X1383030Y219710D02*
D03*
X1452880Y270510D02*
D03*
X1454150Y508000D02*
D03*
X1380490Y457200D02*
D03*
X1400810Y478790D02*
D03*
X1456690Y538480D02*
D03*
X1400810Y643890D02*
D03*
X1383030Y661670D02*
D03*
X1455420Y717550D02*
D03*
X1398270Y878840D02*
D03*
X1381760Y906780D02*
D03*
X1456690Y953770D02*
D03*
X1400810Y1087120D02*
D03*
X1385570Y1108710D02*
D03*
X1455420Y1163320D02*
D03*
X1400810Y1323340D02*
D03*
X1383030Y1348740D02*
D03*
X1459230Y1412240D02*
D03*
X1400810Y1541780D02*
D03*
X1383030Y1564640D02*
D03*
X1454150Y1616710D02*
D03*
X1400810Y1780540D02*
D03*
X1383030Y1809750D02*
D03*
X1452880Y1855470D02*
D03*
X424180Y1821180D02*
D03*
X448310Y1802130D02*
D03*
X391160Y1723390D02*
D03*
X429260Y1587500D02*
D03*
X449580Y1555750D02*
D03*
X392430Y1485900D02*
D03*
X429260Y1379220D02*
D03*
X449580Y1356360D02*
D03*
X392430Y1276350D02*
D03*
X431800Y1145540D02*
D03*
X450850Y1118870D02*
D03*
X392430Y1046480D02*
D03*
X431800Y922020D02*
D03*
X450850Y897890D02*
D03*
X374650Y845820D02*
D03*
X431800Y666750D02*
D03*
X447040Y643890D02*
D03*
X392430Y567690D02*
D03*
X431800Y477520D02*
D03*
X452120Y453390D02*
D03*
X391160Y381000D02*
D03*
X452120Y157480D02*
D03*
X302260Y172720D02*
D03*
X431800Y236220D02*
D03*
D52*
X1120140Y1668381D02*
D03*
Y1643380D02*
D03*
Y1618379D02*
D03*
Y1593378D02*
D03*
X1183640Y1668381D02*
D03*
Y1643380D02*
D03*
Y1618379D02*
D03*
Y1593378D02*
D03*
D61*
X1104490Y1812290D02*
D03*
X1148490D02*
D03*
D62*
X1438910Y507238D02*
D03*
X1426210D02*
D03*
X1413510D02*
D03*
X1400810D02*
D03*
Y457962D02*
D03*
X1413510D02*
D03*
X1426210D02*
D03*
X1438910D02*
D03*
X393700Y162052D02*
D03*
X406400D02*
D03*
X419100D02*
D03*
X431800D02*
D03*
Y211328D02*
D03*
X419100D02*
D03*
X406400D02*
D03*
X393700D02*
D03*
X392430Y402082D02*
D03*
X405130D02*
D03*
X417830D02*
D03*
X430530D02*
D03*
Y451358D02*
D03*
X417830D02*
D03*
X405130D02*
D03*
X392430D02*
D03*
Y591312D02*
D03*
X405130D02*
D03*
X417830D02*
D03*
X430530D02*
D03*
Y640588D02*
D03*
X417830D02*
D03*
X405130D02*
D03*
X392430D02*
D03*
Y845312D02*
D03*
X405130D02*
D03*
X417830D02*
D03*
X430530D02*
D03*
Y894588D02*
D03*
X417830D02*
D03*
X405130D02*
D03*
X392430D02*
D03*
Y1068832D02*
D03*
X405130D02*
D03*
X417830D02*
D03*
X430530D02*
D03*
Y1118108D02*
D03*
X417830D02*
D03*
X405130D02*
D03*
X392430D02*
D03*
Y1301242D02*
D03*
X405130D02*
D03*
X417830D02*
D03*
X430530D02*
D03*
Y1350518D02*
D03*
X417830D02*
D03*
X405130D02*
D03*
X392430D02*
D03*
Y1508252D02*
D03*
X405130D02*
D03*
X417830D02*
D03*
X430530D02*
D03*
Y1557528D02*
D03*
X417830D02*
D03*
X405130D02*
D03*
X392430D02*
D03*
Y1745742D02*
D03*
X405130D02*
D03*
X417830D02*
D03*
X430530D02*
D03*
Y1795018D02*
D03*
X417830D02*
D03*
X405130D02*
D03*
X392430D02*
D03*
X1438910Y269748D02*
D03*
X1426210D02*
D03*
X1413510D02*
D03*
X1400810D02*
D03*
Y220472D02*
D03*
X1413510D02*
D03*
X1426210D02*
D03*
X1438910D02*
D03*
Y716788D02*
D03*
X1426210D02*
D03*
X1413510D02*
D03*
X1400810D02*
D03*
Y667512D02*
D03*
X1413510D02*
D03*
X1426210D02*
D03*
X1438910D02*
D03*
Y955548D02*
D03*
X1426210D02*
D03*
X1413510D02*
D03*
X1400810D02*
D03*
Y906272D02*
D03*
X1413510D02*
D03*
X1426210D02*
D03*
X1438910D02*
D03*
Y1165098D02*
D03*
X1426210D02*
D03*
X1413510D02*
D03*
X1400810D02*
D03*
Y1115822D02*
D03*
X1413510D02*
D03*
X1426210D02*
D03*
X1438910D02*
D03*
Y1403858D02*
D03*
X1426210D02*
D03*
X1413510D02*
D03*
X1400810D02*
D03*
Y1354582D02*
D03*
X1413510D02*
D03*
X1426210D02*
D03*
X1438910D02*
D03*
Y1618488D02*
D03*
X1426210D02*
D03*
X1413510D02*
D03*
X1400810D02*
D03*
Y1569212D02*
D03*
X1413510D02*
D03*
X1426210D02*
D03*
X1438910D02*
D03*
Y1857248D02*
D03*
X1426210D02*
D03*
X1413510D02*
D03*
X1400810D02*
D03*
Y1807972D02*
D03*
X1413510D02*
D03*
X1426210D02*
D03*
X1438910D02*
D03*
D63*
X463290Y218440D02*
D03*
X506990D02*
D03*
X478530Y455930D02*
D03*
X522230D02*
D03*
X470910Y643890D02*
D03*
X514610D02*
D03*
X474720Y883920D02*
D03*
X518420D02*
D03*
X474720Y1104900D02*
D03*
X518420D02*
D03*
X474720Y1336040D02*
D03*
X518420D02*
D03*
X474720Y1539240D02*
D03*
X518420D02*
D03*
X475990Y1776730D02*
D03*
X519690D02*
D03*
X1349000Y229870D02*
D03*
X1305300D02*
D03*
X1349000Y466090D02*
D03*
X1305300D02*
D03*
X1349000Y675640D02*
D03*
X1305300D02*
D03*
X1354080Y915670D02*
D03*
X1310380D02*
D03*
X1349000Y1123950D02*
D03*
X1305300D02*
D03*
X1349000Y1361440D02*
D03*
X1305300D02*
D03*
X1357890Y1587500D02*
D03*
X1314190D02*
D03*
X1357890Y1828800D02*
D03*
X1314190D02*
D03*
D64*
X456184Y27940D02*
D03*
X422656D02*
D03*
D65*
X497205Y90297D02*
D03*
X478155D02*
D03*
X487680Y69723D02*
D03*
D66*
X679580Y1652680D02*
D03*
Y1608680D02*
D03*
X871220Y1651410D02*
D03*
Y1607410D02*
D03*
D67*
X634780Y1665660D02*
D03*
X825150Y1661740D02*
D03*
D68*
X1086540Y1764950D02*
D03*
D69*
X641350Y1326642D02*
D03*
X996950Y871982D02*
D03*
X1515110Y1048512D02*
D03*
X311150Y971550D02*
D03*
X1784350Y1979930D02*
D03*
X44450D02*
D03*
X1778000Y44450D02*
D03*
X44450D02*
D03*
D70*
X412750Y713232D02*
D03*
X415290Y1421130D02*
D03*
X1129030Y1875282D02*
D03*
X1341120Y1400048D02*
D03*
X1337310Y1866900D02*
D03*
X1341120Y1162050D02*
D03*
X1337310Y1626108D02*
D03*
X1341120Y504190D02*
D03*
Y268478D02*
D03*
Y715518D02*
D03*
X419100Y286512D02*
D03*
X495300Y178562D02*
D03*
X499110Y418592D02*
D03*
X412750Y527050D02*
D03*
X499110Y603250D02*
D03*
Y845820D02*
D03*
X412750Y965962D02*
D03*
X499110Y1067562D02*
D03*
X414020Y1192022D02*
D03*
X494030Y1297432D02*
D03*
Y1498600D02*
D03*
X415290Y1631442D02*
D03*
X494030Y1733042D02*
D03*
X415290Y1865630D02*
D03*
X698500Y1777492D02*
D03*
X960120Y1766570D02*
D03*
X1416050Y144018D02*
D03*
Y386588D02*
D03*
Y596138D02*
D03*
Y833628D02*
D03*
X1341120Y955548D02*
D03*
X1416050Y1047750D02*
D03*
Y1280668D02*
D03*
Y1497838D02*
D03*
Y1734820D02*
D03*
D71*
X935482Y1617980D02*
D03*
X741810Y1626870D02*
D03*
X825500Y1786890D02*
D03*
D72*
X743050Y64230D02*
D03*
X768450D02*
D03*
X793850D02*
D03*
X819250D02*
D03*
X844650D02*
D03*
X870050D02*
D03*
X895450D02*
D03*
X920850D02*
D03*
X946250D02*
D03*
X971650D02*
D03*
X997050D02*
D03*
X1022450D02*
D03*
X1047850D02*
D03*
X1073250D02*
D03*
X1098650D02*
D03*
X743050Y311930D02*
D03*
X768450D02*
D03*
X793850D02*
D03*
X819250D02*
D03*
X844650D02*
D03*
X870050D02*
D03*
X895450D02*
D03*
X920850D02*
D03*
X946250D02*
D03*
X971650D02*
D03*
X997050D02*
D03*
X1022450D02*
D03*
X1047850D02*
D03*
X1073250D02*
D03*
X1098650D02*
D03*
D73*
X755650Y1864360D02*
D03*
Y1934360D02*
D03*
D74*
X60960Y146050D02*
D03*
Y258064D02*
D03*
Y370078D02*
D03*
Y482092D02*
D03*
Y594106D02*
D03*
Y706120D02*
D03*
Y818134D02*
D03*
Y930148D02*
D03*
Y1042162D02*
D03*
Y1154176D02*
D03*
Y1266190D02*
D03*
Y1378204D02*
D03*
Y1490218D02*
D03*
Y1602232D02*
D03*
Y1714246D02*
D03*
Y1826260D02*
D03*
X1770380Y1877060D02*
D03*
Y1765046D02*
D03*
Y1653032D02*
D03*
Y1541018D02*
D03*
Y1429004D02*
D03*
Y1316990D02*
D03*
Y1204976D02*
D03*
Y1092962D02*
D03*
Y980948D02*
D03*
Y868934D02*
D03*
Y756920D02*
D03*
Y644906D02*
D03*
Y532892D02*
D03*
Y420878D02*
D03*
Y308864D02*
D03*
Y196850D02*
D03*
D75*
X60960Y171450D02*
D03*
Y196850D02*
D03*
Y283464D02*
D03*
Y308864D02*
D03*
Y395478D02*
D03*
Y420878D02*
D03*
Y507492D02*
D03*
Y532892D02*
D03*
Y619506D02*
D03*
Y644906D02*
D03*
Y731520D02*
D03*
Y756920D02*
D03*
Y843534D02*
D03*
Y868934D02*
D03*
Y955548D02*
D03*
Y980948D02*
D03*
Y1067562D02*
D03*
Y1092962D02*
D03*
Y1179576D02*
D03*
Y1204976D02*
D03*
Y1291590D02*
D03*
Y1316990D02*
D03*
Y1403604D02*
D03*
Y1429004D02*
D03*
Y1515618D02*
D03*
Y1541018D02*
D03*
Y1627632D02*
D03*
Y1653032D02*
D03*
Y1739646D02*
D03*
Y1765046D02*
D03*
Y1851660D02*
D03*
Y1877060D02*
D03*
X1770380Y1851660D02*
D03*
Y1826260D02*
D03*
Y1739646D02*
D03*
Y1714246D02*
D03*
Y1627632D02*
D03*
Y1602232D02*
D03*
Y1515618D02*
D03*
Y1490218D02*
D03*
Y1403604D02*
D03*
Y1378204D02*
D03*
Y1291590D02*
D03*
Y1266190D02*
D03*
Y1179576D02*
D03*
Y1154176D02*
D03*
Y1067562D02*
D03*
Y1042162D02*
D03*
Y955548D02*
D03*
Y930148D02*
D03*
Y843534D02*
D03*
Y818134D02*
D03*
Y731520D02*
D03*
Y706120D02*
D03*
Y619506D02*
D03*
Y594106D02*
D03*
Y507492D02*
D03*
Y482092D02*
D03*
Y395478D02*
D03*
Y370078D02*
D03*
Y283464D02*
D03*
Y258064D02*
D03*
Y171450D02*
D03*
Y146050D02*
D03*
D76*
X341630Y238760D02*
D03*
X291630D02*
D03*
X338290Y681990D02*
D03*
X288290D02*
D03*
X338290Y1123950D02*
D03*
X288290D02*
D03*
X338290Y1567180D02*
D03*
X288290D02*
D03*
X1492250Y449580D02*
D03*
X1542250D02*
D03*
X1493050Y896620D02*
D03*
X1543050D02*
D03*
X1493050Y1344930D02*
D03*
X1543050D02*
D03*
X1493050Y1797050D02*
D03*
X1543050D02*
D03*
D77*
X646430Y1106170D02*
D03*
X1154430D02*
D03*
D78*
X671830D02*
D03*
X646430Y1080770D02*
D03*
X671830D02*
D03*
X646430Y1055370D02*
D03*
X671830D02*
D03*
X646430Y1029970D02*
D03*
X671830D02*
D03*
X646430Y1004570D02*
D03*
X671830D02*
D03*
X646430Y979170D02*
D03*
X671830D02*
D03*
X646430Y953770D02*
D03*
X671830D02*
D03*
X646430Y928370D02*
D03*
X671830D02*
D03*
X646430Y902970D02*
D03*
X671830D02*
D03*
X646430Y877570D02*
D03*
X671830D02*
D03*
X646430Y852170D02*
D03*
X671830D02*
D03*
X646430Y826770D02*
D03*
X671830D02*
D03*
X646430Y801370D02*
D03*
X671830D02*
D03*
X646430Y775970D02*
D03*
X671830D02*
D03*
X646430Y750570D02*
D03*
X671830D02*
D03*
X646430Y725170D02*
D03*
X671830D02*
D03*
X646430Y699770D02*
D03*
X671830D02*
D03*
X646430Y674370D02*
D03*
X671830D02*
D03*
X646430Y648970D02*
D03*
X671830D02*
D03*
X646430Y623570D02*
D03*
X671830D02*
D03*
X646430Y598170D02*
D03*
X671830D02*
D03*
X646430Y572770D02*
D03*
X671830D02*
D03*
X646430Y547370D02*
D03*
X671830D02*
D03*
X646430Y521970D02*
D03*
X671830D02*
D03*
X646430Y496570D02*
D03*
X671830D02*
D03*
X1179830Y1106170D02*
D03*
X1154430Y1080770D02*
D03*
X1179830D02*
D03*
X1154430Y1055370D02*
D03*
X1179830D02*
D03*
X1154430Y1029970D02*
D03*
X1179830D02*
D03*
X1154430Y1004570D02*
D03*
X1179830D02*
D03*
X1154430Y979170D02*
D03*
X1179830D02*
D03*
X1154430Y953770D02*
D03*
X1179830D02*
D03*
X1154430Y928370D02*
D03*
X1179830D02*
D03*
X1154430Y902970D02*
D03*
X1179830D02*
D03*
X1154430Y877570D02*
D03*
X1179830D02*
D03*
X1154430Y852170D02*
D03*
X1179830D02*
D03*
X1154430Y826770D02*
D03*
X1179830D02*
D03*
X1154430Y801370D02*
D03*
X1179830D02*
D03*
X1154430Y775970D02*
D03*
X1179830D02*
D03*
X1154430Y750570D02*
D03*
X1179830D02*
D03*
X1154430Y725170D02*
D03*
X1179830D02*
D03*
X1154430Y699770D02*
D03*
X1179830D02*
D03*
X1154430Y674370D02*
D03*
X1179830D02*
D03*
X1154430Y648970D02*
D03*
X1179830D02*
D03*
X1154430Y623570D02*
D03*
X1179830D02*
D03*
X1154430Y598170D02*
D03*
X1179830D02*
D03*
X1154430Y572770D02*
D03*
X1179830D02*
D03*
X1154430Y547370D02*
D03*
X1179830D02*
D03*
X1154430Y521970D02*
D03*
X1179830D02*
D03*
X1154430Y496570D02*
D03*
X1179830D02*
D03*
M02*
